<?xml version="1.0" encoding="utf-8"?>
<!-- Generator: Adobe Illustrator 23.1.1, SVG Export Plug-In . SVG Version: 6.00 Build 0)  -->
<svg version="1.1" id="Layer_1" xmlns="http://www.w3.org/2000/svg" xmlns:xlink="http://www.w3.org/1999/xlink" x="0px" y="0px"
	 viewBox="0 0 77 77" style="enable-background:new 0 0 77 77;" xml:space="preserve">
<style type="text/css">
	.st0{fill:#7FD7C3;}
</style>
<g>
	<path class="st0" d="M70,25.7C62.9,8.3,43.1-0.1,25.7,7C8.3,14.1-0.1,33.9,7,51.3C14.1,68.7,33.9,77.1,51.3,70
		C68.7,62.9,77.1,43.1,70,25.7 M50.5,68C34.2,74.6,15.6,66.8,9,50.5C2.4,34.2,10.2,15.6,26.5,9C42.8,2.4,61.4,10.2,68,26.5
		S66.8,61.4,50.5,68"/>
	<path class="st0" d="M46,33.2c1.4,0.5,2.8,1,4.2,1.4c0.1,0,0.1,0.1,0.2,0.1c0.5,0.1,0.7,0.9,0.3,1.4c-0.3,0.3-0.6,0.7-0.8,1
		c-2.3,2.5-4.8,4.1-7.7,4.9c-0.6,0.2-1.2,0.3-1.8,0.3c-0.2,0-0.4,0.1-0.6,0c-0.4,0-0.8-0.1-1.2-0.1c-0.8,0-1.4-0.4-2.1-0.6
		c-0.7-0.3-1.4-0.7-2.1-1.3c-0.7-0.6-1.4-1.4-1.7-2.5c-0.1-0.3-0.2-0.6-0.2-1c-0.1-0.7,0.2-1,0.8-1c0.5,0,1,0.1,1.5,0.1
		c2.2-0.1,4-1.3,5.6-3.4c0.1-0.1,0.2-0.2,0.2-0.3c0.3-0.5,0.8-0.7,1.2-0.5c0.3,0.1,0.6,0.2,0.9,0.3C43.7,32.4,44.9,32.8,46,33.2"/>
	<path class="st0" d="M46.8,30c0.5,0.1,0.7,0.6,0.6,1.2c-0.1,0.4-0.5,0.7-1,0.6c-0.5-0.1-0.8-0.6-0.6-1.2C46,30.2,46.4,29.9,46.8,30
		"/>
	<path class="st0" d="M45.5,28.5c-0.1,0.4-0.4,0.6-0.8,0.5c-0.3-0.1-0.5-0.5-0.5-0.8c0.1-0.4,0.4-0.7,0.8-0.6
		C45.4,27.7,45.6,28.1,45.5,28.5"/>
	<path class="st0" d="M44.2,30.3c-0.1,0.4-0.4,0.6-0.8,0.5c-0.3-0.1-0.5-0.5-0.5-0.8c0.1-0.4,0.4-0.7,0.8-0.6
		C44,29.5,44.2,29.9,44.2,30.3"/>
	<path class="st0" d="M37.7,54.8c-3.7,0-7.4,0-11.1,0c-1.7,0-3,1-3.5,2.7c-0.5,1.7-0.1,3.5,1.2,4.7c0.8,0.7,1.7,0.9,2.6,0.9
		c4.3,0,8.6,0,12.9,0c3,0,5.4,2.2,6,5.3c0,0.2,0.1,0.4,0.1,0.6c0.1,1.3,0.1,1.3-1.1,1.3c-0.5,0-0.7-0.2-0.8-0.8
		c-0.3-2.9-1.8-4.4-4.5-4.4c-4.3,0-8.5,0-12.8,0c-2.3,0-4.1-1-5.1-3.4c-1-2.4-0.8-4.7,0.6-6.8c1.1-1.6,2.5-2.3,4.3-2.3
		c7.1,0,14.3,0,21.4,0c0.3,0,0.6,0,0.8,0c0.4,0,0.8-0.1,0.9-0.6c0-0.6-0.5-0.6-0.8-0.7c-0.2,0-0.5,0-0.7,0c-6.1,0-12.2,0-18.3,0
		c-4.2,0-7.8-3.4-8.6-8.3c-0.5-3.2-0.1-6.3,1-9.2c1.7-4.4,5.1-5.3,8.5-2.4c2.2,1.9,5,1.9,7-0.2c2-2.1,2.7-4.9,2.4-8
		c-0.1-0.8-0.5-1.5-1.1-2c-0.6-0.7-1.3-1.4-1.9-2.1c-1.8-1.9-2.6-4.3-2.8-7c-0.1-1.7,0-3.3,0-5c0-0.9,0.4-0.9,1-0.9c0.6,0,1,0,1,0.9
		c0,1.7-0.2,3.3,0,5c0.2,2.6,1.2,4.7,3,6.3c1.3,1.2,2.4,2.7,2.8,4.7c0.9,5-2.4,10.9-6.7,11.7c-2.1,0.4-4.2,0.2-5.9-1.6
		c-0.3-0.3-0.6-0.6-1-0.8c-1.5-0.9-3-0.5-3.9,1c-0.8,1.4-1.2,2.9-1.4,4.5c-0.3,1.7-0.4,3.4,0,5.1c0.9,3.7,3.4,6,6.9,6.1
		c6,0,12.1,0,18.1,0c0.5,0,0.9,0,1.4,0.1c1.3,0.4,2.1,1.6,2,3c-0.1,1.4-1.2,2.5-2.5,2.5c-1.9,0-3.8,0-5.7,0
		C41.6,54.8,39.6,54.8,37.7,54.8"/>
	<path class="st0" d="M26.9,39.3c-0.9,3.8,1,6.5,4.6,6.6c6.2,0,12.4,0,18.6,0c2.6,0,4.8,2,5.3,4.9c0.7,4.1-1.8,7.5-5.6,7.5
		c-7.1,0-14.2,0-21.4,0c-0.3,0-0.7,0-1,0c-0.3,0-0.5,0.2-0.5,0.5c0,0.4,0.2,0.6,0.5,0.6c0.3,0.1,0.6,0.1,0.9,0.1c3.8,0,7.5,0,11.3,0
		c5.2,0,9,4,9.3,9.8c0,0.5,0.1,1-0.6,1c-0.6-0.1-1.3,0.3-1.3-0.9c-0.1-1.8-0.6-3.5-1.6-4.9c-1.4-2-3.3-2.8-5.5-2.8
		c-3.8,0-7.5,0-11.3,0c-0.5,0-1,0-1.5-0.1c-1.3-0.3-2.2-1.4-2.2-2.7c0-1.3,0.9-2.4,2.1-2.7c0.5-0.1,1-0.1,1.6-0.1
		c7.1,0,14.3,0,21.4,0c1.7,0,2.9-0.9,3.4-2.5c0.5-1.7,0.1-3.6-1.1-4.7c-0.7-0.6-1.5-0.9-2.4-0.9c-6.2,0-12.3,0-18.5,0
		c-1,0-2-0.2-2.9-0.6c-3.3-1.6-4.8-6.6-3.1-10.2c0.8-1.6,1.9-1.6,2.7-0.1c2,3.6,5,5.5,8.7,5.9c5.5,0.6,11.2-2.2,15.1-6.8
		c0.3-0.4,1,0.3,1.4,0.5c0.4,0.2,0.1,0.5,0,0.7c-0.7,1.1-1.5,2.2-2.5,3c-5.6,4.8-11.6,6.3-18.4,3.5c-1.9-0.8-3.5-2.1-4.8-3.9
		c-0.2-0.2-0.3-0.4-0.5-0.6C27,39.4,27,39.4,26.9,39.3"/>
	<path class="st0" d="M37.6,9.3c0-0.6,0-1.2,0-1.8c0-0.8,0.2-1.1,0.9-1.1c1.1,0,1.1,0,1.1,1.2c0,1.1,0,2.2,0,3.2
		c0,1.4,0.5,2.7,1.4,3.8c0.9,1.1,2,1.5,3.3,0.9c2.1-0.9,4.2-0.9,6.3,0.3c0.7,0.5,1.2,0.7,1.8,1.4c0.1,0.1,0.8,0.8,0.8,1
		c-0.1,0.2-1.4,0.9-1.6,0.9c-1,0-1.3-0.8-2.3-1.4c-1.2-0.8-2.7-0.8-3.9-0.2c-4.2,2.2-7.8-2.4-7.8-6.4C37.5,10.5,37.6,9.9,37.6,9.3
		L37.6,9.3z"/>
	<path class="st0" d="M56.4,18.8c-4.7,0-8.5,3.8-8.5,8.5s3.8,8.5,8.5,8.5c4.7,0,8.5-3.8,8.5-8.5S61.1,18.8,56.4,18.8 M55.3,30.8
		c-0.9-0.8-1.9-1.7-2.8-2.5c-0.5-0.4-0.5-1.1-0.1-1.6c0.4-0.4,1.1-0.5,1.6-0.1c0.6,0.5,1.1,1,1.7,1.5c1.2-1.3,2.4-2.6,3.6-3.9
		c0.3-0.4,0.7-0.5,1.2-0.4c0.4,0.1,0.7,0.4,0.8,0.8c0.1,0.4,0,0.7-0.3,1c-1.6,1.7-3.1,3.4-4.7,5C56.1,31.1,55.6,31.1,55.3,30.8"/>
</g>
</svg>
