<?xml version="1.0" encoding="utf-8"?>
<!-- Generator: Adobe Illustrator 23.1.1, SVG Export Plug-In . SVG Version: 6.00 Build 0)  -->
<svg version="1.1" id="Layer_1" xmlns="http://www.w3.org/2000/svg" xmlns:xlink="http://www.w3.org/1999/xlink" x="0px" y="0px"
	 viewBox="0 0 77 77" style="enable-background:new 0 0 77 77;" xml:space="preserve">
<style type="text/css">
	.st0{fill:#7FD7C3;}
</style>
<g>
	<path class="st0" d="M52.3,57.3c-0.2,0.3-0.3,0.4-0.7,0.3c-0.6-0.1-1.2-0.2-1.8-0.3c-0.1,0-0.2-0.1-0.2-0.2c0-0.7-0.3-1.2-0.8-1.7
		c-0.7-0.7-1.6-0.9-2.5-0.6c-1,0.3-1.5,0.9-1.8,1.9c-0.3,1.2,0.3,2.4,1.4,2.9c0.2,0.1,0.2,0.1,0.2,0.3c-0.1,0.8-0.3,1.5-0.4,2.3
		c0,0.2-0.1,0.2-0.3,0.2c-0.7,0-1.2,0.3-1.8,0.7c-1.1,0.9-1.4,2.7-0.4,4.1c0.6,0.8,1.5,1.2,2.6,1.1c1.1-0.1,2-0.7,2.4-1.8
		c0.7-1.6,0-3.3-1.5-3.9c-0.1,0-0.3-0.1-0.2-0.3c0.2-0.8,0.3-1.6,0.4-2.4c0-0.1,0.1-0.2,0.2-0.2c1-0.1,1.7-0.6,2.1-1.5
		c0.1-0.1,0.1-0.2,0.3-0.2c0.7,0.1,1.4,0.3,2.1,0.4c0.2,0,0.2,0.1,0.2,0.2c0.1,0.5,0.3,0.9,0.7,1.2c0.9,0.7,2.1,0.6,2.8-0.2
		c0.7-0.9,0.6-2.1-0.3-2.8C54.2,56.3,52.9,56.4,52.3,57.3"/>
	<path class="st0" d="M53.1,55.4c1-0.6,1-2,0.5-2.7c-0.6-0.8-1.9-1.1-2.8-0.5c-1,0.7-1.1,1.9-0.5,2.8C50.9,55.7,52.2,56.1,53.1,55.4
		"/>
	<path class="st0" d="M43.8,59.5c-0.7-1-1.9-1.1-2.8-0.5c-0.9,0.6-1.1,1.9-0.5,2.8c0.7,0.9,1.9,1.2,2.8,0.5
		C44.2,61.6,44.4,60.4,43.8,59.5"/>
	<path class="st0" d="M56.1,14.6c-0.4-0.9-1.2-1.5-2.2-1.5c-1.5-0.1-2.7,1-2.8,2.4c0,0.1,0,0.2-0.2,0.3c-0.7,0.1-1.4,0.2-2.1,0.3
		c-0.1,0-0.2,0-0.2-0.1c-0.4-0.8-1-1.2-1.9-1.3c-0.1,0-0.2-0.1-0.2-0.2c-0.1-0.6-0.2-1.2-0.3-1.8c0-0.1,0-0.2,0.1-0.3
		c0.4-0.2,0.7-0.5,0.8-0.9c0.3-0.9-0.1-1.9-1-2.3c-0.9-0.3-1.9,0.2-2.3,1.1c-0.3,0.9,0.2,2,1.1,2.3c0.3,0.1,0.4,0.2,0.4,0.5
		c0.1,0.5,0.2,1.1,0.3,1.6c0,0.1,0,0.2-0.1,0.2C45,15,44.7,15.4,44.4,16c-0.4,0.8-0.3,1.6,0.2,2.3c0.5,0.7,1.2,1,2.1,0.9
		c1.1-0.1,1.9-0.9,2-2c0-0.2,0.1-0.2,0.2-0.2c0.7-0.1,1.4-0.2,2-0.3c0.1,0,0.2,0,0.3,0.1c0.2,0.5,0.6,1,1.1,1.3
		c1.1,0.7,2.7,0.4,3.6-0.9C56.4,16.4,56.5,15.5,56.1,14.6"/>
	<path class="st0" d="M43.1,12.3c-0.8-0.7-2-0.2-2.4,0.4c-0.5,0.7-0.4,1.9,0.4,2.4c0.9,0.6,1.9,0.4,2.5-0.4
		C44,14.1,44,12.9,43.1,12.3"/>
	<path class="st0" d="M49.3,18.9c-0.6,0.9-0.3,1.9,0.4,2.5c0.8,0.6,1.9,0.4,2.4-0.4c0.6-0.8,0.4-1.9-0.4-2.5
		C50.9,17.9,49.9,18.1,49.3,18.9"/>
	<path class="st0" d="M58.7,26c0.1-0.1,0.2-0.2,0.3,0c0.5,0.5,1.1,1,1.6,1.4c0.1,0.1,0.1,0.1,0.1,0.3c-0.4,0.8-0.3,1.6,0.1,2.3
		c0.1,0.1,0.1,0.2,0,0.3c-0.4,0.5-0.8,0.9-1.2,1.4c-0.1,0.1-0.2,0.1-0.3,0.1c-0.4-0.2-0.8-0.2-1.2,0C57.2,32,56.7,33,57,33.9
		c0.3,0.9,1.4,1.4,2.3,1.1c0.9-0.3,1.4-1.4,1-2.3c-0.1-0.3-0.1-0.4,0.1-0.7c0.4-0.4,0.7-0.8,1.1-1.3c0.1-0.1,0.1-0.1,0.2-0.1
		c0.5,0.3,1.1,0.3,1.6,0.2c0.8-0.2,1.4-0.8,1.6-1.6c0.2-0.8,0-1.6-0.6-2.2c-0.8-0.8-1.9-0.9-2.8-0.2c-0.1,0.1-0.2,0.1-0.3,0
		c-0.5-0.5-1-0.9-1.6-1.4c-0.1-0.1-0.1-0.2-0.1-0.3c0.3-0.5,0.3-1.1,0.3-1.7c-0.2-1.3-1.4-2.3-2.9-2.2c-0.8,0.1-1.6,0.6-2,1.5
		c-0.4,0.9-0.4,1.9,0.2,2.7C56,26.6,57.6,26.8,58.7,26"/>
	<path class="st0" d="M64.9,34c-0.1-1.1-0.9-1.7-1.9-1.7c-0.9,0-1.8,0.8-1.6,1.9c0,1,1.1,1.7,1.9,1.6C64.1,35.8,65,34.9,64.9,34"/>
	<path class="st0" d="M62.5,25.2c1.1-0.1,1.7-1,1.7-1.9c-0.1-1-0.9-1.7-1.9-1.6c-1,0.1-1.8,0.9-1.7,1.9
		C60.7,24.6,61.5,25.3,62.5,25.2"/>
	<path class="st0" d="M58.9,50.1c0.5-0.2,1-0.3,1.6-0.6c0.1,0,0.2,0,0.2,0.1c0.3,0.5,0.8,0.8,1.4,0.9c0.8,0.2,1.6,0,2.2-0.6
		c0.6-0.6,0.8-1.4,0.5-2.2c-0.3-1.1-1.2-1.7-2.3-1.6c-0.2,0-0.2,0-0.3-0.2c-0.2-0.7-0.5-1.3-0.7-2c0-0.1,0-0.2,0.1-0.3
		c0.5-0.3,0.8-0.8,1.1-1.3c0.5-1.2-0.1-2.7-1.5-3.4c-0.8-0.3-1.7-0.3-2.5,0.3c-0.8,0.6-1.2,1.4-1.1,2.4c0.2,1.5,1.5,2.5,2.9,2.3
		c0.1,0,0.2-0.1,0.3,0.1c0.2,0.7,0.5,1.4,0.7,2.1c0,0.1,0,0.2-0.1,0.3c-0.7,0.5-1,1.2-1,2.1c0,0.1,0,0.2-0.2,0.3
		c-0.6,0.2-1.2,0.4-1.8,0.6c-0.1,0-0.2,0-0.3-0.1c-0.3-0.3-0.6-0.6-1-0.6c-1-0.2-1.9,0.5-2.1,1.4c-0.2,1,0.5,1.9,1.4,2
		c1,0.2,1.9-0.5,2-1.5C58.6,50.3,58.6,50.2,58.9,50.1"/>
	<path class="st0" d="M61.8,54c0.5-1,0-1.9-0.8-2.4c-0.8-0.4-1.9-0.2-2.3,0.9c-0.5,0.9,0.1,2,0.8,2.3C60.3,55.2,61.4,54.9,61.8,54"
		/>
	<path class="st0" d="M63.3,42.9c-0.4,0.9-0.1,1.9,0.8,2.3c1,0.5,2,0,2.4-0.8c0.4-0.9,0-1.9-0.8-2.3C64.7,41.6,63.7,42,63.3,42.9"/>
	<path class="st0" d="M54.5,68.5c0.6-0.3,1.2-0.7,1.8-1.1c0.4-0.2,0.7-0.4,1.1-0.7c0.2-0.2,0.5-0.4,0.7-0.5c3.2-2.2,5.9-5,8-8
		c0.2-0.2,0.3-0.4,0.5-0.7c0.1-0.2,0.3-0.5,0.4-0.7c2-3.2,3.6-6.7,4.4-10.5c0.1-0.3,0.2-0.6,0.2-0.9c0.1-0.4,0.1-0.9,0.2-1.3
		c0.1-0.7,0.2-1.4,0.3-2.1c0-0.3,0-0.5,0.1-0.8c0.1-0.9,0.1-1.8,0.1-2.7c0,0,0-0.1,0-0.1c0-0.2,0-0.5,0-0.7c0-0.8,0-1.7-0.1-2.5
		c0-0.4-0.1-0.9-0.2-1.3c-0.1-0.6-0.2-1.3-0.3-1.9c-0.1-0.6-0.3-1.3-0.5-1.9c-0.1-0.4-0.2-0.9-0.3-1.3c-0.2-0.8-0.5-1.6-0.8-2.4
		c-0.1-0.2-0.1-0.4-0.2-0.7c0,0,0-0.1-0.1-0.1c-0.3-0.8-0.7-1.6-1.1-2.4c-0.1-0.2-0.2-0.5-0.3-0.7c-0.3-0.6-0.7-1.2-1.1-1.8
		c-0.2-0.4-0.4-0.8-0.7-1.1c-0.2-0.2-0.4-0.5-0.5-0.7c-2.2-3.2-5-5.9-8-8c-0.2-0.2-0.4-0.3-0.7-0.5c-0.2-0.1-0.4-0.3-0.7-0.4
		c-3.2-2-6.7-3.6-10.5-4.5c-0.3-0.1-0.6-0.2-0.9-0.2C45,5.1,44.6,5.1,44.2,5c-0.7-0.1-1.4-0.2-2.1-0.3c-0.3,0-0.5,0-0.8-0.1
		c-0.9-0.1-1.8-0.1-2.7-0.1c0,0-0.1,0-0.1,0c-0.2,0-0.5,0-0.7,0c-0.8,0-1.7,0-2.5,0.1c-0.4,0-0.9,0.1-1.3,0.2
		C33.3,4.9,32.6,5,32,5.1c-0.6,0.1-1.3,0.3-1.9,0.5c-0.4,0.1-0.9,0.2-1.3,0.3c-0.8,0.2-1.6,0.5-2.4,0.8c-0.2,0.1-0.5,0.1-0.7,0.2
		c0,0-0.1,0-0.1,0.1c-0.8,0.3-1.6,0.7-2.4,1.1c-0.2,0.1-0.5,0.2-0.7,0.3c-0.6,0.3-1.2,0.7-1.8,1.1c-0.4,0.2-0.8,0.4-1.1,0.7
		c-0.2,0.2-0.5,0.3-0.7,0.5c-3.2,2.3-5.9,5-8.1,8.1c-0.1,0.2-0.3,0.4-0.5,0.6c-0.2,0.2-0.3,0.5-0.4,0.7c-2,3.2-3.5,6.7-4.4,10.5
		c-0.1,0.3-0.2,0.6-0.2,0.9C5.1,32,5.1,32.4,5,32.8c-0.1,0.7-0.2,1.4-0.3,2.1c0,0.3,0,0.5-0.1,0.8c-0.1,0.9-0.1,1.8-0.1,2.7
		c0,0,0,0.1,0,0.1c0,0.2,0,0.5,0,0.7c0,0.8,0,1.7,0.1,2.5c0,0.5,0.1,0.9,0.2,1.3C4.9,43.7,5,44.4,5.1,45c0.1,0.6,0.3,1.3,0.5,1.9
		c0.1,0.4,0.2,0.9,0.3,1.3c0.2,0.8,0.5,1.6,0.8,2.4c0.1,0.2,0.1,0.4,0.2,0.7c0,0,0,0.1,0.1,0.1c0.3,0.8,0.7,1.6,1.1,2.4
		c0.1,0.2,0.2,0.5,0.3,0.7c0.3,0.6,0.7,1.2,1.1,1.8c0.2,0.4,0.4,0.7,0.7,1.1c0.2,0.2,0.4,0.5,0.5,0.7c2.2,3.2,5,5.9,8,8
		c0.2,0.2,0.4,0.3,0.7,0.5c0.2,0.1,0.5,0.3,0.7,0.4c3.2,2,6.7,3.6,10.5,4.4c0.3,0.1,0.6,0.2,0.9,0.2c0.4,0.1,0.9,0.1,1.3,0.2
		c0.7,0.1,1.4,0.2,2.1,0.3c0.3,0,0.5,0,0.8,0.1c0.9,0.1,1.8,0.1,2.7,0.1c0,0,0.1,0,0.1,0c0.2,0,0.5,0,0.7,0c0.8,0,1.7,0,2.5-0.1
		c0.5,0,0.9-0.1,1.3-0.2c0.6-0.1,1.3-0.2,1.9-0.3c0.6-0.1,1.3-0.3,1.9-0.5c0.4-0.1,0.9-0.2,1.3-0.3c0.8-0.2,1.6-0.5,2.4-0.8
		c0.2-0.1,0.4-0.1,0.7-0.2c0,0,0.1,0,0.1-0.1c0.8-0.3,1.6-0.7,2.4-1.1C54.1,68.7,54.3,68.6,54.5,68.5 M56.3,64.9
		c-0.3,0.2-0.7,0.4-1,0.6c-0.6,0.4-1.1,0.7-1.7,1c-0.2,0.1-0.4,0.2-0.7,0.3c-0.7,0.4-1.5,0.7-2.3,1.1c-0.2,0.1-0.5,0.2-0.7,0.3
		c-0.7,0.3-1.5,0.6-2.3,0.8c-0.4,0.1-0.8,0.2-1.2,0.3c-0.6,0.2-1.2,0.3-1.8,0.4c-0.6,0.1-1.2,0.2-1.8,0.3c-0.4,0.1-0.8,0.1-1.2,0.2
		c-0.8,0.1-1.6,0.1-2.4,0.1c-0.3,0-0.5,0-0.8,0c-0.8,0-1.7-0.1-2.5-0.1c-0.2,0-0.5,0-0.7,0c-0.4,0-0.7-0.1-1.1-0.2
		c0.9-2.1,1.8-4.2,2.8-6.3c2.6-6.1,7-10.2,13.3-12.3c4-1.4,6.3-5.4,5.5-9.4c0-0.2-0.1-0.3-0.1-0.5c-1.7,0.9-3.7,1.3-5.8,1.1
		c-3.4-0.4-6.1,0.5-8.4,3.2c-3.3,3.9-8.8,4.7-13.1,2.1c0.4,3.8-0.3,7.6-2,11.4c-1.1,2.3-2.1,4.7-3.1,7.1c-0.6-0.3-1.1-0.7-1.7-1
		c-0.2-0.1-0.4-0.3-0.7-0.4c-0.2-0.1-0.4-0.3-0.6-0.5c-2.9-2.1-5.5-4.6-7.5-7.5c-0.2-0.2-0.3-0.4-0.5-0.7c-0.2-0.3-0.4-0.7-0.6-1
		c-0.3-0.6-0.7-1.1-1-1.7c-0.1-0.2-0.2-0.4-0.3-0.7c-0.4-0.7-0.7-1.5-1.1-2.3c-0.1-0.2-0.2-0.5-0.3-0.7c-0.3-0.7-0.6-1.5-0.8-2.3
		c-0.1-0.4-0.2-0.8-0.3-1.2c-0.2-0.6-0.3-1.2-0.4-1.8C7.1,44,7.1,43.4,7,42.8c-0.1-0.4-0.1-0.8-0.2-1.2c-0.1-0.8-0.1-1.6-0.1-2.4
		c0-0.3,0-0.5,0-0.8c0-0.8,0.1-1.7,0.1-2.5c0-0.2,0-0.5,0-0.7c0.1-0.7,0.2-1.3,0.3-2c0.1-0.4,0.1-0.8,0.2-1.2
		c0.1-0.3,0.1-0.5,0.2-0.8c0.8-3.5,2.2-6.8,4.1-9.8c0.1-0.2,0.3-0.4,0.4-0.7c0.1-0.2,0.3-0.4,0.5-0.6c2.1-2.9,4.6-5.5,7.5-7.5
		c0.2-0.2,0.4-0.3,0.7-0.5c0.3-0.2,0.7-0.4,1-0.6c0.6-0.3,1.1-0.7,1.7-1c0.2-0.1,0.4-0.2,0.7-0.3c0.2-0.1,0.4-0.2,0.5-0.3
		c0.7,1.9,1.5,3.8,2.2,5.7c2.5,6.2,2.2,12.2-0.7,18.2c-1.9,3.8-0.7,8.2,2.8,10.6c3.5,2.3,8.2,1.8,10.9-1.5c1.8-2.2,4-2.9,6.7-2.6
		c4.2,0.5,7.9-2.2,8.9-6.3c1-4-1.1-8.1-5-9.6c-6.3-2.4-10.6-6.8-13-13.1c-0.5-1.5-1.1-2.9-1.7-4.3c0.6-0.1,1.3-0.1,1.9-0.1
		c0.3,0,0.5,0,0.8,0c0.8,0,1.7,0.1,2.5,0.1c0.2,0,0.5,0,0.7,0c0.7,0.1,1.3,0.2,2,0.3c0.4,0.1,0.8,0.1,1.2,0.2
		c0.3,0.1,0.5,0.1,0.8,0.2c3.5,0.8,6.8,2.2,9.8,4.1c0.2,0.1,0.5,0.3,0.7,0.4c0.2,0.1,0.4,0.3,0.6,0.4c2.9,2.1,5.5,4.6,7.6,7.5
		c0.2,0.2,0.3,0.4,0.5,0.7c0.2,0.3,0.4,0.7,0.6,1c0.3,0.6,0.7,1.1,1,1.7c0.1,0.2,0.2,0.4,0.3,0.7c0.4,0.7,0.7,1.5,1.1,2.3
		c0.1,0.2,0.2,0.5,0.3,0.7c0.3,0.7,0.6,1.5,0.8,2.2c0.1,0.4,0.2,0.8,0.3,1.2c0.2,0.6,0.3,1.2,0.4,1.8c0.1,0.6,0.2,1.2,0.3,1.8
		c0.1,0.4,0.1,0.8,0.2,1.2c0.1,0.8,0.1,1.6,0.1,2.4c0,0.3,0,0.5,0,0.8c0,0.8-0.1,1.7-0.1,2.5c0,0.2,0,0.5,0,0.7
		c-0.1,0.7-0.2,1.3-0.3,2c-0.1,0.4-0.1,0.8-0.2,1.2c-0.1,0.3-0.1,0.5-0.2,0.8c-0.8,3.5-2.2,6.8-4.2,9.9c-0.1,0.2-0.2,0.4-0.4,0.6
		c-0.1,0.2-0.3,0.4-0.5,0.6c-2.1,2.9-4.6,5.4-7.5,7.5C56.7,64.6,56.5,64.8,56.3,64.9"/>
	<path class="st0" d="M15.9,25.7c0.8,0.2,1.6-0.2,1.8-1c0.1-0.2,0.1-0.3,0.4-0.4c0.4-0.1,0.9-0.2,1.3-0.3c0.1,0,0.1,0,0.2,0.1
		c0.2,0.4,0.6,0.7,1,0.9c0.7,0.3,1.3,0.2,1.8-0.3c0.6-0.4,0.8-1,0.7-1.7c-0.1-0.9-0.8-1.5-1.7-1.6c-0.1,0-0.2,0-0.2-0.2
		c-0.1-0.6-0.2-1.1-0.3-1.7c0-0.1,0-0.2,0.1-0.2c0.4-0.2,0.8-0.5,1-1c0.5-0.9,0.2-2.2-0.8-2.9c-0.6-0.4-1.3-0.4-2.1,0
		c-0.7,0.4-1.1,1-1.2,1.9c0,1.2,0.9,2.2,2.1,2.2c0.1,0,0.2,0,0.2,0.1c0.1,0.6,0.2,1.2,0.4,1.7c0,0.1,0,0.1-0.1,0.2
		c-0.6,0.3-1,0.9-1,1.6c0,0.1,0,0.2-0.2,0.2c-0.5,0.1-1,0.2-1.5,0.3c-0.1,0-0.2,0-0.2-0.1c-0.2-0.3-0.4-0.5-0.8-0.6
		c-0.8-0.2-1.6,0.2-1.8,0.9C14.7,24.7,15.2,25.5,15.9,25.7"/>
	<path class="st0" d="M17.7,26.3c-0.5,0.7-0.1,1.6,0.4,2c0.6,0.4,1.6,0.2,2-0.4c0.5-0.8,0.2-1.6-0.4-2
		C19.1,25.4,18.1,25.5,17.7,26.3"/>
	<path class="st0" d="M22.8,21c0.8,0.5,1.6,0.2,2-0.4c0.4-0.6,0.2-1.6-0.4-2c-0.7-0.4-1.6-0.3-2,0.4C22,19.7,22.1,20.5,22.8,21"/>
	<path class="st0" d="M23.3,57.4c-0.9-0.5-1.9-0.3-2.4,0.5c0,0.1-0.1,0.1-0.2,0.1c-0.4-0.2-0.9-0.3-1.4-0.5c-0.1,0-0.1-0.1-0.1-0.1
		c0-0.6-0.2-1-0.7-1.4c-0.1-0.1-0.1-0.1-0.1-0.2c0.1-0.4,0.3-0.8,0.4-1.2c0-0.1,0.1-0.1,0.2-0.1c0.3,0,0.5-0.1,0.8-0.3
		c0.5-0.4,0.5-1.2,0.1-1.6c-0.4-0.5-1.2-0.5-1.7-0.1c-0.5,0.4-0.5,1.2,0,1.7c0.1,0.1,0.2,0.2,0.1,0.4c-0.1,0.3-0.2,0.7-0.3,1
		c0,0.1-0.1,0.1-0.1,0.1c-0.4,0-0.7,0.1-1,0.3c-0.5,0.4-0.6,0.8-0.6,1.4c0.1,0.6,0.4,1,0.9,1.2c0.7,0.3,1.4,0,1.8-0.6
		c0.1-0.1,0.1-0.1,0.2-0.1c0.4,0.2,0.9,0.3,1.3,0.4c0.1,0,0.1,0.1,0.1,0.2c0,0.4,0.1,0.7,0.3,1.1c0.4,0.7,1.5,1.1,2.3,0.6
		c0.5-0.3,0.8-0.8,0.9-1.4C24.1,58.2,23.8,57.7,23.3,57.4"/>
	<path class="st0" d="M17.2,53.5c-0.2-0.6-1.1-0.8-1.5-0.5c-0.5,0.3-0.8,1-0.5,1.5c0.3,0.6,1,0.8,1.6,0.6
		C17.2,54.8,17.6,54.2,17.2,53.5"/>
	<path class="st0" d="M18.8,59.3c-0.7,0.3-0.8,1-0.5,1.6c0.3,0.6,1,0.8,1.6,0.5c0.6-0.3,0.9-1,0.5-1.6C20,59.2,19.3,59,18.8,59.3"/>
	<path class="st0" d="M19.2,43.2c-0.1,0.1-0.3,0.2-0.5,0c-0.7-0.8-1.4-1.7-2.2-2.5c-0.1-0.1-0.1-0.2,0-0.4c0.7-1.1,0.8-2.3,0.2-3.5
		c-0.1-0.2-0.1-0.3,0.1-0.5c0.7-0.6,1.4-1.2,2.1-1.9c0.2-0.1,0.3-0.2,0.4-0.1c0.6,0.3,1.2,0.4,1.8,0.3c1.5-0.3,2.4-1.7,2.1-3.2
		c-0.3-1.5-1.8-2.4-3.2-2.1c-1.5,0.3-2.4,1.8-2,3.3c0.1,0.4,0.1,0.6-0.3,1c-0.6,0.5-1.3,1.1-1.9,1.7c-0.1,0.1-0.2,0.1-0.4,0
		C14.9,35,14,34.9,13.2,35c-1.3,0.2-2.2,0.9-2.7,2.1c-0.5,1.2-0.3,2.4,0.5,3.4c1,1.3,2.7,1.7,4.2,0.9c0.2-0.1,0.3-0.1,0.5,0.1
		c0.7,0.8,1.4,1.6,2.1,2.4c0.1,0.2,0.2,0.3,0,0.5C17.2,45.1,17,46,17,46.9c0,2,1.7,3.8,4,3.9c1.3,0,2.5-0.6,3.4-1.9
		c0.8-1.3,0.9-2.7,0.2-4.1C23.4,42.8,21.1,42.1,19.2,43.2"/>
	<path class="st0" d="M14,32.8c1.3,0.1,2.8-0.9,2.8-2.6c0.2-1.6-1.3-2.7-2.5-2.8c-1.4-0.1-2.8,1-2.8,2.5
		C11.4,31.6,12.6,32.7,14,32.8"/>
	<path class="st0" d="M13.3,43.6c-1.7-0.1-2.8,1.1-2.9,2.5c-0.1,1.4,1,2.7,2.5,2.8c1.5,0.1,2.8-1,2.9-2.5
		C15.9,44.9,14.9,43.7,13.3,43.6"/>
</g>
</svg>
