<svg id="control_bolas_pelo" xmlns="http://www.w3.org/2000/svg" width="74.331" height="74.331" viewBox="0 0 74.331 74.331">
  <path id="Trazado_39" data-name="Trazado 39" d="M163.346,103.916A37.156,37.156,0,1,0,142.9,152.323a37.156,37.156,0,0,0,20.442-48.407m-21.34,46.2a34.771,34.771,0,1,1,19.131-45.3,34.772,34.772,0,0,1-19.131,45.3" transform="translate(-91.756 -80.733)" fill="#ffb800"/>
  <path id="Trazado_40" data-name="Trazado 40" d="M156.606,101.98a21.434,21.434,0,0,0-3.541.4c-3.141.755-2.939-.568-5.848-1.877-2.543-1.137-5.16-2.161-8.054-1.892a2.937,2.937,0,0,1-2.109-.8,9.085,9.085,0,0,0-6.364-1.765c-3.425.172-6.491,1.742-9.774,2.49-7.067,1.608-11.359,6.289-13.969,12.758-2.236,5.526-2.558,11.382-3,17.26-.471,6.177,2.49,10.364,7.134,13.61a31.8,31.8,0,0,0,14.7,5.369c3.724.441,7.358.284,10.776-1.413,1.174-.584,2.632-1.458,2.049-2.9-.569-1.391-2.289-.9-3.328-.463-3.216,1.331-6.484,1.263-9.812.837-3.784-.493-7.508-1.129-10.372-4.1a2.225,2.225,0,0,1,1.952-.4,27.9,27.9,0,0,0,8.151.584c2.012-.255,2.371-1.182,1.062-2.865a17.85,17.85,0,0,0,4.45-.359c.717-.194,1.413-.351,1.488-1.256.082-.957-.591-1.331-1.354-1.623-1.406-.546-2.9-.3-4.442-.7,2.662-1.286,5.848-2,5.332-6.334a14.059,14.059,0,0,1,3.014,4.824c1.735,3.986,2.684,4.539,6.969,4.36.846-.038,1.691-.18,1.788-1.077a1.544,1.544,0,0,0-1.675-1.69c-1.571.089-1.6-.845-1.885-1.945-.673-2.55.434-5.062-.03-7.62-.164-.92.823-1.645,1.787-1.615,2.835.09,5.721-.352,8.458.8.569.239,1.182.733,1.705-.082a1.8,1.8,0,0,0-.082-2.169,6.136,6.136,0,0,0-3.058-2.027,39.282,39.282,0,0,0-7.927-1.585,17.483,17.483,0,0,0,1.9-.635,4.649,4.649,0,0,1,5.96,1.031c1.234,1.249,3.941,1.1,5.624-.044,1.092-.748,1.922-1.533,1.226-3.029a1.869,1.869,0,0,1,.374-1.855c1.2-1.667.579-3.818-.351-5.581-.618-1.17,2.619-3.228,1.073-4.617m-39.516,2.576a17.578,17.578,0,0,1,10.021-2.214c.569.022,1.538-.11,1.575,1.012.037,1.279-.806.925-1.421.89-.352-.02-1.591.04-1.942.04a12.892,12.892,0,0,0-7.368,2.308c-.913.561-1.458.307-1.885-.366-.605-.972.609-1.431,1.02-1.67m-5.821,16.835c-.8.427-.785-.4-.964-.822-.1-.235-.186-.473-.261-.712a11.358,11.358,0,0,1,.138-7.305,14.54,14.54,0,0,1,2.747-4.5c.7-.8,1.048-.254,1.571.128.6.426.5.71.045,1.211-2.782,3.029-3.822,6.521-2.475,10.507.314.935-.285,1.226-.8,1.495m16.579,7.494c-.486.351-1.017.83-1.5.082-.658-1.017-1.466-.912-2.535-.778-4.053.494-7.9.055-10.894-3-.321-.321-1.176-.878-.4-1.633.56-.546,1.047-.7,1.69.06a7.819,7.819,0,0,0,3.9,2.348c.09-.105.172-.209.254-.321-3.881-3.4-4.965-6.768-3.425-10.612a9.333,9.333,0,0,1,9.737-5.616c4.9.755,7.852,3.963,8.129,9.041a11.446,11.446,0,0,1-4.959,10.425m10.792-23.093c-.255.411-.344,1.047-1.122.71a31.107,31.107,0,0,0-5.886-1.832c-.807-.172-.463-.837-.471-1.3-.015-.7.509-.441.688-.426a36.579,36.579,0,0,1,6.252,1.907c.434.179.942.306.539.942m7.306,3.762c-.322.329-.7.613-1.04.9-1.488-.89-2.939-1.69-4.3-2.617-.389-.269.195-.7.329-1.047a.535.535,0,0,1,.86-.277c1.316.786,2.625,1.586,3.941,2.371.292.172.5.366.21.666m5.2,4.621a1.1,1.1,0,0,1-1.331-.015c-.673-.486-1.324-1-1.945-1.54-.284-.247-1.054-.434-.441-1.017.389-.367.711-1.219,1.533-.472a14.343,14.343,0,0,1,2.692,2.341,2.949,2.949,0,0,1-.508.7" transform="translate(-91.756 -80.733)" fill="#ffb800"/>
  <path id="Trazado_41" data-name="Trazado 41" d="M122.941,113.249h0a.817.817,0,0,1,1.462.532.818.818,0,0,0,.989.83.817.817,0,0,1,.778,1.347.817.817,0,0,0,.224,1.271.817.817,0,0,1-.271,1.532.818.818,0,0,0-.645,1.118.817.817,0,0,1-1.192,1,.817.817,0,0,0-1.212.441.818.818,0,0,1-1.556,0,.817.817,0,0,0-1.213-.441.817.817,0,0,1-1.192-1,.817.817,0,0,0-.645-1.118.817.817,0,0,1-.27-1.532.817.817,0,0,0,.224-1.271.817.817,0,0,1,.778-1.347.818.818,0,0,0,.989-.83.817.817,0,0,1,1.462-.532.817.817,0,0,0,1.29,0" transform="translate(-91.756 -80.733)" fill="#ffb800"/>
  <path id="Trazado_42" data-name="Trazado 42" d="M127.8,120.947h0a.317.317,0,0,1,.567.206.317.317,0,0,0,.383.322.316.316,0,0,1,.3.522.318.318,0,0,0,.087.493.316.316,0,0,1-.1.593.318.318,0,0,0-.25.434.316.316,0,0,1-.462.387.317.317,0,0,0-.47.171.317.317,0,0,1-.6,0,.317.317,0,0,0-.47-.171.317.317,0,0,1-.462-.387.317.317,0,0,0-.25-.434.316.316,0,0,1-.1-.593.317.317,0,0,0,.086-.493.317.317,0,0,1,.3-.522.317.317,0,0,0,.383-.322.317.317,0,0,1,.567-.206.317.317,0,0,0,.5,0" transform="translate(-91.756 -80.733)" fill="#ffb800"/>
</svg>
