<svg id="salud_visual" xmlns="http://www.w3.org/2000/svg" width="74.331" height="74.331" viewBox="0 0 74.331 74.331">
  <path id="Trazado_33" data-name="Trazado 33" d="M386.686,116.786a37.156,37.156,0,1,0-20.442,48.407,37.156,37.156,0,0,0,20.442-48.407m-21.34,46.2a34.771,34.771,0,1,1,19.131-45.3,34.772,34.772,0,0,1-19.131,45.3" transform="translate(-315.096 -93.603)" fill="#ffb800"/>
  <path id="Trazado_34" data-name="Trazado 34" d="M381.116,130.062a4.155,4.155,0,0,0-.25-.363,40.5,40.5,0,0,0-13.7-10.5,34.321,34.321,0,0,0-10.123-3,32.717,32.717,0,0,0-11.756.6,37.065,37.065,0,0,0-11.367,4.845,40.174,40.174,0,0,0-9.207,8.033,5.439,5.439,0,0,0-.337.458,1.629,1.629,0,0,0,0,1.7,5.585,5.585,0,0,0,.337.457,40.174,40.174,0,0,0,9.207,8.033,37.067,37.067,0,0,0,11.367,4.846,32.622,32.622,0,0,0,11.756.6,34.131,34.131,0,0,0,10.123-3.006,40.243,40.243,0,0,0,13.69-10.495,4.152,4.152,0,0,0,.268-.362,1.746,1.746,0,0,0-.009-1.84m-43.507,2,.026.319a16.685,16.685,0,0,0,1.564,5.321l1.157,2.418-2.349-1.287c-.3-.164-.6-.345-.907-.526a72.3,72.3,0,0,1-8.5-6.729l-.57-.6.57-.6a73.529,73.529,0,0,1,8.448-6.7l.052-.026.267.458a.028.028,0,0,0,.009-.018l-.242-.466c.294-.173.579-.337.873-.5l2.349-1.287-1.157,2.418a16.851,16.851,0,0,0-1.572,5.356,21.071,21.071,0,0,0-.018,2.453m12.283.371c.1,1.3.328,2.678.561,4.086l.139.837a35.1,35.1,0,0,0,.872,3.974l.389,1.364-1.391-.285a11.528,11.528,0,0,1-5.77-2.962,11.646,11.646,0,0,1,5.77-19.9l1.391-.294-.389,1.374a33.121,33.121,0,0,0-.872,3.964l-.139.838c-.233,1.417-.458,2.8-.57,4.163Zm13.4,3.766a11.493,11.493,0,0,1-8.2,6.219l-1.408.311.4-1.391c.423-1.511.691-2.945.976-4.534.294-1.667.5-3.127.622-4.449v-2.841c-.121-1.236-.328-2.7-.622-4.362-.285-1.59-.553-3.023-.976-4.535l-.4-1.391,1.408.311a11.47,11.47,0,0,1,8.2,6.219,10.73,10.73,0,0,1,0,10.443m13.664-4.621a39.047,39.047,0,0,1-9.406,7.23l-2.341,1.278,1.149-2.41a16.729,16.729,0,0,0,1.572-5.312l.086-1.4-.1-1.391a16.575,16.575,0,0,0-1.563-5.3l-1.149-2.41,2.341,1.279a39.042,39.042,0,0,1,9.406,7.229l.57.6Z" transform="translate(-315.096 -93.603)" fill="#ffb800"/>
</svg>
