<svg id="salud_intestinal" xmlns="http://www.w3.org/2000/svg" width="74.331" height="74.33" viewBox="0 0 74.331 74.33">
  <path id="Trazado_24" data-name="Trazado 24" d="M394.539,307.882A37.156,37.156,0,1,0,374.1,356.288a37.156,37.156,0,0,0,20.442-48.406m-21.34,46.2a34.771,34.771,0,1,1,19.13-45.3,34.771,34.771,0,0,1-19.13,45.3" transform="translate(-322.949 -284.699)" fill="#ffb800"/>
  <path id="Trazado_25" data-name="Trazado 25" d="M368.333,316.04,372.9,317.6c.079.027.157.061.237.081a.919.919,0,0,1,.281,1.486c-.313.372-.6.778-.926,1.131a17.375,17.375,0,0,1-8.417,5.345,6.753,6.753,0,0,1-1.959.275c-.2-.008-.406.06-.605.048-.448-.027-.891-.1-1.34-.123a9.81,9.81,0,0,1-4.6-2.06,5.751,5.751,0,0,1-1.9-2.711,6.17,6.17,0,0,1-.238-1.045c-.084-.751.224-1.137.838-1.1a14.09,14.09,0,0,0,1.667.086,8.2,8.2,0,0,0,6.1-3.7c.085-.113.17-.224.249-.343a1.052,1.052,0,0,1,1.354-.536c.311.122.63.218.946.326l3.753,1.284" transform="translate(-322.949 -284.699)" fill="#ffb800"/>
  <path id="Trazado_26" data-name="Trazado 26" d="M369.234,312.627a1.026,1.026,0,0,1,.648,1.348.868.868,0,0,1-1.056.651,1.014,1.014,0,0,1-.695-1.275.9.9,0,0,1,1.1-.724" transform="translate(-322.949 -284.699)" fill="#ffb800"/>
  <path id="Trazado_27" data-name="Trazado 27" d="M367.8,310.922a.721.721,0,0,1-.857.589.782.782,0,0,1-.518-.915.708.708,0,0,1,.831-.624.82.82,0,0,1,.544.95" transform="translate(-322.949 -284.699)" fill="#ffb800"/>
  <path id="Trazado_28" data-name="Trazado 28" d="M366.3,312.938a.723.723,0,0,1-.857.59.784.784,0,0,1-.518-.916.707.707,0,0,1,.831-.624.82.82,0,0,1,.544.95" transform="translate(-322.949 -284.699)" fill="#ffb800"/>
  <path id="Trazado_29" data-name="Trazado 29" d="M359.243,339.7c-4.024,0-8.048-.01-12.073,0a3.867,3.867,0,0,0-3.831,2.895,4.944,4.944,0,0,0,1.26,5.1,3.879,3.879,0,0,0,2.867.96c4.685,0,9.369-.022,14.054.012a6.718,6.718,0,0,1,6.564,5.836c.043.229.068.464.089.7.134,1.441.09,1.471-1.186,1.44-.546-.013-.8-.2-.87-.851-.362-3.181-2.008-4.806-4.908-4.82-4.654-.023-9.309,0-13.964-.011a5.657,5.657,0,0,1-5.553-3.689,7.356,7.356,0,0,1,.658-7.4,5.384,5.384,0,0,1,4.706-2.482q11.712.011,23.424.006c.3,0,.6,0,.9-.009.444-.016.923-.115.943-.7.02-.6-.5-.676-.912-.759a4.028,4.028,0,0,0-.808-.04c-6.667.008-13.334.007-20,.033-4.6.017-8.473-3.678-9.343-9.023a18.954,18.954,0,0,1,1.1-10.051c1.877-4.814,5.537-5.8,9.253-2.575a5.291,5.291,0,0,0,7.638-.205,10.681,10.681,0,0,0,2.658-8.725,3.962,3.962,0,0,0-1.149-2.235q-1.02-1.14-2.064-2.251a11.686,11.686,0,0,1-3.011-7.647c-.093-1.807.006-3.626-.031-5.438-.019-.945.467-.994,1.1-.991s1.1.025,1.116.979c.025,1.809-.184,3.6-.044,5.429a10.14,10.14,0,0,0,3.254,6.922,8.914,8.914,0,0,1,3.013,5.1c.941,5.508-2.668,11.9-7.365,12.785a6.55,6.55,0,0,1-6.4-1.769,5.562,5.562,0,0,0-1.1-.874,2.877,2.877,0,0,0-4.261,1.127,13.161,13.161,0,0,0-1.569,4.892,14.617,14.617,0,0,0,.01,5.589c.939,4.094,3.732,6.606,7.506,6.617,6.607.019,13.214.006,19.821.006a5.5,5.5,0,0,1,1.52.142,3.067,3.067,0,0,1,2.2,3.23,2.877,2.877,0,0,1-2.693,2.727c-2.072.051-4.144.019-6.216.02q-3.154,0-6.307,0" transform="translate(-322.949 -284.699)" fill="#ffb800"/>
  <path id="Trazado_30" data-name="Trazado 30" d="M347.4,322.751c-1.007,4.145,1.106,7.149,5.019,7.163,6.757.023,13.514,0,20.272.012,2.841.005,5.191,2.209,5.743,5.333.789,4.469-1.994,8.21-6.162,8.22-7.778.019-15.556.005-23.335.008a9.028,9.028,0,0,0-1.078.051.575.575,0,0,0-.553.557.618.618,0,0,0,.516.706,4.91,4.91,0,0,0,.986.066q6.171.006,12.343,0c5.7.006,9.8,4.357,10.118,10.711.029.59.075,1.119-.673,1.044-.6-.061-1.369.308-1.424-.932a9.818,9.818,0,0,0-1.727-5.314,6.979,6.979,0,0,0-6-3.085c-4.115-.008-8.229,0-12.343-.009a8.219,8.219,0,0,1-1.612-.141,3.051,3.051,0,0,1-.071-5.93,6.953,6.953,0,0,1,1.7-.156q11.713,0,23.425,0a3.678,3.678,0,0,0,3.683-2.774,5,5,0,0,0-1.218-5.129,3.587,3.587,0,0,0-2.6-.932c-6.727.013-13.454,0-20.182.01a7.183,7.183,0,0,1-3.157-.7c-3.6-1.726-5.26-7.253-3.348-11.112.852-1.72,2.044-1.761,2.98-.127a12.05,12.05,0,0,0,9.536,6.4c6.043.659,12.227-2.444,16.461-7.374.356-.414,1.077.308,1.566.576.412.226.146.5,0,.72a15.283,15.283,0,0,1-2.765,3.294c-6.073,5.231-12.722,6.863-20.05,3.87a12.732,12.732,0,0,1-5.292-4.237c-.174-.23-.358-.451-.545-.67-.037-.044-.1-.056-.223-.115" transform="translate(-322.949 -284.699)" fill="#ffb800"/>
  <path id="Trazado_31" data-name="Trazado 31" d="M359.1,289.968c0-.671.032-1.345-.008-2.013-.052-.855.221-1.208,1.027-1.181,1.236.041,1.235-.008,1.229,1.365-.005,1.175-.028,2.35-.005,3.524a6.6,6.6,0,0,0,1.48,4.113,2.855,2.855,0,0,0,3.652,1.032,6.993,6.993,0,0,1,6.859.357,6.861,6.861,0,0,1,1.973,1.519c.12.144.894.856.841,1.075a4.847,4.847,0,0,1-1.741.941c-1.127-.011-1.41-.844-2.487-1.579a4.068,4.068,0,0,0-4.265-.183c-4.546,2.374-8.47-2.594-8.561-6.956-.015-.671,0-1.343,0-2.014h.008" transform="translate(-322.949 -284.699)" fill="#ffb800"/>
  <path id="Trazado_32" data-name="Trazado 32" d="M379.675,300.312a9.291,9.291,0,1,0,9.292,9.29,9.291,9.291,0,0,0-9.292-9.29m-1.235,13.169c-1.015-.912-2.061-1.826-3.06-2.768a1.2,1.2,0,0,1-.075-1.722,1.226,1.226,0,0,1,1.722-.1c.633.544,1.236,1.119,1.9,1.691,1.339-1.456,2.663-2.855,3.974-4.266a1.2,1.2,0,0,1,1.28-.384,1.226,1.226,0,0,1,.853.9,1.166,1.166,0,0,1-.279,1.118q-2.561,2.739-5.121,5.5a.792.792,0,0,1-1.192.03" transform="translate(-322.949 -284.699)" fill="#ffb800"/>
</svg>
