<svg id="sistema_inmune" xmlns="http://www.w3.org/2000/svg" width="74.034" height="74.034" viewBox="0 0 74.034 74.034">
  <path id="Trazado_35" data-name="Trazado 35" d="M151.835,307.676a37.007,37.007,0,1,0-20.357,48.214,37,37,0,0,0,20.357-48.214m-13.661,41.749c-.514.4-1.043.76-1.579,1.117a34.882,34.882,0,1,1,1.579-1.117" transform="translate(-80.532 -284.588)" fill="#ffb800"/>
  <path id="Trazado_36" data-name="Trazado 36" d="M145.592,318.827a19.522,19.522,0,0,0-1.653-7.106c-1.967-4.283-5.162-7.016-9.989-7.329a12.634,12.634,0,0,0-1.929.015,9.772,9.772,0,0,1-8.633,6.055,7.867,7.867,0,0,0,.172,5.952,4.366,4.366,0,0,0,3.165,2.748c.589.142.678.365.6.954-.119.879-.536,1.169-1.37,1.325a9.035,9.035,0,0,0-7.352,8.939q-.01,11.184,0,22.36v.462a1.163,1.163,0,0,0,1.132.924,1.146,1.146,0,0,0,1.14-1v-.312q-.012-11.028,0-22.055a6.915,6.915,0,0,1,5.78-7.114c.477-.059.737.052.856.522.075.283.023.491-.268.573a4.967,4.967,0,0,0-3.374,2.749,8.63,8.63,0,0,0-.529,5.467c1,5.05,5.162,7.754,10.271,7.359,5.214-.4,8.551-3.27,10.347-8.044a32.31,32.31,0,0,0,1.638-13.445m-7.247-9.9a.584.584,0,0,1-.812.1,7.144,7.144,0,0,0-3.277-1.43.58.58,0,1,1,.171-1.147,8.246,8.246,0,0,1,3.814,1.654.589.589,0,0,1,.1.819M142.8,328c-.045.208-.089.417-.141.61a.589.589,0,0,1-.567.432.547.547,0,0,1-.148-.022.576.576,0,0,1-.41-.708l.134-.558a.586.586,0,0,1,.693-.447.578.578,0,0,1,.439.693m.313-2.235a.581.581,0,0,1-.566.454.615.615,0,0,1-.127-.015.573.573,0,0,1-.439-.692c2.13-9.572-1.81-14.093-3.062-15.255a.228.228,0,0,1-.059-.059.572.572,0,0,1,0-.82.585.585,0,0,1,.819,0l.03.023c1.371,1.266,5.668,6.189,3.4,16.364" transform="translate(-80.532 -284.588)" fill="#ffb800"/>
  <path id="Trazado_37" data-name="Trazado 37" d="M116.544,330.968a9.38,9.38,0,0,0-7.881-9.646,1.821,1.821,0,0,1-.924-1.84c.082-.171.261-.2.417-.253a5.351,5.351,0,0,0,3.985-5.4,8.5,8.5,0,0,0-5.415-8.4c-6.063-2.734-12.67-.127-15.493,6.085a20.9,20.9,0,0,0-1.75,7.523,33.426,33.426,0,0,0,1.408,12.551c1.058,3.144,2.719,5.9,5.81,7.389,4,1.929,8.051,2.153,11.82-.588A9.42,9.42,0,0,0,111.5,328.1a5.048,5.048,0,0,0-3.292-3.247c-.321-.105-.76-.112-.626-.678.134-.521.447-.589.924-.521,3.322.469,5.713,3.433,5.72,7.172q.022,10.749.007,21.5v.4c0,.157-.007.313-.007.477v.007a1.176,1.176,0,0,0,2.287.015v-.514c-.015-7.247-.1-14.495.03-21.742m-23.4-1.944a.479.479,0,0,1-.149.022.579.579,0,0,1-.559-.432c-.052-.193-.1-.4-.149-.611a.579.579,0,1,1,1.132-.245c.045.186.089.372.142.558a.582.582,0,0,1-.417.708M96.239,310.2l-.06.059c-1.259,1.162-5.191,5.683-3.061,15.255a.58.58,0,0,1-.44.692.754.754,0,0,1-.126.015.579.579,0,0,1-.566-.454c-2.272-10.175,2.033-15.1,3.4-16.364l.029-.023a.585.585,0,0,1,.82.008.576.576,0,0,1,0,.812m4.6-2.6a7.144,7.144,0,0,0-3.277,1.43.576.576,0,0,1-.358.119.578.578,0,0,1-.35-1.042,8.242,8.242,0,0,1,3.814-1.654.58.58,0,0,1,.171,1.147" transform="translate(-80.532 -284.588)" fill="#ffb800"/>
  <path id="Trazado_38" data-name="Trazado 38" d="M122.964,292.027a8.659,8.659,0,1,0,0,17.318,8.946,8.946,0,0,0,1.013-.06,8.659,8.659,0,0,0-1.013-17.258m4.73,7.121q-2.391,2.547-4.774,5.125a.738.738,0,0,1-1.11.029c-.946-.849-1.922-1.7-2.853-2.577a1.144,1.144,0,0,1,1.534-1.7c.6.506,1.155,1.043,1.773,1.572,1.244-1.356,2.48-2.66,3.7-3.978a1.127,1.127,0,0,1,1.192-.357,1.166,1.166,0,0,1,.8.841,1.085,1.085,0,0,1-.261,1.043" transform="translate(-80.532 -284.588)" fill="#ffb800"/>
</svg>
