<?xml version="1.0" encoding="utf-8"?>
<!-- Generator: Adobe Illustrator 23.1.1, SVG Export Plug-In . SVG Version: 6.00 Build 0)  -->
<svg version="1.1" id="Layer_1" xmlns="http://www.w3.org/2000/svg" xmlns:xlink="http://www.w3.org/1999/xlink" x="0px" y="0px"
	 viewBox="0 0 77 77" style="enable-background:new 0 0 77 77;" xml:space="preserve">
<style type="text/css">
	.st0{fill:#7FD7C3;}
</style>
<g>
	<path class="st0" d="M70,25.7C62.9,8.3,43.1-0.1,25.7,7C8.3,14.1-0.1,33.9,7,51.3C14.1,68.7,33.9,77.1,51.3,70
		C68.7,62.9,77.1,43.1,70,25.7 M50.5,68C34.2,74.6,15.6,66.8,9,50.5C2.4,34.2,10.2,15.6,26.5,9C42.8,2.4,61.4,10.2,68,26.5
		S66.8,61.4,50.5,68"/>
	<path class="st0" d="M56,49.3l-2.1-0.7c-0.5-0.1-0.9-0.1-1.4-0.1c-4,0-7.2,3-7.4,6.9c0,0.2,0,0.4,0,0.5c0,0.6,0.1,1.2,0.2,1.7
		c0.8,3.3,3.7,5.7,7.2,5.7c4.1,0,7.4-3.3,7.4-7.4C59.9,53,58.3,50.6,56,49.3 M56.6,54.5c-1.4,1.5-2.8,3-4.2,4.5
		c-0.3,0.3-0.6,0.3-1,0c-0.8-0.7-1.7-1.5-2.5-2.3c-0.4-0.4-0.4-1-0.1-1.4c0.4-0.4,1-0.5,1.4-0.1c0.5,0.4,1,0.9,1.5,1.4
		c1.1-1.2,2.2-2.3,3.2-3.5c0.3-0.3,0.6-0.4,1-0.3c0.4,0.1,0.6,0.4,0.7,0.7C56.9,53.9,56.8,54.2,56.6,54.5"/>
	<path class="st0" d="M60.4,24.2c-2.6-2.7-6.1-4.1-10.2-4.1c-3.2,0.1-6.4,1.4-8.8,3.7c-1.6,1.6-4.1,1.6-5.8,0
		c-3.9-3.6-8.6-4.6-13.6-3c-5,1.7-8.1,5.3-9.1,10.7c-0.4,2-0.2,4.1,0.6,6.8c1.2,4.3,3.5,8.2,6.9,12c2.9,3.1,6.3,5.8,10.5,8.3
		c2,1.2,4.2,2.3,6.7,3.4c0.3,0.1,0.6,0.2,0.8,0.2s0.6-0.1,0.8-0.2c1.6-0.7,3-1.4,4.3-2.1l0.3-0.2l-0.1-0.4c-0.2-0.6-0.3-1.2-0.4-1.8
		l-0.1-0.7l-0.6,0.3c-1.3,0.7-2.7,1.4-4.1,2c-0.1,0.1-0.2,0.1-0.3,0c-5.1-2.3-9.2-4.8-12.7-7.7c-3.6-3.1-6.3-6.4-8.1-10.2
		c-1.1-2.2-1.7-4.3-2-6.3C14.9,29.3,19,23.9,24.5,23c3.6-0.5,6.7,0.5,9.4,3c2.6,2.5,6.7,2.5,9.2,0c2.2-2.1,5.1-3.2,8.1-3.1
		c3,0.1,5.7,1.5,7.6,3.8c2.3,2.7,3.1,5.9,2.3,9.5c-0.4,1.7-0.9,3.3-1.6,4.8c-0.2,0.4-0.2,0.8-0.1,1.1c0.1,0.3,0.4,0.6,0.7,0.8
		c0.7,0.3,1.5,0,1.8-0.7c1.3-2.8,2-5.1,2.2-7.5C64.5,30.7,63.2,27.2,60.4,24.2"/>
	<path class="st0" d="M61.1,44.4c-0.1,0-0.2,0-0.4,0l-2,0c-2.7,0-5.4,0-8.2,0c-0.1,0-0.2,0-0.2-0.2c-1.2-2.8-2.5-5.7-3.7-8.5
		l-0.8-1.9c-0.3-0.7-0.8-1-1.4-1c-0.6,0-1.1,0.4-1.3,1.1l-4.7,14.4l-3.8-7.2c-0.3-0.5-0.7-0.7-1.2-0.7c-2.2,0-4.3,0-6.5,0
		c-0.4,0-0.7,0.1-1,0.4c-0.3,0.3-0.4,0.6-0.4,1c0,0.8,0.6,1.4,1.4,1.4c1.8,0,3.7,0,5.5,0l0.1,0.1c0.9,1.6,1.7,3.2,2.6,4.8l2.3,4.4
		c0.3,0.6,0.7,0.9,1.3,0.9c0,0,0.1,0,0.1,0c0.4,0,1-0.2,1.2-1.1c1-3.1,2-6.1,3-9.2l1.6-5l1,2.3c0.8,1.9,1.6,3.7,2.4,5.6
		c0.3,0.8,0.9,1.2,1.8,1.2c2.5,0,4.9,0,7.4,0h3.5c0.2,0,0.5,0,0.7-0.1c0.6-0.2,0.9-0.8,0.9-1.4C62.2,45,61.7,44.5,61.1,44.4"/>
	<path class="st0" d="M17.9,33.3c0,0.3,0,0.6,0,0.8c0.1,0.6,0.5,0.9,1,0.9c0.5,0,0.8-0.5,0.9-1c0-0.8,0-1.6,0.2-2.3
		c0.8-2.7,2.6-4.4,5.3-5.1c0.7-0.2,1-0.8,0.7-1.4c-0.2-0.4-0.6-0.5-1.1-0.4c-1.5,0.4-2.8,1-3.9,2.1C19.1,28.5,18,30.9,17.9,33.3"/>
</g>
</svg>
