<?xml version="1.0" encoding="utf-8"?>
<!-- Generator: Adobe Illustrator 23.1.1, SVG Export Plug-In . SVG Version: 6.00 Build 0)  -->
<svg version="1.1" id="Layer_1" xmlns="http://www.w3.org/2000/svg" xmlns:xlink="http://www.w3.org/1999/xlink" x="0px" y="0px"
	 viewBox="0 0 77 77" style="enable-background:new 0 0 77 77;" xml:space="preserve">
<style type="text/css">
	.st0{fill:#7FD7C3;}
</style>
<g>
	<path class="st0" d="M54.2,46.3c-1.7,0-3,1.4-3,3c0,1.7,1.4,3,3,3c1.7,0,3-1.4,3-3C57.2,47.6,55.9,46.3,54.2,46.3 M52.7,48.3
		c0-0.3,0.2-0.5,0.5-0.5s0.5,0.2,0.5,0.5s-0.2,0.5-0.5,0.5S52.7,48.6,52.7,48.3 M53.7,51.3c-0.3,0-0.5-0.2-0.5-0.5s0.2-0.5,0.5-0.5
		s0.5,0.2,0.5,0.5S54,51.3,53.7,51.3 M56.7,49.8c0,0.6-0.5,1-1,1c-0.6,0-1-0.5-1-1c0-0.6,0.4-1,1-1S56.7,49.3,56.7,49.8"/>
	<path class="st0" d="M38.8,62.7L38.8,62.7L38.8,62.7C18.2,53.6,19.1,49,19.1,49l0.1-27.9c10.9-5.9,18.6-6.2,19.5-6.2
		c0.8,0,8.5,0.3,19.5,6.2v19.2c0.5,0.2,1,0.5,1.4,0.8V20.3l-0.4-0.2c-11.4-6.2-19.6-6.5-20.6-6.5c-0.9,0-9.1,0.3-20.5,6.5l-0.4,0.2
		v28.3c-0.3,1.1-0.2,6.3,20.2,15.4l0.7,0.3l0.7-0.3c4.2-1.9,7.5-3.6,10.1-5.1c-0.5-0.2-1-0.5-1.4-0.8C45.7,59.4,42.6,61,38.8,62.7"
		/>
	<path class="st0" d="M47.1,57.3c-2.1-1.9-3.5-4.7-3.5-7.7c0-5.7,4.6-10.2,10.2-10.2c1.2,0,2.3,0.2,3.3,0.6V22.3
		c-10.8-5.9-18.5-5.9-18.5-5.9v3.7c-2.5,0.3-4.5,2.4-4.5,5v5h-5c-2.8,0-5.1,2.3-5.1,5.1s2.3,5.1,5.1,5.1h5v5c0,2.6,2,4.8,4.5,5v11
		C42.1,59.9,44.8,58.5,47.1,57.3 M35.6,45.4v-6.5h-6.5c-2,0-3.7-1.6-3.7-3.7c0-2,1.6-3.7,3.7-3.7h6.5V25c0-2,1.6-3.7,3.7-3.7
		c2,0,3.7,1.6,3.7,3.7v6.5h6.5c2,0,3.7,1.6,3.7,3.7c0,2-1.6,3.7-3.7,3.7H43v6.5c0,2-1.6,3.7-3.7,3.7C37.2,49,35.6,47.4,35.6,45.4"/>
	<path class="st0" d="M53.9,42c-4.2,0-7.6,3.4-7.6,7.6s3.4,7.6,7.6,7.6s7.6-3.4,7.6-7.6S58,42,53.9,42 M57.9,47.8
		C57.9,47.8,58,47.8,57.9,47.8c0.5,0.2,0.7,0.5,0.8,0.9c0.1,0.4-0.1,0.7-0.4,1l-0.1,0.1c0,0.1-0.1,0.3-0.1,0.4c0,0,0,0.1,0.1,0.1
		c0,0,0.1,0,0.1,0.1c0.2,0.1,0.3,0.1,0.5,0c0.5-0.3,1.1,0,1.3,0.5S60,52,59.5,52.2s-1.1-0.1-1.3-0.7c0-0.1-0.1-0.2-0.2-0.2
		c-0.1,0-0.2-0.1-0.4-0.1c-0.3,0.5-0.7,0.9-1.1,1.3c0.2,0.3,0.3,0.5,0.5,0.8l0.1,0.1c0.5,0,1,0.4,1,1c0,0.5-0.4,1-0.9,1.1
		s-1-0.3-1.1-0.8c0-0.2,0-0.3,0-0.5v-0.1c-0.2-0.3-0.4-0.5-0.5-0.8c-0.4,0.1-0.8,0.2-1.2,0.3c0.1,0.3,0.2,0.6,0,0.9
		c-0.1,0.2-0.2,0.4-0.4,0.5c-0.4,0.2-0.9,0.2-1.2-0.2c-0.4-0.4-0.4-0.8,0-1.4c-0.4-0.2-0.8-0.4-1.2-0.6c-0.2,0.2-0.4,0.3-0.5,0.5
		c0,0,0,0.1,0,0.2c0.1,0.6-0.3,1.1-0.9,1.1c-0.5,0.1-1-0.3-1.1-0.8c-0.2-0.7,0.4-1.3,1.1-1.2c0.1,0,0.1,0,0.2,0
		c0.2-0.2,0.3-0.4,0.5-0.5c-0.2-0.3-0.3-0.6-0.5-0.9c-0.2,0.3-0.5,0.4-0.9,0.4c-0.2,0-0.4-0.1-0.6-0.3c-0.4-0.3-0.4-0.8-0.2-1.3
		c0.3-0.5,0.7-0.6,1.4-0.4c0-0.8,0.2-1.5,0.6-2.2c-0.2-0.2-0.4-0.3-0.6-0.5c0,0-0.1,0-0.2,0c-0.6,0.1-1.1-0.2-1.3-0.7
		c-0.1-0.6,0.2-1.1,0.8-1.2c0.6-0.1,1.2,0.3,1.2,1c0,0.1,0,0.2,0.1,0.3c0.2,0.1,0.4,0.3,0.5,0.4c0.7-0.6,1.4-1,2.3-1.1
		c0-0.1,0-0.2-0.1-0.2c-0.5-0.4-0.5-1-0.1-1.5c0.4-0.4,1.1-0.4,1.5,0s0.3,1.1-0.1,1.5c-0.1,0.1-0.1,0.1-0.1,0.2
		c0.8,0.1,1.6,0.5,2.3,1.1c0.1-0.1,0.2-0.2,0.3-0.3v-0.1c-0.1-0.6,0.3-1.1,0.8-1.2c0.5-0.1,1,0.3,1.2,0.8c0.1,0.7-0.4,1.3-1.1,1.2
		c-0.1,0-0.2,0-0.2,0.1c-0.1,0.1-0.2,0.2-0.3,0.3C57.7,47.4,57.8,47.6,57.9,47.8"/>
	<path class="st0" d="M70,25.7C62.9,8.3,43.1-0.1,25.7,7S-0.1,33.9,7,51.3C14,68.7,33.9,77.1,51.3,70S77.1,43.1,70,25.7 M50.5,68
		C34.2,74.6,15.6,66.8,9,50.5S10.2,15.6,26.5,9S61.3,10.2,68,26.5C74.6,42.8,66.7,61.4,50.5,68"/>
</g>
</svg>
