<?xml version="1.0" encoding="utf-8"?>
<!-- Generator: Adobe Illustrator 23.1.1, SVG Export Plug-In . SVG Version: 6.00 Build 0)  -->
<svg version="1.1" id="Layer_1" xmlns="http://www.w3.org/2000/svg" xmlns:xlink="http://www.w3.org/1999/xlink" x="0px" y="0px"
	 viewBox="0 0 77 77" style="enable-background:new 0 0 77 77;" xml:space="preserve">
<style type="text/css">
	.st0{fill:#F2C43E;}
</style>
<g>
	<path class="st0" d="M71.7,25C64.3,6.6,43.4-2.2,25,5.3S-2.2,33.6,5.3,52C12.7,70.4,33.6,79.2,52,71.7C70.4,64.3,79.2,43.4,71.7,25
		 M51.1,69.6c-17.2,7-36.8-1.3-43.7-18.5C0.4,34,8.7,14.4,25.9,7.4c17.2-7,36.8,1.3,43.7,18.5C76.6,43,68.3,62.6,51.1,69.6"/>
	<path class="st0" d="M46.9,26.2c0.5-0.1,0.9-0.1,1.4-0.2c1.1-0.1,2.2-0.2,3.2-0.6c2.9-1.2,4.6-3.4,5-6.6c0.1-0.8,0.2-1.7,0.3-2.5
		c0-0.1,0-0.1,0.1-0.2c0,0.3,0.1,0.6,0.1,0.9c0.1,0.8,0.2,1.6,0.3,2.4c0.7,3.4,3.3,5.9,6.7,6.3c0.9,0.1,1.7,0.2,2.6,0.3
		c0.1,0,0.2,0,0.3,0.1c-0.4,0.1-0.8,0.1-1.2,0.1c-1,0.1-2.1,0.2-3.1,0.5c-3.1,1.1-4.9,3.2-5.4,6.4c-0.2,0.9-0.2,1.8-0.3,2.7
		c0,0.1,0,0.2-0.1,0.3c-0.1-0.4-0.1-0.7-0.2-1.1c-0.2-1.3-0.2-2.7-0.8-3.9c-1.3-2.7-3.4-4.2-6.4-4.6c-0.9-0.1-1.8-0.2-2.7-0.3
		C46.9,26.3,46.9,26.2,46.9,26.2"/>
	<path class="st0" d="M21.7,33.4c0.2,0,0.4-0.1,0.7-0.1c0.9-0.1,1.6-0.4,2.2-1c0.4-0.5,0.7-1.1,0.7-1.7c0-0.3,0.1-0.6,0.1-0.9
		c0,0,0,0,0.1,0c0,0.3,0.1,0.5,0.1,0.8c0.1,0.6,0.2,1.2,0.6,1.7c0.6,0.8,1.4,1.1,2.3,1.2c0.2,0,0.5,0.1,0.7,0.1
		c-0.3,0.1-0.6,0.1-0.9,0.1c-1.4,0.1-2.7,1.2-2.8,2.9c0,0.2-0.1,0.5-0.1,0.7c-0.1-0.3-0.1-0.6-0.2-0.9c-0.1-1.5-1.2-2.6-2.7-2.7
		C22.3,33.5,22,33.5,21.7,33.4"/>
	<path class="st0" d="M27.8,26.6c-0.2-5.4-3-8.2-8.5-8.2c0.5-0.5,0.9-0.4,1.3-0.5c4-0.1,6.8-2.9,7-6.9c0-0.4,0-0.8,0.3-1.2
		c0.2,0.5,0.3,1,0.3,1.5c0.3,3.9,2.7,6.2,6.6,6.6c0.5,0,1,0,1.7,0.4c-2.4,0.3-4.6,0.5-6.3,2.2C28.4,22.1,28.2,24.3,27.8,26.6"/>
	<path class="st0" d="M20.5,37.9c2.2,0,4.5,0,6.7,0c2.1,0,4.3,1.5,4.6,4c0.2,1.5-0.1,2.9-0.7,4.2c-1,2.1-2,4.1-2.9,6.2
		c-0.6,1.4-1.1,2.9-1,4.5c0.1,2.2,1,4,2.7,5.3c1.6,1.3,3.5,1.9,5.5,2.1c1.7,0.2,3.5,0.1,5.1-0.5c3-1,4.8-3,5.4-6.1
		c0.3-1.6,0-3.1-0.5-4.6c-0.6-2-1.4-4-2.2-6c-0.4-1.1-0.8-2.2-1-3.4c-0.4-2.8,1.2-5,4-5.5c1.4-0.2,2.7-0.2,4.1-0.2
		c0.2,0,0.4,0,0.6,0c3,0,6.1,0,9.1,0c0.5,0,0.5,0,0.5,0.5c0,0.7,0,1.4,0,2.1c0,0.3-0.1,0.4-0.4,0.4c-3.5,0-6.9,0-10.4,0
		c-1,0-1.9,0-2.9,0.1c-0.3,0-0.6,0.1-0.9,0.2c-0.6,0.3-0.9,0.8-0.9,1.4c0,0.7,0.2,1.4,0.4,2.1c0.6,1.9,1.4,3.7,2.1,5.6
		c0.5,1.6,1,3.1,1.2,4.8c0.3,3.4-0.6,6.5-3.1,8.9c-1.4,1.4-3.1,2.2-5,2.7c-3.3,0.9-6.6,0.7-9.8-0.6c-2.3-0.9-4.2-2.4-5.5-4.6
		c-0.8-1.3-1.2-2.8-1.3-4.3c-0.1-1.4,0.1-2.8,0.5-4.2c0.6-2,1.6-3.8,2.5-5.7c0.4-0.9,0.9-1.9,1.3-2.8c0.3-0.7,0.5-1.4,0.4-2.2
		c-0.1-0.9-0.8-1.5-1.7-1.5c-1.4,0-2.8,0-4.1,0c-3.3,0-6.5,0-9.8,0c-0.2,0-0.3-0.1-0.3-0.3c0-0.8,0-1.5,0-2.3c0-0.3,0.1-0.4,0.4-0.4
		C15.8,37.9,18.1,37.9,20.5,37.9L20.5,37.9z"/>
	<path class="st0" d="M47.8,21.3c-0.5,0.7-0.9,1.3-1.4,2c-1.7,2.5-3.4,5.2-4.7,8c-1.2,2.5-1.9,5.2-2.2,7.9c-0.2,1.7-0.3,3.4-0.2,5
		c0.1,1.9,0.3,3.9,0.6,5.8c0.1,0.4,0.1,0.9,0.2,1.3c1.5,1.1,2.5,2.9,2.5,4.9c0,3.4-2.7,6.1-6.1,6.1c-3.4,0-6.1-2.7-6.1-6.1
		c0-2.3,1.3-4.3,3.2-5.3c0.5-2.1,0.9-4.2,1.2-6.3c0.5-2.8,0.9-5.6,1.7-8.4c0.8-2.9,2-5.6,3.8-8.1c1.5-2.1,3.1-3.9,5-5.6
		c0.6-0.6,1.2-1.1,1.9-1.6c0,0,0.1-0.1,0.1-0.1c0.2-0.1,0.4-0.2,0.6,0C48,20.9,48,21.1,47.8,21.3"/>
	<path class="st0" d="M54.4,60.8c-1.1,0-1.9-0.8-1.9-1.9c0-1,0.9-1.9,1.9-1.9c1,0,1.9,0.8,1.9,1.9C56.2,60,55.4,60.8,54.4,60.8"/>
	<path class="st0" d="M20.1,53.8c-1,0-1.9-0.8-1.9-1.9c0-1,0.8-1.9,1.9-1.9c1,0,1.9,0.8,1.9,1.9C22,52.9,21.1,53.8,20.1,53.8"/>
	<path class="st0" d="M18.2,43.2c1,0,1.9,0.8,1.9,1.9c0,1-0.9,1.9-1.9,1.9c-1,0-1.9-0.9-1.9-1.9C16.4,44,17.2,43.2,18.2,43.2"/>
	<path class="st0" d="M56.2,43.2c1,0,1.9,0.9,1.8,1.9c0,1-0.9,1.8-1.9,1.8c-1,0-1.9-0.9-1.9-1.9C54.3,44,55.2,43.2,56.2,43.2"/>
	<path class="st0" d="M52.5,52.6c-1,0-1.9-0.8-1.9-1.8c0-1,0.8-1.9,1.8-1.9c1,0,1.9,0.9,1.9,1.9C54.4,51.7,53.6,52.6,52.5,52.6"/>
	<path class="st0" d="M16.9,55.8c1,0,1.9,0.8,1.9,1.8c0,1-0.8,1.9-1.8,1.9c-1,0-1.9-0.8-1.9-1.8C15,56.6,15.9,55.8,16.9,55.8"/>
</g>
</svg>
