<?xml version="1.0" encoding="utf-8"?>
<!-- Generator: Adobe Illustrator 23.1.1, SVG Export Plug-In . SVG Version: 6.00 Build 0)  -->
<svg version="1.1" id="Layer_1" xmlns="http://www.w3.org/2000/svg" xmlns:xlink="http://www.w3.org/1999/xlink" x="0px" y="0px"
	 viewBox="0 0 77 77" style="enable-background:new 0 0 77 77;" xml:space="preserve">
<style type="text/css">
	.st0{fill:#F2C43E;}
</style>
<g>
	<path class="st0" d="M71.7,25C64.3,6.6,43.4-2.2,25,5.3C6.6,12.7-2.2,33.6,5.3,52C12.7,70.4,33.6,79.2,52,71.7
		C70.4,64.3,79.2,43.4,71.7,25 M51.1,69.6c-17.2,7-36.8-1.3-43.7-18.5C0.4,34,8.7,14.4,25.9,7.4c17.2-7,36.8,1.3,43.7,18.5
		C76.6,43,68.3,62.6,51.1,69.6"/>
	<path class="st0" d="M56.9,49.9l-2.2-0.8c-0.5-0.1-1-0.2-1.5-0.2c-4.2,0-7.5,3.2-7.8,7.3c0,0.2,0,0.4,0,0.6c0,0.6,0.1,1.2,0.2,1.8
		c0.8,3.5,3.9,6.1,7.6,6.1c4.3,0,7.8-3.5,7.8-7.8C61,53.8,59.4,51.2,56.9,49.9 M57.6,55.4c-1.5,1.6-2.9,3.2-4.4,4.7
		c-0.3,0.3-0.7,0.3-1,0c-0.9-0.8-1.8-1.6-2.6-2.4c-0.4-0.4-0.5-1.1-0.1-1.5c0.4-0.4,1-0.5,1.5-0.1c0.5,0.5,1.1,1,1.6,1.5
		c1.2-1.3,2.3-2.5,3.4-3.7c0.3-0.3,0.7-0.4,1.1-0.3c0.4,0.1,0.6,0.4,0.7,0.8C57.9,54.8,57.8,55.1,57.6,55.4"/>
	<path class="st0" d="M61.6,23.4c-2.7-2.8-6.4-4.3-10.8-4.3c-3.4,0.1-6.7,1.4-9.2,3.9c-1.7,1.7-4.3,1.7-6.1,0
		c-4.1-3.8-9.1-4.9-14.3-3.1c-5.3,1.8-8.5,5.5-9.6,11.2c-0.4,2.1-0.2,4.3,0.6,7.1c1.3,4.6,3.7,8.7,7.3,12.6c3,3.3,6.7,6.1,11.1,8.7
		c2.1,1.2,4.4,2.4,7,3.6c0.3,0.1,0.6,0.2,0.9,0.2c0.3,0,0.6-0.1,0.9-0.2c1.7-0.7,3.1-1.4,4.5-2.2l0.3-0.2l-0.1-0.4
		c-0.2-0.6-0.3-1.3-0.4-1.9l-0.1-0.7l-0.6,0.3c-1.4,0.7-2.8,1.5-4.3,2.1c-0.2,0.1-0.2,0.1-0.4,0c-5.3-2.4-9.7-5.1-13.4-8.2
		c-3.8-3.3-6.6-6.8-8.5-10.7c-1.1-2.3-1.8-4.5-2.1-6.7c-0.8-5.9,3.5-11.7,9.4-12.6c3.8-0.6,7.1,0.5,9.9,3.1c2.7,2.6,7,2.6,9.7,0
		c2.3-2.2,5.4-3.4,8.5-3.2c3.1,0.2,6,1.6,8,4c2.5,2.9,3.3,6.2,2.5,10c-0.4,1.8-1,3.5-1.7,5.1c-0.2,0.4-0.2,0.8-0.1,1.2
		c0.1,0.4,0.4,0.6,0.8,0.8c0.8,0.3,1.6,0,1.9-0.7c1.4-2.9,2.1-5.4,2.3-7.9C65.9,30.3,64.6,26.5,61.6,23.4"/>
	<path class="st0" d="M62.3,44.7c-0.1,0-0.3,0-0.5,0h-2.1c-2.9,0-5.7,0-8.6,0c-0.1,0-0.2,0-0.2-0.2c-1.3-3-2.6-6-3.9-9l-0.9-2
		c-0.3-0.7-0.8-1.1-1.5-1.1c-0.7,0-1.1,0.4-1.4,1.2l-5,15.2l-4.1-7.6c-0.3-0.5-0.7-0.8-1.2-0.8c-2.3,0-4.6,0-6.9,0
		c-0.4,0-0.8,0.2-1,0.4c-0.3,0.3-0.4,0.6-0.4,1c0,0.8,0.6,1.4,1.5,1.4c1.9,0,3.9,0,5.8,0l0.1,0.1c0.9,1.7,1.8,3.4,2.7,5.1l2.4,4.6
		c0.3,0.6,0.8,0.9,1.3,0.9c0,0,0.1,0,0.1,0c0.4,0,1-0.3,1.3-1.1c1-3.2,2.1-6.4,3.1-9.7l1.7-5.2l1.1,2.4c0.9,2,1.7,3.9,2.6,5.9
		c0.4,0.9,1,1.2,1.9,1.2c2.6,0,5.2,0,7.8,0h3.7c0.2,0,0.5,0,0.8-0.1c0.6-0.2,1-0.9,0.9-1.5C63.5,45.3,63,44.8,62.3,44.7"/>
	<path class="st0" d="M16.8,33.1c0,0.3,0,0.6,0.1,0.9c0.1,0.6,0.5,1,1,0.9c0.6,0,0.9-0.5,0.9-1.1c0-0.8,0-1.7,0.3-2.4
		c0.8-2.8,2.7-4.7,5.6-5.4c0.8-0.2,1.1-0.9,0.7-1.5c-0.2-0.4-0.7-0.5-1.2-0.4c-1.6,0.4-2.9,1.1-4.1,2.2
		C18.1,27.9,16.9,30.4,16.8,33.1"/>
</g>
</svg>
