<?xml version="1.0" encoding="utf-8"?>
<!-- Generator: Adobe Illustrator 23.1.1, SVG Export Plug-In . SVG Version: 6.00 Build 0)  -->
<svg version="1.1" id="Layer_1" xmlns="http://www.w3.org/2000/svg" xmlns:xlink="http://www.w3.org/1999/xlink" x="0px" y="0px"
	 viewBox="0 0 77 77" style="enable-background:new 0 0 77 77;" xml:space="preserve">
<style type="text/css">
	.st0{fill:#F2C43E;}
</style>
<g>
	<path class="st0" d="M71.7,25C64.3,6.6,43.4-2.2,25,5.3C6.6,12.7-2.2,33.6,5.3,52C12.7,70.4,33.6,79.2,52,71.7
		C70.4,64.3,79.2,43.4,71.7,25 M51.1,69.6c-17.2,7-36.8-1.3-43.7-18.5C0.4,34,8.7,14.4,25.9,7.4c17.2-7,36.8,1.3,43.7,18.5
		C76.6,43,68.3,62.6,51.1,69.6"/>
	<path class="st0" d="M16.3,34.4c0.2,0.3,0.4,0.7,0.5,1.1c0.1-0.1,0.2-0.3,0.4-0.4c0.1-0.1,0.2-0.3,0.4-0.4c1-1.1,2.2-2.1,3.5-3.1
		c1.1-0.8,2.4-1.6,3.7-2.2c0.2-0.1,0.3-0.2,0.5-0.2c0.2-0.1,0.3-0.2,0.5-0.2c-1-1-2-2-2.8-3.2c-0.9-1.2-2.1-1.8-3.6-1.9
		c-0.4,0-0.7,0-1.1,0.1c-0.2,0-0.4,0.1-0.6,0.1C16.1,24,15,24.7,14.3,26c-0.2,0.3-0.4,0.5-0.7,0.5c-1.1,0.1-2.1,0.2-3.1,0.3
		c-0.5,0.1-1.1,0.2-1.4,0.8c-0.3,0.6,0.1,1.3,0.2,1.5c0.2,0.3,0.3,0.6,0.3,1.1c0.3,1.8,1.4,2.9,3.2,3.4c1,0.2,1.9,0.4,2.8,0.4
		C16,34,16.2,34.1,16.3,34.4"/>
	<path class="st0" d="M66,25.2c0-0.2,0-0.4,0-0.7c0,0,0-0.1,0-0.1c0-0.7-0.3-0.9-0.6-1c-0.4-0.1-0.7,0.2-0.9,0.7c0,0,0,0.1,0,0.1
		c-0.1,0.2-0.1,0.3-0.2,0.5c-0.1,0.2-0.1,0.4-0.2,0.6c-0.5,1.2-1.1,2.1-1.9,2.7c-2.3,1.9-4.4,3.3-6.6,4.3c-1.7,0.8-3.2,0.9-4.6,0.5
		c-0.3-0.1-0.6-0.2-1-0.2l-1-1.4c-0.4-0.5-0.9-1-1.4-1.5c-0.1,0.2-0.1,0.4-0.2,0.5c0,0.1-0.1,0.2-0.1,0.3C47.1,30.8,47,31,47,31.1
		c0.4,0.3,0.8,0.6,1.2,0.9l0.6,0.5c-0.8-0.1-1.7-0.1-2.6-0.1c-0.1,0.2-0.3,0.4-0.4,0.5c-0.2,0.2-0.4,0.4-0.6,0.6
		c-1.4,1.3-3.4,2.1-5.5,2.1c-1.3,0-2.6-0.3-3.7-0.9c-0.3-0.2-0.7-0.4-1-0.6c-0.3-0.2-0.5-0.4-0.8-0.6c0,0,0,0-0.1,0l-0.2,0
		c-0.7-0.1-1.4-0.3-2.2-0.2c-0.9,0.1-1.8-0.3-2.4-0.9c-0.3-0.4-0.7-0.7-1.1-1.1c-0.2,0.1-0.3,0.1-0.5,0.2c-0.2,0.1-0.3,0.2-0.5,0.2
		c-2.6,1.3-5,2.9-7,4.9c-0.6,0.6-1.1,1.1-1.5,1.7c-0.1,0.2-0.3,0.3-0.4,0.5c-0.1,0.2-0.3,0.4-0.4,0.5c0.3,1.3,0.6,2.8,0.7,4.2
		c0,0.4,0.2,0.7,0.4,1c0.7,0.7,1.2,1.5,1.8,2.2c0.3,0.4,0.6,0.8,0.9,1.2c0.4,0.5,1,1.2,1.9,1.6c0.2,0.1,0.2,0.1,0.2,0.2
		c0.5,1.6,0.8,3,0.7,4.5c0,0.1,0,0.1,0,0.2c0,0.2,0,0.4,0,0.6c-0.1,1.4-0.1,2.8,0.1,4.3c0.2,1.1,0.1,1.5-0.8,1.7
		c-0.3,0.1-0.6,0.3-0.9,0.7c-0.3,0.4-0.5,1.2-0.3,1.7c0.3,1,1.2,0.9,1.7,0.9c0.1,0,0.1,0,0.2,0c0.7-0.1,1.6-0.2,2.5-0.5
		c0.8-0.3,1.2-0.9,1.4-1.6c0.3-1.2,0.4-2.4,0.4-3.6c0-1.2,0.1-2.3,0.3-3.5c0-0.2,0.1-0.4,0.1-0.6c0.1-0.2,0.1-0.4,0.2-0.6
		c0.2-0.7,0.5-1.7,0.7-2.7c0.1-0.3,0.1-0.6,0.1-0.9c0-0.4,0-0.8,0.2-1c0.1-0.2,0.5-0.3,0.9-0.4c0.3-0.1,0.7-0.2,1-0.4
		c2.9-1.6,6.1-2.6,10.5-3.1c1.8-0.2,2.5,0,3.3,1.1c0.1,0.1,0.2,0.3,0.3,0.5c0.1,0.1,0.1,0.2,0.2,0.3c0.3,0.5,0.5,1,0.8,1.4
		c0.1,0.2,0.2,0.4,0.3,0.5c0.7,1.4,1.6,2.4,2.8,3.1c0.5,0.3,1,0.6,1.5,0.9c0.7,0.4,1.4,0.8,2.1,1.3c0,0,0.1,0.1,0.1,0.1
		c0.2,0.2,0.3,0.3,0.4,0.4l0,0.1c0.5,1.7,1.1,3.3,1.1,5c0,0.6-0.2,0.8-0.6,0.9c-0.6,0.2-1.3,0.6-1.4,1.9c0,0.5,0.1,0.9,0.3,1.1
		c0.2,0.2,0.5,0.3,0.9,0.3c0.1,0,0.1,0,0.2,0c0.9-0.1,1.6-0.2,2.2-0.3c1.8-0.3,2.4-1.1,2.2-3c-0.2-1.6-0.3-3.1-0.2-4.5
		c0-0.4,0.1-0.8,0.1-1.2c0-0.5,0.1-1,0.1-1.6l0-0.2c0-1,0-2.3-1.2-3.1c0,0,0,0,0-0.1c-0.9-2.1-1.1-3.9-0.6-5.6
		c0.4-1.3,0.8-2.8,0.6-4.4c-0.2-1.7-0.4-3.4-1.8-4.6c0.5-0.4,0.9-0.7,1.4-0.8c1.7-0.4,3.3-1.2,5.2-2.5c0.9-0.6,1.4-1.4,1.9-2.2
		c1-1.5,1.1-3.3,1-4.8C66,25.4,66,25.3,66,25.2"/>
	<path class="st0" d="M30.5,54.6c5.5,0.3,11.8-2.6,15-7c-4.1,2.6-8.4,4.7-13,6.3C31.8,54.1,31.1,54.4,30.5,54.6"/>
	<path class="st0" d="M16.5,49.6c-1.3-2-1.4-4.4-0.8-6.7c0.4-1.5,1.2-2.9,2.1-4.2c0.1-0.2,0.3-0.4,0.4-0.5c0.1-0.2,0.3-0.3,0.4-0.5
		c0.4-0.5,0.9-1,1.3-1.4c2-2,4.4-3.6,7-4.9c0.2-0.1,0.3-0.2,0.5-0.2c0,0,0,0,0.1,0c0.1-0.1,0.3-0.1,0.4-0.2c0,0,0,0,0,0
		c0.3-0.1,0.5-0.2,0.8-0.3c0.1,0,0.1,0,0.2-0.1c0.2-0.1,0.3-0.1,0.5-0.2c0.2-0.1,0.3-0.1,0.5-0.2c0.2-0.1,0.3-0.1,0.5-0.2
		c0.1,0,0.3-0.1,0.4-0.1c0,0,0.1,0,0.1,0c0.2,0,0.3-0.1,0.5-0.1c0.2-0.1,0.3-0.1,0.5-0.1c0-0.2-0.2-1.8-0.2-2c0,0,0-0.1,0-0.1
		c-1.8,0.4-3.6,1-5.4,1.8c-0.2,0.1-0.3,0.1-0.5,0.2c-0.2,0.1-0.3,0.2-0.5,0.2c-2.8,1.4-5.3,3.2-7.4,5.4c-0.1,0.1-0.3,0.3-0.4,0.4
		c-0.1,0.1-0.3,0.3-0.4,0.5c-1.2,1.5-2.2,3.2-2.9,5c-2.5,7.1,2.1,12.8,9.3,13.4C20.7,53.6,18,52.2,16.5,49.6"/>
	<path class="st0" d="M32.9,28.8c0,0.1,0.1,0.3,0.1,0.4c0,0.2,0.1,0.3,0.1,0.5c0.4,1.4,1.3,2.6,2.5,3.5c0.3,0.2,0.5,0.4,0.8,0.5
		c0.3,0.2,0.7,0.3,1.1,0.5c0.7,0.2,1.4,0.4,2.2,0.4c1.5,0,2.9-0.5,4.1-1.3c0.2-0.2,0.5-0.4,0.7-0.6c0.2-0.2,0.3-0.3,0.5-0.5
		c0.4-0.5,0.7-1,1-1.5c0.1-0.1,0.1-0.3,0.2-0.4c0-0.1,0.1-0.2,0.1-0.4c0-0.1,0-0.2,0.1-0.2c0-0.1,0-0.2,0.1-0.2
		c0.1-0.5,0.2-1.1,0.2-1.7c0-3.8-3.1-6.9-6.9-6.9c-3.6,0-6.5,2.7-6.9,6.3c0,0.1,0,0.1,0,0.2c0,0.1,0,0.2,0,0.3c0,0.1,0,0.1,0,0.2
		c0,0.1,0,0.2,0,0.3C32.8,28.2,32.8,28.5,32.9,28.8 M35.5,26.3h2.8v-2.8H41v2.8h2.8v2.6H41v2.8h-2.6v-2.8h-2.8V26.3z"/>
	<path class="st0" d="M33.7,57.8c0,0,0,0.1,0,0.1c0,0.1,0,0.1,0,0.2c0.2,0.5,0.4,0.9,0.8,1.2c0.1,0.1,0.2,0.1,0.3,0.2
		c0.1,0.1,0.2,0.1,0.4,0.2c0.2,0.1,0.5,0.1,0.7,0.1c0.5,0,1-0.2,1.4-0.5c0.1-0.1,0.2-0.1,0.2-0.2c0.1-0.1,0.1-0.1,0.2-0.2
		c0.1-0.2,0.2-0.3,0.3-0.5c0,0,0-0.1,0.1-0.1c0,0,0-0.1,0-0.1c0,0,0-0.1,0-0.1c0,0,0-0.1,0-0.1c0-0.2,0.1-0.4,0.1-0.6
		c0-1.3-1-2.3-2.3-2.3c-1.2,0-2.2,0.9-2.3,2.1c0,0,0,0,0,0.1c0,0,0,0.1,0,0.1c0,0,0,0,0,0.1c0,0,0,0.1,0,0.1
		C33.7,57.6,33.7,57.7,33.7,57.8 M34.6,56.9h1v-1h0.9v1h1v0.9h-1v1h-0.9v-1h-1V56.9z"/>
	<path class="st0" d="M7.6,38.5c0,0,0,0.1,0,0.1c0,0,0,0.1,0,0.1c0.1,0.4,0.4,0.7,0.7,1c0.1,0.1,0.1,0.1,0.2,0.1
		c0.1,0.1,0.2,0.1,0.3,0.1c0.2,0.1,0.4,0.1,0.6,0.1c0.4,0,0.8-0.1,1.1-0.4c0.1,0,0.1-0.1,0.2-0.2c0,0,0.1-0.1,0.1-0.1
		c0.1-0.1,0.2-0.3,0.3-0.4c0,0,0-0.1,0.1-0.1c0,0,0-0.1,0-0.1c0,0,0,0,0-0.1c0,0,0,0,0-0.1c0-0.1,0.1-0.3,0.1-0.5
		c0-1.1-0.9-1.9-1.9-1.9c-1,0-1.8,0.8-1.9,1.7c0,0,0,0,0,0c0,0,0,0.1,0,0.1c0,0,0,0,0,0c0,0,0,0.1,0,0.1C7.6,38.3,7.6,38.4,7.6,38.5
		 M8.4,37.8h0.8V37h0.7v0.8h0.8v0.7H9.9v0.8H9.1v-0.8H8.4V37.8z"/>
	<path class="st0" d="M50.8,27.1c0,0.1,0,0.2,0,0.2c0,0.1,0,0.2,0.1,0.2c0.2,0.7,0.7,1.3,1.3,1.8c0.1,0.1,0.3,0.2,0.4,0.3
		c0.2,0.1,0.4,0.2,0.5,0.2c0.4,0.1,0.7,0.2,1.1,0.2c0.8,0,1.5-0.3,2.1-0.7c0.1-0.1,0.2-0.2,0.3-0.3c0.1-0.1,0.2-0.2,0.3-0.3
		c0.2-0.2,0.4-0.5,0.5-0.8c0-0.1,0.1-0.1,0.1-0.2c0-0.1,0-0.1,0.1-0.2c0,0,0-0.1,0-0.1c0,0,0-0.1,0-0.1c0.1-0.3,0.1-0.6,0.1-0.9
		c0-2-1.6-3.6-3.6-3.6c-1.9,0-3.4,1.4-3.5,3.2c0,0,0,0.1,0,0.1c0,0,0,0.1,0,0.2c0,0,0,0.1,0,0.1c0,0.1,0,0.1,0,0.2
		C50.7,26.8,50.7,26.9,50.8,27.1 M52.1,25.8h1.5v-1.5h1.3v1.5h1.5v1.3h-1.5v1.5h-1.3v-1.5h-1.5V25.8z"/>
	<path class="st0" d="M25.9,19.1c0,0.1,0,0.1,0,0.2c0,0.1,0,0.1,0,0.2c0.2,0.5,0.5,1,0.9,1.3c0.1,0.1,0.2,0.1,0.3,0.2
		c0.1,0.1,0.3,0.1,0.4,0.2c0.3,0.1,0.5,0.1,0.8,0.1c0.6,0,1.1-0.2,1.6-0.5c0.1-0.1,0.2-0.1,0.3-0.2c0.1-0.1,0.1-0.1,0.2-0.2
		c0.1-0.2,0.3-0.4,0.4-0.6c0-0.1,0-0.1,0.1-0.2c0,0,0-0.1,0.1-0.1c0,0,0-0.1,0-0.1c0,0,0-0.1,0-0.1c0.1-0.2,0.1-0.4,0.1-0.6
		c0-1.4-1.2-2.6-2.6-2.6c-1.4,0-2.5,1-2.6,2.4c0,0,0,0,0,0.1c0,0,0,0.1,0,0.1c0,0,0,0,0,0.1c0,0,0,0.1,0,0.1
		C25.8,18.9,25.8,19,25.9,19.1 M26.9,18.1h1.1v-1.1h1v1.1H30v1h-1.1v1.1h-1v-1.1h-1.1V18.1z"/>
</g>
</svg>
