<?xml version="1.0" encoding="utf-8"?>
<!-- Generator: Adobe Illustrator 23.1.1, SVG Export Plug-In . SVG Version: 6.00 Build 0)  -->
<svg version="1.1" id="Layer_1" xmlns="http://www.w3.org/2000/svg" xmlns:xlink="http://www.w3.org/1999/xlink" x="0px" y="0px"
	 viewBox="0 0 77 77" style="enable-background:new 0 0 77 77;" xml:space="preserve">
<style type="text/css">
	.st0{fill:#F2C43E;}
</style>
<g>
	<path class="st0" d="M71.7,25C64.3,6.6,43.4-2.2,25,5.3S-2.2,33.6,5.3,52C12.7,70.4,33.6,79.2,52,71.7C70.4,64.3,79.2,43.4,71.7,25
		 M51.1,69.6c-17.2,7-36.8-1.3-43.7-18.5C0.4,34,8.7,14.4,25.9,7.4c17.2-7,36.8,1.3,43.7,18.5C76.6,43,68.3,62.6,51.1,69.6"/>
	<path class="st0" d="M46.4,32.9c1.5,0.5,2.9,1,4.4,1.5c0.1,0,0.2,0.1,0.2,0.1c0.5,0.1,0.7,0.9,0.3,1.4c-0.3,0.4-0.6,0.8-0.9,1.1
		c-2.4,2.6-5.1,4.4-8.1,5.2c-0.6,0.2-1.3,0.3-1.9,0.3c-0.2,0-0.4,0.1-0.6,0c-0.4,0-0.9-0.1-1.3-0.1c-0.8,0-1.5-0.4-2.3-0.7
		c-0.8-0.3-1.5-0.7-2.2-1.3c-0.8-0.7-1.5-1.5-1.8-2.6c-0.1-0.3-0.2-0.7-0.2-1c-0.1-0.7,0.2-1.1,0.8-1.1c0.5,0,1.1,0.1,1.6,0.1
		c2.3-0.1,4.3-1.4,5.9-3.6c0.1-0.1,0.2-0.2,0.2-0.3c0.4-0.5,0.8-0.7,1.3-0.5c0.3,0.1,0.6,0.2,0.9,0.3C44,32.1,45.2,32.5,46.4,32.9"
		/>
	<path class="st0" d="M47.3,29.6c0.5,0.1,0.8,0.6,0.6,1.3c-0.1,0.5-0.6,0.7-1,0.6c-0.5-0.1-0.8-0.7-0.7-1.2
		C46.4,29.7,46.8,29.4,47.3,29.6"/>
	<path class="st0" d="M45.9,27.9c-0.1,0.4-0.5,0.7-0.8,0.6c-0.4-0.1-0.6-0.5-0.5-0.9c0.1-0.4,0.4-0.7,0.8-0.6
		C45.8,27.1,46,27.5,45.9,27.9"/>
	<path class="st0" d="M44.5,29.9c-0.1,0.4-0.5,0.7-0.8,0.6c-0.4-0.1-0.6-0.5-0.5-0.9c0.1-0.4,0.4-0.7,0.8-0.6
		C44.3,29.1,44.6,29.5,44.5,29.9"/>
	<path class="st0" d="M37.7,55.7c-3.9,0-7.8,0-11.7,0c-1.8,0-3.1,1-3.7,2.8c-0.6,1.7-0.1,3.7,1.2,4.9c0.8,0.8,1.8,0.9,2.8,0.9
		c4.5,0,9,0,13.6,0c3.2,0,5.7,2.3,6.3,5.6c0,0.2,0.1,0.4,0.1,0.7c0.1,1.4,0.1,1.4-1.1,1.4c-0.5,0-0.8-0.2-0.8-0.8
		c-0.3-3.1-1.9-4.6-4.7-4.7c-4.5,0-9,0-13.5,0c-2.4,0-4.3-1.1-5.4-3.6c-1.1-2.5-0.9-4.9,0.6-7.1c1.1-1.7,2.7-2.4,4.5-2.4
		c7.5,0,15.1,0,22.6,0c0.3,0,0.6,0,0.9,0c0.4,0,0.9-0.1,0.9-0.7c0-0.6-0.5-0.7-0.9-0.7c-0.3-0.1-0.5,0-0.8,0c-6.4,0-12.9,0-19.3,0
		c-4.4,0-8.2-3.6-9-8.7c-0.5-3.3-0.1-6.6,1.1-9.7c1.8-4.6,5.3-5.6,8.9-2.5c2.3,2,5.3,2,7.4-0.2c2.2-2.3,2.9-5.2,2.6-8.4
		c-0.1-0.9-0.6-1.6-1.1-2.2c-0.7-0.7-1.3-1.5-2-2.2c-1.9-2-2.8-4.5-2.9-7.4c-0.1-1.7,0-3.5,0-5.3c0-0.9,0.5-1,1.1-1
		c0.6,0,1.1,0,1.1,0.9c0,1.7-0.2,3.5,0,5.2c0.2,2.8,1.3,4.9,3.1,6.7c1.4,1.3,2.5,2.8,2.9,4.9c0.9,5.3-2.6,11.5-7.1,12.3
		c-2.2,0.4-4.4,0.2-6.2-1.7c-0.3-0.3-0.7-0.6-1.1-0.8c-1.5-1-3.1-0.5-4.1,1.1c-0.9,1.4-1.3,3.1-1.5,4.7c-0.3,1.8-0.4,3.6,0,5.4
		c0.9,4,3.6,6.4,7.2,6.4c6.4,0,12.8,0,19.1,0c0.5,0,1,0,1.5,0.1c1.3,0.4,2.3,1.7,2.1,3.1c-0.1,1.4-1.2,2.6-2.6,2.6c-2,0.1-4,0-6,0
		C41.7,55.7,39.7,55.7,37.7,55.7"/>
	<path class="st0" d="M26.2,39.4c-1,4,1.1,6.9,4.8,6.9c6.5,0,13,0,19.6,0c2.7,0,5,2.1,5.5,5.1c0.8,4.3-1.9,7.9-5.9,7.9
		c-7.5,0-15,0-22.5,0c-0.3,0-0.7,0-1,0c-0.3,0-0.5,0.2-0.5,0.5c0,0.4,0.2,0.6,0.5,0.7c0.3,0.1,0.6,0.1,1,0.1c4,0,7.9,0,11.9,0
		c5.5,0,9.5,4.2,9.8,10.3c0,0.6,0.1,1.1-0.6,1c-0.6-0.1-1.3,0.3-1.4-0.9c-0.1-1.9-0.6-3.6-1.7-5.1c-1.5-2.1-3.5-3-5.8-3
		c-4,0-7.9,0-11.9,0c-0.5,0-1,0-1.6-0.1C25,62.6,24,61.4,24,60c0-1.4,0.9-2.5,2.2-2.8c0.5-0.1,1.1-0.2,1.6-0.2c7.5,0,15.1,0,22.6,0
		c1.8,0,3-1,3.6-2.7c0.6-1.8,0.1-3.8-1.2-5c-0.7-0.7-1.6-0.9-2.5-0.9c-6.5,0-13,0-19.5,0c-1.1,0-2.1-0.2-3-0.7
		c-3.5-1.7-5.1-7-3.2-10.7c0.8-1.7,2-1.7,2.9-0.1c2.2,3.8,5.3,5.8,9.2,6.2c5.8,0.6,11.8-2.4,15.9-7.1c0.3-0.4,1,0.3,1.5,0.6
		c0.4,0.2,0.1,0.5,0,0.7c-0.8,1.2-1.6,2.3-2.7,3.2c-5.9,5-12.3,6.6-19.4,3.7c-2-0.8-3.7-2.2-5.1-4.1c-0.2-0.2-0.3-0.4-0.5-0.6
		C26.4,39.4,26.3,39.4,26.2,39.4"/>
	<path class="st0" d="M37.5,7.7c0-0.6,0-1.3,0-1.9c-0.1-0.8,0.2-1.2,1-1.1c1.2,0,1.2,0,1.2,1.3c0,1.1,0,2.3,0,3.4
		c0,1.5,0.5,2.9,1.4,4c1,1.2,2.1,1.6,3.5,1c2.2-1,4.5-1,6.6,0.3c0.8,0.5,1.3,0.8,1.9,1.5c0.1,0.1,0.9,0.8,0.8,1
		c-0.1,0.2-1.5,0.9-1.7,0.9c-1.1,0-1.4-0.8-2.4-1.5c-1.3-0.9-2.8-0.9-4.1-0.2c-4.4,2.3-8.2-2.5-8.3-6.7C37.5,9,37.5,8.4,37.5,7.7
		L37.5,7.7z"/>
	<path class="st0" d="M57.4,17.7c-5,0-9,4-9,9c0,5,4,9,9,9c5,0,9-4,9-9C66.4,21.7,62.3,17.7,57.4,17.7 M56.2,30.4
		c-1-0.9-2-1.8-3-2.7c-0.5-0.4-0.5-1.2-0.1-1.7c0.4-0.5,1.2-0.5,1.7-0.1c0.6,0.5,1.2,1.1,1.8,1.6c1.3-1.4,2.6-2.8,3.8-4.1
		c0.3-0.4,0.8-0.5,1.2-0.4c0.4,0.1,0.7,0.4,0.8,0.9c0.1,0.4,0,0.8-0.3,1.1c-1.6,1.8-3.3,3.5-4.9,5.3C57,30.7,56.6,30.7,56.2,30.4"/>
</g>
</svg>
