<?xml version="1.0" encoding="utf-8"?>
<!-- Generator: Adobe Illustrator 23.1.1, SVG Export Plug-In . SVG Version: 6.00 Build 0)  -->
<svg version="1.1" id="Layer_1" xmlns="http://www.w3.org/2000/svg" xmlns:xlink="http://www.w3.org/1999/xlink" x="0px" y="0px"
	 viewBox="0 0 400 300" style="enable-background:new 0 0 400 300;" xml:space="preserve">
<style type="text/css">
	.st0{fill:#1E1D1B;}
	.st1{fill:#FFFFFF;}
	.st2{clip-path:url(#SVGID_2_);fill:#E15200;}
	.st3{clip-path:url(#SVGID_4_);fill:#E15200;}
	.st4{clip-path:url(#SVGID_6_);fill:#E15200;}
	.st5{clip-path:url(#SVGID_8_);fill:#E15200;}
	.st6{clip-path:url(#SVGID_10_);fill:#E15200;}
	.st7{clip-path:url(#SVGID_12_);fill:#E15200;}
	.st8{clip-path:url(#SVGID_14_);fill:#E15200;}
	.st9{clip-path:url(#SVGID_16_);fill:#E15200;}
	.st10{clip-path:url(#SVGID_18_);fill:#E15200;}
	.st11{clip-path:url(#SVGID_20_);fill:#E15200;}
</style>
<g>
	<path d="M89.5,5.8L89.5,5.8L89.5,5.8C89.5,5.8,89.1,5.8,89.5,5.8C89.1,5.8,89.5,5.8,89.5,5.8"/>
	<path d="M102.8,5.8C103.2,5.8,103.2,5.8,102.8,5.8C103.2,5.8,103.2,5.8,102.8,5.8L102.8,5.8L102.8,5.8"/>
	<path d="M116.5,5.8C116.9,5.8,116.9,5.8,116.5,5.8c0.4-0.4,0-0.4,0-0.4V5.8L116.5,5.8"/>
	<path d="M130.3,6.2C130.3,6.2,130.7,5.8,130.3,6.2c0.4-0.4,0-0.8,0-0.8S129.9,5.4,130.3,6.2C129.9,5.8,130.3,6.2,130.3,6.2"/>
	<path d="M144,6.2c0.4,0,0.4,0,0.4-0.4c0-0.4-0.4-0.4-0.4-0.4c-0.4,0-0.4,0.4-0.4,0.4S143.6,6.2,144,6.2"/>
	<path d="M157.8,6.2c0.4,0,0.4-0.4,0.4-0.4c0-0.4-0.4-0.4-0.4-0.4c-0.4,0-0.4,0.4-0.4,0.4C157,6.2,157.4,6.2,157.8,6.2"/>
	<path d="M171.5,6.2c0.4,0,0.4-0.4,0.4-0.8c0-0.4-0.4-0.8-0.4-0.8c-0.4,0-0.8,0.4-0.8,0.8C170.7,6.2,171.1,6.2,171.5,6.2"/>
	<path d="M184.8,6.2c0.4,0,0.8-0.4,0.8-0.8c0-0.4-0.4-0.8-0.8-0.8S184,5,184,5.4C184.4,6.2,184.4,6.2,184.8,6.2"/>
	<path d="M198.6,6.2c0.4,0,0.8-0.4,0.8-0.8c0-0.4-0.4-0.8-0.8-0.8s-0.8,0.4-0.8,0.8C198.2,6.2,198.2,6.2,198.6,6.2"/>
	<path d="M212.3,6.2c0.4,0,0.4-0.4,0.4-0.8c0-0.4-0.4-0.8-0.4-0.8c-0.4,0-0.8,0.4-0.8,0.8C211.5,6.2,211.9,6.2,212.3,6.2"/>
	<path d="M226.1,6.2c0.4,0,0.4-0.4,0.4-0.4c0-0.4-0.4-0.4-0.4-0.4c-0.4,0-0.4,0.4-0.4,0.4C225.2,6.2,225.7,6.2,226.1,6.2"/>
	<path d="M239.8,6.2c0.4,0,0.4,0,0.4-0.4c0-0.4,0-0.4-0.4-0.4s-0.4,0-0.4,0.4C239.4,5.8,239.4,6.2,239.8,6.2"/>
	<path d="M253.1,6.2C253.5,6.2,253.5,5.8,253.1,6.2c0.4-0.4,0-0.4,0-0.4C253.1,5.4,253.1,5.4,253.1,6.2
		C253.1,5.8,253.1,6.2,253.1,6.2"/>
	<path d="M266.9,5.8C267.3,5.8,267.3,5.8,266.9,5.8C267.3,5.8,267.3,5.4,266.9,5.8C266.9,5.4,266.9,5.8,266.9,5.8L266.9,5.8"/>
	<path d="M280.6,5.8L280.6,5.8L280.6,5.8L280.6,5.8L280.6,5.8"/>
	<path d="M294.4,5.8L294.4,5.8L294.4,5.8L294.4,5.8L294.4,5.8"/>
	<path d="M82.6,19.6L82.6,19.6C82.6,19.6,82.6,19.2,82.6,19.6C82.2,19.2,82.2,19.6,82.6,19.6C82.2,19.6,82.2,19.6,82.6,19.6"/>
	<path d="M95.9,19.6C96.3,19.6,96.3,19.6,95.9,19.6c0.4-0.4,0-0.4,0-0.4S95.9,19.2,95.9,19.6L95.9,19.6"/>
	<path d="M109.7,20c0.4,0,0.4,0,0.4-0.4c0-0.4,0-0.4-0.4-0.4s-0.4,0-0.4,0.4L109.7,20"/>
	<path d="M123.4,20c0.4,0,0.4-0.4,0.4-0.4c0-0.4-0.4-0.8-0.4-0.8c-0.4,0-0.8,0.4-0.8,0.8C123,20,123,20,123.4,20"/>
	<path d="M137.2,20.4c0.4,0,0.8-0.4,0.8-0.8s-0.4-0.8-0.8-0.8s-0.8,0.4-0.8,0.8C136.3,20,136.7,20.4,137.2,20.4"/>
	<path d="M150.9,20.4c0.4,0,0.8-0.4,0.8-0.8s-0.4-0.8-0.8-0.8s-0.8,0.4-0.8,0.8C150.1,20,150.1,20.4,150.9,20.4"/>
	<path d="M164.6,20.8c0.8,0,1.2-0.4,1.2-1.2s-0.4-1.2-1.2-1.2c-0.8,0-1.2,0.4-1.2,1.2S163.8,20.8,164.6,20.8"/>
	<path d="M178,20.8c0.8,0,1.2-0.4,1.2-1.2s-0.4-1.2-1.2-1.2c-0.8,0-1.2,0.4-1.2,1.2C176.8,20,177.6,20.8,178,20.8"/>
	<path d="M191.7,20.8c0.8,0,1.2-0.4,1.2-1.2s-0.4-1.2-1.2-1.2c-0.8,0-1.2,0.4-1.2,1.2S190.9,20.8,191.7,20.8"/>
	<path d="M205.4,20.8c0.8,0,1.2-0.4,1.2-1.2s-0.4-1.2-1.2-1.2c-0.8,0-1.2,0.4-1.2,1.2C204.2,20.4,204.6,20.8,205.4,20.8"/>
	<path d="M219.2,20.8c0.8,0,1.2-0.4,1.2-1.2s-0.4-1.2-1.2-1.2c-0.8,0-1.2,0.4-1.2,1.2C218,20,218.4,20.8,219.2,20.8"/>
	<path d="M232.9,20.8c0.8,0,1.2-0.4,1.2-1.2s-0.4-1.2-1.2-1.2c-0.8,0-1.2,0.4-1.2,1.2S232.1,20.8,232.9,20.8"/>
	<path d="M246.7,20.4c0.4,0,0.8-0.4,0.8-0.8s-0.4-0.8-0.8-0.8s-0.8,0.4-0.8,0.8S245.9,20.4,246.7,20.4"/>
	<path d="M260,20.4c0.4,0,0.8-0.4,0.8-0.8s-0.4-0.8-0.8-0.8s-0.8,0.4-0.8,0.8S259.6,20.4,260,20.4"/>
	<path d="M273.7,20c0.4,0,0.4-0.4,0.4-0.4c0-0.4-0.4-0.8-0.4-0.8c-0.4,0-0.8,0.4-0.8,0.8C273.3,20,273.3,20,273.7,20"/>
	<path d="M287.5,20c0.4,0,0.4,0,0.4-0.4c0-0.4,0-0.4-0.4-0.4s-0.4,0-0.4,0.4C287.1,19.6,287.1,20,287.5,20"/>
	<path d="M301.2,19.6C301.2,19.6,301.6,19.6,301.2,19.6c0.4-0.4,0-0.4,0-0.4C300.8,19.2,300.8,19.2,301.2,19.6
		C300.8,19.6,300.8,19.6,301.2,19.6"/>
	<path d="M315,19.6L315,19.6C315,19.6,315,19.2,315,19.6C315,19.2,314.6,19.6,315,19.6C314.6,19.6,315,19.6,315,19.6"/>
	<path d="M48.2,33.3L48.2,33.3L48.2,33.3L48.2,33.3L48.2,33.3"/>
	<path d="M62,33.3L62,33.3C62,32.9,62,32.9,62,33.3C62,32.9,62,32.9,62,33.3L62,33.3"/>
	<path d="M75.7,33.3C75.7,33.3,76.1,33.3,75.7,33.3c0.4-0.4,0-0.8,0-0.8C75.3,32.9,75.3,32.9,75.7,33.3
		C75.3,33.3,75.3,33.3,75.7,33.3"/>
	<path d="M89.5,33.7c0.4,0,0.4-0.4,0.4-0.4l-0.4-0.4c-0.4,0-0.4,0.4-0.4,0.4S89.1,33.7,89.5,33.7"/>
	<path d="M102.8,34.1c0.4,0,0.8-0.4,0.8-0.8c0-0.4-0.4-0.8-0.8-0.8s-0.8,0.4-0.8,0.8C102,33.7,102.4,34.1,102.8,34.1"/>
	<path d="M116.5,34.1c0.8,0,1.2-0.4,1.2-1.2c0-0.8-0.4-1.2-1.2-1.2c-0.8,0-1.2,0.4-1.2,1.2C115.3,33.7,116.1,34.1,116.5,34.1"/>
	<path d="M130.3,34.5c0.8,0,1.2-0.8,1.2-1.2c0-0.8-0.8-1.2-1.2-1.2c-0.8,0-1.2,0.8-1.2,1.2C129.1,34.1,129.5,34.5,130.3,34.5"/>
	<path d="M144,34.9c0.8,0,1.6-0.8,1.6-1.6c0-0.8-0.8-1.6-1.6-1.6c-0.8,0-1.6,0.8-1.6,1.6C142.4,34.1,143.2,34.9,144,34.9"/>
	<path d="M157.8,34.9c1.2,0,2-0.8,2-2c0-1.2-0.8-2-2-2s-2,0.8-2,2C155.7,34.1,156.5,34.9,157.8,34.9"/>
	<path d="M171.5,35.3c1.2,0,2-0.8,2-2s-0.8-2-2-2c-1.2,0-2,0.8-2,2C169.5,34.1,170.3,35.3,171.5,35.3"/>
	<path d="M184.8,35.3c1.2,0,2-0.8,2-2s-0.8-2-2-2s-2,0.8-2,2S183.6,35.3,184.8,35.3"/>
	<path d="M198.6,35.3c1.2,0,2-0.8,2-2s-0.8-2-2-2s-2,0.8-2,2S197.4,35.3,198.6,35.3"/>
	<path d="M212.3,35.3c1.2,0,2-0.8,2-2s-0.8-2-2-2c-1.2,0-2,0.8-2,2S211.1,35.3,212.3,35.3"/>
	<path d="M226.1,34.9c1.2,0,2-0.8,2-2c0-1.2-0.8-2-2-2s-2,0.8-2,2C224,34.1,224.8,34.9,226.1,34.9"/>
	<path d="M239.8,34.9c0.8,0,1.6-0.8,1.6-1.6c0-0.8-0.8-1.6-1.6-1.6c-0.8,0-1.6,0.8-1.6,1.6C237.8,34.1,238.6,34.9,239.8,34.9"/>
	<path d="M253.1,34.5c0.8,0,1.6-0.8,1.6-1.6c0-0.8-0.8-1.6-1.6-1.6c-0.8,0-1.6,0.8-1.6,1.6C251.9,34.1,252.3,34.5,253.1,34.5"/>
	<path d="M266.9,34.5c0.8,0,1.2-0.4,1.2-1.2c0-0.8-0.4-1.2-1.2-1.2c-0.8,0-1.2,0.4-1.2,1.2C265.7,33.7,266.5,34.5,266.9,34.5"/>
	<path d="M280.6,34.1c0.4,0,0.8-0.4,0.8-0.8c0-0.4-0.4-0.8-0.8-0.8c-0.4,0-0.8,0.4-0.8,0.8C279.8,33.7,280.2,34.1,280.6,34.1"/>
	<path d="M294.4,33.7c0.4,0,0.8-0.4,0.8-0.8c0-0.4-0.4-0.8-0.8-0.8c-0.4,0-0.8,0.4-0.8,0.8C293.5,33.7,293.9,33.7,294.4,33.7"/>
	<path d="M308.1,33.7c0.4,0,0.4,0,0.4-0.4s0-0.4-0.4-0.4s-0.4,0-0.4,0.4C307.7,33.3,307.7,33.7,308.1,33.7"/>
	<path d="M321.8,33.3L321.8,33.3C321.8,32.9,321.8,32.9,321.8,33.3C321.4,32.9,321.4,32.9,321.8,33.3
		C321.4,33.3,321.4,33.3,321.8,33.3"/>
	<path d="M335.2,33.3C335.2,33.3,335.6,33.3,335.2,33.3C335.6,33.3,335.2,33.3,335.2,33.3L335.2,33.3L335.2,33.3"/>
	<path d="M55.1,47L55.1,47C55.1,46.6,55.1,46.6,55.1,47C55.1,46.6,55.1,46.6,55.1,47L55.1,47"/>
	<path d="M68.9,47C68.9,47,69.3,47,68.9,47c0.4-0.4,0.4-0.8,0-0.8C68.5,46.6,68.5,46.6,68.9,47C68.5,47,68.5,47,68.9,47"/>
	<path d="M82.6,47.4c0.4,0,0.8-0.4,0.8-0.8c0-0.4-0.4-0.8-0.8-0.8c-0.4,0-0.8,0.4-0.8,0.8C81.8,47,82.2,47.4,82.6,47.4"/>
	<path d="M95.9,47.8c0.4,0,0.8-0.4,0.8-0.8c0-0.4-0.4-0.8-0.8-0.8c-0.4,0-0.8,0.4-0.8,0.8C95.1,47.4,95.5,47.8,95.9,47.8"/>
	<path d="M109.7,48.2c0.8,0,1.2-0.8,1.2-1.2c0-0.8-0.8-1.2-1.2-1.2c-0.8,0-1.2,0.8-1.2,1.2C108.5,47.4,108.9,48.2,109.7,48.2"/>
	<path d="M123.4,48.7c0.8,0,1.6-0.8,1.6-1.6c0-0.8-0.8-1.6-1.6-1.6c-0.8,0-1.6,0.8-1.6,1.6C121.8,47.8,122.6,48.7,123.4,48.7"/>
	<path d="M137.2,49.1c1.2,0,2-0.8,2-2s-0.8-2-2-2s-2,0.8-2,2C135.1,47.8,135.9,49.1,137.2,49.1"/>
	<path d="M150.9,49.5c1.2,0,2.4-1.2,2.4-2.4s-1.2-2.4-2.4-2.4c-1.2,0-2.4,1.2-2.4,2.4S149.3,49.5,150.9,49.5"/>
	<path d="M164.6,49.5c1.6,0,2.8-1.2,2.8-2.8c0-1.6-1.2-2.8-2.8-2.8c-1.6,0-2.8,1.2-2.8,2.8C161.8,48.2,163,49.5,164.6,49.5"/>
	<path d="M178,49.9c1.6,0,2.8-1.2,2.8-2.8c0-1.6-1.2-2.8-2.8-2.8c-1.6,0-2.8,1.2-2.8,2.8C175.1,48.7,176.4,49.9,178,49.9"/>
	<path d="M191.7,49.9c1.6,0,3.2-1.2,3.2-3.2c0-1.6-1.2-3.2-3.2-3.2c-1.6,0-3.2,1.2-3.2,3.2C188.9,48.7,190.1,49.9,191.7,49.9"/>
	<path d="M205.4,49.9c1.6,0,3.2-1.2,3.2-3.2c0-1.6-1.2-3.2-3.2-3.2c-1.6,0-3.2,1.2-3.2,3.2C202.2,48.7,203.8,49.9,205.4,49.9"/>
	<path d="M219.2,49.9c1.6,0,2.8-1.2,2.8-2.8c0-1.6-1.2-2.8-2.8-2.8c-1.6,0-2.8,1.2-2.8,2.8C216,48.7,217.6,49.9,219.2,49.9"/>
	<path d="M232.9,49.9c1.6,0,2.8-1.2,2.8-2.8c0-1.6-1.2-2.8-2.8-2.8c-1.6,0-2.8,1.2-2.8,2.8C230.1,48.2,231.3,49.9,232.9,49.9"/>
	<path d="M246.7,49.5c1.6,0,2.4-1.2,2.4-2.4s-1.2-2.4-2.4-2.4c-1.6,0-2.4,1.2-2.4,2.4S245.1,49.5,246.7,49.5"/>
	<path d="M260,49.1c1.2,0,2.4-1.2,2.4-2.4c0-1.2-1.2-2.4-2.4-2.4c-1.2,0-2.4,1.2-2.4,2.4C258,48.2,258.8,49.1,260,49.1"/>
	<path d="M273.7,48.7c1.2,0,2-0.8,2-2c0-1.2-0.8-2-2-2s-2,0.8-2,2C271.7,47.8,272.9,48.7,273.7,48.7"/>
	<path d="M287.5,48.2c0.8,0,1.6-0.8,1.6-1.6c0-0.8-0.8-1.6-1.6-1.6s-1.6,0.8-1.6,1.6C285.9,47.8,286.7,48.2,287.5,48.2"/>
	<path d="M301.2,47.8c0.8,0,1.2-0.4,1.2-1.2c0-0.8-0.4-1.2-1.2-1.2s-1.2,0.4-1.2,1.2C300,47.4,300.4,47.8,301.2,47.8"/>
	<path d="M315,47.8c0.4,0,0.8-0.4,0.8-0.8c0-0.4-0.4-0.8-0.8-0.8c-0.4,0-0.8,0.4-0.8,0.8C314.2,47.4,314.6,47.8,315,47.8"/>
	<path d="M328.3,47.4c0.4,0,0.4-0.4,0.4-0.4c0-0.4-0.4-0.4-0.4-0.4c-0.4,0-0.4,0.4-0.4,0.4L328.3,47.4"/>
	<path d="M342,47C342.4,47,342.4,47,342,47c0.4-0.4,0-0.4,0-0.4S342,46.6,342,47L342,47"/>
	<path d="M355.8,47L355.8,47C355.8,46.6,355.8,46.6,355.8,47C355.8,46.6,355.8,46.6,355.8,47L355.8,47"/>
	<path d="M34.5,60.8L34.5,60.8C34.5,60.4,34.5,60.4,34.5,60.8C34.5,60.4,34.5,60.4,34.5,60.8L34.5,60.8"/>
	<path d="M48.2,60.8C48.6,60.8,48.6,60.8,48.2,60.8c0.4-0.4,0-0.4,0-0.4S47.8,60.4,48.2,60.8C47.8,60.8,48.2,60.8,48.2,60.8"/>
	<path d="M62,61.2c0.4,0,0.4-0.4,0.4-0.4c0-0.4-0.4-0.8-0.4-0.8c-0.4,0-0.8,0.4-0.8,0.8C61.2,60.8,61.6,61.2,62,61.2"/>
	<path d="M75.7,61.6c0.4,0,0.8-0.4,0.8-0.8c0-0.4-0.4-0.8-0.8-0.8s-0.8,0.4-0.8,0.8C74.9,61.2,74.9,61.6,75.7,61.6"/>
	<path d="M89.5,62c0.8,0,1.6-0.8,1.6-1.6c0-0.8-0.8-1.6-1.6-1.6c-0.8,0-1.6,0.8-1.6,1.6C87.8,61.2,88.7,62,89.5,62"/>
	<path d="M102.8,62.4c1.2,0,2-0.8,2-2s-0.8-2-2-2c-1.2,0-2,0.8-2,2C101.2,61.6,102,62.4,102.8,62.4"/>
	<path d="M116.5,62.8c1.2,0,2.4-1.2,2.4-2.4c0-1.2-1.2-2.4-2.4-2.4c-1.2,0-2.4,1.2-2.4,2.4C114.1,62,115.3,62.8,116.5,62.8"/>
	<path d="M130.3,63.2c1.6,0,2.8-1.2,2.8-2.8c0-1.6-1.2-2.8-2.8-2.8c-1.6,0-2.8,1.2-2.8,2.8C127.5,62,128.7,63.2,130.3,63.2"/>
	<path d="M144,64c2,0,3.2-1.6,3.2-3.2s-1.6-3.2-3.2-3.2c-2,0-3.2,1.6-3.2,3.2S142,64,144,64"/>
	<path d="M157.8,64.4c2,0,3.6-1.6,3.6-3.6c0-2-1.6-3.6-3.6-3.6c-2,0-3.6,1.6-3.6,3.6C154.1,62.8,155.7,64.4,157.8,64.4"/>
	<path d="M171.5,64.4c2,0,4-1.6,4-4c0-2-1.6-4-4-4c-2,0-4,1.6-4,4C167.5,62.8,169.1,64.4,171.5,64.4"/>
	<path d="M184.8,64.8c2.4,0,4-2,4-4c0-2.4-2-4-4-4c-2.4,0-4,2-4,4C180.8,62.8,182.8,64.8,184.8,64.8"/>
	<path d="M198.6,64.8c2.4,0,4-2,4-4c0-2.4-2-4-4-4c-2.4,0-4,2-4,4C194.5,62.8,196.2,64.8,198.6,64.8"/>
	<path d="M212.3,64.8c2.4,0,4-2,4-4c0-2.4-2-4-4-4c-2.4,0-4,2-4,4C208.3,62.8,209.9,64.8,212.3,64.8"/>
	<path d="M226.1,64.4c2,0,4-1.6,4-4c0-2-1.6-4-4-4c-2,0-4,1.6-4,4C222,62.8,223.6,64.4,226.1,64.4"/>
	<path d="M239.8,64c2,0,3.6-1.6,3.6-3.6c0-2-1.6-3.6-3.6-3.6c-2,0-3.6,1.6-3.6,3.6C236.2,62.4,237.8,64,239.8,64"/>
	<path d="M253.1,63.6c1.6,0,3.2-1.6,3.2-3.2c0-1.6-1.6-3.2-3.2-3.2s-3.2,1.6-3.2,3.2C249.9,62,251.5,63.6,253.1,63.6"/>
	<path d="M266.9,63.2c1.6,0,2.8-1.2,2.8-2.8c0-1.6-1.2-2.8-2.8-2.8c-1.6,0-2.8,1.2-2.8,2.8C264,62,265.7,63.2,266.9,63.2"/>
	<path d="M280.6,62.8c1.2,0,2.4-1.2,2.4-2.4c0-1.2-1.2-2.4-2.4-2.4c-1.2,0-2.4,1.2-2.4,2.4C278.2,61.6,279.4,62.8,280.6,62.8"/>
	<path d="M294.4,62.4c0.8,0,1.6-0.8,1.6-1.6c0-0.8-0.8-1.6-1.6-1.6s-1.6,0.8-1.6,1.6C292.7,61.6,293.5,62.4,294.4,62.4"/>
	<path d="M308.1,62c0.8,0,1.2-0.4,1.2-1.2c0-0.8-0.4-1.2-1.2-1.2s-1.2,0.4-1.2,1.2C306.9,61.6,307.3,62,308.1,62"/>
	<path d="M321.8,61.6c0.4,0,0.8-0.4,0.8-0.8c0-0.4-0.4-0.8-0.8-0.8s-0.8,0.4-0.8,0.8C320.6,61.2,321,61.6,321.8,61.6"/>
	<path d="M335.2,61.2c0.4,0,0.4-0.4,0.4-0.4c0-0.4-0.4-0.4-0.4-0.4c-0.4,0-0.4,0.4-0.4,0.4L335.2,61.2"/>
	<path d="M348.9,60.8C349.3,60.8,349.3,60.8,348.9,60.8c0.4-0.4,0-0.4,0-0.4S348.9,60.4,348.9,60.8L348.9,60.8"/>
	<path d="M362.6,60.8L362.6,60.8C362.6,60.4,362.6,60.4,362.6,60.8C362.6,60.4,362.6,60.4,362.6,60.8L362.6,60.8"/>
	<path d="M27.6,74.1L27.6,74.1L27.6,74.1L27.6,74.1L27.6,74.1"/>
	<path d="M41.4,74.5C41.4,74.5,41.8,74.5,41.4,74.5C41.8,74.1,41.4,74.1,41.4,74.5C41.4,74.1,41.4,74.1,41.4,74.5L41.4,74.5"/>
	<path d="M55.1,74.9c0.4,0,0.4-0.4,0.4-0.4c0-0.4-0.4-0.4-0.4-0.4c-0.4,0-0.4,0.4-0.4,0.4S54.7,74.9,55.1,74.9"/>
	<path d="M68.9,75.3c0.4,0,0.8-0.4,0.8-0.8s-0.4-0.8-0.8-0.8c-0.4,0-0.8,0.4-0.8,0.8C68,74.9,68.5,75.3,68.9,75.3"/>
	<path d="M82.6,75.7c0.8,0,1.2-0.4,1.2-1.2s-0.4-1.2-1.2-1.2c-0.8,0-1.2,0.4-1.2,1.2C81,74.9,81.8,75.7,82.6,75.7"/>
	<path d="M95.9,76.1c1.2,0,2-0.8,2-2c0-1.2-0.8-2-2-2c-1.2,0-2,0.8-2,2C94.3,75.3,95.1,76.1,95.9,76.1"/>
	<path d="M109.7,76.5c1.2,0,2.4-1.2,2.4-2.4c0-1.2-1.2-2.4-2.4-2.4c-1.2,0-2.4,1.2-2.4,2.4C107.2,75.3,108.5,76.5,109.7,76.5"/>
	<path d="M123.4,77.3c1.6,0,3.2-1.2,3.2-3.2c0-2-1.2-3.2-3.2-3.2c-1.6,0-3.2,1.2-3.2,3.2C120.2,76.1,121.8,77.3,123.4,77.3"/>
	<path d="M137.2,77.7c2,0,3.6-1.6,3.6-3.6c0-2-1.6-3.6-3.6-3.6s-3.6,1.6-3.6,3.6C133.5,76.1,135.1,77.7,137.2,77.7"/>
	<path d="M150.9,78.6c2.4,0,4-2,4-4c0-2.4-2-4-4-4c-2.4,0-4,2-4,4C146.4,76.5,148.5,78.6,150.9,78.6"/>
	<path d="M164.6,79c2.4,0,4.8-2,4.8-4.8s-2-4.8-4.8-4.8c-2.4,0-4.8,2-4.8,4.8S161.8,79,164.6,79"/>
	<path d="M178,79.4c2.8,0,5.3-2.4,5.3-5.3s-2.4-5.3-5.3-5.3c-2.8,0-5.3,2.4-5.3,5.3S175.1,79.4,178,79.4"/>
	<path d="M191.7,79.8c2.8,0,5.3-2.4,5.3-5.3s-2.4-5.3-5.3-5.3c-2.8,0-5.3,2.4-5.3,5.3S188.9,79.8,191.7,79.8"/>
	<path d="M205.4,79.8c3.2,0,5.7-2.4,5.7-5.7c0-3.2-2.4-5.7-5.7-5.7c-3.2,0-5.7,2.4-5.7,5.7C199.8,77.3,202.6,79.8,205.4,79.8"/>
	<path d="M219.2,79.8c2.8,0,5.3-2.4,5.3-5.3s-2.4-5.3-5.3-5.3c-2.8,0-5.3,2.4-5.3,5.3S216.4,79.8,219.2,79.8"/>
	<path d="M232.9,79.4c2.8,0,5.3-2.4,5.3-5.3s-2.4-5.3-5.3-5.3c-2.8,0-5.3,2.4-5.3,5.3S230.1,79.4,232.9,79.4"/>
	<path d="M246.7,79c2.4,0,4.8-2,4.8-4.8c0-2.4-2-4.8-4.8-4.8c-2.4,0-4.8,2-4.8,4.8C241.8,76.9,243.8,79,246.7,79"/>
	<path d="M260,78.6c2.4,0,4-2,4-4.4c0-2.4-2-4.4-4-4.4c-2.4,0-4.4,2-4.4,4.4C256,76.5,258,78.6,260,78.6"/>
	<path d="M273.7,77.7c2,0,3.6-1.6,3.6-3.6c0-2-1.6-3.6-3.6-3.6s-3.6,1.6-3.6,3.6C270.1,76.1,271.7,77.7,273.7,77.7"/>
	<path d="M287.5,77.3c1.6,0,3.2-1.2,3.2-3.2c0-1.6-1.2-3.2-3.2-3.2c-1.6,0-3.2,1.2-3.2,3.2C284.3,76.1,285.9,77.3,287.5,77.3"/>
	<path d="M301.2,76.5c1.2,0,2.4-1.2,2.4-2.4c0-1.2-1.2-2.4-2.4-2.4s-2.4,1.2-2.4,2.4C298.8,75.7,299.6,76.5,301.2,76.5"/>
	<path d="M315,76.1c1.2,0,2-0.8,2-2c0-1.2-0.8-2-2-2c-1.2,0-2,0.8-2,2C312.9,75.3,313.8,76.1,315,76.1"/>
	<path d="M328.3,75.7c0.8,0,1.2-0.8,1.2-1.2c0-0.8-0.8-1.2-1.2-1.2c-0.8,0-1.2,0.8-1.2,1.2S327.9,75.7,328.3,75.7"/>
	<path d="M342,75.3c0.4,0,0.8-0.4,0.8-0.8s-0.4-0.8-0.8-0.8c-0.4,0-0.8,0.4-0.8,0.8S341.6,75.3,342,75.3"/>
	<path d="M355.8,74.9c0.4,0,0.4-0.4,0.4-0.4c0-0.4-0.4-0.4-0.4-0.4c-0.4,0-0.4,0.4-0.4,0.4C355.4,74.5,355.4,74.9,355.8,74.9"/>
	<path d="M369.5,74.5C369.5,74.5,369.9,74.5,369.5,74.5c0.4-0.4,0-0.4,0-0.4S369.1,74.1,369.5,74.5
		C369.1,74.5,369.5,74.5,369.5,74.5"/>
	<path d="M383.3,74.1L383.3,74.1L383.3,74.1L383.3,74.1L383.3,74.1"/>
	<path d="M20.8,87.9C21.2,87.9,21.2,87.9,20.8,87.9C21.2,87.9,21.2,87.9,20.8,87.9L20.8,87.9L20.8,87.9"/>
	<path d="M34.5,88.3C34.9,88.3,34.9,88.3,34.5,88.3c0.4-0.4,0-0.4,0-0.4C34.5,87.4,34.5,87.9,34.5,88.3L34.5,88.3"/>
	<path d="M48.2,88.7c0.4,0,0.8-0.4,0.8-0.8c0-0.4-0.4-0.8-0.8-0.8c-0.4,0-0.8,0.4-0.8,0.8C47.4,88.3,47.8,88.7,48.2,88.7"/>
	<path d="M62,89.1c0.4,0,1.2-0.4,1.2-1.2c0-0.4-0.4-1.2-1.2-1.2c-0.8,0-1.2,0.4-1.2,1.2C60.8,88.7,61.2,89.1,62,89.1"/>
	<path d="M75.7,89.5c0.8,0,1.6-0.8,1.6-1.6c0-0.8-0.8-1.6-1.6-1.6c-0.8,0-1.6,0.8-1.6,1.6C74.1,88.7,74.9,89.5,75.7,89.5"/>
	<path d="M89.5,90.3c1.2,0,2.4-0.8,2.4-2.4c0-1.6-0.8-2.4-2.4-2.4c-1.2,0-2.4,0.8-2.4,2.4C87,89.5,87.8,90.3,89.5,90.3"/>
	<path d="M102.8,90.7c1.6,0,2.8-1.2,2.8-2.8c0-1.6-1.2-2.8-2.8-2.8c-1.6,0-2.8,1.2-2.8,2.8C100,89.5,101.2,90.7,102.8,90.7"/>
	<path d="M116.5,91.5c2,0,3.6-1.6,3.6-3.6c0-2-1.6-3.6-3.6-3.6s-3.6,1.6-3.6,3.6C112.9,89.9,114.5,91.5,116.5,91.5"/>
	<path d="M130.3,92.3c2.4,0,4.4-2,4.4-4.4c0-2.4-2-4.4-4.4-4.4c-2.4,0-4.4,2-4.4,4.4C125.8,90.3,127.9,92.3,130.3,92.3"/>
	<path d="M144,93.1c2.8,0,5.3-2.4,5.3-5.3s-2.4-5.3-5.3-5.3c-2.8,0-5.3,2.4-5.3,5.3S141.2,93.1,144,93.1"/>
	<path d="M157.8,93.5c3.2,0,5.7-2.4,5.7-5.7c0-3.2-2.4-5.7-5.7-5.7c-3.2,0-5.7,2.4-5.7,5.7C152.1,91.1,154.5,93.5,157.8,93.5"/>
	<path d="M171.5,94.3c3.6,0,6.5-2.8,6.5-6.5c0-3.6-2.8-6.5-6.5-6.5c-3.6,0-6.5,2.8-6.5,6.5C165,91.5,167.9,94.3,171.5,94.3"/>
	<path d="M184.8,94.7c3.6,0,6.9-2.8,6.9-6.9c0-3.6-2.8-6.9-6.9-6.9c-3.6,0-6.9,2.8-6.9,6.9C178.4,91.5,181.2,94.7,184.8,94.7"/>
	<path d="M198.6,94.7c3.6,0,6.9-3.2,6.9-6.9c0-3.6-3.2-6.9-6.9-6.9c-3.6,0-6.9,3.2-6.9,6.9C191.7,91.9,194.9,94.7,198.6,94.7"/>
	<path d="M212.3,94.7c3.6,0,6.9-3.2,6.9-6.9c0-3.6-3.2-6.9-6.9-6.9c-3.6,0-6.9,3.2-6.9,6.9C205.4,91.9,208.7,94.7,212.3,94.7"/>
	<path d="M226.1,94.3c3.6,0,6.5-2.8,6.5-6.5c0-3.6-2.8-6.5-6.5-6.5c-3.6,0-6.5,2.8-6.5,6.5C219.6,91.5,222.4,94.3,226.1,94.3"/>
	<path d="M239.8,93.9c3.2,0,6.1-2.8,6.1-6.1c0-3.2-2.8-6.1-6.1-6.1c-3.2,0-6.1,2.8-6.1,6.1C233.7,91.1,236.6,93.9,239.8,93.9"/>
	<path d="M253.1,93.1c2.8,0,5.3-2.4,5.3-5.3s-2.4-5.3-5.3-5.3c-2.8,0-5.3,2.4-5.3,5.3C247.9,91.1,250.3,93.1,253.1,93.1"/>
	<path d="M266.9,92.7c2.4,0,4.4-2,4.4-4.4s-2-4.4-4.4-4.4s-4.4,2-4.4,4.4S264.4,92.7,266.9,92.7"/>
	<path d="M280.6,91.9c2,0,4-1.6,4-4c0-2-1.6-4-4-4c-2,0-4,1.6-4,4C277,90.3,278.6,91.9,280.6,91.9"/>
	<path d="M294.4,91.1c1.6,0,3.2-1.2,3.2-3.2c0-2-1.2-3.2-3.2-3.2c-1.6,0-3.2,1.2-3.2,3.2C291.1,89.9,292.7,91.1,294.4,91.1"/>
	<path d="M308.1,90.3c1.2,0,2.4-1.2,2.4-2.4c0-1.2-1.2-2.4-2.4-2.4s-2.4,1.2-2.4,2.4C305.7,89.1,306.5,90.3,308.1,90.3"/>
	<path d="M321.8,89.9c0.8,0,1.6-0.8,1.6-2c0-1.2-0.8-2-1.6-2s-2,0.8-2,2C319.8,89.1,320.6,89.9,321.8,89.9"/>
	<path d="M335.2,89.1c0.8,0,1.2-0.4,1.2-1.2c0-0.8-0.4-1.2-1.2-1.2c-0.8,0-1.2,0.4-1.2,1.2C334,88.7,334.8,89.1,335.2,89.1"/>
	<path d="M348.9,88.7c0.4,0,0.8-0.4,0.8-0.8c0-0.4-0.4-0.8-0.8-0.8c-0.4,0-0.8,0.4-0.8,0.8C348.1,88.3,348.5,88.7,348.9,88.7"/>
	<path d="M362.6,88.3c0.4,0,0.4,0,0.4-0.4s0-0.4-0.4-0.4s-0.4,0-0.4,0.4S362.2,88.3,362.6,88.3"/>
	<path d="M376.4,88.3C376.4,88.3,376.4,87.9,376.4,88.3C376.4,87.9,376.4,87.9,376.4,88.3C376.4,87.9,376.4,87.9,376.4,88.3
		C376.4,87.9,376.4,88.3,376.4,88.3"/>
	<path d="M27.6,101.6C27.6,101.6,28,101.6,27.6,101.6C28,101.6,27.6,101.6,27.6,101.6L27.6,101.6L27.6,101.6"/>
	<path d="M41.4,102C41.8,102,41.8,102,41.4,102c0.4-0.4,0.4-0.8,0-0.8C41.4,101.2,41,101.6,41.4,102C41,102,41.4,102,41.4,102"/>
	<path d="M55.1,102.4c0.4,0,0.8-0.4,0.8-0.8c0-0.4-0.4-0.8-0.8-0.8c-0.4,0-0.8,0.4-0.8,0.8C54.3,102,54.7,102.4,55.1,102.4"/>
	<path d="M68.9,102.8c0.8,0,1.2-0.4,1.2-1.2c0-0.8-0.4-1.2-1.2-1.2c-0.8,0-1.2,0.4-1.2,1.2C67.6,102.4,68,102.8,68.9,102.8"/>
	<path d="M82.6,103.6c1.2,0,2-0.8,2-2c0-1.2-0.8-2-2-2c-1.2,0-2,0.8-2,2C80.6,102.8,81.4,103.6,82.6,103.6"/>
	<path d="M95.9,104c1.2,0,2.4-1.2,2.4-2.4c0-1.2-1.2-2.4-2.4-2.4c-1.2,0-2.4,1.2-2.4,2.4C93.5,103.2,94.7,104,95.9,104"/>
	<path d="M109.7,104.8c2,0,3.2-1.6,3.2-3.2c0-2-1.6-3.2-3.2-3.2c-2,0-3.2,1.6-3.2,3.2C106.4,103.6,108.1,104.8,109.7,104.8"/>
	<path d="M123.4,105.6c2.4,0,4-2,4-4c0-2.4-2-4-4-4c-2.4,0-4,2-4,4C119.4,104,121.4,105.6,123.4,105.6"/>
	<path d="M137.2,106.4c2.8,0,4.8-2.4,4.8-4.8c0-2.8-2-4.8-4.8-4.8c-2.8,0-4.8,2.4-4.8,4.8C132.3,104.4,134.3,106.4,137.2,106.4"/>
	<path d="M150.9,107.7c3.2,0,5.7-2.4,5.7-5.7c0-3.2-2.4-5.7-5.7-5.7c-3.2,0-5.7,2.4-5.7,5.7C144.8,104.8,147.7,107.7,150.9,107.7"/>
	<path d="M164.6,108.5c3.6,0,6.9-2.8,6.9-6.9c0-3.6-2.8-6.9-6.9-6.9c-3.6,0-6.9,2.8-6.9,6.9C157.8,105.2,160.6,108.5,164.6,108.5"/>
	<path d="M178,108.9c4,0,6.9-3.2,6.9-6.9c0-4-3.2-6.9-6.9-6.9c-4,0-6.9,3.2-6.9,6.9C171.1,105.6,174.3,108.9,178,108.9"/>
	<path d="M191.7,108.9c4,0,6.9-3.2,6.9-6.9c0-4-3.2-6.9-6.9-6.9c-4,0-6.9,3.2-6.9,6.9C184.8,105.6,188.1,108.9,191.7,108.9"/>
	<path d="M205.4,108.9c4,0,6.9-3.2,6.9-6.9c0-4-3.2-6.9-6.9-6.9c-4,0-6.9,3.2-6.9,6.9C198.6,105.6,201.4,108.9,205.4,108.9"/>
	<path d="M219.2,108.9c4,0,6.9-3.2,6.9-6.9c0-4-3.2-6.9-6.9-6.9c-4,0-6.9,3.2-6.9,6.9C211.9,105.6,215.1,108.9,219.2,108.9"/>
	<path d="M232.9,108.9c4,0,6.9-3.2,6.9-6.9c0-4-3.2-6.9-6.9-6.9c-4,0-6.9,3.2-6.9,6.9C225.7,105.6,228.9,108.9,232.9,108.9"/>
	<path d="M246.7,108.9c4,0,6.9-3.2,6.9-6.9c0-4-3.2-6.9-6.9-6.9c-4,0-6.9,3.2-6.9,6.9C239.4,105.6,242.6,108.9,246.7,108.9"/>
	<path d="M260,108.1c3.6,0,6.5-2.8,6.5-6.5c0-3.6-2.8-6.5-6.5-6.5c-3.6,0-6.5,2.8-6.5,6.5C253.5,105.2,256.8,108.1,260,108.1"/>
	<path d="M273.7,107.3c3.2,0,5.7-2.4,5.7-5.7c0-3.2-2.4-5.7-5.7-5.7s-5.7,2.4-5.7,5.7C268.5,104.8,270.9,107.3,273.7,107.3"/>
	<path d="M287.5,106.4c2.4,0,4.4-2,4.4-4.4s-2-4.4-4.4-4.4s-4.4,2-4.4,4.4C283,104,285.1,106.4,287.5,106.4"/>
	<path d="M301.2,105.6c2,0,3.6-1.6,3.6-3.6c0-2-1.6-3.6-3.6-3.6c-2,0-3.6,1.6-3.6,3.6C297.2,103.6,299.2,105.6,301.2,105.6"/>
	<path d="M315,104.8c1.6,0,2.8-1.2,2.8-2.8c0-1.6-1.2-2.8-2.8-2.8c-1.6,0-2.8,1.2-2.8,2.8C311.7,103.2,313.3,104.8,315,104.8"/>
	<path d="M328.3,104c1.2,0,2.4-1.2,2.4-2.4c0-1.2-1.2-2.4-2.4-2.4s-2.4,1.2-2.4,2.4C325.9,102.8,327.1,104,328.3,104"/>
	<path d="M342,103.2c0.8,0,1.6-0.8,1.6-1.6c0-0.8-0.8-1.6-1.6-1.6s-1.6,0.8-1.6,1.6C340.4,102.4,341.2,103.2,342,103.2"/>
	<path d="M355.8,102.8c0.4,0,1.2-0.4,1.2-1.2c0-0.4-0.4-1.2-1.2-1.2c-0.4,0-1.2,0.4-1.2,1.2C355,102.4,355.4,102.8,355.8,102.8"/>
	<path d="M369.5,102.4c0.4,0,0.4-0.4,0.4-0.8c0-0.4-0.4-0.8-0.4-0.8c-0.4,0-0.8,0.4-0.8,0.8C368.7,102,369.1,102.4,369.5,102.4"/>
	<path d="M383.3,102L383.3,102c0.4-0.4,0-0.4,0-0.4C382.9,101.2,382.9,101.6,383.3,102C382.9,102,382.9,102,383.3,102"/>
	<path d="M397,101.6L397,101.6L397,101.6L397,101.6L397,101.6"/>
	<path d="M20.8,115.3C21.2,115.3,21.2,115.3,20.8,115.3C21.2,115.3,21.2,115.3,20.8,115.3L20.8,115.3L20.8,115.3"/>
	<path d="M34.5,115.7c0.4,0,0.4,0,0.4-0.4c0-0.4,0-0.4-0.4-0.4c-0.4,0-0.4,0-0.4,0.4C34.1,115.7,34.5,115.7,34.5,115.7"/>
	<path d="M48.2,116.1c0.4,0,0.8-0.4,0.8-0.8c0-0.4-0.4-0.8-0.8-0.8c-0.4,0-0.8,0.4-0.8,0.8C47.4,115.7,47.8,116.1,48.2,116.1"/>
	<path d="M62,116.5c0.8,0,1.2-0.8,1.2-1.2c0-0.4-0.8-1.2-1.2-1.2c-0.8,0-1.2,0.8-1.2,1.2C60.8,115.7,61.2,116.5,62,116.5"/>
	<path d="M75.7,117.4c1.2,0,2-0.8,2-2c0-1.2-0.8-2-2-2s-2,0.8-2,2C73.7,116.5,74.5,117.4,75.7,117.4"/>
	<path d="M89.5,118.2c1.6,0,2.8-1.2,2.8-2.8c0-1.6-1.2-2.8-2.8-2.8c-1.6,0-2.8,1.2-2.8,2.8C86.6,116.9,87.8,118.2,89.5,118.2"/>
	<path d="M102.8,119c2,0,3.6-1.6,3.6-3.6c0-2-1.6-3.6-3.6-3.6s-3.6,1.6-3.6,3.6C99.2,117.4,101.2,119,102.8,119"/>
	<path d="M116.5,119.8c2.4,0,4.4-2,4.4-4.4c0-2.4-2-4.4-4.4-4.4s-4.4,2-4.4,4.4C112.1,117.8,114.1,119.8,116.5,119.8"/>
	<path d="M130.3,120.6c2.8,0,5.3-2.4,5.3-5.3c0-2.8-2.4-5.3-5.3-5.3c-2.8,0-5.3,2.4-5.3,5.3C125,118.2,127.5,120.6,130.3,120.6"/>
	<path d="M144,121.8c3.6,0,6.5-2.8,6.5-6.5c0-3.6-2.8-6.5-6.5-6.5c-3.6,0-6.5,2.8-6.5,6.5C137.6,119,140.4,121.8,144,121.8"/>
	<path d="M157.8,122.6c4,0,6.9-3.2,6.9-6.9c0-4-3.2-6.9-6.9-6.9c-4,0-6.9,3.2-6.9,6.9C150.5,119.4,153.7,122.6,157.8,122.6"/>
	<path d="M171.5,122.6c4,0,6.9-3.2,6.9-6.9c0-4-3.2-6.9-6.9-6.9c-4,0-6.9,3.2-6.9,6.9C164.2,119.4,167.5,122.6,171.5,122.6"/>
	<path d="M184.8,122.6c4,0,6.9-3.2,6.9-6.9c0-4-3.2-6.9-6.9-6.9c-4,0-6.9,3.2-6.9,6.9C178,119.4,181.2,122.6,184.8,122.6"/>
	<path d="M198.6,122.6c4,0,6.9-3.2,6.9-6.9c0-4-3.2-6.9-6.9-6.9c-4,0-6.9,3.2-6.9,6.9C191.7,119.4,194.9,122.6,198.6,122.6"/>
	<path d="M212.3,122.6c4,0,6.9-3.2,6.9-6.9c0-4-3.2-6.9-6.9-6.9c-4,0-6.9,3.2-6.9,6.9C205.4,119.4,208.3,122.6,212.3,122.6"/>
	<path d="M226.1,122.6c4,0,6.9-3.2,6.9-6.9c0-4-3.2-6.9-6.9-6.9c-4,0-6.9,3.2-6.9,6.9C218.8,119.4,222,122.6,226.1,122.6"/>
	<path d="M239.8,122.6c4,0,6.9-3.2,6.9-6.9c0-4-3.2-6.9-6.9-6.9c-4,0-6.9,3.2-6.9,6.9C232.5,119.4,235.8,122.6,239.8,122.6"/>
	<path d="M253.1,122.6c4,0,6.9-3.2,6.9-6.9c0-4-3.2-6.9-6.9-6.9c-4,0-6.9,3.2-6.9,6.9C246.3,119.4,249.5,122.6,253.1,122.6"/>
	<path d="M266.9,121.8c3.6,0,6.1-2.8,6.1-6.5c0-3.6-2.8-6.5-6.1-6.5c-3.6,0-6.1,2.8-6.1,6.5C260.8,119,263.6,121.8,266.9,121.8"/>
	<path d="M280.6,120.6c2.8,0,5.3-2.4,5.3-5.3c0-2.8-2.4-5.3-5.3-5.3c-2.8,0-5.3,2.4-5.3,5.3C275.4,118.2,277.8,120.6,280.6,120.6"/>
	<path d="M294.4,119.8c2.4,0,4.4-2,4.4-4.4c0-2.4-2-4.4-4.4-4.4s-4.4,2-4.4,4.4C289.9,117.8,291.9,119.8,294.4,119.8"/>
	<path d="M308.1,119c2,0,3.2-1.6,3.2-3.2c0-2-1.6-3.2-3.2-3.2c-2,0-3.2,1.6-3.2,3.2C304.5,117.4,306.1,119,308.1,119"/>
	<path d="M321.8,118.2c1.6,0,2.4-1.2,2.4-2.4c0-1.6-1.2-2.4-2.4-2.4c-1.6,0-2.4,1.2-2.4,2.4C319,116.9,320.2,118.2,321.8,118.2"/>
	<path d="M335.2,117.4c1.2,0,2-0.8,2-2c0-1.2-0.8-2-2-2c-1.2,0-2,0.8-2,2C333.6,116.5,334.4,117.4,335.2,117.4"/>
	<path d="M348.9,116.5c0.8,0,1.2-0.4,1.2-1.2c0-0.8-0.4-1.2-1.2-1.2s-1.2,0.4-1.2,1.2C347.7,116.1,348.1,116.5,348.9,116.5"/>
	<path d="M362.6,116.1c0.4,0,0.8-0.4,0.8-0.8c0-0.4-0.4-0.8-0.8-0.8c-0.4,0-0.8,0.4-0.8,0.8C361.8,115.7,362.2,116.1,362.6,116.1"/>
	<path d="M376.4,115.7C376.4,115.7,376.8,115.7,376.4,115.7c0.4-0.4,0.4-0.8,0-0.8S376,115.3,376.4,115.7
		C376,115.7,376,115.7,376.4,115.7"/>
	<path d="M390.1,115.3L390.1,115.3L390.1,115.3C390.1,115.3,389.7,115.3,390.1,115.3C389.7,115.3,390.1,115.3,390.1,115.3"/>
	<path d="M27.6,129.1C27.6,129.1,28,129.1,27.6,129.1C28,129.1,27.6,129.1,27.6,129.1L27.6,129.1L27.6,129.1"/>
	<path d="M41.4,129.5c0.4,0,0.4,0,0.4-0.4s0-0.4-0.4-0.4c-0.4,0-0.4,0-0.4,0.4S41.4,129.5,41.4,129.5"/>
	<path d="M55.1,129.9c0.4,0,0.8-0.4,0.8-0.8s-0.4-0.8-0.8-0.8c-0.4,0-0.8,0.4-0.8,0.8S54.7,129.9,55.1,129.9"/>
	<path d="M68.9,130.3c0.8,0,1.2-0.8,1.2-1.2c0-0.8-0.8-1.2-1.2-1.2c-0.8,0-1.2,0.8-1.2,1.2C67.2,129.9,68,130.3,68.9,130.3"/>
	<path d="M82.6,131.1c1.2,0,2-0.8,2-2s-0.8-2-2-2c-1.2,0-2,0.8-2,2S81.4,131.1,82.6,131.1"/>
	<path d="M95.9,131.9c1.6,0,2.8-1.2,2.8-2.8c0-1.6-1.2-2.8-2.8-2.8c-1.6,0-2.8,1.2-2.8,2.8C93.5,130.7,94.7,131.9,95.9,131.9"/>
	<path d="M109.7,132.7c2,0,3.6-1.6,3.6-3.6c0-2-1.6-3.6-3.6-3.6c-2,0-3.6,1.6-3.6,3.6C106,131.1,107.7,132.7,109.7,132.7"/>
	<path d="M123.4,133.5c2.4,0,4.4-2,4.4-4.4c0-2.4-2-4.4-4.4-4.4s-4.4,2-4.4,4.4C119,131.5,121,133.5,123.4,133.5"/>
	<path d="M137.2,134.7c3.2,0,5.7-2.4,5.7-5.7c0-3.2-2.4-5.7-5.7-5.7c-3.2,0-5.7,2.4-5.7,5.7C131.5,131.9,133.9,134.7,137.2,134.7"/>
	<path d="M150.9,135.5c3.6,0,6.5-2.8,6.5-6.5c0-3.6-2.8-6.5-6.5-6.5c-3.6,0-6.5,2.8-6.5,6.5C144.4,132.7,147.3,135.5,150.9,135.5"/>
	<path d="M164.6,135.9c4,0,6.9-3.2,6.9-6.9c0-4-3.2-6.9-6.9-6.9c-4,0-6.9,3.2-6.9,6.9C157.4,133.1,160.6,135.9,164.6,135.9"/>
	<path d="M178,135.9c4,0,6.9-3.2,6.9-6.9c0-4-3.2-6.9-6.9-6.9c-4,0-6.9,3.2-6.9,6.9C171.1,133.1,174.3,135.9,178,135.9"/>
	<path d="M191.7,135.9c4,0,6.9-3.2,6.9-6.9c0-4-3.2-6.9-6.9-6.9c-4,0-6.9,3.2-6.9,6.9C184.8,133.1,188.1,135.9,191.7,135.9"/>
	<path d="M205.4,135.9c4,0,6.9-3.2,6.9-6.9c0-4-3.2-6.9-6.9-6.9c-4,0-6.9,3.2-6.9,6.9C198.6,133.1,201.4,135.9,205.4,135.9"/>
	<path d="M219.2,135.9c4,0,6.9-3.2,6.9-6.9c0-4-3.2-6.9-6.9-6.9c-4,0-6.9,3.2-6.9,6.9C211.9,133.1,215.1,135.9,219.2,135.9"/>
	<path d="M232.9,135.9c4,0,6.9-3.2,6.9-6.9c0-4-3.2-6.9-6.9-6.9c-4,0-6.9,3.2-6.9,6.9C225.7,133.1,228.9,135.9,232.9,135.9"/>
	<path d="M246.7,135.9c4,0,6.9-3.2,6.9-6.9c0-4-3.2-6.9-6.9-6.9c-4,0-6.9,3.2-6.9,6.9C239.4,133.1,242.6,135.9,246.7,135.9"/>
	<path d="M260,135.9c4,0,6.9-3.2,6.9-6.9c0-4-3.2-6.9-6.9-6.9c-4,0-6.9,3.2-6.9,6.9C253.1,133.1,256.4,135.9,260,135.9"/>
	<path d="M273.7,135.9c3.6,0,6.9-2.8,6.9-6.9c0-3.6-2.8-6.9-6.9-6.9c-3.6,0-6.9,2.8-6.9,6.9C266.9,132.7,270.1,135.9,273.7,135.9"/>
	<path d="M287.5,134.7c3.2,0,5.7-2.4,5.7-5.7c0-3.2-2.4-5.7-5.7-5.7c-3.2,0-5.7,2.4-5.7,5.7C281.8,132.3,284.3,134.7,287.5,134.7"/>
	<path d="M301.2,133.5c2.4,0,4.4-2,4.4-4.4c0-2.4-2-4.4-4.4-4.4c-2.4,0-4.4,2-4.4,4.4C296.4,131.5,298.8,133.5,301.2,133.5"/>
	<path d="M315,132.7c2,0,3.6-1.6,3.6-3.6c0-2-1.6-3.6-3.6-3.6c-2,0-3.6,1.6-3.6,3.6C310.9,131.1,312.9,132.7,315,132.7"/>
	<path d="M328.3,131.9c1.6,0,2.8-1.2,2.8-2.8c0-1.6-1.2-2.8-2.8-2.8s-2.8,1.2-2.8,2.8C325.5,130.7,327.1,131.9,328.3,131.9"/>
	<path d="M342,131.1c1.2,0,2-0.8,2-2s-0.8-2-2-2s-2,0.8-2,2S340.8,131.1,342,131.1"/>
	<path d="M355.8,130.7c0.8,0,1.6-0.8,1.6-1.6s-0.8-1.6-1.6-1.6s-1.6,0.8-1.6,1.6C354.6,129.9,355,130.7,355.8,130.7"/>
	<path d="M369.5,129.9c0.4,0,0.8-0.4,0.8-0.8s-0.4-0.8-0.8-0.8c-0.4,0-0.8,0.4-0.8,0.8S369.1,129.9,369.5,129.9"/>
	<path d="M383.3,129.5c0.4,0,0.4-0.4,0.4-0.4c0-0.4-0.4-0.4-0.4-0.4c-0.4,0-0.4,0.4-0.4,0.4C382.9,129.5,382.9,129.5,383.3,129.5"/>
	<path d="M397,129.1L397,129.1L397,129.1C396.6,129.1,396.6,129.1,397,129.1C396.6,129.1,396.6,129.1,397,129.1"/>
	<path d="M20.8,142.8C21.2,142.8,21.2,142.8,20.8,142.8C21.2,142.8,21.2,142.8,20.8,142.8L20.8,142.8L20.8,142.8"/>
	<path d="M34.5,143.2C34.9,143.2,34.9,142.8,34.5,143.2c0.4-0.4,0-0.8,0-0.8S34.1,142.4,34.5,143.2
		C34.1,142.8,34.5,143.2,34.5,143.2"/>
	<path d="M48.2,143.6c0.4,0,0.8-0.4,0.8-0.8s-0.4-0.8-0.8-0.8c-0.4,0-0.8,0.4-0.8,0.8S47.8,143.6,48.2,143.6"/>
	<path d="M62,144c0.8,0,1.2-0.4,1.2-1.2s-0.4-1.2-1.2-1.2c-0.8,0-1.2,0.4-1.2,1.2C60.8,143.6,61.2,144,62,144"/>
	<path d="M75.7,144.8c1.2,0,2-0.8,2-2s-0.8-2-2-2s-2,0.8-2,2C73.7,143.6,74.5,144.8,75.7,144.8"/>
	<path d="M89.5,145.2c1.6,0,2.4-1.2,2.4-2.4c0-1.6-1.2-2.4-2.4-2.4c-1.6,0-2.4,1.2-2.4,2.4C86.6,144,87.8,145.2,89.5,145.2"/>
	<path d="M102.8,146c2,0,3.6-1.6,3.6-3.6c0-2-1.6-3.6-3.6-3.6s-3.6,1.6-3.6,3.6C99.6,144.8,101.2,146,102.8,146"/>
	<path d="M116.5,147.3c2.4,0,4.4-2,4.4-4.4c0-2.4-2-4.4-4.4-4.4s-4.4,2-4.4,4.4C112.5,145.2,114.1,147.3,116.5,147.3"/>
	<path d="M130.3,148.1c2.8,0,5.3-2.4,5.3-5.3c0-2.8-2.4-5.3-5.3-5.3c-2.8,0-5.3,2.4-5.3,5.3C125,145.6,127.5,148.1,130.3,148.1"/>
	<path d="M144,149.3c3.6,0,6.5-2.8,6.5-6.5c0-3.6-2.8-6.5-6.5-6.5c-3.6,0-6.5,2.8-6.5,6.5C137.6,146.4,140.4,149.3,144,149.3"/>
	<path d="M157.8,149.7c4,0,6.9-3.2,6.9-6.9c0-4-3.2-6.9-6.9-6.9c-4,0-6.9,3.2-6.9,6.9C150.5,146.9,153.7,149.7,157.8,149.7"/>
	<path d="M171.5,149.7c4,0,6.9-3.2,6.9-6.9c0-4-3.2-6.9-6.9-6.9c-4,0-6.9,3.2-6.9,6.9C164.2,146.9,167.5,149.7,171.5,149.7"/>
	<path d="M184.8,149.7c4,0,6.9-3.2,6.9-6.9c0-4-3.2-6.9-6.9-6.9c-4,0-6.9,3.2-6.9,6.9C178,146.9,181.2,149.7,184.8,149.7"/>
	<path d="M198.6,149.7c4,0,6.9-3.2,6.9-6.9c0-4-3.2-6.9-6.9-6.9c-4,0-6.9,3.2-6.9,6.9C191.7,146.9,194.9,149.7,198.6,149.7"/>
	<path d="M212.3,149.7c4,0,6.9-3.2,6.9-6.9c0-4-3.2-6.9-6.9-6.9c-4,0-6.9,3.2-6.9,6.9C205.4,146.9,208.3,149.7,212.3,149.7"/>
	<path d="M226.1,149.7c4,0,6.9-3.2,6.9-6.9c0-4-3.2-6.9-6.9-6.9c-4,0-6.9,3.2-6.9,6.9C218.8,146.9,222,149.7,226.1,149.7"/>
	<path d="M239.8,149.7c4,0,6.9-3.2,6.9-6.9c0-4-3.2-6.9-6.9-6.9c-4,0-6.9,3.2-6.9,6.9C232.5,146.9,235.8,149.7,239.8,149.7"/>
	<path d="M253.1,149.7c4,0,6.9-3.2,6.9-6.9c0-4-3.2-6.9-6.9-6.9c-4,0-6.9,3.2-6.9,6.9C246.3,146.9,249.5,149.7,253.1,149.7"/>
	<path d="M266.9,149.7c3.6,0,6.9-3.2,6.9-6.9c0-3.6-3.2-6.9-6.9-6.9c-3.6,0-6.9,3.2-6.9,6.9C260,146.4,263.2,149.7,266.9,149.7"/>
	<path d="M280.6,148.5c3.2,0,5.7-2.4,5.7-5.7c0-3.2-2.4-5.7-5.7-5.7c-3.2,0-5.7,2.4-5.7,5.7C275,146,277.4,148.5,280.6,148.5"/>
	<path d="M294.4,147.7c2.4,0,4.8-2,4.8-4.8c0-2.4-2-4.8-4.8-4.8c-2.4,0-4.8,2-4.8,4.8C289.5,145.2,291.5,147.7,294.4,147.7"/>
	<path d="M308.1,146.4c2,0,3.6-1.6,3.6-3.6c0-2-1.6-3.6-3.6-3.6s-3.6,1.6-3.6,3.6C304.1,144.8,306.1,146.4,308.1,146.4"/>
	<path d="M321.8,145.6c1.6,0,2.8-1.2,2.8-2.8c0-1.6-1.2-2.8-2.8-2.8s-2.8,1.2-2.8,2.8C319,144.4,320.2,145.6,321.8,145.6"/>
	<path d="M335.2,144.8c1.2,0,2-0.8,2-2s-0.8-2-2-2c-1.2,0-2,0.8-2,2S334,144.8,335.2,144.8"/>
	<path d="M348.9,144.4c0.8,0,1.6-0.8,1.6-1.6s-0.8-1.6-1.6-1.6s-1.6,0.8-1.6,1.6S348.1,144.4,348.9,144.4"/>
	<path d="M362.6,143.6c0.4,0,0.8-0.4,0.8-0.8s-0.4-0.8-0.8-0.8c-0.4,0-0.8,0.4-0.8,0.8S362.2,143.6,362.6,143.6"/>
	<path d="M376.4,143.2c0.4,0,0.4-0.4,0.4-0.4c0-0.4-0.4-0.4-0.4-0.4c-0.4,0-0.4,0.4-0.4,0.4C376,143.2,376,143.2,376.4,143.2"/>
	<path d="M390.1,142.8L390.1,142.8C390.1,142.8,390.1,142.4,390.1,142.8C389.7,142.4,389.7,142.8,390.1,142.8
		C389.7,142.8,389.7,142.8,390.1,142.8"/>
	<path d="M27.6,156.6L27.6,156.6L27.6,156.6L27.6,156.6L27.6,156.6"/>
	<path d="M41.4,156.6C41.8,156.6,41.8,156.6,41.4,156.6c0.4-0.4,0-0.4,0-0.4S41.4,156.1,41.4,156.6L41.4,156.6"/>
	<path d="M55.1,157c0.4,0,0.8-0.4,0.8-0.8s-0.4-0.8-0.8-0.8c-0.4,0-0.8,0.4-0.8,0.8C54.3,157,54.7,157,55.1,157"/>
	<path d="M68.9,157.4c0.4,0,1.2-0.4,1.2-1.2c0-0.4-0.4-1.2-1.2-1.2c-0.8,0-1.2,0.4-1.2,1.2S68,157.4,68.9,157.4"/>
	<path d="M82.6,158.2c0.8,0,1.6-0.8,1.6-1.6s-0.8-1.6-1.6-1.6c-0.8,0-1.6,0.8-1.6,1.6C80.6,157.4,81.4,158.2,82.6,158.2"/>
	<path d="M95.9,159c1.2,0,2.4-1.2,2.4-2.4s-1.2-2.4-2.4-2.4c-1.2,0-2.4,1.2-2.4,2.4C93.9,157.8,94.7,159,95.9,159"/>
	<path d="M109.7,159.4c1.6,0,3.2-1.2,3.2-3.2c0-1.6-1.2-3.2-3.2-3.2c-1.6,0-3.2,1.2-3.2,3.2C106.8,158.2,108.1,159.4,109.7,159.4"/>
	<path d="M123.4,160.6c2,0,4-1.6,4-4c0-2-1.6-4-4-4c-2,0-4,1.6-4,4C119.4,158.6,121.4,160.6,123.4,160.6"/>
	<path d="M137.2,161.4c2.8,0,4.8-2,4.8-4.8c0-2.8-2-4.8-4.8-4.8c-2.8,0-4.8,2-4.8,4.8C132.3,159,134.3,161.4,137.2,161.4"/>
	<path d="M150.9,162.2c3.2,0,5.7-2.4,5.7-5.7c0-3.2-2.4-5.7-5.7-5.7c-3.2,0-5.7,2.4-5.7,5.7C144.8,159.8,147.7,162.2,150.9,162.2"/>
	<path d="M164.6,163.4c3.6,0,6.9-3.2,6.9-6.9c0-3.6-3.2-6.9-6.9-6.9c-3.6,0-6.9,3.2-6.9,6.9C157.8,160.2,160.6,163.4,164.6,163.4"/>
	<path d="M178,163.4c4,0,6.9-3.2,6.9-6.9c0-4-3.2-6.9-6.9-6.9c-4,0-6.9,3.2-6.9,6.9C171.1,160.2,174.3,163.4,178,163.4"/>
	<path d="M191.7,163.4c4,0,6.9-3.2,6.9-6.9c0-4-3.2-6.9-6.9-6.9c-4,0-6.9,3.2-6.9,6.9C184.8,160.2,188.1,163.4,191.7,163.4"/>
	<path d="M205.4,163.4c4,0,6.9-3.2,6.9-6.9c0-4-3.2-6.9-6.9-6.9c-4,0-6.9,3.2-6.9,6.9C198.6,160.2,201.4,163.4,205.4,163.4"/>
	<path d="M219.2,163.4c4,0,6.9-3.2,6.9-6.9c0-4-3.2-6.9-6.9-6.9c-4,0-6.9,3.2-6.9,6.9C211.9,160.2,215.1,163.4,219.2,163.4"/>
	<path d="M232.9,163.4c4,0,6.9-3.2,6.9-6.9c0-4-3.2-6.9-6.9-6.9c-4,0-6.9,3.2-6.9,6.9C225.7,160.2,228.9,163.4,232.9,163.4"/>
	<path d="M246.7,163.4c4,0,6.9-3.2,6.9-6.9c0-4-3.2-6.9-6.9-6.9c-4,0-6.9,3.2-6.9,6.9C239.4,160.2,242.6,163.4,246.7,163.4"/>
	<path d="M260,163.4c4,0,6.9-3.2,6.9-6.9c0-4-3.2-6.9-6.9-6.9c-4,0-6.9,3.2-6.9,6.9C253.1,160.2,256.4,163.4,260,163.4"/>
	<path d="M273.7,163c3.6,0,6.5-2.8,6.5-6.5c0-3.6-2.8-6.5-6.5-6.5s-6.5,2.8-6.5,6.5C267.3,160.2,270.1,163,273.7,163"/>
	<path d="M287.5,162.2c3.2,0,5.7-2.4,5.7-5.7c0-3.2-2.4-5.7-5.7-5.7c-3.2,0-5.7,2.4-5.7,5.7C281.8,159.8,284.3,162.2,287.5,162.2"/>
	<path d="M301.2,161c2.4,0,4.4-2,4.4-4.4c0-2.4-2-4.4-4.4-4.4c-2.4,0-4.4,2-4.4,4.4C296.4,159,298.8,161,301.2,161"/>
	<path d="M315,160.2c2,0,3.6-1.6,3.6-3.6c0-2-1.6-3.6-3.6-3.6c-2,0-3.6,1.6-3.6,3.6C310.9,158.6,312.9,160.2,315,160.2"/>
	<path d="M328.3,159.4c1.6,0,2.8-1.2,2.8-2.8s-1.2-2.8-2.8-2.8s-2.8,1.2-2.8,2.8C325.5,158.2,327.1,159.4,328.3,159.4"/>
	<path d="M342,158.6c1.2,0,2-0.8,2-2s-0.8-2-2-2s-2,0.8-2,2S340.8,158.6,342,158.6"/>
	<path d="M355.8,158.2c0.8,0,1.6-0.8,1.6-1.6s-0.8-1.6-1.6-1.6s-1.6,0.8-1.6,1.6S355,158.2,355.8,158.2"/>
	<path d="M369.5,157.4c0.4,0,0.8-0.4,0.8-0.8s-0.4-0.8-0.8-0.8c-0.4,0-0.8,0.4-0.8,0.8S369.1,157.4,369.5,157.4"/>
	<path d="M383.3,157c0.4,0,0.4-0.4,0.4-0.4c0-0.4-0.4-0.4-0.4-0.4c-0.4,0-0.4,0.4-0.4,0.4C382.9,156.6,382.9,157,383.3,157"/>
	<path d="M397,156.6L397,156.6C397,156.1,397,156.1,397,156.6C396.6,156.1,396.6,156.1,397,156.6C396.6,156.6,396.6,156.6,397,156.6
		"/>
	<path d="M34.5,170.3C34.5,170.3,34.9,170.3,34.5,170.3C34.9,169.9,34.5,169.9,34.5,170.3C34.5,169.9,34.5,169.9,34.5,170.3
		L34.5,170.3"/>
	<path d="M48.2,170.7c0.4,0,0.4-0.4,0.4-0.4c0-0.4-0.4-0.4-0.4-0.4c-0.4,0-0.4,0.4-0.4,0.4C47.8,170.3,47.8,170.7,48.2,170.7"/>
	<path d="M62,171.1c0.4,0,0.8-0.4,0.8-0.8s-0.4-0.8-0.8-0.8c-0.4,0-0.8,0.4-0.8,0.8S61.6,171.1,62,171.1"/>
	<path d="M75.7,171.5c0.8,0,1.2-0.8,1.2-1.2c0-0.8-0.8-1.2-1.2-1.2c-0.8,0-1.2,0.8-1.2,1.2C74.1,171.1,74.9,171.5,75.7,171.5"/>
	<path d="M89.5,172.3c1.2,0,2-0.8,2-2c0-1.2-0.8-2-2-2s-2,0.8-2,2C87.4,171.5,88.3,172.3,89.5,172.3"/>
	<path d="M102.8,172.7c1.6,0,2.8-1.2,2.8-2.8c0-1.6-1.2-2.8-2.8-2.8c-1.6,0-2.8,1.2-2.8,2.8C100.4,171.5,101.6,172.7,102.8,172.7"/>
	<path d="M116.5,173.5c2,0,3.6-1.6,3.6-3.6c0-2-1.6-3.6-3.6-3.6s-3.6,1.6-3.6,3.6C113.3,171.9,114.5,173.5,116.5,173.5"/>
	<path d="M130.3,174.3c2.4,0,4.4-2,4.4-4.4c0-2.4-2-4.4-4.4-4.4c-2.4,0-4.4,2-4.4,4.4C125.8,172.3,127.9,174.3,130.3,174.3"/>
	<path d="M144,175.1c2.8,0,5.3-2.4,5.3-5.3c0-2.8-2.4-5.3-5.3-5.3c-2.8,0-5.3,2.4-5.3,5.3C138.8,173.1,141.2,175.1,144,175.1"/>
	<path d="M157.8,176c3.2,0,6.1-2.8,6.1-6.1c0-3.2-2.8-6.1-6.1-6.1c-3.2,0-6.1,2.8-6.1,6.1C151.7,173.1,154.5,176,157.8,176"/>
	<path d="M171.5,176.8c3.6,0,6.9-2.8,6.9-6.9c0-3.6-2.8-6.9-6.9-6.9c-3.6,0-6.9,2.8-6.9,6.9C164.6,173.9,167.5,176.8,171.5,176.8"/>
	<path d="M184.8,177.2c4,0,6.9-3.2,6.9-6.9c0-4-3.2-6.9-6.9-6.9c-4,0-6.9,3.2-6.9,6.9C178,173.9,181.2,177.2,184.8,177.2"/>
	<path d="M198.6,177.2c4,0,6.9-3.2,6.9-6.9c0-4-3.2-6.9-6.9-6.9c-4,0-6.9,3.2-6.9,6.9C191.7,173.9,194.9,177.2,198.6,177.2"/>
	<path d="M212.3,177.2c4,0,6.9-3.2,6.9-6.9c0-4-3.2-6.9-6.9-6.9c-4,0-6.9,3.2-6.9,6.9C205.4,173.9,208.3,177.2,212.3,177.2"/>
	<path d="M226.1,177.2c4,0,6.9-3.2,6.9-6.9c0-4-3.2-6.9-6.9-6.9c-4,0-6.9,3.2-6.9,6.9C218.8,173.9,222,177.2,226.1,177.2"/>
	<path d="M239.8,177.2c4,0,6.9-3.2,6.9-6.9c0-4-3.2-6.9-6.9-6.9c-4,0-6.9,3.2-6.9,6.9C232.5,173.9,235.8,177.2,239.8,177.2"/>
	<path d="M253.1,176.8c3.6,0,6.9-2.8,6.9-6.9c0-3.6-2.8-6.9-6.9-6.9c-3.6,0-6.9,2.8-6.9,6.9C246.7,173.9,249.5,176.8,253.1,176.8"/>
	<path d="M266.9,176c3.2,0,6.1-2.8,6.1-6.1c0-3.2-2.8-6.1-6.1-6.1c-3.2,0-6.1,2.8-6.1,6.1C261.2,173.5,263.6,176,266.9,176"/>
	<path d="M280.6,175.1c2.8,0,4.8-2.4,4.8-4.8c0-2.8-2.4-5.3-4.8-5.3c-2.8,0-4.8,2.4-4.8,5.3C275.8,173.1,277.8,175.1,280.6,175.1"/>
	<path d="M294.4,174.3c2.4,0,4-2,4-4c0-2.4-2-4-4-4c-2.4,0-4,2-4,4C290.3,172.3,291.9,174.3,294.4,174.3"/>
	<path d="M308.1,173.5c2,0,3.2-1.6,3.2-3.2c0-2-1.6-3.2-3.2-3.2c-2,0-3.2,1.6-3.2,3.2C304.5,171.9,306.1,173.5,308.1,173.5"/>
	<path d="M321.8,172.7c1.6,0,2.8-1.2,2.8-2.8c0-1.6-1.2-2.8-2.8-2.8s-2.8,1.2-2.8,2.8C319,171.5,320.2,172.7,321.8,172.7"/>
	<path d="M335.2,172.3c1.2,0,2-0.8,2-2c0-1.2-0.8-2-2-2c-1.2,0-2,0.8-2,2C333.1,171.5,334.4,172.3,335.2,172.3"/>
	<path d="M348.9,171.5c0.8,0,1.2-0.8,1.2-1.2c0-0.8-0.8-1.2-1.2-1.2c-0.8,0-1.2,0.8-1.2,1.2C347.7,171.1,348.1,171.5,348.9,171.5"/>
	<path d="M362.6,171.1c0.4,0,0.8-0.4,0.8-0.8s-0.4-0.8-0.8-0.8c-0.4,0-0.8,0.4-0.8,0.8C361.8,170.7,362.2,171.1,362.6,171.1"/>
	<path d="M376.4,170.7c0.4,0,0.4-0.4,0.4-0.4c0-0.4-0.4-0.4-0.4-0.4c-0.4,0-0.4,0.4-0.4,0.4S376,170.7,376.4,170.7"/>
	<path d="M390.1,170.3L390.1,170.3C390.1,169.9,390.1,169.9,390.1,170.3C389.7,169.9,389.7,169.9,390.1,170.3
		C389.7,170.3,389.7,170.3,390.1,170.3"/>
	<path d="M41.4,184L41.4,184C41.4,183.6,41.4,183.6,41.4,184C41.4,183.6,41.4,183.6,41.4,184L41.4,184"/>
	<path d="M55.1,184C55.1,184,55.5,184,55.1,184c0.4-0.4,0-0.4,0-0.4S54.7,183.6,55.1,184C54.7,184,55.1,184,55.1,184"/>
	<path d="M68.9,184.4c0.4,0,0.4-0.4,0.4-0.4c0-0.4-0.4-0.8-0.4-0.8c-0.4,0-0.8,0.4-0.8,0.8C68,184,68.5,184.4,68.9,184.4"/>
	<path d="M82.6,184.8c0.4,0,1.2-0.4,1.2-1.2c0-0.4-0.4-1.2-1.2-1.2c-0.4,0-1.2,0.4-1.2,1.2S81.8,184.8,82.6,184.8"/>
	<path d="M95.9,185.6c0.8,0,1.6-0.8,1.6-1.6c0-0.8-0.8-1.6-1.6-1.6c-0.8,0-1.6,0.8-1.6,1.6C94.7,184.8,95.1,185.6,95.9,185.6"/>
	<path d="M109.7,186.1c1.2,0,2-0.8,2-2s-0.8-2-2-2c-1.2,0-2,0.8-2,2S108.5,186.1,109.7,186.1"/>
	<path d="M123.4,186.9c1.6,0,2.8-1.2,2.8-2.8s-1.2-2.8-2.8-2.8c-1.6,0-2.8,1.2-2.8,2.8S121.8,186.9,123.4,186.9"/>
	<path d="M137.2,187.3c2,0,3.6-1.6,3.6-3.6s-1.6-3.6-3.6-3.6s-3.6,1.6-3.6,3.6S135.1,187.3,137.2,187.3"/>
	<path d="M150.9,188.1c2.4,0,4-2,4-4c0-2.4-2-4-4-4c-2.4,0-4,2-4,4C146.4,186.1,148.5,188.1,150.9,188.1"/>
	<path d="M164.6,188.9c2.8,0,4.8-2,4.8-4.8c0-2.8-2-4.8-4.8-4.8c-2.8,0-4.8,2-4.8,4.8C159.4,186.5,161.8,188.9,164.6,188.9"/>
	<path d="M178,189.3c3.2,0,5.7-2.4,5.7-5.7s-2.4-5.7-5.7-5.7c-3.2,0-5.7,2.4-5.7,5.7S175.1,189.3,178,189.3"/>
	<path d="M191.7,190.1c3.2,0,6.1-2.8,6.1-6.1c0-3.2-2.8-6.1-6.1-6.1s-6.1,2.8-6.1,6.1C185.6,187.3,188.5,190.1,191.7,190.1"/>
	<path d="M205.4,190.1c3.6,0,6.5-2.8,6.5-6.5s-2.8-6.5-6.5-6.5c-3.6,0-6.5,2.8-6.5,6.5S201.8,190.1,205.4,190.1"/>
	<path d="M219.2,190.5c3.6,0,6.5-2.8,6.5-6.5c0-3.6-2.8-6.5-6.5-6.5s-6.5,2.8-6.5,6.5C212.7,187.7,215.6,190.5,219.2,190.5"/>
	<path d="M232.9,190.5c3.6,0,6.5-2.8,6.5-6.5c0-3.6-2.8-6.5-6.5-6.5c-3.6,0-6.5,2.8-6.5,6.5C226.5,187.3,229.3,190.5,232.9,190.5"/>
	<path d="M246.7,190.1c3.2,0,6.1-2.8,6.1-6.1c0-3.2-2.8-6.1-6.1-6.1c-3.2,0-6.1,2.8-6.1,6.1C240.6,187.3,243,190.1,246.7,190.1"/>
	<path d="M260,189.7c3.2,0,5.7-2.4,5.7-5.7c0-3.2-2.4-5.7-5.7-5.7c-3.2,0-5.7,2.4-5.7,5.7C254.3,186.9,257.2,189.7,260,189.7"/>
	<path d="M273.7,188.9c2.8,0,4.8-2.4,4.8-4.8c0-2.8-2.4-5.3-4.8-5.3c-2.8,0-4.8,2.4-4.8,5.3C268.9,186.5,270.9,188.9,273.7,188.9"/>
	<path d="M287.5,188.1c2.4,0,4.4-2,4.4-4.4s-2-4.4-4.4-4.4s-4.4,2-4.4,4.4C283,186.5,285.1,188.1,287.5,188.1"/>
	<path d="M301.2,187.7c2,0,3.6-1.6,3.6-3.6s-1.6-3.6-3.6-3.6c-2,0-3.6,1.6-3.6,3.6S299.2,187.7,301.2,187.7"/>
	<path d="M315,186.9c1.6,0,2.8-1.2,2.8-2.8c0-1.6-1.2-2.8-2.8-2.8c-1.6,0-2.8,1.2-2.8,2.8C311.7,185.6,313.3,186.9,315,186.9"/>
	<path d="M328.3,186.1c1.2,0,2.4-1.2,2.4-2.4c0-1.2-1.2-2.4-2.4-2.4s-2.4,1.2-2.4,2.4C326.3,185.2,327.1,186.1,328.3,186.1"/>
	<path d="M342,185.6c0.8,0,1.6-0.8,1.6-1.6c0-0.8-0.8-1.6-1.6-1.6s-1.6,0.8-1.6,1.6S341.2,185.6,342,185.6"/>
	<path d="M355.8,184.8c0.8,0,1.2-0.4,1.2-1.2s-0.4-1.2-1.2-1.2s-1.2,0.4-1.2,1.2S355.4,184.8,355.8,184.8"/>
	<path d="M369.5,184.4c0.4,0,0.8-0.4,0.8-0.8s-0.4-0.8-0.8-0.8c-0.4,0-0.8,0.4-0.8,0.8C368.7,184.4,369.1,184.4,369.5,184.4"/>
	<path d="M383.3,184C383.3,184,383.7,184,383.3,184c0.4-0.4,0-0.8,0-0.8C382.9,183.6,382.9,183.6,383.3,184
		C382.9,184,382.9,184,383.3,184"/>
	<path d="M397,184L397,184C397,183.6,397,183.6,397,184C396.6,183.6,396.6,183.6,397,184C396.6,184,396.6,184,397,184"/>
	<path d="M48.2,197.8L48.2,197.8C48.2,197.4,48.2,197.4,48.2,197.8C48.2,197.4,48.2,197.4,48.2,197.8L48.2,197.8"/>
	<path d="M62,197.8C62,197.8,62.4,197.8,62,197.8c0.4-0.4,0.4-0.8,0-0.8C61.6,197.4,61.6,197.4,62,197.8
		C61.6,197.8,61.6,197.8,62,197.8"/>
	<path d="M75.7,198.2c0.4,0,0.8-0.4,0.8-0.8s-0.4-0.8-0.8-0.8s-0.8,0.4-0.8,0.8S75.3,198.2,75.7,198.2"/>
	<path d="M89.5,198.6c0.8,0,1.2-0.4,1.2-1.2c0-0.8-0.4-1.2-1.2-1.2c-0.8,0-1.2,0.4-1.2,1.2C88.3,198.2,88.7,198.6,89.5,198.6"/>
	<path d="M102.8,199c0.8,0,1.6-0.8,1.6-1.6c0-0.8-0.8-1.6-1.6-1.6c-0.8,0-1.6,0.8-1.6,1.6C101.2,198.2,102,199,102.8,199"/>
	<path d="M116.5,199.8c1.2,0,2-0.8,2-2c0-1.2-0.8-2-2-2c-1.2,0-2,0.8-2,2C114.5,199,115.3,199.8,116.5,199.8"/>
	<path d="M130.3,200.2c1.6,0,2.8-1.2,2.8-2.8c0-1.6-1.2-2.8-2.8-2.8c-1.6,0-2.8,1.2-2.8,2.8C127.5,199,128.7,200.2,130.3,200.2"/>
	<path d="M144,201c2,0,3.2-1.6,3.2-3.2c0-2-1.6-3.2-3.2-3.2c-2,0-3.2,1.6-3.2,3.2C140.8,199.4,142,201,144,201"/>
	<path d="M157.8,201.4c2,0,4-1.6,4-4c0-2.4-1.6-4-4-4c-2,0-4,1.6-4,4C153.7,199.8,155.3,201.4,157.8,201.4"/>
	<path d="M171.5,201.8c2.4,0,4.4-2,4.4-4.4c0-2.4-2-4.4-4.4-4.4c-2.4,0-4.4,2-4.4,4.4C167.1,199.8,169.1,201.8,171.5,201.8"/>
	<path d="M184.8,202.2c2.8,0,4.8-2,4.8-4.8c0-2.8-2-4.8-4.8-4.8c-2.8,0-4.8,2-4.8,4.8C180.4,200.2,182.4,202.2,184.8,202.2"/>
	<path d="M198.6,202.6c2.8,0,4.8-2.4,4.8-4.8c0-2.8-2.4-5.3-4.8-5.3c-2.8,0-4.8,2.4-4.8,5.3C193.7,200.2,195.7,202.6,198.6,202.6"/>
	<path d="M212.3,202.6c2.8,0,5.3-2.4,5.3-5.3c0-2.8-2.4-5.3-5.3-5.3c-2.8,0-5.3,2.4-5.3,5.3C207.1,200.2,209.5,202.6,212.3,202.6"/>
	<path d="M226.1,202.6c2.8,0,5.3-2.4,5.3-5.3c0-2.8-2.4-5.3-5.3-5.3c-2.8,0-5.3,2.4-5.3,5.3C220.8,200.2,223.2,202.6,226.1,202.6"/>
	<path d="M239.8,202.6c2.8,0,4.8-2,4.8-4.8c0-2.8-2-4.8-4.8-4.8c-2.8,0-4.8,2-4.8,4.8C234.9,200.6,237,202.6,239.8,202.6"/>
	<path d="M253.1,202.2c2.4,0,4.4-2,4.4-4.4c0-2.4-2-4.4-4.4-4.4s-4.4,2-4.4,4.4C248.7,200.2,250.7,202.2,253.1,202.2"/>
	<path d="M266.9,201.8c2.4,0,4-2,4-4c0-2.4-2-4-4-4c-2.4,0-4,2-4,4C262.8,199.8,264.9,201.8,266.9,201.8"/>
	<path d="M280.6,201c2,0,3.6-1.6,3.6-3.6c0-2-1.6-3.6-3.6-3.6c-2,0-3.6,1.6-3.6,3.6C277,199.4,278.6,201,280.6,201"/>
	<path d="M294.4,200.6c1.6,0,3.2-1.2,3.2-3.2c0-2-1.2-3.2-3.2-3.2c-1.6,0-3.2,1.2-3.2,3.2C291.1,199.4,292.7,200.6,294.4,200.6"/>
	<path d="M308.1,200.2c1.2,0,2.4-1.2,2.4-2.4c0-1.2-1.2-2.4-2.4-2.4s-2.4,1.2-2.4,2.4C305.7,199,306.5,200.2,308.1,200.2"/>
	<path d="M321.8,199.4c1.2,0,2-0.8,2-2c0-1.2-0.8-2-2-2s-2,0.8-2,2C319.8,198.6,320.6,199.4,321.8,199.4"/>
	<path d="M335.2,199c0.8,0,1.2-0.8,1.2-1.2c0-0.8-0.8-1.2-1.2-1.2c-0.8,0-1.2,0.8-1.2,1.2C334,198.2,334.4,199,335.2,199"/>
	<path d="M348.9,198.6c0.4,0,0.8-0.4,0.8-0.8s-0.4-0.8-0.8-0.8c-0.4,0-0.8,0.4-0.8,0.8C348.1,198.2,348.5,198.6,348.9,198.6"/>
	<path d="M362.6,198.2c0.4,0,0.4-0.4,0.4-0.4c0-0.4-0.4-0.4-0.4-0.4c-0.4,0-0.4,0.4-0.4,0.4S362.2,198.2,362.6,198.2"/>
	<path d="M376.4,197.8L376.4,197.8c0.4-0.4,0-0.4,0-0.4S376,197.4,376.4,197.8C376,197.8,376.4,197.8,376.4,197.8"/>
	<path d="M390.1,197.8L390.1,197.8C390.1,197.4,390.1,197.4,390.1,197.8C390.1,197.4,390.1,197.4,390.1,197.8L390.1,197.8"/>
	<path d="M68.9,211.5L68.9,211.5C68.9,211.1,68.9,211.1,68.9,211.5C68.9,211.1,68.5,211.1,68.9,211.5
		C68.5,211.5,68.9,211.5,68.9,211.5"/>
	<path d="M82.6,211.5C82.6,211.5,83,211.5,82.6,211.5c0.4-0.4,0.4-0.8,0-0.8C82.2,210.7,82.2,211.1,82.6,211.5
		C82.2,211.5,82.2,211.5,82.6,211.5"/>
	<path d="M95.9,211.9c0.4,0,0.8-0.4,0.8-0.8s-0.4-0.8-0.8-0.8c-0.4,0-0.8,0.4-0.8,0.8C95.5,211.5,95.5,211.9,95.9,211.9"/>
	<path d="M109.7,212.3c0.4,0,1.2-0.4,1.2-1.2c0-0.4-0.4-1.2-1.2-1.2c-0.8,0-1.2,0.4-1.2,1.2C108.9,211.9,109.3,212.3,109.7,212.3"/>
	<path d="M123.4,212.7c0.8,0,1.6-0.8,1.6-1.6c0-0.8-0.8-1.6-1.6-1.6c-0.8,0-1.6,0.8-1.6,1.6C121.8,211.9,122.6,212.7,123.4,212.7"/>
	<path d="M137.2,213.1c1.2,0,2-0.8,2-2s-0.8-2-2-2s-2,0.8-2,2S135.9,213.1,137.2,213.1"/>
	<path d="M150.9,213.5c1.2,0,2.4-1.2,2.4-2.4s-1.2-2.4-2.4-2.4c-1.2,0-2.4,1.2-2.4,2.4S149.3,213.5,150.9,213.5"/>
	<path d="M164.6,214.3c1.6,0,2.8-1.2,2.8-2.8c0-1.6-1.2-2.8-2.8-2.8c-1.6,0-2.8,1.2-2.8,2.8C161.4,212.7,163,214.3,164.6,214.3"/>
	<path d="M178,214.3c1.6,0,3.2-1.6,3.2-3.2s-1.6-3.2-3.2-3.2c-1.6,0-3.2,1.6-3.2,3.2C174.7,213.1,176.4,214.3,178,214.3"/>
	<path d="M191.7,214.7c2,0,3.6-1.6,3.6-3.6s-1.6-3.6-3.6-3.6s-3.6,1.6-3.6,3.6S189.7,214.7,191.7,214.7"/>
	<path d="M205.4,215.1c2,0,3.6-1.6,3.6-3.6s-1.6-3.6-3.6-3.6c-2,0-3.6,1.6-3.6,3.6C201.8,213.5,203.4,215.1,205.4,215.1"/>
	<path d="M219.2,215.1c2,0,4-1.6,4-4c0-2-1.6-4-4-4c-2,0-4,1.6-4,4S217.2,215.1,219.2,215.1"/>
	<path d="M232.9,215.1c2,0,4-1.6,4-4c0-2-1.6-4-4-4c-2,0-4,1.6-4,4S230.5,215.1,232.9,215.1"/>
	<path d="M246.7,215.1c2,0,3.6-1.6,3.6-3.6s-1.6-3.6-3.6-3.6s-3.6,1.6-3.6,3.6C242.6,213.5,244.2,215.1,246.7,215.1"/>
	<path d="M260,214.7c2,0,3.6-1.6,3.6-3.6s-1.6-3.6-3.6-3.6c-2,0-3.6,1.6-3.6,3.6S258.4,214.7,260,214.7"/>
	<path d="M273.7,214.3c1.6,0,3.2-1.6,3.2-3.2s-1.6-3.2-3.2-3.2s-3.2,1.6-3.2,3.2C270.5,213.1,272.1,214.3,273.7,214.3"/>
	<path d="M287.5,213.9c1.6,0,2.8-1.2,2.8-2.8c0-1.6-1.2-2.8-2.8-2.8s-2.8,1.2-2.8,2.8C284.7,212.7,285.9,213.9,287.5,213.9"/>
	<path d="M301.2,213.5c1.2,0,2.4-1.2,2.4-2.4c0-1.2-1.2-2.4-2.4-2.4s-2.4,1.2-2.4,2.4C298.8,212.7,300,213.5,301.2,213.5"/>
	<path d="M315,213.1c1.2,0,2-0.8,2-2s-0.8-2-2-2c-1.2,0-2,0.8-2,2C312.9,212.3,313.8,213.1,315,213.1"/>
	<path d="M328.3,212.7c0.8,0,1.6-0.8,1.6-1.6c0-0.8-0.8-1.6-1.6-1.6s-1.6,0.8-1.6,1.6C327.1,211.9,327.9,212.7,328.3,212.7"/>
	<path d="M342,212.3c0.4,0,1.2-0.4,1.2-1.2c0-0.4-0.4-1.2-1.2-1.2c-0.4,0-1.2,0.4-1.2,1.2C341.2,211.9,341.6,212.3,342,212.3"/>
	<path d="M355.8,211.9c0.4,0,0.8-0.4,0.8-0.8s-0.4-0.8-0.8-0.8c-0.4,0-0.8,0.4-0.8,0.8C355.4,211.5,355.4,211.9,355.8,211.9"/>
	<path d="M369.5,211.5C369.5,211.5,369.9,211.5,369.5,211.5c0.4-0.4,0-0.8,0-0.8C369.5,211.1,369.1,211.1,369.5,211.5
		C369.1,211.5,369.5,211.5,369.5,211.5"/>
	<path d="M383.3,211.5L383.3,211.5C383.3,211.1,383.3,211.1,383.3,211.5C383.3,211.1,383.3,211.1,383.3,211.5L383.3,211.5"/>
	<path d="M75.7,225.3C75.7,225.3,75.7,224.8,75.7,225.3C75.7,224.8,75.7,224.8,75.7,225.3C75.7,224.8,75.3,224.8,75.7,225.3
		C75.3,224.8,75.7,225.3,75.7,225.3"/>
	<path d="M89.5,225.3L89.5,225.3c0.4-0.4,0.4-0.8,0-0.8C89.1,224.4,89.1,224.8,89.5,225.3C89.1,225.3,89.1,225.3,89.5,225.3"/>
	<path d="M102.8,225.7c0.4,0,0.8-0.4,0.8-0.8s-0.4-0.8-0.8-0.8s-0.8,0.4-0.8,0.8C102.4,225.3,102.8,225.7,102.8,225.7"/>
	<path d="M116.5,226.1c0.4,0,0.8-0.4,0.8-0.8s-0.4-0.8-0.8-0.8s-0.8,0.4-0.8,0.8S116.1,226.1,116.5,226.1"/>
	<path d="M130.3,226.5c0.8,0,1.2-0.4,1.2-1.2c0-0.8-0.4-1.2-1.2-1.2c-0.8,0-1.2,0.4-1.2,1.2C129.1,226.1,129.5,226.5,130.3,226.5"/>
	<path d="M144,226.5c0.8,0,1.6-0.8,1.6-1.6c0-0.8-0.8-1.6-1.6-1.6c-0.8,0-1.6,0.8-1.6,1.6C142.4,226.1,143.2,226.5,144,226.5"/>
	<path d="M157.8,226.9c1.2,0,2-0.8,2-2c0-1.2-0.8-2-2-2s-2,0.8-2,2C155.7,226.1,156.5,226.9,157.8,226.9"/>
	<path d="M171.5,227.3c1.2,0,2.4-1.2,2.4-2.4c0-1.2-1.2-2.4-2.4-2.4c-1.2,0-2.4,1.2-2.4,2.4C169.1,226.1,169.9,227.3,171.5,227.3"/>
	<path d="M184.8,227.7c1.6,0,2.4-1.2,2.4-2.4c0-1.6-1.2-2.4-2.4-2.4c-1.6,0-2.4,1.2-2.4,2.4C182.4,226.5,183.6,227.7,184.8,227.7"/>
	<path d="M198.6,227.7c1.6,0,2.8-1.2,2.8-2.8c0-1.6-1.2-2.8-2.8-2.8c-1.6,0-2.8,1.2-2.8,2.8C195.7,226.5,197,227.7,198.6,227.7"/>
	<path d="M212.3,227.7c1.6,0,2.8-1.2,2.8-2.8c0-1.6-1.2-2.8-2.8-2.8c-1.6,0-2.8,1.2-2.8,2.8C209.5,226.5,210.7,227.7,212.3,227.7"/>
	<path d="M226.1,227.7c1.6,0,2.8-1.2,2.8-2.8c0-1.6-1.2-2.8-2.8-2.8c-1.6,0-2.8,1.2-2.8,2.8C223.2,226.5,224.4,227.7,226.1,227.7"/>
	<path d="M239.8,227.7c1.6,0,2.8-1.2,2.8-2.8c0-1.6-1.2-2.8-2.8-2.8c-1.6,0-2.8,1.2-2.8,2.8C237,226.5,238.2,227.7,239.8,227.7"/>
	<path d="M253.1,227.7c1.6,0,2.4-1.2,2.4-2.4c0-1.6-1.2-2.4-2.4-2.4c-1.6,0-2.4,1.2-2.4,2.4C250.7,226.5,251.9,227.7,253.1,227.7"/>
	<path d="M266.9,227.3c1.2,0,2.4-1.2,2.4-2.4c0-1.2-1.2-2.4-2.4-2.4c-1.2,0-2.4,1.2-2.4,2.4C264.4,226.1,265.7,227.3,266.9,227.3"/>
	<path d="M280.6,226.9c1.2,0,2-0.8,2-2c0-1.2-0.8-2-2-2c-1.2,0-2,0.8-2,2C278.6,226.1,279.4,226.9,280.6,226.9"/>
	<path d="M294.4,226.5c0.8,0,1.6-0.8,1.6-1.6c0-0.8-0.8-1.6-1.6-1.6s-1.6,0.8-1.6,1.6C292.7,226.1,293.5,226.5,294.4,226.5"/>
	<path d="M308.1,226.5c0.8,0,1.2-0.4,1.2-1.2c0-0.8-0.4-1.2-1.2-1.2s-1.2,0.4-1.2,1.2C306.9,226.1,307.3,226.5,308.1,226.5"/>
	<path d="M321.8,226.1c0.4,0,0.8-0.4,0.8-0.8s-0.4-0.8-0.8-0.8c-0.4,0-0.8,0.4-0.8,0.8C320.6,225.7,321,226.1,321.8,226.1"/>
	<path d="M335.2,225.7c0.4,0,0.8-0.4,0.8-0.8s-0.4-0.8-0.8-0.8c-0.4,0-0.8,0.4-0.8,0.8C334.8,225.3,335.2,225.7,335.2,225.7"/>
	<path d="M348.9,225.3C349.3,225.3,349.3,225.3,348.9,225.3c0.4-0.4,0.4-0.8,0-0.8C348.9,224.4,348.5,224.8,348.9,225.3
		C348.5,225.3,348.9,225.3,348.9,225.3"/>
	<path d="M362.6,225.3C362.6,225.3,362.6,224.8,362.6,225.3C362.6,224.8,362.6,224.8,362.6,225.3
		C362.6,224.8,362.6,224.8,362.6,225.3C362.6,224.8,362.6,225.3,362.6,225.3"/>
	<path d="M95.9,238.6C96.3,238.6,96.3,238.6,95.9,238.6C96.3,238.6,96.3,238.6,95.9,238.6L95.9,238.6L95.9,238.6"/>
	<path d="M109.7,239C110.1,239,110.1,239,109.7,239c0.4-0.4,0-0.4,0-0.4C109.7,238.2,109.7,238.6,109.7,239L109.7,239"/>
	<path d="M123.4,239c0.4,0,0.4-0.4,0.4-0.4c0-0.4-0.4-0.4-0.4-0.4c-0.4,0-0.4,0.4-0.4,0.4C123,239,123,239,123.4,239"/>
	<path d="M137.2,239.4c0.4,0,0.8-0.4,0.8-0.8s-0.4-0.8-0.8-0.8s-0.8,0.4-0.8,0.8C136.3,239,136.7,239.4,137.2,239.4"/>
	<path d="M150.9,239.8c0.4,0,0.8-0.4,0.8-0.8s-0.4-0.8-0.8-0.8s-0.8,0.4-0.8,0.8S150.1,239.8,150.9,239.8"/>
	<path d="M164.6,239.8c0.8,0,1.2-0.4,1.2-1.2c0-0.8-0.4-1.2-1.2-1.2c-0.8,0-1.2,0.4-1.2,1.2C163,239.4,163.8,239.8,164.6,239.8"/>
	<path d="M178,240.2c0.8,0,1.6-0.8,1.6-1.6c0-0.8-0.8-1.6-1.6-1.6c-0.8,0-1.6,0.8-1.6,1.6C176.8,239.4,177.2,240.2,178,240.2"/>
	<path d="M191.7,240.2c0.8,0,1.6-0.8,1.6-1.6c0-0.8-0.8-1.6-1.6-1.6c-0.8,0-1.6,0.8-1.6,1.6S190.9,240.2,191.7,240.2"/>
	<path d="M205.4,240.6c0.8,0,2-0.8,2-2s-0.8-2-2-2c-0.8,0-2,0.8-2,2S204.6,240.6,205.4,240.6"/>
	<path d="M219.2,240.6c1.2,0,2-0.8,2-2s-0.8-2-2-2s-2,0.8-2,2S218,240.6,219.2,240.6"/>
	<path d="M232.9,240.6c1.2,0,2-0.8,2-2s-0.8-2-2-2c-1.2,0-2,0.8-2,2S231.7,240.6,232.9,240.6"/>
	<path d="M246.7,240.6c1.2,0,2-0.8,2-2s-0.8-2-2-2s-2,0.8-2,2S245.5,240.6,246.7,240.6"/>
	<path d="M260,240.2c0.8,0,1.6-0.8,1.6-1.6c0-0.8-0.8-1.6-1.6-1.6c-0.8,0-1.6,0.8-1.6,1.6C258.4,239.8,259.2,240.2,260,240.2"/>
	<path d="M273.7,240.2c0.8,0,1.6-0.8,1.6-1.6c0-0.8-0.8-1.6-1.6-1.6c-0.8,0-1.6,0.8-1.6,1.6S272.9,240.2,273.7,240.2"/>
	<path d="M287.5,239.8c0.8,0,1.2-0.4,1.2-1.2c0-0.8-0.4-1.2-1.2-1.2s-1.2,0.4-1.2,1.2S286.7,239.8,287.5,239.8"/>
	<path d="M301.2,239.8c0.4,0,1.2-0.4,1.2-1.2c0-0.4-0.4-1.2-1.2-1.2c-0.4,0-1.2,0.4-1.2,1.2C300,239.4,300.4,239.8,301.2,239.8"/>
	<path d="M315,239.4c0.4,0,0.8-0.4,0.8-0.8s-0.4-0.8-0.8-0.8c-0.4,0-0.8,0.4-0.8,0.8S314.6,239.4,315,239.4"/>
	<path d="M328.3,239.4c0.4,0,0.4-0.4,0.4-0.4l-0.4-0.4c-0.4,0-0.4,0.4-0.4,0.4L328.3,239.4"/>
	<path d="M342,239C342.4,239,342.4,239,342,239c0.4-0.4,0-0.8,0-0.8C342,238.2,341.6,238.6,342,239C341.6,239,342,239,342,239"/>
	<path d="M355.8,239C355.8,239,356.2,238.6,355.8,239C356.2,238.6,355.8,238.6,355.8,239C355.8,238.6,355.8,238.6,355.8,239
		C355.8,238.6,355.8,239,355.8,239"/>
	<path d="M369.5,238.6L369.5,238.6L369.5,238.6L369.5,238.6L369.5,238.6"/>
	<path d="M102.8,252.3L102.8,252.3L102.8,252.3L102.8,252.3L102.8,252.3"/>
	<path d="M116.5,252.3C116.5,252.3,116.9,252.3,116.5,252.3C116.9,252.3,116.5,252.3,116.5,252.3L116.5,252.3L116.5,252.3"/>
	<path d="M130.3,252.7C130.3,252.7,130.7,252.3,130.3,252.7c0.4-0.4,0-0.4,0-0.4C130.3,251.9,129.9,252.3,130.3,252.7
		C129.9,252.3,130.3,252.7,130.3,252.7"/>
	<path d="M144,252.7c0.4,0,0.4-0.4,0.4-0.4c0-0.4-0.4-0.4-0.4-0.4c-0.4,0-0.4,0.4-0.4,0.4C143.6,252.7,143.6,252.7,144,252.7"/>
	<path d="M157.8,253.1c0.4,0,0.8-0.4,0.8-0.8c0-0.4-0.4-0.8-0.8-0.8s-0.8,0.4-0.8,0.8C157,252.7,157.4,253.1,157.8,253.1"/>
	<path d="M171.5,253.1c0.4,0,0.8-0.4,0.8-0.8c0-0.4-0.4-0.8-0.8-0.8s-0.8,0.4-0.8,0.8C170.7,252.7,170.7,253.1,171.5,253.1"/>
	<path d="M184.8,253.1c0.4,0,0.8-0.4,0.8-0.8c0-0.4-0.4-0.8-0.8-0.8s-0.8,0.4-0.8,0.8C184,252.7,184.4,253.1,184.8,253.1"/>
	<path d="M198.6,253.5c0.4,0,1.2-0.4,1.2-1.2c0-0.4-0.4-1.2-1.2-1.2c-0.4,0-1.2,0.4-1.2,1.2C197.8,253.1,198.2,253.5,198.6,253.5"/>
	<path d="M212.3,253.5c0.4,0,1.2-0.4,1.2-1.2c0-0.4-0.4-1.2-1.2-1.2c-0.8,0-1.2,0.4-1.2,1.2C211.1,253.1,211.5,253.5,212.3,253.5"/>
	<path d="M226.1,253.5c0.8,0,1.2-0.4,1.2-1.2c0-0.8-0.4-1.2-1.2-1.2c-0.8,0-1.2,0.4-1.2,1.2C224.8,253.1,225.2,253.5,226.1,253.5"/>
	<path d="M239.8,253.5c0.4,0,1.2-0.4,1.2-1.2c0-0.4-0.4-1.2-1.2-1.2c-0.8,0-1.2,0.4-1.2,1.2C238.6,253.1,239,253.5,239.8,253.5"/>
	<path d="M253.1,253.5c0.4,0,1.2-0.4,1.2-1.2c0-0.4-0.4-1.2-1.2-1.2c-0.4,0-1.2,0.4-1.2,1.2C252.3,252.7,252.7,253.5,253.1,253.5"/>
	<path d="M266.9,253.1c0.4,0,0.8-0.4,0.8-0.8c0-0.4-0.4-0.8-0.8-0.8s-0.8,0.4-0.8,0.8C266.1,252.7,266.5,253.1,266.9,253.1"/>
	<path d="M280.6,253.1c0.4,0,0.8-0.4,0.8-0.8c0-0.4-0.4-0.8-0.8-0.8c-0.4,0-0.8,0.4-0.8,0.8C279.8,252.7,280.2,253.1,280.6,253.1"/>
	<path d="M294.4,252.7c0.4,0,0.4-0.4,0.4-0.4l-0.4-0.4c-0.4,0-0.4,0.4-0.4,0.4S293.9,252.7,294.4,252.7"/>
	<path d="M308.1,252.7C308.1,252.7,308.5,252.7,308.1,252.7c0.4-0.4,0.4-0.8,0-0.8S307.7,252.3,308.1,252.7
		C307.7,252.7,307.7,252.7,308.1,252.7"/>
	<path d="M321.8,252.7C321.8,252.7,321.8,252.3,321.8,252.7c0.4-0.4,0-0.4,0-0.4C321.4,251.9,321.4,252.3,321.8,252.7
		C321.4,252.3,321.4,252.7,321.8,252.7"/>
	<path d="M335.2,252.3C335.6,252.3,335.6,252.3,335.2,252.3C335.6,252.3,335.6,252.3,335.2,252.3L335.2,252.3L335.2,252.3"/>
	<path d="M137.2,266.1L137.2,266.1L137.2,266.1L137.2,266.1L137.2,266.1"/>
	<path d="M150.9,266.1L150.9,266.1L150.9,266.1C150.9,266.1,150.5,266.1,150.9,266.1C150.5,266.1,150.9,266.1,150.9,266.1"/>
	<path d="M164.6,266.1L164.6,266.1C164.6,266.1,164.6,265.7,164.6,266.1C164.2,265.7,164.2,266.1,164.6,266.1
		C164.2,266.1,164.2,266.1,164.6,266.1"/>
	<path d="M178,266.5C178.4,266.5,178.4,266.1,178,266.5c0.4-0.4,0-0.4,0-0.4C178,265.7,178,266.1,178,266.5
		C178,266.1,178,266.5,178,266.5"/>
	<path d="M191.7,266.5C192.1,266.5,192.1,266.1,191.7,266.5c0.4-0.4,0.4-0.8,0-0.8C191.7,265.7,191.3,265.7,191.7,266.5
		C191.3,266.1,191.7,266.5,191.7,266.5"/>
	<path d="M205.4,266.5c0.4,0,0.4-0.4,0.4-0.4c0-0.4-0.4-0.4-0.4-0.4c-0.4,0-0.4,0.4-0.4,0.4C205,266.5,205,266.5,205.4,266.5"/>
	<path d="M219.2,266.5c0.4,0,0.4-0.4,0.4-0.4c0-0.4-0.4-0.4-0.4-0.4c-0.4,0-0.4,0.4-0.4,0.4C218.8,266.5,218.8,266.5,219.2,266.5"/>
	<path d="M232.9,266.5c0.4,0,0.4-0.4,0.4-0.4c0-0.4-0.4-0.4-0.4-0.4c-0.4,0-0.4,0.4-0.4,0.4C232.1,266.5,232.5,266.5,232.9,266.5"/>
	<path d="M246.7,266.5c0.4,0,0.4-0.4,0.4-0.4c0-0.4-0.4-0.4-0.4-0.4c-0.4,0-0.4,0.4-0.4,0.4C245.9,266.5,246.3,266.5,246.7,266.5"/>
	<path d="M260,266.5c0.4,0,0.4-0.4,0.4-0.4c0-0.4-0.4-0.4-0.4-0.4c-0.4,0-0.4,0.4-0.4,0.4C259.6,266.5,260,266.5,260,266.5"/>
	<path d="M273.7,266.5C274.1,266.5,274.1,266.1,273.7,266.5c0.4-0.4,0.4-0.8,0-0.8C273.7,265.7,273.3,265.7,273.7,266.5
		C273.3,266.1,273.7,266.5,273.7,266.5"/>
	<path d="M287.5,266.5C287.5,266.5,287.9,266.1,287.5,266.5c0.4-0.4,0-0.4,0-0.4C287.5,265.7,287.1,266.1,287.5,266.5
		C287.1,266.1,287.5,266.5,287.5,266.5"/>
	<path d="M301.2,266.1L301.2,266.1C301.2,266.1,301.2,265.7,301.2,266.1C301.2,265.7,300.8,266.1,301.2,266.1
		C300.8,266.1,301.2,266.1,301.2,266.1"/>
	<path d="M315,266.1L315,266.1L315,266.1C315,266.1,314.6,266.1,315,266.1C314.6,266.1,315,266.1,315,266.1"/>
	<path d="M328.3,266.1C328.7,266.1,328.7,266.1,328.3,266.1C328.7,266.1,328.7,266.1,328.3,266.1L328.3,266.1L328.3,266.1"/>
	<path d="M171.5,279.8L171.5,279.8L171.5,279.8C171.1,279.8,171.1,279.8,171.5,279.8C171.1,279.8,171.1,279.8,171.5,279.8"/>
	<path d="M184.8,279.8C184.8,279.8,185.2,279.8,184.8,279.8C185.2,279.8,184.8,279.8,184.8,279.8L184.8,279.8L184.8,279.8"/>
	<path d="M198.6,279.8L198.6,279.8L198.6,279.8L198.6,279.8L198.6,279.8"/>
	<path d="M212.3,279.8L212.3,279.8L212.3,279.8L212.3,279.8L212.3,279.8"/>
	<path d="M226.1,279.8L226.1,279.8L226.1,279.8L226.1,279.8L226.1,279.8"/>
	<path d="M239.8,279.8L239.8,279.8L239.8,279.8C239.4,279.8,239.4,279.8,239.8,279.8C239.4,279.8,239.4,279.8,239.8,279.8"/>
	<path d="M253.1,279.8C253.5,279.8,253.5,279.8,253.1,279.8C253.5,279.8,253.5,279.8,253.1,279.8L253.1,279.8L253.1,279.8"/>
	<path d="M266.9,279.8L266.9,279.8L266.9,279.8L266.9,279.8L266.9,279.8"/>
	<path d="M280.6,279.8L280.6,279.8L280.6,279.8L280.6,279.8L280.6,279.8"/>
	<path class="st0" d="M71.3,295.6l-4-46.5l-57-2.8l4.4-201.7l293.8,28.3l-64.7,178.6l-119.2-0.4L71.3,295.6z M30.1,227.7l55,2.8
		l2.4,26.3l29.9-25.1h112.7l51.7-142.2L33.3,65.6L30.1,227.7z"/>
	<polygon class="st1" points="28.4,50.7 24.8,232.5 80.6,235.4 83.8,271.3 125.4,237 241.4,237 299.6,76.5 	"/>
	<g>
		<g>
			<g>
				<g>
					<defs>
						<polygon id="SVGID_1_" points="24.8,232.5 80.6,235.4 83.8,271.3 125.4,237 241.4,237 299.6,76.5 28.4,50.7 						"/>
					</defs>
					<clipPath id="SVGID_2_">
						<use xlink:href="#SVGID_1_"  style="overflow:visible;"/>
					</clipPath>
					<path class="st2" d="M74.1,174.3c7.7,0.8,15.4,2,22.6,2.8c15.4,2,29.1-1.6,41.6-10.1c15.8-10.5,23.4-41.6,1.6-57.4
						c-13.3-9.7-24.2-21.8-26.3-38.8c-1.2-9.3-2-19-2-28.3c0-4.8,2.4-7.7,7.7-7.3c0.4,0,0.4,0,0.8,0c19.4,0.4,17.4-0.4,17.4,15.8
						c0,8.1,0.8,16.6,4,24.7c3.2,8.1,8.1,10.1,15.8,6.5c5.7-2.4,11.3-5.7,17.4-8.1c15-6.1,28.3-3.2,40.8,7.3
						c17.4,14.5,25.5,33.1,24.2,55c-1.6,27.9-10.9,52.9-30.3,73.5c-17,17.8-38,27.5-64.3,22.6c-9.7-2-18.2-6.9-26.3-12.1
						c-8.9-5.7-17.4-11.7-26.3-17c-17.8-10.1-29.5-5.3-33.5,14.1c-1.2,4.8-1.6,10.1-1.6,15.4c-0.4,4.8-2.4,6.9-7.3,6.9
						c-18.6-0.4-19.4,0.8-17.4-17.4c1.2-9.7,2.4-19,6.9-27.9C46.2,180.4,57.1,172.7,74.1,174.3 M234.1,134.3
						c0.4-12.5-2-24.7-9.7-35.2c-16.2-22.6-32.7-29.5-56.6-16.6c-2.4,1.2-4.8,2.4-7.3,3.6c-11.7,5.7-19.8,2-24.2-10.1
						c-3.2-8.5-4.4-17.8-4-26.7c0.4-6.5-1.6-8.5-8.5-8.9c-8.1-0.4-6.1,4.8-6.1,8.9c-1.6,23.4,6.5,42.8,26.7,57.4
						c1.2,0.8,2,2,3.2,2.8c9.7,8.5,12.9,19,11.3,30.7c-2.8,21.8-17.8,36.4-41.6,41.2c-12.5,2.4-24.7,0.4-37.2-1.6
						c-19.4-3.2-31.1,3.2-37.6,21c-2.8,8.1-4.4,16.6-4.8,25.1c0,2.8-2.4,7.7,4.4,7.7c4.8,0,10.5,1.6,10.1-6.9
						c-0.4-6.5,1.6-12.9,4-19c5.3-12.9,16.2-17.8,30.3-12.9c3.6,1.2,7.3,3.2,10.5,5.3c9.3,6.1,18.6,12.1,28.3,18.2
						c23.4,14.5,48.5,13.7,69.5-2.4C221.2,195.3,231.7,166.7,234.1,134.3"/>
				</g>
			</g>
		</g>
		<g>
			<g>
				<g>
					<defs>
						<polygon id="SVGID_3_" points="24.8,232.5 80.6,235.4 83.8,271.3 125.4,237 241.4,237 299.6,76.5 28.4,50.7 						"/>
					</defs>
					<clipPath id="SVGID_4_">
						<use xlink:href="#SVGID_3_"  style="overflow:visible;"/>
					</clipPath>
					<path class="st3" d="M171.1,187.7c0,2-1.2,2.8-2.8,2.8c-2,0-3.2-1.2-3.2-3.2c0-1.6,1.2-2.8,2.8-2.8
						C169.9,184.8,170.7,186.1,171.1,187.7"/>
				</g>
			</g>
		</g>
		<g>
			<g>
				<g>
					<defs>
						<polygon id="SVGID_5_" points="24.8,232.5 80.6,235.4 83.8,271.3 125.4,237 241.4,237 299.6,76.5 28.4,50.7 						"/>
					</defs>
					<clipPath id="SVGID_6_">
						<use xlink:href="#SVGID_5_"  style="overflow:visible;"/>
					</clipPath>
					<path class="st4" d="M206.3,184.4c-0.4,2.8-1.6,4.4-4.4,4c-2.8,0-4.4-1.6-4.4-4.4c0-2.4,1.6-4,4.4-4
						C204.2,180,205.9,181.6,206.3,184.4"/>
				</g>
			</g>
		</g>
		<g>
			<g>
				<g>
					<defs>
						<polygon id="SVGID_7_" points="24.8,232.5 80.6,235.4 83.8,271.3 125.4,237 241.4,237 299.6,76.5 28.4,50.7 						"/>
					</defs>
					<clipPath id="SVGID_8_">
						<use xlink:href="#SVGID_7_"  style="overflow:visible;"/>
					</clipPath>
					<path class="st5" d="M171.5,176.4c0,2-1.2,2.8-2.8,2.8c-2,0-3.2-1.2-3.2-3.2c0-1.6,1.2-2.8,2.8-2.8
						C170.3,173.5,171.5,174.7,171.5,176.4"/>
				</g>
			</g>
		</g>
		<g>
			<g>
				<g>
					<defs>
						<polygon id="SVGID_9_" points="24.8,232.5 80.6,235.4 83.8,271.3 125.4,237 241.4,237 299.6,76.5 28.4,50.7 						"/>
					</defs>
					<clipPath id="SVGID_10_">
						<use xlink:href="#SVGID_9_"  style="overflow:visible;"/>
					</clipPath>
					<path class="st6" d="M160.6,209.5c0,2-1.2,2.8-2.8,2.8c-2,0-3.2-1.2-3.2-3.2c0-1.6,1.2-2.8,2.8-2.8
						C159.4,206.3,160.2,207.5,160.6,209.5"/>
				</g>
			</g>
		</g>
		<g>
			<g>
				<g>
					<defs>
						<polygon id="SVGID_11_" points="24.8,232.5 80.6,235.4 83.8,271.3 125.4,237 241.4,237 299.6,76.5 28.4,50.7 						"/>
					</defs>
					<clipPath id="SVGID_12_">
						<use xlink:href="#SVGID_11_"  style="overflow:visible;"/>
					</clipPath>
					<path class="st7" d="M182,195.8c0,2-1.2,2.8-2.8,2.8c-2,0-3.2-1.2-3.2-3.2c0-1.6,1.2-2.8,2.8-2.8
						C180.8,192.9,182,194.1,182,195.8"/>
				</g>
			</g>
		</g>
		<g>
			<g>
				<g>
					<defs>
						<polygon id="SVGID_13_" points="24.8,232.5 80.6,235.4 83.8,271.3 125.4,237 241.4,237 299.6,76.5 28.4,50.7 						"/>
					</defs>
					<clipPath id="SVGID_14_">
						<use xlink:href="#SVGID_13_"  style="overflow:visible;"/>
					</clipPath>
					<path class="st8" d="M204.6,163.4c0,2-1.2,2.8-2.8,2.8c-2,0-3.2-1.2-3.2-3.2c0-1.6,1.2-2.8,2.8-2.8
						C203.4,160.6,204.6,161.4,204.6,163.4"/>
				</g>
			</g>
		</g>
		<g>
			<g>
				<g>
					<defs>
						<polygon id="SVGID_15_" points="24.8,232.5 80.6,235.4 83.8,271.3 125.4,237 241.4,237 299.6,76.5 28.4,50.7 						"/>
					</defs>
					<clipPath id="SVGID_16_">
						<use xlink:href="#SVGID_15_"  style="overflow:visible;"/>
					</clipPath>
					<path class="st9" d="M158.6,223.6c-1.6,0-2.8,0-4.4-0.4c-21.4-3.2-27.5-8.5-34.8-14.5l-1.6-1.2c-4-3.2-6.1-7.7-5.7-12.5
						c0.8-5.3,4.8-10.1,10.9-12.5c3.6-1.6,8.1-2.8,12.9-4c21.4-5.7,25.1-24.7,26.3-31.9c0.4-1.2,0.4-2,0.4-2.4
						c0.4-1.2,1.6-5.3,23.8-6.5l0,0l0,0c0.8,0,21.4,0.8,31.1,12.5c4.4,5.3,5.7,11.7,3.6,19.4c-3.2,13.7-12.9,28.3-25.9,39.2
						C183.6,218.8,170.3,224,158.6,223.6 M168.3,146.4c0,0.4-0.4,0.8-0.4,1.6c-1.2,7.3-5.7,29.5-30.3,36c-4.4,1.2-8.5,2.4-12.1,4
						c-4,1.6-7.3,4.8-7.7,8.5c-0.4,2.8,0.8,5.3,3.6,7.7l1.6,1.2c6.9,5.7,12.1,10.1,31.9,12.9c23.4,3.6,55.8-22.2,61.8-49.7
						c1.2-6.1,0.4-10.9-2.8-15c-7.3-9.3-24.7-10.5-26.7-10.5C178.4,143.6,169.9,145.2,168.3,146.4 M167.9,146.4L167.9,146.4z"/>
				</g>
			</g>
		</g>
		<g>
			<g>
				<g>
					<defs>
						<polygon id="SVGID_17_" points="24.8,232.5 80.6,235.4 83.8,271.3 125.4,237 241.4,237 299.6,76.5 28.4,50.7 						"/>
					</defs>
					<clipPath id="SVGID_18_">
						<use xlink:href="#SVGID_17_"  style="overflow:visible;"/>
					</clipPath>
					<path class="st10" d="M194.1,176c-0.4-0.8-0.8-1.2-1.6-1.2l-0.4-2h0.4c1.2-0.4,1.6-1.6,1.2-2.8c-0.4-1.2-2-1.6-2.8-1.2
						c-0.4,0.4-0.8,0.8-1.2,1.2l0,0l-2.4-0.4c0-0.4,0-0.8,0-1.2c-0.4-0.8-1.6-1.6-2.4-1.2l-0.4-1.2l0,0c1.2-0.4,2-2,1.2-3.6
						c-0.4-0.4-0.4-0.8-0.8-1.2l0.4-1.2c0.4,0.4,0.8,0.4,1.2,0h0.4c0.4-0.4,0.8-0.8,1.2-1.2c0-0.4,0-1.2,0-1.6
						c-0.4-0.4-0.8-0.8-1.2-1.2c-0.4-0.4-1.2-0.4-1.6,0s-0.8,0.8-1.2,1.2c-0.4,0.4,0,1.2,0,1.6s0.4,0.4,0.4,0.8l-0.4,1.2
						c-0.8-0.4-1.2-0.4-2,0s-1.2,1.2-1.6,2h-1.2c0,0,0-0.4,0-0.8c-0.4-1.6-2-2.4-3.6-2.4c-1.6,0.4-2.4,1.6-2.4,3.2
						c0.4,1.6,2,2.4,3.6,2.4c1.2,0,2-1.2,2.4-2l1.2,0.4c0,0.4,0,0.8,0.4,0.8c0.4,1.2,1.6,1.6,2.8,1.6l0.4,1.2
						c-0.4,0.4-0.8,0.8-0.8,1.2c-0.4,0.4,0,1.2,0,1.6s0.4,0.4,0.4,0.4l-1.2,2c-0.4,0-1.2,0-1.6,0c-0.4,0.4-0.8,0.8-1.2,1.2
						c0,0.4,0,1.2,0,1.6c0.4,0.4,0.8,0.8,1.2,1.2c0.4,0,0.8,0,1.2,0h0.4l0,0l2,1.6c-0.4,0.4-0.4,1.2,0,2c0.4,0.4,0.8,0.8,1.2,1.2
						c0.4,0,0.8,0,1.2,0h0.4c0.8-0.4,1.2-1.2,1.2-2l2-0.8c0.4,0.4,0.4,0.4,0.8,0.4s0.8,0,1.2,0h0.4c0.4-0.4,0.8-0.8,1.2-1.2
						C194.1,177.2,194.1,176.4,194.1,176 M190.9,174.7c-0.4,0.4-0.8,0.8-1.2,1.2c-0.4,0.4,0,1.2,0,1.6l0,0l-2,0.8l0,0
						c-0.4-0.4-0.8-0.8-1.2-1.2c-0.4-0.4-1.2-0.4-1.6,0c-0.4,0-0.4,0.4-0.8,0.4l-1.6-1.6c0.8-0.8,0.8-1.6,0.4-2.4
						c0-0.4-0.4-0.8-0.8-0.8l1.2-2c0.4,0.4,1.2,0.4,1.6,0.4h0.4c0.4-0.4,0.8-0.8,1.2-1.2l2.4,0.4c0,0.4,0,0.8,0.4,0.8
						c0.4,0.4,0.8,0.8,1.2,1.2c0.4,0,0.4,0,0.8,0l0.4,2C191.3,174.7,191.3,174.7,190.9,174.7"/>
				</g>
			</g>
		</g>
		<g>
			<g>
				<g>
					<defs>
						<polygon id="SVGID_19_" points="24.8,232.5 80.6,235.4 83.8,271.3 125.4,237 241.4,237 299.6,76.5 28.4,50.7 						"/>
					</defs>
					<clipPath id="SVGID_20_">
						<use xlink:href="#SVGID_19_"  style="overflow:visible;"/>
					</clipPath>
					<path class="st11" d="M155.3,188.9c-0.8,0-1.2,0.8-1.6,1.6h-2.4v-0.4c-0.4-1.2-1.6-2-2.8-1.6c-1.2,0.4-2,1.6-1.6,2.8
						c0,0.4,0.4,1.2,1.2,1.6l0,0l-0.8,2c-0.4,0-0.8,0-1.2,0c-1.2,0.4-1.6,1.2-1.6,2h-1.2l0,0c-0.4-1.6-2-2.4-3.6-2
						c-0.4,0-0.8,0.4-1.2,0.8l-1.2-0.8c0.4-0.4,0.4-0.8,0.4-1.2v-0.4c0-0.4-0.4-1.2-1.2-1.6c-0.4-0.4-1.2-0.4-1.6-0.4
						s-1.2,0.4-1.6,0.8s-0.4,1.2-0.4,1.6s0.4,1.2,1.2,1.6c0.4,0.4,1.2,0.4,1.6,0.4s0.4,0,0.8-0.4l1.2,0.8c-0.4,0.4-0.4,1.2-0.4,2
						c0.4,0.8,0.8,1.6,1.6,2l-0.4,1.2c-0.4,0-0.4,0-0.8,0c-1.6,0-3.2,1.2-2.8,2.8c0,1.6,1.6,2.8,3.2,2.8c1.6,0,3.2-1.2,2.8-2.8
						c0-1.2-0.8-2-1.6-2.8l0.4-1.2c0.4,0,0.8,0,1.2,0c1.2-0.4,2-1.2,2-2.4h1.2c0,0.4,0.4,0.8,0.8,1.2c0.4,0.4,1.2,0.4,1.6,0.4
						s0.4,0,0.8-0.4l2,1.6c-0.4,0.4-0.4,1.2-0.4,1.6c0,0.4,0.4,1.2,1.2,1.6c0.4,0.4,1.2,0.4,1.6,0.4s1.2-0.4,1.6-0.8
						s0.4-0.8,0.4-1.2v-0.4l0,0l2-1.6c0.4,0.4,1.2,0.8,2,0.4c0.4,0,1.2-0.4,1.6-0.8s0.4-0.8,0.4-1.2v-0.4c-0.4-0.8-1.2-1.6-2-1.6
						l-0.4-2.4c0.4,0,0.4-0.4,0.8-0.8s0.4-0.8,0.4-1.2v-0.4c0-0.4-0.4-1.2-1.2-1.6C156.5,188.9,156.1,188.5,155.3,188.9
						 M153.7,191.3c0,0.4,0.4,1.2,1.2,1.6c0.4,0.4,1.2,0.4,1.6,0.4l0,0l0.4,2l0,0c-0.4,0-1.2,0.4-1.6,0.8s-0.4,1.2-0.4,1.6
						s0,0.4,0.4,0.8l-2,1.2c-0.4-0.8-1.6-1.2-2.4-1.2c-0.4,0-0.8,0.4-1.2,0.4l-2-1.6c0.4-0.4,0.4-0.8,0.4-1.6v-0.4
						c0-0.4-0.4-1.2-1.2-1.2l0.8-2c0.4,0,0.8,0,1.2,0c0.4,0,1.2-0.4,1.6-0.8c0-0.4,0.4-0.4,0.4-0.8h2.4
						C153.7,191.3,153.7,191.3,153.7,191.3"/>
				</g>
			</g>
		</g>
	</g>
</g>
</svg>
