<svg enable-background="new 0 0 400 300" viewBox="0 0 400 300" xmlns="http://www.w3.org/2000/svg"><path d="m268.9 18c0-.4 0-.4 0 0 .4-.4.4-.4 0 0 .4 0 .4 0 0 0"/><path d="m251.8 18c0-.4 0-.4 0 0 .5-.4.5-.4 0 0 .5 0 .5 0 0 0"/><path d="m234.8 18c-.4-.4 0-.4 0-.4.4 0 .4 0 0 .4.4 0 .4 0 0 0"/><path d="m218.2 18c-.4 0-.4 0 0 0-.4-.4 0-.9 0-.9z"/><path d="m201.1 18c-.4 0-.4 0 0 0-.4-.4 0-.9 0-.9z"/><path d="m184.1 18c-.4 0-.4 0 0 0-.4-.4 0-.9 0-.9z"/><path d="m167.1 18c-.5 0-.5 0 0 0-.4-.4 0-.4 0-.4s0 0 0 .4z"/><path d="m150 18c-.4 0-.4 0 0 0-.4-.4-.4-.4 0 0 0-.4 0-.4 0 0z"/><path d="m133 18c-.5 0-.5 0 0 0-.5-.4-.5-.4 0 0 0-.4 0-.4 0 0z"/><path d="m328.5 35.1s.4 0 0 0z"/><path d="m311.5 35.1c0-.4 0-.4 0 0 .4-.4.4-.4 0 0 .4 0 .4 0 0 0"/><path d="m294.4 35.5c-.4 0-.4 0-.4-.4s0-.4.4-.4.4 0 .4.4c.1 0 .1.4-.4.4"/><path d="m277.4 35.5c-.4 0-.9-.4-.9-.9s.4-.9.9-.9.9.4.9.9-.5.9-.9.9"/><path d="m260.4 35.9c-.4 0-.9-.4-.9-.9s.4-.9.9-.9.9.4.9.9c.3.5-.1.9-.9.9"/><path d="m243.3 35.9c-.4 0-1.3-.4-1.3-1.3 0-.4.4-1.3 1.3-1.3.4 0 1.3.4 1.3 1.3s-.4 1.3-1.3 1.3"/><path d="m226.3 35.9c-.9 0-1.3-.4-1.3-1.3s.4-1.3 1.3-1.3 1.3.4 1.3 1.3c-.1.9-.5 1.3-1.3 1.3"/><path d="m209.7 35.9c-.9 0-1.3-.4-1.3-1.3s.4-1.3 1.3-1.3 1.3.4 1.3 1.3c-.5.9-.9 1.3-1.3 1.3"/><path d="m192.6 35.9c-.4 0-1.3-.4-1.3-1.3 0-.4.4-1.3 1.3-1.3.4 0 1.3.4 1.3 1.3-.4.9-.9 1.3-1.3 1.3"/><path d="m175.6 35.9c-.4 0-.9-.4-.9-.9s.4-.9.9-.9c.4 0 .9.4.9.9s-.5.9-.9.9"/><path d="m158.5 35.9c-.4 0-.9-.4-.9-.9s.4-.9.9-.9c.4 0 .9.4.9.9-.4.5-.4.9-.9.9"/><path d="m141.5 35.5c-.4 0-.4-.4-.4-.4 0-.4.4-.4.4-.4.4 0 .4.4.4.4z"/><path d="m124.5 35.1c-.5 0-.5 0 0 0-.4-.4 0-.9 0-.9z"/><path d="m107.4 35.1c-.4 0-.4 0 0 0-.4-.4-.4-.4 0 0 0-.4 0-.4 0 0z"/><path d="m337 52.1c.5-.4.5 0 0 0 .5 0 .5 0 0 0"/><path d="m320 52.5c-.4 0-.4 0-.4-.4s0-.4.4-.4.4 0 .4.4 0 .4-.4.4"/><path d="m303 52.5c-.4 0-.9-.4-.9-.9s.4-.9.9-.9c.4 0 .9.4.9.9-.1.9-.5.9-.9.9"/><path d="m285.9 53c-.4 0-1.3-.4-1.3-1.3 0-.4.4-1.3 1.3-1.3.4 0 1.3.4 1.3 1.3 0 .8-.4 1.3-1.3 1.3"/><path d="m268.9 53.4c-.9 0-1.7-.9-1.7-1.7s.9-1.7 1.7-1.7c.9 0 1.7.9 1.7 1.7 0 1.3-.9 1.7-1.7 1.7"/><path d="m251.8 53.8c-.9 0-1.7-.9-1.7-1.7s.9-1.7 1.7-1.7c.9 0 1.7.9 1.7 1.7.5.9-.4 1.7-1.7 1.7"/><path d="m234.8 54.2c-1.3 0-2.1-.9-2.1-2.1s.9-2.1 2.1-2.1 2.1.9 2.1 2.1c.4 1.3-.8 2.1-2.1 2.1"/><path d="m218.2 54.2c-1.3 0-2.6-.9-2.6-2.6 0-1.3.9-2.6 2.6-2.6 1.3 0 2.6.9 2.6 2.6-.5 1.8-1.3 2.6-2.6 2.6"/><path d="m201.1 54.2c-1.3 0-2.6-1.3-2.6-2.6s1.3-2.6 2.6-2.6 2.6 1.3 2.6 2.6c-.4 1.8-1.3 2.6-2.6 2.6"/><path d="m184.1 54.2c-1.3 0-2.1-.9-2.1-2.1s.9-2.1 2.1-2.1c1.3 0 2.1.9 2.1 2.1s-.8 2.1-2.1 2.1"/><path d="m167.1 54.2c-1.3 0-2.1-.9-2.1-2.1s.9-2.1 2.1-2.1c1.3 0 2.1.9 2.1 2.1s-1.3 2.1-2.1 2.1"/><path d="m150 53.8c-.9 0-1.7-.9-1.7-1.7s.9-1.7 1.7-1.7c.9 0 1.7.9 1.7 1.7 0 .9-.8 1.7-1.7 1.7"/><path d="m133 53.4c-.9 0-1.3-.4-1.3-1.3s.4-1.3 1.3-1.3 1.3.4 1.3 1.3-.9 1.3-1.3 1.3"/><path d="m115.9 53c-.4 0-.9-.4-.9-.9s.4-.9.9-.9c.4 0 .9.4.9.9s-.4.9-.9.9"/><path d="m98.9 52.5c-.4 0-.4-.4-.4-.4 0-.4.4-.4.4-.4.4 0 .4.4.4.4z"/><path d="m81.8 52.1c-.4 0-.4 0 0 0-.4-.4 0-.4 0-.4s0 0 0 .4z"/><path d="m362.6 69.2c.4-.5.4 0 0 0 .4 0 .4 0 0 0"/><path d="m345.6 69.6c-.4 0-.4-.4-.4-.4 0-.4.4-.4.4-.4.4 0 .4.4.4.4.4 0 0 .4-.4.4"/><path d="m328.5 70c-.4 0-.9-.4-.9-.9 0-.4.4-.9.9-.9.4 0 .9.4.9.9.4.5 0 .9-.9.9"/><path d="m311.5 70.4c-.9 0-1.7-.9-1.7-1.7 0-.9.9-1.7 1.7-1.7.9 0 1.7.9 1.7 1.7 0 .9-.9 1.7-1.7 1.7"/><path d="m294.4 71.3c-1.3 0-2.1-.9-2.1-2.1 0-1.3.9-2.1 2.1-2.1s2.1.9 2.1 2.1c.1 1.2-.8 2.1-2.1 2.1"/><path d="m277.4 71.7c-1.3 0-2.6-1.3-2.6-2.6s1.3-2.6 2.6-2.6 2.6 1.3 2.6 2.6c.4 1.3-.9 2.6-2.6 2.6"/><path d="m260.4 72.1c-1.7 0-3.4-1.3-3.4-3.4s1.3-3.4 3.4-3.4c1.7 0 3.4 1.3 3.4 3.4s-1.3 3.4-3.4 3.4"/><path d="m243.3 72.6c-2.1 0-3.4-1.7-3.4-3.4 0-2.1 1.7-3.4 3.4-3.4 2.1 0 3.4 1.7 3.4 3.4.4 1.7-1.3 3.4-3.4 3.4"/><path d="m226.3 73c-2.1 0-3.8-1.7-3.8-3.8s1.7-3.8 3.8-3.8 3.8 1.7 3.8 3.8-1.7 3.8-3.8 3.8"/><path d="m209.7 73c-2.1 0-3.8-1.7-3.8-3.8s1.7-3.8 3.8-3.8 3.8 1.7 3.8 3.8-1.7 3.8-3.8 3.8"/><path d="m192.6 73c-2.1 0-3.8-1.7-3.8-3.8s1.7-3.8 3.8-3.8 3.8 1.7 3.8 3.8-2.1 3.8-3.8 3.8"/><path d="m175.6 72.6c-2.1 0-3.4-1.7-3.4-3.4 0-2.1 1.7-3.4 3.4-3.4 2.1 0 3.4 1.7 3.4 3.4s-1.7 3.4-3.4 3.4"/><path d="m158.5 72.1c-1.7 0-3-1.3-3-3s1.3-3 3-3 3 1.3 3 3c0 1.8-1.7 3-3 3"/><path d="m141.5 71.7c-1.3 0-2.6-1.3-2.6-2.6s1.3-2.6 2.6-2.6 2.6 1.3 2.6 2.6c-.5 1.3-1.3 2.6-2.6 2.6"/><path d="m124.5 70.9c-1.3 0-2.1-.9-2.1-2.1 0-1.3.9-2.1 2.1-2.1 1.3 0 2.1.9 2.1 2.1-.4 1.2-1.3 2.1-2.1 2.1"/><path d="m107.4 70.4c-.9 0-1.3-.4-1.3-1.3s.4-1.3 1.3-1.3 1.3.4 1.3 1.3-.9 1.3-1.3 1.3"/><path d="m90.4 70c-.4 0-.9-.4-.9-.9 0-.4.4-.9.9-.9.4 0 .9.4.9.9-.5.5-.5.9-.9.9"/><path d="m73.3 69.6c-.4 0-.4-.4 0 0-.4-.4 0-.9 0-.9s.5 0 0 .9c.5-.4 0 0 0 0"/><path d="m56.3 69.2c-.4 0 0 0 0 0z"/><path d="m371.1 86.2c.4 0 .4 0 0 0"/><path d="m354.1 86.6c-.4 0-.4 0-.4-.4s.4-.4.4-.4c.4 0 .4 0 .4.4 0 0 0 .4-.4.4"/><path d="m337 87.1c-.4 0-.9-.4-.9-.9 0-.4.4-.9.9-.9s.9.4.9.9c0 .4 0 .9-.9.9"/><path d="m320 87.9c-.9 0-1.7-.9-1.7-1.7 0-.9.9-1.7 1.7-1.7.9 0 1.7.9 1.7 1.7 0 .9-.4 1.7-1.7 1.7"/><path d="m303 88.8c-1.3 0-2.6-1.3-2.6-2.6s1.3-2.6 2.6-2.6 2.6 1.3 2.6 2.6c-.1 1.3-.9 2.6-2.6 2.6"/><path d="m285.9 89.2c-1.7 0-3.4-1.3-3.4-3.4 0-1.7 1.3-3.4 3.4-3.4 1.7 0 3.4 1.3 3.4 3.4s-1.3 3.4-3.4 3.4"/><path d="m268.9 90c-2.1 0-3.8-1.7-3.8-3.8s1.7-3.8 3.8-3.8 3.8 1.7 3.8 3.8c.4 2.1-1.3 3.8-3.8 3.8"/><path d="m251.8 90.9c-2.6 0-4.7-2.1-4.7-4.7s2.1-4.7 4.7-4.7 4.7 2.1 4.7 4.7c.4 2.6-1.7 4.7-4.7 4.7"/><path d="m234.8 91.3c-3 0-5.1-2.6-5.1-5.1 0-3 2.6-5.1 5.1-5.1 3 0 5.1 2.6 5.1 5.1.4 3-2.1 5.1-5.1 5.1"/><path d="m218.2 91.7c-3 0-5.5-2.6-5.5-5.5 0-3 2.6-5.5 5.5-5.5 3 0 5.5 2.6 5.5 5.5 0 3-2.5 5.5-5.5 5.5"/><path d="m201.1 91.7c-3 0-6-2.6-6-6s2.6-6 6-6c3 0 6 2.6 6 6s-3 6-6 6"/><path d="m184.1 91.7c-3 0-5.5-2.6-5.5-5.5 0-3 2.6-5.5 5.5-5.5 3 0 5.5 2.6 5.5 5.5 0 3-2.5 5.5-5.5 5.5"/><path d="m167.1 91.3c-3 0-5.1-2.1-5.1-5.1s2.1-5.1 5.1-5.1 5.1 2.1 5.1 5.1c0 2.6-2.6 5.1-5.1 5.1"/><path d="m150 90.5c-2.6 0-4.7-2.1-4.7-4.7s2.1-4.7 4.7-4.7 4.7 2.1 4.7 4.7c-.4 3-2.6 4.7-4.7 4.7"/><path d="m133 90c-2.1 0-3.8-1.7-3.8-3.8s1.7-3.8 3.8-3.8 3.8 1.7 3.8 3.8c-.4 2.1-2.1 3.8-3.8 3.8"/><path d="m115.9 89.2c-1.7 0-3-1.3-3-3s1.3-3 3-3 3 1.3 3 3c-.4 1.7-1.7 3-3 3"/><path d="m98.9 88.3c-1.3 0-2.1-.9-2.1-2.1 0-1.3.9-2.1 2.1-2.1 1.3 0 2.1.9 2.1 2.1 0 1.3-1.3 2.1-2.1 2.1"/><path d="m81.8 87.5c-.9 0-1.3-.9-1.3-1.3 0-.9.9-1.3 1.3-1.3.9 0 1.3.9 1.3 1.3 0 .9-.4 1.3-1.3 1.3"/><path d="m64.8 87.1c-.4 0-.9-.4-.9-.9 0-.4.4-.9.9-.9.4 0 .9.4.9.9 0 .4-.5.9-.9.9"/><path d="m47.8 86.6c-.5 0-.5-.4 0 0-.4-.4 0-.9 0-.9s0 .1 0 .9c0-.4 0 0 0 0"/><path d="m379.6 103.7c-.4-.4 0-.9 0-.9.5 0 .5 0 0 .9.5-.5.5 0 0 0"/><path d="m362.6 104.1c-.4 0-.9-.4-.9-.9 0-.4.4-.9.9-.9s.9.4.9.9-.5.9-.9.9"/><path d="m345.6 104.9c-.9 0-1.7-.9-1.7-1.7s.9-1.7 1.7-1.7c.9 0 1.7.9 1.7 1.7s-.9 1.7-1.7 1.7"/><path d="m328.5 105.8c-1.3 0-2.6-1.3-2.6-2.6s1.3-2.6 2.6-2.6 2.6 1.3 2.6 2.6-.9 2.6-2.6 2.6"/><path d="m311.5 106.6c-1.7 0-3.4-1.7-3.4-3.4s1.7-3.4 3.4-3.4 3.4 1.7 3.4 3.4-1.3 3.4-3.4 3.4"/><path d="m294.4 107.5c-2.6 0-4.3-2.1-4.3-4.3 0-2.6 2.1-4.3 4.3-4.3 2.6 0 4.3 2.1 4.3 4.3.4 2.6-1.7 4.3-4.3 4.3"/><path d="m277.4 108.8c-3 0-5.5-2.6-5.5-5.5 0-3 2.6-5.5 5.5-5.5 3 0 5.5 2.6 5.5 5.5s-2.5 5.5-5.5 5.5"/><path d="m260.4 109.6c-3.4 0-6.4-3-6.4-6.4s3-6.4 6.4-6.4 6.4 3 6.4 6.4c-.1 3.4-2.6 6.4-6.4 6.4"/><path d="m243.3 110.5c-3.8 0-7.2-3.4-7.2-7.2s3.4-7.2 7.2-7.2 7.2 3.4 7.2 7.2-2.9 7.2-7.2 7.2"/><path d="m226.3 110.9c-4.3 0-7.7-3.4-7.7-7.7s3.4-7.7 7.7-7.7 7.7 3.4 7.7 7.7c.4 4.3-3.5 7.7-7.7 7.7"/><path d="m209.7 110.9c-4.3 0-7.7-3.4-7.7-7.7s3.4-7.7 7.7-7.7 7.7 3.4 7.7 7.7c-.1 4.3-3.5 7.7-7.7 7.7"/><path d="m192.6 110.9c-4.3 0-7.7-3.4-7.7-7.7s3.4-7.7 7.7-7.7 7.7 3.4 7.7 7.7-3.9 7.7-7.7 7.7"/><path d="m175.6 110.1c-3.8 0-6.8-3-6.8-6.8s3-6.8 6.8-6.8 6.8 3 6.8 6.8-3 6.8-6.8 6.8"/><path d="m158.5 109.2c-3.4 0-6-2.6-6-6s2.6-6 6-6 6 2.6 6 6-3 6-6 6"/><path d="m141.5 108.4c-3 0-5.1-2.1-5.1-5.1s2.1-5.1 5.1-5.1 5.1 2.1 5.1 5.1c-.4 2.5-2.6 5.1-5.1 5.1"/><path d="m124.5 107.1c-2.1 0-3.8-1.7-3.8-3.8s1.7-3.8 3.8-3.8 3.8 1.7 3.8 3.8-1.7 3.8-3.8 3.8"/><path d="m107.4 106.2c-1.7 0-3-1.3-3-3s1.3-3 3-3 3 1.3 3 3-1.3 3-3 3"/><path d="m90.4 105.4c-1.3 0-2.1-.9-2.1-2.1 0-1.3.9-2.1 2.1-2.1 1.3 0 2.1.9 2.1 2.1s-1.3 2.1-2.1 2.1"/><path d="m73.3 104.5c-.9 0-1.3-.4-1.3-1.3s.4-1.3 1.3-1.3 1.3.4 1.3 1.3-.8 1.3-1.3 1.3"/><path d="m56.3 103.7c-.4 0-.9-.4-.9-.9 0-.4.4-.9.9-.9.4 0 .9.4.9.9-.1.4-.5.9-.9.9"/><path d="m39.2 103.2c-.4 0-.4 0 0 0-.4 0-.4-.4 0 0 0-.4 0 0 0 0z"/><path d="m388.2 120.3c.4 0 .4 0 0 0"/><path d="m371.1 120.7c-.4 0-.4-.4-.4-.4 0-.4.4-.4.4-.4.4 0 .4.4.4.4.5.4 0 .4-.4.4"/><path d="m354.1 121.6c-.9 0-1.3-.4-1.3-1.3s.4-1.3 1.3-1.3 1.3.4 1.3 1.3c0 .8-.5 1.3-1.3 1.3"/><path d="m337 122.4c-1.3 0-2.1-.9-2.1-2.1 0-1.3.9-2.1 2.1-2.1s2.1.9 2.1 2.1c.1 1.3-.8 2.1-2.1 2.1"/><path d="m320 123.3c-1.7 0-3-1.3-3-3s1.3-3 3-3 3 1.3 3 3c.4 1.7-1.3 3-3 3"/><path d="m303 124.5c-2.1 0-4.3-1.7-4.3-4.3 0-2.1 1.7-4.3 4.3-4.3 2.1 0 4.3 1.7 4.3 4.3-.1 2.2-1.8 4.3-4.3 4.3"/><path d="m285.9 125.8c-3 0-5.5-2.6-5.5-5.5 0-3 2.6-5.5 5.5-5.5 3 0 5.5 2.6 5.5 5.5.1 3-2.5 5.5-5.5 5.5"/><path d="m268.9 127.1c-3.8 0-6.8-3-6.8-6.8s3-6.8 6.8-6.8 6.8 3 6.8 6.8-3 6.8-6.8 6.8"/><path d="m251.8 128.4c-4.3 0-8.1-3.4-8.1-8.1 0-4.3 3.4-8.1 8.1-8.1 4.3 0 8.1 3.4 8.1 8.1 0 4.2-3.4 8.1-8.1 8.1"/><path d="m234.8 129.2c-4.7 0-8.9-3.8-8.9-8.9 0-4.7 3.8-8.9 8.9-8.9 4.7 0 8.9 3.8 8.9 8.9 0 4.7-3.8 8.9-8.9 8.9"/><path d="m218.2 129.2c-4.7 0-8.9-3.8-8.9-8.9 0-4.7 3.8-8.9 8.9-8.9 4.7 0 8.9 3.8 8.9 8.9-.4 4.7-4.2 8.9-8.9 8.9"/><path d="m201.1 129.2c-4.7 0-8.9-3.8-8.9-8.9 0-4.7 3.8-8.9 8.9-8.9 4.7 0 8.9 3.8 8.9 8.9-.3 4.7-4.2 8.9-8.9 8.9"/><path d="m184.1 129.2c-4.7 0-8.9-3.8-8.9-8.9 0-4.7 3.8-8.9 8.9-8.9 4.7 0 8.9 3.8 8.9 8.9-.4 4.7-4.2 8.9-8.9 8.9"/><path d="m167.1 129.2c-4.7 0-8.9-3.8-8.9-8.9 0-4.7 3.8-8.9 8.9-8.9 4.7 0 8.9 3.8 8.9 8.9-.4 4.7-4.3 8.9-8.9 8.9"/><path d="m150 128c-4.3 0-7.7-3.4-7.7-7.7s3.4-7.7 7.7-7.7 7.7 3.4 7.7 7.7-3.9 7.7-7.7 7.7"/><path d="m133 126.7c-3.4 0-6.4-3-6.4-6.4s3-6.4 6.4-6.4 6.4 3 6.4 6.4-3 6.4-6.4 6.4"/><path d="m115.9 125.4c-2.6 0-5.1-2.1-5.1-5.1 0-2.6 2.1-5.1 5.1-5.1 2.6 0 5.1 2.1 5.1 5.1-.4 2.5-2.5 5.1-5.1 5.1"/><path d="m98.9 124.1c-2.1 0-3.8-1.7-3.8-3.8s1.7-3.8 3.8-3.8 3.8 1.7 3.8 3.8-1.7 3.8-3.8 3.8"/><path d="m81.8 122.8c-1.3 0-2.6-1.3-2.6-2.6s1.3-2.6 2.6-2.6 2.6 1.3 2.6 2.6c0 1.4-1.3 2.6-2.6 2.6"/><path d="m64.8 122c-.9 0-1.7-.9-1.7-1.7 0-.9.9-1.7 1.7-1.7.9 0 1.7.9 1.7 1.7s-.8 1.7-1.7 1.7"/><path d="m47.8 121.1c-.4 0-.9-.4-.9-.9 0-.4.4-.9.9-.9.4 0 .9.4.9.9-.1.5-.5.9-.9.9"/><path d="m30.7 120.7c-.4 0-.4-.4 0 0-.4-.4 0-.9 0-.9s.5.5 0 .9c.5-.4 0 0 0 0"/><path d="m396.7 137.7c0-.4 0-.4 0 0 .4-.4.4-.4 0 0 .4-.4.4 0 0 0"/><path d="m379.6 138.2c-.4 0-.9-.4-.9-.9s.4-.9.9-.9.9.4.9.9-.4.9-.9.9"/><path d="m362.6 138.6c-.9 0-1.3-.4-1.3-1.3s.4-1.3 1.3-1.3 1.3.9 1.3 1.3-.4 1.3-1.3 1.3"/><path d="m345.6 139.9c-1.3 0-2.6-.9-2.6-2.6 0-1.3.9-2.6 2.6-2.6 1.3 0 2.6.9 2.6 2.6-.1 1.3-1.4 2.6-2.6 2.6"/><path d="m328.5 140.7c-1.7 0-3.4-1.7-3.4-3.4s1.7-3.4 3.4-3.4 3.4 1.7 3.4 3.4-1.3 3.4-3.4 3.4"/><path d="m311.5 142c-2.6 0-4.7-2.1-4.7-4.7s2.1-4.7 4.7-4.7 4.7 2.1 4.7 4.7c.4 2.6-1.7 4.7-4.7 4.7"/><path d="m294.4 143.7c-3.4 0-6-2.6-6-6s2.6-6 6-6 6 2.6 6 6-2.6 6-6 6"/><path d="m277.4 145c-4.3 0-7.7-3.4-7.7-7.7s3.4-7.7 7.7-7.7 7.7 3.4 7.7 7.7-3.4 7.7-7.7 7.7"/><path d="m260.4 146.3c-4.7 0-8.9-3.8-8.9-8.9 0-4.7 3.8-8.9 8.9-8.9 4.7 0 8.9 3.8 8.9 8.9 0 4.6-3.8 8.9-8.9 8.9"/><path d="m243.3 146.3c-4.7 0-8.9-3.8-8.9-8.9 0-4.7 3.8-8.9 8.9-8.9 4.7 0 8.9 3.8 8.9 8.9.1 4.6-3.8 8.9-8.9 8.9"/><path d="m226.3 146.3c-4.7 0-8.9-3.8-8.9-8.9 0-4.7 3.8-8.9 8.9-8.9 4.7 0 8.9 3.8 8.9 8.9 0 4.6-3.8 8.9-8.9 8.9"/><path d="m209.7 146.3c-4.7 0-8.9-3.8-8.9-8.9 0-4.7 3.8-8.9 8.9-8.9 4.7 0 8.9 3.8 8.9 8.9-.4 4.6-4.3 8.9-8.9 8.9"/><path d="m192.6 146.3c-4.7 0-8.9-3.8-8.9-8.9 0-4.7 3.8-8.9 8.9-8.9 4.7 0 8.9 3.8 8.9 8.9-.4 4.6-4.2 8.9-8.9 8.9"/><path d="m175.6 146.3c-4.7 0-8.9-3.8-8.9-8.9 0-4.7 3.8-8.9 8.9-8.9 4.7 0 8.9 3.8 8.9 8.9-.4 4.6-4.2 8.9-8.9 8.9"/><path d="m158.5 146.3c-4.7 0-8.9-3.8-8.9-8.9 0-4.7 3.8-8.9 8.9-8.9 4.7 0 8.9 3.8 8.9 8.9-.3 4.6-4.2 8.9-8.9 8.9"/><path d="m141.5 144.6c-3.8 0-7.2-3.4-7.2-7.2s3-7.2 7.2-7.2c3.8 0 7.2 3.4 7.2 7.2-.4 3.8-3.4 7.2-7.2 7.2"/><path d="m124.5 142.9c-3 0-5.5-2.6-5.5-5.5 0-3 2.6-5.5 5.5-5.5 3 0 5.5 2.6 5.5 5.5s-2.6 5.5-5.5 5.5"/><path d="m107.4 141.6c-2.6 0-4.3-2.1-4.3-4.3 0-2.6 2.1-4.3 4.3-4.3 2.6 0 4.3 2.1 4.3 4.3 0 2.6-2.2 4.3-4.3 4.3"/><path d="m90.4 140.3c-1.7 0-3-1.3-3-3s1.3-3 3-3 3 1.3 3 3-1.3 3-3 3"/><path d="m73.3 139.5c-1.3 0-2.1-.9-2.1-2.1 0-1.3.9-2.1 2.1-2.1s2.1.9 2.1 2.1c-.4 1.2-1.2 2.1-2.1 2.1"/><path d="m56.3 138.6c-.4 0-1.3-.4-1.3-1.3 0-.4.4-1.3 1.3-1.3.4 0 1.3.4 1.3 1.3-.5.9-.9 1.3-1.3 1.3"/><path d="m39.2 137.7c-.4 0-.4-.4-.4-.4 0-.4.4-.4.4-.4.4 0 .4.4.4.4.1.4-.4.4-.4.4"/><path d="m22.2 137.3c-.4 0 0 0 0 0z"/><path d="m388.2 154.8c-.4-.4 0-.4 0-.4.4 0 .4 0 0 .4.4-.4.4 0 0 0"/><path d="m371.1 155.2c-.4 0-.9-.4-.9-.9s.4-.9.9-.9.9.4.9.9-.5.9-.9.9"/><path d="m354.1 156.1c-.9 0-1.7-.9-1.7-1.7s.9-1.7 1.7-1.7c.9 0 1.7.9 1.7 1.7s-.9 1.7-1.7 1.7"/><path d="m337 156.9c-1.3 0-2.6-1.3-2.6-2.6s1.3-2.6 2.6-2.6 2.6 1.3 2.6 2.6-.9 2.6-2.6 2.6"/><path d="m320 158.2c-2.1 0-3.4-1.7-3.4-3.4 0-2.1 1.7-3.4 3.4-3.4 2.1 0 3.4 1.7 3.4 3.4.4 1.7-1.3 3.4-3.4 3.4"/><path d="m303 159.5c-2.6 0-5.1-2.1-5.1-5.1 0-2.6 2.1-5.1 5.1-5.1 2.6 0 5.1 2.1 5.1 5.1s-2.2 5.1-5.1 5.1"/><path d="m285.9 160.8c-3.4 0-6.4-3-6.4-6.4s3-6.4 6.4-6.4 6.4 3 6.4 6.4-2.6 6.4-6.4 6.4"/><path d="m268.9 162.5c-4.3 0-8.1-3.4-8.1-8.1 0-4.3 3.4-8.1 8.1-8.1 4.3 0 8.1 3.4 8.1 8.1s-3.4 8.1-8.1 8.1"/><path d="m251.8 163.3c-4.7 0-8.9-3.8-8.9-8.9s3.8-8.9 8.9-8.9c4.7 0 8.9 3.8 8.9 8.9s-3.8 8.9-8.9 8.9"/><path d="m234.8 163.3c-4.7 0-8.9-3.8-8.9-8.9s3.8-8.9 8.9-8.9c4.7 0 8.9 3.8 8.9 8.9s-3.8 8.9-8.9 8.9"/><path d="m218.2 163.3c-4.7 0-8.9-3.8-8.9-8.9s3.8-8.9 8.9-8.9c4.7 0 8.9 3.8 8.9 8.9s-4.2 8.9-8.9 8.9"/><path d="m201.1 163.3c-4.7 0-8.9-3.8-8.9-8.9s3.8-8.9 8.9-8.9c4.7 0 8.9 3.8 8.9 8.9s-4.2 8.9-8.9 8.9"/><path d="m184.1 163.3c-4.7 0-8.9-3.8-8.9-8.9s3.8-8.9 8.9-8.9c4.7 0 8.9 3.8 8.9 8.9s-4.2 8.9-8.9 8.9"/><path d="m167.1 163.3c-4.7 0-8.9-3.8-8.9-8.9s3.8-8.9 8.9-8.9c4.7 0 8.9 3.8 8.9 8.9s-4.3 8.9-8.9 8.9"/><path d="m150 163.3c-4.7 0-8.9-3.8-8.9-8.9s3.8-8.9 8.9-8.9c4.7 0 8.9 3.8 8.9 8.9s-4.2 8.9-8.9 8.9"/><path d="m133 162c-4.3 0-7.7-3.4-7.7-7.7s3.4-7.7 7.7-7.7 7.7 3.4 7.7 7.7c-.5 4.3-3.9 7.7-7.7 7.7"/><path d="m115.9 160.3c-3.4 0-6-2.6-6-6s2.6-6 6-6 6 2.6 6 6c-.4 3.5-3 6-6 6"/><path d="m98.9 159.1c-2.6 0-4.3-2.1-4.3-4.3s2.1-4.3 4.3-4.3c2.6 0 4.3 2.1 4.3 4.3s-2.2 4.3-4.3 4.3"/><path d="m81.8 157.8c-1.7 0-3.4-1.3-3.4-3.4s1.3-3.4 3.4-3.4c1.7 0 3.4 1.3 3.4 3.4s-1.6 3.4-3.4 3.4"/><path d="m64.8 156.5c-1.3 0-2.1-.9-2.1-2.1s.9-2.1 2.1-2.1c1.3 0 2.1.9 2.1 2.1s-1.2 2.1-2.1 2.1"/><path d="m47.8 155.6c-.9 0-1.3-.4-1.3-1.3s.4-1.3 1.3-1.3 1.3.4 1.3 1.3-.9 1.3-1.3 1.3"/><path d="m30.7 154.8c-.4 0-.4-.4-.4-.4 0-.4.4-.4.4-.4.4 0 .4.4.4.4.1.4-.4.4-.4.4"/><path d="m13.7 154.4c-.4 0 0 0 0 0z"/><path d="m396.7 171.8c0-.4 0-.4 0 0 .4-.4.4-.4 0 0 .4-.4.4 0 0 0"/><path d="m379.6 172.3c-.4 0-.9-.4-.9-.9 0-.4.4-.9.9-.9s.9.4.9.9c0 .4-.4.9-.9.9"/><path d="m362.6 173.1c-.9 0-1.3-.4-1.3-1.3s.4-1.3 1.3-1.3 1.3.4 1.3 1.3c.4.5-.4 1.3-1.3 1.3"/><path d="m345.6 174c-1.3 0-2.6-.9-2.6-2.6 0-1.3.9-2.6 2.6-2.6 1.3 0 2.6.9 2.6 2.6-.1 1.3-1.4 2.6-2.6 2.6"/><path d="m328.5 174.8c-1.7 0-3.4-1.7-3.4-3.4s1.7-3.4 3.4-3.4 3.4 1.7 3.4 3.4-1.3 3.4-3.4 3.4"/><path d="m311.5 176.1c-2.6 0-4.7-2.1-4.7-4.7s2.1-4.7 4.7-4.7 4.7 2.1 4.7 4.7c.4 2.6-1.7 4.7-4.7 4.7"/><path d="m294.4 177.8c-3.4 0-6-2.6-6-6s2.6-6 6-6 6 2.6 6 6-2.6 6-6 6"/><path d="m277.4 179.1c-4.3 0-7.7-3.4-7.7-7.7s3.4-7.7 7.7-7.7 7.7 3.4 7.7 7.7-3.4 7.7-7.7 7.7"/><path d="m260.4 180.4c-4.7 0-8.9-3.8-8.9-8.9 0-4.7 3.8-8.9 8.9-8.9 4.7 0 8.9 3.8 8.9 8.9s-3.8 8.9-8.9 8.9"/><path d="m243.3 180.4c-4.7 0-8.9-3.8-8.9-8.9 0-4.7 3.8-8.9 8.9-8.9 4.7 0 8.9 3.8 8.9 8.9s-3.8 8.9-8.9 8.9"/><path d="m226.3 180.4c-4.7 0-8.9-3.8-8.9-8.9 0-4.7 3.8-8.9 8.9-8.9 4.7 0 8.9 3.8 8.9 8.9s-3.8 8.9-8.9 8.9"/><path d="m209.7 180.4c-4.7 0-8.9-3.8-8.9-8.9 0-4.7 3.8-8.9 8.9-8.9 4.7 0 8.9 3.8 8.9 8.9-.4 5-4.3 8.9-8.9 8.9"/><path d="m192.6 180.4c-4.7 0-8.9-3.8-8.9-8.9 0-4.7 3.8-8.9 8.9-8.9 4.7 0 8.9 3.8 8.9 8.9-.4 5-4.2 8.9-8.9 8.9"/><path d="m175.6 180.4c-4.7 0-8.9-3.8-8.9-8.9 0-4.7 3.8-8.9 8.9-8.9 4.7 0 8.9 3.8 8.9 8.9-.4 5-4.2 8.9-8.9 8.9"/><path d="m158.5 180.4c-4.7 0-8.9-3.8-8.9-8.9 0-4.7 3.8-8.9 8.9-8.9 4.7 0 8.9 3.8 8.9 8.9-.3 5-4.2 8.9-8.9 8.9"/><path d="m141.5 178.6c-3.8 0-7.2-3.4-7.2-7.2s3-7.2 7.2-7.2c3.8 0 7.2 3.4 7.2 7.2-.4 3.8-3.4 7.2-7.2 7.2"/><path d="m124.5 176.9c-3 0-5.5-2.6-5.5-5.5 0-3 2.6-5.5 5.5-5.5 3 0 5.5 2.6 5.5 5.5 0 3.4-2.6 5.5-5.5 5.5"/><path d="m107.4 175.7c-2.6 0-4.3-2.1-4.3-4.3 0-2.6 2.1-4.3 4.3-4.3 2.6 0 4.3 2.1 4.3 4.3 0 2.6-2.2 4.3-4.3 4.3"/><path d="m90.4 174.4c-1.7 0-3-1.3-3-3s1.3-3 3-3 3 1.3 3 3-1.3 3-3 3"/><path d="m73.3 173.5c-1.3 0-2.1-.9-2.1-2.1s.9-2.1 2.1-2.1 2.1.9 2.1 2.1-1.2 2.1-2.1 2.1"/><path d="m56.3 172.7c-.4 0-1.3-.4-1.3-1.3s.4-1.3 1.3-1.3c.4 0 1.3.4 1.3 1.3s-.9 1.3-1.3 1.3"/><path d="m39.2 171.8c-.4 0-.4-.4-.4-.4 0-.4.4-.4.4-.4.4 0 .4.4.4.4.1.4-.4.4-.4.4"/><path d="m22.2 171.4c-.4 0 0 0 0 0z"/><path d="m388.2 188.9c0-.5 0-.5 0 0 .4-.5.4-.5 0 0 .4-.5.4 0 0 0"/><path d="m371.1 189.3c-.4 0-.4-.4-.4-.4 0-.4.4-.4.4-.4.4 0 .4.4.4.4.5 0 0 .4-.4.4"/><path d="m354.1 189.7c-.9 0-1.3-.4-1.3-1.3s.4-1.3 1.3-1.3 1.3.4 1.3 1.3-.5 1.3-1.3 1.3"/><path d="m337 190.6c-1.3 0-2.1-.9-2.1-2.1s.9-2.1 2.1-2.1 2.1.9 2.1 2.1c.1 1.2-.8 2.1-2.1 2.1"/><path d="m320 191.4c-1.7 0-3-1.3-3-3s1.3-3 3-3 3 1.3 3 3-1.3 3-3 3"/><path d="m303 192.7c-2.1 0-4.3-1.7-4.3-4.3 0-2.1 1.7-4.3 4.3-4.3 2.1 0 4.3 1.7 4.3 4.3-.1 2.6-1.8 4.3-4.3 4.3"/><path d="m285.9 194c-3 0-5.5-2.6-5.5-5.5 0-3 2.6-5.5 5.5-5.5 3 0 5.5 2.6 5.5 5.5.1 2.9-2.5 5.5-5.5 5.5"/><path d="m268.9 195.3c-3.8 0-6.8-3-6.8-6.8s3-6.8 6.8-6.8 6.8 3 6.8 6.8-3 6.8-6.8 6.8"/><path d="m251.8 196.5c-4.3 0-8.1-3.4-8.1-8.1s3.4-8.1 8.1-8.1c4.3 0 8.1 3.4 8.1 8.1s-3.4 8.1-8.1 8.1"/><path d="m234.8 197.4c-4.7 0-8.9-3.8-8.9-8.9 0-4.7 3.8-8.9 8.9-8.9 4.7 0 8.9 3.8 8.9 8.9s-3.8 8.9-8.9 8.9"/><path d="m218.2 197.4c-4.7 0-8.9-3.8-8.9-8.9 0-4.7 3.8-8.9 8.9-8.9 4.7 0 8.9 3.8 8.9 8.9-.4 5.1-4.2 8.9-8.9 8.9"/><path d="m201.1 197.4c-4.7 0-8.9-3.8-8.9-8.9 0-4.7 3.8-8.9 8.9-8.9 4.7 0 8.9 3.8 8.9 8.9-.3 5.1-4.2 8.9-8.9 8.9"/><path d="m184.1 197.4c-4.7 0-8.9-3.8-8.9-8.9 0-4.7 3.8-8.9 8.9-8.9 4.7 0 8.9 3.8 8.9 8.9-.4 5.1-4.2 8.9-8.9 8.9"/><path d="m167.1 197.4c-4.7 0-8.9-3.8-8.9-8.9 0-4.7 3.8-8.9 8.9-8.9 4.7 0 8.9 3.8 8.9 8.9-.4 5.1-4.3 8.9-8.9 8.9"/><path d="m150 196.1c-4.3 0-7.7-3.4-7.7-7.7s3.4-7.7 7.7-7.7 7.7 3.4 7.7 7.7-3.9 7.7-7.7 7.7"/><path d="m133 194.8c-3.4 0-6.4-3-6.4-6.4s3-6.4 6.4-6.4 6.4 3 6.4 6.4c-.5 3.5-3 6.4-6.4 6.4"/><path d="m115.9 193.6c-2.6 0-5.1-2.1-5.1-5.1 0-2.6 2.1-5.1 5.1-5.1 2.6 0 5.1 2.1 5.1 5.1-.4 2.9-2.5 5.1-5.1 5.1"/><path d="m98.9 192.3c-2.1 0-3.8-1.7-3.8-3.8s1.7-3.8 3.8-3.8 3.8 1.7 3.8 3.8-1.7 3.8-3.8 3.8"/><path d="m81.8 191.4c-1.3 0-2.6-1.3-2.6-2.6s1.3-2.6 2.6-2.6 2.6 1.3 2.6 2.6c0 1.4-1.3 2.6-2.6 2.6"/><path d="m64.8 190.1c-.9 0-1.7-.9-1.7-1.7 0-.9.9-1.7 1.7-1.7.9 0 1.7.9 1.7 1.7 0 .9-.8 1.7-1.7 1.7"/><path d="m47.8 189.7c-.4 0-.9-.4-.9-.9 0-.4.4-.9.9-.9.4 0 .9.4.9.9-.1.5-.5.9-.9.9"/><path d="m30.7 188.9c-.4 0-.4 0 0 0-.4-.4 0-.9 0-.9s.5.4 0 .9z"/><path d="m379.6 205.9c-.4-.4 0-.9 0-.9.5.5.5.5 0 .9.5 0 .5 0 0 0"/><path d="m362.6 206.3c-.4 0-.9-.4-.9-.9 0-.4.4-.9.9-.9s.9.4.9.9-.5.9-.9.9"/><path d="m345.6 207.2c-.9 0-1.7-.9-1.7-1.7 0-.9.9-1.7 1.7-1.7.9 0 1.7.9 1.7 1.7s-.9 1.7-1.7 1.7"/><path d="m328.5 208c-1.3 0-2.6-1.3-2.6-2.6s1.3-2.6 2.6-2.6 2.6 1.3 2.6 2.6c0 1.4-.9 2.6-2.6 2.6"/><path d="m311.5 208.9c-1.7 0-3.4-1.7-3.4-3.4s1.7-3.4 3.4-3.4 3.4 1.7 3.4 3.4-1.3 3.4-3.4 3.4"/><path d="m294.4 210.2c-2.6 0-4.3-2.1-4.3-4.3 0-2.6 2.1-4.3 4.3-4.3 2.6 0 4.3 2.1 4.3 4.3.4 2.1-1.7 4.3-4.3 4.3"/><path d="m277.4 211c-3 0-5.5-2.6-5.5-5.5 0-3 2.6-5.5 5.5-5.5 3 0 5.5 2.6 5.5 5.5 0 3-2.5 5.5-5.5 5.5"/><path d="m260.4 211.9c-3.4 0-6.4-3-6.4-6.4s3-6.4 6.4-6.4 6.4 3 6.4 6.4c-.1 3.8-2.6 6.4-6.4 6.4"/><path d="m243.3 212.7c-3.8 0-7.2-3.4-7.2-7.2s3.4-7.2 7.2-7.2 7.2 3.4 7.2 7.2-2.9 7.2-7.2 7.2"/><path d="m226.3 213.6c-4.3 0-7.7-3.4-7.7-7.7s3.4-7.7 7.7-7.7 7.7 3.4 7.7 7.7c.4 3.8-3 7.7-7.7 7.7"/><path d="m209.7 213.6c-4.3 0-8.1-3.4-8.1-8.1s3.4-8.1 8.1-8.1c4.3 0 8.1 3.4 8.1 8.1s-3.9 8.1-8.1 8.1"/><path d="m192.6 213.2c-4.3 0-7.7-3.4-7.7-7.7s3.4-7.7 7.7-7.7 7.7 3.4 7.7 7.7c-.4 4.2-3.9 7.7-7.7 7.7"/><path d="m175.6 212.7c-3.8 0-6.8-3-6.8-6.8s3-6.8 6.8-6.8 6.8 3 6.8 6.8c0 3.4-3 6.8-6.8 6.8"/><path d="m158.5 211.9c-3.4 0-6-2.6-6-6s2.6-6 6-6 6 2.6 6 6c0 3-3 6-6 6"/><path d="m141.5 210.6c-3 0-5.1-2.1-5.1-5.1s2.1-5.1 5.1-5.1 5.1 2.1 5.1 5.1c-.4 3-2.6 5.1-5.1 5.1"/><path d="m124.5 209.7c-2.1 0-3.8-1.7-3.8-3.8s1.7-3.8 3.8-3.8 3.8 1.7 3.8 3.8-1.7 3.8-3.8 3.8"/><path d="m107.4 208.5c-1.7 0-3-1.3-3-3s1.3-3 3-3 3 1.3 3 3-1.3 3-3 3"/><path d="m90.4 207.6c-1.3 0-2.1-.9-2.1-2.1s.9-2.1 2.1-2.1c1.3 0 2.1.9 2.1 2.1 0 1.3-1.3 2.1-2.1 2.1"/><path d="m73.3 206.8c-.9 0-1.3-.4-1.3-1.3s.4-1.3 1.3-1.3 1.3.4 1.3 1.3c0 .8-.8 1.3-1.3 1.3"/><path d="m56.3 206.3c-.4 0-.9-.4-.9-.9 0-.4.4-.9.9-.9.4 0 .9.4.9.9-.1.5-.5.9-.9.9"/><path d="m39.2 205.9c-.4 0-.4 0 0 0-.4-.4-.4-.4 0 0 0-.4 0-.4 0 0z"/><path d="m371.1 223c0-.5 0-.5 0 0 .4-.5.4-.5 0 0 .4 0 .4 0 0 0"/><path d="m354.1 223.4c-.4 0-.4-.4-.4-.4 0-.4.4-.4.4-.4.4 0 .4.4.4.4s0 .4-.4.4"/><path d="m337 223.8c-.4 0-.9-.4-.9-.9 0-.4.4-.9.9-.9s.9.4.9.9c.4.5 0 .9-.9.9"/><path d="m320 224.2c-.9 0-1.7-.9-1.7-1.7 0-.9.9-1.7 1.7-1.7.9 0 1.7.9 1.7 1.7 0 .9-.4 1.7-1.7 1.7"/><path d="m303 225.1c-1.3 0-2.6-1.3-2.6-2.6s1.3-2.6 2.6-2.6 2.6 1.3 2.6 2.6c-.1 1.3-.9 2.6-2.6 2.6"/><path d="m285.9 225.9c-1.7 0-3.4-1.3-3.4-3.4 0-1.7 1.3-3.4 3.4-3.4 1.7 0 3.4 1.3 3.4 3.4 0 2.2-1.3 3.4-3.4 3.4"/><path d="m268.9 226.8c-2.1 0-3.8-1.7-3.8-3.8s1.7-3.8 3.8-3.8 3.8 1.7 3.8 3.8c.4 2.1-1.3 3.8-3.8 3.8"/><path d="m251.8 227.6c-2.6 0-4.7-2.1-4.7-4.7s2.1-4.7 4.7-4.7 4.7 2.1 4.7 4.7c.4 2.6-1.7 4.7-4.7 4.7"/><path d="m234.8 228.1c-3 0-5.1-2.6-5.1-5.1 0-3 2.6-5.1 5.1-5.1 3 0 5.1 2.6 5.1 5.1.4 2.5-2.1 5.1-5.1 5.1"/><path d="m218.2 228.5c-3 0-5.5-2.6-5.5-5.5 0-3 2.6-5.5 5.5-5.5 3 0 5.5 2.6 5.5 5.5s-2.5 5.5-5.5 5.5"/><path d="m201.1 228.5c-3 0-6-2.6-6-6 0-3 2.6-6 6-6 3 0 6 2.6 6 6-.4 3.4-3 6-6 6"/><path d="m184.1 228.5c-3 0-5.5-2.6-5.5-5.5s2.6-5.5 5.5-5.5c3 0 5.5 2.6 5.5 5.5s-2.5 5.5-5.5 5.5"/><path d="m167.1 228.1c-3 0-5.1-2.1-5.1-5.1s2.1-5.1 5.1-5.1 5.1 2.1 5.1 5.1-2.6 5.1-5.1 5.1"/><path d="m150 227.2c-2.6 0-4.7-2.1-4.7-4.7s2.1-4.7 4.7-4.7 4.7 2.1 4.7 4.7c-.4 2.6-2.6 4.7-4.7 4.7"/><path d="m133 226.4c-2.1 0-3.8-1.7-3.8-3.8s1.7-3.8 3.8-3.8 3.8 1.7 3.8 3.8-2.1 3.8-3.8 3.8"/><path d="m115.9 225.5c-1.7 0-3-1.3-3-3s1.3-3 3-3 3 1.3 3 3-1.7 3-3 3"/><path d="m98.9 225.1c-1.3 0-2.1-.9-2.1-2.1s.9-2.1 2.1-2.1c1.3 0 2.1.9 2.1 2.1 0 .8-1.3 2.1-2.1 2.1"/><path d="m81.8 224.2c-.9 0-1.3-.9-1.3-1.3 0-.9.9-1.3 1.3-1.3.9 0 1.3.9 1.3 1.3 0 .5-.4 1.3-1.3 1.3"/><path d="m64.8 223.4c-.4 0-.9-.4-.9-.9 0-.4.4-.9.9-.9.4 0 .9.4.9.9 0 .9-.5.9-.9.9"/><path d="m47.8 223c-.5 0-.5 0 0 0-.4-.4 0-.9 0-.9z"/><path d="m30.7 223c0-.5 0-.5 0 0z"/><path d="m362.6 240c0-.4 0-.4 0 0 .4-.4.4-.4 0 0 .4 0 .4 0 0 0"/><path d="m345.6 240.4c-.4 0-.4-.4-.4-.4 0-.4.4-.4.4-.4.4 0 .4.4.4.4.4 0 0 .4-.4.4"/><path d="m328.5 240.8c-.4 0-.9-.4-.9-.9 0-.4.4-.9.9-.9.4 0 .9.4.9.9.4.5 0 .9-.9.9"/><path d="m311.5 241.3c-.9 0-1.7-.9-1.7-1.7 0-.9.9-1.7 1.7-1.7.9 0 1.7.9 1.7 1.7 0 1.2-.9 1.7-1.7 1.7"/><path d="m294.4 242.1c-1.3 0-2.1-.9-2.1-2.1s.9-2.1 2.1-2.1 2.1.9 2.1 2.1-.8 2.1-2.1 2.1"/><path d="m277.4 242.6c-1.3 0-2.6-1.3-2.6-2.6s1.3-2.6 2.6-2.6 2.6 1.3 2.6 2.6-.9 2.6-2.6 2.6"/><path d="m260.4 243c-1.7 0-3.4-1.3-3.4-3.4 0-1.7 1.3-3.4 3.4-3.4 1.7 0 3.4 1.3 3.4 3.4s-1.3 3.4-3.4 3.4"/><path d="m243.3 243.4c-2.1 0-3.8-1.7-3.8-3.8s1.7-3.8 3.8-3.8 3.8 1.7 3.8 3.8-1.7 3.8-3.8 3.8"/><path d="m226.3 243.8c-2.1 0-3.8-1.7-3.8-3.8s1.7-3.8 3.8-3.8 3.8 1.7 3.8 3.8c.4 2.1-1.3 3.8-3.8 3.8"/><path d="m209.7 243.8c-2.1 0-3.8-1.7-3.8-3.8s1.7-3.8 3.8-3.8 3.8 1.7 3.8 3.8-1.7 3.8-3.8 3.8"/><path d="m192.6 243.8c-2.1 0-3.8-1.7-3.8-3.8s1.7-3.8 3.8-3.8 3.8 1.7 3.8 3.8c0 1.7-2.1 3.8-3.8 3.8"/><path d="m175.6 243.4c-2.1 0-3.4-1.7-3.4-3.4 0-2.1 1.7-3.4 3.4-3.4 2.1 0 3.4 1.7 3.4 3.4s-1.7 3.4-3.4 3.4"/><path d="m158.5 243c-1.7 0-3-1.3-3-3s1.3-3 3-3 3 1.3 3 3-1.3 3-3 3"/><path d="m141.5 242.1c-1.3 0-2.6-1.3-2.6-2.6s1.3-2.6 2.6-2.6 2.6 1.3 2.6 2.6c-.5 1.8-1.3 2.6-2.6 2.6"/><path d="m124.5 241.7c-1.3 0-2.1-.9-2.1-2.1s.9-2.1 2.1-2.1c1.3 0 2.1.9 2.1 2.1-.4 1.2-1.3 2.1-2.1 2.1"/><path d="m107.4 241.3c-.9 0-1.3-.4-1.3-1.3s.4-1.3 1.3-1.3 1.3.4 1.3 1.3c0 .4-.9 1.3-1.3 1.3"/><path d="m90.4 240.8c-.4 0-.9-.4-.9-.9 0-.4.4-.9.9-.9.4 0 .9.4.9.9-.1.5-.5.9-.9.9"/><path d="m73.3 240c-.4 0-.4 0 0 0-.4-.4 0-.9 0-.9 0 .5.5.5 0 .9z"/><path d="m56.3 240c-.4-.4 0-.4 0 0 0-.4 0-.4 0 0z"/><path d="m337 257c0-.4 0-.4 0 0 .5-.4.5-.4 0 0 .5 0 .5 0 0 0"/><path d="m320 257.5c-.4 0-.4 0-.4-.4s0-.4.4-.4.4 0 .4.4 0 .4-.4.4"/><path d="m303 257.5c-.4 0-.9-.4-.9-.9s.4-.9.9-.9c.4 0 .9.4.9.9-.1.9-.5.9-.9.9"/><path d="m285.9 257.9c-.9 0-1.3-.4-1.3-1.3s.4-1.3 1.3-1.3 1.3.4 1.3 1.3-.4 1.3-1.3 1.3"/><path d="m268.9 258.3c-.9 0-1.7-.9-1.7-1.7 0-.9.9-1.7 1.7-1.7.9 0 1.7.9 1.7 1.7 0 1.3-.9 1.7-1.7 1.7"/><path d="m251.8 258.7c-1.3 0-2.1-.9-2.1-2.1s.9-2.1 2.1-2.1 2.1.9 2.1 2.1c.1 1.3-.8 2.1-2.1 2.1"/><path d="m234.8 259.2c-1.3 0-2.1-.9-2.1-2.1s.9-2.1 2.1-2.1 2.1.9 2.1 2.1c.4.8-.8 2.1-2.1 2.1"/><path d="m218.2 259.2c-1.3 0-2.6-.9-2.6-2.6 0-1.3.9-2.6 2.6-2.6 1.3 0 2.6.9 2.6 2.6-.5 1.7-1.3 2.6-2.6 2.6"/><path d="m201.1 259.2c-1.3 0-2.6-1.3-2.6-2.6s1.3-2.6 2.6-2.6 2.6 1.3 2.6 2.6c-.4 1.7-1.3 2.6-2.6 2.6"/><path d="m184.1 259.2c-1.3 0-2.1-.9-2.1-2.1s.9-2.1 2.1-2.1c1.3 0 2.1.9 2.1 2.1s-.8 2.1-2.1 2.1"/><path d="m167.1 259.2c-1.3 0-2.1-.9-2.1-2.1s.9-2.1 2.1-2.1c1.3 0 2.1.9 2.1 2.1s-1.3 2.1-2.1 2.1"/><path d="m150 258.7c-.9 0-1.7-.9-1.7-1.7 0-.9.9-1.7 1.7-1.7.9 0 1.7.9 1.7 1.7 0 .9-.8 1.7-1.7 1.7"/><path d="m133 258.3c-.9 0-1.3-.9-1.3-1.3 0-.9.9-1.3 1.3-1.3.9 0 1.3.9 1.3 1.3 0 .5-.9 1.3-1.3 1.3"/><path d="m115.9 257.9c-.4 0-.9-.4-.9-.9s.4-.9.9-.9c.4 0 .9.4.9.9s-.4.9-.9.9"/><path d="m98.9 257.5c-.4 0-.9-.4-.9-.9s.4-.9.9-.9c.4 0 .9.4.9.9s-.9.9-.9.9"/><path d="m81.8 257c-.4 0-.4 0 0 0-.4-.4 0-.9 0-.9z"/><path d="m64.8 257c0-.4 0 0 0 0z"/><path d="m328.5 274.1s.4 0 0 0z"/><path d="m311.5 274.1c-.4-.4 0-.4 0-.4.4 0 .4 0 0 .4.4 0 .4 0 0 0"/><path d="m294.4 274.5c-.4 0-.4 0-.4-.4s0-.4.4-.4.4 0 .4.4c.1 0 .1.4-.4.4"/><path d="m277.4 274.5c-.4 0-.9-.4-.9-.9 0-.4.4-.9.9-.9s.9.4.9.9c-.1.9-.5.9-.9.9"/><path d="m260.4 274.9c-.4 0-.9-.4-.9-.9s.4-.9.9-.9.9.4.9.9-.1.9-.9.9"/><path d="m243.3 274.9c-.4 0-1.3-.4-1.3-1.3 0-.4.4-1.3 1.3-1.3.4 0 1.3.4 1.3 1.3s-.4 1.3-1.3 1.3"/><path d="m226.3 274.9c-.9 0-1.3-.4-1.3-1.3s.4-1.3 1.3-1.3 1.3.4 1.3 1.3c-.1.9-.5 1.3-1.3 1.3"/><path d="m209.7 275.4c-.9 0-1.3-.4-1.3-1.3s.4-1.3 1.3-1.3 1.3.4 1.3 1.3-.9 1.3-1.3 1.3"/><path d="m192.6 274.9c-.9 0-1.3-.4-1.3-1.3s.4-1.3 1.3-1.3 1.3.4 1.3 1.3c-.4.9-.9 1.3-1.3 1.3"/><path d="m175.6 274.9c-.4 0-.9-.4-.9-.9s.4-.9.9-.9c.4 0 .9.4.9.9s-.5.9-.9.9"/><path d="m158.5 274.9c-.4 0-.9-.4-.9-.9s.4-.9.9-.9c.4 0 .9.4.9.9s-.4.9-.9.9"/><path d="m141.5 274.5c-.4 0-.4-.4-.4-.4 0-.4.4-.4.4-.4.4 0 .4.4.4.4z"/><path d="m124.5 274.5c-.5 0-.5-.4 0 0-.4-.4 0-.9 0-.9s0 .1 0 .9c0-.4 0 0 0 0"/><path d="m107.4 274.1c-.4 0-.4 0 0 0-.4-.4-.4-.4 0 0 0-.4 0-.4 0 0z"/><path d="m285.9 291.1c.4 0 .4 0 0 0"/><path d="m268.9 291.1c.4 0 .4 0 0 0"/><path d="m251.8 291.1c-.4-.4 0-.4 0-.4.5 0 .5 0 0 .4.5 0 .5 0 0 0"/><path d="m234.8 291.5c-.4-.4 0-.9 0-.9.4.1.4.1 0 .9.4-.4.4 0 0 0"/><path d="m218.2 291.5c-.4 0-.4-.4 0 0-.4-.4 0-.9 0-.9s0 .1 0 .9c0-.4 0 0 0 0"/><path d="m201.1 291.5c-.4 0-.4-.4 0 0-.4-.4 0-.9 0-.9s0 .1 0 .9c0-.4 0 0 0 0"/><path d="m184.1 291.5c-.4 0-.4-.4 0 0-.4-.4 0-.9 0-.9s0 .1 0 .9c0-.4 0 0 0 0"/><path d="m167.1 291.1c-.5 0-.5 0 0 0-.4-.4 0-.4 0-.4s0 0 0 .4z"/><path d="m150 291.1c-.4 0-.4 0 0 0-.4-.4-.4-.4 0 0 0-.4 0-.4 0 0z"/><path d="m133 291.1c-.5 0-.5 0 0 0z"/><path d="m60.5 240.4c-32.3-21.7-51.5-57.5-51.5-96.7 0-63.9 52-115.9 115.9-115.9h52c63.9 0 115.9 52 115.9 115.9s-52 115.9-115.9 115.9h-52c-3.8 0-7.7 0-11.5-.4l-44.8 32.8zm51.2-3.4c4.3.4 8.5.9 12.8.9h52c51.5 0 93.7-42.2 93.7-93.7 0-52-42.2-93.7-93.7-93.7h-51.5c-51.5 0-93.7 42.2-93.7 93.7 0 33.2 17 63.1 45.2 80.5l4.3 2.6 4.3 26 22.6-16.6z" fill="#1e1d1b"/><path d="m14.5 138.6c0-57.9 46.9-104.8 104.8-104.8h52c57.9 0 104.8 46.9 104.8 104.8s-46.9 104.8-104.8 104.8h-52c-4.7 0-9.8-.4-14.5-.9l-33.7 24.7-6.4-38.8c-29.7-18.2-50.2-51.9-50.2-89.8" fill="#fff"/><g fill="#e15200"><path d="m219.5 101.5c0-1.3-.4-2.6-.4-3.8-3-20-13.6-34.5-32.8-41.3-10.2-3.8-20.4-3.8-30.7.4-8.9 3.8-16.2 9.8-21.7 17.9-1.3 1.7-1.7 1.7-3 0-1.3-2.1-3-3.8-4.7-6-12.4-13.6-30.7-18.3-47.7-12.4-20.9 7.7-31.6 28.2-31.2 48.6 0 13.6 5.5 25.6 13.6 36.6 5.1 6.8 11.5 12.4 17.9 17.9 16.2 14.1 32.4 27.7 48.6 41.8 4.7 4.3 7.2 4.3 12.4 0 2.1-1.7 4.3-3.8 6.4-5.5-.4-1.3-.4-2.6-.9-4.3-.4-2.1-.4-3.8-.4-6v-2.6c-.9.4-1.3 1.3-2.1 1.7-2.6 2.1-5.1 3.8-7.2 6.4-1.7 1.7-3 1.3-4.7 0-6-5.1-11.5-10.2-17.5-14.9-11.9-10.2-23.9-20-35.4-30.2-12.4-11.1-20-24.3-20.4-41.3-.4-12.4 3.8-23 13.2-31.5 6.4-6 14.1-8.5 23-8.5 10.7 0 18.7 5.1 25.6 12.8 3 3.4 5.5 7.2 7.7 11.5.9 2.1 2.1 3.8 4.7 3.8s3.8-1.3 5.1-3.4c4.3-8.9 10.7-16.2 19.6-20.9 9.4-5.1 19.2-4.7 28.5-.9 13.6 5.5 20.9 16.2 23.4 30.7 2.1 12.4-1.7 23-7.7 33.2 2.6 1.7 5.1 3 7.7 4.3.4.4 1.3.4 1.7.9 5.5-9.8 8.9-20 9.4-31.5 0-1.8 0-2.6 0-3.5"/><path d="m99.7 80.7c2.6.4 3.8-.9 4.3-3s-.9-3.4-3.4-3.8c-6-.9-11.5 0-16.6 2.6-11.1 6-15.3 15.8-16.2 28.1 0 4.7 1.3 8.9 3 13.2.9 2.1 2.6 3 4.3 2.1s2.6-2.6 1.7-4.7c0-.9-.4-1.3-.9-2.1-1.7-4.7-2.1-9.4-1.3-14.1 2.6-11.5 13.2-20 25.1-18.3"/><path d="m229.7 148c0-3-.9-3.8-3.8-4.3-6.8-.4-13.2-2.6-19.2-5.5-5.5-2.6-10.7-5.5-15.3-9.4-1.3-.9-2.6-.9-3.8 0-4.7 3.4-9.8 6.8-14.9 9.4-6 3-12.4 5.5-19.2 5.5-3 0-3.8 1.3-3.8 4.3v20 17.5c0 1.7 0 3.4.4 5.5 1.3 7.7 4.3 14.5 11.1 18.7 3 2.1 6 4.3 8.9 6 6 3.8 11.5 7.7 17.5 11.9 1.7.9 3 1.3 4.7.4 8.1-5.5 16.2-10.7 24.3-16.2 2.6-1.7 4.7-3 6.8-5.1 5.1-5.5 7.2-11.9 7.2-19.2-.9-13.1-.9-26.3-.9-39.5m-6.4 39.6c0 6.4-2.1 11.9-7.2 16.2-3 2.6-6 4.3-8.9 6.4-5.5 3.8-11.1 7.2-16.2 11.1-.9.9-1.7.9-2.6 0-7.7-5.1-15.8-10.7-23.4-15.8-5.5-3.8-8.1-8.5-8.9-14.9 0-1.3-.4-3-.4-4.3 0-11.5 0-23 0-34.5 0-1.3 0-1.7 1.3-2.1 8.5-1.3 16.2-4.7 23.4-8.9 2.6-1.7 5.5-3 8.1-5.1.9-.9 1.7-.9 2.6 0 7.2 5.1 14.9 9.4 23.4 11.9 2.6.9 5.1 1.3 7.7 1.7 1.3 0 1.3.9 1.3 1.7v18.3c-.2 6.4-.2 12.3-.2 18.3"/><path d="m229.7 148c0-3-.9-3.8-3.8-4.3-6.8-.4-13.2-2.6-19.2-5.5-5.5-2.6-10.7-5.5-15.3-9.4-1.3-.9-2.6-.9-3.8 0-4.7 3.4-9.8 6.8-14.9 9.4-6 3-12.4 5.5-19.2 5.5-3 0-3.8 1.3-3.8 4.3v20 17.5c0 1.7 0 3.4.4 5.5 1.3 7.7 4.3 14.5 11.1 18.7 3 2.1 6 4.3 8.9 6 6 3.8 11.5 7.7 17.5 11.9 1.7.9 3 1.3 4.7.4 8.1-5.5 16.2-10.7 24.3-16.2 2.6-1.7 4.7-3 6.8-5.1 5.1-5.5 7.2-11.9 7.2-19.2-.9-13.1-.9-26.3-.9-39.5m-6.4 39.6c0 6.4-2.1 11.9-7.2 16.2-3 2.6-6 4.3-8.9 6.4-5.5 3.8-11.1 7.2-16.2 11.1-.9.9-1.7.9-2.6 0-7.7-5.1-15.8-10.7-23.4-15.8-5.5-3.8-8.1-8.5-8.9-14.9 0-1.3-.4-3-.4-4.3 0-11.5 0-23 0-34.5 0-1.3 0-1.7 1.3-2.1 8.5-1.3 16.2-4.7 23.4-8.9 2.6-1.7 5.5-3 8.1-5.1.9-.9 1.7-.9 2.6 0 7.2 5.1 14.9 9.4 23.4 11.9 2.6.9 5.1 1.3 7.7 1.7 1.3 0 1.3.9 1.3 1.7v18.3c-.2 6.4-.2 12.3-.2 18.3"/><path d="m215.6 189.3h-17v16.2h-18.3v-16.2h-17.1v-17.9h17.1v-16.6h18.3v16.6h17z"/></g></svg>