<?xml version="1.0" encoding="utf-8"?>
<!-- Generator: Adobe Illustrator 23.1.1, SVG Export Plug-In . SVG Version: 6.00 Build 0)  -->
<svg version="1.1" id="Layer_1" xmlns="http://www.w3.org/2000/svg" xmlns:xlink="http://www.w3.org/1999/xlink" x="0px" y="0px"
	 viewBox="0 0 400 300" style="enable-background:new 0 0 400 300;" xml:space="preserve">
<style type="text/css">
	.st0{fill:#1E1D1B;}
	.st1{fill:#FFFFFF;}
	.st2{fill:#E15200;}
</style>
<g>
	<path d="M248.8,5.8L248.8,5.8C248.8,5.8,248.8,5.4,248.8,5.8C248.8,5.4,248.8,5.8,248.8,5.8L248.8,5.8"/>
	<path d="M232.2,5.8L232.2,5.8C232.2,5.4,232.2,5.4,232.2,5.8C232.6,5.4,232.6,5.4,232.2,5.8C232.6,5.8,232.6,5.8,232.2,5.8"/>
	<path d="M216.1,5.8C215.7,5.8,215.7,5.8,216.1,5.8c-0.4-0.4,0-0.4,0-0.4S216.1,5.4,216.1,5.8L216.1,5.8"/>
	<path d="M199.6,5.8C199.6,5.8,199.2,5.8,199.6,5.8c-0.4-0.4,0-0.8,0-0.8C199.6,5.4,199.9,5.4,199.6,5.8
		C199.9,5.8,199.6,5.8,199.6,5.8"/>
	<path d="M183,6.2C183,6.2,182.7,5.8,183,6.2c-0.4-0.4-0.4-0.8,0-0.8C183.4,5.4,183.4,5.4,183,6.2C183.4,5.8,183.4,6.2,183,6.2"/>
	<path d="M166.9,5.8C166.5,5.8,166.5,5.8,166.9,5.8c-0.4-0.4,0-0.8,0-0.8C166.9,5.4,167.3,5.4,166.9,5.8
		C167.3,5.8,166.9,5.8,166.9,5.8"/>
	<path d="M150.4,5.8C150.4,5.8,150,5.8,150.4,5.8c-0.4-0.4,0-0.4,0-0.4S150.8,5.4,150.4,5.8C150.8,5.8,150.4,5.8,150.4,5.8"/>
	<path d="M133.8,5.8L133.8,5.8C133.8,5.4,133.8,5.4,133.8,5.8C134.2,5.4,134.2,5.4,133.8,5.8C134.2,5.8,134.2,5.8,133.8,5.8"/>
	<path d="M117.7,5.8L117.7,5.8C117.7,5.8,117.7,5.4,117.7,5.8C117.7,5.4,117.7,5.8,117.7,5.8L117.7,5.8"/>
	<path d="M306,22.3C306,22.3,306,21.9,306,22.3C306,21.9,306,21.9,306,22.3C306,21.9,306,21.9,306,22.3C306,21.9,306,22.3,306,22.3"
		/>
	<path d="M289.9,22.3C289.5,22.3,289.5,22.3,289.9,22.3C289.5,21.9,289.5,21.9,289.9,22.3C289.9,21.9,289.9,21.9,289.9,22.3
		L289.9,22.3"/>
	<path d="M273.3,22.3c-0.4,0-0.4,0-0.4-0.4s0-0.4,0.4-0.4s0.4,0,0.4,0.4C273.7,22.3,273.3,22.3,273.3,22.3"/>
	<path d="M256.8,22.7c-0.4,0-0.8-0.4-0.8-0.8s0.4-0.8,0.8-0.8s0.8,0.4,0.8,0.8S257.2,22.7,256.8,22.7"/>
	<path d="M240.7,23.1c-0.4,0-0.8-0.4-0.8-0.8s0.4-0.8,0.8-0.8c0.4,0,0.8,0.4,0.8,0.8C241.5,22.7,241.1,23.1,240.7,23.1"/>
	<path d="M224.2,23.1c-0.8,0-1.2-0.4-1.2-1.2c0-0.4,0.4-1.2,1.2-1.2c0.8,0,1.2,0.4,1.2,1.2C225.3,22.7,224.5,23.1,224.2,23.1"/>
	<path d="M207.6,23.1c-0.8,0-1.2-0.4-1.2-1.2c0-0.8,0.4-1.2,1.2-1.2c0.8,0,1.2,0.4,1.2,1.2C208.8,22.7,208.4,23.1,207.6,23.1"/>
	<path d="M191.5,23.1c-0.8,0-1.2-0.4-1.2-1.2c0-0.8,0.4-1.2,1.2-1.2s1.2,0.4,1.2,1.2C192.6,22.7,191.9,23.1,191.5,23.1"/>
	<path d="M175,23.1c-0.8,0-1.2-0.4-1.2-1.2c0-0.8,0.4-1.2,1.2-1.2s1.2,0.4,1.2,1.2C176.1,22.7,175.7,23.1,175,23.1"/>
	<path d="M158.4,23.1c-0.4,0-0.8-0.4-0.8-0.8s0.4-0.8,0.8-0.8c0.4,0,0.8,0.4,0.8,0.8S159.2,23.1,158.4,23.1"/>
	<path d="M142.3,22.7c-0.4,0-0.8-0.4-0.8-0.8s0.4-0.8,0.8-0.8c0.4,0,0.8,0.4,0.8,0.8C143.1,22.7,142.7,22.7,142.3,22.7"/>
	<path d="M125.8,22.7c-0.4,0-0.4-0.4-0.4-0.4c0-0.4,0.4-0.4,0.4-0.4c0.4,0,0.4,0.4,0.4,0.4C126.2,22.3,126.2,22.7,125.8,22.7"/>
	<path d="M109.2,22.3L109.2,22.3c-0.4-0.4,0-0.8,0-0.8C109.6,21.9,109.6,21.9,109.2,22.3C109.6,22.3,109.6,22.3,109.2,22.3"/>
	<path d="M93.1,22.3C93.1,22.3,92.7,22.3,93.1,22.3C92.7,21.9,93.1,21.9,93.1,22.3C93.1,21.9,93.1,21.9,93.1,22.3L93.1,22.3"/>
	<path d="M314.1,38.8C314.1,38.8,314.1,38.4,314.1,38.8C314.1,38.4,314.1,38.4,314.1,38.8C314.5,38.4,314.5,38.4,314.1,38.8
		C314.5,38.4,314.5,38.8,314.1,38.8"/>
	<path d="M297.9,38.8c-0.4,0-0.4,0-0.4-0.4c0-0.4,0-0.4,0.4-0.4s0.4,0,0.4,0.4C298.3,38.8,297.9,38.8,297.9,38.8"/>
	<path d="M281.4,39.2c-0.4,0-0.8-0.4-0.8-0.8c0-0.4,0.4-0.8,0.8-0.8c0.4,0,0.8,0.4,0.8,0.8C282.2,38.8,281.8,39.2,281.4,39.2"/>
	<path d="M265.3,39.6c-0.8,0-1.2-0.4-1.2-1.2s0.4-1.2,1.2-1.2c0.8,0,1.2,0.4,1.2,1.2C266,39.2,265.7,39.6,265.3,39.6"/>
	<path d="M248.8,40c-0.8,0-1.5-0.8-1.5-1.5s0.8-1.5,1.5-1.5c0.8,0,1.5,0.8,1.5,1.5S249.5,40,248.8,40"/>
	<path d="M232.2,40.4c-1.2,0-1.9-0.8-1.9-1.9c0-1.2,0.8-1.9,1.9-1.9s1.9,0.8,1.9,1.9C234.1,39.6,233.4,40.4,232.2,40.4"/>
	<path d="M216.1,40.7c-1.2,0-1.9-0.8-1.9-1.9s0.8-1.9,1.9-1.9s1.9,0.8,1.9,1.9S217.2,40.7,216.1,40.7"/>
	<path d="M199.6,40.7c-1.2,0-2.3-1.2-2.3-2.3c0-1.2,1.2-2.3,2.3-2.3s2.3,1.2,2.3,2.3C201.9,39.6,200.7,40.7,199.6,40.7"/>
	<path d="M183,40.7c-1.2,0-2.3-1.2-2.3-2.3c0-1.2,1.2-2.3,2.3-2.3s2.3,1.2,2.3,2.3C185.3,39.6,184.6,40.7,183,40.7"/>
	<path d="M166.9,40.7c-1.2,0-2.3-1.2-2.3-2.3c0-1.2,1.2-2.3,2.3-2.3s2.3,1.2,2.3,2.3C168.8,39.6,168,40.7,166.9,40.7"/>
	<path d="M150.4,40.4c-1.2,0-1.9-0.8-1.9-1.9c0-1.2,0.8-1.9,1.9-1.9s1.9,0.8,1.9,1.9C152.3,39.6,151.5,40.4,150.4,40.4"/>
	<path d="M133.8,40.4c-0.8,0-1.5-0.8-1.5-1.5s0.8-1.9,1.5-1.9c0.8,0,1.5,0.8,1.5,1.9C135.8,39.6,135,40.4,133.8,40.4"/>
	<path d="M117.7,40c-0.8,0-1.5-0.8-1.5-1.5s0.8-1.5,1.5-1.5c0.8,0,1.5,0.8,1.5,1.5C118.9,39.2,118.5,40,117.7,40"/>
	<path d="M101.2,39.6c-0.4,0-1.2-0.4-1.2-1.2s0.4-1.2,1.2-1.2c0.4,0,1.2,0.4,1.2,1.2S101.9,39.6,101.2,39.6"/>
	<path d="M84.7,39.2c-0.4,0-0.8-0.4-0.8-0.8c0-0.4,0.4-0.8,0.8-0.8c0.4,0,0.8,0.4,0.8,0.8C85.4,38.8,85,39.2,84.7,39.2"/>
	<path d="M68.5,38.8C68.1,38.8,68.1,38.8,68.5,38.8c-0.4-0.4,0-0.4,0-0.4C68.5,38.1,68.9,38.4,68.5,38.8
		C68.9,38.8,68.5,38.8,68.5,38.8"/>
	<path d="M52,38.4L52,38.4L52,38.4L52,38.4L52,38.4"/>
	<path d="M338.7,55L338.7,55L338.7,55C339.1,55,339.1,55,338.7,55C339.1,55,339.1,55,338.7,55"/>
	<path d="M322.5,55.3c-0.4,0-0.4-0.4-0.4-0.4c0-0.4,0.4-0.4,0.4-0.4c0.4,0,0.4,0.4,0.4,0.4C322.9,55.3,322.5,55.3,322.5,55.3"/>
	<path d="M306,55.7c-0.4,0-0.8-0.4-0.8-0.8c0-0.4,0.4-0.8,0.8-0.8s0.8,0.4,0.8,0.8C306.8,55.3,306.8,55.7,306,55.7"/>
	<path d="M289.9,56.5c-0.8,0-1.5-0.8-1.5-1.5c0-0.8,0.8-1.5,1.5-1.5c0.8,0,1.5,0.8,1.5,1.5C291.4,55.7,290.6,56.5,289.9,56.5"/>
	<path d="M273.3,56.9c-1.2,0-1.9-0.8-1.9-1.9c0-1.2,0.8-1.9,1.9-1.9c1.2,0,1.9,0.8,1.9,1.9C275.3,56.1,274.5,56.9,273.3,56.9"/>
	<path d="M256.8,57.7c-1.5,0-2.7-1.2-2.7-2.7c0-1.5,1.2-2.7,2.7-2.7c1.5,0,2.7,1.2,2.7,2.7C259.5,56.5,258.4,57.7,256.8,57.7"/>
	<path d="M240.7,58c-1.5,0-3.1-1.5-3.1-3.1c0-1.5,1.5-3.1,3.1-3.1c1.5,0,3.1,1.5,3.1,3.1C243.8,56.5,242.2,58,240.7,58"/>
	<path d="M224.2,58.4c-1.9,0-3.5-1.5-3.5-3.5c0-1.9,1.5-3.5,3.5-3.5c1.9,0,3.5,1.5,3.5,3.5C227.6,56.9,226.1,58.4,224.2,58.4"/>
	<path d="M207.6,58.4c-1.9,0-3.8-1.5-3.8-3.8s1.5-3.8,3.8-3.8c1.9,0,3.8,1.5,3.8,3.8S209.9,58.4,207.6,58.4"/>
	<path d="M191.5,58.8c-1.9,0-3.8-1.5-3.8-3.8c0-2.3,1.5-3.8,3.8-3.8c1.9,0,3.8,1.5,3.8,3.8C195.3,57.3,193.4,58.8,191.5,58.8"/>
	<path d="M175,58.4c-1.9,0-3.5-1.5-3.5-3.5c0-1.9,1.5-3.5,3.5-3.5s3.5,1.5,3.5,3.5C178.4,56.9,176.9,58.4,175,58.4"/>
	<path d="M158.4,58.4c-1.9,0-3.5-1.5-3.5-3.5c0-1.9,1.5-3.5,3.5-3.5c1.9,0,3.5,1.5,3.5,3.5C161.9,56.9,160.4,58.4,158.4,58.4"/>
	<path d="M142.3,57.7c-1.5,0-3.1-1.2-3.1-3.1c0-1.5,1.2-3.1,3.1-3.1c1.5,0,3.1,1.2,3.1,3.1C145,56.5,143.8,57.7,142.3,57.7"/>
	<path d="M125.8,57.3c-1.2,0-2.3-1.2-2.3-2.3c0-1.2,1.2-2.3,2.3-2.3s2.3,1.2,2.3,2.3C128.1,56.1,127.3,57.3,125.8,57.3"/>
	<path d="M109.2,56.9c-1.2,0-1.9-0.8-1.9-1.9c0-1.2,0.8-1.9,1.9-1.9s1.9,0.8,1.9,1.9C111.2,56.1,110.4,56.9,109.2,56.9"/>
	<path d="M93.1,56.1c-0.8,0-1.2-0.4-1.2-1.2c0-0.8,0.4-1.2,1.2-1.2s1.2,0.4,1.2,1.2C94.3,55.7,93.9,56.1,93.1,56.1"/>
	<path d="M76.6,55.7c-0.4,0-0.8-0.4-0.8-0.8c0-0.4,0.4-0.8,0.8-0.8c0.4,0,0.8,0.4,0.8,0.8C77.4,55.3,77,55.7,76.6,55.7"/>
	<path d="M60.4,55.3C60.1,55.3,60.1,55,60.4,55.3c-0.4-0.4-0.4-0.8,0-0.8C60.4,54.6,60.4,54.6,60.4,55.3
		C60.4,55,60.4,55.3,60.4,55.3"/>
	<path d="M43.9,55L43.9,55L43.9,55L43.9,55L43.9,55"/>
	<path d="M347.1,71.5C347.1,71.5,346.8,71.5,347.1,71.5C346.8,71.1,347.1,71.1,347.1,71.5C347.1,71.1,347.1,71.1,347.1,71.5
		L347.1,71.5"/>
	<path d="M330.6,71.9c-0.4,0-0.4-0.4-0.4-0.4c0-0.4,0.4-0.4,0.4-0.4c0.4,0,0.4,0.4,0.4,0.4S331,71.9,330.6,71.9"/>
	<path d="M314.1,72.3c-0.4,0-1.2-0.4-1.2-1.2c0-0.8,0.4-1.2,1.2-1.2c0.4,0,1.2,0.4,1.2,1.2C315.2,71.9,314.9,72.3,314.1,72.3"/>
	<path d="M297.9,73c-0.8,0-1.5-0.8-1.5-1.5s0.8-1.5,1.5-1.5c0.8,0,1.5,0.8,1.5,1.5S298.7,73,297.9,73"/>
	<path d="M281.4,73.8c-1.2,0-2.3-1.2-2.3-2.3s1.2-2.3,2.3-2.3c1.2,0,2.3,1.2,2.3,2.3S283,73.8,281.4,73.8"/>
	<path d="M265.3,74.6c-1.5,0-3.1-1.5-3.1-3.1c0-1.5,1.5-3.1,3.1-3.1s3.1,1.5,3.1,3.1C268.4,73,266.8,74.6,265.3,74.6"/>
	<path d="M248.8,75.3c-2.3,0-3.8-1.9-3.8-3.8c0-2.3,1.9-3.8,3.8-3.8c2.3,0,3.8,1.9,3.8,3.8S250.7,75.3,248.8,75.3"/>
	<path d="M232.2,75.7c-2.7,0-4.6-1.9-4.6-4.6s1.9-4.6,4.6-4.6c2.7,0,4.6,1.9,4.6,4.6S234.9,75.7,232.2,75.7"/>
	<path d="M216.1,76.5c-2.7,0-5-2.3-5-5s2.3-5,5-5c2.7,0,5,2.3,5,5S218.8,76.5,216.1,76.5"/>
	<path d="M199.6,76.9c-3.1,0-5.4-2.3-5.4-5.4c0-3.1,2.3-5.4,5.4-5.4c3.1,0,5.4,2.3,5.4,5.4C204.9,74.2,202.6,76.9,199.6,76.9"/>
	<path d="M183,76.9c-3.1,0-5.4-2.3-5.4-5.4c0-3.1,2.3-5.4,5.4-5.4c3.1,0,5.4,2.3,5.4,5.4C188.8,74.6,186.1,76.9,183,76.9"/>
	<path d="M166.9,76.5c-3.1,0-5.4-2.3-5.4-5.4c0-3.1,2.3-5.4,5.4-5.4c3.1,0,5.4,2.3,5.4,5.4C172.3,74.2,169.6,76.5,166.9,76.5"/>
	<path d="M150.4,76.1c-2.7,0-5-2.3-5-5s2.3-5,5-5c2.7,0,5,2.3,5,5S153.1,76.1,150.4,76.1"/>
	<path d="M133.8,75.7c-2.3,0-4.2-1.9-4.2-4.2s1.9-4.2,4.2-4.2c2.3,0,4.2,1.9,4.2,4.2C138.5,73.8,136.5,75.7,133.8,75.7"/>
	<path d="M117.7,74.9c-1.9,0-3.5-1.5-3.5-3.5s1.5-3.5,3.5-3.5c1.9,0,3.5,1.5,3.5,3.5C121.2,73.4,119.6,74.9,117.7,74.9"/>
	<path d="M101.2,74.2c-1.5,0-2.7-1.2-2.7-2.7s1.2-2.7,2.7-2.7s2.7,1.2,2.7,2.7S102.7,74.2,101.2,74.2"/>
	<path d="M84.7,73.4c-1.2,0-1.9-0.8-1.9-1.9s0.8-1.9,1.9-1.9c1.2,0,1.9,0.8,1.9,1.9S85.8,73.4,84.7,73.4"/>
	<path d="M68.5,72.6c-0.8,0-1.5-0.8-1.5-1.5c0-0.8,0.8-1.5,1.5-1.5s1.5,0.8,1.5,1.5C69.7,72.3,69.3,72.6,68.5,72.6"/>
	<path d="M52,72.3c-0.4,0-0.8-0.4-0.8-0.8s0.4-0.8,0.8-0.8c0.4,0,0.8,0.4,0.8,0.8S52.4,72.3,52,72.3"/>
	<path d="M35.8,71.5C35.5,71.5,35.5,71.5,35.8,71.5c-0.4-0.4,0-0.8,0-0.8C35.8,71.1,35.8,71.1,35.8,71.5L35.8,71.5"/>
	<path d="M19.3,71.5L19.3,71.5L19.3,71.5L19.3,71.5L19.3,71.5"/>
	<path d="M371.7,87.6L371.7,87.6L371.7,87.6L371.7,87.6L371.7,87.6"/>
	<path d="M355.2,88C355.2,88,354.8,88,355.2,88c-0.4-0.4,0-0.8,0-0.8C355.6,87.6,355.6,87.6,355.2,88C355.6,88,355.6,88,355.2,88"/>
	<path d="M338.7,88.4c-0.4,0-0.8-0.4-0.8-0.8c0-0.4,0.4-0.8,0.8-0.8c0.4,0,0.8,0.4,0.8,0.8C339.8,88.4,339.4,88.4,338.7,88.4"/>
	<path d="M322.5,89.2c-0.8,0-1.5-0.8-1.5-1.5s0.8-1.5,1.5-1.5c0.8,0,1.5,0.8,1.5,1.5S323.3,89.2,322.5,89.2"/>
	<path d="M306,89.9c-1.2,0-2.3-1.2-2.3-2.3s1.2-2.3,2.3-2.3c1.2,0,2.3,1.2,2.3,2.3C308.3,89.2,307.2,89.9,306,89.9"/>
	<path d="M289.9,91.1c-1.9,0-3.1-1.5-3.1-3.1c0-1.9,1.5-3.1,3.1-3.1c1.9,0,3.1,1.5,3.1,3.1C292.9,89.5,291.4,91.1,289.9,91.1"/>
	<path d="M273.3,91.9c-2.3,0-4.2-1.9-4.2-4.2s1.9-4.2,4.2-4.2s4.2,1.9,4.2,4.2C277.6,89.9,275.7,91.9,273.3,91.9"/>
	<path d="M256.8,93c-2.7,0-5-2.3-5-5.4s2.3-5.4,5-5.4c2.7,0,5,2.3,5,5.4S259.9,93,256.8,93"/>
	<path d="M240.7,93.8c-3.5,0-6.1-2.7-6.1-6.1c0-3.5,2.7-6.1,6.1-6.1s6.1,2.7,6.1,6.1C246.4,91.1,243.8,93.8,240.7,93.8"/>
	<path d="M224.2,94.5c-3.8,0-6.9-3.1-6.9-6.9s3.1-6.9,6.9-6.9c3.8,0,6.9,3.1,6.9,6.9S228,94.5,224.2,94.5"/>
	<path d="M207.6,95.3c-4.2,0-7.3-3.5-7.3-7.3c0-4.2,3.5-7.3,7.3-7.3c4.2,0,7.3,3.5,7.3,7.3C215.3,91.9,211.9,95.3,207.6,95.3"/>
	<path d="M191.5,95.3c-4.2,0-7.7-3.5-7.7-7.7s3.5-7.7,7.7-7.7s7.7,3.5,7.7,7.7C198.8,91.9,195.3,95.3,191.5,95.3"/>
	<path d="M175,94.9c-3.8,0-7.3-3.1-7.3-7.3s3.1-7.3,7.3-7.3c3.8,0,7.3,3.1,7.3,7.3S178.8,94.9,175,94.9"/>
	<path d="M158.4,94.5c-3.8,0-6.5-3.1-6.5-6.5c0-3.8,3.1-6.5,6.5-6.5c3.8,0,6.5,3.1,6.5,6.5C165.4,91.5,162.3,94.5,158.4,94.5"/>
	<path d="M142.3,93.8c-3.1,0-5.8-2.7-5.8-5.8s2.7-5.8,5.8-5.8c3.1,0,5.8,2.7,5.8,5.8S145.4,93.8,142.3,93.8"/>
	<path d="M125.8,92.6c-2.7,0-5-2.3-5-5s2.3-5,5-5c2.7,0,5,2.3,5,5S128.5,92.6,125.8,92.6"/>
	<path d="M109.2,91.5c-2.3,0-3.8-1.9-3.8-3.8c0-1.9,1.5-3.8,3.8-3.8s3.8,1.9,3.8,3.8C113.1,89.5,111.6,91.5,109.2,91.5"/>
	<path d="M93.1,90.7c-1.5,0-3.1-1.2-3.1-3.1c0-1.5,1.2-3.1,3.1-3.1c1.5,0,3.1,1.2,3.1,3.1C95.8,89.5,94.6,90.7,93.1,90.7"/>
	<path d="M76.6,89.9c-1.2,0-1.9-0.8-1.9-1.9s0.8-1.9,1.9-1.9s1.9,0.8,1.9,1.9C78.5,88.8,77.7,89.9,76.6,89.9"/>
	<path d="M60.4,89.2c-0.8,0-1.2-0.4-1.2-1.2c0-0.8,0.4-1.2,1.2-1.2s1.2,0.4,1.2,1.2C61.6,88.4,60.8,89.2,60.4,89.2"/>
	<path d="M43.9,88.4c-0.4,0-0.8-0.4-0.8-0.8s0.4-0.8,0.8-0.8c0.4,0,0.8,0.4,0.8,0.8S44.3,88.4,43.9,88.4"/>
	<path d="M27.4,88L27.4,88C27.4,87.6,27.4,87.6,27.4,88C27.4,87.6,27.8,87.6,27.4,88C27.8,88,27.4,88,27.4,88"/>
	<path d="M363.3,104.2L363.3,104.2L363.3,104.2C363.7,104.2,363.7,104.2,363.3,104.2C363.7,104.2,363.7,104.2,363.3,104.2"/>
	<path d="M347.1,104.5c-0.4,0-0.4-0.4-0.4-0.4c0-0.4,0.4-0.4,0.4-0.4c0.4,0,0.4,0.4,0.4,0.4C347.5,104.5,347.1,104.5,347.1,104.5"/>
	<path d="M330.6,105.3c-0.8,0-1.2-0.4-1.2-1.2c0-0.8,0.4-1.2,1.2-1.2c0.8,0,1.2,0.4,1.2,1.2C331.8,104.9,331.4,105.3,330.6,105.3"/>
	<path d="M314.1,106.1c-1.2,0-1.9-0.8-1.9-1.9s0.8-1.9,1.9-1.9c1.2,0,1.9,0.8,1.9,1.9C316.4,105.3,315.2,106.1,314.1,106.1"/>
	<path d="M297.9,107.2c-1.5,0-3.1-1.2-3.1-3.1c0-1.5,1.2-3.1,3.1-3.1c1.5,0,3.1,1.2,3.1,3.1C300.6,105.7,299.5,107.2,297.9,107.2"/>
	<path d="M281.4,108.4c-2.3,0-3.8-1.9-3.8-3.8c0-2.3,1.9-3.8,3.8-3.8c2.3,0,3.8,1.9,3.8,3.8C285.6,106.5,283.7,108.4,281.4,108.4"/>
	<path d="M265.3,109.5c-2.7,0-5-2.3-5-5.4s2.3-5.4,5-5.4c2.7,0,5,2.3,5,5.4S268,109.5,265.3,109.5"/>
	<path d="M248.8,110.7c-3.5,0-6.5-3.1-6.5-6.5c0-3.5,3.1-6.5,6.5-6.5c3.5,0,6.5,3.1,6.5,6.5C255.3,107.6,252.2,110.7,248.8,110.7"/>
	<path d="M232.2,111.8c-4.2,0-7.7-3.5-7.7-7.7s3.5-7.7,7.7-7.7s7.7,3.5,7.7,7.7S236.5,111.8,232.2,111.8"/>
	<path d="M216.1,112.6c-4.6,0-8.5-3.8-8.5-8.5s3.8-8.5,8.5-8.5s8.5,3.8,8.5,8.5S220.7,112.6,216.1,112.6"/>
	<path d="M199.6,112.6c-4.6,0-8.5-3.8-8.5-8.5s3.8-8.5,8.5-8.5c4.6,0,8.5,3.8,8.5,8.5S204.2,112.6,199.6,112.6"/>
	<path d="M183,112.6c-4.6,0-8.5-3.8-8.5-8.5s3.8-8.5,8.5-8.5c4.6,0,8.5,3.8,8.5,8.5S187.6,112.6,183,112.6"/>
	<path d="M166.9,112.6c-4.6,0-8.5-3.8-8.5-8.5s3.8-8.5,8.5-8.5c4.6,0,8.5,3.8,8.5,8.5S171.5,112.6,166.9,112.6"/>
	<path d="M150.4,112.6c-4.6,0-8.5-3.8-8.5-8.5s3.8-8.5,8.5-8.5s8.5,3.8,8.5,8.5S155,112.6,150.4,112.6"/>
	<path d="M133.8,111.5c-3.8,0-7.3-3.1-7.3-7.3c0-3.8,3.1-7.3,7.3-7.3c3.8,0,7.3,3.5,7.3,7.3C141.1,108.4,138.1,111.5,133.8,111.5"/>
	<path d="M117.7,110.3c-3.5,0-6.1-2.7-6.1-6.1c0-3.5,2.7-6.1,6.1-6.1c3.5,0,6.1,2.7,6.1,6.1C123.5,107.6,120.8,110.3,117.7,110.3"/>
	<path d="M101.2,109.1c-2.7,0-4.6-2.3-4.6-4.6c0-2.3,2.3-4.6,4.6-4.6c2.7,0,4.6,2.3,4.6,4.6C105.8,106.8,103.9,109.1,101.2,109.1"/>
	<path d="M84.7,108c-1.9,0-3.5-1.5-3.5-3.5c0-1.9,1.5-3.5,3.5-3.5c1.9,0,3.5,1.5,3.5,3.5C88.5,106.1,87,108,84.7,108"/>
	<path d="M68.5,106.8c-1.5,0-2.7-1.2-2.7-2.7s1.2-2.7,2.7-2.7s2.7,1.2,2.7,2.7C71.2,105.7,70,106.8,68.5,106.8"/>
	<path d="M52,105.7c-0.8,0-1.5-0.8-1.5-1.5c0-0.8,0.8-1.5,1.5-1.5s1.5,0.8,1.5,1.5C53.9,105.3,53.1,105.7,52,105.7"/>
	<path d="M35.8,104.9c-0.4,0-0.8-0.4-0.8-0.8c0-0.4,0.4-0.8,0.8-0.8c0.4,0,0.8,0.4,0.8,0.8C36.6,104.5,36.2,104.9,35.8,104.9"/>
	<path d="M19.3,104.5C18.9,104.5,18.9,104.5,19.3,104.5c-0.4-0.4-0.4-0.8,0-0.8C19.3,103.8,19.7,104.2,19.3,104.5
		C19.7,104.5,19.3,104.5,19.3,104.5"/>
	<path d="M371.7,120.7C371.3,120.7,371.3,120.7,371.7,120.7C371.3,120.7,371.3,120.3,371.7,120.7
		C371.7,120.3,371.7,120.7,371.7,120.7L371.7,120.7"/>
	<path d="M355.2,121.4c-0.4,0-0.8-0.4-0.8-0.8c0-0.4,0.4-0.8,0.8-0.8s0.8,0.4,0.8,0.8C356,121.1,355.6,121.4,355.2,121.4"/>
	<path d="M338.7,121.8c-0.8,0-1.5-0.8-1.5-1.5s0.8-1.5,1.5-1.5c0.8,0,1.5,0.8,1.5,1.5C340.2,121.4,339.4,121.8,338.7,121.8"/>
	<path d="M322.5,123c-1.2,0-2.3-1.2-2.3-2.3s1.2-2.3,2.3-2.3c1.2,0,2.3,1.2,2.3,2.3C324.8,121.8,323.7,123,322.5,123"/>
	<path d="M306,123.8c-1.9,0-3.5-1.5-3.5-3.5s1.5-3.5,3.5-3.5s3.5,1.5,3.5,3.5S307.9,123.8,306,123.8"/>
	<path d="M289.9,125.3c-2.7,0-4.6-1.9-4.6-4.6s1.9-4.6,4.6-4.6c2.7,0,4.6,1.9,4.6,4.6C294.1,123,292.2,125.3,289.9,125.3"/>
	<path d="M273.3,126.4c-3.1,0-5.8-2.7-5.8-5.8c0-3.1,2.7-5.8,5.8-5.8c3.1,0,5.8,2.7,5.8,5.8C279.1,123.8,276.4,126.4,273.3,126.4"/>
	<path d="M256.8,128c-4.2,0-7.3-3.5-7.3-7.3s3.5-7.3,7.3-7.3c4.2,0,7.3,3.5,7.3,7.3S261.1,128,256.8,128"/>
	<path d="M240.7,129.1c-4.6,0-8.5-3.8-8.5-8.5c0-4.6,3.8-8.5,8.5-8.5c4.6,0,8.5,3.8,8.5,8.5C249.1,125.3,245.3,129.1,240.7,129.1"/>
	<path d="M224.2,129.1c-4.6,0-8.5-3.8-8.5-8.5c0-4.6,3.8-8.5,8.5-8.5c4.6,0,8.5,3.8,8.5,8.5C232.6,125.3,228.8,129.1,224.2,129.1"/>
	<path d="M207.6,129.1c-4.6,0-8.5-3.8-8.5-8.5c0-4.6,3.8-8.5,8.5-8.5c4.6,0,8.5,3.8,8.5,8.5C216.1,125.3,212.2,129.1,207.6,129.1"/>
	<path d="M191.5,129.1c-4.6,0-8.5-3.8-8.5-8.5c0-4.6,3.8-8.5,8.5-8.5s8.5,3.8,8.5,8.5C199.9,125.3,196.1,129.1,191.5,129.1"/>
	<path d="M175,129.1c-4.6,0-8.5-3.8-8.5-8.5c0-4.6,3.8-8.5,8.5-8.5s8.5,3.8,8.5,8.5C183.4,125.3,179.6,129.1,175,129.1"/>
	<path d="M158.4,129.1c-4.6,0-8.5-3.8-8.5-8.5c0-4.6,3.8-8.5,8.5-8.5c4.6,0,8.5,3.8,8.5,8.5C166.9,125.3,163.4,129.1,158.4,129.1"/>
	<path d="M142.3,129.1c-4.6,0-8.5-3.8-8.5-8.5c0-4.6,3.8-8.5,8.5-8.5c4.6,0,8.5,3.8,8.5,8.5C150.8,125.3,146.9,129.1,142.3,129.1"/>
	<path d="M125.8,127.6c-3.8,0-6.9-3.1-6.9-6.9s3.1-6.9,6.9-6.9c3.8,0,6.9,3.1,6.9,6.9S129.6,127.6,125.8,127.6"/>
	<path d="M109.2,126.1c-3.1,0-5.4-2.3-5.4-5.4c0-3.1,2.3-5.4,5.4-5.4c3.1,0,5.4,2.3,5.4,5.4C114.6,123.8,112.3,126.1,109.2,126.1"/>
	<path d="M93.1,124.9c-2.3,0-4.2-1.9-4.2-4.2s1.9-4.2,4.2-4.2s4.2,1.9,4.2,4.2C97.3,123,95.4,124.9,93.1,124.9"/>
	<path d="M76.6,123.8c-1.5,0-3.1-1.2-3.1-3.1c0-1.5,1.2-3.1,3.1-3.1c1.5,0,3.1,1.2,3.1,3.1C79.7,122.2,78.1,123.8,76.6,123.8"/>
	<path d="M60.4,122.6c-1.2,0-1.9-0.8-1.9-1.9s0.8-1.9,1.9-1.9c1.2,0,1.9,0.8,1.9,1.9S61.2,122.6,60.4,122.6"/>
	<path d="M43.9,121.8c-0.8,0-1.2-0.4-1.2-1.2c0-0.8,0.4-1.2,1.2-1.2c0.8,0,1.2,0.4,1.2,1.2C45.1,121.1,44.3,121.8,43.9,121.8"/>
	<path d="M27.4,121.1c-0.4,0-0.4-0.4-0.4-0.4c0-0.4,0.4-0.4,0.4-0.4c0.4,0,0.4,0.4,0.4,0.4C28.2,121.1,27.8,121.1,27.4,121.1"/>
	<path d="M363.3,137.2L363.3,137.2c-0.4-0.4,0-0.4,0-0.4C363.7,136.8,363.7,136.8,363.3,137.2C363.7,137.2,363.7,137.2,363.3,137.2"
		/>
	<path d="M347.1,137.6c-0.4,0-0.8-0.4-0.8-0.8s0.4-0.8,0.8-0.8s0.8,0.4,0.8,0.8C347.9,137.6,347.5,137.6,347.1,137.6"/>
	<path d="M330.6,138.4c-0.8,0-1.5-0.8-1.5-1.5c0-0.8,0.8-1.5,1.5-1.5c0.8,0,1.5,0.8,1.5,1.5C332.1,138,331.4,138.4,330.6,138.4"/>
	<path d="M314.1,139.5c-1.2,0-2.3-1.2-2.3-2.3s1.2-2.3,2.3-2.3c1.2,0,2.3,1.2,2.3,2.3C316.8,138.4,315.6,139.5,314.1,139.5"/>
	<path d="M297.9,140.7c-1.9,0-3.5-1.5-3.5-3.5s1.5-3.5,3.5-3.5s3.5,1.5,3.5,3.5S299.9,140.7,297.9,140.7"/>
	<path d="M281.4,141.8c-2.7,0-4.6-2.3-4.6-4.6c0-2.7,1.9-4.6,4.6-4.6c2.7,0,4.6,2.3,4.6,4.6S284.1,141.8,281.4,141.8"/>
	<path d="M265.3,143.4c-3.5,0-6.1-2.7-6.1-6.1c0-3.5,2.7-6.1,6.1-6.1s6.1,2.7,6.1,6.1C271.4,140.3,268.4,143.4,265.3,143.4"/>
	<path d="M248.8,144.9c-4.2,0-7.7-3.5-7.7-7.7s3.5-7.7,7.7-7.7s7.7,3.5,7.7,7.7S253,144.9,248.8,144.9"/>
	<path d="M232.2,145.7c-4.6,0-8.5-3.8-8.5-8.5c0-4.6,3.8-8.5,8.5-8.5c4.6,0,8.5,3.8,8.5,8.5C240.7,141.8,236.8,145.7,232.2,145.7"/>
	<path d="M216.1,145.7c-4.6,0-8.5-3.8-8.5-8.5c0-4.6,3.8-8.5,8.5-8.5s8.5,3.8,8.5,8.5C224.5,141.8,220.7,145.7,216.1,145.7"/>
	<path d="M199.6,145.7c-4.6,0-8.5-3.8-8.5-8.5c0-4.6,3.8-8.5,8.5-8.5c4.6,0,8.5,3.8,8.5,8.5C208,141.8,204.2,145.7,199.6,145.7"/>
	<path d="M183,145.7c-4.6,0-8.5-3.8-8.5-8.5c0-4.6,3.8-8.5,8.5-8.5c4.6,0,8.5,3.8,8.5,8.5C191.5,141.8,187.6,145.7,183,145.7"/>
	<path d="M166.9,145.7c-4.6,0-8.5-3.8-8.5-8.5c0-4.6,3.8-8.5,8.5-8.5c4.6,0,8.5,3.8,8.5,8.5C175.3,141.8,171.5,145.7,166.9,145.7"/>
	<path d="M150.4,145.7c-4.6,0-8.5-3.8-8.5-8.5c0-4.6,3.8-8.5,8.5-8.5s8.5,3.8,8.5,8.5C158.8,141.8,155,145.7,150.4,145.7"/>
	<path d="M133.8,145.7c-4.6,0-8.5-3.8-8.5-8.5c0-4.6,3.8-8.5,8.5-8.5c4.6,0,8.5,3.8,8.5,8.5C142.3,141.8,138.8,145.7,133.8,145.7"/>
	<path d="M117.7,144.1c-3.8,0-7.3-3.1-7.3-7.3c0-3.8,3.1-7.3,7.3-7.3c3.8,0,7.3,3.1,7.3,7.3C124.6,141,121.5,144.1,117.7,144.1"/>
	<path d="M101.2,142.6c-3.1,0-5.8-2.7-5.8-5.8c0-3.1,2.7-5.8,5.8-5.8s5.8,2.7,5.8,5.8C106.9,139.9,104.3,142.6,101.2,142.6"/>
	<path d="M84.7,141.4c-2.3,0-4.2-1.9-4.2-4.2s1.9-4.2,4.2-4.2c2.3,0,4.2,1.9,4.2,4.2S87.3,141.4,84.7,141.4"/>
	<path d="M68.5,140.3c-1.5,0-3.1-1.5-3.1-3.1s1.5-3.1,3.1-3.1c1.5,0,3.1,1.5,3.1,3.1C71.6,138.7,70,140.3,68.5,140.3"/>
	<path d="M52,139.1c-1.2,0-1.9-0.8-1.9-1.9s0.8-1.9,1.9-1.9c1.2,0,1.9,0.8,1.9,1.9C54.3,138.4,53.1,139.1,52,139.1"/>
	<path d="M35.8,138.4c-0.8,0-1.2-0.4-1.2-1.2s0.4-1.2,1.2-1.2s1.2,0.4,1.2,1.2S36.2,138.4,35.8,138.4"/>
	<path d="M19.3,137.6c-0.4,0-0.4-0.4-0.4-0.4c0-0.4,0.4-0.4,0.4-0.4c0.4,0,0.4,0.4,0.4,0.4C19.7,137.2,19.7,137.6,19.3,137.6"/>
	<path d="M371.7,153.7C371.3,153.7,371.3,153.7,371.7,153.7C371.3,153.3,371.3,153.3,371.7,153.7
		C371.7,153.3,371.7,153.3,371.7,153.7L371.7,153.7"/>
	<path d="M355.2,154.1c-0.4,0-0.8-0.4-0.8-0.8c0-0.4,0.4-0.8,0.8-0.8s0.8,0.4,0.8,0.8C356,153.7,355.6,154.1,355.2,154.1"/>
	<path d="M338.7,154.9c-0.8,0-1.5-0.8-1.5-1.5s0.8-1.5,1.5-1.5c0.8,0,1.5,0.8,1.5,1.5S339.4,154.9,338.7,154.9"/>
	<path d="M322.5,155.6c-1.2,0-2.3-1.2-2.3-2.3s1.2-2.3,2.3-2.3c1.2,0,2.3,1.2,2.3,2.3S323.7,155.6,322.5,155.6"/>
	<path d="M306,156.8c-1.9,0-3.5-1.5-3.5-3.5s1.5-3.5,3.5-3.5s3.5,1.5,3.5,3.5S307.9,156.8,306,156.8"/>
	<path d="M289.9,158c-2.7,0-4.6-1.9-4.6-4.6c0-2.7,1.9-4.6,4.6-4.6c2.7,0,4.6,1.9,4.6,4.6C294.1,156,292.2,158,289.9,158"/>
	<path d="M273.3,159.5c-3.1,0-5.8-2.7-5.8-5.8s2.7-5.8,5.8-5.8c3.1,0,5.8,2.7,5.8,5.8S276.4,159.5,273.3,159.5"/>
	<path d="M256.8,161c-4.2,0-7.3-3.5-7.3-7.3c0-3.8,3.5-7.3,7.3-7.3c4.2,0,7.3,3.5,7.3,7.3C264.1,157.6,261.1,161,256.8,161"/>
	<path d="M240.7,161.8c-4.6,0-8.5-3.8-8.5-8.5s3.8-8.5,8.5-8.5c4.6,0,8.5,3.8,8.5,8.5C249.1,158,245.3,161.8,240.7,161.8"/>
	<path d="M224.2,161.8c-4.6,0-8.5-3.8-8.5-8.5s3.8-8.5,8.5-8.5c4.6,0,8.5,3.8,8.5,8.5S228.8,161.8,224.2,161.8"/>
	<path d="M207.6,161.8c-4.6,0-8.5-3.8-8.5-8.5s3.8-8.5,8.5-8.5c4.6,0,8.5,3.8,8.5,8.5S212.2,161.8,207.6,161.8"/>
	<path d="M191.5,161.8c-4.6,0-8.5-3.8-8.5-8.5s3.8-8.5,8.5-8.5s8.5,3.8,8.5,8.5C199.9,158,196.1,161.8,191.5,161.8"/>
	<path d="M175,161.8c-4.6,0-8.5-3.8-8.5-8.5s3.8-8.5,8.5-8.5s8.5,3.8,8.5,8.5S179.6,161.8,175,161.8"/>
	<path d="M158.4,161.8c-4.6,0-8.5-3.8-8.5-8.5s3.8-8.5,8.5-8.5c4.6,0,8.5,3.8,8.5,8.5S163.4,161.8,158.4,161.8"/>
	<path d="M142.3,161.8c-4.6,0-8.5-3.8-8.5-8.5s3.8-8.5,8.5-8.5c4.6,0,8.5,3.8,8.5,8.5S146.9,161.8,142.3,161.8"/>
	<path d="M125.8,160.3c-3.8,0-6.9-3.1-6.9-6.9c0-3.8,3.1-6.9,6.9-6.9c3.8,0,6.9,3.1,6.9,6.9C132.7,157.2,129.6,160.3,125.8,160.3"/>
	<path d="M109.2,158.7c-3.1,0-5.4-2.3-5.4-5.4c0-3.1,2.3-5.4,5.4-5.4c3.1,0,5.4,2.3,5.4,5.4C114.6,156.4,112.3,158.7,109.2,158.7"/>
	<path d="M93.1,157.6c-2.3,0-4.2-1.9-4.2-4.2s1.9-4.2,4.2-4.2s4.2,1.9,4.2,4.2C97.3,155.6,95.4,157.6,93.1,157.6"/>
	<path d="M76.6,156.4c-1.5,0-3.1-1.2-3.1-3.1c0-1.5,1.2-3.1,3.1-3.1c1.5,0,3.1,1.2,3.1,3.1S78.1,156.4,76.6,156.4"/>
	<path d="M60.4,155.3c-1.2,0-1.9-0.8-1.9-1.9s0.8-1.9,1.9-1.9c1.2,0,1.9,0.8,1.9,1.9S61.2,155.3,60.4,155.3"/>
	<path d="M43.9,154.5c-0.8,0-1.2-0.4-1.2-1.2s0.4-1.2,1.2-1.2c0.8,0,1.2,0.4,1.2,1.2S44.3,154.5,43.9,154.5"/>
	<path d="M27.4,154.1c-0.4,0-0.4-0.4-0.4-0.4c0-0.4,0.4-0.4,0.4-0.4c0.4,0,0.4,0.4,0.4,0.4C28.2,153.7,27.8,154.1,27.4,154.1"/>
	<path d="M363.3,169.9L363.3,169.9L363.3,169.9C363.7,169.9,363.7,169.9,363.3,169.9C363.7,169.9,363.7,169.9,363.3,169.9"/>
	<path d="M347.1,170.3c-0.4,0-0.4-0.4-0.4-0.4c0-0.4,0.4-0.4,0.4-0.4c0.4,0,0.4,0.4,0.4,0.4C347.5,170.3,347.5,170.3,347.1,170.3"/>
	<path d="M330.6,171c-0.8,0-1.2-0.4-1.2-1.2c0-0.8,0.4-1.2,1.2-1.2c0.8,0,1.2,0.4,1.2,1.2C331.8,170.6,331.4,171,330.6,171"/>
	<path d="M314.1,171.8c-1.2,0-1.9-0.8-1.9-1.9s0.8-1.9,1.9-1.9c1.2,0,1.9,0.8,1.9,1.9C316.4,171,315.2,171.8,314.1,171.8"/>
	<path d="M297.9,172.9c-1.5,0-3.1-1.2-3.1-3.1c0-1.5,1.2-3.1,3.1-3.1c1.5,0,3.1,1.2,3.1,3.1C300.6,171.4,299.5,172.9,297.9,172.9"/>
	<path d="M281.4,173.7c-2.3,0-3.8-1.9-3.8-3.8c0-2.3,1.9-3.8,3.8-3.8c2.3,0,3.8,1.9,3.8,3.8C285.6,172.2,283.7,173.7,281.4,173.7"/>
	<path d="M265.3,175.2c-2.7,0-5-2.3-5-5.4s2.3-5.4,5-5.4c2.7,0,5,2.3,5,5.4S268,175.2,265.3,175.2"/>
	<path d="M248.8,176.4c-3.5,0-6.5-3.1-6.5-6.5s3.1-6.5,6.5-6.5c3.5,0,6.5,3.1,6.5,6.5S252.2,176.4,248.8,176.4"/>
	<path d="M232.2,177.6c-4.2,0-7.7-3.5-7.7-7.7s3.5-7.7,7.7-7.7s7.7,3.5,7.7,7.7C239.9,174.1,236.5,177.6,232.2,177.6"/>
	<path d="M216.1,178.3c-4.6,0-8.5-3.8-8.5-8.5c0-4.6,3.8-8.5,8.5-8.5s8.5,3.8,8.5,8.5C224.5,174.5,220.7,178.3,216.1,178.3"/>
	<path d="M199.6,178.3c-4.6,0-8.5-3.8-8.5-8.5c0-4.6,3.8-8.5,8.5-8.5c4.6,0,8.5,3.8,8.5,8.5C208,174.5,204.2,178.3,199.6,178.3"/>
	<path d="M183,178.3c-4.6,0-8.5-3.8-8.5-8.5c0-4.6,3.8-8.5,8.5-8.5c4.6,0,8.5,3.8,8.5,8.5C191.5,174.5,187.6,178.3,183,178.3"/>
	<path d="M166.9,178.3c-4.6,0-8.5-3.8-8.5-8.5c0-4.6,3.8-8.5,8.5-8.5c4.6,0,8.5,3.8,8.5,8.5C175.3,174.5,171.5,178.3,166.9,178.3"/>
	<path d="M150.4,178.3c-4.6,0-8.5-3.8-8.5-8.5c0-4.6,3.8-8.5,8.5-8.5s8.5,3.8,8.5,8.5C158.8,174.5,155,178.3,150.4,178.3"/>
	<path d="M133.8,177.2c-3.8,0-7.3-3.1-7.3-7.3s3.1-7.3,7.3-7.3c3.8,0,7.3,3.5,7.3,7.3C141.1,173.7,138.1,177.2,133.8,177.2"/>
	<path d="M117.7,176c-3.5,0-6.1-2.7-6.1-6.1c0-3.5,2.7-6.1,6.1-6.1c3.5,0,6.1,2.7,6.1,6.1C123.5,173.3,120.8,176,117.7,176"/>
	<path d="M101.2,174.5c-2.7,0-4.6-2.3-4.6-4.6s2.3-4.6,4.6-4.6c2.7,0,4.6,2.3,4.6,4.6S103.9,174.5,101.2,174.5"/>
	<path d="M84.7,173.7c-1.9,0-3.5-1.5-3.5-3.5c0-1.9,1.5-3.5,3.5-3.5c1.9,0,3.5,1.5,3.5,3.5C88.5,171.8,87,173.7,84.7,173.7"/>
	<path d="M68.5,172.6c-1.5,0-2.7-1.2-2.7-2.7c0-1.5,1.2-2.7,2.7-2.7s2.7,1.2,2.7,2.7C71.2,171.4,70,172.6,68.5,172.6"/>
	<path d="M52,171.4c-0.8,0-1.5-0.8-1.5-1.5s0.8-1.5,1.5-1.5s1.5,0.8,1.5,1.5C53.9,170.6,53.1,171.4,52,171.4"/>
	<path d="M35.8,170.6c-0.4,0-0.8-0.4-0.8-0.8s0.4-0.8,0.8-0.8c0.4,0,0.8,0.4,0.8,0.8C36.6,170.3,36.2,170.6,35.8,170.6"/>
	<path d="M19.3,170.3C18.9,170.3,18.9,170.3,19.3,170.3c-0.4-0.4-0.4-0.8,0-0.8C19.3,169.5,19.7,169.9,19.3,170.3
		C19.7,170.3,19.3,170.3,19.3,170.3"/>
	<path d="M371.7,186.4L371.7,186.4L371.7,186.4L371.7,186.4L371.7,186.4"/>
	<path d="M355.2,186.8C355.2,186.8,354.8,186.4,355.2,186.8c-0.4-0.4,0-0.8,0-0.8C355.6,186,355.6,186,355.2,186.8
		C355.6,186.4,355.6,186.8,355.2,186.8"/>
	<path d="M338.7,187.2c-0.4,0-0.8-0.4-0.8-0.8c0-0.4,0.4-0.8,0.8-0.8c0.4,0,0.8,0.4,0.8,0.8C339.4,186.8,339.4,187.2,338.7,187.2"/>
	<path d="M322.5,187.9c-0.8,0-1.5-0.8-1.5-1.5c0-0.8,0.8-1.5,1.5-1.5c0.8,0,1.5,0.8,1.5,1.5C324.1,187.2,323.3,187.9,322.5,187.9"/>
	<path d="M306,188.7c-1.2,0-2.3-1.2-2.3-2.3s1.2-2.3,2.3-2.3c1.2,0,2.3,1.2,2.3,2.3C308.3,187.5,307.2,188.7,306,188.7"/>
	<path d="M289.9,189.5c-1.9,0-3.1-1.5-3.1-3.1c0-1.9,1.5-3.1,3.1-3.1c1.9,0,3.1,1.5,3.1,3.1C292.9,187.9,291.4,189.5,289.9,189.5"/>
	<path d="M273.3,190.6c-2.3,0-4.2-1.9-4.2-4.2s1.9-4.2,4.2-4.2s4.2,1.9,4.2,4.2C277.6,188.7,275.7,190.6,273.3,190.6"/>
	<path d="M256.8,191.4c-2.7,0-5-2.3-5-5.4s2.3-5.4,5-5.4c2.7,0,5,2.3,5,5.4S259.9,191.4,256.8,191.4"/>
	<path d="M240.7,192.5c-3.5,0-6.1-2.7-6.1-6.1c0-3.5,2.7-6.1,6.1-6.1s6.1,2.7,6.1,6.1C246.8,189.9,243.8,192.5,240.7,192.5"/>
	<path d="M224.2,193.3c-3.8,0-6.9-3.1-6.9-6.9c0-3.8,3.1-6.9,6.9-6.9c3.8,0,6.9,3.1,6.9,6.9S228,193.3,224.2,193.3"/>
	<path d="M207.6,193.7c-4.2,0-7.3-3.5-7.3-7.3c0-4.2,3.5-7.3,7.3-7.3c4.2,0,7.3,3.5,7.3,7.3C215.3,190.6,211.9,193.7,207.6,193.7"/>
	<path d="M191.5,194.1c-4.2,0-7.7-3.5-7.7-7.7s3.5-7.7,7.7-7.7s7.7,3.5,7.7,7.7C198.8,190.6,195.7,194.1,191.5,194.1"/>
	<path d="M175,193.7c-4.2,0-7.3-3.5-7.3-7.3c0-4.2,3.5-7.3,7.3-7.3c4.2,0,7.3,3.5,7.3,7.3C182.3,190.2,179.2,193.7,175,193.7"/>
	<path d="M158.4,192.9c-3.8,0-6.5-3.1-6.5-6.5c0-3.8,3.1-6.5,6.5-6.5c3.8,0,6.5,3.1,6.5,6.5C165.4,189.9,162.3,192.9,158.4,192.9"/>
	<path d="M142.3,192.2c-3.1,0-5.8-2.7-5.8-5.8s2.7-5.8,5.8-5.8c3.1,0,5.8,2.7,5.8,5.8S145.4,192.2,142.3,192.2"/>
	<path d="M125.8,191c-2.7,0-5-2.3-5-5c0-2.7,2.3-5,5-5c2.7,0,5,2.3,5,5C130.8,189.1,128.5,191,125.8,191"/>
	<path d="M109.2,190.2c-2.3,0-3.8-1.9-3.8-3.8c0-2.3,1.5-3.8,3.8-3.8s3.8,1.9,3.8,3.8C113.1,188.3,111.6,190.2,109.2,190.2"/>
	<path d="M93.1,189.1c-1.5,0-3.1-1.2-3.1-3.1c0-1.5,1.2-3.1,3.1-3.1c1.5,0,3.1,1.2,3.1,3.1C95.8,187.9,94.6,189.1,93.1,189.1"/>
	<path d="M76.6,188.3c-1.2,0-1.9-0.8-1.9-1.9s0.8-1.9,1.9-1.9s1.9,0.8,1.9,1.9S77.7,188.3,76.6,188.3"/>
	<path d="M60.4,187.5c-0.8,0-1.2-0.4-1.2-1.2c0-0.8,0.4-1.2,1.2-1.2s1.2,0.4,1.2,1.2S60.8,187.5,60.4,187.5"/>
	<path d="M43.9,186.8c-0.4,0-0.8-0.4-0.8-0.8c0-0.4,0.4-0.8,0.8-0.8c0.4,0,0.8,0.4,0.8,0.8C44.7,186.4,44.3,186.8,43.9,186.8"/>
	<path d="M27.4,186.4L27.4,186.4C27.4,186.4,27.4,186,27.4,186.4C27.4,186,27.8,186.4,27.4,186.4C27.8,186.4,27.4,186.4,27.4,186.4"
		/>
	<path d="M347.1,202.9C347.1,202.9,346.8,202.9,347.1,202.9C346.8,202.5,347.1,202.5,347.1,202.9
		C347.1,202.5,347.1,202.5,347.1,202.9L347.1,202.9"/>
	<path d="M330.6,203.3c-0.4,0-0.4-0.4-0.4-0.4c0-0.4,0.4-0.4,0.4-0.4c0.4,0,0.4,0.4,0.4,0.4S331,203.3,330.6,203.3"/>
	<path d="M314.1,203.7c-0.4,0-1.2-0.4-1.2-1.2c0-0.4,0.4-1.2,1.2-1.2c0.4,0,1.2,0.4,1.2,1.2C315.2,203.3,314.9,203.7,314.1,203.7"/>
	<path d="M297.9,204.5c-0.8,0-1.5-0.8-1.5-1.5s0.8-1.5,1.5-1.5c0.8,0,1.5,0.8,1.5,1.5S298.7,204.5,297.9,204.5"/>
	<path d="M281.4,205.2c-1.2,0-2.3-1.2-2.3-2.3s1.2-2.3,2.3-2.3c1.2,0,2.3,1.2,2.3,2.3S283,205.2,281.4,205.2"/>
	<path d="M265.3,206c-1.9,0-3.1-1.5-3.1-3.1c0-1.9,1.5-3.1,3.1-3.1c1.9,0,3.1,1.5,3.1,3.1S266.8,206,265.3,206"/>
	<path d="M248.8,206.8c-2.3,0-3.8-1.9-3.8-3.8s1.9-3.8,3.8-3.8c2.3,0,3.8,1.9,3.8,3.8S250.7,206.8,248.8,206.8"/>
	<path d="M232.2,207.1c-2.7,0-4.6-1.9-4.6-4.6c0-2.7,1.9-4.6,4.6-4.6c2.7,0,4.6,1.9,4.6,4.6C236.8,205.2,234.9,207.1,232.2,207.1"/>
	<path d="M216.1,207.9c-2.7,0-5-2.3-5-5s2.3-5,5-5c2.7,0,5,2.3,5,5S218.8,207.9,216.1,207.9"/>
	<path d="M199.6,208.3c-3.1,0-5.4-2.3-5.4-5.4s2.3-5.4,5.4-5.4c3.1,0,5.4,2.3,5.4,5.4C204.9,205.6,202.6,208.3,199.6,208.3"/>
	<path d="M183,208.3c-3.1,0-5.4-2.3-5.4-5.4s2.3-5.4,5.4-5.4c3.1,0,5.4,2.3,5.4,5.4C188.8,206,186.1,208.3,183,208.3"/>
	<path d="M166.9,208.3c-3.1,0-5.4-2.3-5.4-5.4s2.3-5.4,5.4-5.4c3.1,0,5.4,2.3,5.4,5.4S169.6,208.3,166.9,208.3"/>
	<path d="M150.4,207.5c-2.7,0-5-2.3-5-5c0-2.7,2.3-5,5-5c2.7,0,5,2.3,5,5C155.4,205.6,153.1,207.5,150.4,207.5"/>
	<path d="M133.8,207.1c-2.3,0-4.2-1.9-4.2-4.2s1.9-4.2,4.2-4.2c2.3,0,4.2,1.9,4.2,4.2C138.5,205.2,136.5,207.1,133.8,207.1"/>
	<path d="M117.7,206.4c-1.9,0-3.5-1.5-3.5-3.5s1.5-3.5,3.5-3.5c1.9,0,3.5,1.5,3.5,3.5C121.2,204.8,119.6,206.4,117.7,206.4"/>
	<path d="M101.2,205.6c-1.5,0-2.7-1.2-2.7-2.7s1.2-2.7,2.7-2.7s2.7,1.2,2.7,2.7C104.3,204.5,102.7,205.6,101.2,205.6"/>
	<path d="M84.7,204.8c-1.2,0-1.9-0.8-1.9-1.9s0.8-1.9,1.9-1.9c1.2,0,1.9,0.8,1.9,1.9S85.8,204.8,84.7,204.8"/>
	<path d="M68.5,204.1c-0.8,0-1.5-0.8-1.5-1.5c0-0.8,0.8-1.5,1.5-1.5s1.5,0.8,1.5,1.5C70,203.3,69.3,204.1,68.5,204.1"/>
	<path d="M52,203.7c-0.4,0-0.8-0.4-0.8-0.8s0.4-0.8,0.8-0.8c0.4,0,0.8,0.4,0.8,0.8S52.4,203.7,52,203.7"/>
	<path d="M35.8,202.9C35.5,202.9,35.5,202.9,35.8,202.9c-0.4-0.4,0-0.8,0-0.8C35.8,202.5,35.8,202.5,35.8,202.9L35.8,202.9"/>
	<path d="M19.3,202.9L19.3,202.9C19.3,202.5,19.3,202.5,19.3,202.9C19.3,202.5,19.3,202.5,19.3,202.9L19.3,202.9"/>
	<path d="M338.7,219.4L338.7,219.4C338.7,219.1,338.7,219.1,338.7,219.4C339.1,219.1,339.1,219.1,338.7,219.4
		C339.1,219.4,339.1,219.4,338.7,219.4"/>
	<path d="M322.5,219.8c-0.4,0-0.4-0.4-0.4-0.4c0-0.4,0.4-0.4,0.4-0.4c0.4,0,0.4,0.4,0.4,0.4L322.5,219.8"/>
	<path d="M306,220.2c-0.4,0-0.8-0.4-0.8-0.8c0-0.4,0.4-0.8,0.8-0.8s0.8,0.4,0.8,0.8C306.8,219.8,306.8,220.2,306,220.2"/>
	<path d="M289.9,220.6c-0.8,0-1.5-0.8-1.5-1.5s0.8-1.5,1.5-1.5c0.8,0,1.5,0.8,1.5,1.5S290.6,220.6,289.9,220.6"/>
	<path d="M273.3,221.4c-1.2,0-1.9-0.8-1.9-1.9c0-1.2,0.8-1.9,1.9-1.9c1.2,0,1.9,0.8,1.9,1.9C275.3,220.2,274.5,221.4,273.3,221.4"/>
	<path d="M256.8,221.7c-1.5,0-2.7-1.2-2.7-2.7s1.2-2.7,2.7-2.7c1.5,0,2.7,1.2,2.7,2.7S258.4,221.7,256.8,221.7"/>
	<path d="M240.7,222.1c-1.5,0-3.1-1.5-3.1-3.1s1.5-3.1,3.1-3.1c1.5,0,3.1,1.5,3.1,3.1C243.8,221,242.2,222.1,240.7,222.1"/>
	<path d="M224.2,222.5c-1.9,0-3.5-1.5-3.5-3.5s1.5-3.5,3.5-3.5c1.9,0,3.5,1.5,3.5,3.5S226.1,222.5,224.2,222.5"/>
	<path d="M207.6,222.9c-1.9,0-3.8-1.5-3.8-3.8c0-1.9,1.5-3.8,3.8-3.8c1.9,0,3.8,1.5,3.8,3.8S209.9,222.9,207.6,222.9"/>
	<path d="M191.5,222.9c-1.9,0-3.8-1.5-3.8-3.8s1.5-3.8,3.8-3.8c1.9,0,3.8,1.5,3.8,3.8S193.4,222.9,191.5,222.9"/>
	<path d="M175,222.9c-1.9,0-3.8-1.5-3.8-3.8s1.5-3.8,3.8-3.8c1.9,0,3.8,1.5,3.8,3.8S176.9,222.9,175,222.9"/>
	<path d="M158.4,222.5c-1.9,0-3.5-1.5-3.5-3.5s1.5-3.5,3.5-3.5c1.9,0,3.5,1.5,3.5,3.5S160.4,222.5,158.4,222.5"/>
	<path d="M142.3,222.1c-1.5,0-3.1-1.2-3.1-3.1c0-1.5,1.2-3.1,3.1-3.1c1.5,0,3.1,1.2,3.1,3.1C145,221,143.8,222.1,142.3,222.1"/>
	<path d="M125.8,221.7c-1.2,0-2.3-1.2-2.3-2.3s1.2-2.3,2.3-2.3s2.3,1.2,2.3,2.3C128.1,220.6,127.3,221.7,125.8,221.7"/>
	<path d="M109.2,221c-1.2,0-1.9-0.8-1.9-1.9s0.8-1.9,1.9-1.9s1.9,0.8,1.9,1.9S110.4,221,109.2,221"/>
	<path d="M93.1,220.6c-0.8,0-1.2-0.8-1.2-1.2c0-0.8,0.8-1.2,1.2-1.2c0.8,0,1.2,0.8,1.2,1.2C94.3,219.8,93.9,220.6,93.1,220.6"/>
	<path d="M76.6,219.8c-0.4,0-0.8-0.4-0.8-0.8s0.4-0.8,0.8-0.8c0.4,0,0.8,0.4,0.8,0.8S77,219.8,76.6,219.8"/>
	<path d="M60.4,219.4C60.1,219.4,60.1,219.4,60.4,219.4c-0.4-0.4-0.4-0.8,0-0.8C60.4,218.7,60.4,219.1,60.4,219.4L60.4,219.4"/>
	<path d="M43.9,219.1L43.9,219.1L43.9,219.1L43.9,219.1L43.9,219.1"/>
	<path d="M314.1,235.6L314.1,235.6L314.1,235.6C314.5,235.6,314.5,235.6,314.1,235.6C314.5,235.6,314.5,235.6,314.1,235.6"/>
	<path d="M297.9,236c-0.4,0-0.4,0-0.4-0.4c0-0.4,0-0.4,0.4-0.4s0.4,0,0.4,0.4C298.3,236,297.9,236,297.9,236"/>
	<path d="M281.4,236.4c-0.4,0-0.8-0.4-0.8-0.8c0-0.4,0.4-0.8,0.8-0.8c0.4,0,0.8,0.4,0.8,0.8C282.2,236,281.8,236.4,281.4,236.4"/>
	<path d="M265.3,236.7c-0.8,0-1.2-0.4-1.2-1.2c0-0.8,0.4-1.2,1.2-1.2c0.8,0,1.2,0.4,1.2,1.2C266,236.4,265.7,236.7,265.3,236.7"/>
	<path d="M248.8,237.1c-0.8,0-1.5-0.8-1.5-1.5c0-0.8,0.8-1.5,1.5-1.5c0.8,0,1.5,0.8,1.5,1.5C250.3,236.4,249.5,237.1,248.8,237.1"/>
	<path d="M232.2,237.5c-1.2,0-1.9-0.8-1.9-1.9c0-1.2,0.8-1.9,1.9-1.9s1.9,0.8,1.9,1.9C234.1,236.7,233.4,237.5,232.2,237.5"/>
	<path d="M216.1,237.9c-1.2,0-2.3-0.8-2.3-2.3c0-1.2,0.8-2.3,2.3-2.3c1.2,0,2.3,0.8,2.3,2.3C218,236.7,217.2,237.9,216.1,237.9"/>
	<path d="M199.6,237.9c-1.2,0-2.3-1.2-2.3-2.3s1.2-2.3,2.3-2.3s2.3,1.2,2.3,2.3S200.7,237.9,199.6,237.9"/>
	<path d="M183,237.9c-1.2,0-2.3-1.2-2.3-2.3s1.2-2.3,2.3-2.3s2.3,1.2,2.3,2.3S184.6,237.9,183,237.9"/>
	<path d="M166.9,237.9c-1.2,0-2.3-1.2-2.3-2.3s1.2-2.3,2.3-2.3s2.3,1.2,2.3,2.3C168.8,236.7,168,237.9,166.9,237.9"/>
	<path d="M150.4,237.5c-1.2,0-1.9-0.8-1.9-1.9c0-1.2,0.8-1.9,1.9-1.9s1.9,0.8,1.9,1.9C152.3,236.7,151.5,237.5,150.4,237.5"/>
	<path d="M133.8,237.5c-1.2,0-1.9-0.8-1.9-1.9c0-1.2,0.8-1.9,1.9-1.9c1.2,0,1.9,0.8,1.9,1.9C135.8,236.7,135,237.5,133.8,237.5"/>
	<path d="M117.7,237.1c-0.8,0-1.5-0.8-1.5-1.5c0-0.8,0.8-1.5,1.5-1.5c0.8,0,1.5,0.8,1.5,1.5C119.2,236.4,118.5,237.1,117.7,237.1"/>
	<path d="M101.2,236.7c-0.4,0-1.2-0.4-1.2-1.2c0-0.4,0.4-1.2,1.2-1.2c0.4,0,1.2,0.4,1.2,1.2C102.3,236,101.9,236.7,101.2,236.7"/>
	<path d="M84.7,236.4c-0.4,0-0.8-0.4-0.8-0.8c0-0.4,0.4-0.8,0.8-0.8c0.4,0,0.8,0.4,0.8,0.8C85.4,236,85,236.4,84.7,236.4"/>
	<path d="M68.5,236C68.1,236,68.1,235.6,68.5,236c-0.4-0.4,0-0.8,0-0.8S68.9,235.6,68.5,236C68.9,235.6,68.5,236,68.5,236"/>
	<path d="M52,235.6L52,235.6L52,235.6L52,235.6L52,235.6"/>
	<path d="M306,252.1L306,252.1L306,252.1L306,252.1L306,252.1"/>
	<path d="M289.9,252.1C289.5,252.1,289.5,252.1,289.9,252.1c-0.4-0.4,0-0.4,0-0.4S289.9,251.7,289.9,252.1L289.9,252.1"/>
	<path d="M273.3,252.5c-0.4,0-0.4,0-0.4-0.4s0-0.4,0.4-0.4s0.4,0,0.4,0.4C273.7,252.1,273.3,252.5,273.3,252.5"/>
	<path d="M256.8,252.5c-0.4,0-0.8-0.4-0.8-0.8c0-0.4,0.4-0.8,0.8-0.8s0.8,0.4,0.8,0.8C257.6,252.5,257.2,252.5,256.8,252.5"/>
	<path d="M240.7,252.9c-0.4,0-0.8-0.4-0.8-0.8s0.4-0.8,0.8-0.8c0.4,0,0.8,0.4,0.8,0.8C241.5,252.5,241.1,252.9,240.7,252.9"/>
	<path d="M224.2,252.9c-0.8,0-1.2-0.4-1.2-1.2c0-0.4,0.4-1.2,1.2-1.2c0.8,0,1.2,0.4,1.2,1.2C225.3,252.5,224.5,252.9,224.2,252.9"/>
	<path d="M207.6,253.3c-0.8,0-1.2-0.4-1.2-1.2s0.4-1.2,1.2-1.2c0.8,0,1.2,0.4,1.2,1.2C208.8,252.5,208.4,253.3,207.6,253.3"/>
	<path d="M191.5,253.3c-0.8,0-1.2-0.4-1.2-1.2s0.4-1.2,1.2-1.2s1.2,0.4,1.2,1.2S191.9,253.3,191.5,253.3"/>
	<path d="M175,253.3c-0.8,0-1.2-0.4-1.2-1.2s0.4-1.2,1.2-1.2s1.2,0.4,1.2,1.2C176.1,252.5,175.7,253.3,175,253.3"/>
	<path d="M158.4,252.9c-0.4,0-1.2-0.4-1.2-1.2c0-0.8,0.4-1.2,1.2-1.2c0.4,0,1.2,0.4,1.2,1.2C159.6,252.5,159.2,252.9,158.4,252.9"/>
	<path d="M142.3,252.9c-0.4,0-0.8-0.4-0.8-0.8s0.4-0.8,0.8-0.8c0.4,0,0.8,0.4,0.8,0.8S142.7,252.9,142.3,252.9"/>
	<path d="M125.8,252.5c-0.4,0-0.8-0.4-0.8-0.8c0-0.4,0.4-0.8,0.8-0.8c0.4,0,0.8,0.4,0.8,0.8C126.5,252.5,126.2,252.5,125.8,252.5"/>
	<path d="M109.2,252.5C109.2,252.5,108.9,252.1,109.2,252.5c-0.4-0.4-0.4-0.8,0-0.8S109.6,251.7,109.2,252.5
		C109.6,252.1,109.6,252.5,109.2,252.5"/>
	<path d="M93.1,252.1C93.1,252.1,92.7,252.1,93.1,252.1C92.7,252.1,93.1,251.7,93.1,252.1C93.1,251.7,93.1,252.1,93.1,252.1
		L93.1,252.1"/>
	<path d="M265.3,268.6C264.9,268.6,264.9,268.6,265.3,268.6C264.9,268.3,264.9,268.3,265.3,268.6
		C265.3,268.3,265.3,268.3,265.3,268.6L265.3,268.6"/>
	<path d="M248.8,268.6L248.8,268.6C248.8,268.3,248.8,268.3,248.8,268.6C248.8,268.3,248.8,268.3,248.8,268.6L248.8,268.6"/>
	<path d="M232.2,268.6L232.2,268.6c-0.4-0.4,0-0.4,0-0.4C232.6,268.3,232.6,268.3,232.2,268.6C232.6,268.6,232.6,268.6,232.2,268.6"
		/>
	<path d="M216.1,268.6C215.7,268.6,215.7,268.6,216.1,268.6c-0.4-0.4,0-0.8,0-0.8C216.1,268.3,216.1,268.3,216.1,268.6L216.1,268.6"
		/>
	<path d="M199.6,268.6C199.2,268.6,199.2,268.6,199.6,268.6c-0.4-0.4-0.4-0.8,0-0.8C199.6,268.3,199.9,268.3,199.6,268.6
		C199.9,268.6,199.6,268.6,199.6,268.6"/>
	<path d="M183,268.6C183,268.6,182.7,268.6,183,268.6c-0.4-0.4-0.4-0.8,0-0.8C183.4,268.3,183.4,268.3,183,268.6
		C183.4,268.6,183.4,268.6,183,268.6"/>
	<path d="M166.9,268.6C166.5,268.6,166.5,268.6,166.9,268.6c-0.4-0.4,0-0.8,0-0.8C166.9,268.3,167.3,268.3,166.9,268.6
		C167.3,268.6,166.9,268.6,166.9,268.6"/>
	<path d="M150.4,268.6C150.4,268.6,150,268.6,150.4,268.6c-0.4-0.4,0-0.4,0-0.4S150.8,268.3,150.4,268.6
		C150.8,268.6,150.4,268.6,150.4,268.6"/>
	<path d="M133.8,268.6L133.8,268.6C133.8,268.3,133.8,268.3,133.8,268.6C134.2,268.3,134.2,268.3,133.8,268.6
		C134.2,268.6,134.2,268.6,133.8,268.6"/>
	<path d="M117.7,268.6L117.7,268.6C117.7,268.3,117.7,268.3,117.7,268.6C117.7,268.3,117.7,268.3,117.7,268.6L117.7,268.6"/>
	<path class="st0" d="M149.2,244c-31.1-20.8-49.6-55-49.6-93c0-61.5,50-111.8,111.4-111.8h50c61.5,0,111.4,50,111.4,111.8
		c0,61.5-50,111.8-111.4,111.8h-50c-3.5,0-7.3,0-10.8-0.4l-43,31.5L149.2,244z M198.8,240.6c4.2,0.8,8.5,0.8,12.3,0.8h50
		c49.6,0,89.9-40.4,89.9-90.3s-40.4-90.3-89.9-90.3h-50c-49.6,0-89.9,40.4-89.9,90.3c0,31.9,16.1,60.7,43.4,77.2l4.2,2.7l4.2,25
		l21.9-16.1L198.8,240.6z"/>
	<path class="st1" d="M105.4,146c0-55.7,45-101.1,100.7-101.1h50c55.7,0,100.7,45.3,100.7,101.1s-45,101.1-100.7,101.1h-50
		c-4.6,0-9.2-0.4-13.8-1.2L160,269.8l-6.1-37.3C125,214.8,105.4,182.9,105.4,146"/>
	<path class="st2" d="M234.1,128h0.8c0,0-71.9,9.6-92.6,35.7c-3.5,4.2-3.5,6.1,0.4,10c27.3,30,57.6,44.6,92.2,44.2v-9.2
		c-0.4,0-0.4,0-0.8,0c-2.7,0-5.4-0.4-8.1-0.8l0,0c-1.2,0-2.3-0.4-3.1-0.8c-0.4,0-0.4,0-0.8-0.4c-1.2-0.4-1.9-0.8-3.1-1.2
		c-1.5-0.8-3.1-1.2-4.2-1.9c-12.7-6.9-21.5-20-21.5-35.7C193.8,146,211.9,128,234.1,128 M190.7,143.7c-8.1,17.7-7.7,33.8,0.8,50
		l3.8,7.7l-7.7-3.8c-11.9-6.1-22.7-13.8-33.4-25c-1.2-1.2-1.9-2.7-1.9-4.2s0.8-3.1,1.9-4.2c10.4-10,20-18.1,33.1-24.2l6.9-3.1
		L190.7,143.7z"/>
	<path class="st2" d="M219.5,206c-1.5-0.8-3.1-1.2-4.2-1.9C216.5,204.8,218,205.2,219.5,206"/>
	<path class="st2" d="M326.8,163.7C306,138,271,121.4,234.5,119.1h-0.4c-36.9,1.9-71.9,18.8-92.2,44.6c-3.5,4.2-3.5,6.1,0.4,10
		c27.3,30,57.6,44.6,91.8,44.2h0.4c34.6,0.4,64.6-14.2,91.8-44.2C329.8,169.9,330.2,167.9,326.8,163.7 M186.9,197.5
		c-11.9-6.1-22.7-13.8-33.4-25c-1.2-1.2-1.9-2.7-1.9-4.2s0.8-3.1,1.9-4.2c10.4-10,20-18.1,33.1-24.2l6.9-3.1l-3.1,6.9
		c-8.1,17.7-7.7,33.8,0.8,50l3.8,7.7L186.9,197.5z M225.3,208.3c0,0-2.3-0.4-3.1-0.8c-0.4,0-0.4,0-0.8-0.4c-1.2-0.4-1.9-0.8-3.1-1.2
		c-1.5-0.8-3.1-1.2-4.2-1.9c-12.7-6.9-21.5-20-21.5-35.7c0-21.9,17.7-40,39.6-40.4c-0.4,0.4-0.8,0.8-1.2,1.9l-8.8,37.7
		c0,0.8,0,1.5,0,2.3l9.2,37.7c0,0.8,0.4,1.2,0.8,1.5C230.7,208.7,227.2,208.7,225.3,208.3 M253.7,204.1c-1.5,0.8-2.7,1.5-4.2,1.9
		c-1.2,0.4-1.9,0.8-3.1,1.2c-0.4,0-2.3,0.8-3.8,0.8c0,0-5,0.4-7.3,0.8c0.4-0.4,0.8-0.8,0.8-1.5l9.2-38c0-0.8,0-1.5,0-2.3l-9.6-37.3
		c-0.4-0.8-0.8-1.5-1.2-1.9c22.3,0,40.4,18.1,40.4,40.4C274.9,184.1,266.4,197.5,253.7,204.1 M314.9,172.9
		c-11.1,11.1-21.5,18.8-33.4,25l-7.7,3.8l3.8-7.7c8.5-16.1,8.8-31.9,0.8-50l-3.1-6.9l6.9,3.1c13.1,6.1,22.7,14.2,33.1,24.2
		c1.2,1.2,1.9,2.7,1.9,4.2C316.8,170.3,316,171.4,314.9,172.9"/>
	<path class="st2" d="M203.4,94.5c0,0.4-0.4,0.4-0.8,0.4c-3.1,0.8-5.8,1.5-8.8,2.7c-3.1,0.8-5.8,1.5-8.8,2.7
		c-2.7,1.2-4.2,3.5-5.4,6.1c-1.5,4.2-2.7,8.8-3.8,13.1c-0.4,1.2-0.8,2.3-1.2,3.1c0,0.4,0,0.4-0.4,0.4s-0.4-0.4-0.4-0.4
		c-1.2-3.5-1.9-6.9-3.1-10.4c-0.8-2.7-1.5-5.8-3.1-8.1c-1.2-1.9-3.1-3.1-5.4-3.8c-3.8-1.5-7.7-2.3-11.5-3.5
		c-1.5-0.4-3.1-0.8-4.6-1.2c-0.4,0-0.8,0-0.8-0.4c0-0.4,0.4-0.4,0.8-0.4c3.5-1.2,6.9-1.9,10.8-3.1c1.9-0.8,4.2-1.2,6.1-1.9
		c3.1-1.2,5-3.1,6.1-6.1c1.5-3.8,2.3-7.7,3.5-11.5c0.4-1.5,0.8-3.1,1.5-4.6c0-0.4,0-0.8,0.4-0.8c0.4,0,0.4,0.4,0.4,0.8
		c0.8,3.1,1.9,6.1,2.7,9.2c0.8,2.3,1.5,5,2.3,7.3c1.2,2.7,3.1,4.6,5.8,5.4c4.2,1.5,8.5,2.7,12.7,3.8c1.5,0.4,3.1,0.8,4.2,1.2
		C203,94.2,203,94.5,203.4,94.5"/>
	<path class="st2" d="M248,84.9c0,0.4-0.4,0.4-0.8,0.4c-2.3,0.8-4.6,1.5-6.9,1.9c-1.9,0.4-3.8,1.2-5.4,1.9c-1.2,0.8-2.3,1.9-2.7,3.1
		c-1.5,3.5-2.3,7.3-3.5,11.1c0,0.4,0,1.2-0.4,1.2c-0.4,0-0.4-0.8-0.8-1.2c-1.2-3.1-1.9-6.5-3.1-9.6c-0.8-3.1-3.1-4.6-5.8-5.4
		c-3.5-1.2-6.5-1.9-10-3.1c-0.4,0-0.8,0-0.8-0.4s0.4-0.4,0.8-0.4c3.1-1.2,6.5-1.9,9.6-2.7c3.5-0.8,5.4-3.1,6.5-6.5
		c0.8-3.1,1.9-5.8,2.7-8.8c0-0.4,0-0.4,0.4-0.8c0,0,0-0.4,0.4-0.4l0.4,0.4c0.4,0.8,0.4,1.5,0.8,2.3c0.8,3.1,1.5,6.1,2.7,8.8
		c0.8,2.7,2.7,3.8,5.4,5C241.1,83,244.5,83.8,248,84.9C247.2,84.6,247.6,84.6,248,84.9"/>
	<path class="st2" d="M209.2,73.8c0,0.4-0.4,0.4-0.8,0.4c-1.9,0.4-3.8,1.2-5.8,1.5c-2.3,0.8-4.2,1.9-5,4.6c-0.4,1.5-0.8,3.1-1.5,4.6
		c0,0.8-0.4,1.2-0.4,1.9c0,0,0,0.4-0.4,0.4c-0.4,0-0.4-0.4-0.4-0.4c-0.8-1.9-1.2-3.8-1.9-6.1c-0.8-2.7-1.9-4.2-4.6-4.6
		c-1.9-0.4-3.8-1.2-5.8-1.5c-0.4,0-0.8,0-0.8-0.4s0.4-0.4,0.8-0.4c2.7-0.8,5.4-1.2,7.7-2.3c1.2-0.4,1.9-1.2,2.3-2.3
		c1.2-2.3,1.5-4.6,2.3-6.9c0-0.4,0-1.2,0.8-1.2c0.4,0,0.4,0.8,0.8,1.2c0.4,1.9,1.2,3.8,1.5,5.8c0.8,2.3,1.9,3.8,4.2,4.2
		c2.3,0.4,4.2,1.2,6.5,1.9C208.8,73.4,209.2,73.4,209.2,73.8"/>
</g>
</svg>
