<?xml version="1.0" encoding="utf-8"?>
<!-- Generator: Adobe Illustrator 23.1.1, SVG Export Plug-In . SVG Version: 6.00 Build 0)  -->
<svg version="1.1" id="Layer_1" xmlns="http://www.w3.org/2000/svg" xmlns:xlink="http://www.w3.org/1999/xlink" x="0px" y="0px"
	 viewBox="0 0 400 300" style="enable-background:new 0 0 400 300;" xml:space="preserve">
<style type="text/css">
	.st0{fill:#1E1D1B;}
	.st1{fill:#FFFFFF;}
	.st2{clip-path:url(#SVGID_2_);fill:#211915;}
	.st3{clip-path:url(#SVGID_4_);fill:#211915;}
	.st4{clip-path:url(#SVGID_6_);fill:#211915;}
	.st5{clip-path:url(#SVGID_8_);fill:#211915;}
	.st6{clip-path:url(#SVGID_10_);fill:#211915;}
	.st7{clip-path:url(#SVGID_12_);fill:#211915;}
	.st8{clip-path:url(#SVGID_14_);fill:#211915;}
	.st9{clip-path:url(#SVGID_16_);fill:#211915;}
	.st10{clip-path:url(#SVGID_18_);fill:#E15200;}
	.st11{clip-path:url(#SVGID_20_);fill:#E15200;}
	.st12{clip-path:url(#SVGID_22_);fill:#E15200;}
	.st13{clip-path:url(#SVGID_24_);fill:#E15200;}
	.st14{clip-path:url(#SVGID_26_);fill:#E15200;}
	.st15{clip-path:url(#SVGID_28_);fill:#E15200;}
	.st16{clip-path:url(#SVGID_30_);fill:#E15200;}
	.st17{clip-path:url(#SVGID_32_);fill:#E15200;}
	.st18{clip-path:url(#SVGID_34_);fill:#FFFFFF;}
	.st19{clip-path:url(#SVGID_36_);fill:#E15200;}
	.st20{clip-path:url(#SVGID_38_);fill:#FFFFFF;}
	.st21{clip-path:url(#SVGID_40_);fill:#E15200;}
	.st22{clip-path:url(#SVGID_42_);fill:#FFFFFF;}
	.st23{clip-path:url(#SVGID_44_);fill:#E15200;}
	.st24{clip-path:url(#SVGID_46_);fill:#FFFFFF;}
	.st25{clip-path:url(#SVGID_48_);fill:#E15200;}
	.st26{clip-path:url(#SVGID_50_);fill:#FFFFFF;}
	.st27{clip-path:url(#SVGID_52_);fill:#E15200;}
	.st28{clip-path:url(#SVGID_54_);fill:#FFFFFF;}
	.st29{clip-path:url(#SVGID_56_);fill:#E15200;}
	.st30{clip-path:url(#SVGID_58_);fill:#FFFFFF;}
	.st31{clip-path:url(#SVGID_60_);fill:#CD6613;}
	.st32{clip-path:url(#SVGID_62_);fill:#CD6613;}
	.st33{clip-path:url(#SVGID_64_);fill:none;stroke:#CD6717;stroke-width:2.5;stroke-miterlimit:10;}
</style>
<g>
	<path d="M83,9.1C83,9.1,83.3,9.1,83,9.1C83.3,8.8,83,8.8,83,9.1C83,8.8,83,8.8,83,9.1L83,9.1"/>
	<path d="M96.3,8.5C96.7,8.5,96.7,8.5,96.3,8.5C96.7,8.5,96.3,8.5,96.3,8.5L96.3,8.5L96.3,8.5"/>
	<path d="M109.7,8.2C110,8.2,110,8.2,109.7,8.2c0.3-0.3,0-0.3,0-0.3S109.7,7.9,109.7,8.2L109.7,8.2"/>
	<path d="M123,7.5C123.3,7.5,123.3,7.5,123,7.5c0.3-0.3,0-0.3,0-0.3S123,7.2,123,7.5L123,7.5"/>
	<path d="M136.3,7.2C136.6,7.2,136.6,7.2,136.3,7.2c0.3-0.3,0-0.3,0-0.3C136.3,6.6,136,6.9,136.3,7.2C136,7.2,136.3,7.2,136.3,7.2"
		/>
	<path d="M149.7,6.6C150,6.6,150,6.6,149.7,6.6c0.3-0.3,0-0.3,0-0.3S149.3,6.3,149.7,6.6C149.3,6.6,149.7,6.6,149.7,6.6"/>
	<path d="M163,6.3C163,6.3,163.3,6,163,6.3c0.3-0.3,0-0.3,0-0.3C163,5.6,163,6,163,6.3C163,6,163,6.3,163,6.3"/>
	<path d="M176.3,5.6L176.3,5.6C176.3,5.3,176.3,5.3,176.3,5.6C176.3,5.3,176.3,5.3,176.3,5.6L176.3,5.6"/>
	<path d="M189.6,5L189.6,5L189.6,5L189.6,5L189.6,5"/>
	<path d="M63.7,23.1L63.7,23.1L63.7,23.1L63.7,23.1L63.7,23.1"/>
	<path d="M77,22.8C77,22.8,77.3,22.8,77,22.8c0.3-0.3,0-0.3,0-0.3C77,22.5,76.7,22.5,77,22.8C76.7,22.8,77,22.8,77,22.8"/>
	<path d="M90.3,22.5c0.3,0,0.3-0.3,0.3-0.3c0-0.3-0.3-0.3-0.3-0.3c-0.3,0-0.3,0.3-0.3,0.3C90,22.5,90,22.5,90.3,22.5"/>
	<path d="M103.6,22.1c0.3,0,0.6-0.3,0.6-0.6c0-0.3-0.3-0.6-0.6-0.6c-0.3,0-0.6,0.3-0.6,0.6C103,21.8,103.3,22.1,103.6,22.1"/>
	<path d="M117,21.8c0.3,0,0.6-0.3,0.6-0.6c0-0.3-0.3-0.6-0.6-0.6c-0.3,0-0.6,0.3-0.6,0.6S116.6,21.8,117,21.8"/>
	<path d="M130.3,21.2c0.3,0,0.6-0.3,0.6-0.6c0-0.3-0.3-0.6-0.6-0.6c-0.3,0-0.6,0.3-0.6,0.6C129.7,20.9,130,21.2,130.3,21.2"/>
	<path d="M143.6,20.9c0.3,0,0.6-0.3,0.6-0.6c0-0.3-0.3-0.6-0.6-0.6c-0.3,0-0.6,0.3-0.6,0.6C142.7,20.5,143.3,20.9,143.6,20.9"/>
	<path d="M156.9,20.2c0.3,0,0.6-0.3,0.6-0.6c0-0.3-0.3-0.6-0.6-0.6c-0.3,0-0.6,0.3-0.6,0.6C156,19.9,156.6,20.2,156.9,20.2"/>
	<path d="M170.3,19.6c0.3,0,0.6-0.3,0.6-0.6c0-0.3-0.3-0.6-0.6-0.6s-0.6,0.3-0.6,0.6C169.6,19.3,170,19.6,170.3,19.6"/>
	<path d="M183.6,19c0.3,0,0.6-0.3,0.6-0.6c0-0.3-0.3-0.6-0.6-0.6S183,18,183,18.3C183,19,183.3,19,183.6,19"/>
	<path d="M196.9,18.3c0.3,0,0.3-0.3,0.3-0.3c0-0.3-0.3-0.3-0.3-0.3c-0.3,0-0.3,0.3-0.3,0.3C196.3,18.3,196.6,18.3,196.9,18.3"/>
	<path d="M210.3,17.7L210.3,17.7c0.3-0.3,0-0.6,0-0.6C209.9,17.4,209.9,17.4,210.3,17.7C209.9,17.7,209.9,17.7,210.3,17.7"/>
	<path d="M223.6,17.1L223.6,17.1C223.6,17.1,223.6,16.7,223.6,17.1C223.3,16.7,223.3,17.1,223.6,17.1
		C223.3,17.1,223.3,17.1,223.6,17.1"/>
	<path d="M31,37.7L31,37.7L31,37.7L31,37.7L31,37.7"/>
	<path d="M44.3,37.4L44.3,37.4c0.3-0.3,0-0.3,0-0.3C44,37.1,44,37.1,44.3,37.4C44,37.4,44,37.4,44.3,37.4"/>
	<path d="M57.6,37.1c0.3,0,0.3-0.3,0.3-0.3c0-0.3-0.3-0.3-0.3-0.3c-0.3,0-0.3,0.3-0.3,0.3C57,37.1,57.3,37.1,57.6,37.1"/>
	<path d="M71,36.7c0.3,0,0.6-0.3,0.6-0.6s-0.3-0.6-0.6-0.6c-0.3,0-0.6,0.3-0.6,0.6C70.3,36.4,70.6,36.7,71,36.7"/>
	<path d="M84.3,36.7c0.6,0,1-0.3,1-1s-0.3-1-1-1s-1,0.3-1,1C83.3,36.1,83.6,36.7,84.3,36.7"/>
	<path d="M97.6,36.4c0.6,0,1-0.6,1-1.3c0-0.6-0.6-1-1.3-1s-1,0.6-1,1.3C96.3,35.8,97,36.4,97.6,36.4"/>
	<path d="M110.9,36.1c0.6,0,1.3-0.6,1.3-1.3s-0.6-1.3-1.3-1.3s-1.3,0.6-1.3,1.3C109.3,35.5,110,36.1,110.9,36.1"/>
	<path d="M124.3,35.5c0.6,0,1.3-0.6,1.3-1.6s-0.6-1.3-1.6-1.3c-1,0-1.3,0.6-1.3,1.6S123.3,35.8,124.3,35.5"/>
	<path d="M137.6,35.1c1,0,1.6-0.6,1.6-1.6s-0.6-1.6-1.6-1.6s-1.6,0.6-1.6,1.6S136.6,35.1,137.6,35.1"/>
	<path d="M150.9,34.5c1,0,1.6-0.6,1.3-1.6c0-1-0.6-1.6-1.6-1.3c-1,0-1.6,0.6-1.3,1.6C149.3,33.9,150,34.5,150.9,34.5"/>
	<path d="M163.9,34.2c0.6,0,1.3-0.6,1.3-1.6c0-0.6-0.6-1.3-1.6-1.3c-0.6,0-1.3,0.6-1.3,1.6C162.7,33.6,163.3,34.2,163.9,34.2"/>
	<path d="M177.3,33.2c0.6,0,1.3-0.6,1.3-1.3s-0.6-1.3-1.3-1.3c-0.6,0-1.3,0.6-1.3,1.3C176,32.9,176.6,33.6,177.3,33.2"/>
	<path d="M190.6,32.6c0.6,0,1-0.6,1-1c0-0.6-0.6-1-1-1c-0.3,0-1,0.6-1,1C189.6,32.3,190.3,32.6,190.6,32.6"/>
	<path d="M203.9,32c0.3,0,1-0.3,0.6-1c0-0.3-0.3-1-1-0.6c-0.3,0-1,0.3-0.6,1C203.3,31.7,203.6,32,203.9,32"/>
	<path d="M217.2,31c0.3,0,0.6-0.3,0.6-0.6c0-0.3-0.3-0.6-0.6-0.6c-0.3,0-0.6,0.3-0.6,0.6C216.6,31,216.9,31,217.2,31"/>
	<path d="M230.6,30.4C230.9,30.4,230.9,30.4,230.6,30.4c0.3-0.3,0-0.6,0-0.6S230.3,30.1,230.6,30.4
		C230.3,30.4,230.6,30.4,230.6,30.4"/>
	<path d="M243.9,29.8L243.9,29.8C243.9,29.4,243.9,29.4,243.9,29.8C243.9,29.4,243.9,29.4,243.9,29.8L243.9,29.8"/>
	<path d="M24.6,51.3L24.6,51.3L24.6,51.3L24.6,51.3L24.6,51.3"/>
	<path d="M37.9,51C38.3,51,38.3,51,37.9,51c0.3-0.3,0-0.3,0-0.3S37.9,50.7,37.9,51L37.9,51"/>
	<path d="M51.3,50.7c0.3,0,0.3-0.3,0.3-0.3c0-0.3-0.3-0.3-0.3-0.3c-0.3,0-0.3,0.3-0.3,0.3C51,50.7,51.3,50.7,51.3,50.7"/>
	<path d="M64.6,50.7c0.3,0,0.6-0.3,0.6-1c0-0.3-0.3-0.6-1-0.6c-0.3,0-0.6,0.3-0.6,1C64,50.4,64.3,50.7,64.6,50.7"/>
	<path d="M77.9,50.4c0.6,0,1.3-0.6,1-1.3c0-0.6-0.6-1.3-1.3-1c-0.6,0-1.3,0.6-1,1.3C77,50.1,77.3,50.4,77.9,50.4"/>
	<path d="M91.3,50.4c1,0,1.6-0.6,1.6-1.6s-0.6-1.6-1.6-1.6c-1,0-1.6,0.6-1.6,1.6S90.6,50.4,91.3,50.4"/>
	<path d="M104.6,50.1c1,0,1.9-1,1.9-1.9s-1-1.9-1.9-1.9c-1,0-1.9,1-1.9,1.9C102.7,49.4,103.6,50.1,104.6,50.1"/>
	<path d="M117.9,50.1c1.3,0,2.2-1,1.9-2.2c0-1.3-1-2.2-2.2-2.2c-1.3,0-2.2,1-1.9,2.2C115.7,49.1,117,50.1,117.9,50.1"/>
	<path d="M131.2,49.4c1.3,0,2.2-1.3,2.2-2.5s-1.3-2.2-2.5-2.2c-1.3,0-2.2,1.3-2.2,2.5C129,48.5,130,49.7,131.2,49.4"/>
	<path d="M144.6,49.1c1.3,0,2.5-1.3,2.2-2.5c0-1.3-1.3-2.5-2.5-2.2c-1.3,0-2.5,1.3-2.2,2.5C142,48.2,143.3,49.1,144.6,49.1"/>
	<path d="M157.9,48.8c1.3,0,2.5-1.3,2.2-2.5c0-1.3-1.3-2.5-2.5-2.2c-1.3,0-2.5,1.3-2.2,2.5C155.4,47.5,156.6,48.8,157.9,48.8"/>
	<path d="M171.2,48.2c1.3,0,2.2-1.3,2.2-2.5s-1.3-2.2-2.5-2.2s-2.2,1.3-2.2,2.5C169,47.2,170,48.2,171.2,48.2"/>
	<path d="M184.6,47.2c1.3,0,2.2-1,1.9-2.2c0-1.3-1-2.2-2.2-2.2s-2.2,1-1.9,2.2C182.3,46.6,183.3,47.5,184.6,47.2"/>
	<path d="M197.9,46.6c1,0,1.9-1,1.9-1.9c0-1-1-1.9-1.9-1.9c-1,0-1.9,1-1.9,1.9C196,45.9,196.9,46.6,197.9,46.6"/>
	<path d="M211.2,45.6c1,0,1.6-0.6,1.6-1.6s-0.6-1.6-1.6-1.6s-1.6,0.6-1.6,1.6S210.3,45.6,211.2,45.6"/>
	<path d="M224.5,45c0.6,0,1.3-0.6,1-1.3c0-0.6-0.6-1.3-1.3-1c-0.6,0-1.3,0.6-1,1.3C223.3,44.4,223.9,45,224.5,45"/>
	<path d="M237.9,44c0.3,0,1-0.3,0.6-1c0-0.3-0.3-1-1-0.6c-0.3,0-1,0.3-0.6,1C236.9,43.7,237.2,44,237.9,44"/>
	<path d="M251.2,43.1c0.3,0,0.3-0.3,0.3-0.6s-0.3-0.3-0.6-0.3c-0.3,0-0.3,0.3-0.3,0.6C250.6,43.1,250.9,43.1,251.2,43.1"/>
	<path d="M264.5,42.4C264.5,42.4,264.5,42.1,264.5,42.4c0.3-0.3,0-0.3,0-0.3C264.2,41.8,264.2,42.1,264.5,42.4
		C264.2,42.1,264.2,42.4,264.5,42.4"/>
	<path d="M277.9,41.8L277.9,41.8C277.9,41.5,277.9,41.5,277.9,41.8C277.9,41.5,277.5,41.5,277.9,41.8
		C277.5,41.8,277.9,41.8,277.9,41.8"/>
	<path d="M18.6,65L18.6,65C18.6,65,18.6,64.7,18.6,65C18.6,64.7,18.3,65,18.6,65C18.3,65,18.6,65,18.6,65"/>
	<path d="M31.9,65c0.3,0,0.3-0.3,0.3-0.3c0-0.3-0.3-0.3-0.3-0.3c-0.3,0-0.3,0.3-0.3,0.3S31.6,65,31.9,65"/>
	<path d="M45.2,64.7c0.3,0,1-0.3,0.6-1c0-0.3-0.3-1-1-0.6c-0.3,0-1,0.3-0.6,1C44.3,64.3,44.9,64.7,45.2,64.7"/>
	<path d="M58.6,64.7c0.6,0,1.3-0.6,1.3-1.3s-0.6-1.3-1.3-1.3c-0.6,0-1.3,0.6-1.3,1.3S57.9,64.7,58.6,64.7"/>
	<path d="M71.9,64.7c1,0,1.6-1,1.6-1.9c0-1-1-1.6-1.9-1.6c-1,0-1.6,1-1.6,1.9C70.3,64,71,64.7,71.9,64.7"/>
	<path d="M85.2,64.7c1.3,0,2.2-1,2.2-2.2c0-1.3-1-2.2-2.2-2.2c-1.3,0-2.2,1-2.2,2.2C83,63.7,84,64.7,85.2,64.7"/>
	<path d="M98.6,64.7c1.6,0,2.5-1.3,2.5-2.9c0-1.6-1.3-2.5-2.9-2.5c-1.6,0-2.5,1.3-2.5,2.9C96,63.4,97,64.7,98.6,64.7"/>
	<path d="M111.9,64.3c1.6,0,2.9-1.6,2.9-3.2s-1.6-3.2-3.2-2.9c-1.6,0-3.2,1.6-2.9,3.2C108.7,63.1,110.3,64.3,111.9,64.3"/>
	<path d="M125.2,64.3c1.9,0,3.5-1.6,3.2-3.5c0-1.9-1.6-3.5-3.5-3.2c-1.9,0-3.5,1.6-3.2,3.5C121.7,62.8,123.3,64.3,125.2,64.3"/>
	<path d="M138.5,64c1.9,0,3.5-1.6,3.5-3.8c0-1.9-1.6-3.5-3.8-3.5c-1.9,0-3.5,1.9-3.5,3.8C135.1,62.4,136.6,64,138.5,64"/>
	<path d="M151.9,63.4c1.9,0,3.5-1.6,3.5-3.8c0-1.9-1.6-3.5-3.8-3.5c-1.9,0-3.5,1.9-3.5,3.8C148.4,61.8,150,63.4,151.9,63.4"/>
	<path d="M165.2,62.8c1.9,0,3.5-1.6,3.5-3.5c0-1.9-1.6-3.5-3.5-3.5c-1.9,0-3.5,1.6-3.5,3.5C161.7,61.5,163.3,62.8,165.2,62.8"/>
	<path d="M178.5,62.1c1.9,0,3.2-1.6,3.2-3.5c0-1.9-1.6-3.2-3.5-3.2c-1.9,0-3.2,1.6-3.2,3.5C175.4,60.9,176.6,62.1,178.5,62.1"/>
	<path d="M191.9,61.2c1.6,0,2.9-1.3,2.9-2.9s-1.3-2.9-2.9-2.9c-1.6,0-2.9,1.3-2.9,2.9S190.3,61.2,191.9,61.2"/>
	<path d="M205.2,60.2c1.3,0,2.2-1.3,2.2-2.5s-1.3-2.2-2.5-2.2s-2.2,1-2.2,2.5C202.6,59.3,203.9,60.2,205.2,60.2"/>
	<path d="M218.5,59.3c1,0,1.9-1,1.9-1.9c0-1-1-1.9-1.9-1.9c-1,0-1.9,1-1.9,1.9C216.3,58.3,217.2,59.3,218.5,59.3"/>
	<path d="M231.5,58.3c1,0,1.3-0.6,1.3-1.6c0-1-0.6-1.3-1.6-1.3c-0.6,0-1.3,0.6-1.3,1.6C230.3,57.7,230.9,58.3,231.5,58.3"/>
	<path d="M244.9,57.4c0.6,0,1-0.3,1-1c0-0.6-0.3-1-1-1c-0.6,0-1,0.3-1,1C243.9,56.7,244.5,57.4,244.9,57.4"/>
	<path d="M258.2,56.4c0.3,0,0.6-0.3,0.6-0.6s-0.3-0.6-0.6-0.6c-0.3,0-0.6,0.3-0.6,0.6S257.9,56.4,258.2,56.4"/>
	<path d="M271.5,55.5C271.8,55.5,271.8,55.5,271.5,55.5c0.3-0.3,0-0.6,0-0.6C271.5,55.1,271.2,55.1,271.5,55.5
		C271.2,55.5,271.5,55.5,271.5,55.5"/>
	<path d="M284.8,54.8L284.8,54.8L284.8,54.8L284.8,54.8L284.8,54.8"/>
	<path d="M12.6,78.6L12.6,78.6L12.6,78.6C12.6,78.6,12.2,78.6,12.6,78.6C12.2,78.6,12.6,78.6,12.6,78.6"/>
	<path d="M25.9,78.3L25.9,78.3c0.3-0.3,0-0.6,0-0.6C25.6,77.7,25.6,78,25.9,78.3C25.6,78.3,25.6,78.3,25.9,78.3"/>
	<path d="M39.2,78.3c0.3,0,0.6-0.3,0.6-0.6c0-0.3-0.3-0.6-0.6-0.6c-0.3,0-0.6,0.3-0.6,0.6C38.3,78,38.6,78.3,39.2,78.3"/>
	<path d="M52.5,78.3c0.6,0,1.3-0.6,1-1.3c0-0.6-0.6-1.3-1.3-1c-0.6,0-1.3,0.6-1,1.3C51.3,77.7,51.9,78.3,52.5,78.3"/>
	<path d="M65.9,78.3c1,0,1.6-1,1.6-1.6c0-1-1-1.6-1.6-1.6c-1,0-1.6,1-1.6,1.6C64,77.4,64.9,78.3,65.9,78.3"/>
	<path d="M79.2,78.3c1.3,0,2.2-1.3,2.2-2.5s-1.3-2.2-2.2-2.2c-1.3,0-2.2,1.3-2.2,2.5C76.7,77.4,77.9,78.3,79.2,78.3"/>
	<path d="M92.5,78.3c1.6,0,2.9-1.3,2.9-3.2c0-1.6-1.3-2.9-3.2-2.9c-1.6,0-2.9,1.3-2.9,3.2C89.4,77.4,90.9,78.3,92.5,78.3"/>
	<path d="M105.9,78.6c1.9,0,3.5-1.6,3.5-3.8c0-1.9-1.6-3.5-3.8-3.5s-3.5,1.6-3.5,3.8C102.1,77,104,78.6,105.9,78.6"/>
	<path d="M119.2,78.6c2.2,0,4.1-1.9,3.8-4.1c0-2.2-1.9-4.1-4.1-3.8c-2.2,0-4.1,1.9-3.8,4.1C115.1,77,117,78.6,119.2,78.6"/>
	<path d="M132.5,78.6c2.5,0,4.4-2.2,4.4-4.8s-2.2-4.4-4.8-4.4s-4.4,2.2-4.4,4.8C127.8,76.7,130,78.6,132.5,78.6"/>
	<path d="M145.8,78.3c2.5,0,4.8-2.2,4.8-5.1c0-2.5-2.2-4.8-5.1-4.8c-2.5,0-4.8,2.2-4.8,5.1C140.8,76.4,143,78.3,145.8,78.3"/>
	<path d="M159.2,78c2.9,0,4.8-2.5,4.8-5.1c0-2.9-2.5-4.8-5.1-4.8c-2.9,0-4.8,2.5-4.8,5.1S156.3,78,159.2,78"/>
	<path d="M172.5,77.4c2.5,0,4.8-2.2,4.8-5.1c0-2.5-2.2-4.8-5.1-4.8c-2.5,0-4.8,2.2-4.8,5.1C167.4,75.1,169.6,77.4,172.5,77.4"/>
	<path d="M185.8,76.4c2.5,0,4.4-2.2,4.4-4.8s-2.2-4.4-4.8-4.4c-2.5,0-4.4,2.2-4.4,4.8C181.1,74.5,183.3,76.4,185.8,76.4"/>
	<path d="M199.2,75.4c2.2,0,3.8-1.9,3.8-4.1c0-2.2-1.9-3.8-4.1-3.8c-2.2,0-3.8,1.9-3.8,4.1C195,73.9,196.9,75.4,199.2,75.4"/>
	<path d="M212.2,74.2c1.9,0,3.5-1.6,3.2-3.5c0-1.9-1.6-3.5-3.5-3.2c-1.9,0-3.5,1.6-3.2,3.5C208.7,72.9,210.3,74.5,212.2,74.2"/>
	<path d="M225.5,73.2c1.6,0,2.9-1.3,2.9-2.9c0-1.6-1.3-2.9-2.9-2.9s-2.9,1.3-2.9,2.9C222.6,72,223.9,73.2,225.5,73.2"/>
	<path d="M238.8,72c1.3,0,2.2-1,2.2-2.2s-1-2.2-2.2-2.2c-1.3,0-2.2,1-2.2,2.2C236.6,71,237.6,72,238.8,72"/>
	<path d="M252.2,71c1,0,1.6-0.6,1.6-1.6c0-1-0.6-1.6-1.6-1.6s-1.6,0.6-1.6,1.6C250.6,70.4,251.2,71,252.2,71"/>
	<path d="M265.5,69.7c0.6,0,1-0.6,1-1c0-0.6-0.6-1-1-1s-1,0.6-1,1C264.5,69.4,264.8,70.1,265.5,69.7"/>
	<path d="M278.8,68.8c0.3,0,0.6-0.3,0.6-0.6c0-0.3-0.3-0.6-0.6-0.6c-0.3,0-0.6,0.3-0.6,0.6C278.2,68.8,278.5,68.8,278.8,68.8"/>
	<path d="M292.1,68.2C292.1,68.2,292.1,67.8,292.1,68.2c0.3-0.3,0-0.3,0-0.3C291.8,67.5,291.8,67.8,292.1,68.2
		C291.8,67.8,291.8,68.2,292.1,68.2"/>
	<path d="M305.5,67.2L305.5,67.2L305.5,67.2L305.5,67.2L305.5,67.2"/>
	<path d="M-16,92.3C-16,92.3-15.7,92.3-16,92.3C-15.7,92-16,92-16,92.3C-16,92-16,92-16,92.3L-16,92.3"/>
	<path d="M19.5,92c0.3,0,0.3-0.3,0.3-0.3c0-0.3-0.3-0.3-0.3-0.3c-0.3,0-0.3,0.3-0.3,0.3C19.2,92,19.5,92,19.5,92"/>
	<path d="M32.9,92c0.3,0,1-0.3,1-1c0-0.3-0.3-1-1-1c-0.3,0-1,0.3-1,1C32.2,91.6,32.6,92,32.9,92"/>
	<path d="M46.2,92c0.6,0,1.3-0.6,1.3-1.6c0-0.6-0.6-1.3-1.6-1.3c-0.6,0-1.3,0.6-1.3,1.6C44.9,91.3,45.6,92,46.2,92"/>
	<path d="M59.5,92.3c1.3,0,1.9-1,1.9-2.2c0-1.3-1-1.9-2.2-1.9c-1.3,0-1.9,1-1.9,2.2C57.6,91.3,58.6,92.3,59.5,92.3"/>
	<path d="M72.9,92.3c1.6,0,2.9-1.3,2.5-2.9c0-1.6-1.3-2.9-2.9-2.9c-1.6,0-2.9,1.3-2.9,2.9C70,91.3,71.3,92.6,72.9,92.3"/>
	<path d="M86.2,92.6c1.9,0,3.5-1.6,3.5-3.8c0-1.9-1.6-3.5-3.8-3.5c-1.9,0-3.5,1.9-3.5,3.8C82.7,91.3,84.3,92.6,86.2,92.6"/>
	<path d="M99.5,92.9c2.5,0,4.1-2.2,4.1-4.4c0-2.5-2.2-4.4-4.4-4.1c-2.5,0-4.1,2.2-4.1,4.4C95.1,91,97.3,92.9,99.5,92.9"/>
	<path d="M113.2,93.2c2.9,0,5.1-2.5,4.8-5.4c-0.3-2.9-2.5-5.1-5.4-4.8c-2.9,0.3-5.1,2.5-4.8,5.4C107.8,91,110.3,93.2,113.2,93.2"/>
	<path d="M126.5,93.2c3.2,0,5.7-2.9,5.4-6c0-3.2-2.9-5.7-6-5.7c-3.2,0-5.7,2.9-5.4,6C120.5,91,123.3,93.5,126.5,93.2"/>
	<path d="M139.8,93.2c3.5,0,6-3.2,6-6.3c0-3.5-3.2-6-6.3-6c-3.5,0-6,3.2-6,6.3C133.5,90.7,136.3,93.5,139.8,93.2"/>
	<path d="M153.1,92.9c3.5,0,6.3-3.2,6-6.7c0-3.5-3.2-6.3-6.7-6c-3.5,0-6.3,3.2-6,6.7C146.5,90.4,149.3,93.2,153.1,92.9"/>
	<path d="M166.2,92.3c3.5,0,6.3-3.2,6-6.7c0-3.5-3.2-6.3-6.7-6c-3.5,0-6.3,3.2-6,6.7C159.8,89.7,162.7,92.6,166.2,92.3"/>
	<path d="M179.5,91.3c3.2,0,5.7-2.9,5.7-6s-2.9-5.7-6-5.7s-5.7,2.9-5.7,6C173.8,89.1,176.3,91.6,179.5,91.3"/>
	<path d="M192.8,90.4c2.9,0,5.1-2.5,5.1-5.4s-2.5-5.1-5.4-5.1c-2.9,0-5.1,2.5-5.1,5.4C187.4,88.1,190,90.4,192.8,90.4"/>
	<path d="M206.1,89.1c2.5,0,4.4-2.2,4.4-4.8s-2.2-4.4-4.8-4.4s-4.4,2.2-4.4,4.8C201.7,87.2,203.6,89.1,206.1,89.1"/>
	<path d="M219.5,87.8c1.9,0,3.8-1.9,3.5-3.8c0-1.9-1.9-3.8-3.8-3.5c-1.9,0.3-3.8,1.9-3.5,3.8C215.7,86.2,217.6,87.8,219.5,87.8"/>
	<path d="M232.8,86.6c1.6,0,2.9-1.6,2.9-3.2c0-1.6-1.6-2.9-3.2-2.9s-2.9,1.6-2.9,3.2C229.6,85.3,231.2,86.6,232.8,86.6"/>
	<path d="M246.1,85.3c1.3,0,2.2-1,2.2-2.2s-1-2.2-2.2-2.2c-1.3,0-2.2,1-2.2,2.2S244.9,85.3,246.1,85.3"/>
	<path d="M259.5,84c1,0,1.6-0.6,1.6-1.6c0-1-0.6-1.6-1.6-1.6s-1.6,0.6-1.6,1.6C257.9,83.4,258.5,84,259.5,84"/>
	<path d="M272.8,82.7c0.6,0,1-0.3,1-1s-0.3-1-1-1c-0.6,0-1,0.3-1,1C271.5,82.4,272.1,83.1,272.8,82.7"/>
	<path d="M285.8,81.8c0.3,0,0.3-0.3,0.3-0.6c0-0.3-0.3-0.3-0.6-0.3c-0.3,0-0.3,0.3-0.3,0.6C285.5,81.8,285.8,81.8,285.8,81.8"/>
	<path d="M299.1,81.2C299.4,81.2,299.4,80.8,299.1,81.2C299.4,80.8,299.4,80.8,299.1,81.2C299.1,80.8,299.1,80.8,299.1,81.2
		C299.1,80.8,299.1,81.2,299.1,81.2"/>
	<path d="M13.5,105.3L13.5,105.3C13.5,105.3,13.5,105,13.5,105.3C13.5,105,13.2,105.3,13.5,105.3C13.2,105.3,13.5,105.3,13.5,105.3"
		/>
	<path d="M26.8,105.3c0.3,0,0.3-0.3,0.3-0.6c0-0.3-0.3-0.3-0.6-0.3c-0.3,0-0.3,0.3-0.3,0.6C26.2,105,26.5,105.3,26.8,105.3"/>
	<path d="M40.2,105.3c0.6,0,1-0.6,1-1c0-0.6-0.6-1-1-1c-0.6,0-1,0.6-1,1C39.2,104.6,39.5,105.3,40.2,105.3"/>
	<path d="M53.5,105.3c1,0,1.6-0.6,1.6-1.6c0-1-0.6-1.6-1.6-1.6s-1.6,0.6-1.6,1.6C51.9,104.6,52.5,105.3,53.5,105.3"/>
	<path d="M66.8,105.6c1.3,0,2.2-1.3,2.2-2.5c0-1.3-1.3-2.2-2.5-2.2c-1.3,0-2.2,1.3-2.2,2.5C64.3,104.6,65.6,105.6,66.8,105.6"/>
	<path d="M80.2,105.9c1.9,0,3.2-1.6,3.2-3.2c0-1.9-1.6-3.2-3.2-3.2c-1.9,0-3.2,1.6-3.2,3.2C77,104.6,78.2,105.9,80.2,105.9"/>
	<path d="M93.5,106.2c2.2,0,4.1-1.9,3.8-4.1c0-2.2-1.9-4.1-4.1-3.8c-2.2,0-4.1,1.9-3.8,4.1C89.4,104.6,91.3,106.2,93.5,106.2"/>
	<path d="M106.8,106.9c2.9,0,5.1-2.5,4.8-5.4c0-2.9-2.5-5.1-5.4-4.8c-2.9,0-5.1,2.5-4.8,5.4C101.7,104.6,104,106.9,106.8,106.9"/>
	<path d="M120.1,107.2c3.2,0,6-2.9,5.7-6.3c0-3.2-2.9-6-6.3-5.7c-3.2,0-6,2.9-5.7,6.3C114.1,104.6,117,107.2,120.1,107.2"/>
	<path d="M133.5,107.5c3.8,0,6.7-3.5,6.7-7.3c0-3.8-3.5-6.7-7-6.7c-3.8,0-6.7,3.5-6.7,7.3C126.5,104.6,129.7,107.8,133.5,107.5"/>
	<path d="M146.8,106.9c3.8,0,6.7-3.5,6.7-7.3c0-3.8-3.5-6.7-7-6.7c-3.8,0-6.7,3.5-6.7,7.3C139.8,104.3,143,107.2,146.8,106.9"/>
	<path d="M160.1,106.5c3.8,0,6.7-3.5,6.7-7.3c0-3.8-3.5-6.7-7-6.7c-3.8,0-6.7,3.5-6.7,7.3S156.3,106.5,160.1,106.5"/>
	<path d="M173.5,105.9c3.8,0,6.7-3.5,6.7-7.3c0-3.8-3.5-6.7-7-6.7c-3.8,0-6.7,3.5-6.7,7.3C166.5,103.1,169.6,106.2,173.5,105.9"/>
	<path d="M186.8,105.6c3.8,0,6.7-3.5,6.7-7.3c0-3.8-3.5-6.7-7-6.7c-3.8,0-6.7,3.5-6.7,7.3C179.8,102.7,183,105.6,186.8,105.6"/>
	<path d="M200.1,104.6c3.5,0,6.3-3.2,6.3-7c0-3.5-3.2-6.3-7-6.3c-3.5,0-6.3,3.2-6.3,7C193.4,102.1,196.6,105,200.1,104.6"/>
	<path d="M213.4,103.4c3.2,0,5.7-2.9,5.4-6c0-3.2-2.9-5.7-5.7-5.4c-3.2,0-5.7,2.9-5.4,6C207.7,100.8,210.3,103.4,213.4,103.4"/>
	<path d="M226.8,101.8c2.5,0,4.4-2.2,4.4-4.8s-2.2-4.4-4.8-4.4s-4.4,2.2-4.4,4.8C222,99.9,224.2,101.8,226.8,101.8"/>
	<path d="M240.1,100.2c1.9,0,3.8-1.9,3.5-3.8c0-1.9-1.9-3.8-3.8-3.5c-1.9,0-3.8,1.9-3.5,3.8C236.3,98.6,237.9,100.5,240.1,100.2"/>
	<path d="M253.1,98.9c1.6,0,2.9-1.3,2.9-2.9c0-1.6-1.3-2.9-2.9-2.9s-2.9,1.3-2.9,2.9C250.2,97.7,251.5,98.9,253.1,98.9"/>
	<path d="M266.4,97.7c1.3,0,1.9-1,1.9-2.2c0-1.3-1-1.9-2.2-1.9s-1.9,1-1.9,2.2C264.5,96.7,265.5,97.7,266.4,97.7"/>
	<path d="M279.8,96.4c0.6,0,1.3-0.6,1.3-1.3s-0.6-1.3-1.3-1.3c-0.6,0-1.3,0.6-1.3,1.3C278.5,95.8,279.1,96.4,279.8,96.4"/>
	<path d="M293.1,95.4c0.3,0,0.6-0.3,0.6-1c0-0.3-0.3-0.6-1-0.6c-0.3,0-0.6,0.3-0.6,1C292.5,95.1,292.8,95.4,293.1,95.4"/>
	<path d="M306.4,94.5c0.3,0,0.3-0.3,0.3-0.3c0-0.3-0.3-0.3-0.3-0.3c-0.3,0-0.3,0.3-0.3,0.3S306.1,94.5,306.4,94.5"/>
	<path d="M319.7,93.5L319.7,93.5L319.7,93.5L319.7,93.5L319.7,93.5"/>
	<path d="M7.2,118.9C7.5,118.9,7.5,118.9,7.2,118.9C7.5,118.6,7.5,118.6,7.2,118.9C7.2,118.6,7.2,118.6,7.2,118.9L7.2,118.9"/>
	<path d="M20.5,118.9c0.3,0,0.6-0.3,0.6-0.6c0-0.3-0.3-0.6-0.6-0.6c-0.3,0-0.6,0.3-0.6,0.6C20.2,118.6,20.5,118.9,20.5,118.9"/>
	<path d="M33.8,118.9c0.6,0,1-0.6,1-1c0-0.6-0.6-1-1-1c-0.3,0-1,0.6-1,1C32.9,118.3,33.5,118.9,33.8,118.9"/>
	<path d="M47.2,118.9c1,0,1.6-1,1.6-1.9c0-1-1-1.6-1.9-1.6c-1,0-1.6,1-1.6,1.9C45.6,118.3,46.5,118.9,47.2,118.9"/>
	<path d="M60.8,119.2c1.3,0,2.5-1.3,2.5-2.5s-1.3-2.5-2.5-2.5c-1.3,0-2.5,1.3-2.2,2.5C58.3,118.3,59.2,119.2,60.8,119.2"/>
	<path d="M74.1,119.6c1.9,0,3.2-1.6,3.2-3.5s-1.6-3.2-3.5-3.2s-3.2,1.6-3.2,3.5S72.2,119.6,74.1,119.6"/>
	<path d="M87.5,120.2c2.5,0,4.1-2.2,4.1-4.4c0-2.5-2.2-4.4-4.4-4.1c-2.5,0-4.1,2.2-4.1,4.4C83,118.3,84.9,120.2,87.5,120.2"/>
	<path d="M100.8,120.8c3.2,0,5.4-2.5,5.4-5.7s-2.5-5.4-5.7-5.4s-5.4,2.5-5.4,5.7C95.1,118.6,97.6,120.8,100.8,120.8"/>
	<path d="M114.1,121.5c3.5,0,6.3-3.2,6.3-7c0-3.8-3.2-6.7-7-6.3c-3.8,0-6.3,3.2-6.3,7C107.4,118.6,110.3,121.5,114.1,121.5"/>
	<path d="M127.4,121.1c3.8,0,6.7-3.5,6.7-7.3s-3.5-6.7-7-6.7c-3.8,0-6.7,3.5-6.7,7.3C120.5,118.3,123.6,121.1,127.4,121.1"/>
	<path d="M140.8,120.5c3.8,0,6.7-3.5,6.7-7.3s-3.5-6.7-7-6.7c-3.8,0-6.7,3.5-6.7,7.3C133.8,117.7,137,120.8,140.8,120.5"/>
	<path d="M154.1,120.2c3.8,0,6.7-3.5,6.7-7.3c0-3.8-3.5-6.7-7-6.7c-3.8,0-6.7,3.5-6.7,7.3C147.1,117.3,150.3,120.2,154.1,120.2"/>
	<path d="M167.4,119.6c3.8,0,6.7-3.5,6.7-7.3c0-3.8-3.5-6.7-7-6.7c-3.8,0-6.7,3.5-6.7,7.3C160.4,116.7,163.6,119.9,167.4,119.6"/>
	<path d="M180.8,118.9c3.8,0,6.7-3.5,6.7-7.3c0-3.8-3.5-6.7-7-6.7c-3.8,0-6.7,3.5-6.7,7.3C173.8,116.4,176.9,119.2,180.8,118.9"/>
	<path d="M194.1,118.6c3.8,0,6.7-3.5,6.7-7.3c0-3.8-3.5-6.7-7-6.7c-3.8,0-6.7,3.5-6.7,7.3C187.1,115.8,190.3,118.6,194.1,118.6"/>
	<path d="M207.4,117.7c3.5,0,6.3-3.2,6.3-7c0-3.8-3.2-6.7-7-6.3c-3.8,0-6.3,3.2-6.3,7C200.4,115.1,203.6,118,207.4,117.7"/>
	<path d="M220.4,116.1c3.2,0,5.4-2.5,5.4-5.7s-2.5-5.4-5.7-5.4c-3.2,0-5.4,2.5-5.4,5.7C215,113.8,217.6,116.4,220.4,116.1"/>
	<path d="M233.7,114.5c2.5,0,4.4-2.2,4.1-4.4c0-2.5-2.2-4.4-4.4-4.1c-2.5,0-4.4,2.2-4.1,4.4C229.3,112.9,231.5,114.8,233.7,114.5"/>
	<path d="M247.1,112.9c1.9,0,3.2-1.6,3.2-3.5s-1.6-3.2-3.5-3.2c-1.9,0-3.2,1.6-3.2,3.5C243.6,111.6,245.2,113.2,247.1,112.9"/>
	<path d="M260.4,111.6c1.3,0,2.5-1.3,2.2-2.5c0-1.3-1.3-2.5-2.5-2.5c-1.3,0-2.5,1.3-2.5,2.5C257.9,110.7,259.1,111.6,260.4,111.6"/>
	<path d="M273.7,110.4c1,0,1.6-1,1.6-1.9c0-1-1-1.6-1.9-1.6c-1,0-1.6,1-1.6,1.9C271.8,109.7,272.8,110.4,273.7,110.4"/>
	<path d="M287.1,109.1c0.6,0,1-0.6,1-1c0-0.6-0.6-1-1-1c-0.3,0-1,0.6-1,1C285.8,108.8,286.4,109.1,287.1,109.1"/>
	<path d="M300.4,108.1c0.3,0,0.6-0.3,0.6-0.6c0-0.3-0.3-0.6-0.6-0.6c-0.3,0-0.6,0.3-0.6,0.6C299.8,107.8,300.1,108.1,300.4,108.1"/>
	<path d="M313.7,107.2L313.7,107.2C313.7,106.9,313.7,106.9,313.7,107.2C313.4,106.9,313.4,106.9,313.7,107.2
		C313.4,107.2,313.4,107.2,313.7,107.2"/>
	<path d="M14.5,131.9L14.5,131.9C14.5,131.9,14.5,131.6,14.5,131.9C14.5,131.6,14.5,131.9,14.5,131.9L14.5,131.9"/>
	<path d="M27.8,131.9c0.3,0,0.3-0.3,0.3-0.6s-0.3-0.3-0.6-0.3c-0.3,0-0.3,0.3-0.3,0.6C27.2,131.6,27.5,131.9,27.8,131.9"/>
	<path d="M41.1,131.9c0.6,0,1-0.6,1-1c0-0.6-0.6-1-1-1c-0.6,0-1,0.6-1,1C40.2,131.6,40.5,131.9,41.1,131.9"/>
	<path d="M54.4,131.9c1,0,1.6-1,1.6-1.6c0-1-1-1.6-1.6-1.6c-1,0-1.6,1-1.6,1.6C52.9,131.3,53.5,131.9,54.4,131.9"/>
	<path d="M67.8,132.3c1.3,0,2.5-1.3,2.2-2.5c0-1.3-1.3-2.5-2.5-2.2c-1.3,0-2.5,1.3-2.2,2.5C65.2,131.3,66.5,132.3,67.8,132.3"/>
	<path d="M81.1,132.9c1.9,0,3.2-1.6,3.2-3.5c0-1.9-1.6-3.2-3.5-3.2c-1.9,0-3.2,1.6-3.2,3.5C77.6,131.3,79.2,132.9,81.1,132.9"/>
	<path d="M94.4,133.2c2.5,0,4.1-2.2,4.1-4.4c0-2.5-2.2-4.4-4.4-4.1c-2.5,0-4.1,2.2-4.1,4.4C90,131.3,92.2,133.2,94.4,133.2"/>
	<path d="M107.8,133.8c3.2,0,5.4-2.5,5.4-5.7c0-3.2-2.5-5.4-5.7-5.4s-5.4,2.5-5.4,5.7C102.4,131.6,104.9,133.8,107.8,133.8"/>
	<path d="M121.1,134.5c3.8,0,6.7-3.2,6.3-7c0-3.8-3.2-6.7-7-6.7c-3.8,0-6.7,3.2-6.3,7C114.4,131.9,117.6,134.8,121.1,134.5"/>
	<path d="M134.4,134.2c3.8,0,6.7-3.5,6.7-7.3c0-3.8-3.5-6.7-7-6.7c-3.8,0-6.7,3.5-6.7,7.3C127.4,131.3,130.9,134.5,134.4,134.2"/>
	<path d="M147.7,133.8c3.8,0,6.7-3.5,6.7-7.3c0-3.8-3.5-6.7-7-6.7c-3.8,0-6.7,3.5-6.7,7.3C140.8,131,143.9,133.8,147.7,133.8"/>
	<path d="M161.1,133.2c3.8,0,6.7-3.5,6.7-7.3s-3.5-6.7-7-6.7c-3.8,0-6.7,3.5-6.7,7.3C154.1,130.3,157.3,133.2,161.1,133.2"/>
	<path d="M174.4,132.6c3.8,0,6.7-3.5,6.7-7.3s-3.5-6.7-7-6.7c-3.8,0-6.7,3.5-6.7,7.3C167.4,129.7,170.6,132.9,174.4,132.6"/>
	<path d="M187.7,132.3c3.8,0,6.7-3.5,6.7-7.3s-3.5-6.7-7-6.7c-3.8,0-6.7,3.5-6.7,7.3C180.8,129.4,183.9,132.3,187.7,132.3"/>
	<path d="M201.1,131.6c3.8,0,6.7-3.5,6.7-7.3c0-3.8-3.5-6.7-7-6.7c-3.8,0-6.7,3.5-6.7,7.3C194.1,128.8,197.3,131.9,201.1,131.6"/>
	<path d="M214.4,131.3c3.8,0,6.7-3.5,6.7-7.3c0-3.8-3.5-6.7-7-6.7c-3.8,0-6.7,3.5-6.7,7.3C207.4,128.4,210.6,131.3,214.4,131.3"/>
	<path d="M227.7,129.7c3.2,0,6-2.9,5.7-6.3c0-3.2-2.9-6-6.3-5.7c-3.2,0-6,2.9-5.7,6.3C221.7,127.2,224.5,130,227.7,129.7"/>
	<path d="M241,128.1c2.5,0,4.8-2.2,4.8-5.1c0-2.5-2.2-4.8-5.1-4.8c-2.5,0-4.8,2.2-4.8,5.1C236.3,126.2,238.5,128.1,241,128.1"/>
	<path d="M254.4,126.5c1.9,0,3.8-1.9,3.5-3.8c0-1.9-1.9-3.8-3.8-3.5c-1.9,0.3-3.8,1.9-3.5,3.8C250.6,125,252.2,126.5,254.4,126.5"/>
	<path d="M267.7,125c1.6,0,2.9-1.3,2.5-2.9c0-1.6-1.3-2.9-2.9-2.5c-1.6,0-2.9,1.3-2.5,2.9C264.8,124,266.1,125,267.7,125"/>
	<path d="M280.7,123.7c1,0,1.9-1,1.9-1.9c0-1-1-1.9-1.9-1.9c-1,0-1.9,1-1.9,1.9C278.8,122.7,279.8,123.7,280.7,123.7"/>
	<path d="M294,122.4c0.6,0,1.3-0.6,1.3-1.3c0-0.6-0.6-1.3-1.3-1.3s-1.3,0.6-1.3,1.3C292.8,121.8,293.4,122.4,294,122.4"/>
	<path d="M307.4,121.5c0.3,0,0.6-0.3,0.6-0.6c0-0.3-0.3-0.6-0.6-0.6c-0.3,0-0.6,0.3-0.6,0.6S307.1,121.5,307.4,121.5"/>
	<path d="M320.7,120.5C321,120.5,321,120.2,320.7,120.5c0.3-0.3,0-0.6,0-0.6S320.4,120.2,320.7,120.5
		C320.4,120.2,320.7,120.5,320.7,120.5"/>
	<path d="M334,119.6L334,119.6L334,119.6L334,119.6L334,119.6"/>
	<path d="M8.4,145.6L8.4,145.6L8.4,145.6C8.1,145.6,8.1,145.6,8.4,145.6C8.1,145.6,8.1,145.6,8.4,145.6"/>
	<path d="M21.8,145.3c0.3,0,0.3-0.3,0.3-0.3c0-0.3-0.3-0.3-0.3-0.3c-0.3,0-0.3,0.3-0.3,0.3C21.1,145.3,21.4,145.3,21.8,145.3"/>
	<path d="M35.1,145.3c0.3,0,1-0.3,1-1c0-0.3-0.3-1-1-1c-0.3,0-1,0.3-1,1C34.1,144.9,34.5,145.3,35.1,145.3"/>
	<path d="M48.4,145.6c1,0,1.6-0.6,1.3-1.6c0-1-0.6-1.6-1.6-1.3c-1,0-1.6,0.6-1.3,1.6C47.2,145.3,47.5,145.6,48.4,145.6"/>
	<path d="M61.7,145.6c1.3,0,2.2-1,2.2-2.2s-1-2.2-2.2-2.2c-1.3,0-2.2,1-2.2,2.2C59.5,144.6,60.5,145.9,61.7,145.6"/>
	<path d="M75.1,146.2c1.6,0,3.2-1.6,2.9-3.2c0-1.6-1.6-3.2-3.2-2.9c-1.6,0-3.2,1.6-2.9,3.2C71.9,144.9,73.2,146.2,75.1,146.2"/>
	<path d="M88.4,146.5c2.2,0,4.1-1.9,3.8-4.1c0-2.2-1.9-4.1-4.1-3.8c-2.2,0-4.1,1.9-3.8,4.1C84.3,144.9,86.2,146.5,88.4,146.5"/>
	<path d="M101.7,147.2c2.9,0,5.1-2.5,5.1-5.4c0-2.9-2.5-5.1-5.4-5.1s-5.1,2.5-5.1,5.4C96.3,144.9,98.9,147.2,101.7,147.2"/>
	<path d="M115.1,147.8c3.5,0,6.3-3.2,6-6.7c0-3.5-3.2-6.3-6.7-6c-3.5,0-6.3,3.2-6,6.7S111.6,147.8,115.1,147.8"/>
	<path d="M128.4,147.8c3.8,0,6.7-3.5,6.7-7.3s-3.5-6.7-7-6.7c-3.8,0-6.7,3.5-6.7,7.3C121.4,144.9,124.6,147.8,128.4,147.8"/>
	<path d="M141.7,147.2c3.8,0,6.7-3.5,6.7-7.3s-3.5-6.7-7-6.7c-3.8,0-6.7,3.5-6.7,7.3C134.7,144.6,137.9,147.5,141.7,147.2"/>
	<path d="M155,146.9c3.8,0,6.7-3.5,6.7-7.3s-3.5-6.7-7-6.7c-3.8,0-6.7,3.5-6.7,7.3C148.1,144,151.2,146.9,155,146.9"/>
	<path d="M168.4,146.2c3.8,0,6.7-3.5,6.7-7.3c0-3.8-3.5-6.7-7-6.7c-3.8,0-6.7,3.5-6.7,7.3S164.6,146.5,168.4,146.2"/>
	<path d="M181.7,145.9c3.8,0,6.7-3.5,6.7-7.3c0-3.8-3.5-6.7-7-6.7c-3.8,0-6.7,3.5-6.7,7.3C174.7,143,177.9,145.9,181.7,145.9"/>
	<path d="M195,145.3c3.8,0,6.7-3.5,6.7-7.3s-3.5-6.7-7-6.7c-3.8,0-6.7,3.5-6.7,7.3C188,142.4,191.2,145.3,195,145.3"/>
	<path d="M208.4,144.6c3.8,0,6.7-3.5,6.7-7.3s-3.5-6.7-7-6.7c-3.8,0-6.7,3.5-6.7,7.3C201.4,141.8,204.6,144.9,208.4,144.6"/>
	<path d="M221.7,143.4c3.5,0,6-2.9,6-6.3s-2.9-6-6.3-6s-6,2.9-6,6.3S218.2,143.7,221.7,143.4"/>
	<path d="M235,141.8c2.9,0,4.8-2.5,4.8-5.1c0-2.9-2.5-4.8-5.1-4.8c-2.9,0-4.8,2.5-4.8,5.1S232.2,141.8,235,141.8"/>
	<path d="M248,140.2c2.2,0,3.8-1.9,3.8-4.1s-1.9-3.8-4.1-3.8s-3.8,1.9-3.8,4.1C244.2,138.6,246.1,140.2,248,140.2"/>
	<path d="M261.4,138.6c1.6,0,2.9-1.3,2.9-3.2c0-1.6-1.3-2.9-3.2-2.9c-1.6,0-2.9,1.3-2.9,3.2C258.5,137.6,259.8,138.9,261.4,138.6"/>
	<path d="M274.7,137.3c1.3,0,1.9-1,1.9-2.2c0-1.3-1-1.9-2.2-1.9c-1.3,0-1.9,1-1.9,2.2C272.5,136.7,273.4,137.3,274.7,137.3"/>
	<path d="M288,136.1c0.6,0,1.3-0.6,1.3-1.3s-0.6-1.3-1.3-1.3s-1.3,0.6-1.3,1.3C286.7,135.7,287.4,136.1,288,136.1"/>
	<path d="M301.3,135.1c0.3,0,0.6-0.3,0.6-0.6c0-0.3-0.3-0.6-0.6-0.6c-0.3,0-0.6,0.3-0.6,0.6C300.4,134.8,301,135.1,301.3,135.1"/>
	<path d="M314.7,134.2C314.7,134.2,315,133.8,314.7,134.2c0.3-0.3,0-0.6,0-0.6C314.4,133.5,314.4,133.5,314.7,134.2
		C314.4,133.8,314.4,134.2,314.7,134.2"/>
	<path d="M328,133.2L328,133.2L328,133.2L328,133.2L328,133.2"/>
	<path d="M15.4,158.6L15.4,158.6L15.4,158.6L15.4,158.6L15.4,158.6"/>
	<path d="M28.7,158.3C29.1,158.3,29.1,158.3,28.7,158.3c0.3-0.3,0-0.6,0-0.6C28.7,158,28.4,158,28.7,158.3
		C28.4,158.3,28.7,158.3,28.7,158.3"/>
	<path d="M42.1,158.3c0.3,0,0.6-0.3,0.6-0.6c0-0.3-0.3-0.6-0.6-0.6s-0.6,0.3-0.6,0.6C41.4,158,41.8,158.3,42.1,158.3"/>
	<path d="M55.4,158.3c0.6,0,1.3-0.6,1.3-1.3c0-0.6-0.6-1.3-1.3-1.3c-0.6,0-1.3,0.6-1.3,1.3S54.8,158.3,55.4,158.3"/>
	<path d="M68.7,158.6c1,0,1.9-1,1.9-1.9c0-1-1-1.9-1.9-1.9c-1,0-1.9,1-1.9,1.9C66.8,157.6,67.8,158.6,68.7,158.6"/>
	<path d="M82.1,158.6c1.6,0,2.5-1.3,2.5-2.9c0-1.6-1.3-2.5-2.9-2.5s-2.5,1.3-2.5,2.9C79.5,157.6,80.8,158.9,82.1,158.6"/>
	<path d="M95.4,159.2c1.9,0,3.5-1.6,3.5-3.8c0-1.9-1.6-3.5-3.8-3.5c-1.9,0-3.5,1.9-3.5,3.8C91.9,157.6,93.5,159.2,95.4,159.2"/>
	<path d="M108.7,159.5c2.5,0,4.4-2.2,4.4-4.8s-2.2-4.4-4.8-4.4s-4.4,2.2-4.4,4.8C104.3,157.6,106.5,159.5,108.7,159.5"/>
	<path d="M122.4,160.2c3.2,0,5.4-2.9,5.4-5.7c0-3.2-2.9-5.4-5.7-5.4c-3.2,0-5.4,2.9-5.4,5.7C116.6,158,119.2,160.2,122.4,160.2"/>
	<path d="M135.7,160.8c3.8,0,6.7-3.2,6.3-7c0-3.8-3.2-6.7-7-6.3c-3.8,0-6.7,3.2-6.3,7C128.7,158,131.9,160.8,135.7,160.8"/>
	<path d="M149,160.5c3.8,0,6.7-3.5,6.7-7.3c0-3.8-3.5-6.7-7-6.7c-3.8,0-6.7,3.5-6.7,7.3S145.2,160.5,149,160.5"/>
	<path d="M162.3,159.9c3.8,0,6.7-3.5,6.7-7.3s-3.5-6.7-7-6.7c-3.8,0-6.7,3.5-6.7,7.3C155.4,157,158.5,160.2,162.3,159.9"/>
	<path d="M175.7,159.2c3.8,0,6.7-3.5,6.7-7.3c0-3.8-3.5-6.7-7-6.7c-3.8,0-6.7,3.5-6.7,7.3C168.7,156.7,171.9,159.5,175.7,159.2"/>
	<path d="M189,158.9c3.8,0,6.7-3.5,6.7-7.3s-3.5-6.7-7-6.7c-3.8,0-6.7,3.5-6.7,7.3C182,156.1,185.2,158.9,189,158.9"/>
	<path d="M202,158.3c3.8,0,6.7-3.5,6.7-7.3c0-3.8-3.5-6.7-7-6.7c-3.8,0-6.7,3.5-6.7,7.3C195,155.4,198.5,158.6,202,158.3"/>
	<path d="M215.3,158c3.8,0,6.7-3.5,6.7-7.3s-3.5-6.7-7-6.7c-3.8,0-6.7,3.5-6.7,7.3C208.4,155.1,211.5,158,215.3,158"/>
	<path d="M228.7,156.4c3.2,0,5.7-2.9,5.7-6s-2.9-5.7-6-5.7c-3.2,0-5.7,2.9-5.7,6C223,153.8,225.5,156.4,228.7,156.4"/>
	<path d="M242,154.8c2.5,0,4.8-2.2,4.4-4.8c0-2.5-2.2-4.8-4.8-4.4c-2.5,0-4.8,2.2-4.4,4.8C237.2,152.9,239.5,154.8,242,154.8"/>
	<path d="M255.3,153.2c2.2,0,3.8-1.9,3.5-3.8c0-2.2-1.9-3.8-3.8-3.5c-2.2,0-3.8,1.9-3.5,3.8C251.5,151.6,253.1,153.2,255.3,153.2"/>
	<path d="M268.7,151.6c1.6,0,2.9-1.3,2.9-2.9c0-1.6-1.3-2.9-2.9-2.9s-2.9,1.3-2.9,2.9C265.8,150.7,267.1,151.9,268.7,151.6"/>
	<path d="M282,150.3c1.3,0,1.9-1,1.9-2.2s-1-1.9-2.2-1.9s-1.9,1-1.9,2.2C279.8,149.7,280.7,150.3,282,150.3"/>
	<path d="M295.3,149.1c0.6,0,1.3-0.6,1.3-1.3c0-0.6-0.6-1.3-1.3-1.3c-0.6,0-1.3,0.6-1.3,1.3C293.7,148.8,294.4,149.4,295.3,149.1"/>
	<path d="M308.3,148.1c0.3,0,0.6-0.3,0.6-0.6c0-0.3-0.3-0.6-0.6-0.6c-0.3,0-0.6,0.3-0.6,0.6S308,148.1,308.3,148.1"/>
	<path d="M321.6,147.2C322,147.2,322,147.2,321.6,147.2c0.3-0.3,0-0.6,0-0.6C321.6,146.5,321.3,146.9,321.6,147.2
		C321.3,147.2,321.6,147.2,321.6,147.2"/>
	<path d="M335,146.5L335,146.5C335,146.2,335,146.2,335,146.5C335,146.2,335,146.2,335,146.5L335,146.5"/>
	<path d="M22.7,171.9C22.7,171.9,22.7,171.6,22.7,171.9C22.7,171.6,22.7,171.6,22.7,171.9C22.7,171.6,22.4,171.6,22.7,171.9
		C22.4,171.9,22.7,171.9,22.7,171.9"/>
	<path d="M36,171.6c0.3,0,0.3-0.3,0.3-0.3c0-0.3-0.3-0.3-0.3-0.3c-0.3,0-0.3,0.3-0.3,0.3C35.4,171.3,35.7,171.6,36,171.6"/>
	<path d="M49.4,171.6c0.6,0,1-0.3,1-1c0-0.6-0.3-1-1-1c-0.6,0-1,0.3-1,1C48.4,171.3,48.7,171.6,49.4,171.6"/>
	<path d="M62.7,171.6c1,0,1.3-0.6,1.3-1.6s-0.6-1.3-1.6-1.3c-0.6,0-1.3,0.6-1.3,1.6C61.1,171,61.7,171.6,62.7,171.6"/>
	<path d="M76,171.9c1.3,0,2.2-1,1.9-2.2c0-1.3-1-2.2-2.2-2.2c-1.3,0-2.2,1-1.9,2.2C73.8,171,74.8,171.9,76,171.9"/>
	<path d="M89.4,171.9c1.6,0,2.9-1.3,2.9-3.2c0-1.6-1.3-2.9-3.2-2.9c-1.6,0-2.9,1.3-2.9,3.2C86.5,171,87.8,172.2,89.4,171.9"/>
	<path d="M102.7,172.6c2.2,0,3.8-1.9,3.5-3.8s-1.9-3.8-3.8-3.5c-2.2,0-3.8,1.9-3.5,3.8C98.9,171,100.5,172.6,102.7,172.6"/>
	<path d="M116,172.9c2.5,0,4.4-2.2,4.4-4.8s-2.2-4.4-4.8-4.4s-4.4,2.2-4.4,4.8S113.5,172.9,116,172.9"/>
	<path d="M129.3,173.2c3.2,0,5.4-2.5,5.4-5.7s-2.5-5.4-5.7-5.4c-3.2,0-5.4,2.5-5.4,5.7C123.9,171,126.5,173.2,129.3,173.2"/>
	<path d="M142.7,173.5c3.5,0,6-3.2,6-6.3c0-3.5-3.2-6-6.3-6c-3.5,0-6,3.2-6,6.3S139.2,173.5,142.7,173.5"/>
	<path d="M156,173.5c3.8,0,6.7-3.2,6.7-7c0-3.8-3.2-6.7-7-6.7c-3.8,0-6.7,3.2-6.7,7C149,170.7,152.2,173.5,156,173.5"/>
	<path d="M169.3,172.9c3.8,0,6.7-3.5,6.7-7.3c0-3.8-3.5-6.7-7-6.7c-3.8,0-6.7,3.5-6.7,7.3C162.3,170,165.5,173.2,169.3,172.9"/>
	<path d="M182.7,172.6c3.8,0,6.7-3.5,6.7-7.3s-3.5-6.7-7-6.7c-3.8,0-6.7,3.5-6.7,7.3S178.8,172.6,182.7,172.6"/>
	<path d="M196,171.6c3.8,0,6.3-3.2,6.3-7c0-3.8-3.2-6.7-7-6.3c-3.8,0-6.3,3.2-6.3,7C189.3,169.1,192.5,171.9,196,171.6"/>
	<path d="M209.3,170.7c3.2,0,5.7-2.9,5.7-6c0-3.2-2.9-5.7-6-5.7c-3.2,0-5.7,2.9-5.7,6S206.1,170.7,209.3,170.7"/>
	<path d="M222.6,169.1c2.9,0,5.1-2.5,5.1-5.4c0-2.9-2.5-5.1-5.4-5.1c-2.9,0-5.1,2.5-5.1,5.4C217.2,167.2,219.8,169.4,222.6,169.1"/>
	<path d="M236,167.8c2.2,0,4.1-2.2,4.1-4.4c0-2.2-2.2-4.1-4.4-4.1c-2.2,0-4.1,2.2-4.1,4.4C231.5,166.2,233.4,167.8,236,167.8"/>
	<path d="M249.3,166.5c1.9,0,3.5-1.6,3.2-3.5c0-1.9-1.6-3.5-3.5-3.2c-1.9,0-3.5,1.6-3.2,3.5C245.8,164.9,247.4,166.5,249.3,166.5"/>
	<path d="M262.3,165.3c1.3,0,2.5-1.3,2.5-2.5s-1.3-2.5-2.5-2.5c-1.3,0-2.5,1.3-2.5,2.5S261,165.3,262.3,165.3"/>
	<path d="M275.6,164c1,0,1.9-1,1.9-1.9s-1-1.9-1.9-1.9c-1,0-1.9,1-1.9,1.9S274.7,164,275.6,164"/>
	<path d="M289,162.7c0.6,0,1.3-0.6,1.3-1.3s-0.6-1.3-1.3-1.3s-1.3,0.6-1.3,1.3C287.7,162.1,288.3,162.7,289,162.7"/>
	<path d="M302.3,161.8c0.3,0,0.6-0.3,0.6-0.6c0-0.3-0.3-0.6-0.6-0.6c-0.3,0-0.6,0.3-0.6,0.6S302,161.8,302.3,161.8"/>
	<path d="M315.6,160.8C315.6,160.8,315.9,160.5,315.6,160.8c0.3-0.3,0-0.6,0-0.6C315.3,160.2,315.3,160.5,315.6,160.8
		C315.3,160.5,315.6,160.8,315.6,160.8"/>
	<path d="M328.9,159.9L328.9,159.9L328.9,159.9L328.9,159.9L328.9,159.9"/>
	<path d="M43,184.6C43.3,184.6,43.3,184.3,43,184.6c0.3-0.3,0-0.3,0-0.3C43,184,43,184.3,43,184.6C43,184.3,43,184.6,43,184.6"/>
	<path d="M56.4,184.3c0.3,0,0.6-0.3,0.6-0.6s-0.3-0.6-0.6-0.6s-0.6,0.3-0.6,0.6C56,184,56,184.3,56.4,184.3"/>
	<path d="M69.7,184.3c0.6,0,1-0.6,1-1c0-0.6-0.6-1-1-1c-0.6,0-1,0.6-1,1C68.7,184,69.4,184.3,69.7,184.3"/>
	<path d="M83,184.3c1,0,1.6-0.6,1.6-1.6c0-1-0.6-1.6-1.6-1.6c-1,0-1.6,0.6-1.6,1.6C81.4,183.7,82.4,184.3,83,184.3"/>
	<path d="M96.3,184.6c1.3,0,2.2-1,2.2-2.2c0-1.3-1-2.2-2.2-2.2s-2.2,1-2.2,2.2C94.1,183.7,95.4,184.6,96.3,184.6"/>
	<path d="M109.7,184.6c1.6,0,2.9-1.3,2.9-2.9s-1.3-2.9-2.9-2.9s-2.9,1.3-2.9,2.9S108.1,184.6,109.7,184.6"/>
	<path d="M123.3,184.9c1.9,0,3.5-1.6,3.5-3.8c0-1.9-1.6-3.5-3.8-3.5c-1.9,0-3.5,1.9-3.5,3.8S121.1,184.9,123.3,184.9"/>
	<path d="M136.6,184.9c2.2,0,4.1-2.2,4.1-4.4s-2.2-4.1-4.4-4.1s-4.1,2.2-4.1,4.4C132.2,183.3,134.1,184.9,136.6,184.9"/>
	<path d="M150,184.9c2.5,0,4.8-2.2,4.8-5.1c0-2.9-2.2-4.8-5.1-4.8c-2.5,0-4.8,2.2-4.8,5.1C144.9,183,147.1,185.2,150,184.9"/>
	<path d="M163.3,184.9c2.9,0,5.1-2.5,5.1-5.4s-2.5-5.1-5.4-5.1s-5.1,2.5-5.1,5.4C157.9,182.7,160.1,185.2,163.3,184.9"/>
	<path d="M176.6,184.6c3.2,0,5.4-2.9,5.4-5.7c0-3.2-2.9-5.4-5.7-5.4c-3.2,0-5.4,2.9-5.4,5.7C170.9,182.4,173.5,184.9,176.6,184.6"/>
	<path d="M190,184.3c3.2,0,5.4-2.9,5.4-5.7c0-3.2-2.9-5.4-5.7-5.4c-3.2,0-5.4,2.9-5.4,5.7C184.2,182.1,186.8,184.3,190,184.3"/>
	<path d="M203,183.3c2.9,0,5.1-2.5,5.1-5.4c0-2.9-2.5-5.1-5.4-5.1c-2.9,0-5.1,2.5-5.1,5.4C197.6,181.4,200.1,183.7,203,183.3"/>
	<path d="M216.3,182.4c2.5,0,4.8-2.2,4.8-5.1c0-2.5-2.2-4.8-5.1-4.8c-2.5,0-4.8,2.2-4.8,5.1C211.5,180.5,213.8,182.7,216.3,182.4"/>
	<path d="M229.6,181.4c2.2,0,4.1-2.2,4.1-4.4s-2.2-4.1-4.4-4.1c-2.2,0-4.1,2.2-4.1,4.4C225.5,179.5,227.4,181.4,229.6,181.4"/>
	<path d="M242.9,180.2c1.9,0,3.5-1.6,3.5-3.8c0-1.9-1.6-3.5-3.8-3.5c-1.9,0-3.5,1.9-3.5,3.8C239.5,178.9,241,180.2,242.9,180.2"/>
	<path d="M256.3,178.9c1.6,0,2.9-1.3,2.9-2.9s-1.3-2.9-2.9-2.9c-1.6,0-2.9,1.3-2.9,2.9C253.4,177.9,254.7,179.2,256.3,178.9"/>
	<path d="M269.6,177.6c1.3,0,2.2-1,2.2-2.2s-1-2.2-2.2-2.2s-2.2,1-2.2,2.2C267.4,177,268.3,177.9,269.6,177.6"/>
	<path d="M282.9,176.7c1,0,1.6-0.6,1.6-1.6c0-1-0.6-1.6-1.6-1.6s-1.6,0.6-1.6,1.6C281.3,176,282,176.7,282.9,176.7"/>
	<path d="M296.3,175.7c0.6,0,1-0.6,1-1c0-0.6-0.6-1-1-1c-0.6,0-1,0.6-1,1C295.3,175.1,295.6,175.7,296.3,175.7"/>
	<path d="M309.6,174.5c0.3,0,0.6-0.3,0.6-0.6s-0.3-0.6-0.6-0.6c-0.3,0-0.6,0.3-0.6,0.6C309,174.5,309.3,174.5,309.6,174.5"/>
	<path d="M322.9,173.8C322.9,173.8,322.9,173.5,322.9,173.8c0.3-0.3,0-0.3,0-0.3C322.6,173.5,322.6,173.5,322.9,173.8
		C322.6,173.8,322.6,173.8,322.9,173.8"/>
	<path d="M37,197.9L37,197.9L37,197.9L37,197.9L37,197.9"/>
	<path d="M50.3,197.6C50.3,197.6,50.6,197.6,50.3,197.6c0.3-0.3,0-0.6,0-0.6C50,197,50,197.3,50.3,197.6
		C50,197.6,50,197.6,50.3,197.6"/>
	<path d="M63.7,197.3c0.3,0,0.6-0.3,0.6-0.6c0-0.3-0.3-0.6-0.6-0.6c-0.3,0-0.6,0.3-0.6,0.6C63,197.3,63.3,197.3,63.7,197.3"/>
	<path d="M77,197.3c0.6,0,1-0.6,1-1c0-0.6-0.6-1-1-1c-0.6,0-1,0.6-1,1C76,197,76.3,197.3,77,197.3"/>
	<path d="M90.3,197.3c1,0,1.6-0.6,1.6-1.6c0-1-0.6-1.6-1.6-1.6c-1,0-1.6,0.6-1.6,1.6C88.7,196.7,89.4,197.3,90.3,197.3"/>
	<path d="M103.6,197.3c1.3,0,1.9-1,1.9-2.2s-1-1.9-2.2-1.9s-1.9,1-1.9,2.2C101.4,196.7,102.4,197.3,103.6,197.3"/>
	<path d="M117,197.3c1.3,0,2.5-1.3,2.5-2.5c0-1.6-1.3-2.5-2.5-2.5c-1.6,0-2.5,1.3-2.5,2.5C114.4,196.4,115.7,197.3,117,197.3"/>
	<path d="M130.3,197.3c1.6,0,3.2-1.6,3.2-3.2s-1.6-3.2-3.2-3.2s-3.2,1.6-3.2,3.2C127.1,196,128.7,197.6,130.3,197.3"/>
	<path d="M143.6,197.3c1.9,0,3.5-1.6,3.5-3.8c0-1.9-1.6-3.5-3.8-3.5c-1.9,0-3.5,1.6-3.5,3.8C140.1,196,141.7,197.3,143.6,197.3"/>
	<path d="M156.9,197.3c2.2,0,3.8-1.9,3.8-4.1s-1.9-3.8-4.1-3.8c-2.2,0-3.8,1.9-3.8,4.1S154.7,197.3,156.9,197.3"/>
	<path d="M170.3,197c2.2,0,4.1-1.9,4.1-4.4c0-2.2-1.9-4.1-4.4-4.1c-2.2,0-4.1,1.9-4.1,4.4C166.2,195.1,168.1,197,170.3,197"/>
	<path d="M183.6,196.4c2.2,0,4.1-1.9,4.1-4.4c0-2.2-1.9-4.1-4.4-4.1c-2.2,0-4.1,1.9-4.1,4.4C179.5,194.8,181.4,196.7,183.6,196.4"/>
	<path d="M196.9,195.7c2.2,0,4.1-1.9,3.8-4.1c0-2.2-1.9-4.1-4.1-3.8c-2.2,0-4.1,1.9-3.8,4.1C192.8,194.1,194.7,196,196.9,195.7"/>
	<path d="M210.3,195.1c1.9,0,3.8-1.9,3.5-3.8c0-1.9-1.9-3.8-3.8-3.5c-1.9,0.3-3.8,1.9-3.5,3.8C206.5,193.5,208,195.1,210.3,195.1"/>
	<path d="M223.6,194.1c1.9,0,3.2-1.6,3.2-3.5c0-1.9-1.6-3.2-3.5-3.2c-1.9,0-3.2,1.6-3.2,3.5C220.1,192.5,221.7,194.1,223.6,194.1"/>
	<path d="M236.9,193.2c1.6,0,2.9-1.3,2.9-2.9c0-1.6-1.3-2.9-2.9-2.9s-2.9,1.3-2.9,2.9C234.1,191.9,235.3,193.2,236.9,193.2"/>
	<path d="M250.2,191.9c1.3,0,2.2-1,2.2-2.2c0-1.3-1-2.2-2.2-2.2c-1.3,0-2.2,1-2.2,2.2C247.7,191,249,191.9,250.2,191.9"/>
	<path d="M263.3,191c1,0,1.6-1,1.6-1.9c0-1-1-1.6-1.9-1.6s-1.6,1-1.6,1.9C261.7,190.3,262.6,191,263.3,191"/>
	<path d="M276.6,190c0.6,0,1.3-0.6,1.3-1.3c0-0.6-0.6-1.3-1.3-1.3c-0.6,0-1.3,0.6-1.3,1.3C275.6,189.4,276,190,276.6,190"/>
	<path d="M289.9,189.1c0.3,0,0.6-0.3,0.6-0.6s-0.3-0.6-0.6-0.6c-0.3,0-0.6,0.3-0.6,0.6S289.6,189.1,289.9,189.1"/>
	<path d="M303.2,188.1c0.3,0,0.3-0.3,0.3-0.3c0-0.3-0.3-0.3-0.3-0.3c-0.3,0-0.3,0.3-0.3,0.3L303.2,188.1"/>
	<path d="M316.6,187.2L316.6,187.2L316.6,187.2L316.6,187.2L316.6,187.2"/>
	<path d="M57.6,210.6L57.6,210.6C57.6,210.3,57.6,210.3,57.6,210.6C57.3,210.3,57.3,210.3,57.6,210.6
		C57.3,210.6,57.3,210.6,57.6,210.6"/>
	<path d="M70.6,210.3C71,210.3,71,210,70.6,210.3c0.3-0.3,0-0.3,0-0.3C70.6,209.7,70.6,209.7,70.6,210.3
		C70.6,210,70.6,210.3,70.6,210.3"/>
	<path d="M84,210c0.3,0,0.6-0.3,0.6-0.6s-0.3-0.6-0.6-0.6c-0.3,0-0.6,0.3-0.6,0.6C83.6,209.7,84,210,84,210"/>
	<path d="M97.3,209.7c0.6,0,1-0.3,1-1s-0.3-1-1-1s-1,0.3-1,1C96.7,209.4,97,209.7,97.3,209.7"/>
	<path d="M110.6,209.7c0.6,0,1.3-0.6,1.3-1.3s-0.6-1.3-1.3-1.3c-0.6,0-1.3,0.6-1.3,1.3S110,209.7,110.6,209.7"/>
	<path d="M124.3,209.7c1,0,1.6-1,1.6-1.9c0-1-1-1.6-1.9-1.6c-1,0-1.6,1-1.6,1.9C122.4,209,123.3,209.7,124.3,209.7"/>
	<path d="M137.6,209.4c1.3,0,2.2-1,1.9-2.2c0-1.3-1-2.2-2.2-1.9c-1.3,0-2.2,1-1.9,2.2S136.3,209.7,137.6,209.4"/>
	<path d="M150.9,209.4c1.3,0,2.5-1.3,2.5-2.5s-1.3-2.5-2.5-2.5c-1.3,0-2.5,1.3-2.2,2.5C148.4,208.4,149.3,209.4,150.9,209.4"/>
	<path d="M164.2,209c1.6,0,2.5-1.3,2.5-2.9s-1.3-2.5-2.9-2.5c-1.6,0-2.5,1.3-2.5,2.9C161.4,208.1,162.7,209,164.2,209"/>
	<path d="M177.6,208.7c1.6,0,2.9-1.3,2.9-3.2c0-1.6-1.3-2.9-3.2-2.9c-1.6,0-2.9,1.3-2.9,3.2C174.4,207.5,175.7,208.7,177.6,208.7"/>
	<path d="M190.6,208.4c1.6,0,2.9-1.6,2.9-3.2c0-1.6-1.6-2.9-3.2-2.9c-1.6,0-2.9,1.6-2.9,3.2C187.7,207.1,189,208.4,190.6,208.4"/>
	<path d="M203.9,207.8c1.6,0,2.9-1.3,2.9-2.9c0-1.6-1.3-2.9-2.9-2.9c-1.6,0-2.9,1.3-2.9,2.9C201.1,206.5,202.3,207.8,203.9,207.8"/>
	<path d="M217.2,207.1c1.6,0,2.5-1.3,2.5-2.9c0-1.6-1.3-2.5-2.9-2.5c-1.6,0-2.5,1.3-2.5,2.9C214.7,205.9,216,207.1,217.2,207.1"/>
	<path d="M230.6,206.2c1.3,0,2.2-1.3,2.2-2.5c0-1.3-1.3-2.2-2.5-2.2s-2.2,1.3-2.2,2.5C228.4,205.2,229.3,206.2,230.6,206.2"/>
	<path d="M243.9,205.2c1.3,0,1.9-1,1.9-2.2c0-1.3-1-1.9-2.2-1.9c-1.3,0-1.9,1-1.9,2.2C242,204.6,242.9,205.2,243.9,205.2"/>
	<path d="M257.2,204.3c1,0,1.6-0.6,1.6-1.6s-0.6-1.6-1.6-1.6s-1.6,0.6-1.6,1.6S256.3,204.3,257.2,204.3"/>
	<path d="M270.6,203.3c0.6,0,1.3-0.6,1.3-1.3c0-0.6-0.6-1.3-1.3-1.3s-1.3,0.6-1.3,1.3C269.3,203,269.9,203.7,270.6,203.3"/>
	<path d="M283.9,202.7c0.3,0,1-0.3,0.6-1c0-0.3-0.3-1-1-0.6c-0.3,0-1,0.3-0.6,1C282.9,202.4,283.6,202.7,283.9,202.7"/>
	<path d="M297.2,201.8c0.3,0,0.3-0.3,0.3-0.3c0-0.3-0.3-0.3-0.3-0.3c-0.3,0-0.3,0.3-0.3,0.3C296.6,201.4,296.9,201.8,297.2,201.8"/>
	<path d="M310.5,200.8L310.5,200.8c0.3-0.3,0-0.3,0-0.3C310.2,200.5,310.2,200.8,310.5,200.8C310.2,200.8,310.2,200.8,310.5,200.8"
		/>
	<path d="M77.9,223.3C77.9,223.3,78.2,223,77.9,223.3C78.2,223,77.9,223,77.9,223.3C77.9,223,77.9,223,77.9,223.3
		C77.9,223,77.9,223.3,77.9,223.3"/>
	<path d="M91.3,223c0.3,0,0.3-0.3,0.3-0.3c0-0.3-0.3-0.3-0.3-0.3c-0.3,0-0.3,0.3-0.3,0.3C90.9,222.7,90.9,223,91.3,223"/>
	<path d="M104.6,222.7c0.3,0,0.6-0.3,0.6-0.6c0-0.3-0.3-0.6-0.6-0.6c-0.3,0-0.6,0.3-0.6,0.6C104,222.4,104.3,222.7,104.6,222.7"/>
	<path d="M117.9,222.4c0.6,0,1-0.3,1-1c0-0.6-0.3-1-1-1s-1,0.3-1,1C117,222.1,117.3,222.4,117.9,222.4"/>
	<path d="M131.2,222.4c0.6,0,1.3-0.6,1.3-1.3c0-0.6-0.6-1.3-1.3-1.3c-0.6,0-1.3,0.6-1.3,1.3C130,221.7,130.6,222.4,131.2,222.4"/>
	<path d="M144.6,222.1c1,0,1.6-0.6,1.6-1.6s-0.6-1.6-1.6-1.6c-1,0-1.6,0.6-1.6,1.6S143.6,222.1,144.6,222.1"/>
	<path d="M157.9,221.7c1,0,1.6-1,1.6-1.9c0-1-1-1.6-1.9-1.6c-1,0-1.6,1-1.6,1.9C156,221.1,156.9,221.7,157.9,221.7"/>
	<path d="M171.2,221.4c1,0,1.9-1,1.9-1.9c0-1-1-1.9-1.9-1.9c-1,0-1.9,1-1.9,1.9C169.3,220.5,170.3,221.4,171.2,221.4"/>
	<path d="M184.6,220.8c1,0,1.9-1,1.9-1.9c0-1-1-1.9-1.9-1.9c-1,0-1.9,1-1.9,1.9C182.7,220.2,183.6,220.8,184.6,220.8"/>
	<path d="M197.9,220.5c1,0,1.9-1,1.9-1.9c0-1-1-1.9-1.9-1.9s-1.9,1-1.9,1.9C196,219.5,196.9,220.5,197.9,220.5"/>
	<path d="M211.2,219.8c1,0,1.6-1,1.6-1.9c0-1-1-1.6-1.9-1.6c-1,0-1.6,1-1.6,1.9C209.3,218.9,210.3,219.8,211.2,219.8"/>
	<path d="M224.5,218.9c1,0,1.6-0.6,1.6-1.6s-0.6-1.6-1.6-1.6s-1.6,0.6-1.6,1.6S223.6,218.9,224.5,218.9"/>
	<path d="M237.9,218.3c0.6,0,1.3-0.6,1.3-1.3s-0.6-1.3-1.3-1.3c-0.6,0-1.3,0.6-1.3,1.3S236.9,218.3,237.9,218.3"/>
	<path d="M251.2,217.3c0.6,0,1-0.6,1-1c0-0.6-0.6-1-1-1c-0.6,0-1,0.6-1,1C249.9,217,250.6,217.3,251.2,217.3"/>
	<path d="M264.5,216.7c0.3,0,0.6-0.3,0.6-0.6s-0.3-0.6-0.6-0.6c-0.3,0-0.6,0.3-0.6,0.6S263.9,216.7,264.5,216.7"/>
	<path d="M277.9,215.7c0.3,0,0.3-0.3,0.3-0.3c0-0.3-0.3-0.3-0.3-0.3c-0.3,0-0.3,0.3-0.3,0.3C277.2,215.7,277.5,215.7,277.9,215.7"/>
	<path d="M290.9,215.1C291.2,215.1,291.2,215.1,290.9,215.1c0.3-0.3,0-0.3,0-0.3S290.9,214.8,290.9,215.1L290.9,215.1"/>
	<path d="M304.2,214.4L304.2,214.4L304.2,214.4L304.2,214.4L304.2,214.4"/>
	<path d="M98.6,235.7L98.6,235.7C98.6,235.7,98.6,235.4,98.6,235.7C98.2,235.7,98.2,235.7,98.6,235.7
		C98.2,235.7,98.2,235.7,98.6,235.7"/>
	<path d="M111.9,235.4C111.9,235.4,111.9,235.1,111.9,235.4c0.3-0.3,0-0.3,0-0.3C111.6,234.8,111.6,235.1,111.9,235.4
		C111.6,235.4,111.6,235.4,111.9,235.4"/>
	<path d="M125.2,235.1c0.3,0,0.3-0.3,0.3-0.3c0-0.3-0.3-0.3-0.3-0.3c-0.3,0-0.3,0.3-0.3,0.3C124.6,234.8,124.9,235.1,125.2,235.1"/>
	<path d="M138.5,234.8c0.3,0,0.6-0.3,0.6-0.6s-0.3-0.6-0.6-0.6c-0.3,0-0.6,0.3-0.6,0.6S138.2,234.8,138.5,234.8"/>
	<path d="M151.9,234.4c0.3,0,0.6-0.3,0.6-1c0-0.3-0.3-0.6-1-0.6c-0.3,0-0.6,0.3-0.6,1C150.9,234.1,151.2,234.4,151.9,234.4"/>
	<path d="M165.2,234.1c0.6,0,1-0.3,1-1s-0.3-1-1-1c-0.6,0-1,0.3-1,1C164.2,233.5,164.6,234.1,165.2,234.1"/>
	<path d="M178.2,233.5c0.6,0,1-0.6,1-1c0-0.6-0.6-1-1-1c-0.3,0-1,0.3-1,1C177.3,233.2,177.9,233.5,178.2,233.5"/>
	<path d="M191.5,233.2c0.6,0,1-0.6,1-1.3s-0.6-1-1.3-1c-0.6,0-1,0.6-1,1.3C190.6,232.5,191.2,233.2,191.5,233.2"/>
	<path d="M204.9,232.5c0.6,0,1-0.6,1-1.3c0-0.6-0.6-1-1.3-1c-0.6,0-1,0.6-1,1.3C203.9,232.2,204.6,232.5,204.9,232.5"/>
	<path d="M218.2,231.9c0.6,0,1-0.6,1-1c0-0.6-0.6-1-1-1c-0.6,0-1,0.6-1,1C217.2,231.6,217.9,231.9,218.2,231.9"/>
	<path d="M231.5,231.3c0.3,0,1-0.3,1-1c0-0.3-0.3-1-1-1c-0.3,0-1,0.3-1,1C230.9,230.9,231.2,231.3,231.5,231.3"/>
	<path d="M244.9,230.6c0.3,0,0.6-0.3,0.6-0.6s-0.3-0.6-0.6-0.6c-0.3,0-0.6,0.3-0.6,0.6C244.2,230.3,244.5,230.6,244.9,230.6"/>
	<path d="M258.2,230c0.3,0,0.3-0.3,0.3-0.6s-0.3-0.3-0.6-0.3c-0.3,0-0.3,0.3-0.3,0.6C257.9,229.7,257.9,230,258.2,230"/>
	<path d="M271.5,229.4C271.8,229.4,271.8,229,271.5,229.4c0.3-0.3,0-0.6,0-0.6S271.2,228.7,271.5,229.4
		C271.2,229,271.5,229.4,271.5,229.4"/>
	<path d="M284.8,228.7C284.8,228.7,285.2,228.4,284.8,228.7C285.2,228.4,284.8,228.4,284.8,228.7
		C284.8,228.4,284.8,228.4,284.8,228.7C284.8,228.4,284.8,228.7,284.8,228.7"/>
	<path d="M298.2,228.1L298.2,228.1C298.2,228.1,298.2,227.8,298.2,228.1L298.2,228.1L298.2,228.1"/>
	<path d="M118.9,248.1L118.9,248.1L118.9,248.1L118.9,248.1L118.9,248.1"/>
	<path d="M132.2,247.8C132.2,247.8,132.5,247.8,132.2,247.8C132.5,247.4,132.2,247.4,132.2,247.8
		C132.2,247.4,132.2,247.8,132.2,247.8L132.2,247.8"/>
	<path d="M145.5,247.4C145.5,247.4,145.8,247.4,145.5,247.4c0.3-0.3,0-0.3,0-0.3C145.5,246.8,145.2,247.1,145.5,247.4
		C145.2,247.4,145.5,247.4,145.5,247.4"/>
	<path d="M158.9,247.1c0.3,0,0.3-0.3,0.3-0.3c0-0.3-0.3-0.3-0.3-0.3c-0.3,0-0.3,0.3-0.3,0.3S158.5,247.1,158.9,247.1"/>
	<path d="M172.2,246.5c0.3,0,0.3-0.3,0.3-0.3c0-0.3-0.3-0.3-0.3-0.3c-0.3,0-0.3,0.3-0.3,0.3C171.9,246.5,171.9,246.5,172.2,246.5"/>
	<path d="M185.5,246.2c0.3,0,0.3-0.3,0.3-0.3c0-0.3-0.3-0.3-0.3-0.3c-0.3,0-0.3,0.3-0.3,0.3S185.2,246.2,185.5,246.2"/>
	<path d="M198.8,245.5c0.3,0,0.3-0.3,0.3-0.3c0-0.3-0.3-0.3-0.3-0.3c-0.3,0-0.3,0.3-0.3,0.3C198.5,245.5,198.5,245.5,198.8,245.5"/>
	<path d="M212.2,244.9c0.3,0,0.3-0.3,0.3-0.3c0-0.3-0.3-0.3-0.3-0.3c-0.3,0-0.3,0.3-0.3,0.3C211.8,244.9,211.8,244.9,212.2,244.9"/>
	<path d="M225.5,244.6c0.3,0,0.3-0.3,0.3-0.3c0-0.3-0.3-0.3-0.3-0.3c-0.3,0-0.3,0.3-0.3,0.3S225.2,244.6,225.5,244.6"/>
	<path d="M238.8,244C238.8,244,239.1,243.6,238.8,244c0.3-0.3,0-0.3,0-0.3C238.5,243.3,238.5,243.6,238.8,244
		C238.5,243.6,238.5,244,238.8,244"/>
	<path d="M252.2,243.3L252.2,243.3C252.2,243,252.2,243,252.2,243.3C251.8,243,251.8,243,252.2,243.3
		C251.8,243.3,252.2,243.3,252.2,243.3"/>
	<path d="M265.5,242.7L265.5,242.7L265.5,242.7L265.5,242.7L265.5,242.7"/>
	<path class="st0" d="M70,296l31.7-234.5l291.6,43.2l-89.2,161.5l-173.6-40L70,296z M124.9,208.1l171,39.4l71.7-129.8l-252-37.4
		L93.5,244L124.9,208.1z"/>
	<polygon class="st1" points="112.5,66.9 85.5,265.9 131.6,213.2 303.9,252.8 384.5,107.2 	"/>
	<g>
		<g>
			<g>
				<g>
					<defs>
						<polygon id="SVGID_1_" points="93.5,263.9 139.5,211.3 311.8,250.9 392.1,105.3 120.5,65 						"/>
					</defs>
					<clipPath id="SVGID_2_">
						<use xlink:href="#SVGID_1_"  style="overflow:visible;"/>
					</clipPath>
					<path class="st2" d="M173.1,223.3l-3.2-2.9c0.3-0.3,16.8-19,17.8-39.4c1-20.6,1.9-38.7,26.3-61.6c20.3-19,37.8-19.4,51.7-19.4
						c6,0,12.1,0,17.1-1.6c13.3-4.1,21.9-9.8,21.9-9.8l2.2,3.5c-0.3,0.3-9.2,6-22.8,10.5c-5.7,1.9-11.7,1.9-18.4,1.9
						c-14,0-29.8,0.3-48.9,18.4c-23.2,21.9-23.8,38.1-24.8,58.7C190.9,203.3,174.1,222.7,173.1,223.3"/>
				</g>
			</g>
		</g>
		<g>
			<g>
				<g>
					<defs>
						<polygon id="SVGID_3_" points="93.5,263.9 139.5,211.3 311.8,250.9 392.1,105.3 120.5,65 						"/>
					</defs>
					<clipPath id="SVGID_4_">
						<use xlink:href="#SVGID_3_"  style="overflow:visible;"/>
					</clipPath>
					<path class="st3" d="M189.3,240.1l-2.9-3.2c1-0.6,20.3-17.1,42.2-17.8c20.6-0.6,36.8-1,59.3-23.8
						c18.4-18.7,18.7-34.6,19.4-48.6c0.3-6.3,0.3-12.7,2.2-18.4c4.8-14,10.5-22.5,10.8-22.8l3.5,2.5c0,0-5.7,8.6-10.2,21.9
						c-1.6,5.1-1.9,11.1-2.2,17.1c-0.3,14-1,31.4-20.3,51.4c-23.5,23.8-41.6,24.4-62.2,25.1C208.4,224,189.3,240.1,189.3,240.1"/>
				</g>
			</g>
		</g>
		<g>
			<g>
				<g>
					<defs>
						<polygon id="SVGID_5_" points="93.5,263.9 139.5,211.3 311.8,250.9 392.1,105.3 120.5,65 						"/>
					</defs>
					<clipPath id="SVGID_6_">
						<use xlink:href="#SVGID_5_"  style="overflow:visible;"/>
					</clipPath>
					<path class="st4" d="M276.3,112.3c-16.5,8.3-30.5,19.7-43.8,32.7c-13.3,12.7-24.8,27-33.3,43.2
						C206.5,156.1,243.6,119.2,276.3,112.3"/>
				</g>
			</g>
		</g>
		<g>
			<g>
				<g>
					<defs>
						<polygon id="SVGID_7_" points="93.5,263.9 139.5,211.3 311.8,250.9 392.1,105.3 120.5,65 						"/>
					</defs>
					<clipPath id="SVGID_8_">
						<use xlink:href="#SVGID_7_"  style="overflow:visible;"/>
					</clipPath>
					<path class="st5" d="M256,112.6c-11.7,6.7-21.9,14.9-31.4,24.4c-9.5,9.2-17.8,19.4-25.1,30.8C203.9,144,231.8,116.4,256,112.6"
						/>
				</g>
			</g>
		</g>
		<g>
			<g>
				<g>
					<defs>
						<polygon id="SVGID_9_" points="93.5,263.9 139.5,211.3 311.8,250.9 392.1,105.3 120.5,65 						"/>
					</defs>
					<clipPath id="SVGID_10_">
						<use xlink:href="#SVGID_9_"  style="overflow:visible;"/>
					</clipPath>
					<path class="st6" d="M237.2,150c-19.4,19-32.1,39.4-31.1,48.9l80.6-79C276.9,118.9,256.6,131,237.2,150"/>
				</g>
			</g>
		</g>
		<g>
			<g>
				<g>
					<defs>
						<polygon id="SVGID_11_" points="93.5,263.9 139.5,211.3 311.8,250.9 392.1,105.3 120.5,65 						"/>
					</defs>
					<clipPath id="SVGID_12_">
						<use xlink:href="#SVGID_11_"  style="overflow:visible;"/>
					</clipPath>
					<path class="st7" d="M299.4,136.1c-7.3,32.4-45.1,68.9-77.4,75.8c16.5-8.6,30.8-19.7,43.8-32.7
						C279.1,166.5,290.9,152.6,299.4,136.1"/>
				</g>
			</g>
		</g>
		<g>
			<g>
				<g>
					<defs>
						<polygon id="SVGID_13_" points="93.5,263.9 139.5,211.3 311.8,250.9 392.1,105.3 120.5,65 						"/>
					</defs>
					<clipPath id="SVGID_14_">
						<use xlink:href="#SVGID_13_"  style="overflow:visible;"/>
					</clipPath>
					<path class="st8" d="M298.8,156.7c-4.1,24.1-32.4,51.4-56.5,55.2c11.7-6.7,21.9-14.9,31.4-24.4
						C283.6,177.9,292.1,168.4,298.8,156.7"/>
				</g>
			</g>
		</g>
		<g>
			<g>
				<g>
					<defs>
						<polygon id="SVGID_15_" points="93.5,263.9 139.5,211.3 311.8,250.9 392.1,105.3 120.5,65 						"/>
					</defs>
					<clipPath id="SVGID_16_">
						<use xlink:href="#SVGID_15_"  style="overflow:visible;"/>
					</clipPath>
					<path class="st9" d="M261,174.5c-19.4,19-39.7,31.1-49.5,30.1l80.6-79C293.1,135.1,280.7,155.4,261,174.5"/>
				</g>
			</g>
		</g>
		<g>
			<g>
				<g>
					<defs>
						<polygon id="SVGID_17_" points="93.5,263.9 139.5,211.3 311.8,250.9 392.1,105.3 120.5,65 						"/>
					</defs>
					<clipPath id="SVGID_18_">
						<use xlink:href="#SVGID_17_"  style="overflow:visible;"/>
					</clipPath>
					<path class="st10" d="M173.1,223.3l-3.2-2.9c0.3-0.3,16.8-19,17.8-39.4c1-20.6,1.9-38.7,26.3-61.6c20.3-19,37.8-19.4,51.7-19.4
						c6,0,12.1,0,17.1-1.6c13.3-4.1,21.9-9.8,21.9-9.8l2.2,3.5c-0.3,0.3-9.2,6-22.8,10.5c-5.7,1.9-11.7,1.9-18.4,1.9
						c-14,0-29.8,0.3-48.9,18.4c-23.2,21.9-23.8,38.1-24.8,58.7C190.9,203.3,174.1,222.7,173.1,223.3"/>
				</g>
			</g>
		</g>
		<g>
			<g>
				<g>
					<defs>
						<polygon id="SVGID_19_" points="93.5,263.9 139.5,211.3 311.8,250.9 392.1,105.3 120.5,65 						"/>
					</defs>
					<clipPath id="SVGID_20_">
						<use xlink:href="#SVGID_19_"  style="overflow:visible;"/>
					</clipPath>
					<path class="st11" d="M189.3,240.1l-2.9-3.2c1-0.6,20.3-17.1,42.2-17.8c20.6-0.6,36.8-1,59.3-23.8
						c18.4-18.7,18.7-34.6,19.4-48.6c0.3-6.3,0.3-12.7,2.2-18.4c4.8-14,10.5-22.5,10.8-22.8l3.5,2.5c0,0-5.7,8.6-10.2,21.9
						c-1.6,5.1-1.9,11.1-2.2,17.1c-0.3,14-1,31.4-20.3,51.4c-23.5,23.8-41.6,24.4-62.2,25.1C208.4,224,189.3,240.1,189.3,240.1"/>
				</g>
			</g>
		</g>
		<g>
			<g>
				<g>
					<defs>
						<polygon id="SVGID_21_" points="93.5,263.9 139.5,211.3 311.8,250.9 392.1,105.3 120.5,65 						"/>
					</defs>
					<clipPath id="SVGID_22_">
						<use xlink:href="#SVGID_21_"  style="overflow:visible;"/>
					</clipPath>
					<path class="st12" d="M276.3,112.3c-16.5,8.3-30.5,19.7-43.8,32.7c-13.3,12.7-24.8,27-33.3,43.2
						C206.5,156.1,243.6,119.2,276.3,112.3"/>
				</g>
			</g>
		</g>
		<g>
			<g>
				<g>
					<defs>
						<polygon id="SVGID_23_" points="93.5,263.9 139.5,211.3 311.8,250.9 392.1,105.3 120.5,65 						"/>
					</defs>
					<clipPath id="SVGID_24_">
						<use xlink:href="#SVGID_23_"  style="overflow:visible;"/>
					</clipPath>
					<path class="st13" d="M256,112.6c-11.7,6.7-21.9,14.9-31.4,24.4c-9.5,9.2-17.8,19.4-25.1,30.8C203.9,144,231.8,116.4,256,112.6
						"/>
				</g>
			</g>
		</g>
		<g>
			<g>
				<g>
					<defs>
						<polygon id="SVGID_25_" points="93.5,263.9 139.5,211.3 311.8,250.9 392.1,105.3 120.5,65 						"/>
					</defs>
					<clipPath id="SVGID_26_">
						<use xlink:href="#SVGID_25_"  style="overflow:visible;"/>
					</clipPath>
					<path class="st14" d="M237.2,150c-19.4,19-32.1,39.4-31.1,48.9l80.6-79C276.9,118.9,256.6,131,237.2,150"/>
				</g>
			</g>
		</g>
		<g>
			<g>
				<g>
					<defs>
						<polygon id="SVGID_27_" points="93.5,263.9 139.5,211.3 311.8,250.9 392.1,105.3 120.5,65 						"/>
					</defs>
					<clipPath id="SVGID_28_">
						<use xlink:href="#SVGID_27_"  style="overflow:visible;"/>
					</clipPath>
					<path class="st15" d="M299.4,136.1c-7.3,32.4-45.1,68.9-77.4,75.8c16.5-8.6,30.8-19.7,43.8-32.7
						C279.1,166.5,290.9,152.6,299.4,136.1"/>
				</g>
			</g>
		</g>
		<g>
			<g>
				<g>
					<defs>
						<polygon id="SVGID_29_" points="93.5,263.9 139.5,211.3 311.8,250.9 392.1,105.3 120.5,65 						"/>
					</defs>
					<clipPath id="SVGID_30_">
						<use xlink:href="#SVGID_29_"  style="overflow:visible;"/>
					</clipPath>
					<path class="st16" d="M298.8,156.7c-4.1,24.1-32.4,51.4-56.5,55.2c11.7-6.7,21.9-14.9,31.4-24.4
						C283.6,177.9,292.1,168.4,298.8,156.7"/>
				</g>
			</g>
		</g>
		<g>
			<g>
				<g>
					<defs>
						<polygon id="SVGID_31_" points="93.5,263.9 139.5,211.3 311.8,250.9 392.1,105.3 120.5,65 						"/>
					</defs>
					<clipPath id="SVGID_32_">
						<use xlink:href="#SVGID_31_"  style="overflow:visible;"/>
					</clipPath>
					<path class="st17" d="M261,174.5c-19.4,19-39.7,31.1-49.5,30.1l80.6-79C293.1,135.1,280.7,155.4,261,174.5"/>
				</g>
			</g>
		</g>
		<g>
			<g>
				<g>
					<defs>
						<polygon id="SVGID_33_" points="93.5,263.9 139.5,211.3 311.8,250.9 392.1,105.3 120.5,65 						"/>
					</defs>
					<clipPath id="SVGID_34_">
						<use xlink:href="#SVGID_33_"  style="overflow:visible;"/>
					</clipPath>
					<path class="st18" d="M212.8,147.5c0-1-0.6-1.9-1.3-2.5c1.9-1,3.2-3.2,2.9-5.4c-0.3-1.3-1-2.5-2.2-3.5c-1.3-1-2.5-1.3-4.1-1
						c-0.3,0-1,0.3-1.3,0.3c-0.3-1-0.6-1.6-1.3-2.2c0.3-0.3,0.3-0.3,0.6-0.6c1-1.3,1.3-2.5,1.3-3.8h0.3c1.3-0.3,2.5-1,3.5-2.2
						c1-1.3,1.3-2.5,1-4.1c-0.3-1.6-1-2.5-2.2-3.5c-1.3-1-2.5-1.3-4.1-1c-1.3,0.3-2.5,1-3.5,2.2c-0.6,1-1,1.9-1,2.9
						c-0.3,0-0.6,0-1,0c-0.3,0-1,0.3-1.3,0.3c-0.3-0.6-0.6-1.3-1-1.6c-1-1.3-2.5-2.2-4.1-2.2c-3.5-0.3-6.3,2.2-6.7,5.7
						c-0.3,3.5,2.2,6.3,5.7,6.7c1,0,1.9,0,2.9-0.6c0.3,0.6,0.6,1.3,1.3,1.9l0,0c-0.6,1-1.3,2.2-1,3.5l0,0c-0.6,0-1,0-1.6,0
						c-1.3,0.3-2.5,1-3.5,2.2c-1,1.3-1.3,2.5-1,4.1c0.3,1.3,1,2.5,2.2,3.5c0.6,0.6,1.3,1,2.2,1v0.3c-0.3,1-0.3,1.6-0.3,2.5
						c0.3,1.3,1,2.5,2.2,3.5c0.6,0.3,1.3,0.6,1.9,1c0.3,0,0.6,0,1,0c0.3,0,1,0,1.3,0c1.6-0.3,2.9-1.3,3.8-2.5c0,0,0.3,0,0.3,0.3
						c1,0.6,1.9,1,2.9,1c0.3,0,1,0,1.3,0c1.3-0.3,2.5-1,3.5-2.2l0,0C212.8,150.3,213.1,148.8,212.8,147.5 M200.4,144
						c0.3-0.6,0.3-1.6,0.3-2.5h0.3c0.3,0,1,0,1.3,0c0.3,0,1-0.3,1.3-0.3c0.3,1,0.6,1.6,1,2.2c-0.6,0.3-1.3,1-1.6,1.6
						c0,0,0,0.3-0.3,0.3c0,0-0.3,0-0.3-0.3C201.7,144.6,201.1,144.3,200.4,144C200.7,144,200.4,144,200.4,144"/>
				</g>
			</g>
		</g>
		<g>
			<g>
				<g>
					<defs>
						<polygon id="SVGID_35_" points="93.5,263.9 139.5,211.3 311.8,250.9 392.1,105.3 120.5,65 						"/>
					</defs>
					<clipPath id="SVGID_36_">
						<use xlink:href="#SVGID_35_"  style="overflow:visible;"/>
					</clipPath>
					<path class="st19" d="M210.3,147.8c0-1-0.6-1.9-1.6-2.2l0.3-2.9h0.3c1.6-0.3,2.5-1.6,2.2-3.2c-0.3-1.6-1.6-2.5-3.2-2.2
						c-0.6,0-1.3,0.6-1.9,1l0,0l-2.5-1.3c0-0.3,0.3-1,0-1.3c-0.3-1.3-1.3-2.2-2.5-2.2v-1.6l0,0c1.9-0.3,3.2-1.9,2.9-3.8
						c0-0.6-0.3-1.3-0.6-1.6l1-1.3c0.3,0.3,1,0.6,1.6,0.6c0.3,0,0.3,0,0.6,0l0,0c0.6,0,1.3-0.6,1.9-1c0.3-0.6,0.6-1.3,0.6-2.2
						c0-0.6-0.6-1.3-1-1.9c-0.6-0.3-1.3-0.6-2.2-0.6c-0.6,0-1.3,0.6-1.9,1c-0.3,0.6-0.6,1.3-0.6,2.2c0,0.3,0.3,0.6,0.3,1l-1.3,1.6
						c-0.6-0.6-1.6-0.6-2.5-0.6c-1.3,0.3-1.9,1-2.5,1.9l-1.6-0.6c0-0.3,0-0.6,0-0.6c0.3-1.9-1.3-3.8-3.5-3.8
						c-1.9-0.3-3.8,1.3-3.8,3.5c-0.3,1.9,1.3,3.8,3.5,3.8c1.6,0,2.9-0.6,3.5-1.9l1.6,0.6c0,0.3,0,1,0,1.3c0.3,1.6,1.3,2.5,2.9,2.9
						v1.6c-0.6,0-1.3,0.6-1.6,1c-0.3,0.6-0.6,1.3-0.6,2.2c0,0.3,0,0.6,0.3,1l-2.2,2.2c-0.6-0.3-1.3-0.6-1.9-0.3
						c-0.6,0-1.3,0.6-1.9,1c-0.3,0.6-0.6,1.3-0.6,2.2c0,0.6,0.6,1.3,1,1.9c0.3,0.3,1,0.6,1.6,0.6c0.3,0,0.3,0,0.6,0l0,0l1.6,2.5
						c-0.6,0.6-1,1.3-0.6,2.2c0,0.6,0.6,1.3,1,1.9c0.3,0.3,1,0.6,1.6,0.6c0.3,0,0.3,0,0.6,0c1.3-0.3,2.2-1,2.2-2.2l2.9-0.3
						c0.3,0.3,0.3,0.6,0.6,1c0.3,0.3,1,0.6,1.6,0.6c0.3,0,0.3,0,0.6,0c0.6,0,1.3-0.6,1.9-1C210.3,149.4,210.3,148.4,210.3,147.8
						 M207.1,145.6c-0.6,0-1.3,0.6-1.9,1c-0.6,0.3-0.6,1.3-0.6,2.2l0,0l-2.5,0.3l0,0c0-0.6-0.6-1.3-1-1.9c-0.6-0.3-1.3-0.6-2.2-0.6
						c-0.3,0-0.6,0.3-1,0.3l-1.6-2.5c1-0.6,1.6-1.6,1.6-2.9c0-0.6-0.3-1-0.6-1.3l2.2-2.2c0.3,0.6,1,1,1.9,1c0.3,0,0.3,0,0.6,0
						c0.6,0,1.3-0.6,1.9-1l2.5,1.3c0,0.3-0.3,1,0,1.3c0,0.6,0.6,1.3,1,1.9c0.3,0.3,0.6,0.3,0.6,0.3l-0.3,2.9
						C207.7,145.3,207.4,145.3,207.1,145.6"/>
				</g>
			</g>
		</g>
		<g>
			<g>
				<g>
					<defs>
						<polygon id="SVGID_37_" points="93.5,263.9 139.5,211.3 311.8,250.9 392.1,105.3 120.5,65 						"/>
					</defs>
					<clipPath id="SVGID_38_">
						<use xlink:href="#SVGID_37_"  style="overflow:visible;"/>
					</clipPath>
					<path class="st20" d="M241,92.9c-1,0-1.9,0-2.9,0.3c-0.3-2.2-2.2-3.8-4.4-4.1c-1.3-0.3-2.9,0-3.8,1c-1.3,1-1.9,1.9-2.2,3.5
						c0,0.3,0,1,0,1.3c-1,0-1.6,0-2.5,0.3c0-0.3-0.3-0.6-0.3-0.6c-1-1-1.9-1.9-3.2-2.2V92c0.3-1.3,0-2.9-1-3.8
						c-1-1.3-1.9-1.9-3.5-2.2c-1.3-0.3-2.9,0-3.8,1c-1.3,1-1.9,1.9-2.2,3.5c-0.3,1.3,0,2.9,1,3.8c0.6,1,1.3,1.6,2.2,1.9
						c0,0.3-0.3,0.6-0.3,1c0,0.3,0,1,0,1.3c-0.6,0-1.3,0.3-1.9,0.3c-1.6,0.6-2.5,1.9-3.2,3.5c-1.3,3.2,0.3,6.7,3.5,7.9
						c3.2,1.3,6.7-0.3,7.9-3.5c0.3-1,0.6-1.9,0.3-2.9c0.6,0,1.6-0.3,2.2-0.6l0,0c0.6,1,1.9,1.9,3.2,1.9l0,0c-0.3,0.3-0.3,1-0.6,1.6
						c-0.3,1.3,0,2.9,1,3.8c1,1.3,1.9,1.9,3.5,2.2c1.3,0.3,2.9,0,3.8-1c0.6-0.3,1.3-1,1.6-1.9h0.3c0.6,0.6,1.6,1,2.2,1
						c1.3,0.3,2.9,0,3.8-1c0.6-0.3,1-1,1.3-1.6c0-0.3,0.3-0.6,0.3-0.6c0-0.3,0.3-0.6,0.3-1.3c0.3-1.6-0.3-3.2-1.3-4.1
						c0,0,0.3,0,0.3-0.3c1-0.6,1.3-1.3,1.9-2.2c0-0.3,0.3-0.6,0.3-1.3c0.3-1.3,0-2.9-1-3.8l0,0C243.6,93.9,242.3,93.2,241,92.9
						 M236,101.5L236,101.5c-1,0.6-1.3,1.3-1.6,1.6c0,0,0,0.3-0.3,0.3c-0.6-0.6-1.3-1-2.2-1c0,0,0-0.3,0.3-0.3
						c0-0.3,0.3-0.6,0.3-1.3c0-0.3,0-1,0-1.3c1,0,1.6,0,2.5-0.3C235,99.9,235.3,100.5,236,101.5C236,101.2,236,101.5,236,101.5"/>
				</g>
			</g>
		</g>
		<g>
			<g>
				<g>
					<defs>
						<polygon id="SVGID_39_" points="93.5,263.9 139.5,211.3 311.8,250.9 392.1,105.3 120.5,65 						"/>
					</defs>
					<clipPath id="SVGID_40_">
						<use xlink:href="#SVGID_39_"  style="overflow:visible;"/>
					</clipPath>
					<path class="st21" d="M240.4,95.4c-1,0-1.9,0.3-2.5,1l-2.5-1.3v-0.3c0.3-1.6-0.6-2.9-2.2-3.2c-1.6-0.3-2.9,0.6-3.2,2.2
						c0,0.6,0,1.6,0.6,1.9l0,0l-1.9,1.9c-0.3-0.3-0.6-0.3-1.3-0.6c-1.3-0.3-2.5,0.6-2.9,1.6l-1.6-0.3l0,0c0.3-1.9-1-3.5-2.9-3.8
						c-0.6,0-1.3,0-1.6,0.3l-1-1.3c0.6-0.3,1-0.6,1.3-1.3c0-0.3,0-0.3,0.3-0.6c0-0.6,0-1.6-0.6-1.9c-0.3-0.6-1-1-1.9-1
						c-0.6,0-1.6,0-1.9,0.6c-0.6,0.3-1,1-1,1.9c0,0.6,0,1.6,0.6,1.9c0.3,0.6,1,1,1.9,1c0.3,0,0.6,0,1,0l1,1.6
						c-0.6,0.6-1.3,1.3-1.3,2.2c-0.3,1,0.3,2.2,1,2.9l-1,1.3c-0.3,0-0.3-0.3-0.6-0.3c-1.9-0.6-3.8,0-4.8,1.9c-0.6,1.9,0,3.8,1.9,4.8
						c1.9,0.6,3.8,0,4.8-1.9c0.6-1.3,0.3-2.9-0.6-3.8l1-1.3c0.3,0.3,0.6,0.3,1.3,0.3c1.6,0.3,2.9-0.6,3.5-1.9l1.6,0.6
						c0,0.6,0,1.3,0.6,1.9c0.3,0.6,1,1,1.9,1c0.3,0,0.6,0,1,0l1.6,2.9c-0.6,0.3-1,1-1,1.6s0,1.6,0.6,1.9c0.3,0.6,1,1,1.9,1
						c0.6,0,1.6,0,1.9-0.6c0.3-0.3,0.6-0.6,1-1.3c0-0.3,0-0.3,0.3-0.6l0,0l2.9-0.6c0.3,0.6,1,1.3,1.9,1.3c0.6,0,1.6,0,1.9-0.6
						c0.3-0.3,0.6-0.6,1-1.3c0-0.3,0-0.3,0.3-0.6c0.3-1.3-0.3-2.2-1.3-2.9l0.3-2.9c0.3,0,0.6-0.3,1-0.3c0.3-0.3,0.6-0.6,1-1.3
						c0-0.3,0-0.3,0.3-0.6c0-0.6,0-1.6-0.6-1.9C242,96.1,241.4,95.4,240.4,95.4 M239.8,100.8L239.8,100.8l-0.3,2.5l0,0
						c-0.6,0-1.6,0-1.9,0.6c-0.6,0.3-1,1-1,1.9c0,0.3,0,0.6,0,1l-2.5,0.6c-0.3-1-1-1.9-2.2-2.2c-0.6,0-1,0-1.3,0.3l-1.3-2.5
						c0.6-0.3,1-0.6,1.3-1.3c0-0.3,0-0.3,0.3-0.6c0-0.6,0-1.3-0.3-1.9l1.9-1.9c0.3,0.3,0.6,0.3,1.3,0.3c0.6,0,1.6,0,1.9-0.6
						c0.3-0.3,0.3-0.3,0.6-0.6l2.5,1.3c0,0.3,0,0.3-0.3,0.6c0,0.6,0,1.6,0.6,1.9C238.5,100.2,239.1,100.8,239.8,100.8"/>
				</g>
			</g>
		</g>
		<g>
			<g>
				<g>
					<defs>
						<polygon id="SVGID_41_" points="93.5,263.9 139.5,211.3 311.8,250.9 392.1,105.3 120.5,65 						"/>
					</defs>
					<clipPath id="SVGID_42_">
						<use xlink:href="#SVGID_41_"  style="overflow:visible;"/>
					</clipPath>
					<path class="st22" d="M194.4,109.1v-0.3c0-0.3,0-0.3-0.3-0.6c-0.3-0.6-1-1-1.6-1.3l0,0c0.3-0.3,0.3-1,0-1.3
						c0-0.3,0-0.3-0.3-0.6c-0.3-0.6-0.6-1-1.3-1.3l0,0c-0.6-0.3-1.3-0.3-1.9,0c-0.3,0.3-0.6,0.3-1,1c-0.6-0.6-1.6-1-2.5-0.6
						c-0.6,0.3-1,0.6-1.3,1.3s-0.3,1.3,0,1.9c0,0.3,0.3,0.3,0.3,0.6c-0.3,0.3-0.6,0.3-1,0.6c0,0-0.3,0-0.3-0.3
						c-0.6-0.3-1.3-0.3-1.9,0l0,0c-0.3-0.6-0.6-1-1.3-1.3c-0.6-0.3-1.3-0.3-1.9,0c-0.6,0.3-1,0.6-1.3,1.3s-0.3,1.3,0,1.9
						c0.3,0.6,0.6,1,1.3,1.3c0.3,0.3,1,0.3,1.3,0v0.3c0,0.3,0.3,0.3,0.3,0.6c-0.3,0.3-0.3,0.3-0.6,0.6c-0.3,0.6-0.6,1.3-0.3,2.2
						c0.3,1.6,1.9,2.5,3.2,2.2c1.6-0.3,2.5-1.9,2.2-3.2c0-0.3-0.3-1-0.6-1.3c0.3-0.3,0.6-0.6,0.6-1l0,0c0.6,0.3,1.3,0.3,1.6,0l0,0
						c0,0.3,0,0.3,0.3,0.6c0.3,0.6,0.6,1,1.3,1.3c0.6,0.3,1.3,0.3,1.9,0c0.6-0.3,1-0.6,1.3-1.3c0-0.3,0.3-0.6,0-1l0,0
						c0.3,0,0.6,0,1.3-0.3c0.6-0.3,1-0.6,1.3-1.3C194.4,109.7,194.4,109.4,194.4,109.1 M189.6,109.1
						C189.6,109.1,189.6,109.4,189.6,109.1c-0.3,0-0.6,0.3-1,0.3c0,0,0,0,0-0.3c0-0.3,0-0.3-0.3-0.6c0-0.3-0.3-0.3-0.3-0.6
						c0.3-0.3,0.6-0.3,1-0.6c0.3,0.3,0.6,0.3,1,0.6l0,0l0,0C190,108.5,189.6,108.8,189.6,109.1"/>
				</g>
			</g>
		</g>
		<g>
			<g>
				<g>
					<defs>
						<polygon id="SVGID_43_" points="93.5,263.9 139.5,211.3 311.8,250.9 392.1,105.3 120.5,65 						"/>
					</defs>
					<clipPath id="SVGID_44_">
						<use xlink:href="#SVGID_43_"  style="overflow:visible;"/>
					</clipPath>
					<path class="st23" d="M193.4,108.8L193.4,108.8c-0.3-0.6-1-1-1.3-1l-0.6-1.3l0.3-0.3c0-0.3,0-0.3,0-0.6v-0.3
						c0-0.3-0.3-0.6-0.6-0.6s-0.6,0-1,0c-0.3,0.3-0.6,0.6-0.6,1l-1.3,0.3c0,0,0,0,0-0.3c-0.3-0.6-1-1-1.6-0.6c-0.6,0.3-1,1-0.6,1.6
						c0,0.3,0.3,0.6,0.6,0.6l0,0l-0.3,1.3c-0.3,0-0.3,0-0.6,0c-0.6,0.3-1,1-0.6,1.3l-0.6,0.3l0,0c-0.3-0.6-1.3-1.3-1.9-0.6
						c-0.3,0-0.3,0.3-0.6,0.6l-0.6-0.3c0-0.3,0.3-0.6,0-0.6v-0.3c0-0.3-0.3-0.6-0.6-0.6c-0.3,0-0.6,0-1,0c-0.3,0-0.6,0.3-0.6,0.6
						c0,0.3,0,0.6,0,1s0.3,0.6,0.6,0.6s0.6,0,1,0c0,0,0.3,0,0.3-0.3l0.6,0.3c0,0.3,0,0.6,0,1.3c0.3,0.3,0.6,0.6,1,1v0.6h-0.3
						c-1,0.3-1.6,1-1.3,1.9c0.3,1,1,1.6,1.9,1.3c1-0.3,1.6-1,1.3-1.9c0-0.6-0.6-1-1.3-1.3v-0.6c0.3,0,0.3,0,0.6,0c0.6-0.3,1-1,1-1.6
						l0.6-0.3c0,0.3,0.3,0.3,0.6,0.6c0.3,0,0.6,0,1,0c0,0,0.3,0,0.3-0.3l1.3,0.6c0,0.3,0,0.6,0,1c0,0.3,0.3,0.6,0.6,0.6s0.6,0,1,0
						c0.3,0,0.6-0.3,0.6-0.6c0-0.3,0-0.3,0-0.6v-0.3l0,0l1-1c0.3,0.3,0.6,0.3,1,0c0.3,0,0.6-0.3,0.6-0.6
						C193.4,109.4,193.4,109.1,193.4,108.8 M190.3,111c-0.3-0.3-1-0.6-1.3-0.3c-0.3,0-0.3,0.3-0.6,0.3l-1.3-0.6c0-0.3,0.3-0.6,0-1
						v-0.3c0-0.3-0.3-0.6-0.6-0.6l0.3-1.3c0.3,0,0.3,0,0.6,0s0.6-0.3,0.6-0.6v-0.3l1.3-0.3v0.3c0,0.3,0.3,0.6,0.6,0.6
						c0.3,0,0.6,0,1,0l0,0l0.3,1l0,0c-0.3,0-0.6,0.3-0.6,0.6c0,0.3,0,0.6,0,1c0,0,0,0.3,0.3,0.3L190.3,111z"/>
				</g>
			</g>
		</g>
		<g>
			<g>
				<g>
					<defs>
						<polygon id="SVGID_45_" points="93.5,263.9 139.5,211.3 311.8,250.9 392.1,105.3 120.5,65 						"/>
					</defs>
					<clipPath id="SVGID_46_">
						<use xlink:href="#SVGID_45_"  style="overflow:visible;"/>
					</clipPath>
					<path class="st24" d="M176.6,134.8c-0.3-0.6-1-1.6-1.6-1.9c1.3-1.3,1.6-3.5,1-5.1c-0.6-1.3-1.6-1.9-2.5-2.5
						c-1.3-0.3-2.5-0.3-3.5,0c-0.3,0.3-0.6,0.3-1,0.6c-0.3-0.6-1-1.3-1.6-1.6c0-0.3,0.3-0.3,0.3-0.6c0.3-1.3,0.3-2.2,0-3.5h0.3
						c1.3-0.6,1.9-1.6,2.5-2.5c0.6-1,0.3-2.5,0-3.5c-0.6-1.3-1.6-1.9-2.5-2.5c-1.3-0.3-2.5-0.3-3.5,0c-1.3,0.6-1.9,1.6-2.5,2.5
						c-0.3,1-0.3,1.9-0.3,2.5c-0.3,0-0.6,0.3-1,0.3c-0.3,0.3-0.6,0.3-1,0.6c-0.3-0.3-1-1-1.3-1.3c-1.3-0.6-2.5-1-4.1-0.6
						c-2.9,0.6-4.8,3.5-4.1,6.3c0.6,2.9,3.5,4.8,6.3,4.1c1-0.3,1.6-0.6,2.2-1.3c0.3,0.6,1,1,1.6,1.3l0,0c-0.3,1-0.3,2.2,0,3.2l0,0
						c-0.3,0-1,0.3-1.3,0.3c-1.3,0.6-1.9,1.6-2.5,2.5c-0.3,1.3-0.3,2.5,0,3.5c0.6,1.3,1.6,1.9,2.5,2.5c0.6,0.3,1.3,0.3,2.2,0.3l0,0
						c0,0.6,0,1.6,0.3,2.2c0.6,1.3,1.6,1.9,2.5,2.5c0.6,0.3,1.3,0.3,1.9,0.3c0.3,0,0.6,0,0.6,0c0.3,0,0.6-0.3,1-0.3
						c1.3-0.6,2.2-1.6,2.5-2.9h0.3c1,0.3,1.6,0.3,2.5,0.3c0.3,0,0.6-0.3,1-0.3c1.3-0.6,1.9-1.6,2.5-2.5
						C177.3,137,176.9,135.7,176.6,134.8 M169,133.5c-0.3,0.3-1,1-1,1.6v0.3h-0.3c-0.6-0.3-1.3-0.3-1.9-0.3h-0.3
						c0-0.6,0-1.6-0.3-2.2h0.3c0.3,0,0.6-0.3,1-0.3c0.3-0.3,0.6-0.3,1-0.6C167.7,132.6,168.4,132.9,169,133.5"/>
				</g>
			</g>
		</g>
		<g>
			<g>
				<g>
					<defs>
						<polygon id="SVGID_47_" points="93.5,263.9 139.5,211.3 311.8,250.9 392.1,105.3 120.5,65 						"/>
					</defs>
					<clipPath id="SVGID_48_">
						<use xlink:href="#SVGID_47_"  style="overflow:visible;"/>
					</clipPath>
					<path class="st25" d="M174.4,135.7c-0.3-0.6-1-1.3-1.9-1.3l-0.3-2.5h0.3c1.3-0.6,1.6-1.9,1.3-3.2c-0.6-1.3-1.9-1.6-3.2-1.3
						c-0.6,0.3-1,0.6-1.3,1.3l0,0l-2.5-0.3c0-0.3,0-0.6-0.3-1.3c-0.6-1-1.6-1.6-2.5-1.3l-0.3-1.3l0,0c1.6-0.6,2.2-2.5,1.3-3.8
						c-0.3-0.6-0.6-1-1-1.3l0.6-1.6c0.3,0.3,1,0.3,1.6,0.3c0.3,0,0.3,0,0.6-0.3l0,0c0.6-0.3,1-0.6,1.3-1.3s0.3-1.3,0-1.9
						c-0.3-0.6-0.6-1-1.3-1.3c-0.6-0.3-1.3-0.3-1.9,0c-0.6,0.3-1,0.6-1.3,1.3c-0.3,0.6-0.3,1.3,0,1.9c0,0.3,0.3,0.6,0.6,0.6
						l-0.6,1.6c-0.6-0.3-1.6-0.3-2.2,0c-1,0.3-1.6,1.3-1.6,2.2l-1.3-0.3c0-0.3,0-0.3,0-0.6c-0.3-1.6-1.9-2.9-3.8-2.5
						c-1.6,0.3-2.9,1.9-2.5,3.8c0.3,1.6,1.9,2.9,3.8,2.5c1.3-0.3,2.2-1.3,2.5-2.2l1.3,0.3c0,0.3,0,0.6,0.3,1
						c0.6,1.3,1.9,1.9,3.2,1.6l0.3,1.3c-0.6,0.3-1,0.6-1,1.3c-0.3,0.6-0.3,1.3,0,1.9c0,0.3,0.3,0.3,0.3,0.6l-1.3,2.5
						c-0.6-0.3-1.3,0-1.6,0c-0.6,0.3-1,0.6-1.3,1.3c-0.3,0.6-0.3,1.3,0,1.9c0.3,0.6,0.6,1,1.3,1.3c0.3,0.3,1,0.3,1.3,0
						c0.3,0,0.3,0,0.6-0.3l0,0l1.9,1.9c-0.3,0.6-0.3,1.3,0,2.2c0.3,0.6,0.6,1,1.3,1.3c0.3,0,1,0.3,1.3,0c0.3,0,0.3,0,0.6-0.3
						c1-0.3,1.6-1.3,1.3-2.5l2.2-1c0.3,0.3,0.6,0.3,1,0.6c0.3,0,1,0.3,1.3,0c0.3,0,0.3,0,0.6-0.3c0.6-0.3,1-0.6,1.3-1.3
						C174.7,137,174.7,136.4,174.4,135.7 M171.2,134.5c-0.6,0.3-1,0.6-1.3,1.3c-0.3,0.6-0.3,1.3,0,1.9l0,0l-1.9,1l0,0
						c-0.3-0.6-0.6-1-1.3-1.3c-0.6-0.3-1.3-0.3-1.9,0c-0.3,0-0.6,0.3-0.6,0.6l-1.9-1.6c0.6-0.6,1-1.9,0.6-2.9c-0.3-0.3-0.6-0.6-1-1
						l1.3-2.2c0.6,0.3,1,0.3,1.6,0.3c0.3,0,0.3,0,0.6-0.3c0.6-0.3,1-0.6,1.3-1.3l2.5,0.3c0,0.3,0,0.6,0.3,1c0.3,0.6,0.6,1,1.3,1.3
						c0.3,0,0.6,0,0.6,0l0.3,2.2C171.5,134.5,171.5,134.5,171.2,134.5"/>
				</g>
			</g>
		</g>
		<g>
			<g>
				<g>
					<defs>
						<polygon id="SVGID_49_" points="93.5,263.9 139.5,211.3 311.8,250.9 392.1,105.3 120.5,65 						"/>
					</defs>
					<clipPath id="SVGID_50_">
						<use xlink:href="#SVGID_49_"  style="overflow:visible;"/>
					</clipPath>
					<path class="st26" d="M186.8,164.9c1.3-0.6,2.2-1.9,1.9-3.5c0-1-0.3-1.9-1.3-2.5c-0.6-0.6-1.6-1-2.5-1c-0.3,0-0.6,0-1,0.3
						c0-0.6-0.3-1.3-0.6-1.6l0.3-0.3c0.6-0.6,1-1.6,1-2.5c0,0,0,0,0.3,0c1,0,1.9-0.3,2.5-1.3c0.6-0.6,1-1.6,1-2.5
						c0-1-0.3-1.9-1.3-2.5c-0.6-0.6-1.6-1-2.5-1s-1.9,0.3-2.5,1.3c-0.3,0.6-0.6,1.3-1,1.9c-0.3,0-0.3,0-0.6,0s-0.6,0-1,0
						c0-0.3-0.3-1-0.6-1.3c-0.6-1-1.6-1.6-2.5-1.6c-2.2-0.3-4.4,1.3-4.8,3.5c-0.3,2.2,1.3,4.4,3.5,4.8c0.6,0,1.3,0,1.9,0
						c0.3,0.6,0.3,1,0.6,1.3l0,0c-0.6,0.6-1,1.6-1,2.2l0,0c-0.3,0-0.6,0-1,0c-1,0-1.9,0.3-2.5,1.3c-0.6,0.6-1,1.6-1,2.5
						s0.3,1.9,1.3,2.5c0.3,0.3,1,0.6,1.3,0.6l0,0c-0.3,0.6-0.3,1-0.3,1.6c0,1,0.3,1.9,1.3,2.5c0.3,0.3,0.6,0.6,1.3,0.6
						c0.3,0,0.3,0,0.6,0s0.6,0,1,0c1,0,1.9-0.6,2.5-1.3c0,0,0,0,0.3,0c0.6,0.3,1,0.6,1.6,1c0.3,0,0.6,0,0.6,0c1,0,1.9-0.3,2.5-1.3
						l0,0c0.6-0.6,1-1.6,1-2.5C187.1,166.2,187.1,165.6,186.8,164.9 M179.8,162.4C179.8,162.4,180.1,162.4,179.8,162.4
						c0.6,0,1,0,1,0c0.3,0,0.6,0,1-0.3c0,0.6,0.3,1,0.6,1.6c-0.3,0.3-1,0.6-1.3,1c0,0,0,0,0,0.3l0,0c-0.3-0.3-0.6-0.6-1.3-0.6h-0.3
						C179.5,163.4,179.8,163,179.8,162.4"/>
				</g>
			</g>
		</g>
		<g>
			<g>
				<g>
					<defs>
						<polygon id="SVGID_51_" points="93.5,263.9 139.5,211.3 311.8,250.9 392.1,105.3 120.5,65 						"/>
					</defs>
					<clipPath id="SVGID_52_">
						<use xlink:href="#SVGID_51_"  style="overflow:visible;"/>
					</clipPath>
					<path class="st27" d="M184.6,165.6l0.3-1.9h0.3c1,0,1.9-1,1.6-1.9c0-1-1-1.9-1.9-1.6c-0.6,0-1,0.3-1.3,0.6l0,0l-1.6-1
						c0-0.3,0.3-0.6,0.3-1c0-1-0.6-1.6-1.6-1.6v-1l0,0c1.3,0,2.2-1.3,2.2-2.2c0-0.3-0.3-0.6-0.3-1l0.6-1c0.3,0.3,0.6,0.3,1,0.6h0.3
						c0.6,0,1-0.3,1.3-0.6c0.3-0.3,0.6-1,0.3-1.3c0-0.6-0.3-1-0.6-1.3c-0.3-0.3-1-0.6-1.3-0.3c-0.6,0-1,0.3-1.3,0.6s-0.6,1-0.3,1.3
						c0,0.3,0,0.3,0.3,0.6l-1,1c-0.3-0.3-1-0.6-1.6-0.6c-0.6,0-1.3,0.3-1.6,1l-1-0.6c0,0,0-0.3,0-0.6c0.3-1.3-0.6-2.5-1.9-2.9
						c-1.3-0.3-2.5,0.6-2.9,1.9c-0.3,1.3,0.6,2.5,1.9,2.9c1,0,1.9-0.3,2.2-1l1,0.6c0,0.3,0,0.6,0,1c0,1,0.6,1.9,1.6,1.9v1
						c-0.3,0-1,0.3-1,0.6c-0.3,0.3-0.6,1-0.3,1.3c0,0.3,0,0.3,0,0.6l-1.6,1.3c-0.3-0.3-0.6-0.3-1.3-0.3c-0.6,0-1,0.3-1.3,0.6
						c-0.3,0.3-0.6,1-0.3,1.3c0,0.6,0.3,1,0.6,1.3c0.3,0.3,0.6,0.3,1,0.3h0.3l0,0l1.3,1.6c-0.3,0.3-0.6,1-0.6,1.6
						c0,0.6,0.3,1,0.6,1.3c0.3,0.3,0.6,0.3,1,0.3h0.3c0.6,0,1.3-0.6,1.6-1.3h1.9c0,0.3,0.3,0.3,0.3,0.6c0.3,0.3,0.6,0.3,1,0.3h0.3
						c0.6,0,1-0.3,1.3-0.6s0.6-1,0.3-1.3C185.5,166.2,185.2,165.9,184.6,165.6 M183.6,165.3c-0.6,0-1,0.3-1.3,0.6s-0.6,1-0.3,1.3
						l0,0h-1.6l0,0c0-0.6-0.3-1-0.6-1.3c-0.3-0.3-1-0.6-1.3-0.3c-0.3,0-0.3,0-0.6,0.3l-1-1.6c0.6-0.3,1.3-1,1-1.9c0-0.3,0-0.6-0.3-1
						l1.6-1.3c0.3,0.3,0.6,0.6,1,0.6h0.3c0.3,0,1-0.3,1.3-0.6l1.6,1c0,0.3-0.3,0.6,0,1c0,0.6,0.3,1,0.6,1.3c0,0,0.3,0.3,0.6,0.3
						l-0.3,1.9C183.9,165.3,183.9,165.3,183.6,165.3"/>
				</g>
			</g>
		</g>
		<g>
			<g>
				<g>
					<defs>
						<polygon id="SVGID_53_" points="93.5,263.9 139.5,211.3 311.8,250.9 392.1,105.3 120.5,65 						"/>
					</defs>
					<clipPath id="SVGID_54_">
						<use xlink:href="#SVGID_53_"  style="overflow:visible;"/>
					</clipPath>
					<path class="st28" d="M168.4,155.4L168.4,155.4c-0.3-1-1.3-1.6-2.2-2.2c-0.6-0.3-1.3-0.3-2.2-0.3c0-1.6-1-3.2-2.5-3.8
						c-1-0.3-2.2-0.3-3.2,0s-1.6,1.3-2.2,2.2c0,0.3-0.3,0.6-0.3,1c-0.6-0.3-1.3-0.3-1.9,0c0-0.3,0-0.3-0.3-0.6
						c-0.3-1-1.3-1.6-1.9-2.2c0,0,0,0,0-0.3c0.3-1,0.3-2.2,0-3.2c-0.3-1-1.3-1.6-2.2-2.2c-1-0.3-2.2-0.3-3.2,0
						c-1,0.3-1.6,1.3-2.2,2.2c-0.3,1-0.3,2.2,0,3.2c0.3,0.6,1,1.3,1.6,1.6c0,0.3-0.3,0.3-0.3,0.6s-0.3,0.6-0.3,1c-0.6,0-1,0-1.6,0
						c-1.3,0.3-2.2,1-2.9,1.9c-1.3,2.2-1,5.1,1.3,6.3s5.1,1,6.3-1.3c0.3-0.6,0.6-1.3,0.6-2.2c0.6,0,1.3,0,1.6-0.3l0,0
						c0.3,1,1,1.6,1.9,1.9l0,0c-0.3,0.3-0.3,0.6-0.6,1c-0.3,1-0.3,2.2,0,3.2c0.3,1,1.3,1.6,2.2,2.2c1,0.3,2.2,0.3,3.2,0
						c0.6-0.3,1-0.6,1.3-1l0,0c0.3,0.6,1,1,1.6,1c1,0.3,2.2,0.3,3.2,0c0.6-0.3,1-0.6,1.3-1c0,0,0.3-0.3,0.3-0.6
						c0.3-0.3,0.3-0.6,0.3-1c0.3-1,0.3-2.2-0.3-3.2c0,0,0,0,0.3,0c0.6-0.3,1.3-1,1.6-1.6c0.3-0.3,0.3-0.6,0.3-1
						C169,157.3,169,156.4,168.4,155.4 M158.5,158.9c0.3-0.3,0.3-0.6,0.3-1s0.3-0.6,0.3-1c0.6,0.3,1.3,0.3,1.9,0c0,0.6,0,1,0.3,1.6
						c0,0,0,0,0,0.3c0,0,0,0-0.3,0c-0.6,0.3-1,0.6-1.3,1c0,0,0,0.3-0.3,0.3C159.2,159.9,158.9,159.2,158.5,158.9
						C158.2,158.9,158.2,158.9,158.5,158.9"/>
				</g>
			</g>
		</g>
		<g>
			<g>
				<g>
					<defs>
						<polygon id="SVGID_55_" points="93.5,263.9 139.5,211.3 311.8,250.9 392.1,105.3 120.5,65 						"/>
					</defs>
					<clipPath id="SVGID_56_">
						<use xlink:href="#SVGID_55_"  style="overflow:visible;"/>
					</clipPath>
					<path class="st29" d="M166.8,156.1c-0.3-0.6-0.6-1-1.3-1c-0.6-0.3-1.3,0-1.9,0.3l-1.6-1.3v-0.3c0.3-1,0-2.2-1.3-2.5
						c-1-0.3-2.2,0-2.5,1.3c-0.3,0.6-0.3,1,0,1.6l0,0l-1.6,1.3c-0.3-0.3-0.6-0.3-1-0.6c-1-0.3-1.9,0-2.5,1l-1-0.6l0,0
						c0.6-1.3-0.3-2.9-1.6-3.2c-0.3-0.3-1-0.3-1.3,0l-0.6-1.3c0.3,0,0.6-0.3,1-1c0,0,0-0.3,0.3-0.3l0,0c0.3-0.6,0.3-1,0-1.6
						s-0.6-1-1.3-1c-0.6-0.3-1-0.3-1.6,0c-0.6,0.3-1,0.6-1,1.3c-0.3,0.6-0.3,1,0,1.6c0.3,0.6,0.6,1,1.3,1c0.3,0,0.6,0,0.6,0l0.6,1.3
						c-0.6,0.3-1,0.6-1.3,1.3c-0.3,0.6-0.3,1.6,0.3,2.2l-1,0.6l-0.3-0.3c-1.3-1-2.9-0.3-3.8,0.6c-1,1.3-0.3,2.9,0.6,3.8
						c1.3,1,2.9,0.3,3.8-0.6c0.6-1,0.6-1.9,0-2.9l1-0.6c0.3,0.3,0.6,0.3,1,0.6c1,0.3,2.2,0,2.9-1l1,0.6c0,0.3,0,1,0,1.3
						c0.3,0.6,0.6,1,1.3,1c0.3,0,0.3,0,0.6,0l0.6,2.2c-0.3,0.3-0.6,0.6-1,1c-0.3,0.6-0.3,1,0,1.6c0.3,0.6,0.6,1,1.3,1
						c0.6,0.3,1,0.3,1.6,0c0.3-0.3,0.6-0.3,1-0.6c0,0,0-0.3,0.3-0.3l0,0h2.2c0.3,0.6,0.6,1,1.3,1.3c0.6,0.3,1,0.3,1.6,0
						c0.3-0.3,0.6-0.3,1-0.6c0,0,0-0.3,0.3-0.3c0.3-1,0-1.9-0.6-2.2l0.6-1.9c0.3,0,0.6,0,1-0.3c0.3-0.3,0.6-0.3,1-0.6
						c0,0,0-0.3,0.3-0.3C167.1,157.3,167.1,156.7,166.8,156.1 M163.6,160.8L163.6,160.8c-0.6-0.3-1.3-0.3-1.6,0
						c-0.6,0.3-1,0.6-1,1.3c0,0.3,0,0.6,0,0.6h-2.2c0-1-0.6-1.6-1.3-1.9c-0.3,0-0.6,0-1,0l-0.6-2.2c0.6,0,1-0.3,1.3-1
						c0,0,0-0.3,0.3-0.3c0.3-0.6,0.3-1,0-1.6l1.6-1.3c0.3,0.3,0.3,0.3,0.6,0.6c0.6,0.3,1,0.3,1.6,0c0.3,0,0.3-0.3,0.6-0.3l1.6,1.3
						l-0.3,0.3c-0.3,0.6-0.3,1,0,1.6c0.3,0.6,0.6,1,1.3,1l0,0L163.6,160.8z"/>
				</g>
			</g>
		</g>
		<g>
			<g>
				<g>
					<defs>
						<polygon id="SVGID_57_" points="93.5,263.9 139.5,211.3 311.8,250.9 392.1,105.3 120.5,65 						"/>
					</defs>
					<clipPath id="SVGID_58_">
						<use xlink:href="#SVGID_57_"  style="overflow:visible;"/>
					</clipPath>
					<path class="st30" d="M357.8,137l-8.6-15.2c-0.6-1-1.6-1.9-2.5-1.9l0,0c-1.3-0.3-2.2,0-3.2,0.6l-43.2,27.9
						c-1.3,0.6-1.9,1.9-1.9,3.2s0.3,2.5,1.6,3.5l4.8,4.1l-4.1,1l-0.6-2.2c-0.3-1.6-1.9-2.9-3.8-3.2c-1.9-0.3-3.5,0.6-4.1,2.2
						l-6.3,12.7c-1,1.9-0.3,4.1,1.6,5.4l13.6,9.2c0.3,0.3,1,0.3,1.3,0.6c1.3,0.3,2.5,0,3.5-0.6c1.6-1.3,1.9-3.2,1.3-4.8l-1.3-3.8
						l26-7.6c1.6-0.3,2.5-1.6,2.9-3.2c0.3-1.6-0.3-3.2-1.6-4.1l-7-5.4l29.8-11.7c1.3-0.3,1.9-1.3,2.5-2.5
						C358.5,139.2,358.1,138,357.8,137"/>
				</g>
			</g>
		</g>
		<g>
			<g>
				<g>
					<defs>
						<polygon id="SVGID_59_" points="93.5,263.9 139.5,211.3 311.8,250.9 392.1,105.3 120.5,65 						"/>
					</defs>
					<clipPath id="SVGID_60_">
						<use xlink:href="#SVGID_59_"  style="overflow:visible;"/>
					</clipPath>
					<path class="st31" d="M355,138.3l-8.6-15.2c-0.3-0.3-0.3-0.6-1-0.6l0,0c-0.3,0-0.6,0-1,0.3l-43.2,27.9c-0.3,0.3-0.6,0.6-0.6,1
						s0,0.6,0.3,1l9.2,7.6l-12.7,3.2l-1.3-5.1c0-0.6-0.6-1-1-1c-0.6,0-1,0.3-1.3,0.6l-6.3,12.7c-0.3,0.6,0,1.3,0.3,1.6l13.6,9.2
						c0,0,0.3,0,0.3,0.3c0.3,0,0.6,0,1-0.3c0.3-0.3,0.6-1,0.3-1.3l-2.2-6.7l28.9-8.6c0.3,0,1-0.6,1-1s0-1-0.3-1.3l-11.1-8.9
						l34.6-13.6c0.3,0,0.6-0.3,0.6-0.6C355.3,139.2,355.3,138.6,355,138.3 M316.9,152.2c-0.3,0.3-0.6,0.6-0.6,1c0,0.3,0,1,0.3,1.3
						l10.8,8.6l-27.9,8.3c-0.3,0-0.6,0.3-0.6,0.6s-0.3,0.6,0,1l1.6,4.4l-9.5-6.3l4.4-8.6l0.6,2.9c0.3,0.6,1,1,1.6,1l16.2-4.1
						c0.3,0,1-0.6,1-1s0-1-0.3-1.3l-9.5-8.3l40.6-26.3l7,12.7L316.9,152.2z"/>
				</g>
			</g>
		</g>
		<g>
			<g>
				<g>
					<defs>
						<polygon id="SVGID_61_" points="93.5,263.9 139.5,211.3 311.8,250.9 392.1,105.3 120.5,65 						"/>
					</defs>
					<clipPath id="SVGID_62_">
						<use xlink:href="#SVGID_61_"  style="overflow:visible;"/>
					</clipPath>
					<path class="st32" d="M320.1,110.4c0,0,6.7-10.8,10.5-15.9"/>
				</g>
			</g>
		</g>
		<g>
			<g>
				<g>
					<defs>
						<polygon id="SVGID_63_" points="93.5,263.9 139.5,211.3 311.8,250.9 392.1,105.3 120.5,65 						"/>
					</defs>
					<clipPath id="SVGID_64_">
						<use xlink:href="#SVGID_63_"  style="overflow:visible;"/>
					</clipPath>
					<path class="st33" d="M320.1,110.4c0,0,6.7-10.8,10.5-15.9"/>
				</g>
			</g>
		</g>
	</g>
</g>
</svg>
