<svg id="aparato_digestivo_sano" xmlns="http://www.w3.org/2000/svg" width="70.84" height="70.841" viewBox="0 0 70.84 70.841">
  <path id="Trazado_11" data-name="Trazado 11" d="M407.818,323.028a35.411,35.411,0,1,0-19.483,46.134,35.41,35.41,0,0,0,19.483-46.134M387.48,367.056a33.138,33.138,0,1,1,18.232-43.173,33.14,33.14,0,0,1-18.232,43.173" transform="translate(-339.59 -300.933)" fill="#a615ac"/>
  <path id="Trazado_12" data-name="Trazado 12" d="M382.843,330.8l4.35,1.488c.075.026.149.058.226.077a.876.876,0,0,1,.267,1.416c-.3.354-.573.741-.882,1.078a16.56,16.56,0,0,1-8.022,5.094,6.428,6.428,0,0,1-1.867.262c-.19-.007-.387.057-.576.046-.427-.026-.85-.1-1.278-.117a9.373,9.373,0,0,1-4.383-1.963,5.483,5.483,0,0,1-1.812-2.584,5.8,5.8,0,0,1-.227-1c-.081-.715.213-1.083.8-1.049a13.189,13.189,0,0,0,1.588.082,7.819,7.819,0,0,0,5.811-3.53c.08-.107.162-.213.237-.326a1,1,0,0,1,1.291-.511c.3.116.6.208.9.31l3.577,1.224" transform="translate(-339.59 -300.933)" fill="#a615ac"/>
  <path id="Trazado_13" data-name="Trazado 13" d="M383.7,327.55a.977.977,0,0,1,.617,1.284.827.827,0,0,1-1.006.621.966.966,0,0,1-.662-1.215.853.853,0,0,1,1.051-.69" transform="translate(-339.59 -300.933)" fill="#a615ac"/>
  <path id="Trazado_14" data-name="Trazado 14" d="M382.338,325.925a.688.688,0,0,1-.817.562.749.749,0,0,1-.494-.873.674.674,0,0,1,.793-.594.781.781,0,0,1,.518.9" transform="translate(-339.59 -300.933)" fill="#a615ac"/>
  <path id="Trazado_15" data-name="Trazado 15" d="M380.908,327.846a.688.688,0,0,1-.817.563.749.749,0,0,1-.494-.873.675.675,0,0,1,.793-.6.781.781,0,0,1,.518.9" transform="translate(-339.59 -300.933)" fill="#a615ac"/>
  <path id="Trazado_16" data-name="Trazado 16" d="M374.179,353.348c-3.835,0-7.67-.009-11.506,0a3.684,3.684,0,0,0-3.651,2.759,4.71,4.71,0,0,0,1.2,4.858,3.689,3.689,0,0,0,2.732.914c4.465,0,8.93-.019,13.394.013a6.4,6.4,0,0,1,6.256,5.562c.04.218.064.442.085.664.128,1.373.085,1.4-1.131,1.373-.52-.013-.759-.194-.829-.811-.344-3.032-1.913-4.581-4.677-4.594-4.436-.022-8.873,0-13.309-.011a5.392,5.392,0,0,1-5.292-3.515,7.012,7.012,0,0,1,.627-7.052,5.13,5.13,0,0,1,4.485-2.364q11.163.009,22.325,0c.286,0,.572,0,.858-.007.423-.015.88-.11.9-.665.019-.576-.478-.644-.869-.723a3.739,3.739,0,0,0-.771-.038q-9.529.011-19.061.03c-4.381.017-8.074-3.5-8.9-8.6a18.059,18.059,0,0,1,1.051-9.578c1.788-4.588,5.277-5.53,8.818-2.454a5.044,5.044,0,0,0,7.279-.2,10.179,10.179,0,0,0,2.533-8.316,3.772,3.772,0,0,0-1.095-2.13q-.971-1.086-1.966-2.146a11.129,11.129,0,0,1-2.87-7.287c-.088-1.724.006-3.457-.029-5.183-.019-.9.444-.948,1.05-.944s1.052.024,1.064.931c.024,1.726-.175,3.436-.041,5.175a9.657,9.657,0,0,0,3.1,6.6,8.5,8.5,0,0,1,2.871,4.858c.9,5.249-2.543,11.342-7.019,12.183a6.236,6.236,0,0,1-6.1-1.685,5.3,5.3,0,0,0-1.046-.833,2.742,2.742,0,0,0-4.062,1.074,12.57,12.57,0,0,0-1.495,4.662,13.938,13.938,0,0,0,.01,5.327c.895,3.9,3.557,6.3,7.154,6.306,6.3.019,12.593.006,18.89.006a5.293,5.293,0,0,1,1.449.134,2.926,2.926,0,0,1,2.093,3.08,2.742,2.742,0,0,1-2.567,2.6c-1.974.048-3.95.017-5.925.019q-3,0-6.01,0" transform="translate(-339.59 -300.933)" fill="#a615ac"/>
  <path id="Trazado_17" data-name="Trazado 17" d="M362.889,337.2c-.96,3.95,1.054,6.813,4.784,6.826,6.439.023,12.879,0,19.319.012a5.757,5.757,0,0,1,5.474,5.082c.752,4.26-1.9,7.825-5.873,7.835-7.413.018-14.826.005-22.239.007a8.606,8.606,0,0,0-1.028.049.548.548,0,0,0-.527.53.591.591,0,0,0,.492.674,4.83,4.83,0,0,0,.94.063q5.882,0,11.763,0c5.431.006,9.339,4.153,9.643,10.209.028.562.072,1.066-.641.994-.573-.057-1.3.294-1.357-.887a9.366,9.366,0,0,0-1.646-5.065,6.647,6.647,0,0,0-5.718-2.94c-3.921-.008-7.842,0-11.763-.009a7.829,7.829,0,0,1-1.536-.135,2.907,2.907,0,0,1-.068-5.651,6.657,6.657,0,0,1,1.622-.149q11.162,0,22.324,0A3.508,3.508,0,0,0,390.365,352a4.773,4.773,0,0,0-1.161-4.888,3.421,3.421,0,0,0-2.474-.889c-6.411.012-12.822,0-19.234.01a6.84,6.84,0,0,1-3.009-.668c-3.433-1.645-5.013-6.912-3.19-10.59.811-1.639,1.948-1.678,2.839-.121a11.486,11.486,0,0,0,9.089,6.1c5.759.628,11.653-2.329,15.688-7.028.339-.394,1.026.294,1.492.549.393.216.139.478,0,.687a14.554,14.554,0,0,1-2.635,3.139c-5.788,4.985-12.125,6.541-19.108,3.688a12.122,12.122,0,0,1-5.044-4.038c-.166-.219-.342-.43-.519-.638-.036-.042-.1-.054-.213-.11" transform="translate(-339.59 -300.933)" fill="#a615ac"/>
  <path id="Trazado_18" data-name="Trazado 18" d="M374.039,305.954c0-.64.031-1.282-.008-1.918-.049-.815.211-1.152.979-1.126,1.178.039,1.178-.007,1.172,1.3-.005,1.119-.027,2.239-.005,3.358a6.28,6.28,0,0,0,1.411,3.92,2.719,2.719,0,0,0,3.48.983,6.668,6.668,0,0,1,6.537.341,6.555,6.555,0,0,1,1.88,1.448c.115.137.852.816.8,1.025a4.611,4.611,0,0,1-1.659.9c-1.074-.011-1.343-.8-2.37-1.505a3.874,3.874,0,0,0-4.064-.174c-4.334,2.263-8.073-2.472-8.16-6.63-.014-.639,0-1.279,0-1.919Z" transform="translate(-339.59 -300.933)" fill="#a615ac"/>
  <path id="Trazado_19" data-name="Trazado 19" d="M393.652,315.813a8.855,8.855,0,1,0,8.856,8.855,8.855,8.855,0,0,0-8.856-8.855m-1.177,12.551c-.968-.869-1.964-1.74-2.916-2.638a1.144,1.144,0,0,1-.072-1.641,1.168,1.168,0,0,1,1.641-.1c.6.519,1.179,1.067,1.81,1.612,1.275-1.387,2.537-2.721,3.787-4.066a1.145,1.145,0,0,1,1.219-.366,1.169,1.169,0,0,1,.813.856,1.11,1.11,0,0,1-.265,1.066q-2.442,2.61-4.881,5.245a.754.754,0,0,1-1.136.029" transform="translate(-339.59 -300.933)" fill="#a615ac"/>
</svg>
