<svg id="corazon_sano" xmlns="http://www.w3.org/2000/svg" width="70.84" height="70.841" viewBox="0 0 70.84 70.841">
  <path id="Trazado_6" data-name="Trazado 6" d="M404.818,123.552a35.411,35.411,0,1,0-19.483,46.134,35.41,35.41,0,0,0,19.483-46.134M384.48,167.58a33.138,33.138,0,1,1,18.232-43.172A33.14,33.14,0,0,1,384.48,167.58" transform="translate(-336.59 -101.457)" fill="#a615ac"/>
  <path id="Trazado_7" data-name="Trazado 7" d="M390.18,148.118l-2.149-.763a7.509,7.509,0,0,0-1.5-.149,7.721,7.721,0,0,0-7.735,7.16c-.013.187-.025.374-.025.562a6.9,6.9,0,0,0,.212,1.774,7.742,7.742,0,0,0,15.282-1.749,7.833,7.833,0,0,0-4.086-6.835m.65,5.422q-2.173,2.325-4.348,4.674a.672.672,0,0,1-1.013.025c-.862-.774-1.749-1.549-2.6-2.349a1.019,1.019,0,0,1-.063-1.462,1.041,1.041,0,0,1,1.462-.087c.537.462,1.05.949,1.612,1.437,1.137-1.238,2.261-2.424,3.374-3.624a1.022,1.022,0,0,1,1.087-.325,1.038,1.038,0,0,1,.724.762.986.986,0,0,1-.237.949" transform="translate(-336.59 -101.457)" fill="#a615ac"/>
  <path id="Trazado_8" data-name="Trazado 8" d="M394.792,122a14.3,14.3,0,0,0-10.63-4.268,13.418,13.418,0,0,0-9.13,3.858,4.316,4.316,0,0,1-6.038-.01,13.452,13.452,0,0,0-14.124-3.074c-5.212,1.745-8.389,5.477-9.446,11.091a14.684,14.684,0,0,0,.6,7.027,30.767,30.767,0,0,0,7.228,12.458,46.477,46.477,0,0,0,10.967,8.609,70.174,70.174,0,0,0,6.942,3.522,2.084,2.084,0,0,0,.859.194,2.265,2.265,0,0,0,.884-.193c1.648-.728,3.1-1.428,4.441-2.139l.344-.183-.117-.371a9.181,9.181,0,0,1-.38-1.89l-.065-.7-.622.334c-1.362.73-2.8,1.44-4.291,2.114a.341.341,0,0,1-.356.009,55,55,0,0,1-13.183-8.064,32.368,32.368,0,0,1-8.417-10.58,21.707,21.707,0,0,1-2.056-6.594,11.251,11.251,0,0,1,9.288-12.4,11.1,11.1,0,0,1,9.742,3.076,6.952,6.952,0,0,0,9.619-.027,11.257,11.257,0,0,1,8.419-3.2,11.084,11.084,0,0,1,7.945,3.927,10.859,10.859,0,0,1,2.434,9.863,25.3,25.3,0,0,1-1.713,5.045,1.486,1.486,0,0,0-.081,1.163,1.389,1.389,0,0,0,.746.794,1.406,1.406,0,0,0,1.9-.717,22.477,22.477,0,0,0,2.241-7.77A13.607,13.607,0,0,0,394.792,122" transform="translate(-336.59 -101.457)" fill="#a615ac"/>
  <path id="Trazado_9" data-name="Trazado 9" d="M395.5,143.02a3.389,3.389,0,0,0-.464-.015h-2.066q-4.248,0-8.5.01c-.148,0-.161,0-.233-.163q-1.926-4.434-3.875-8.859l-.854-1.947A1.443,1.443,0,0,0,378.03,131a1.468,1.468,0,0,0-1.337,1.177L371.8,147.174l-4.005-7.513a1.359,1.359,0,0,0-1.233-.768q-3.385-.008-6.764,0a1.4,1.4,0,0,0-1,.413,1.438,1.438,0,0,0,1.055,2.436c1.911,0,3.825.007,5.736,0l.114.075q1.329,2.513,2.668,5.018l2.407,4.528a1.473,1.473,0,0,0,1.331.9c.04,0,.08,0,.122,0a1.437,1.437,0,0,0,1.3-1.118q1.547-4.766,3.1-9.527l1.688-5.163,1.062,2.415c.851,1.932,1.7,3.863,2.528,5.8a1.862,1.862,0,0,0,1.851,1.215c2.553-.018,5.108-.016,7.659-.016h3.665a2.3,2.3,0,0,0,.766-.1,1.423,1.423,0,0,0-.344-2.739" transform="translate(-336.59 -101.457)" fill="#a615ac"/>
  <path id="Trazado_10" data-name="Trazado 10" d="M350.567,131.5c.016.291.023.584.051.874a.953.953,0,0,0,1.011.929,1.008,1.008,0,0,0,.914-1.074,10.749,10.749,0,0,1,.258-2.416,7.377,7.377,0,0,1,5.5-5.36.974.974,0,1,0-.47-1.875,9.365,9.365,0,0,0-4.063,2.134,9.646,9.646,0,0,0-3.2,6.788" transform="translate(-336.59 -101.457)" fill="#a615ac"/>
</svg>
