<svg id="metabolismo_balanceado" xmlns="http://www.w3.org/2000/svg" width="70.84" height="70.841" viewBox="0 0 70.84 70.841">
  <path id="Trazado_20" data-name="Trazado 20" d="M179.336,128.026a35.411,35.411,0,1,0-19.483,46.134,35.41,35.41,0,0,0,19.483-46.134M159,172.054a33.138,33.138,0,1,1,18.232-43.173A33.14,33.14,0,0,1,159,172.054" transform="translate(-111.108 -105.931)" fill="#a615ac"/>
  <path id="Trazado_21" data-name="Trazado 21" d="M146.987,154.822a12.828,12.828,0,0,1-10.816-5.568,1.476,1.476,0,0,0-.74-.586,4.4,4.4,0,0,1-1.653-7.59,1.588,1.588,0,0,0,.416-1,12.092,12.092,0,0,1,2.548-5.748,1.159,1.159,0,0,0,.169-1.475,5.359,5.359,0,1,1,9.886-4.063,1.022,1.022,0,0,0,1.067.817,12.234,12.234,0,0,1,9.307,5.6,1.353,1.353,0,0,0,1.169.7,5.266,5.266,0,0,1,5.07,5.1,5.2,5.2,0,0,1-4.284,5.412,1.19,1.19,0,0,0-.933.805,12.353,12.353,0,0,1-11.206,7.6m.83-22.973c-5.7,0-9.811,3.02-11.024,7.223-.249.863-.248.864.611,1.022a4.353,4.353,0,0,1,3.407,5.792,4.2,4.2,0,0,1-1.8,2.246c-.4.243-.464.478-.125.817.247.246.461.526.716.763a10.311,10.311,0,0,0,15.909-2.29c.646-1.09.646-1.09-.412-1.793a5.273,5.273,0,0,1-.234-8.625c.463-.338.4-.579.108-.948-2.128-2.708-4.881-4.17-7.159-4.207m13.251,9.334a2.987,2.987,0,0,0-5.972-.1,2.96,2.96,0,0,0,.851,2.207,3.178,3.178,0,0,0,2.817.831,3.039,3.039,0,0,0,2.3-2.941m-22.424-10.554c.019.12.041.305.079.486.171.826.312.885,1.031.433a12.581,12.581,0,0,1,4.093-1.718c.778-.168.865-.416.394-1.086a3,3,0,0,0-3.5-1.155,3.043,3.043,0,0,0-2.094,3.04m.054,13.86a2.074,2.074,0,0,0-2.024-2.145,2.181,2.181,0,0,0-2.126,2.15,2.106,2.106,0,0,0,2.094,2.012,2.014,2.014,0,0,0,2.056-2.017" transform="translate(-111.108 -105.931)" fill="#a615ac"/>
  <path id="Trazado_22" data-name="Trazado 22" d="M171.451,140.912c0,.233,0,.466,0,.7-.015.837-.428,1.353-1.084,1.362-.74.009-1.173-.459-1.2-1.325a22.659,22.659,0,0,0-13.7-20.561A22.921,22.921,0,0,0,148.6,119.3c-1.064-.12-1.177,0-1.01,1.088.024.161.054.322.065.484.073,1.17-.7,1.743-1.794,1.318-1.759-.683-3.512-1.381-5.268-2.072q-1.138-.447-2.279-.887c-.508-.2-.93-.492-.967-1.078a1.271,1.271,0,0,1,.838-1.25c2.232-1.111,4.453-2.245,6.689-3.347,1.09-.537,1.8-.134,1.968,1.077a13.557,13.557,0,0,1,.189,1.453c.022.676.4.863.991.88a20.025,20.025,0,0,1,5.628.974A24.613,24.613,0,0,1,170.379,134.6a23.577,23.577,0,0,1,1.072,6.317m-30.126-23c1.277.5,2.347.921,3.424,1.326.318.12.351-.1.321-.341-.086-.691-.166-1.383-.26-2.074-.037-.278-.142-.538-.494-.372-.938.443-1.865.909-2.991,1.461" transform="translate(-111.108 -105.931)" fill="#a615ac"/>
  <path id="Trazado_23" data-name="Trazado 23" d="M122.789,140.675c.694.019,1.086.485,1.111,1.335a21.244,21.244,0,0,0,.785,5.658q4.164,13.547,18.061,16.418c.682.139,1.385.177,2.076.273.441.06.607-.113.531-.551q-.171-1-.321-2a1.128,1.128,0,0,1,1.571-1.342c2.661.929,5.313,1.882,7.971,2.82a1.183,1.183,0,0,1,.186,2.174c-2.268,1.239-4.53,2.491-6.817,3.7-.946.5-1.622.131-1.871-.911-.347-1.455-.35-1.431-1.892-1.594a25,25,0,0,1-22.365-21.572,16.344,16.344,0,0,1-.195-3.2,1.112,1.112,0,0,1,1.169-1.2m28.647,23.955c-1.235-.44-2.276-.813-3.319-1.181-.287-.1-.478-.011-.429.315.112.754.246,1.506.383,2.257.042.229.2.315.41.2.93-.5,1.857-1,2.955-1.592" transform="translate(-111.108 -105.931)" fill="#a615ac"/>
</svg>
