<svg id="sistema_inmune_fuerte" xmlns="http://www.w3.org/2000/svg" width="70.84" height="70.841" viewBox="0 0 70.84 70.841">
  <path id="Trazado_1" data-name="Trazado 1" d="M165.135,346.48a3.156,3.156,0,1,0,3.151,3.16,3.16,3.16,0,0,0-3.151-3.16m-1.581,2.111a.525.525,0,1,1,.524.518.52.52,0,0,1-.524-.518m1.048,3.148a.525.525,0,1,1,.528-.531.522.522,0,0,1-.528.531m3.157-1.571a1.051,1.051,0,1,1-1.045-1.057,1.043,1.043,0,0,1,1.045,1.057" transform="translate(-113.337 -302.965)" fill="#a615ac"/>
  <path id="Trazado_2" data-name="Trazado 2" d="M149.061,363.542l-.013-.009-.082.04c-21.333-9.456-20.34-14.306-20.345-14.311l.056-28.992c11.391-6.1,19.4-6.4,20.315-6.418.884.014,8.895.32,20.286,6.418v19.962a10.663,10.663,0,0,1,1.474.826V319.391l-.386-.209c-11.9-6.467-20.418-6.789-21.427-6.8-.932.016-9.447.338-21.35,6.8l-.386.209v29.484c-.279,1.142-.212,6.553,21.072,16.006l.694.277.772-.3a112.213,112.213,0,0,0,10.557-5.292,10.637,10.637,0,0,1-1.493-.83c-2.571,1.442-5.768,3.046-9.744,4.81" transform="translate(-113.337 -302.965)" fill="#a615ac"/>
  <path id="Trazado_3" data-name="Trazado 3" d="M157.75,357.9a10.651,10.651,0,0,1,10.493-18.093v-18.34c-11.29-6.134-19.236-6.134-19.236-6.134v3.817a5.3,5.3,0,0,0-4.726,5.249v5.249h-5.248a5.309,5.309,0,0,0,0,10.618h5.248v5.247a5.3,5.3,0,0,0,4.726,5.251v11.4c3.518-1.551,6.386-2.972,8.743-4.268m-11.994-12.386V338.8h-6.723a3.834,3.834,0,0,1,0-7.668h6.723V324.4a3.834,3.834,0,0,1,7.668,0v6.723h6.723a3.834,3.834,0,1,1,0,7.668h-6.723v6.723a3.834,3.834,0,0,1-7.668,0" transform="translate(-113.337 -302.965)" fill="#a615ac"/>
  <path id="Trazado_4" data-name="Trazado 4" d="M164.768,341.991a7.9,7.9,0,1,0,7.895,7.9,7.9,7.9,0,0,0-7.895-7.9m4.245,6.041c.016.031.068.049.107.063a1.063,1.063,0,0,1,.293,1.882.308.308,0,0,0-.1.154,3.3,3.3,0,0,0-.088.449.216.216,0,0,0,.073.144c.032.032.089.038.133.061a.535.535,0,0,0,.554,0,1.019,1.019,0,0,1,1.384.555,1.052,1.052,0,0,1-.629,1.39,1.037,1.037,0,0,1-1.351-.7.262.262,0,0,0-.192-.21c-.125-.04-.244-.093-.381-.146a4.348,4.348,0,0,1-1.164,1.31c.183.273.357.537.539.8a.2.2,0,0,0,.138.058,1.054,1.054,0,1,1-1.074,1.235,2.292,2.292,0,0,1,.051-.547c.005-.051.023-.114,0-.15-.18-.286-.369-.567-.546-.835l-1.222.314a1.089,1.089,0,0,1,.047.9,1.023,1.023,0,0,1-.456.523,1.057,1.057,0,0,1-1.306-1.628l-1.262-.646c-.178.164-.375.339-.561.524a.229.229,0,0,0-.026.161,1.056,1.056,0,1,1-.893-.9.234.234,0,0,0,.17-.043c.179-.177.346-.366.523-.556l-.514-.885a1.072,1.072,0,0,1-.946.425,1.01,1.01,0,0,1-.621-.268,1.056,1.056,0,0,1-.208-1.3c.279-.487.747-.622,1.441-.407a4.25,4.25,0,0,1,.586-2.276c-.224-.173-.438-.343-.659-.5a.22.22,0,0,0-.163-.012,1.053,1.053,0,1,1,.757-1.038.312.312,0,0,0,.147.3c.19.13.366.278.562.43a4.251,4.251,0,0,1,2.434-1.2c.046-.121,0-.185-.091-.253a1.04,1.04,0,0,1-.148-1.537,1.057,1.057,0,0,1,1.56,0,1.044,1.044,0,0,1-.137,1.539c-.118.092-.118.092-.1.252a4.329,4.329,0,0,1,2.349,1.108c.091-.109.183-.209.263-.318a.215.215,0,0,0,.013-.135,1.056,1.056,0,0,1,2.081-.358A1.051,1.051,0,0,1,169.21,347a.262.262,0,0,0-.253.1c-.088.1-.186.185-.279.277.114.227.221.447.335.662" transform="translate(-113.337 -302.965)" fill="#a615ac"/>
  <path id="Trazado_5" data-name="Trazado 5" d="M181.565,325.06a35.411,35.411,0,1,0-19.483,46.134,35.41,35.41,0,0,0,19.483-46.134m-20.338,44.028a33.138,33.138,0,1,1,18.232-43.173,33.14,33.14,0,0,1-18.232,43.173" transform="translate(-113.337 -302.965)" fill="#a615ac"/>
</svg>
