<?xml version="1.0" encoding="utf-8"?>
<!-- Generator: Adobe Illustrator 23.1.1, SVG Export Plug-In . SVG Version: 6.00 Build 0)  -->
<svg version="1.1" id="Capa_1" xmlns="http://www.w3.org/2000/svg" xmlns:xlink="http://www.w3.org/1999/xlink" x="0px" y="0px"
	 viewBox="0 0 340.16 340.16" style="enable-background:new 0 0 340.16 340.16;" xml:space="preserve">
<style type="text/css">
	.st0{fill:#D57C1C;}
	.st1{fill:#C94F1C;}
	.st2{fill:#FFFFFF;}
</style>
<g>
	<g>
		<g>
			<path class="st0" d="M170.08,337.15c-44.63,0-86.58-17.38-118.14-48.94C20.38,256.66,3,214.71,3,170.08S20.38,83.49,51.94,51.94
				S125.45,3,170.08,3c1.41,0,2.54,1.14,2.54,2.54s-1.14,2.54-2.54,2.54c-43.27,0-83.95,16.85-114.54,47.44
				c-30.6,30.6-47.44,71.27-47.44,114.54c0,43.27,16.85,83.95,47.44,114.54c30.6,30.6,71.27,47.44,114.54,47.44
				s83.95-16.85,114.54-47.44c30.6-30.6,47.44-71.27,47.44-114.54c0-1.4,1.14-2.54,2.54-2.54c1.4,0,2.54,1.14,2.54,2.54
				c0,44.63-17.38,86.58-48.94,118.14C256.66,319.78,214.71,337.15,170.08,337.15z"/>
		</g>
		<g>
			<path class="st1" d="M253.59,90.92c-1.91,0-3.81,0.24-5.66,0.72c-0.97,0.26-1.55,1.26-1.28,2.23c0.25,0.97,1.24,1.55,2.21,1.3
				c1.53-0.41,3.13-0.62,4.73-0.62c10.18,0,18.46,8.28,18.46,18.47c0,1.53-0.18,3.06-0.56,4.55c-0.25,0.97,0.34,1.96,1.32,2.2
				c0.14,0.04,0.29,0.07,0.45,0.07c0.81,0,1.55-0.55,1.76-1.38c0.45-1.77,0.68-3.6,0.68-5.44
				C275.69,100.82,265.77,90.92,253.59,90.92z M253.59,90.92c-1.91,0-3.81,0.24-5.66,0.72c-0.97,0.26-1.55,1.26-1.28,2.23
				c0.25,0.97,1.24,1.55,2.21,1.3c1.53-0.41,3.13-0.62,4.73-0.62c10.18,0,18.46,8.28,18.46,18.47c0,1.53-0.18,3.06-0.56,4.55
				c-0.25,0.97,0.34,1.96,1.32,2.2c0.14,0.04,0.29,0.07,0.45,0.07c0.81,0,1.55-0.55,1.76-1.38c0.45-1.77,0.68-3.6,0.68-5.44
				C275.69,100.82,265.77,90.92,253.59,90.92z M253.59,90.92c-1.91,0-3.81,0.24-5.66,0.72c-0.97,0.26-1.55,1.26-1.28,2.23
				c0.25,0.97,1.24,1.55,2.21,1.3c1.53-0.41,3.13-0.62,4.73-0.62c10.18,0,18.46,8.28,18.46,18.47c0,1.53-0.18,3.06-0.56,4.55
				c-0.25,0.97,0.34,1.96,1.32,2.2c0.14,0.04,0.29,0.07,0.45,0.07c0.81,0,1.55-0.55,1.76-1.38c0.45-1.77,0.68-3.6,0.68-5.44
				C275.69,100.82,265.77,90.92,253.59,90.92z M253.59,90.92c-1.91,0-3.81,0.24-5.66,0.72c-0.97,0.26-1.55,1.26-1.28,2.23
				c0.25,0.97,1.24,1.55,2.21,1.3c1.53-0.41,3.13-0.62,4.73-0.62c10.18,0,18.46,8.28,18.46,18.47c0,1.53-0.18,3.06-0.56,4.55
				c-0.25,0.97,0.34,1.96,1.32,2.2c0.14,0.04,0.29,0.07,0.45,0.07c0.81,0,1.55-0.55,1.76-1.38c0.45-1.77,0.68-3.6,0.68-5.44
				C275.69,100.82,265.77,90.92,253.59,90.92z M253.59,90.92c-1.91,0-3.81,0.24-5.66,0.72c-0.97,0.26-1.55,1.26-1.28,2.23
				c0.25,0.97,1.24,1.55,2.21,1.3c1.53-0.41,3.13-0.62,4.73-0.62c10.18,0,18.46,8.28,18.46,18.47c0,1.53-0.18,3.06-0.56,4.55
				c-0.25,0.97,0.34,1.96,1.32,2.2c0.14,0.04,0.29,0.07,0.45,0.07c0.81,0,1.55-0.55,1.76-1.38c0.45-1.77,0.68-3.6,0.68-5.44
				C275.69,100.82,265.77,90.92,253.59,90.92z M253.59,90.92c-1.91,0-3.81,0.24-5.66,0.72c-0.97,0.26-1.55,1.26-1.28,2.23
				c0.25,0.97,1.24,1.55,2.21,1.3c1.53-0.41,3.13-0.62,4.73-0.62c10.18,0,18.46,8.28,18.46,18.47c0,1.53-0.18,3.06-0.56,4.55
				c-0.25,0.97,0.34,1.96,1.32,2.2c0.14,0.04,0.29,0.07,0.45,0.07c0.81,0,1.55-0.55,1.76-1.38c0.45-1.77,0.68-3.6,0.68-5.44
				C275.69,100.82,265.77,90.92,253.59,90.92z M253.59,90.92c-1.91,0-3.81,0.24-5.66,0.72c-0.97,0.26-1.55,1.26-1.28,2.23
				c0.25,0.97,1.24,1.55,2.21,1.3c1.53-0.41,3.13-0.62,4.73-0.62c10.18,0,18.46,8.28,18.46,18.47c0,1.53-0.18,3.06-0.56,4.55
				c-0.25,0.97,0.34,1.96,1.32,2.2c0.14,0.04,0.29,0.07,0.45,0.07c0.81,0,1.55-0.55,1.76-1.38c0.45-1.77,0.68-3.6,0.68-5.44
				C275.69,100.82,265.77,90.92,253.59,90.92z M253.59,90.92c-1.91,0-3.81,0.24-5.66,0.72c-0.97,0.26-1.55,1.26-1.28,2.23
				c0.25,0.97,1.24,1.55,2.21,1.3c1.53-0.41,3.13-0.62,4.73-0.62c10.18,0,18.46,8.28,18.46,18.47c0,1.53-0.18,3.06-0.56,4.55
				c-0.25,0.97,0.34,1.96,1.32,2.2c0.14,0.04,0.29,0.07,0.45,0.07c0.81,0,1.55-0.55,1.76-1.38c0.45-1.77,0.68-3.6,0.68-5.44
				C275.69,100.82,265.77,90.92,253.59,90.92z M253.59,90.92c-1.91,0-3.81,0.24-5.66,0.72c-0.97,0.26-1.55,1.26-1.28,2.23
				c0.25,0.97,1.24,1.55,2.21,1.3c1.53-0.41,3.13-0.62,4.73-0.62c10.18,0,18.46,8.28,18.46,18.47c0,1.53-0.18,3.06-0.56,4.55
				c-0.25,0.97,0.34,1.96,1.32,2.2c0.14,0.04,0.29,0.07,0.45,0.07c0.81,0,1.55-0.55,1.76-1.38c0.45-1.77,0.68-3.6,0.68-5.44
				C275.69,100.82,265.77,90.92,253.59,90.92z M253.59,90.92c-1.91,0-3.81,0.24-5.66,0.72c-0.97,0.26-1.55,1.26-1.28,2.23
				c0.25,0.97,1.24,1.55,2.21,1.3c1.53-0.41,3.13-0.62,4.73-0.62c10.18,0,18.46,8.28,18.46,18.47c0,1.53-0.18,3.06-0.56,4.55
				c-0.25,0.97,0.34,1.96,1.32,2.2c0.14,0.04,0.29,0.07,0.45,0.07c0.81,0,1.55-0.55,1.76-1.38c0.45-1.77,0.68-3.6,0.68-5.44
				C275.69,100.82,265.77,90.92,253.59,90.92z M253.59,90.92c-1.91,0-3.81,0.24-5.66,0.72c-0.97,0.26-1.55,1.26-1.28,2.23
				c0.25,0.97,1.24,1.55,2.21,1.3c1.53-0.41,3.13-0.62,4.73-0.62c10.18,0,18.46,8.28,18.46,18.47c0,1.53-0.18,3.06-0.56,4.55
				c-0.25,0.97,0.34,1.96,1.32,2.2c0.14,0.04,0.29,0.07,0.45,0.07c0.81,0,1.55-0.55,1.76-1.38c0.45-1.77,0.68-3.6,0.68-5.44
				C275.69,100.82,265.77,90.92,253.59,90.92z M253.59,90.92c-1.91,0-3.81,0.24-5.66,0.72c-0.97,0.26-1.55,1.26-1.28,2.23
				c0.25,0.97,1.24,1.55,2.21,1.3c1.53-0.41,3.13-0.62,4.73-0.62c10.18,0,18.46,8.28,18.46,18.47c0,1.53-0.18,3.06-0.56,4.55
				c-0.25,0.97,0.34,1.96,1.32,2.2c0.14,0.04,0.29,0.07,0.45,0.07c0.81,0,1.55-0.55,1.76-1.38c0.45-1.77,0.68-3.6,0.68-5.44
				C275.69,100.82,265.77,90.92,253.59,90.92z M253.59,90.92c-1.91,0-3.81,0.24-5.66,0.72c-0.97,0.26-1.55,1.26-1.28,2.23
				c0.25,0.97,1.24,1.55,2.21,1.3c1.53-0.41,3.13-0.62,4.73-0.62c10.18,0,18.46,8.28,18.46,18.47c0,1.53-0.18,3.06-0.56,4.55
				c-0.25,0.97,0.34,1.96,1.32,2.2c0.14,0.04,0.29,0.07,0.45,0.07c0.81,0,1.55-0.55,1.76-1.38c0.45-1.77,0.68-3.6,0.68-5.44
				C275.69,100.82,265.77,90.92,253.59,90.92z M253.59,90.92c-1.91,0-3.81,0.24-5.66,0.72c-0.97,0.26-1.55,1.26-1.28,2.23
				c0.25,0.97,1.24,1.55,2.21,1.3c1.53-0.41,3.13-0.62,4.73-0.62c10.18,0,18.46,8.28,18.46,18.47c0,1.53-0.18,3.06-0.56,4.55
				c-0.25,0.97,0.34,1.96,1.32,2.2c0.14,0.04,0.29,0.07,0.45,0.07c0.81,0,1.55-0.55,1.76-1.38c0.45-1.77,0.68-3.6,0.68-5.44
				C275.69,100.82,265.77,90.92,253.59,90.92z M253.59,90.92c-1.91,0-3.81,0.24-5.66,0.72c-0.97,0.26-1.55,1.26-1.28,2.23
				c0.25,0.97,1.24,1.55,2.21,1.3c1.53-0.41,3.13-0.62,4.73-0.62c10.18,0,18.46,8.28,18.46,18.47c0,1.53-0.18,3.06-0.56,4.55
				c-0.25,0.97,0.34,1.96,1.32,2.2c0.14,0.04,0.29,0.07,0.45,0.07c0.81,0,1.55-0.55,1.76-1.38c0.45-1.77,0.68-3.6,0.68-5.44
				C275.69,100.82,265.77,90.92,253.59,90.92z M253.59,90.92c-1.91,0-3.81,0.24-5.66,0.72c-0.97,0.26-1.55,1.26-1.28,2.23
				c0.25,0.97,1.24,1.55,2.21,1.3c1.53-0.41,3.13-0.62,4.73-0.62c10.18,0,18.46,8.28,18.46,18.47c0,1.53-0.18,3.06-0.56,4.55
				c-0.25,0.97,0.34,1.96,1.32,2.2c0.14,0.04,0.29,0.07,0.45,0.07c0.81,0,1.55-0.55,1.76-1.38c0.45-1.77,0.68-3.6,0.68-5.44
				C275.69,100.82,265.77,90.92,253.59,90.92z M253.59,90.92c-1.91,0-3.81,0.24-5.66,0.72c-0.97,0.26-1.55,1.26-1.28,2.23
				c0.25,0.97,1.24,1.55,2.21,1.3c1.53-0.41,3.13-0.62,4.73-0.62c10.18,0,18.46,8.28,18.46,18.47c0,1.53-0.18,3.06-0.56,4.55
				c-0.25,0.97,0.34,1.96,1.32,2.2c0.14,0.04,0.29,0.07,0.45,0.07c0.81,0,1.55-0.55,1.76-1.38c0.45-1.77,0.68-3.6,0.68-5.44
				C275.69,100.82,265.77,90.92,253.59,90.92z M253.59,90.92c-1.91,0-3.81,0.24-5.66,0.72c-0.97,0.26-1.55,1.26-1.28,2.23
				c0.25,0.97,1.24,1.55,2.21,1.3c1.53-0.41,3.13-0.62,4.73-0.62c10.18,0,18.46,8.28,18.46,18.47c0,1.53-0.18,3.06-0.56,4.55
				c-0.25,0.97,0.34,1.96,1.32,2.2c0.14,0.04,0.29,0.07,0.45,0.07c0.81,0,1.55-0.55,1.76-1.38c0.45-1.77,0.68-3.6,0.68-5.44
				C275.69,100.82,265.77,90.92,253.59,90.92z M253.59,90.92c-1.91,0-3.81,0.24-5.66,0.72c-0.97,0.26-1.55,1.26-1.28,2.23
				c0.25,0.97,1.24,1.55,2.21,1.3c1.53-0.41,3.13-0.62,4.73-0.62c10.18,0,18.46,8.28,18.46,18.47c0,1.53-0.18,3.06-0.56,4.55
				c-0.25,0.97,0.34,1.96,1.32,2.2c0.14,0.04,0.29,0.07,0.45,0.07c0.81,0,1.55-0.55,1.76-1.38c0.45-1.77,0.68-3.6,0.68-5.44
				C275.69,100.82,265.77,90.92,253.59,90.92z M253.59,90.92c-1.91,0-3.81,0.24-5.66,0.72c-0.97,0.26-1.55,1.26-1.28,2.23
				c0.25,0.97,1.24,1.55,2.21,1.3c1.53-0.41,3.13-0.62,4.73-0.62c10.18,0,18.46,8.28,18.46,18.47c0,1.53-0.18,3.06-0.56,4.55
				c-0.25,0.97,0.34,1.96,1.32,2.2c0.14,0.04,0.29,0.07,0.45,0.07c0.81,0,1.55-0.55,1.76-1.38c0.45-1.77,0.68-3.6,0.68-5.44
				C275.69,100.82,265.77,90.92,253.59,90.92z M170.08,21.78c-82.69,0-149.72,67.04-149.72,149.72s67.04,149.72,149.72,149.72
				c82.69,0,149.72-67.04,149.72-149.72S252.76,21.78,170.08,21.78z M84.27,94.3c6.61,0,12.68,2.31,17.46,6.18
				c17.72-17.05,41.81-27.54,68.34-27.54c21.26,0,40.94,6.73,57.04,18.17c5.99-5.02,13.7-8.04,22.11-8.04
				c19.02,0,34.5,15.48,34.5,34.5c0,13.03-7.27,24.4-17.96,30.28c1.87,7.57,2.87,15.49,2.87,23.65c0,54.43-44.13,98.56-98.56,98.56
				c-16.28,0-31.64-3.96-45.19-10.95c-1.41,0.54-2.95,0.83-4.54,0.83c-7.01,0-12.74-5.54-13.07-12.47
				c-21.83-18.08-35.76-45.4-35.76-75.97c0-8.06,0.97-15.87,2.8-23.37c-10.45-4.01-17.89-14.15-17.89-25.99
				C56.43,106.79,68.92,94.3,84.27,94.3z M248.86,95.16c1.53-0.41,3.13-0.62,4.73-0.62c10.18,0,18.46,8.28,18.46,18.47
				c0,1.53-0.18,3.06-0.56,4.55c-0.25,0.97,0.34,1.96,1.32,2.2c0.14,0.04,0.29,0.07,0.45,0.07c0.81,0,1.55-0.55,1.76-1.38
				c0.45-1.77,0.68-3.6,0.68-5.44c0-12.19-9.92-22.1-22.1-22.1c-1.91,0-3.81,0.24-5.66,0.72c-0.97,0.26-1.55,1.26-1.28,2.23
				C246.9,94.84,247.89,95.41,248.86,95.16z M253.59,90.92c-1.91,0-3.81,0.24-5.66,0.72c-0.97,0.26-1.55,1.26-1.28,2.23
				c0.25,0.97,1.24,1.55,2.21,1.3c1.53-0.41,3.13-0.62,4.73-0.62c10.18,0,18.46,8.28,18.46,18.47c0,1.53-0.18,3.06-0.56,4.55
				c-0.25,0.97,0.34,1.96,1.32,2.2c0.14,0.04,0.29,0.07,0.45,0.07c0.81,0,1.55-0.55,1.76-1.38c0.45-1.77,0.68-3.6,0.68-5.44
				C275.69,100.82,265.77,90.92,253.59,90.92z M253.59,90.92c-1.91,0-3.81,0.24-5.66,0.72c-0.97,0.26-1.55,1.26-1.28,2.23
				c0.25,0.97,1.24,1.55,2.21,1.3c1.53-0.41,3.13-0.62,4.73-0.62c10.18,0,18.46,8.28,18.46,18.47c0,1.53-0.18,3.06-0.56,4.55
				c-0.25,0.97,0.34,1.96,1.32,2.2c0.14,0.04,0.29,0.07,0.45,0.07c0.81,0,1.55-0.55,1.76-1.38c0.45-1.77,0.68-3.6,0.68-5.44
				C275.69,100.82,265.77,90.92,253.59,90.92z M253.59,90.92c-1.91,0-3.81,0.24-5.66,0.72c-0.97,0.26-1.55,1.26-1.28,2.23
				c0.25,0.97,1.24,1.55,2.21,1.3c1.53-0.41,3.13-0.62,4.73-0.62c10.18,0,18.46,8.28,18.46,18.47c0,1.53-0.18,3.06-0.56,4.55
				c-0.25,0.97,0.34,1.96,1.32,2.2c0.14,0.04,0.29,0.07,0.45,0.07c0.81,0,1.55-0.55,1.76-1.38c0.45-1.77,0.68-3.6,0.68-5.44
				C275.69,100.82,265.77,90.92,253.59,90.92z M253.59,90.92c-1.91,0-3.81,0.24-5.66,0.72c-0.97,0.26-1.55,1.26-1.28,2.23
				c0.25,0.97,1.24,1.55,2.21,1.3c1.53-0.41,3.13-0.62,4.73-0.62c10.18,0,18.46,8.28,18.46,18.47c0,1.53-0.18,3.06-0.56,4.55
				c-0.25,0.97,0.34,1.96,1.32,2.2c0.14,0.04,0.29,0.07,0.45,0.07c0.81,0,1.55-0.55,1.76-1.38c0.45-1.77,0.68-3.6,0.68-5.44
				C275.69,100.82,265.77,90.92,253.59,90.92z M253.59,90.92c-1.91,0-3.81,0.24-5.66,0.72c-0.97,0.26-1.55,1.26-1.28,2.23
				c0.25,0.97,1.24,1.55,2.21,1.3c1.53-0.41,3.13-0.62,4.73-0.62c10.18,0,18.46,8.28,18.46,18.47c0,1.53-0.18,3.06-0.56,4.55
				c-0.25,0.97,0.34,1.96,1.32,2.2c0.14,0.04,0.29,0.07,0.45,0.07c0.81,0,1.55-0.55,1.76-1.38c0.45-1.77,0.68-3.6,0.68-5.44
				C275.69,100.82,265.77,90.92,253.59,90.92z M253.59,90.92c-1.91,0-3.81,0.24-5.66,0.72c-0.97,0.26-1.55,1.26-1.28,2.23
				c0.25,0.97,1.24,1.55,2.21,1.3c1.53-0.41,3.13-0.62,4.73-0.62c10.18,0,18.46,8.28,18.46,18.47c0,1.53-0.18,3.06-0.56,4.55
				c-0.25,0.97,0.34,1.96,1.32,2.2c0.14,0.04,0.29,0.07,0.45,0.07c0.81,0,1.55-0.55,1.76-1.38c0.45-1.77,0.68-3.6,0.68-5.44
				C275.69,100.82,265.77,90.92,253.59,90.92z M253.59,90.92c-1.91,0-3.81,0.24-5.66,0.72c-0.97,0.26-1.55,1.26-1.28,2.23
				c0.25,0.97,1.24,1.55,2.21,1.3c1.53-0.41,3.13-0.62,4.73-0.62c10.18,0,18.46,8.28,18.46,18.47c0,1.53-0.18,3.06-0.56,4.55
				c-0.25,0.97,0.34,1.96,1.32,2.2c0.14,0.04,0.29,0.07,0.45,0.07c0.81,0,1.55-0.55,1.76-1.38c0.45-1.77,0.68-3.6,0.68-5.44
				C275.69,100.82,265.77,90.92,253.59,90.92z M253.59,90.92c-1.91,0-3.81,0.24-5.66,0.72c-0.97,0.26-1.55,1.26-1.28,2.23
				c0.25,0.97,1.24,1.55,2.21,1.3c1.53-0.41,3.13-0.62,4.73-0.62c10.18,0,18.46,8.28,18.46,18.47c0,1.53-0.18,3.06-0.56,4.55
				c-0.25,0.97,0.34,1.96,1.32,2.2c0.14,0.04,0.29,0.07,0.45,0.07c0.81,0,1.55-0.55,1.76-1.38c0.45-1.77,0.68-3.6,0.68-5.44
				C275.69,100.82,265.77,90.92,253.59,90.92z M253.59,90.92c-1.91,0-3.81,0.24-5.66,0.72c-0.97,0.26-1.55,1.26-1.28,2.23
				c0.25,0.97,1.24,1.55,2.21,1.3c1.53-0.41,3.13-0.62,4.73-0.62c10.18,0,18.46,8.28,18.46,18.47c0,1.53-0.18,3.06-0.56,4.55
				c-0.25,0.97,0.34,1.96,1.32,2.2c0.14,0.04,0.29,0.07,0.45,0.07c0.81,0,1.55-0.55,1.76-1.38c0.45-1.77,0.68-3.6,0.68-5.44
				C275.69,100.82,265.77,90.92,253.59,90.92z M253.59,90.92c-1.91,0-3.81,0.24-5.66,0.72c-0.97,0.26-1.55,1.26-1.28,2.23
				c0.25,0.97,1.24,1.55,2.21,1.3c1.53-0.41,3.13-0.62,4.73-0.62c10.18,0,18.46,8.28,18.46,18.47c0,1.53-0.18,3.06-0.56,4.55
				c-0.25,0.97,0.34,1.96,1.32,2.2c0.14,0.04,0.29,0.07,0.45,0.07c0.81,0,1.55-0.55,1.76-1.38c0.45-1.77,0.68-3.6,0.68-5.44
				C275.69,100.82,265.77,90.92,253.59,90.92z M253.59,90.92c-1.91,0-3.81,0.24-5.66,0.72c-0.97,0.26-1.55,1.26-1.28,2.23
				c0.25,0.97,1.24,1.55,2.21,1.3c1.53-0.41,3.13-0.62,4.73-0.62c10.18,0,18.46,8.28,18.46,18.47c0,1.53-0.18,3.06-0.56,4.55
				c-0.25,0.97,0.34,1.96,1.32,2.2c0.14,0.04,0.29,0.07,0.45,0.07c0.81,0,1.55-0.55,1.76-1.38c0.45-1.77,0.68-3.6,0.68-5.44
				C275.69,100.82,265.77,90.92,253.59,90.92z M253.59,90.92c-1.91,0-3.81,0.24-5.66,0.72c-0.97,0.26-1.55,1.26-1.28,2.23
				c0.25,0.97,1.24,1.55,2.21,1.3c1.53-0.41,3.13-0.62,4.73-0.62c10.18,0,18.46,8.28,18.46,18.47c0,1.53-0.18,3.06-0.56,4.55
				c-0.25,0.97,0.34,1.96,1.32,2.2c0.14,0.04,0.29,0.07,0.45,0.07c0.81,0,1.55-0.55,1.76-1.38c0.45-1.77,0.68-3.6,0.68-5.44
				C275.69,100.82,265.77,90.92,253.59,90.92z M253.59,90.92c-1.91,0-3.81,0.24-5.66,0.72c-0.97,0.26-1.55,1.26-1.28,2.23
				c0.25,0.97,1.24,1.55,2.21,1.3c1.53-0.41,3.13-0.62,4.73-0.62c10.18,0,18.46,8.28,18.46,18.47c0,1.53-0.18,3.06-0.56,4.55
				c-0.25,0.97,0.34,1.96,1.32,2.2c0.14,0.04,0.29,0.07,0.45,0.07c0.81,0,1.55-0.55,1.76-1.38c0.45-1.77,0.68-3.6,0.68-5.44
				C275.69,100.82,265.77,90.92,253.59,90.92z M253.59,90.92c-1.91,0-3.81,0.24-5.66,0.72c-0.97,0.26-1.55,1.26-1.28,2.23
				c0.25,0.97,1.24,1.55,2.21,1.3c1.53-0.41,3.13-0.62,4.73-0.62c10.18,0,18.46,8.28,18.46,18.47c0,1.53-0.18,3.06-0.56,4.55
				c-0.25,0.97,0.34,1.96,1.32,2.2c0.14,0.04,0.29,0.07,0.45,0.07c0.81,0,1.55-0.55,1.76-1.38c0.45-1.77,0.68-3.6,0.68-5.44
				C275.69,100.82,265.77,90.92,253.59,90.92z M253.59,90.92c-1.91,0-3.81,0.24-5.66,0.72c-0.97,0.26-1.55,1.26-1.28,2.23
				c0.25,0.97,1.24,1.55,2.21,1.3c1.53-0.41,3.13-0.62,4.73-0.62c10.18,0,18.46,8.28,18.46,18.47c0,1.53-0.18,3.06-0.56,4.55
				c-0.25,0.97,0.34,1.96,1.32,2.2c0.14,0.04,0.29,0.07,0.45,0.07c0.81,0,1.55-0.55,1.76-1.38c0.45-1.77,0.68-3.6,0.68-5.44
				C275.69,100.82,265.77,90.92,253.59,90.92z M253.59,90.92c-1.91,0-3.81,0.24-5.66,0.72c-0.97,0.26-1.55,1.26-1.28,2.23
				c0.25,0.97,1.24,1.55,2.21,1.3c1.53-0.41,3.13-0.62,4.73-0.62c10.18,0,18.46,8.28,18.46,18.47c0,1.53-0.18,3.06-0.56,4.55
				c-0.25,0.97,0.34,1.96,1.32,2.2c0.14,0.04,0.29,0.07,0.45,0.07c0.81,0,1.55-0.55,1.76-1.38c0.45-1.77,0.68-3.6,0.68-5.44
				C275.69,100.82,265.77,90.92,253.59,90.92z M253.59,90.92c-1.91,0-3.81,0.24-5.66,0.72c-0.97,0.26-1.55,1.26-1.28,2.23
				c0.25,0.97,1.24,1.55,2.21,1.3c1.53-0.41,3.13-0.62,4.73-0.62c10.18,0,18.46,8.28,18.46,18.47c0,1.53-0.18,3.06-0.56,4.55
				c-0.25,0.97,0.34,1.96,1.32,2.2c0.14,0.04,0.29,0.07,0.45,0.07c0.81,0,1.55-0.55,1.76-1.38c0.45-1.77,0.68-3.6,0.68-5.44
				C275.69,100.82,265.77,90.92,253.59,90.92z M253.59,90.92c-1.91,0-3.81,0.24-5.66,0.72c-0.97,0.26-1.55,1.26-1.28,2.23
				c0.25,0.97,1.24,1.55,2.21,1.3c1.53-0.41,3.13-0.62,4.73-0.62c10.18,0,18.46,8.28,18.46,18.47c0,1.53-0.18,3.06-0.56,4.55
				c-0.25,0.97,0.34,1.96,1.32,2.2c0.14,0.04,0.29,0.07,0.45,0.07c0.81,0,1.55-0.55,1.76-1.38c0.45-1.77,0.68-3.6,0.68-5.44
				C275.69,100.82,265.77,90.92,253.59,90.92z"/>
		</g>
		<g>
			<g>
				<g>
					<path class="st2" d="M115.93,202.8c-0.54,0.98-1.21,1.9-1.96,2.71c-0.35,0.38-0.84,0.58-1.32,0.58c-0.45,0-0.89-0.17-1.24-0.5
						c-0.73-0.68-0.77-1.83-0.08-2.57c0.55-0.59,1.03-1.26,1.43-1.98c2.62-4.74,0.89-10.74-3.85-13.36
						c-0.75-0.41-1.55-0.72-2.36-0.93c-0.98-0.24-1.57-1.23-1.32-2.2c0.25-0.97,1.23-1.56,2.2-1.32c1.13,0.29,2.21,0.71,3.24,1.27
						C117.15,188.09,119.52,196.31,115.93,202.8z"/>
					<path class="st2" d="M128.35,247.52c0,0.71-0.09,1.41-0.26,2.1c-0.21,0.83-0.96,1.36-1.77,1.36c-0.14,0-0.29-0.01-0.45-0.05
						c-0.97-0.25-1.56-1.23-1.31-2.2c0.09-0.39,0.14-0.8,0.14-1.21c0-2.69-2.19-4.87-4.87-4.87c-0.42,0-0.84,0.05-1.24,0.16
						c-0.97,0.26-1.96-0.31-2.21-1.3c-0.26-0.97,0.31-1.96,1.28-2.21c0.71-0.18,1.44-0.29,2.17-0.29
						C124.52,239,128.35,242.83,128.35,247.52z"/>
					<path class="st2" d="M200.46,126.61c0,0.73-0.09,1.47-0.26,2.19c-0.21,0.81-0.96,1.36-1.77,1.36c-0.14,0-0.29-0.01-0.45-0.05
						c-0.97-0.25-1.56-1.23-1.31-2.21c0.1-0.42,0.16-0.85,0.16-1.28c0-2.87-2.34-5.21-5.21-5.21c-0.46,0-0.9,0.07-1.34,0.17
						c-0.97,0.26-1.96-0.31-2.21-1.3c-0.26-0.97,0.31-1.95,1.28-2.21c0.73-0.2,1.49-0.29,2.27-0.29
						C196.5,117.77,200.46,121.74,200.46,126.61z"/>
					<path class="st2" d="M275.69,113.02c0,1.83-0.24,3.67-0.68,5.44c-0.21,0.83-0.94,1.38-1.76,1.38c-0.16,0-0.3-0.03-0.45-0.07
						c-0.98-0.24-1.57-1.23-1.32-2.2c0.38-1.48,0.56-3.01,0.56-4.55c0-10.19-8.28-18.47-18.46-18.47c-1.6,0-3.2,0.21-4.73,0.62
						c-0.97,0.25-1.96-0.33-2.21-1.3c-0.26-0.97,0.31-1.96,1.28-2.23c1.85-0.48,3.75-0.72,5.66-0.72
						C265.77,90.92,275.69,100.82,275.69,113.02z"/>
				</g>
				<g>
					<path class="st2" d="M162.85,148.17c1.56,0.12,3.09,0.37,4.57,0.71C165.94,148.52,164.41,148.29,162.85,148.17z"/>
					<path class="st2" d="M249.23,83.06c-8.41,0-16.12,3.03-22.11,8.04c-7.57,6.34-12.39,15.85-12.39,26.46
						c0,5.06,1.11,10.07,3.24,14.62l-34.84,22.88c-1.27-1.22-2.63-2.34-4.09-3.35l8.83-10.88c0.98,0.22,1.99,0.33,3,0.33
						c7.79,0,14.13-6.34,14.13-14.13c0-7.79-6.34-14.13-14.13-14.13s-14.13,6.34-14.13,14.13c0,2.67,0.76,5.3,2.17,7.54
						l-10.07,12.42c-4.07-1.07-8.38-1.35-12.59-0.81l-3.04-34.91c4.09-2.57,6.67-7.11,6.67-11.98c0-7.79-6.34-14.15-14.15-14.15
						c-7.79,0-14.13,6.35-14.13,14.15c0,6.61,4.54,12.23,10.82,13.74l3.17,36.49c-2.53,1.31-4.87,2.92-6.98,4.85l-28.84-21.04
						c1.55-3.51,2.34-7.33,2.34-11.17c0-8.74-4.05-16.56-10.37-21.66c-4.78-3.88-10.85-6.18-17.46-6.18
						c-15.35,0-27.85,12.5-27.85,27.85c0,11.84,7.44,21.98,17.89,25.99c3.09,1.19,6.44,1.85,9.95,1.85c7.18,0,14.08-2.79,19.24-7.73
						l28.36,20.68c-2.59,4.75-3.94,10.09-3.94,15.52c0,0.84,0.03,1.7,0.1,2.58l-9.13,4.57c-3.92-5.8-10.47-9.33-17.56-9.33
						c-11.67,0-21.17,9.5-21.17,21.18c0,11.67,9.5,21.17,21.17,21.17c11.68,0,21.18-9.5,21.18-21.17c0-0.48-0.01-0.96-0.05-1.44
						l8.33-4.18c1.95,4.34,4.83,8.19,8.46,11.3l-17.18,30.75c-0.58-0.09-1.15-0.13-1.73-0.13c-7.22,0-13.08,5.87-13.08,13.08
						c0,0.21,0,0.42,0.01,0.62c0.33,6.93,6.06,12.47,13.07,12.47c1.6,0,3.13-0.29,4.54-0.83c4.98-1.85,8.53-6.64,8.53-12.26
						c0-2.54-0.73-5.02-2.11-7.13l17.29-30.95c3.79,1.49,7.78,2.24,11.88,2.24c5.17,0,10.26-1.23,14.83-3.56l12.61,19.18
						c-2.74,3.39-4.22,7.58-4.22,11.98c0,10.54,8.58,19.12,19.12,19.12s19.11-8.58,19.11-19.12c0-10.54-8.57-19.12-19.11-19.12
						c-2.04,0-4.02,0.33-5.93,0.94l-12.84-19.53c1.82-1.9,3.39-4.01,4.69-6.29l18.02,4.34c0.75,6.51,6.29,11.58,12.99,11.58
						c7.22,0,13.08-5.87,13.08-13.07c0-7.22-5.87-13.08-13.08-13.08c-3.63,0-7.11,1.55-9.57,4.19l-17.67-4.26
						c0.35-1.93,0.52-3.89,0.52-5.85c0-5.07-1.19-10.07-3.46-14.59l34.53-22.66c6.51,6.93,15.56,10.87,25.12,10.87
						c5.99,0,11.63-1.53,16.54-4.23c10.69-5.88,17.96-17.25,17.96-30.28C283.73,98.54,268.25,83.06,249.23,83.06z M265.21,145.66
						c-4.72,2.7-10.18,4.23-15.98,4.23c-9.94,0-18.82-4.49-24.76-11.54l-37.76,24.79c2.63,4.49,4.15,9.73,4.15,15.31
						c0,2.58-0.33,5.08-0.93,7.48l21.06,5.07c1.98-2.7,5.16-4.44,8.76-4.44c6.02,0,10.9,4.87,10.9,10.9c0,6.01-4.87,10.9-10.9,10.9
						c-6.03,0-10.9-4.89-10.9-10.9c0-0.08,0.01-0.16,0.01-0.24l-21.24-5.12c-1.62,3.21-3.79,6.08-6.38,8.51l14.79,22.48
						c2.07-0.9,4.36-1.41,6.78-1.41c9.35,0,16.94,7.58,16.94,16.94c0,9.37-7.58,16.95-16.94,16.95c-9.36,0-16.95-7.58-16.95-16.95
						c0-4.58,1.82-8.74,4.78-11.79l-14.63-22.27c-4.54,2.71-9.86,4.28-15.55,4.28c-4.58,0-8.92-1.02-12.82-2.84l-18.94,33.88
						c1.58,1.89,2.53,4.32,2.53,6.97c0,5.42-3.97,9.92-9.16,10.75c-0.56,0.09-1.15,0.14-1.74,0.14c-5.13,0-9.43-3.54-10.58-8.3
						c-0.21-0.83-0.31-1.7-0.31-2.59c0-6.03,4.87-10.9,10.9-10.9c1,0,1.95,0.14,2.86,0.39l18.85-33.74
						c-4.57-3.5-8.12-8.26-10.12-13.77l-11.78,5.91c0.12,0.88,0.2,1.78,0.2,2.71c0,10.49-8.51,18.99-19.01,18.99
						s-18.99-8.5-18.99-18.99s8.5-19.01,18.99-19.01c7.24,0,13.53,4.05,16.74,10.01l12.27-6.16c-0.16-1.26-0.25-2.54-0.25-3.85
						c0-5.92,1.7-11.45,4.64-16.12l-31.46-22.95c-4.7,5.17-11.47,8.42-19.01,8.42c-3.33,0-6.51-0.63-9.43-1.79
						c-9.51-3.75-16.23-13.02-16.23-23.86c0-14.17,11.49-25.66,25.66-25.66c6.01,0,11.54,2.06,15.9,5.53
						c5.95,4.7,9.76,11.97,9.76,20.13c0,4.28-1.06,8.32-2.92,11.87l31.79,23.17c2.59-2.65,5.67-4.81,9.09-6.37l-3.44-39.66
						c-6-0.64-10.66-5.72-10.66-11.88c0-6.6,5.34-11.96,11.95-11.96c6.61,0,11.96,5.36,11.96,11.96c0,4.74-2.76,8.83-6.77,10.75
						l3.37,38.69c2-0.42,4.07-0.64,6.2-0.64c0.8,0,1.58,0.03,2.37,0.09c1.56,0.12,3.09,0.35,4.57,0.71c0.75,0.17,1.48,0.38,2.2,0.6
						l12.04-14.84c-1.72-2.07-2.75-4.73-2.75-7.62c0-6.6,5.36-11.96,11.96-11.96s11.96,5.36,11.96,11.96
						c0,6.6-5.36,11.96-11.96,11.96c-1.34,0-2.61-0.22-3.8-0.63l-11.26,13.88c2.62,1.53,4.98,3.43,7.02,5.65l37.97-24.94
						c-2.48-4.57-3.89-9.81-3.89-15.38c0-10.15,4.69-19.21,12.02-25.13c5.54-4.49,12.61-7.18,20.3-7.18
						c17.85,0,32.33,14.47,32.33,32.31C281.55,129.6,274.96,140.1,265.21,145.66z"/>
				</g>
			</g>
			<g>
				<path class="st0" d="M249.23,85.25c-7.69,0-14.76,2.69-20.3,7.18c-7.33,5.92-12.02,14.98-12.02,25.13
					c0,5.57,1.41,10.81,3.89,15.38l-37.97,24.94c-2.04-2.21-4.4-4.11-7.02-5.65l11.26-13.88c1.19,0.41,2.46,0.63,3.8,0.63
					c6.6,0,11.96-5.36,11.96-11.96c0-6.6-5.36-11.96-11.96-11.96s-11.96,5.36-11.96,11.96c0,2.89,1.03,5.55,2.75,7.62l-12.04,14.84
					c-0.72-0.22-1.45-0.43-2.2-0.6c-1.48-0.34-3.01-0.59-4.57-0.71c-0.79-0.07-1.57-0.09-2.37-0.09c-2.12,0-4.19,0.22-6.2,0.64
					l-3.37-38.69c4.01-1.93,6.77-6.01,6.77-10.75c0-6.6-5.34-11.96-11.96-11.96c-6.6,0-11.95,5.36-11.95,11.96
					c0,6.16,4.66,11.24,10.66,11.88l3.44,39.66c-3.42,1.56-6.5,3.72-9.09,6.37l-31.79-23.17c1.86-3.55,2.92-7.58,2.92-11.87
					c0-8.16-3.81-15.43-9.76-20.13c-4.36-3.47-9.89-5.53-15.9-5.53c-14.17,0-25.66,11.49-25.66,25.66
					c0,10.85,6.72,20.12,16.23,23.86c2.92,1.17,6.1,1.79,9.43,1.79c7.53,0,14.3-3.25,19.01-8.42l31.46,22.95
					c-2.93,4.68-4.64,10.2-4.64,16.12c0,1.31,0.09,2.59,0.25,3.85l-12.27,6.16c-3.21-5.96-9.5-10.01-16.74-10.01
					c-10.49,0-18.99,8.51-18.99,19.01s8.5,18.99,18.99,18.99s19.01-8.5,19.01-18.99c0-0.93-0.08-1.83-0.2-2.71l11.78-5.91
					c2,5.5,5.55,10.27,10.12,13.77l-18.85,33.74c-0.9-0.25-1.86-0.39-2.86-0.39c-6.02,0-10.9,4.87-10.9,10.9
					c0,0.89,0.1,1.77,0.31,2.59c1.15,4.77,5.45,8.3,10.58,8.3c0.59,0,1.18-0.05,1.74-0.14c5.19-0.84,9.16-5.33,9.16-10.75
					c0-2.65-0.94-5.08-2.53-6.97L147.65,206c3.9,1.82,8.24,2.84,12.82,2.84c5.68,0,11-1.57,15.55-4.28l14.63,22.27
					c-2.96,3.05-4.78,7.2-4.78,11.79c0,9.37,7.58,16.95,16.95,16.95c9.35,0,16.94-7.58,16.94-16.95c0-9.35-7.58-16.94-16.94-16.94
					c-2.42,0-4.72,0.51-6.78,1.41l-14.79-22.48c2.59-2.44,4.75-5.3,6.38-8.51l21.24,5.12c0,0.08-0.01,0.16-0.01,0.24
					c0,6.01,4.87,10.9,10.9,10.9c6.02,0,10.9-4.89,10.9-10.9c0-6.03-4.87-10.9-10.9-10.9c-3.6,0-6.78,1.74-8.76,4.44l-21.06-5.07
					c0.6-2.4,0.93-4.9,0.93-7.48c0-5.58-1.52-10.82-4.15-15.31l37.76-24.79c5.93,7.05,14.81,11.54,24.76,11.54
					c5.8,0,11.26-1.53,15.98-4.23c9.76-5.55,16.35-16.06,16.35-28.1C281.55,99.72,267.08,85.25,249.23,85.25z M189.36,118.06
					c0.73-0.2,1.49-0.29,2.27-0.29c4.87,0,8.84,3.97,8.84,8.84c0,0.73-0.09,1.47-0.26,2.19c-0.21,0.81-0.96,1.36-1.77,1.36
					c-0.14,0-0.29-0.01-0.45-0.05c-0.97-0.25-1.56-1.23-1.31-2.21c0.1-0.42,0.16-0.85,0.16-1.28c0-2.87-2.34-5.21-5.21-5.21
					c-0.46,0-0.9,0.07-1.34,0.17c-0.97,0.26-1.96-0.31-2.21-1.3C187.81,119.3,188.39,118.32,189.36,118.06z M105.78,126.38
					c-0.21,0.83-0.96,1.38-1.77,1.38c-0.14,0-0.29-0.01-0.45-0.05c-0.97-0.25-1.56-1.23-1.31-2.21c0.37-1.48,0.56-3,0.56-4.54
					c0-5.8-2.69-10.99-6.89-14.37c-3.17-2.55-7.19-4.09-11.57-4.09c-1.61,0-3.2,0.2-4.73,0.6c-0.97,0.26-1.96-0.33-2.23-1.3
					c-0.25-0.97,0.33-1.96,1.3-2.21c1.83-0.48,3.73-0.73,5.66-0.73c5.32,0,10.19,1.89,14.01,5.03c4.92,4.06,8.07,10.2,8.07,17.07
					C106.45,122.77,106.22,124.61,105.78,126.38z M115.93,202.8c-0.54,0.98-1.21,1.9-1.96,2.71c-0.35,0.38-0.84,0.58-1.32,0.58
					c-0.45,0-0.89-0.17-1.24-0.5c-0.73-0.68-0.77-1.83-0.08-2.57c0.55-0.59,1.03-1.26,1.43-1.98c2.62-4.74,0.89-10.74-3.85-13.36
					c-0.75-0.41-1.55-0.72-2.36-0.93c-0.98-0.24-1.57-1.23-1.32-2.2c0.25-0.97,1.23-1.56,2.2-1.32c1.13,0.29,2.21,0.71,3.24,1.27
					C117.15,188.09,119.52,196.31,115.93,202.8z M128.08,249.61c-0.21,0.83-0.96,1.36-1.77,1.36c-0.14,0-0.29-0.01-0.45-0.05
					c-0.97-0.25-1.56-1.23-1.31-2.2c0.09-0.39,0.14-0.8,0.14-1.21c0-2.69-2.19-4.87-4.87-4.87c-0.42,0-0.84,0.05-1.24,0.16
					c-0.97,0.26-1.96-0.31-2.21-1.3c-0.26-0.97,0.31-1.96,1.28-2.21c0.71-0.18,1.44-0.29,2.17-0.29c4.69,0,8.51,3.82,8.51,8.51
					C128.35,248.23,128.26,248.93,128.08,249.61z M146.64,92.61c-0.46,0-0.9,0.05-1.34,0.17c-0.97,0.25-1.96-0.33-2.21-1.3
					c-0.17-0.64,0.03-1.31,0.46-1.74c0.22-0.22,0.5-0.39,0.83-0.47c0.73-0.2,1.49-0.3,2.27-0.3c4.87,0,8.85,3.97,8.85,8.85
					c0,0.24-0.01,0.46-0.03,0.69c-0.04,0.5-0.12,1-0.25,1.48c-0.21,0.83-0.96,1.38-1.77,1.38c-0.14,0-0.29-0.03-0.45-0.07
					c-0.97-0.24-1.56-1.23-1.31-2.2c0.1-0.42,0.16-0.85,0.16-1.28C151.86,94.94,149.51,92.61,146.64,92.61z M200.24,225.49
					c1.18-0.31,2.4-0.47,3.62-0.47c4.96,0,9.34,2.57,11.87,6.46c0.03,0.04,0.05,0.08,0.07,0.12c1.39,2.19,2.2,4.79,2.2,7.57
					c0,1.18-0.14,2.34-0.43,3.47c-0.13,0.52-0.47,0.93-0.92,1.17c-0.25,0.13-0.54,0.21-0.84,0.21c-0.16,0-0.3-0.01-0.45-0.05
					c-0.98-0.25-1.57-1.23-1.32-2.21c0.21-0.84,0.33-1.7,0.33-2.58c0-5.8-4.72-10.5-10.5-10.5c-0.92,0-1.82,0.12-2.69,0.34
					c-0.98,0.25-1.96-0.33-2.23-1.3C198.7,226.73,199.27,225.74,200.24,225.49z M218.4,189.46c0.73-0.2,1.49-0.3,2.27-0.3
					c1.1,0,2.16,0.21,3.13,0.58c3.33,1.27,5.71,4.49,5.71,8.28c0,0.73-0.09,1.47-0.28,2.17c-0.21,0.83-0.94,1.38-1.76,1.38
					c-0.01,0-0.01,0-0.03,0c-0.13,0-0.29-0.03-0.42-0.05c-0.98-0.25-1.56-1.24-1.32-2.21c0.1-0.42,0.17-0.85,0.17-1.28
					c0-2.88-2.34-5.21-5.21-5.21c-0.46,0-0.9,0.05-1.34,0.17c-0.98,0.25-1.96-0.33-2.23-1.3C216.85,190.7,217.43,189.7,218.4,189.46
					z M273.25,119.83c-0.16,0-0.3-0.03-0.45-0.07c-0.98-0.24-1.57-1.23-1.32-2.2c0.38-1.48,0.56-3.01,0.56-4.55
					c0-10.19-8.28-18.47-18.46-18.47c-1.6,0-3.2,0.21-4.73,0.62c-0.97,0.25-1.96-0.33-2.21-1.3c-0.26-0.97,0.31-1.96,1.28-2.23
					c1.85-0.48,3.75-0.72,5.66-0.72c12.18,0,22.1,9.9,22.1,22.1c0,1.83-0.24,3.67-0.68,5.44
					C274.79,119.28,274.06,119.83,273.25,119.83z"/>
				<path class="st0" d="M115.93,202.8c-0.54,0.98-1.21,1.9-1.96,2.71c-0.35,0.38-0.84,0.58-1.32,0.58c-0.45,0-0.89-0.17-1.24-0.5
					c-0.73-0.68-0.77-1.83-0.08-2.57c0.55-0.59,1.03-1.26,1.43-1.98c2.62-4.74,0.89-10.74-3.85-13.36
					c-0.75-0.41-1.55-0.72-2.36-0.93c-0.98-0.24-1.57-1.23-1.32-2.2c0.25-0.97,1.23-1.56,2.2-1.32c1.13,0.29,2.21,0.71,3.24,1.27
					C117.15,188.09,119.52,196.31,115.93,202.8z"/>
				<path class="st0" d="M128.35,247.52c0,0.71-0.09,1.41-0.26,2.1c-0.21,0.83-0.96,1.36-1.77,1.36c-0.14,0-0.29-0.01-0.45-0.05
					c-0.97-0.25-1.56-1.23-1.31-2.2c0.09-0.39,0.14-0.8,0.14-1.21c0-2.69-2.19-4.87-4.87-4.87c-0.42,0-0.84,0.05-1.24,0.16
					c-0.97,0.26-1.96-0.31-2.21-1.3c-0.26-0.97,0.31-1.96,1.28-2.21c0.71-0.18,1.44-0.29,2.17-0.29
					C124.52,239,128.35,242.83,128.35,247.52z"/>
				<path class="st0" d="M200.46,126.61c0,0.73-0.09,1.47-0.26,2.19c-0.21,0.81-0.96,1.36-1.77,1.36c-0.14,0-0.29-0.01-0.45-0.05
					c-0.97-0.25-1.56-1.23-1.31-2.21c0.1-0.42,0.16-0.85,0.16-1.28c0-2.87-2.34-5.21-5.21-5.21c-0.46,0-0.9,0.07-1.34,0.17
					c-0.97,0.26-1.96-0.31-2.21-1.3c-0.26-0.97,0.31-1.95,1.28-2.21c0.73-0.2,1.49-0.29,2.27-0.29
					C196.5,117.77,200.46,121.74,200.46,126.61z"/>
				<path class="st0" d="M167.42,148.88c-1.48-0.34-3.01-0.59-4.57-0.71C164.41,148.29,165.94,148.52,167.42,148.88z"/>
				<path class="st0" d="M275.69,113.02c0,1.83-0.24,3.67-0.68,5.44c-0.21,0.83-0.94,1.38-1.76,1.38c-0.16,0-0.3-0.03-0.45-0.07
					c-0.98-0.24-1.57-1.23-1.32-2.2c0.38-1.48,0.56-3.01,0.56-4.55c0-10.19-8.28-18.47-18.46-18.47c-1.6,0-3.2,0.21-4.73,0.62
					c-0.97,0.25-1.96-0.33-2.21-1.3c-0.26-0.97,0.31-1.96,1.28-2.23c1.85-0.48,3.75-0.72,5.66-0.72
					C265.77,90.92,275.69,100.82,275.69,113.02z"/>
			</g>
			<g>
				<path class="st2" d="M275.69,113.02c0,1.83-0.24,3.67-0.68,5.44c-0.21,0.83-0.94,1.38-1.76,1.38c-0.16,0-0.3-0.03-0.45-0.07
					c-0.98-0.24-1.57-1.23-1.32-2.2c0.38-1.48,0.56-3.01,0.56-4.55c0-10.19-8.28-18.47-18.46-18.47c-1.6,0-3.2,0.21-4.73,0.62
					c-0.97,0.25-1.96-0.33-2.21-1.3c-0.26-0.97,0.31-1.96,1.28-2.23c1.85-0.48,3.75-0.72,5.66-0.72
					C265.77,90.92,275.69,100.82,275.69,113.02z"/>
			</g>
			<g>
				<path class="st2" d="M106.45,120.94c0,1.83-0.22,3.67-0.67,5.44c-0.21,0.83-0.96,1.38-1.77,1.38c-0.14,0-0.29-0.01-0.45-0.05
					c-0.97-0.25-1.56-1.23-1.31-2.21c0.37-1.48,0.56-3,0.56-4.54c0-5.8-2.69-10.99-6.89-14.37c-3.17-2.55-7.19-4.09-11.57-4.09
					c-1.61,0-3.2,0.2-4.73,0.6c-0.97,0.26-1.96-0.33-2.23-1.3c-0.25-0.97,0.33-1.96,1.3-2.21c1.83-0.48,3.73-0.73,5.66-0.73
					c5.32,0,10.19,1.89,14.01,5.03C103.3,107.93,106.45,114.08,106.45,120.94z"/>
			</g>
			<g>
				<path class="st2" d="M217.99,239.16c0,1.18-0.14,2.34-0.43,3.47c-0.13,0.52-0.47,0.93-0.92,1.17c-0.25,0.13-0.54,0.21-0.84,0.21
					c-0.16,0-0.3-0.01-0.45-0.05c-0.98-0.25-1.57-1.23-1.32-2.21c0.21-0.84,0.33-1.7,0.33-2.58c0-5.8-4.72-10.5-10.5-10.5
					c-0.92,0-1.82,0.12-2.69,0.34c-0.98,0.25-1.96-0.33-2.23-1.3c-0.25-0.97,0.33-1.96,1.3-2.21c1.18-0.31,2.4-0.47,3.62-0.47
					c4.96,0,9.34,2.57,11.87,6.46c0.03,0.04,0.05,0.08,0.07,0.12C217.18,233.78,217.99,236.38,217.99,239.16z"/>
			</g>
			<g>
				<path class="st2" d="M200.46,126.61c0,0.73-0.09,1.47-0.26,2.19c-0.21,0.81-0.96,1.36-1.77,1.36c-0.14,0-0.29-0.01-0.45-0.05
					c-0.97-0.25-1.56-1.23-1.31-2.21c0.1-0.42,0.16-0.85,0.16-1.28c0-2.87-2.34-5.21-5.21-5.21c-0.46,0-0.9,0.07-1.34,0.17
					c-0.97,0.26-1.96-0.31-2.21-1.3c-0.26-0.97,0.31-1.95,1.28-2.21c0.73-0.2,1.49-0.29,2.27-0.29
					C196.5,117.77,200.46,121.74,200.46,126.61z"/>
			</g>
			<g>
				<path class="st2" d="M115.93,202.8c-0.54,0.98-1.21,1.9-1.96,2.71c-0.35,0.38-0.84,0.58-1.32,0.58c-0.45,0-0.89-0.17-1.24-0.5
					c-0.73-0.68-0.77-1.83-0.08-2.57c0.55-0.59,1.03-1.26,1.43-1.98c2.62-4.74,0.89-10.74-3.85-13.36
					c-0.75-0.41-1.55-0.72-2.36-0.93c-0.98-0.24-1.57-1.23-1.32-2.2c0.25-0.97,1.23-1.56,2.2-1.32c1.13,0.29,2.21,0.71,3.24,1.27
					C117.15,188.09,119.52,196.31,115.93,202.8z"/>
			</g>
			<g>
				<path class="st2" d="M128.35,247.52c0,0.71-0.09,1.41-0.26,2.1c-0.21,0.83-0.96,1.36-1.77,1.36c-0.14,0-0.29-0.01-0.45-0.05
					c-0.97-0.25-1.56-1.23-1.31-2.2c0.09-0.39,0.14-0.8,0.14-1.21c0-2.69-2.19-4.87-4.87-4.87c-0.42,0-0.84,0.05-1.24,0.16
					c-0.97,0.26-1.96-0.31-2.21-1.3c-0.26-0.97,0.31-1.96,1.28-2.21c0.71-0.18,1.44-0.29,2.17-0.29
					C124.52,239,128.35,242.83,128.35,247.52z"/>
			</g>
			<g>
				<path class="st2" d="M229.5,198.01c0,0.73-0.09,1.47-0.28,2.17c-0.21,0.83-0.94,1.38-1.76,1.38c-0.01,0-0.01,0-0.03,0
					c-0.13,0-0.29-0.03-0.42-0.05c-0.98-0.25-1.56-1.24-1.32-2.21c0.1-0.42,0.17-0.85,0.17-1.28c0-2.88-2.34-5.21-5.21-5.21
					c-0.46,0-0.9,0.05-1.34,0.17c-0.98,0.25-1.96-0.33-2.23-1.3c-0.25-0.97,0.33-1.96,1.3-2.21c0.73-0.2,1.49-0.3,2.27-0.3
					c1.1,0,2.16,0.21,3.13,0.58C227.12,191,229.5,194.22,229.5,198.01z"/>
			</g>
			<g>
				<path class="st2" d="M155.5,97.82c0,0.24-0.01,0.46-0.03,0.69c-0.04,0.5-0.12,1-0.25,1.48c-0.21,0.83-0.96,1.38-1.77,1.38
					c-0.14,0-0.29-0.03-0.45-0.07c-0.97-0.24-1.56-1.23-1.31-2.2c0.1-0.42,0.16-0.85,0.16-1.28c0-2.88-2.34-5.21-5.21-5.21
					c-0.46,0-0.9,0.05-1.34,0.17c-0.97,0.25-1.96-0.33-2.21-1.3c-0.17-0.64,0.03-1.31,0.46-1.74c0.22-0.22,0.5-0.39,0.83-0.47
					c0.73-0.2,1.49-0.3,2.27-0.3C151.52,88.97,155.5,92.94,155.5,97.82z"/>
			</g>
		</g>
	</g>
	<g>
		<path class="st2" d="M57.12,199.12l-22.36,6.77l1.6,5.28l8.61-2.61l2.53,8.33l4.51-1.36l-2.51-8.34l4.57-1.38l2.91,9.63l4.68-1.4
			L57.12,199.12z"/>
		<path class="st2" d="M66.67,223.71c-2.91-5.96-9.42-7.01-15.49-4.03c-6.09,2.96-9.29,8.74-6.38,14.7
			c2.91,5.97,9.42,7.01,15.49,4.05C66.38,235.44,69.58,229.68,66.67,223.71z M57.88,233.46c-3.14,1.53-6.82,1.81-8.38-1.39
			c-1.56-3.2,0.93-5.92,4.09-7.45c3.14-1.53,6.82-1.82,8.38,1.38C63.53,229.19,61.02,231.93,57.88,233.46z M72.3,221.69l-5.63-0.45
			l1.56,3.2l6.42,2.04L72.3,221.69z"/>
		<path class="st2" d="M78.08,243.39l-6.31-8.74l-18.93,13.69l3.24,4.45l6.89-4.98l2.45,3.38c1.52,2.12-0.25,3.8-2.07,5.3
			c-0.51,0.47-2.28,1.82-2.66,2.69l3.18,4.41c0.31-1.14,2.99-3.14,3.76-3.81c1.72-1.41,3.52-3.6,2.72-5.76l0.05-0.04
			c2.08,1.27,4.65,0.73,6.69-0.75C80.91,250.48,80.25,246.39,78.08,243.39z M73.2,249.26c-1.47,1.05-2.75,0.89-3.72-0.46l-2.71-3.75
			l4.27-3.08l2.57,3.55C74.51,246.77,74.61,248.24,73.2,249.26z"/>
		<path class="st2" d="M94.69,261.45l-13.31,8.85l-0.04-0.04l7.99-13.84l-5.92-5.55l-15.97,17.04l3.77,3.54l12.13-12.93l0.04,0.05
			l-8.88,15.97l3.07,2.87l15.36-9.89l0.05,0.04l-12.13,12.93l3.77,3.55l15.98-17.04L94.69,261.45z"/>
		<path class="st2" d="M113.42,274.92l-7.43,11.96c-1.58,2.55-3.24,3.34-5.54,1.9c-2.32-1.43-2.33-3.26-0.75-5.82l7.43-11.95
			l-4.69-2.91l-7.23,11.64c-3.56,5.75-2.96,10.1,2.48,13.48c5.44,3.37,9.6,1.99,13.18-3.76l7.23-11.64L113.42,274.92z"/>
		<path class="st2" d="M118.5,297.64l6.92-16.75l-5.1-2.1l-8.91,21.59l14.2,5.87l2-4.85L118.5,297.64z"/>
		<path class="st2" d="M146.99,287.72l-5.46-1.27l-13.02,20.94l5.51,1.28l2.25-3.77l7.18,1.68l0.31,4.37l5.59,1.31L146.99,287.72z
			 M138.54,300.8l4.2-7.43l0.05,0.01l0.42,8.5L138.54,300.8z"/>
		<path class="st2" d="M187.14,289.38l-8.11,0.38l-2.92,15.72h-0.05l-4.36-15.38l-8.11,0.37l1.09,23.34l5.17-0.25l-0.83-17.71h0.07
			l5.25,17.5l4.2-0.18l3.62-17.92l0.07-0.01l0.81,17.72l5.19-0.25L187.14,289.38z"/>
		<path class="st2" d="M210.38,302.15l-11.29,2.82l-1.07-4.32l10.06-2.5l-1.14-4.57l-10.06,2.5l-0.98-3.97l11-2.74l-1.18-4.73
			l-16.35,4.07l5.64,22.66l16.63-4.14L210.38,302.15z"/>
		<path class="st2" d="M226.67,293.12l-6.23-14.68l-5.07,2.15l6.08,14.33c0.89,2.08,0.54,3.08-0.63,3.58
			c-1.28,0.54-2.3,0.05-2.89-1.36l-0.85-1.99l-4.77,2.02l0.39,0.94c2.03,4.78,5.1,7.36,10.24,5.17
			C227.48,301.35,228.73,297.98,226.67,293.12z"/>
		<path class="st2" d="M245.99,276.53c-3.64-5.71-9.75-8.23-15.34-4.66c-5.59,3.56-5.89,10.15-2.25,15.86
			c3.64,5.71,9.73,8.23,15.32,4.66C249.32,288.83,249.62,282.24,245.99,276.53z M240.92,287.98c-3,1.91-6-0.26-7.87-3.21
			c-1.89-2.95-2.58-6.58,0.42-8.49c3-1.91,5.99,0.25,7.87,3.21C243.22,282.44,243.91,286.07,240.92,287.98z"/>
		<path class="st2" d="M266.36,266.71c-1.61-1.55-3.99-3.08-6.05-2.03l-0.04-0.05c1.01-2.21,0.17-4.69-1.53-6.55
			c-3.2-3.46-7.18-2.33-9.9,0.18l-7.92,7.31l15.84,17.17l4.05-3.73l-5.76-6.26l3.06-2.83c1.91-1.76,3.8-0.2,5.5,1.43
			c0.54,0.45,2.08,2.04,2.99,2.32l4.01-3.69C269.42,269.8,267.12,267.39,266.36,266.71z M255.23,266.16l-3.39,3.13l-3.56-3.88
			l3.22-2.96c1.13-1.05,2.57-1.31,3.75-0.04C256.46,263.73,256.44,265.03,255.23,266.16z"/>
		<path class="st2" d="M262.48,242.8l-3.43,4.43l13.61,20.56l3.47-4.47l-2.5-3.62l4.53-5.83l4.1,1.55l3.52-4.55L262.48,242.8z
			 M270.85,255.94l-4.99-6.92l0.04-0.05l7.88,3.17L270.85,255.94z"/>
		<path class="st2" d="M286.81,224.54c-6.38-3.41-12.04-2.04-15.1,3.67l-4.28,8.02L288,247.26l4.3-8
			C295.32,233.58,293.55,228.16,286.81,224.54z M287.21,237.64l-1.22,2.29l-11.37-6.09l1.23-2.29c1.79-3.34,4.55-4.19,8.32-2.16
			C288.3,231.6,289.1,233.91,287.21,237.64z"/>
		<path class="st2" d="M303.6,212.08l1.83-5.44l-24.66,0.05l-1.78,5.3l19.63,14.93l1.79-5.36l-3.55-2.61l2.36-6.98L303.6,212.08z
			 M293,216.33l-6.99-4.89l0.01-0.05l8.5,0.38L293,216.33z"/>
	</g>
</g>
</svg>
