<?xml version="1.0" encoding="utf-8"?>
<!-- Generator: Adobe Illustrator 23.1.1, SVG Export Plug-In . SVG Version: 6.00 Build 0)  -->
<svg version="1.1" id="Layer_1" xmlns="http://www.w3.org/2000/svg" xmlns:xlink="http://www.w3.org/1999/xlink" x="0px" y="0px"
	 viewBox="0 0 400 300" style="enable-background:new 0 0 400 300;" xml:space="preserve">
<style type="text/css">
	.st0{fill:#1E1D1B;}
	.st1{fill:#FFFFFF;}
	.st2{fill:#E15200;}
	.st3{fill-rule:evenodd;clip-rule:evenodd;fill:#E15200;}
</style>
<path d="M141.1,2L141.1,2L141.1,2L141.1,2L141.1,2"/>
<path d="M154.1,2L154.1,2L154.1,2L154.1,2L154.1,2"/>
<path d="M167,2C167.7,2,167.7,2,167,2C167.7,2,167.7,2,167,2L167,2L167,2"/>
<path d="M180.7,2L180.7,2L180.7,2C180.7,2,180,2,180.7,2C180,2,180.7,2,180.7,2"/>
<path d="M193.7,2L193.7,2L193.7,2L193.7,2L193.7,2"/>
<path d="M207.3,2L207.3,2L207.3,2C206.7,2,206.7,2,207.3,2C206.7,2,206.7,2,207.3,2"/>
<path d="M220.3,2L220.3,2L220.3,2L220.3,2L220.3,2"/>
<path d="M233.3,2L233.3,2L233.3,2L233.3,2L233.3,2"/>
<path d="M247,2L247,2L247,2L247,2L247,2"/>
<polyline points="259.9,2 259.9,2 259.9,2 259.9,2 259.9,2 "/>
<polyline points="94.3,15 94.3,15 94.3,15 94.3,15 94.3,15 "/>
<path d="M107.9,15.6C107.9,15.6,107.9,15,107.9,15.6C107.9,15,107.9,15,107.9,15.6C107.9,15,107.9,15,107.9,15.6
	C107.9,15,107.9,15.6,107.9,15.6"/>
<path d="M120.9,15.6L120.9,15.6C120.9,15,120.9,15,120.9,15.6C120.9,15,120.9,15,120.9,15.6L120.9,15.6"/>
<path d="M133.9,15.6C134.6,15.6,134.6,15.6,133.9,15.6c0.6-0.6,0-0.6,0-0.6S133.9,15,133.9,15.6L133.9,15.6"/>
<path d="M147.6,15.6C147.6,15.6,148.2,15.6,147.6,15.6c0.6-0.6,0-0.6,0-0.6C146.9,15,146.9,15,147.6,15.6
	C146.9,15.6,146.9,15.6,147.6,15.6"/>
<path d="M160.5,15.6C161.2,15.6,161.2,15.6,160.5,15.6c0.6-0.6,0-1.3,0-1.3C160.5,15,159.9,15,160.5,15.6
	C159.9,15.6,160.5,15.6,160.5,15.6"/>
<path d="M174.2,15.6L174.2,15.6c0.6-0.6,0.6-1.3,0-1.3C173.5,14.3,173.5,15,174.2,15.6C173.5,15.6,173.5,15.6,174.2,15.6"/>
<path d="M187.2,15.6C187.2,15.6,187.8,15.6,187.2,15.6c0.6-0.6,0.6-1.3,0-1.3C186.5,14.3,186.5,15,187.2,15.6
	C186.5,15.6,186.5,15.6,187.2,15.6"/>
<path d="M200.2,15.6C200.8,15.6,200.8,15.6,200.2,15.6c0.6-0.6,0.6-1.3,0-1.3C200.2,14.3,199.5,15,200.2,15.6
	C199.5,15.6,200.2,15.6,200.2,15.6"/>
<path d="M213.8,15.6C213.8,15.6,214.5,15.6,213.8,15.6c0.6-0.6,0.6-1.3,0-1.3C213.2,14.3,213.2,15,213.8,15.6
	C213.2,15.6,213.2,15.6,213.8,15.6"/>
<path d="M226.8,15.6C227.5,15.6,227.5,15.6,226.8,15.6c0.6-0.6,0-1.3,0-1.3C226.8,15,226.2,15,226.8,15.6
	C226.2,15.6,226.8,15.6,226.8,15.6"/>
<path d="M239.8,15.6C240.5,15.6,240.5,15.6,239.8,15.6c0.6-0.6,0-0.6,0-0.6S239.8,15,239.8,15.6L239.8,15.6"/>
<path d="M253.4,15.6L253.4,15.6C253.4,15,253.4,15,253.4,15.6C253.4,15,252.8,15,253.4,15.6C252.8,15.6,253.4,15.6,253.4,15.6"/>
<path d="M266.4,15.6L266.4,15.6C266.4,15,266.4,15,266.4,15.6C266.4,15,266.4,15,266.4,15.6L266.4,15.6"/>
<path d="M280.1,15.6C280.1,15.6,280.1,15,280.1,15.6C280.1,15,280.1,15,280.1,15.6C279.4,15,279.4,15,280.1,15.6
	C279.4,15,279.4,15.6,280.1,15.6"/>
<polyline points="293.1,15 293.1,15 293.1,15 293.1,15 293.1,15 "/>
<path d="M87.8,28.6L87.8,28.6L87.8,28.6L87.8,28.6L87.8,28.6"/>
<path d="M101.4,28.6L101.4,28.6C101.4,28.6,101.4,28,101.4,28.6C100.8,28,100.8,28.6,101.4,28.6C100.8,28.6,100.8,28.6,101.4,28.6"
	/>
<path d="M114.4,28.6C114.4,28.6,115.1,28.6,114.4,28.6c0.6-0.6,0-0.6,0-0.6S113.8,28,114.4,28.6C113.8,28.6,114.4,28.6,114.4,28.6"
	/>
<path d="M127.4,29.3C128.1,29.3,128.1,28.6,127.4,29.3c0.6-0.6,0.6-1.3,0-1.3C127.4,28,126.8,28,127.4,29.3
	C126.8,28.6,127.4,29.3,127.4,29.3"/>
<path d="M141.1,29.3c0.6,0,0.6-0.6,0.6-0.6c0-0.6-0.6-0.6-0.6-0.6c-0.6,0-0.6,0.6-0.6,0.6C139.8,28.6,140.4,29.3,141.1,29.3"/>
<path d="M154.1,29.3c0.6,0,0.6-0.6,0.6-0.6c0-0.6-0.6-0.6-0.6-0.6c-0.6,0-0.6,0.6-0.6,0.6C153.4,29.3,153.4,29.3,154.1,29.3"/>
<path d="M167,29.3c0.6,0,1.3-0.6,1.3-1.3s-0.6-1.3-1.3-1.3c-0.6,0-1.3,0.6-1.3,1.3S166.4,29.3,167,29.3"/>
<path d="M180.7,29.9c0.6,0,1.3-0.6,1.3-1.3c0-0.6-0.6-1.3-1.3-1.3c-0.6,0-1.3,0.6-1.3,1.3C179.4,29.3,180,29.9,180.7,29.9"/>
<path d="M193.7,29.9c0.6,0,1.3-0.6,1.3-1.3c0-0.6-0.6-1.3-1.3-1.3c-0.6,0-1.3,0.6-1.3,1.3C192.4,29.3,193,29.9,193.7,29.9"/>
<path d="M207.3,29.9c0.6,0,1.3-0.6,1.3-1.3c0-0.6-0.6-1.3-1.3-1.3c-0.6,0-1.3,0.6-1.3,1.3C206,29.3,206,29.9,207.3,29.9"/>
<path d="M220.3,29.9c0.6,0,1.3-0.6,1.3-1.3c0-0.6-0.6-1.3-1.3-1.3c-0.6,0-1.3,0.6-1.3,1.3C219,29.3,219.7,29.9,220.3,29.9"/>
<path d="M233.3,29.3c0.6,0,1.3-0.6,1.3-1.3s-0.6-1.3-1.3-1.3c-0.6,0-1.3,0.6-1.3,1.3S232.7,29.3,233.3,29.3"/>
<path d="M247,29.3c0.6,0,0.6-0.6,0.6-0.6c0-0.6-0.6-0.6-0.6-0.6c-0.6,0-0.6,0.6-0.6,0.6C245.7,29.3,246.3,29.3,247,29.3"/>
<path d="M259.9,29.3c0.6,0,0.6-0.6,0.6-0.6c0-0.6-0.6-0.6-0.6-0.6l-0.6,0.6C259.3,28.6,259.3,29.3,259.9,29.3"/>
<path d="M272.9,29.3C273.6,29.3,273.6,28.6,272.9,29.3c0.6-0.6,0.6-1.3,0-1.3C272.9,28,272.3,28,272.9,29.3
	C272.3,28.6,272.9,29.3,272.9,29.3"/>
<path d="M286.6,28.6L286.6,28.6c0.6-0.6,0-0.6,0-0.6C285.9,28,285.9,28,286.6,28.6C285.9,28.6,285.9,28.6,286.6,28.6"/>
<path d="M299.6,28.6C299.6,28.6,300.2,28.6,299.6,28.6C300.2,28.6,299.6,28,299.6,28.6C299.6,28,299.6,28.6,299.6,28.6L299.6,28.6"
	/>
<path d="M312.6,28.6C313.2,28.6,313.2,28.6,312.6,28.6C313.2,28.6,313.2,28.6,312.6,28.6L312.6,28.6L312.6,28.6"/>
<polyline points="54.7,41.6 54.7,41.6 54.7,41.6 54.7,41.6 54.7,41.6 "/>
<path d="M68.3,41.6L68.3,41.6L68.3,41.6C67.6,41.6,67.6,41.6,68.3,41.6C67.6,41.6,67.6,41.6,68.3,41.6"/>
<path d="M81.3,42.3C81.3,42.3,81.3,41.6,81.3,42.3c0.6-0.6,0-0.6,0-0.6C81.3,41.6,80.6,41.6,81.3,42.3
	C80.6,41.6,81.3,42.3,81.3,42.3"/>
<path d="M94.3,42.3C94.9,42.3,94.9,42.3,94.3,42.3c0.6-0.6,0-1.3,0-1.3C94.3,41,94.3,41.6,94.3,42.3L94.3,42.3"/>
<path d="M107.9,42.3c0.6,0,0.6-0.6,0.6-0.6l-0.6-0.6c-0.6,0-0.6,0.6-0.6,0.6S107.3,42.3,107.9,42.3"/>
<path d="M120.9,42.9c0.6,0,1.3-0.6,1.3-1.3c0-0.6-0.6-1.3-1.3-1.3c-0.6,0-1.3,0.6-1.3,1.3C119.6,42.3,120.3,42.9,120.9,42.9"/>
<path d="M133.9,42.9c0.6,0,1.3-0.6,1.3-1.3c0-0.6-0.6-1.3-1.3-1.3c-0.6,0-1.3,0.6-1.3,1.3C132.6,42.3,133.3,42.9,133.9,42.9"/>
<path d="M147.6,43.6c0.6,0,1.3-0.6,1.3-1.3s-0.6-1.3-1.3-1.3c-0.6,0-1.3,0.6-1.3,1.3C145.6,42.3,146.3,43.6,147.6,43.6"/>
<path d="M160.5,43.6c1.3,0,1.9-0.6,1.9-1.9c0-1.3-0.6-1.9-1.9-1.9s-1.9,0.6-1.9,1.9C158.6,42.9,159.9,43.6,160.5,43.6"/>
<path d="M174.2,43.6c1.3,0,1.9-0.6,1.9-1.9c0-1.3-0.6-1.9-1.9-1.9s-1.9,0.6-1.9,1.9C172.2,42.9,172.9,43.6,174.2,43.6"/>
<path d="M187.2,43.6c1.3,0,1.9-0.6,1.9-1.9c0-1.3-0.6-1.9-1.9-1.9c-1.3,0-1.9,0.6-1.9,1.9C185.2,42.9,185.9,43.6,187.2,43.6"/>
<path d="M200.2,43.6c1.3,0,1.9-0.6,1.9-1.9c0-1.3-0.6-1.9-1.9-1.9s-1.9,0.6-1.9,1.9C198.2,42.9,199.5,43.6,200.2,43.6"/>
<path d="M213.8,43.6c1.3,0,1.9-0.6,1.9-1.9c0-1.3-0.6-1.9-1.9-1.9c-1.3,0-1.9,0.6-1.9,1.9C211.9,42.9,212.5,43.6,213.8,43.6"/>
<path d="M226.8,43.6c1.3,0,1.9-0.6,1.9-1.9c0-1.3-0.6-1.9-1.9-1.9s-1.9,0.6-1.9,1.9C224.9,42.9,226.2,43.6,226.8,43.6"/>
<path d="M239.8,43.6c0.6,0,1.9-0.6,1.9-1.9c0-0.6-0.6-1.9-1.9-1.9s-1.9,0.6-1.9,1.9C238.5,42.9,239.2,43.6,239.8,43.6"/>
<path d="M253.4,42.9c0.6,0,1.3-0.6,1.3-1.3c0-0.6-0.6-1.3-1.3-1.3c-0.6,0-1.3,0.6-1.3,1.3C252.1,42.3,252.8,42.9,253.4,42.9"/>
<path d="M266.4,42.9c0.6,0,1.3-0.6,1.3-1.3c0-0.6-0.6-1.3-1.3-1.3c-0.6,0-1.3,0.6-1.3,1.3C265.1,42.3,265.8,42.9,266.4,42.9"/>
<path d="M280.1,42.3c0.6,0,0.6-0.6,0.6-0.6c0-0.6-0.6-0.6-0.6-0.6c-0.6,0-0.6,0.6-0.6,0.6C278.8,42.3,279.4,42.3,280.1,42.3"/>
<path d="M293.1,42.3C293.1,42.3,293.7,42.3,293.1,42.3c0.6-0.6,0.6-1.3,0-1.3C292.4,41,292.4,41.6,293.1,42.3
	C292.4,42.3,292.4,42.3,293.1,42.3"/>
<path d="M306.1,42.3C306.7,42.3,306.7,41.6,306.1,42.3c0.6-0.6,0-0.6,0-0.6C306.1,41.6,306.1,41.6,306.1,42.3
	C306.1,41.6,306.1,42.3,306.1,42.3"/>
<path d="M319.7,41.6L319.7,41.6L319.7,41.6C319.7,41.6,319.1,41.6,319.7,41.6C319.1,41.6,319.7,41.6,319.7,41.6"/>
<polyline points="332.7,41.6 332.7,41.6 332.7,41.6 332.7,41.6 332.7,41.6 "/>
<path d="M61.1,55.3C61.8,55.3,61.8,55.3,61.1,55.3C61.8,54.6,61.8,54.6,61.1,55.3C61.1,54.6,61.1,54.6,61.1,55.3L61.1,55.3"/>
<path d="M74.8,55.3L74.8,55.3c0.6-0.6,0-0.6,0-0.6C74.1,54.6,74.1,54.6,74.8,55.3C74.1,55.3,74.1,55.3,74.8,55.3"/>
<path d="M87.8,55.3C88.4,55.3,88.4,55.3,87.8,55.3c0.6-0.6,0.6-1.3,0-1.3C87.8,54.6,87.1,54.6,87.8,55.3
	C87.1,55.3,87.8,55.3,87.8,55.3"/>
<path d="M101.4,55.9c0.6,0,0.6-0.6,0.6-0.6c0-0.6-0.6-0.6-0.6-0.6c-0.6,0-0.6,0.6-0.6,0.6C100.1,55.3,100.8,55.9,101.4,55.9"/>
<path d="M114.4,56.6c0.6,0,1.3-0.6,1.3-1.3c0-0.6-0.6-1.3-1.3-1.3c-0.6,0-1.3,0.6-1.3,1.3C113.1,55.9,113.8,56.6,114.4,56.6"/>
<path d="M127.4,56.6c0.6,0,1.9-0.6,1.9-1.9c0-0.6-0.6-1.9-1.9-1.9c-0.6,0-1.9,0.6-1.9,1.9C126.1,55.9,126.8,56.6,127.4,56.6"/>
<path d="M141.1,57.2c1.3,0,1.9-0.6,1.9-1.9c0-1.3-0.6-1.9-1.9-1.9s-1.9,0.6-1.9,1.9C139.1,56.6,139.8,57.2,141.1,57.2"/>
<path d="M154.1,57.2c1.3,0,2.6-1.3,2.6-2.6c0-1.3-1.3-2.6-2.6-2.6c-1.3,0-2.6,1.3-2.6,2.6C151.5,55.9,152.8,57.2,154.1,57.2"/>
<path d="M167,57.9c1.3,0,2.6-1.3,2.6-2.6c0-1.3-1.3-2.6-2.6-2.6s-2.6,1.3-2.6,2.6C164.4,56.6,165.7,57.9,167,57.9"/>
<path d="M180.7,57.9c1.3,0,2.6-1.3,2.6-2.6c0-1.3-1.3-2.6-2.6-2.6s-2.6,1.3-2.6,2.6C177.4,56.6,178.7,57.9,180.7,57.9"/>
<path d="M193.7,57.9c1.9,0,3.2-1.3,3.2-3.2s-1.3-3.2-3.2-3.2s-3.2,1.3-3.2,3.2C191.1,56.6,192.4,57.9,193.7,57.9"/>
<path d="M207.3,57.9c1.9,0,3.2-1.3,3.2-3.2s-1.3-3.2-3.2-3.2s-3.2,1.3-3.2,3.2S205.4,57.9,207.3,57.9"/>
<path d="M220.3,57.9c1.3,0,2.6-1.3,2.6-2.6c0-1.3-1.3-2.6-2.6-2.6s-2.6,1.3-2.6,2.6C217.7,56.6,218.4,57.9,220.3,57.9"/>
<path d="M233.3,57.9c1.3,0,2.6-1.3,2.6-2.6c0-1.3-1.3-2.6-2.6-2.6c-1.3,0-2.6,1.3-2.6,2.6C230.7,56.6,232,57.9,233.3,57.9"/>
<path d="M247,57.2c1.3,0,2.6-1.3,2.6-2.6c0-1.3-1.3-2.6-2.6-2.6s-2.6,1.3-2.6,2.6C244.4,56.6,245.7,57.2,247,57.2"/>
<path d="M259.9,57.2c1.3,0,1.9-1.3,1.9-1.9c0-1.3-1.3-1.9-1.9-1.9s-1.9,1.3-1.9,1.9C258,55.9,258.6,57.2,259.9,57.2"/>
<path d="M272.9,56.6c1.3,0,1.9-0.6,1.9-1.9c0-1.3-0.6-1.9-1.9-1.9s-1.9,0.6-1.9,1.9C271,55.9,272.3,56.6,272.9,56.6"/>
<path d="M286.6,56.6c0.6,0,1.3-0.6,1.3-1.3c0-0.6-0.6-1.3-1.3-1.3c-0.6,0-1.3,0.6-1.3,1.3C284.6,55.9,285.3,56.6,286.6,56.6"/>
<path d="M299.6,55.9c0.6,0,1.3-0.6,1.3-1.3c0-0.6-0.6-1.3-1.3-1.3c-0.6,0-1.3,0.6-1.3,1.3C298.3,55.3,298.9,55.9,299.6,55.9"/>
<path d="M312.6,55.9c0.6,0,0.6-0.6,0.6-0.6c0-0.6-0.6-0.6-0.6-0.6c-0.6,0-0.6,0.6-0.6,0.6C311.9,55.3,312.6,55.9,312.6,55.9"/>
<path d="M326.2,55.3C326.2,55.3,326.9,55.3,326.2,55.3c0.6-0.6,0-0.6,0-0.6C325.6,54.6,325.6,54.6,326.2,55.3
	C325.6,55.3,325.6,55.3,326.2,55.3"/>
<path d="M339.2,55.3C339.2,55.3,339.9,55.3,339.2,55.3C339.9,54.6,339.2,54.6,339.2,55.3C339.2,54.6,339.2,54.6,339.2,55.3
	L339.2,55.3"/>
<path d="M352.8,55.3L352.8,55.3C352.8,54.6,352.8,54.6,352.8,55.3C352.8,54.6,352.2,54.6,352.8,55.3
	C352.2,55.3,352.8,55.3,352.8,55.3"/>
<path d="M41.7,68.3L41.7,68.3L41.7,68.3L41.7,68.3L41.7,68.3"/>
<path d="M54.7,68.3C54.7,68.3,55.3,68.3,54.7,68.3C55.3,68.3,54.7,67.6,54.7,68.3C54.7,67.6,54.7,68.3,54.7,68.3L54.7,68.3"/>
<path d="M68.3,68.9C68.3,68.9,68.9,68.3,68.3,68.9c0.6-0.6,0.6-1.3,0-1.3S67.6,67.6,68.3,68.9C67.6,68.3,67.6,68.9,68.3,68.9"/>
<path d="M81.3,68.9c0.6,0,0.6-0.6,0.6-0.6c0-0.6-0.6-0.6-0.6-0.6c-0.6,0-0.6,0.6-0.6,0.6C80.6,68.9,80.6,68.9,81.3,68.9"/>
<path d="M94.3,69.6c0.6,0,1.3-0.6,1.3-1.3S94.9,67,94.3,67S93,67.6,93,68.3S93.6,69.6,94.3,69.6"/>
<path d="M107.9,70.2c1.3,0,1.9-0.6,1.9-1.9s-0.6-1.9-1.9-1.9S106,67,106,68.3S106.6,70.2,107.9,70.2"/>
<path d="M120.9,70.2c1.3,0,2.6-1.3,2.6-2.6c0-1.3-1.3-2.6-2.6-2.6c-1.3,0-2.6,1.3-2.6,2.6C119,69.6,119.6,70.2,120.9,70.2"/>
<path d="M133.9,70.9c1.3,0,2.6-1.3,2.6-2.6s-1.3-2.6-2.6-2.6s-2.6,1.3-2.6,2.6S132.6,70.9,133.9,70.9"/>
<path d="M147.6,71.5c1.9,0,3.2-1.3,3.2-3.2s-1.3-3.2-3.2-3.2s-3.2,1.3-3.2,3.2S145.6,71.5,147.6,71.5"/>
<path d="M160.5,71.5c1.9,0,3.2-1.3,3.2-3.2s-1.3-3.2-3.2-3.2s-3.2,1.3-3.2,3.2S158.6,71.5,160.5,71.5"/>
<path d="M174.2,72.2c1.9,0,3.9-1.9,3.9-3.9s-1.9-3.9-3.9-3.9s-3.9,1.9-3.9,3.9C170.3,70.2,171.6,72.2,174.2,72.2"/>
<path d="M187.2,72.2c1.9,0,3.9-1.9,3.9-3.9s-1.9-3.9-3.9-3.9s-3.9,1.9-3.9,3.9C183.3,70.2,185.2,72.2,187.2,72.2"/>
<path d="M200.2,72.2c1.9,0,3.9-1.9,3.9-3.9s-1.9-3.9-3.9-3.9s-3.9,1.9-3.9,3.9C196.3,70.2,198.2,72.2,200.2,72.2"/>
<path d="M213.8,72.2c1.9,0,3.9-1.9,3.9-3.9s-1.9-3.9-3.9-3.9s-3.9,1.9-3.9,3.9S211.2,72.2,213.8,72.2"/>
<path d="M226.8,72.2c1.9,0,3.9-1.9,3.9-3.9s-1.9-3.9-3.9-3.9s-3.9,1.9-3.9,3.9C222.9,70.2,224.9,72.2,226.8,72.2"/>
<path d="M239.8,71.5c1.9,0,3.2-1.3,3.2-3.2s-1.3-3.2-3.2-3.2s-3.2,1.3-3.2,3.2S237.9,71.5,239.8,71.5"/>
<path d="M253.4,71.5c1.9,0,3.2-1.3,3.2-3.2s-1.3-3.2-3.2-3.2s-3.2,1.3-3.2,3.2S251.5,71.5,253.4,71.5"/>
<path d="M266.4,70.9c1.3,0,2.6-1.3,2.6-2.6s-1.3-2.6-2.6-2.6s-2.6,1.3-2.6,2.6C263.8,69.6,265.1,70.9,266.4,70.9"/>
<path d="M280.1,70.2c1.3,0,1.9-1.3,1.9-1.9c0-1.3-1.3-1.9-1.9-1.9c-1.3,0-1.9,1.3-1.9,1.9C277.5,69.6,278.8,70.2,280.1,70.2"/>
<path d="M293.1,70.2c0.6,0,1.9-0.6,1.9-1.9c0-0.6-0.6-1.9-1.9-1.9c-0.6,0-1.9,0.6-1.9,1.9C291.1,68.9,291.8,70.2,293.1,70.2"/>
<path d="M306.1,69.6c0.6,0,1.3-0.6,1.3-1.3c0-0.6-0.6-1.3-1.3-1.3c-0.6,0-1.3,0.6-1.3,1.3S305.4,69.6,306.1,69.6"/>
<path d="M319.7,68.9c0.6,0,0.6-0.6,0.6-0.6c0-0.6-0.6-0.6-0.6-0.6c-0.6,0-0.6,0.6-0.6,0.6C318.4,68.9,319.1,68.9,319.7,68.9"/>
<path d="M332.7,68.9C332.7,68.9,333.4,68.3,332.7,68.9c0.6-0.6,0-1.3,0-1.3S332.1,67.6,332.7,68.9C332.1,68.3,332.7,68.9,332.7,68.9
	"/>
<path d="M345.7,68.3C346.3,68.3,346.3,68.3,345.7,68.3C346.3,68.3,346.3,67.6,345.7,68.3C345.7,67.6,345.7,68.3,345.7,68.3
	L345.7,68.3"/>
<path d="M359.3,68.3L359.3,68.3L359.3,68.3L359.3,68.3L359.3,68.3"/>
<polyline points="35.2,81.3 35.2,81.3 35.2,81.3 35.2,81.3 35.2,81.3 "/>
<path d="M48.2,81.9C48.2,81.9,48.2,81.3,48.2,81.9C48.2,81.3,48.2,81.3,48.2,81.9C48.2,81.3,48.2,81.3,48.2,81.9
	C48.2,81.3,48.2,81.9,48.2,81.9"/>
<path d="M61.1,81.9C61.8,81.9,61.8,81.9,61.1,81.9c0.6-0.6,0-0.6,0-0.6C61.1,81.3,61.1,81.3,61.1,81.9L61.1,81.9"/>
<path d="M74.8,82.6c0.6,0,0.6-0.6,0.6-0.6c0-0.6-0.6-0.6-0.6-0.6c-0.6,0-0.6,0.6-0.6,0.6C73.5,81.9,74.1,82.6,74.8,82.6"/>
<path d="M87.8,82.6c0.6,0,1.3-0.6,1.3-1.3c0-0.6-0.6-1.3-1.3-1.3s-1.3,0.6-1.3,1.3C86.5,81.9,87.1,82.6,87.8,82.6"/>
<path d="M101.4,83.2c1.3,0,1.9-0.6,1.9-1.9c0-1.3-0.6-1.9-1.9-1.9c-1.3,0-1.9,0.6-1.9,1.9C99.5,82.6,100.1,83.2,101.4,83.2"/>
<path d="M114.4,83.9c1.3,0,2.6-1.3,2.6-2.6c0-1.3-1.3-2.6-2.6-2.6c-1.3,0-2.6,1.3-2.6,2.6C111.8,82.6,113.1,83.9,114.4,83.9"/>
<path d="M127.4,84.5c1.3,0,3.2-1.3,3.2-3.2c0-1.3-1.3-3.2-3.2-3.2c-1.3,0-3.2,1.3-3.2,3.2C124.8,83.2,126.1,84.5,127.4,84.5"/>
<path d="M141.1,85.2c1.9,0,3.2-1.3,3.2-3.2s-1.3-3.2-3.2-3.2s-3.2,1.3-3.2,3.2C137.2,83.2,139.1,85.2,141.1,85.2"/>
<path d="M154.1,85.2c1.9,0,3.9-1.9,3.9-3.9s-1.9-3.9-3.9-3.9s-3.9,1.9-3.9,3.9S152.1,85.2,154.1,85.2"/>
<path d="M167,85.8c2.6,0,4.5-1.9,4.5-4.5c0-2.6-1.9-4.5-4.5-4.5c-2.6,0-4.5,1.9-4.5,4.5C162.5,83.9,165.1,85.8,167,85.8"/>
<path d="M180.7,86.5c2.6,0,5.2-1.9,5.2-5.2c0-3.2-1.9-5.2-5.2-5.2c-2.6,0-5.2,1.9-5.2,5.2C175.5,84.5,178.1,86.5,180.7,86.5"/>
<path d="M193.7,86.5c2.6,0,5.2-2.6,5.2-5.2c0-2.6-2.6-5.2-5.2-5.2c-2.6,0-5.2,2.6-5.2,5.2C188.5,84.5,191.1,86.5,193.7,86.5"/>
<path d="M207.3,86.5c3.2,0,5.2-2.6,5.2-5.2c0-2.6-2.6-5.2-5.2-5.2c-3.2,0-5.2,2.6-5.2,5.2C202.1,83.9,204.1,86.5,207.3,86.5"/>
<path d="M220.3,86.5c2.6,0,5.2-2.6,5.2-5.2c0-2.6-2.6-5.2-5.2-5.2c-2.6,0-5.2,2.6-5.2,5.2C215.1,84.5,217.1,86.5,220.3,86.5"/>
<path d="M233.3,86.5c2.6,0,5.2-1.9,5.2-5.2c0-3.2-1.9-5.2-5.2-5.2c-2.6,0-5.2,1.9-5.2,5.2C228.1,84.5,230.7,86.5,233.3,86.5"/>
<path d="M247,85.8c2.6,0,4.5-1.9,4.5-4.5c0-2.6-1.9-4.5-4.5-4.5s-4.5,1.9-4.5,4.5C242.4,83.9,244.4,85.8,247,85.8"/>
<path d="M259.9,85.8c1.9,0,3.9-1.9,3.9-3.9s-1.9-3.9-3.9-3.9c-2.6,0-3.9,1.9-3.9,3.9S258,85.8,259.9,85.8"/>
<path d="M272.9,85.2c1.9,0,3.2-1.3,3.2-3.2s-1.3-3.2-3.2-3.2s-3.2,1.3-3.2,3.2C269.7,83.2,271,85.2,272.9,85.2"/>
<path d="M286.6,84.5c1.9,0,3.2-1.3,3.2-3.2s-1.3-3.2-3.2-3.2s-3.2,1.3-3.2,3.2S284.6,84.5,286.6,84.5"/>
<path d="M299.6,83.9c1.3,0,2.6-1.3,2.6-2.6c0-1.3-1.3-2.6-2.6-2.6S297,80,297,81.3C297,82.6,298.3,83.9,299.6,83.9"/>
<path d="M312.6,83.2c1.3,0,1.9-0.6,1.9-1.9c0-1.3-0.6-1.9-1.9-1.9s-1.9,0.6-1.9,1.9C310.6,82.6,311.9,83.2,312.6,83.2"/>
<path d="M326.2,82.6c0.6,0,1.3-0.6,1.3-1.3c0-0.6-0.6-1.3-1.3-1.3c-0.6,0-1.3,0.6-1.3,1.3C324.9,81.9,325.6,82.6,326.2,82.6"/>
<path d="M339.2,82.6c0.6,0,0.6-0.6,0.6-0.6c0-0.6-0.6-0.6-0.6-0.6c-0.6,0-0.6,0.6-0.6,0.6S338.6,82.6,339.2,82.6"/>
<path d="M352.8,81.9L352.8,81.9c0.6-0.6,0-0.6,0-0.6C352.2,81.3,352.2,81.3,352.8,81.9C352.2,81.9,352.2,81.9,352.8,81.9"/>
<path d="M365.8,81.9C365.8,81.9,365.8,81.3,365.8,81.9C365.8,81.3,365.8,81.3,365.8,81.9C365.8,81.3,365.8,81.3,365.8,81.9
	C365.8,81.3,365.8,81.9,365.8,81.9"/>
<polyline points="378.8,81.3 378.8,81.3 378.8,81.3 378.8,81.3 378.8,81.3 "/>
<path d="M28,94.9C28.7,94.9,28.7,94.9,28,94.9C28.7,94.9,28.7,94.9,28,94.9L28,94.9L28,94.9"/>
<path d="M41.7,94.9L41.7,94.9C41.7,94.3,41.7,94.3,41.7,94.9C41.7,94.3,41,94.3,41.7,94.9C41,94.9,41.7,94.9,41.7,94.9"/>
<path d="M54.7,95.5C55.3,95.5,55.3,94.9,54.7,95.5c0.6-0.6,0.6-1.3,0-1.3C54.7,94.3,54,94.3,54.7,95.5C54,94.9,54.7,95.5,54.7,95.5"
	/>
<path d="M68.3,95.5c0.6,0,1.3-0.6,1.3-1.3c0-0.6-0.6-1.3-1.3-1.3S67,93.6,67,94.3C67,95.5,67.6,95.5,68.3,95.5"/>
<path d="M81.3,96.2c0.6,0,1.3-0.6,1.3-1.3c0-0.6-0.6-1.3-1.3-1.3c-0.6,0-1.3,0.6-1.3,1.3C80,95.5,80.6,96.2,81.3,96.2"/>
<path d="M94.3,96.8c1.3,0,1.9-0.6,1.9-1.9c0-1.3-0.6-1.9-1.9-1.9c-1.3,0-1.9,0.6-1.9,1.9C92.3,96.2,93.6,96.8,94.3,96.8"/>
<path d="M107.9,97.5c1.3,0,2.6-1.3,2.6-2.6c0-1.3-1.3-2.6-2.6-2.6s-2.6,1.3-2.6,2.6C104.7,96.2,106,97.5,107.9,97.5"/>
<path d="M120.9,98.1c1.9,0,3.2-1.3,3.2-3.2s-1.3-3.2-3.2-3.2s-3.2,1.3-3.2,3.2S119,98.1,120.9,98.1"/>
<path d="M133.9,98.8c2.6,0,3.9-1.9,3.9-3.9c0-2.6-1.9-3.9-3.9-3.9S130,93,130,94.9C130,96.8,132,98.8,133.9,98.8"/>
<path d="M147.6,99.4c2.6,0,5.2-1.9,5.2-5.2c0-2.6-1.9-5.2-5.2-5.2c-2.6,0-5.2,1.9-5.2,5.2C142.4,97.5,145,99.4,147.6,99.4"/>
<path d="M160.5,100.1c3.2,0,5.8-2.6,5.8-5.8c0-3.2-2.6-5.8-5.8-5.8s-5.8,2.6-5.8,5.8C155.3,97.5,157.3,100.1,160.5,100.1"/>
<path d="M174.2,100.7c3.2,0,5.8-2.6,5.8-5.8c0-3.2-2.6-5.8-5.8-5.8s-5.8,2.6-5.8,5.8C167.7,98.1,170.3,100.7,174.2,100.7"/>
<path d="M187.2,101.4c3.9,0,6.5-2.6,6.5-6.5s-2.6-6.5-6.5-6.5s-6.5,2.6-6.5,6.5C180.7,98.1,183.3,101.4,187.2,101.4"/>
<path d="M200.2,101.4c3.9,0,6.5-3.2,6.5-6.5c0-3.9-3.2-6.5-6.5-6.5c-3.9,0-6.5,3.2-6.5,6.5C193.7,98.1,196.9,101.4,200.2,101.4"/>
<path d="M213.8,101.4c3.9,0,6.5-3.2,6.5-6.5c0-3.2-3.2-6.5-6.5-6.5c-3.9,0-6.5,3.2-6.5,6.5C207.3,98.1,209.9,101.4,213.8,101.4"/>
<path d="M226.8,100.7c3.2,0,6.5-2.6,6.5-6.5s-2.6-6.5-6.5-6.5c-3.2,0-6.5,2.6-6.5,6.5S223.6,100.7,226.8,100.7"/>
<path d="M239.8,100.1c3.2,0,5.8-2.6,5.8-5.8c0-3.2-2.6-5.8-5.8-5.8S234,91,234,94.3C234.6,98.1,237.2,100.1,239.8,100.1"/>
<path d="M253.4,100.1c2.6,0,5.2-2.6,5.2-5.2c0-2.6-2.6-5.2-5.2-5.2c-2.6,0-5.2,2.6-5.2,5.2C248.2,97.5,250.2,100.1,253.4,100.1"/>
<path d="M266.4,98.8c2.6,0,4.5-1.9,4.5-4.5c0-2.6-1.9-4.5-4.5-4.5s-4.5,1.9-4.5,4.5C261.9,96.8,263.8,98.8,266.4,98.8"/>
<path d="M280.1,98.1c1.9,0,3.9-1.9,3.9-3.9s-1.9-3.9-3.9-3.9s-3.9,1.9-3.9,3.9C276.2,96.8,277.5,98.1,280.1,98.1"/>
<path d="M293.1,97.5c1.9,0,3.2-1.3,3.2-3.2S295,91,293.1,91s-3.2,1.3-3.2,3.2S291.1,97.5,293.1,97.5"/>
<path d="M306.1,96.8c1.3,0,2.6-1.3,2.6-2.6c0-1.3-1.3-2.6-2.6-2.6s-2.6,1.3-2.6,2.6C304.1,96.2,304.8,96.8,306.1,96.8"/>
<path d="M319.7,96.2c0.6,0,1.9-0.6,1.9-1.9c0-0.6-0.6-1.9-1.9-1.9c-0.6,0-1.9,0.6-1.9,1.9C317.8,95.5,318.4,96.2,319.7,96.2"/>
<path d="M332.7,96.2c0.6,0,1.3-0.6,1.3-1.3c0-0.6-0.6-1.3-1.3-1.3c-0.6,0-1.3,0.6-1.3,1.3C331.4,95.5,332.1,96.2,332.7,96.2"/>
<path d="M345.7,95.5c0.6,0,0.6-0.6,0.6-0.6c0-0.6-0.6-0.6-0.6-0.6c-0.6,0-0.6,0.6-0.6,0.6L345.7,95.5"/>
<path d="M359.3,94.9L359.3,94.9c0.6-0.6,0-0.6,0-0.6C358.7,94.3,358.7,94.3,359.3,94.9C358.7,94.9,358.7,94.9,359.3,94.9"/>
<path d="M372.3,94.9L372.3,94.9C372.3,94.3,372.3,94.3,372.3,94.9C372.3,94.3,372.3,94.3,372.3,94.9L372.3,94.9"/>
<path d="M35.2,107.9L35.2,107.9L35.2,107.9L35.2,107.9L35.2,107.9"/>
<path d="M48.2,108.5C48.2,108.5,48.8,107.9,48.2,108.5c0.6-0.6,0-0.6,0-0.6C48.2,107.2,47.5,107.9,48.2,108.5
	C47.5,107.9,48.2,108.5,48.2,108.5"/>
<path d="M61.1,108.5c0.6,0,0.6-0.6,0.6-0.6c0-0.6-0.6-0.6-0.6-0.6c-0.6,0-0.6,0.6-0.6,0.6C60.5,108.5,61.1,108.5,61.1,108.5"/>
<path d="M74.8,109.2c0.6,0,1.3-0.6,1.3-1.3c0-0.6-0.6-1.3-1.3-1.3s-1.3,0.6-1.3,1.3C73.5,108.5,74.1,109.2,74.8,109.2"/>
<path d="M87.8,109.8c1.3,0,1.9-0.6,1.9-1.9c0-1.3-0.6-1.9-1.9-1.9c-1.3,0-1.9,0.6-1.9,1.9C85.8,109.2,87.1,109.8,87.8,109.8"/>
<path d="M101.4,110.5c1.3,0,2.6-1.3,2.6-2.6c0-1.3-1.3-2.6-2.6-2.6c-1.3,0-2.6,1.3-2.6,2.6C98.8,109.2,99.5,110.5,101.4,110.5"/>
<path d="M114.4,111.1c1.9,0,3.2-1.3,3.2-3.2s-1.3-3.2-3.2-3.2s-3.2,1.3-3.2,3.2S112.5,111.1,114.4,111.1"/>
<path d="M127.4,111.8c1.9,0,3.9-1.9,3.9-3.9s-1.9-3.9-3.9-3.9c-1.9,0-3.9,1.9-3.9,3.9S125.5,111.8,127.4,111.8"/>
<path d="M141.1,112.4c2.6,0,4.5-1.9,4.5-4.5c0-2.6-1.9-4.5-4.5-4.5s-4.5,1.9-4.5,4.5C135.9,110.5,138.5,112.4,141.1,112.4"/>
<path d="M154.1,113.7c3.2,0,5.8-2.6,5.8-5.8c0-3.2-2.6-5.8-5.8-5.8c-3.2,0-5.8,2.6-5.8,5.8C148.2,111.1,150.8,113.7,154.1,113.7"/>
<path d="M167,114.4c3.2,0,6.5-2.6,6.5-6.5c0-3.2-2.6-6.5-6.5-6.5c-3.2,0-6.5,2.6-6.5,6.5C160.5,111.1,163.8,114.4,167,114.4"/>
<path d="M180.7,114.4c3.9,0,7.1-3.2,7.1-7.1s-3.2-7.1-7.1-7.1s-7.1,3.2-7.1,7.1C173.5,111.8,176.8,114.4,180.7,114.4"/>
<path d="M193.7,114.4c3.9,0,7.1-3.2,7.1-7.1s-3.2-7.1-7.1-7.1s-7.1,3.2-7.1,7.1C187.2,111.8,189.8,114.4,193.7,114.4"/>
<path d="M207.3,114.4c3.9,0,7.1-3.2,7.1-7.1s-3.2-7.1-7.1-7.1s-7.1,3.2-7.1,7.1C200.2,111.8,203.4,114.4,207.3,114.4"/>
<path d="M220.3,114.4c3.9,0,7.1-3.2,7.1-7.1s-3.2-7.1-7.1-7.1s-7.1,3.2-7.1,7.1C213.2,111.8,216.4,114.4,220.3,114.4"/>
<path d="M233.3,114.4c3.9,0,7.1-3.2,7.1-7.1s-3.2-7.1-7.1-7.1s-7.1,3.2-7.1,7.1C226.8,111.8,229.4,114.4,233.3,114.4"/>
<path d="M247,114.4c3.9,0,7.1-3.2,7.1-7.1s-3.2-7.1-7.1-7.1s-7.1,3.2-7.1,7.1C239.8,111.8,243.1,114.4,247,114.4"/>
<path d="M259.9,113.7c3.2,0,5.8-2.6,5.8-5.8c0-3.2-2.6-5.8-5.8-5.8s-5.8,2.6-5.8,5.8C254.1,111.1,256.7,113.7,259.9,113.7"/>
<path d="M272.9,113.1c3.2,0,5.2-2.6,5.2-5.2c0-3.2-2.6-5.2-5.2-5.2s-5.2,2.6-5.2,5.2C267.7,111.1,270.3,113.1,272.9,113.1"/>
<path d="M286.6,112.4c2.6,0,4.5-1.9,4.5-4.5c0-2.6-1.9-4.5-4.5-4.5c-2.6,0-4.5,1.9-4.5,4.5C282,110.5,284,112.4,286.6,112.4"/>
<path d="M299.6,111.8c1.9,0,3.9-1.9,3.9-3.9s-1.9-3.9-3.9-3.9s-3.9,1.9-3.9,3.9C295.7,109.8,297.6,111.8,299.6,111.8"/>
<path d="M312.6,110.5c1.3,0,2.6-1.3,2.6-2.6c0-1.3-1.3-2.6-2.6-2.6s-2.6,1.3-2.6,2.6C310,109.2,311.3,110.5,312.6,110.5"/>
<path d="M326.2,109.8c1.3,0,1.9-1.3,1.9-1.9c0-1.3-1.3-1.9-1.9-1.9c-1.3,0-1.9,1.3-1.9,1.9C323.6,109.2,324.9,109.8,326.2,109.8"/>
<path d="M339.2,109.2c0.6,0,1.3-0.6,1.3-1.3c0-0.6-0.6-1.3-1.3-1.3c-0.6,0-1.3,0.6-1.3,1.3C337.9,108.5,338.6,109.2,339.2,109.2"/>
<path d="M352.8,109.2c0.6,0,1.3-0.6,1.3-1.3c0-0.6-0.6-1.3-1.3-1.3c-0.6,0-1.3,0.6-1.3,1.3C351.5,108.5,352.2,109.2,352.8,109.2"/>
<path d="M365.8,108.5C365.8,108.5,366.5,107.9,365.8,108.5c0.6-0.6,0.6-1.3,0-1.3C365.2,107.2,365.2,107.2,365.8,108.5
	C365.2,107.9,365.2,108.5,365.8,108.5"/>
<path d="M378.8,107.9C379.5,107.9,379.5,107.9,378.8,107.9C379.5,107.9,379.5,107.9,378.8,107.9L378.8,107.9L378.8,107.9"/>
<polyline points="392.5,107.9 392.5,107.9 392.5,107.9 392.5,107.9 392.5,107.9 "/>
<path d="M28,121.5C28.7,121.5,28.7,120.9,28,121.5C28.7,120.9,28.7,120.9,28,121.5C28,120.9,28,120.9,28,121.5
	C28,120.9,28,121.5,28,121.5"/>
<path d="M41.7,121.5L41.7,121.5c0.6-0.6,0-0.6,0-0.6S41,120.9,41.7,121.5C41,121.5,41.7,121.5,41.7,121.5"/>
<path d="M54.7,122.2c0.6,0,0.6-0.6,0.6-0.6c0-0.6-0.6-0.6-0.6-0.6c-0.6,0-0.6,0.6-0.6,0.6L54.7,122.2"/>
<path d="M68.3,122.2c0.6,0,1.3-0.6,1.3-1.3c0-0.6-0.6-1.3-1.3-1.3s-1.3,0.6-1.3,1.3C67,121.5,67,122.2,68.3,122.2"/>
<path d="M81.3,122.8c1.3,0,1.9-0.6,1.9-1.9c0-1.3-0.6-1.9-1.9-1.9c-1.3,0-1.9,0.6-1.9,1.9C79.3,122.2,80,122.8,81.3,122.8"/>
<path d="M94.3,123.5c1.3,0,2.6-1.3,2.6-2.6c0-1.3-1.3-2.6-2.6-2.6c-1.3,0-2.6,1.3-2.6,2.6C91.7,122.8,93,123.5,94.3,123.5"/>
<path d="M107.9,124.8c1.9,0,3.2-1.3,3.2-3.2s-1.3-3.2-3.2-3.2s-3.2,1.3-3.2,3.2S106,124.8,107.9,124.8"/>
<path d="M120.9,125.4c2.6,0,4.5-1.9,4.5-4.5c0-2.6-1.9-4.5-4.5-4.5c-2.6,0-4.5,1.9-4.5,4.5C117,123.5,118.3,125.4,120.9,125.4"/>
<path d="M133.9,126.1c2.6,0,5.2-2.6,5.2-5.2c0-2.6-2.6-5.2-5.2-5.2c-2.6,0-5.2,2.6-5.2,5.2C128.7,124.1,131.3,126.1,133.9,126.1"/>
<path d="M147.6,127.4c3.2,0,5.8-2.6,5.8-5.8c0-3.2-2.6-5.8-5.8-5.8s-5.8,2.6-5.8,5.8C141.1,124.8,144.3,127.4,147.6,127.4"/>
<path d="M160.5,128c3.9,0,7.1-3.2,7.1-7.1s-3.2-7.1-7.1-7.1s-7.1,3.2-7.1,7.1C154.1,124.8,156.6,128,160.5,128"/>
<path d="M174.2,128c3.9,0,7.1-3.2,7.1-7.1s-3.2-7.1-7.1-7.1s-7.1,3.2-7.1,7.1C167,124.8,170.3,128,174.2,128"/>
<path d="M187.2,128c3.9,0,7.1-3.2,7.1-7.1s-3.2-7.1-7.1-7.1s-7.1,3.2-7.1,7.1C180,124.8,183.3,128,187.2,128"/>
<path d="M200.2,128c3.9,0,7.1-3.2,7.1-7.1s-3.2-7.1-7.1-7.1s-7.1,3.2-7.1,7.1C193.7,124.8,196.9,128,200.2,128"/>
<path d="M213.8,128c3.9,0,7.1-3.2,7.1-7.1s-3.2-7.1-7.1-7.1s-7.1,3.2-7.1,7.1S209.9,128,213.8,128"/>
<path d="M226.8,128c3.9,0,7.1-3.2,7.1-7.1s-3.2-7.1-7.1-7.1s-7.1,3.2-7.1,7.1C220.3,124.8,222.9,128,226.8,128"/>
<path d="M239.8,128c3.9,0,7.1-3.2,7.1-7.1s-3.2-7.1-7.1-7.1s-7.1,3.2-7.1,7.1C233.3,124.8,236.6,128,239.8,128"/>
<path d="M253.4,128c3.9,0,7.1-3.2,7.1-7.1s-3.2-7.1-7.1-7.1c-3.9,0-7.1,3.2-7.1,7.1S249.5,128,253.4,128"/>
<path d="M266.4,127.4c3.2,0,5.8-2.6,5.8-5.8c0-3.2-2.6-5.8-5.8-5.8s-5.8,2.6-5.8,5.8C260.6,124.8,263.2,127.4,266.4,127.4"/>
<path d="M280.1,126.1c2.6,0,5.2-1.9,5.2-5.2c0-2.6-1.9-5.2-5.2-5.2c-2.6,0-5.2,1.9-5.2,5.2C274.9,124.1,276.8,126.1,280.1,126.1"/>
<path d="M293.1,125.4c2.6,0,3.9-1.9,3.9-3.9c0-2.6-1.9-3.9-3.9-3.9c-2.6,0-3.9,1.9-3.9,3.9C289.2,123.5,290.5,125.4,293.1,125.4"/>
<path d="M306.1,124.1c1.9,0,3.2-1.3,3.2-3.2s-1.3-3.2-3.2-3.2s-3.2,1.3-3.2,3.2S304.1,124.1,306.1,124.1"/>
<path d="M319.7,123.5c1.3,0,2.6-1.3,2.6-2.6c0-1.3-1.3-2.6-2.6-2.6s-2.6,1.3-2.6,2.6C317.1,122.2,318.4,123.5,319.7,123.5"/>
<path d="M332.7,122.8c1.3,0,1.9-0.6,1.9-1.9c0-1.3-0.6-1.9-1.9-1.9c-1.3,0-1.9,0.6-1.9,1.9C330.8,122.2,331.4,122.8,332.7,122.8"/>
<path d="M345.7,122.2c0.6,0,1.3-0.6,1.3-1.3c0-0.6-0.6-1.3-1.3-1.3c-0.6,0-1.3,0.6-1.3,1.3C344.4,121.5,345,122.2,345.7,122.2"/>
<path d="M359.3,121.5c0.6,0,0.6-0.6,0.6-0.6c0-0.6-0.6-0.6-0.6-0.6c-0.6,0-0.6,0.6-0.6,0.6C358.7,121.5,358.7,121.5,359.3,121.5"/>
<path d="M372.3,121.5C372.3,121.5,373,121.5,372.3,121.5c0.6-0.6,0-0.6,0-0.6S372.3,120.9,372.3,121.5L372.3,121.5"/>
<path d="M386,121.5C386,121.5,386,120.9,386,121.5C386,120.9,386,120.9,386,121.5C385.3,120.9,385.3,120.9,386,121.5
	C385.3,120.9,385.3,121.5,386,121.5"/>
<path d="M35.2,134.5L35.2,134.5L35.2,134.5L35.2,134.5L35.2,134.5"/>
<path d="M48.2,134.5C48.2,134.5,48.8,134.5,48.2,134.5c0.6-0.6,0-0.6,0-0.6S47.5,133.9,48.2,134.5C47.5,134.5,48.2,134.5,48.2,134.5
	"/>
<path d="M61.1,135.2c0.6,0,0.6-0.6,0.6-0.6c0-0.6-0.6-0.6-0.6-0.6c-0.6,0-0.6,0.6-0.6,0.6L61.1,135.2"/>
<path d="M74.8,135.8c0.6,0,1.3-0.6,1.3-1.3c0-0.6-0.6-1.3-1.3-1.3s-1.3,0.6-1.3,1.3C73.5,135.2,74.1,135.8,74.8,135.8"/>
<path d="M87.8,136.5c1.3,0,1.9-0.6,1.9-1.9s-0.6-1.9-1.9-1.9c-1.3,0-1.9,0.6-1.9,1.9C85.8,135.2,87.1,136.5,87.8,136.5"/>
<path d="M101.4,137.1c1.3,0,2.6-1.3,2.6-2.6s-1.3-2.6-2.6-2.6c-1.3,0-2.6,1.3-2.6,2.6C98.2,135.8,99.5,137.1,101.4,137.1"/>
<path d="M114.4,137.8c1.9,0,3.2-1.3,3.2-3.2s-1.3-3.2-3.2-3.2s-3.2,1.3-3.2,3.2S112.5,137.8,114.4,137.8"/>
<path d="M127.4,138.4c2.6,0,4.5-1.9,4.5-4.5s-1.9-4.5-4.5-4.5s-4.5,1.9-4.5,4.5S125.5,138.4,127.4,138.4"/>
<path d="M141.1,139.7c3.2,0,5.2-2.6,5.2-5.2s-2.6-5.2-5.2-5.2s-5.2,2.6-5.2,5.2S137.8,139.7,141.1,139.7"/>
<path d="M154.1,141c3.2,0,6.5-2.6,6.5-6.5c0-3.2-2.6-6.5-6.5-6.5c-3.2,0-6.5,2.6-6.5,6.5C147.6,137.8,150.8,141,154.1,141"/>
<path d="M167,141c3.9,0,7.1-3.2,7.1-7.1s-3.2-7.1-7.1-7.1s-7.1,3.2-7.1,7.1C160.5,138.4,163.8,141,167,141"/>
<path d="M180.7,141c3.9,0,7.1-3.2,7.1-7.1s-3.2-7.1-7.1-7.1s-7.1,3.2-7.1,7.1C173.5,138.4,176.8,141,180.7,141"/>
<path d="M193.7,141c3.9,0,7.1-3.2,7.1-7.1s-3.2-7.1-7.1-7.1s-7.1,3.2-7.1,7.1C187.2,138.4,189.8,141,193.7,141"/>
<path d="M207.3,141c3.9,0,7.1-3.2,7.1-7.1s-3.2-7.1-7.1-7.1s-7.1,3.2-7.1,7.1C200.2,138.4,203.4,141,207.3,141"/>
<path d="M220.3,141c3.9,0,7.1-3.2,7.1-7.1s-3.2-7.1-7.1-7.1s-7.1,3.2-7.1,7.1C213.2,138.4,216.4,141,220.3,141"/>
<path d="M233.3,141c3.9,0,7.1-3.2,7.1-7.1s-3.2-7.1-7.1-7.1s-7.1,3.2-7.1,7.1C226.8,138.4,229.4,141,233.3,141"/>
<path d="M247,141c3.9,0,7.1-3.2,7.1-7.1s-3.2-7.1-7.1-7.1s-7.1,3.2-7.1,7.1C239.8,138.4,243.1,141,247,141"/>
<path d="M259.9,141c3.9,0,7.1-3.2,7.1-7.1s-3.2-7.1-7.1-7.1s-7.1,3.2-7.1,7.1C252.8,138.4,256,141,259.9,141"/>
<path d="M272.9,141c3.9,0,6.5-3.2,6.5-6.5c0-3.9-2.6-6.5-6.5-6.5s-6.5,2.6-6.5,6.5C266.4,137.8,269.7,141,272.9,141"/>
<path d="M286.6,139.7c3.2,0,5.2-2.6,5.2-5.2c0-3.2-2.6-5.2-5.2-5.2c-3.2,0-5.2,2.6-5.2,5.2C280.7,137.1,283.3,139.7,286.6,139.7"/>
<path d="M299.6,139.1c2.6,0,4.5-1.9,4.5-4.5c0-2.6-1.9-4.5-4.5-4.5s-4.5,1.9-4.5,4.5C295,137.1,297,139.1,299.6,139.1"/>
<path d="M312.6,137.8c1.9,0,3.9-1.3,3.9-3.9c0-1.9-1.3-3.9-3.9-3.9c-1.9,0-3.9,1.3-3.9,3.9C309.3,136.5,310.6,137.8,312.6,137.8"/>
<path d="M326.2,137.1c1.3,0,2.6-1.3,2.6-2.6s-1.3-2.6-2.6-2.6s-2.6,1.3-2.6,2.6C323.6,135.8,324.9,137.1,326.2,137.1"/>
<path d="M339.2,136.5c1.3,0,1.9-0.6,1.9-1.9s-0.6-1.9-1.9-1.9s-1.9,0.6-1.9,1.9C337.3,135.2,337.9,136.5,339.2,136.5"/>
<path d="M352.8,135.8c0.6,0,1.3-0.6,1.3-1.3c0-0.6-0.6-1.3-1.3-1.3c-0.6,0-1.3,0.6-1.3,1.3C350.9,135.2,351.5,135.8,352.8,135.8"/>
<path d="M365.8,135.2c0.6,0,0.6-0.6,0.6-0.6c0-0.6-0.6-0.6-0.6-0.6c-0.6,0-0.6,0.6-0.6,0.6C365.2,134.5,365.2,135.2,365.8,135.2"/>
<path d="M378.8,134.5C379.5,134.5,379.5,134.5,378.8,134.5c0.6-0.6,0-0.6,0-0.6S378.8,133.9,378.8,134.5L378.8,134.5"/>
<path d="M392.5,134.5L392.5,134.5L392.5,134.5C392.5,134.5,391.8,134.5,392.5,134.5C391.8,134.5,392.5,134.5,392.5,134.5"/>
<path d="M28,147.5C28.7,147.5,28.7,147.5,28,147.5C28.7,147.5,28.7,147.5,28,147.5L28,147.5L28,147.5"/>
<path d="M41.7,148.2C41.7,148.2,41.7,147.5,41.7,148.2c0.6-0.6,0-0.6,0-0.6S41,147.5,41.7,148.2C41,147.5,41.7,148.2,41.7,148.2"/>
<path d="M54.7,148.2c0.6,0,0.6-0.6,0.6-0.6c0-0.6-0.6-0.6-0.6-0.6c-0.6,0-0.6,0.6-0.6,0.6C54,148.2,54.7,148.2,54.7,148.2"/>
<path d="M68.3,148.8c0.6,0,1.3-0.6,1.3-1.3s-0.6-1.3-1.3-1.3s-1.3,0.6-1.3,1.3S67.6,148.8,68.3,148.8"/>
<path d="M81.3,149.5c1.3,0,1.9-0.6,1.9-1.9s-0.6-1.9-1.9-1.9c-1.3,0-1.9,0.6-1.9,1.9S80,149.5,81.3,149.5"/>
<path d="M94.3,150.1c1.3,0,2.6-1.3,2.6-2.6s-1.3-2.6-2.6-2.6c-1.3,0-2.6,1.3-2.6,2.6S93,150.1,94.3,150.1"/>
<path d="M107.9,150.8c1.9,0,3.2-1.3,3.2-3.2s-1.3-3.2-3.2-3.2s-3.2,1.3-3.2,3.2S106,150.8,107.9,150.8"/>
<path d="M120.9,152.1c2.6,0,3.9-1.9,3.9-3.9s-1.9-3.9-3.9-3.9c-2.6,0-3.9,1.9-3.9,3.9S119,152.1,120.9,152.1"/>
<path d="M133.9,152.7c2.6,0,5.2-2.6,5.2-5.2c0-2.6-2.6-5.2-5.2-5.2c-2.6,0-5.2,2.6-5.2,5.2C129.4,150.1,131.3,152.7,133.9,152.7"/>
<path d="M147.6,154c3.2,0,5.8-2.6,5.8-5.8s-2.6-5.8-5.8-5.8s-5.8,2.6-5.8,5.8C141.1,150.8,144.3,154,147.6,154"/>
<path d="M160.5,154.7c3.9,0,7.1-3.2,7.1-7.1s-3.2-7.1-7.1-7.1s-7.1,3.2-7.1,7.1C154.1,151.4,156.6,154.7,160.5,154.7"/>
<path d="M174.2,154.7c3.9,0,7.1-3.2,7.1-7.1s-3.2-7.1-7.1-7.1s-7.1,3.2-7.1,7.1C167,151.4,170.3,154.7,174.2,154.7"/>
<path d="M187.2,154.7c3.9,0,7.1-3.2,7.1-7.1s-3.2-7.1-7.1-7.1s-7.1,3.2-7.1,7.1C180,151.4,183.3,154.7,187.2,154.7"/>
<path d="M200.2,154.7c3.9,0,7.1-3.2,7.1-7.1s-3.2-7.1-7.1-7.1s-7.1,3.2-7.1,7.1C193.7,151.4,196.9,154.7,200.2,154.7"/>
<path d="M213.8,154.7c3.9,0,7.1-3.2,7.1-7.1s-3.2-7.1-7.1-7.1s-7.1,3.2-7.1,7.1S209.9,154.7,213.8,154.7"/>
<path d="M226.8,154.7c3.9,0,7.1-3.2,7.1-7.1s-3.2-7.1-7.1-7.1s-7.1,3.2-7.1,7.1C220.3,151.4,222.9,154.7,226.8,154.7"/>
<path d="M239.8,154.7c3.9,0,7.1-3.2,7.1-7.1s-3.2-7.1-7.1-7.1s-7.1,3.2-7.1,7.1C233.3,151.4,236.6,154.7,239.8,154.7"/>
<path d="M253.4,154.7c3.9,0,7.1-3.2,7.1-7.1s-3.2-7.1-7.1-7.1c-3.9,0-7.1,3.2-7.1,7.1S249.5,154.7,253.4,154.7"/>
<path d="M266.4,154c3.9,0,6.5-3.2,6.5-6.5c0-3.9-3.2-6.5-6.5-6.5c-3.9,0-6.5,3.2-6.5,6.5C259.9,151.4,263.2,154,266.4,154"/>
<path d="M280.1,153.4c3.2,0,5.8-2.6,5.8-5.8s-2.6-5.8-5.8-5.8s-5.8,2.6-5.8,5.8S276.8,153.4,280.1,153.4"/>
<path d="M293.1,152.1c2.6,0,4.5-1.9,4.5-4.5s-1.9-4.5-4.5-4.5s-4.5,1.9-4.5,4.5S290.5,152.1,293.1,152.1"/>
<path d="M306.1,151.4c1.9,0,3.9-1.9,3.9-3.9s-1.9-3.9-3.9-3.9s-3.9,1.9-3.9,3.9C302.8,149.5,304.1,151.4,306.1,151.4"/>
<path d="M319.7,150.8c1.3,0,2.6-1.3,2.6-2.6s-1.3-2.6-2.6-2.6s-2.6,1.3-2.6,2.6S317.8,150.8,319.7,150.8"/>
<path d="M332.7,149.5c1.3,0,1.9-0.6,1.9-1.9s-0.6-1.9-1.9-1.9c-1.3,0-1.9,0.6-1.9,1.9S331.4,149.5,332.7,149.5"/>
<path d="M345.7,148.8c0.6,0,1.3-0.6,1.3-1.3c0-0.6-0.6-1.3-1.3-1.3c-0.6,0-1.3,0.6-1.3,1.3C344.4,148.2,345,148.8,345.7,148.8"/>
<path d="M359.3,148.8c0.6,0,0.6-0.6,0.6-0.6c0-0.6-0.6-0.6-0.6-0.6c-0.6,0-0.6,0.6-0.6,0.6C358,148.2,358.7,148.8,359.3,148.8"/>
<path d="M372.3,148.2C373,148.2,373,148.2,372.3,148.2c0.6-0.6,0-1.3,0-1.3S371.7,147.5,372.3,148.2
	C371.7,148.2,372.3,148.2,372.3,148.2"/>
<path d="M386,147.5L386,147.5L386,147.5C385.3,147.5,385.3,147.5,386,147.5C385.3,147.5,385.3,147.5,386,147.5"/>
<polyline points="35.2,161.2 35.2,160.5 35.2,160.5 35.2,160.5 35.2,161.2 "/>
<path d="M48.2,161.2L48.2,161.2C48.2,160.5,48.2,160.5,48.2,161.2C48.2,160.5,48.2,160.5,48.2,161.2L48.2,161.2"/>
<path d="M61.1,161.2C61.8,161.2,61.8,161.2,61.1,161.2c0.6-0.6,0.6-1.3,0-1.3C61.1,160.5,60.5,160.5,61.1,161.2
	C60.5,161.2,61.1,161.2,61.1,161.2"/>
<path d="M74.8,161.8c0.6,0,1.3-0.6,1.3-1.3c0-0.6-0.6-1.3-1.3-1.3s-1.3,0.6-1.3,1.3C73.5,161.2,74.1,161.8,74.8,161.8"/>
<path d="M87.8,162.5c0.6,0,1.9-0.6,1.9-1.9c0-0.6-0.6-1.9-1.9-1.9c-0.6,0-1.9,0.6-1.9,1.9C86.5,161.8,87.1,162.5,87.8,162.5"/>
<path d="M101.4,163.1c1.3,0,2.6-1.3,2.6-2.6c0-1.3-1.3-2.6-2.6-2.6c-1.3,0-2.6,1.3-2.6,2.6C98.8,161.8,100.1,163.1,101.4,163.1"/>
<path d="M114.4,163.8c1.9,0,3.2-1.3,3.2-3.2s-1.3-3.2-3.2-3.2s-3.2,1.3-3.2,3.2S112.5,163.8,114.4,163.8"/>
<path d="M127.4,164.4c1.9,0,3.9-1.9,3.9-3.9s-1.9-3.9-3.9-3.9c-1.9,0-3.9,1.9-3.9,3.9C123.5,163.1,125.5,164.4,127.4,164.4"/>
<path d="M141.1,165.7c2.6,0,4.5-1.9,4.5-4.5c0-2.6-1.9-4.5-4.5-4.5s-4.5,1.9-4.5,4.5C136.5,163.8,138.5,165.7,141.1,165.7"/>
<path d="M154.1,166.4c3.2,0,5.8-2.6,5.8-5.8c0-3.2-2.6-5.8-5.8-5.8c-3.2,0-5.8,2.6-5.8,5.8C148.2,163.8,150.8,166.4,154.1,166.4"/>
<path d="M167,167.7c3.9,0,6.5-3.2,6.5-6.5c0-3.9-3.2-6.5-6.5-6.5c-3.9,0-6.5,3.2-6.5,6.5C160.5,164.4,163.8,167.7,167,167.7"/>
<path d="M180.7,167.7c3.9,0,7.1-3.2,7.1-7.1s-3.2-7.1-7.1-7.1s-7.1,3.2-7.1,7.1S176.8,167.7,180.7,167.7"/>
<path d="M193.7,167.7c3.9,0,7.1-3.2,7.1-7.1s-3.2-7.1-7.1-7.1s-7.1,3.2-7.1,7.1S189.8,167.7,193.7,167.7"/>
<path d="M207.3,167.7c3.9,0,7.1-3.2,7.1-7.1s-3.2-7.1-7.1-7.1s-7.1,3.2-7.1,7.1S203.4,167.7,207.3,167.7"/>
<path d="M220.3,167.7c3.9,0,7.1-3.2,7.1-7.1s-3.2-7.1-7.1-7.1s-7.1,3.2-7.1,7.1S216.4,167.7,220.3,167.7"/>
<path d="M233.3,167.7c3.9,0,7.1-3.2,7.1-7.1s-3.2-7.1-7.1-7.1s-7.1,3.2-7.1,7.1S229.4,167.7,233.3,167.7"/>
<path d="M247,167.7c3.9,0,7.1-3.2,7.1-7.1s-3.2-7.1-7.1-7.1s-7.1,3.2-7.1,7.1S243.1,167.7,247,167.7"/>
<path d="M259.9,167.7c3.9,0,7.1-3.2,7.1-7.1s-3.2-7.1-7.1-7.1s-7.1,3.2-7.1,7.1S256,167.7,259.9,167.7"/>
<path d="M272.9,167c3.2,0,6.5-2.6,6.5-6.5c0-3.2-2.6-6.5-6.5-6.5c-3.2,0-6.5,2.6-6.5,6.5C267.1,164.4,269.7,167,272.9,167"/>
<path d="M286.6,166.4c3.2,0,5.2-2.6,5.2-5.2c0-3.2-2.6-5.2-5.2-5.2c-3.2,0-5.2,2.6-5.2,5.2C280.7,163.8,283.3,166.4,286.6,166.4"/>
<path d="M299.6,165.1c2.6,0,4.5-1.9,4.5-4.5c0-2.6-1.9-4.5-4.5-4.5s-4.5,1.9-4.5,4.5C295,163.1,297,165.1,299.6,165.1"/>
<path d="M312.6,164.4c1.9,0,3.9-1.3,3.9-3.9c0-1.9-1.3-3.9-3.9-3.9c-1.9,0-3.9,1.3-3.9,3.9C309.3,163.1,310.6,164.4,312.6,164.4"/>
<path d="M326.2,163.8c1.3,0,2.6-1.3,2.6-2.6c0-1.3-1.3-2.6-2.6-2.6s-2.6,1.3-2.6,2.6C323.6,162.5,324.3,163.8,326.2,163.8"/>
<path d="M339.2,163.1c1.3,0,1.9-0.6,1.9-1.9s-0.6-1.9-1.9-1.9s-1.9,0.6-1.9,1.9S337.9,163.1,339.2,163.1"/>
<path d="M352.8,162.5c0.6,0,1.3-0.6,1.3-1.3c0-0.6-0.6-1.3-1.3-1.3c-0.6,0-1.3,0.6-1.3,1.3C350.9,161.8,351.5,162.5,352.8,162.5"/>
<path d="M365.8,161.8c0.6,0,0.6-0.6,0.6-0.6c0-0.6-0.6-0.6-0.6-0.6c-0.6,0-0.6,0.6-0.6,0.6C365.2,161.2,365.2,161.8,365.8,161.8"/>
<path d="M378.8,161.2C379.5,161.2,379.5,161.2,378.8,161.2c0.6-0.6,0-0.6,0-0.6S378.8,160.5,378.8,161.2L378.8,161.2"/>
<path d="M392.5,161.2L392.5,161.2C392.5,160.5,392.5,160.5,392.5,161.2C392.5,160.5,391.8,160.5,392.5,161.2
	C391.8,161.2,392.5,161.2,392.5,161.2"/>
<path d="M41.7,174.2L41.7,174.2L41.7,174.2L41.7,174.2L41.7,174.2"/>
<path d="M54.7,174.8C55.3,174.8,55.3,174.2,54.7,174.8c0.6-0.6,0-0.6,0-0.6C54.7,173.5,54.7,173.5,54.7,174.8
	C54.7,174.2,54.7,174.8,54.7,174.8"/>
<path d="M68.3,174.8c0.6,0,0.6-0.6,0.6-0.6l-0.6-0.6c-0.6,0-0.6,0.6-0.6,0.6S67.6,174.8,68.3,174.8"/>
<path d="M81.3,175.5c0.6,0,1.3-0.6,1.3-1.3c0-0.6-0.6-1.3-1.3-1.3c-0.6,0-1.3,0.6-1.3,1.3S80.6,175.5,81.3,175.5"/>
<path d="M94.3,176.1c1.3,0,1.9-0.6,1.9-1.9c0-1.3-0.6-1.9-1.9-1.9c-1.3,0-1.9,0.6-1.9,1.9C92.3,175.5,93.6,176.1,94.3,176.1"/>
<path d="M107.9,176.8c1.3,0,2.6-1.3,2.6-2.6s-1.3-2.6-2.6-2.6s-2.6,1.3-2.6,2.6S106.6,176.8,107.9,176.8"/>
<path d="M120.9,177.4c1.9,0,3.2-1.3,3.2-3.2s-1.3-3.2-3.2-3.2s-3.2,1.3-3.2,3.2C117.7,176.1,119,177.4,120.9,177.4"/>
<path d="M133.9,178.1c1.9,0,3.9-1.9,3.9-3.9s-1.9-3.9-3.9-3.9c-2.6,0-3.9,1.9-3.9,3.9C130,176.1,132,178.1,133.9,178.1"/>
<path d="M147.6,178.7c2.6,0,5.2-1.9,5.2-5.2c0-2.6-1.9-5.2-5.2-5.2c-2.6,0-5.2,1.9-5.2,5.2S145,178.7,147.6,178.7"/>
<path d="M160.5,180c3.2,0,5.8-2.6,5.8-5.8s-2.6-5.8-5.8-5.8s-5.8,2.6-5.8,5.8S157.3,180,160.5,180"/>
<path d="M174.2,180.7c3.9,0,6.5-2.6,6.5-6.5s-2.6-6.5-6.5-6.5s-6.5,2.6-6.5,6.5C167.7,177.4,170.3,180.7,174.2,180.7"/>
<path d="M187.2,180.7c3.9,0,7.1-3.2,7.1-7.1s-3.2-7.1-7.1-7.1s-7.1,3.2-7.1,7.1C180,178.1,183.3,180.7,187.2,180.7"/>
<path d="M200.2,180.7c3.9,0,7.1-3.2,7.1-7.1s-3.2-7.1-7.1-7.1s-7.1,3.2-7.1,7.1C193.7,178.1,196.9,180.7,200.2,180.7"/>
<path d="M213.8,180.7c3.9,0,7.1-3.2,7.1-7.1s-3.2-7.1-7.1-7.1s-7.1,3.2-7.1,7.1C206.7,178.1,209.9,180.7,213.8,180.7"/>
<path d="M226.8,180.7c3.9,0,7.1-3.2,7.1-7.1s-3.2-7.1-7.1-7.1s-7.1,3.2-7.1,7.1C220.3,178.1,222.9,180.7,226.8,180.7"/>
<path d="M239.8,180.7c3.9,0,7.1-3.2,7.1-7.1s-3.2-7.1-7.1-7.1s-7.1,3.2-7.1,7.1C233.3,178.1,236.6,180.7,239.8,180.7"/>
<path d="M253.4,180.7c3.9,0,6.5-2.6,6.5-6.5s-2.6-6.5-6.5-6.5c-3.9,0-6.5,2.6-6.5,6.5C247,177.4,249.5,180.7,253.4,180.7"/>
<path d="M266.4,180c3.2,0,5.8-2.6,5.8-5.8s-2.6-5.8-5.8-5.8s-5.8,2.6-5.8,5.8C260.6,177.4,263.2,180,266.4,180"/>
<path d="M280.1,178.7c2.6,0,5.2-1.9,5.2-5.2c0-2.6-1.9-5.2-5.2-5.2c-2.6,0-5.2,1.9-5.2,5.2S276.8,178.7,280.1,178.7"/>
<path d="M293.1,178.1c1.9,0,3.9-1.9,3.9-3.9s-1.9-3.9-3.9-3.9s-3.9,1.9-3.9,3.9C289.2,176.1,290.5,178.1,293.1,178.1"/>
<path d="M306.1,177.4c1.9,0,3.2-1.3,3.2-3.2s-1.3-3.2-3.2-3.2s-3.2,1.3-3.2,3.2C302.8,176.1,304.1,177.4,306.1,177.4"/>
<path d="M319.7,176.8c1.3,0,2.6-1.3,2.6-2.6s-1.3-2.6-2.6-2.6s-2.6,1.3-2.6,2.6C317.1,175.5,317.8,176.8,319.7,176.8"/>
<path d="M332.7,176.1c1.3,0,1.9-0.6,1.9-1.9c0-1.3-0.6-1.9-1.9-1.9c-1.3,0-1.9,0.6-1.9,1.9C330.8,174.8,331.4,176.1,332.7,176.1"/>
<path d="M345.7,175.5c0.6,0,1.3-0.6,1.3-1.3c0-0.6-0.6-1.3-1.3-1.3c-0.6,0-1.3,0.6-1.3,1.3S345,175.5,345.7,175.5"/>
<path d="M359.3,174.8c0.6,0,0.6-0.6,0.6-0.6l-0.6-0.6c-0.6,0-0.6,0.6-0.6,0.6S358.7,174.8,359.3,174.8"/>
<path d="M372.3,174.8C373,174.8,373,174.2,372.3,174.8c0.6-0.6,0-0.6,0-0.6C372.3,173.5,371.7,173.5,372.3,174.8
	C371.7,174.2,372.3,174.8,372.3,174.8"/>
<path d="M386,174.2L386,174.2L386,174.2C385.3,174.2,385.3,174.2,386,174.2C385.3,174.2,385.3,174.2,386,174.2"/>
<path d="M48.2,187.2L48.2,187.2L48.2,187.2L48.2,187.2L48.2,187.2"/>
<path d="M61.1,187.8C61.8,187.8,61.8,187.2,61.1,187.8C61.8,187.2,61.8,187.2,61.1,187.8C61.1,187.2,61.1,187.2,61.1,187.8
	C61.1,187.2,61.1,187.8,61.1,187.8"/>
<path d="M74.8,187.8C74.8,187.8,75.4,187.8,74.8,187.8c0.6-0.6,0.6-1.3,0-1.3S74.1,187.2,74.8,187.8
	C74.1,187.8,74.1,187.8,74.8,187.8"/>
<path d="M87.8,188.5c0.6,0,1.3-0.6,1.3-1.3c0-0.6-0.6-1.3-1.3-1.3s-1.3,0.6-1.3,1.3C86.5,187.8,87.1,188.5,87.8,188.5"/>
<path d="M101.4,189.1c0.6,0,1.3-0.6,1.3-1.3c0-0.6-0.6-1.3-1.3-1.3c-0.6,0-1.3,0.6-1.3,1.3C99.5,188.5,100.1,189.1,101.4,189.1"/>
<path d="M114.4,189.1c1.3,0,1.9-0.6,1.9-1.9s-0.6-1.9-1.9-1.9c-1.3,0-1.9,0.6-1.9,1.9C112.5,188.5,113.1,189.1,114.4,189.1"/>
<path d="M127.4,189.7c1.3,0,2.6-1.3,2.6-2.6c0-1.3-1.3-2.6-2.6-2.6c-1.3,0-2.6,1.3-2.6,2.6C124.8,189.1,126.1,189.7,127.4,189.7"/>
<path d="M141.1,190.4c1.9,0,3.2-1.3,3.2-3.2s-1.3-3.2-3.2-3.2s-3.2,1.3-3.2,3.2C137.2,189.1,139.1,190.4,141.1,190.4"/>
<path d="M154.1,191c1.9,0,3.9-1.9,3.9-3.9s-1.9-3.9-3.9-3.9s-3.9,1.9-3.9,3.9C150.2,189.7,152.1,191,154.1,191"/>
<path d="M167,192.3c2.6,0,4.5-1.9,4.5-4.5s-1.9-4.5-4.5-4.5c-2.6,0-4.5,1.9-4.5,4.5C162.5,189.7,164.4,192.3,167,192.3"/>
<path d="M180.7,192.3c3.2,0,5.2-2.6,5.2-5.2c0-3.2-2.6-5.2-5.2-5.2c-3.2,0-5.2,2.6-5.2,5.2C175.5,190.4,177.4,192.3,180.7,192.3"/>
<path d="M193.7,193c3.2,0,5.8-2.6,5.8-5.8c0-3.2-2.6-5.8-5.8-5.8s-5.8,2.6-5.8,5.8C187.8,190.4,190.4,193,193.7,193"/>
<path d="M207.3,193.6c3.2,0,6.5-2.6,6.5-6.5c0-3.2-2.6-6.5-6.5-6.5c-3.2,0-6.5,2.6-6.5,6.5C200.8,190.4,203.4,193.6,207.3,193.6"/>
<path d="M220.3,193.6c3.2,0,6.5-2.6,6.5-6.5c0-3.2-2.6-6.5-6.5-6.5c-3.2,0-6.5,2.6-6.5,6.5C213.8,191,216.4,193.6,220.3,193.6"/>
<path d="M233.3,193.6c3.2,0,6.5-2.6,6.5-6.5c0-3.2-2.6-6.5-6.5-6.5c-3.2,0-6.5,2.6-6.5,6.5C227.5,191,230.1,193.6,233.3,193.6"/>
<path d="M247,193c3.2,0,5.8-2.6,5.8-5.8c0-3.2-2.6-5.8-5.8-5.8s-5.8,2.6-5.8,5.8C241.1,190.4,243.7,193,247,193"/>
<path d="M259.9,193c3.2,0,5.2-2.6,5.2-5.2c0-3.2-2.6-5.2-5.2-5.2s-5.2,2.6-5.2,5.2S256.7,193,259.9,193"/>
<path d="M272.9,192.3c2.6,0,5.2-1.9,5.2-5.2c0-2.6-1.9-5.2-5.2-5.2c-2.6,0-5.2,1.9-5.2,5.2C268.4,189.7,270.3,192.3,272.9,192.3"/>
<path d="M286.6,191.7c2.6,0,3.9-1.9,3.9-3.9c0-2.6-1.9-3.9-3.9-3.9c-2.6,0-3.9,1.9-3.9,3.9C282,189.7,284,191.7,286.6,191.7"/>
<path d="M299.6,191c1.9,0,3.2-1.3,3.2-3.2s-1.3-3.2-3.2-3.2s-3.2,1.3-3.2,3.2S297.6,191,299.6,191"/>
<path d="M312.6,190.4c1.3,0,2.6-1.3,2.6-2.6c0-1.3-1.3-2.6-2.6-2.6s-2.6,1.3-2.6,2.6C310,189.1,311.3,190.4,312.6,190.4"/>
<path d="M326.2,189.7c1.3,0,2.6-1.3,2.6-2.6c0-1.3-1.3-2.6-2.6-2.6s-2.6,1.3-2.6,2.6C323.6,188.5,324.9,189.7,326.2,189.7"/>
<path d="M339.2,189.1c0.6,0,1.9-0.6,1.9-1.9c0-0.6-0.6-1.9-1.9-1.9c-0.6,0-1.9,0.6-1.9,1.9C337.9,188.5,338.6,189.1,339.2,189.1"/>
<path d="M352.8,188.5c0.6,0,1.3-0.6,1.3-1.3c0-0.6-0.6-1.3-1.3-1.3c-0.6,0-1.3,0.6-1.3,1.3C351.5,187.8,352.2,188.5,352.8,188.5"/>
<path d="M365.8,187.8c0.6,0,0.6,0,0.6-0.6s0-0.6-0.6-0.6c-0.6,0-0.6,0-0.6,0.6C365.2,187.8,365.2,187.8,365.8,187.8"/>
<path d="M378.8,187.8C379.5,187.8,379.5,187.2,378.8,187.8c0.6-0.6,0-0.6,0-0.6C378.8,187.2,378.8,187.2,378.8,187.8
	C378.8,187.2,378.8,187.8,378.8,187.8"/>
<path d="M392.5,187.2L392.5,187.2L392.5,187.2L392.5,187.2L392.5,187.2"/>
<path d="M54.7,200.8L54.7,200.8C54.7,200.1,54.7,200.1,54.7,200.8C54.7,200.1,54.7,200.1,54.7,200.8L54.7,200.8"/>
<path d="M68.3,200.8L68.3,200.8c0.6-0.6,0-0.6,0-0.6C67.6,200.1,67.6,200.1,68.3,200.8C67.6,200.8,67.6,200.8,68.3,200.8"/>
<path d="M81.3,201.4c0.6,0,0.6,0,0.6-0.6c0-0.6,0-0.6-0.6-0.6c-0.6,0-0.6,0-0.6,0.6C80.6,200.8,80.6,201.4,81.3,201.4"/>
<path d="M94.3,201.4c0.6,0,1.3-0.6,1.3-1.3c0-0.6-0.6-1.3-1.3-1.3s-1.3,0.6-1.3,1.3C93.6,201.4,93.6,201.4,94.3,201.4"/>
<path d="M107.9,202.1c0.6,0,1.3-0.6,1.3-1.3c0-0.6-0.6-1.3-1.3-1.3c-0.6,0-1.3,0.6-1.3,1.3C106,201.4,106.6,202.1,107.9,202.1"/>
<path d="M120.9,202.7c1.3,0,1.9-0.6,1.9-1.9c0-1.3-0.6-1.9-1.9-1.9c-1.3,0-1.9,0.6-1.9,1.9C119,202.1,119.6,202.7,120.9,202.7"/>
<path d="M133.9,203.4c1.3,0,2.6-1.3,2.6-2.6s-1.3-2.6-2.6-2.6s-2.6,1.3-2.6,2.6C131.3,202.1,132.6,203.4,133.9,203.4"/>
<path d="M147.6,204c1.9,0,3.2-1.3,3.2-3.2s-1.3-3.2-3.2-3.2s-3.2,1.3-3.2,3.2C144.3,202.1,145.6,204,147.6,204"/>
<path d="M160.5,204c1.9,0,3.9-1.9,3.9-3.9s-1.9-3.9-3.9-3.9s-3.9,1.9-3.9,3.9C156.6,202.7,158.6,204,160.5,204"/>
<path d="M174.2,204.7c2.6,0,3.9-1.9,3.9-3.9c0-2.6-1.9-3.9-3.9-3.9c-2.6,0-3.9,1.9-3.9,3.9C169.6,202.7,171.6,204.7,174.2,204.7"/>
<path d="M187.2,205.3c2.6,0,4.5-1.9,4.5-4.5c0-2.6-1.9-4.5-4.5-4.5c-2.6,0-4.5,1.9-4.5,4.5C182.6,203.4,184.6,205.3,187.2,205.3"/>
<path d="M200.2,205.3c2.6,0,5.2-1.9,5.2-5.2c0-2.6-1.9-5.2-5.2-5.2c-2.6,0-5.2,1.9-5.2,5.2C195.6,203.4,197.6,205.3,200.2,205.3"/>
<path d="M213.8,205.3c2.6,0,5.2-1.9,5.2-5.2s-1.9-5.2-5.2-5.2c-2.6,0-5.2,1.9-5.2,5.2S210.6,205.3,213.8,205.3"/>
<path d="M226.8,205.3c2.6,0,5.2-1.9,5.2-5.2c0-2.6-1.9-5.2-5.2-5.2c-2.6,0-5.2,1.9-5.2,5.2C221.6,203.4,224.2,205.3,226.8,205.3"/>
<path d="M239.8,205.3c2.6,0,4.5-1.9,4.5-4.5c0-2.6-1.9-4.5-4.5-4.5c-2.6,0-4.5,1.9-4.5,4.5C235.3,203.4,237.2,205.3,239.8,205.3"/>
<path d="M253.4,204.7c2.6,0,4.5-1.9,4.5-4.5c0-2.6-1.9-4.5-4.5-4.5c-2.6,0-4.5,1.9-4.5,4.5C248.9,202.7,250.8,204.7,253.4,204.7"/>
<path d="M266.4,204.7c1.9,0,3.9-1.9,3.9-3.9s-1.9-3.9-3.9-3.9s-3.9,1.9-3.9,3.9S264.5,204.7,266.4,204.7"/>
<path d="M280.1,204c1.9,0,3.2-1.3,3.2-3.2s-1.3-3.2-3.2-3.2s-3.2,1.3-3.2,3.2C276.2,202.7,278.1,204,280.1,204"/>
<path d="M293.1,203.4c1.3,0,3.2-1.3,3.2-3.2c0-1.3-1.3-3.2-3.2-3.2c-1.3,0-3.2,1.3-3.2,3.2C289.8,202.1,291.1,203.4,293.1,203.4"/>
<path d="M306.1,202.7c1.3,0,2.6-1.3,2.6-2.6s-1.3-2.6-2.6-2.6s-2.6,1.3-2.6,2.6C304.1,202.1,304.8,202.7,306.1,202.7"/>
<path d="M319.7,202.1c1.3,0,1.9-0.6,1.9-1.9s-0.6-1.9-1.9-1.9s-1.9,0.6-1.9,1.9S318.4,202.1,319.7,202.1"/>
<path d="M332.7,202.1c0.6,0,1.3-0.6,1.3-1.3c0-0.6-0.6-1.3-1.3-1.3c-0.6,0-1.3,0.6-1.3,1.3C331.4,201.4,332.1,202.1,332.7,202.1"/>
<path d="M345.7,201.4c0.6,0,0.6-0.6,0.6-0.6c0-0.6-0.6-0.6-0.6-0.6c-0.6,0-0.6,0.6-0.6,0.6L345.7,201.4"/>
<path d="M359.3,200.8C359.3,200.8,360,200.8,359.3,200.8c0.6-0.6,0-1.3,0-1.3C358.7,200.1,358.7,200.1,359.3,200.8
	C358.7,200.8,358.7,200.8,359.3,200.8"/>
<path d="M372.3,200.8C372.3,200.8,373,200.8,372.3,200.8C373,200.1,372.3,200.1,372.3,200.8C372.3,200.1,372.3,200.1,372.3,200.8
	L372.3,200.8"/>
<polyline points="386,200.8 386,200.8 386,200.8 385.3,200.8 386,200.8 "/>
<path d="M74.8,213.8L74.8,213.8L74.8,213.8L74.8,213.8L74.8,213.8"/>
<path d="M87.8,214.4C87.8,214.4,88.4,213.8,87.8,214.4c0.6-0.6,0-0.6,0-0.6C87.8,213.1,87.8,213.8,87.8,214.4
	C87.8,213.8,87.8,214.4,87.8,214.4"/>
<path d="M101.4,214.4c0.6,0,0.6,0,0.6-0.6s0-0.6-0.6-0.6c-0.6,0-0.6,0-0.6,0.6C100.1,214.4,100.8,214.4,101.4,214.4"/>
<path d="M114.4,215.1c0.6,0,1.3-0.6,1.3-1.3c0-0.6-0.6-1.3-1.3-1.3c-0.6,0-1.3,0.6-1.3,1.3C113.1,214.4,113.8,215.1,114.4,215.1"/>
<path d="M127.4,215.1c0.6,0,1.3-0.6,1.3-1.3c0-0.6-0.6-1.3-1.3-1.3c-0.6,0-1.3,0.6-1.3,1.3C126.1,214.4,126.8,215.1,127.4,215.1"/>
<path d="M141.1,215.7c1.3,0,1.9-0.6,1.9-1.9s-0.6-1.9-1.9-1.9s-1.9,0.6-1.9,1.9S139.8,215.7,141.1,215.7"/>
<path d="M154.1,216.4c1.3,0,2.6-1.3,2.6-2.6s-1.3-2.6-2.6-2.6c-1.3,0-2.6,1.3-2.6,2.6C151.5,215.1,152.8,216.4,154.1,216.4"/>
<path d="M167,216.4c1.3,0,2.6-1.3,2.6-2.6s-1.3-2.6-2.6-2.6s-2.6,1.3-2.6,2.6S165.7,216.4,167,216.4"/>
<path d="M180.7,217c1.9,0,3.2-1.3,3.2-3.2s-1.3-3.2-3.2-3.2s-3.2,1.3-3.2,3.2S178.7,217,180.7,217"/>
<path d="M193.7,217c1.9,0,3.2-1.3,3.2-3.2s-1.3-3.2-3.2-3.2s-3.2,1.3-3.2,3.2S191.7,217,193.7,217"/>
<path d="M207.3,217.7c1.9,0,3.9-1.9,3.9-3.9s-1.9-3.9-3.9-3.9s-3.9,1.9-3.9,3.9S204.7,217.7,207.3,217.7"/>
<path d="M220.3,217.7c1.9,0,3.9-1.9,3.9-3.9s-1.9-3.9-3.9-3.9s-3.9,1.9-3.9,3.9S218.4,217.7,220.3,217.7"/>
<path d="M233.3,217.7c1.9,0,3.9-1.9,3.9-3.9s-1.9-3.9-3.9-3.9s-3.9,1.9-3.9,3.9S231.4,217.7,233.3,217.7"/>
<path d="M247,217.7c1.9,0,3.9-1.9,3.9-3.9s-1.9-3.9-3.9-3.9s-3.9,1.9-3.9,3.9S245,217.7,247,217.7"/>
<path d="M259.9,217c1.9,0,3.2-1.3,3.2-3.2s-1.3-3.2-3.2-3.2s-3.2,1.3-3.2,3.2S258,217,259.9,217"/>
<path d="M272.9,217c1.9,0,3.2-1.3,3.2-3.2s-1.3-3.2-3.2-3.2s-3.2,1.3-3.2,3.2C270.3,215.7,271.6,217,272.9,217"/>
<path d="M286.6,216.4c1.3,0,2.6-1.3,2.6-2.6s-1.3-2.6-2.6-2.6c-1.3,0-2.6,1.3-2.6,2.6C284,215.1,284.6,216.4,286.6,216.4"/>
<path d="M299.6,215.7c1.3,0,2.6-1.3,2.6-2.6s-1.3-2.6-2.6-2.6s-2.6,1.3-2.6,2.6C297.6,215.1,298.3,215.7,299.6,215.7"/>
<path d="M312.6,215.7c1.3,0,1.9-0.6,1.9-1.9s-0.6-1.9-1.9-1.9s-1.9,0.6-1.9,1.9S311.9,215.7,312.6,215.7"/>
<path d="M326.2,215.1c0.6,0,1.3-0.6,1.3-1.3c0-0.6-0.6-1.3-1.3-1.3c-0.6,0-1.3,0.6-1.3,1.3C324.9,214.4,325.6,215.1,326.2,215.1"/>
<path d="M339.2,214.4c0.6,0,1.3-0.6,1.3-1.3s-0.6-1.3-1.3-1.3c-0.6,0-1.3,0.6-1.3,1.3S338.6,214.4,339.2,214.4"/>
<path d="M352.8,214.4C352.8,214.4,353.5,213.8,352.8,214.4c0.6-0.6,0.6-1.3,0-1.3C352.2,213.1,352.2,213.1,352.8,214.4
	C352.2,213.8,352.2,214.4,352.8,214.4"/>
<path d="M365.8,213.8L365.8,213.8c0.6-0.6,0-0.6,0-0.6C365.8,213.1,365.2,213.8,365.8,213.8C365.2,213.8,365.8,213.8,365.8,213.8"/>
<path d="M378.8,213.8C378.8,213.8,379.5,213.8,378.8,213.8C379.5,213.8,378.8,213.8,378.8,213.8L378.8,213.8L378.8,213.8"/>
<path d="M81.3,227.4C81.3,227.4,81.3,226.8,81.3,227.4C81.3,226.8,81.3,226.8,81.3,227.4C81.3,226.8,81.3,226.8,81.3,227.4
	C81.3,226.8,81.3,227.4,81.3,227.4"/>
<path d="M94.3,227.4C94.9,227.4,94.9,227.4,94.3,227.4c0.6-0.6,0-0.6,0-0.6S94.3,226.8,94.3,227.4L94.3,227.4"/>
<path d="M107.9,227.4C107.9,227.4,108.6,227.4,107.9,227.4c0.6-0.6,0.6-1.3,0-1.3C107.3,226.1,107.3,226.8,107.9,227.4
	C107.3,227.4,107.3,227.4,107.9,227.4"/>
<path d="M120.9,228.1c0.6,0,0.6-0.6,0.6-0.6c0-0.6-0.6-0.6-0.6-0.6c-0.6,0-0.6,0.6-0.6,0.6C120.3,227.4,120.3,228.1,120.9,228.1"/>
<path d="M133.9,228.1c0.6,0,1.3-0.6,1.3-1.3c0-0.6-0.6-1.3-1.3-1.3c-0.6,0-1.3,0.6-1.3,1.3C132.6,227.4,133.3,228.1,133.9,228.1"/>
<path d="M147.6,228.7c0.6,0,1.3-0.6,1.3-1.3c0-0.6-0.6-1.3-1.3-1.3c-0.6,0-1.3,0.6-1.3,1.3C145.6,228.1,146.3,228.7,147.6,228.7"/>
<path d="M160.5,228.7c1.3,0,1.9-0.6,1.9-1.9s-0.6-1.9-1.9-1.9s-1.9,0.6-1.9,1.9S159.9,228.7,160.5,228.7"/>
<path d="M174.2,229.4c1.3,0,1.9-1.3,1.9-1.9c0-1.3-1.3-1.9-1.9-1.9s-1.9,1.3-1.9,1.9C171.6,228.1,172.9,229.4,174.2,229.4"/>
<path d="M187.2,229.4c1.3,0,2.6-1.3,2.6-2.6c0-1.3-1.3-2.6-2.6-2.6c-1.3,0-2.6,1.3-2.6,2.6C184.6,228.1,185.9,229.4,187.2,229.4"/>
<path d="M200.2,229.4c1.3,0,2.6-1.3,2.6-2.6c0-1.3-1.3-2.6-2.6-2.6s-2.6,1.3-2.6,2.6C197.6,228.7,198.9,229.4,200.2,229.4"/>
<path d="M213.8,230c1.3,0,2.6-1.3,2.6-2.6s-1.3-2.6-2.6-2.6c-1.3,0-2.6,1.3-2.6,2.6C210.6,228.7,211.9,230,213.8,230"/>
<path d="M226.8,230c1.3,0,2.6-1.3,2.6-2.6s-1.3-2.6-2.6-2.6s-2.6,1.3-2.6,2.6S225.5,230,226.8,230"/>
<path d="M239.8,229.4c1.3,0,2.6-1.3,2.6-2.6c0-1.3-1.3-2.6-2.6-2.6s-2.6,1.3-2.6,2.6C237.2,228.7,238.5,229.4,239.8,229.4"/>
<path d="M253.4,229.4c1.3,0,2.6-1.3,2.6-2.6c0-1.3-1.3-2.6-2.6-2.6s-2.6,1.3-2.6,2.6C250.8,228.1,252.1,229.4,253.4,229.4"/>
<path d="M266.4,229.4c1.3,0,2.6-1.3,2.6-2.6c0-1.3-1.3-2.6-2.6-2.6s-2.6,1.3-2.6,2.6C264.5,228.1,265.1,229.4,266.4,229.4"/>
<path d="M280.1,228.7c1.3,0,1.9-0.6,1.9-1.9s-0.6-1.9-1.9-1.9s-1.9,0.6-1.9,1.9S278.8,228.7,280.1,228.7"/>
<path d="M293.1,228.7c0.6,0,1.9-0.6,1.9-1.9c0-0.6-0.6-1.9-1.9-1.9c-0.6,0-1.9,0.6-1.9,1.9S292.4,228.7,293.1,228.7"/>
<path d="M306.1,228.1c0.6,0,1.3-0.6,1.3-1.3c0-0.6-0.6-1.3-1.3-1.3c-0.6,0-1.3,0.6-1.3,1.3C304.8,227.4,305.4,228.1,306.1,228.1"/>
<path d="M319.7,228.1c0.6,0,0.6-0.6,0.6-0.6c0-0.6-0.6-0.6-0.6-0.6c-0.6,0-0.6,0.6-0.6,0.6C318.4,227.4,319.1,228.1,319.7,228.1"/>
<path d="M332.7,227.4C333.4,227.4,333.4,227.4,332.7,227.4c0.6-0.6,0.6-1.3,0-1.3C332.7,226.1,332.1,226.8,332.7,227.4
	C332.1,227.4,332.7,227.4,332.7,227.4"/>
<path d="M345.7,227.4C346.3,227.4,346.3,227.4,345.7,227.4c0.6-0.6,0-0.6,0-0.6S345.7,226.8,345.7,227.4L345.7,227.4"/>
<path d="M359.3,227.4C359.3,227.4,359.3,226.8,359.3,227.4C359.3,226.8,359.3,226.8,359.3,227.4
	C359.3,226.8,359.3,226.8,359.3,227.4C359.3,226.8,359.3,227.4,359.3,227.4"/>
<path d="M101.4,240.4L101.4,240.4L101.4,240.4C100.8,240.4,100.8,240.4,101.4,240.4C100.8,240.4,100.8,240.4,101.4,240.4"/>
<path d="M114.4,240.4L114.4,240.4C114.4,239.8,114.4,239.8,114.4,240.4C114.4,239.8,114.4,239.8,114.4,240.4L114.4,240.4"/>
<path d="M127.4,240.4C128.1,240.4,128.1,240.4,127.4,240.4c0.6-0.6,0-0.6,0-0.6S127.4,239.8,127.4,240.4L127.4,240.4"/>
<path d="M141.1,241.1c0.6,0,0.6,0,0.6-0.6s0-0.6-0.6-0.6s-0.6,0-0.6,0.6C140.4,240.4,140.4,241.1,141.1,241.1"/>
<path d="M154.1,241.1c0.6,0,0.6-0.6,0.6-0.6c0-0.6-0.6-0.6-0.6-0.6c-0.6,0-0.6,0.6-0.6,0.6C153.4,241.1,153.4,241.1,154.1,241.1"/>
<path d="M167,241.7c0.6,0,1.3-0.6,1.3-1.3c0-0.6-0.6-1.3-1.3-1.3c-0.6,0-1.3,0.6-1.3,1.3C166.4,241.1,166.4,241.7,167,241.7"/>
<path d="M180.7,241.7c0.6,0,1.3-0.6,1.3-1.3c0-0.6-0.6-1.3-1.3-1.3c-0.6,0-1.3,0.6-1.3,1.3C179.4,241.1,180,241.7,180.7,241.7"/>
<path d="M193.7,241.7c0.6,0,1.3-0.6,1.3-1.3c0-0.6-0.6-1.3-1.3-1.3c-0.6,0-1.3,0.6-1.3,1.3C192.4,241.1,193,241.7,193.7,241.7"/>
<path d="M207.3,241.7c0.6,0,1.9-0.6,1.9-1.9c0-0.6-0.6-1.9-1.9-1.9c-0.6,0-1.9,0.6-1.9,1.9C205.4,241.1,206,241.7,207.3,241.7"/>
<path d="M220.3,242.4c1.3,0,1.9-0.6,1.9-1.9s-0.6-1.9-1.9-1.9s-1.9,0.6-1.9,1.9C218.4,241.1,219,242.4,220.3,242.4"/>
<path d="M233.3,242.4c1.3,0,1.9-0.6,1.9-1.9s-0.6-1.9-1.9-1.9c-1.3,0-1.9,0.6-1.9,1.9C231.4,241.1,232.7,242.4,233.3,242.4"/>
<path d="M247,241.7c1.3,0,1.9-0.6,1.9-1.9c0-1.3-0.6-1.9-1.9-1.9s-1.9,0.6-1.9,1.9C245,241.1,245.7,241.7,247,241.7"/>
<path d="M259.9,241.7c0.6,0,1.9-0.6,1.9-1.9c0-0.6-0.6-1.9-1.9-1.9s-1.9,0.6-1.9,1.9C258,241.1,259.3,241.7,259.9,241.7"/>
<path d="M272.9,241.7c0.6,0,1.3-0.6,1.3-1.3c0-0.6-0.6-1.3-1.3-1.3c-0.6,0-1.3,0.6-1.3,1.3C271.6,241.1,272.3,241.7,272.9,241.7"/>
<path d="M286.6,241.7c0.6,0,1.3-0.6,1.3-1.3c0-0.6-0.6-1.3-1.3-1.3c-0.6,0-1.3,0.6-1.3,1.3C285.3,241.1,285.9,241.7,286.6,241.7"/>
<path d="M299.6,241.1c0.6,0,1.3-0.6,1.3-1.3c0-0.6-0.6-1.3-1.3-1.3c-0.6,0-1.3,0.6-1.3,1.3C298.3,240.4,298.9,241.1,299.6,241.1"/>
<path d="M312.6,241.1c0.6,0,0.6-0.6,0.6-0.6c0-0.6-0.6-0.6-0.6-0.6c-0.6,0-0.6,0.6-0.6,0.6C311.9,240.4,312.6,241.1,312.6,241.1"/>
<path d="M326.2,241.1C326.2,241.1,326.9,240.4,326.2,241.1c0.6-0.6,0-1.3,0-1.3C325.6,239.8,325.6,239.8,326.2,241.1
	C325.6,240.4,325.6,241.1,326.2,241.1"/>
<path d="M339.2,240.4C339.9,240.4,339.9,240.4,339.2,240.4c0.6-0.6,0-0.6,0-0.6S339.2,239.8,339.2,240.4L339.2,240.4"/>
<path d="M352.8,240.4L352.8,240.4C352.8,240.4,352.8,239.8,352.8,240.4C352.2,239.8,352.2,240.4,352.8,240.4
	C352.2,240.4,352.2,240.4,352.8,240.4"/>
<polyline points="365.8,240.4 365.8,240.4 365.8,240.4 365.8,240.4 365.8,240.4 "/>
<polyline points="107.9,253.4 107.9,253.4 107.9,253.4 107.9,253.4 107.9,253.4 "/>
<path d="M120.9,253.4L120.9,253.4L120.9,253.4L120.9,253.4L120.9,253.4"/>
<path d="M133.9,254.1C134.6,254.1,134.6,253.4,133.9,254.1C134.6,253.4,134.6,253.4,133.9,254.1
	C133.9,253.4,133.9,253.4,133.9,254.1C133.9,253.4,133.9,254.1,133.9,254.1"/>
<path d="M147.6,254.1C147.6,254.1,148.2,253.4,147.6,254.1c0.6-0.6,0-0.6,0-0.6C146.9,252.8,146.9,253.4,147.6,254.1
	C146.9,253.4,146.9,254.1,147.6,254.1"/>
<path d="M160.5,254.1C161.2,254.1,161.2,254.1,160.5,254.1c0.6-0.6,0.6-1.3,0-1.3C160.5,252.8,159.9,253.4,160.5,254.1
	C159.9,254.1,160.5,254.1,160.5,254.1"/>
<path d="M174.2,254.1c0.6,0,0.6-0.6,0.6-0.6c0-0.6-0.6-0.6-0.6-0.6l-0.6,0.6C172.9,254.1,173.5,254.1,174.2,254.1"/>
<path d="M187.2,254.1c0.6,0,0.6-0.6,0.6-0.6c0-0.6-0.6-0.6-0.6-0.6c-0.6,0-0.6,0.6-0.6,0.6C186.5,254.1,186.5,254.1,187.2,254.1"/>
<path d="M200.2,254.7c0.6,0,1.3-0.6,1.3-1.3s-0.6-1.3-1.3-1.3c-0.6,0-1.3,0.6-1.3,1.3S199.5,254.7,200.2,254.7"/>
<path d="M213.8,254.7c0.6,0,1.3-0.6,1.3-1.3c0-0.6-0.6-1.3-1.3-1.3c-0.6,0-1.3,0.6-1.3,1.3S213.2,254.7,213.8,254.7"/>
<path d="M226.8,254.7c0.6,0,1.3-0.6,1.3-1.3c0-0.6-0.6-1.3-1.3-1.3c-0.6,0-1.3,0.6-1.3,1.3S226.2,254.7,226.8,254.7"/>
<path d="M239.8,254.7c0.6,0,1.3-0.6,1.3-1.3c0-0.6-0.6-1.3-1.3-1.3c-0.6,0-1.3,0.6-1.3,1.3C239.2,254.1,239.8,254.7,239.8,254.7"/>
<path d="M253.4,254.7c0.6,0,1.3-0.6,1.3-1.3s-0.6-1.3-1.3-1.3c-0.6,0-1.3,0.6-1.3,1.3S252.8,254.7,253.4,254.7"/>
<path d="M266.4,254.1c0.6,0,0.6-0.6,0.6-0.6c0-0.6-0.6-0.6-0.6-0.6c-0.6,0-0.6,0.6-0.6,0.6C265.8,254.1,265.8,254.1,266.4,254.1"/>
<path d="M280.1,254.1c0.6,0,0.6,0,0.6-0.6c0-0.6,0-0.6-0.6-0.6s-0.6,0-0.6,0.6C278.8,254.1,279.4,254.1,280.1,254.1"/>
<path d="M293.1,254.1C293.1,254.1,293.7,254.1,293.1,254.1c0.6-0.6,0-1.3,0-1.3C292.4,252.8,292.4,253.4,293.1,254.1
	C292.4,254.1,292.4,254.1,293.1,254.1"/>
<path d="M306.1,254.1C306.7,254.1,306.7,253.4,306.1,254.1c0.6-0.6,0-0.6,0-0.6C306.1,253.4,306.1,253.4,306.1,254.1
	C306.1,253.4,306.1,254.1,306.1,254.1"/>
<path d="M319.7,253.4L319.7,253.4L319.7,253.4C319.1,253.4,319.1,253.4,319.7,253.4C319.1,253.4,319.1,253.4,319.7,253.4"/>
<path d="M332.7,253.4L332.7,253.4L332.7,253.4L332.7,253.4L332.7,253.4"/>
<polyline points="141.1,267.1 141.1,266.4 141.1,266.4 141.1,266.4 141.1,267.1 "/>
<path d="M154.1,267.1L154.1,267.1C154.1,266.4,154.1,266.4,154.1,267.1C154.1,266.4,154.1,266.4,154.1,267.1L154.1,267.1"/>
<path d="M167,267.1C167.7,267.1,167.7,267.1,167,267.1C167.7,266.4,167.7,266.4,167,267.1C167,266.4,167,266.4,167,267.1L167,267.1"
	/>
<path d="M180.7,267.1L180.7,267.1C180.7,266.4,180.7,266.4,180.7,267.1C180.7,266.4,180,266.4,180.7,267.1
	C180,267.1,180.7,267.1,180.7,267.1"/>
<path d="M193.7,267.1C193.7,267.1,194.3,267.1,193.7,267.1c0.6-0.6,0-0.6,0-0.6C193.7,266.4,193.7,266.4,193.7,267.1L193.7,267.1"/>
<path d="M207.3,267.1L207.3,267.1c0.6-0.6,0-0.6,0-0.6C206.7,266.4,206.7,266.4,207.3,267.1C206.7,267.1,206.7,267.1,207.3,267.1"/>
<path d="M220.3,267.1C220.3,267.1,221,267.1,220.3,267.1c0.6-0.6,0-0.6,0-0.6C219.7,266.4,219.7,266.4,220.3,267.1
	C219.7,267.1,219.7,267.1,220.3,267.1"/>
<path d="M233.3,267.1C234,267.1,234,267.1,233.3,267.1c0.6-0.6,0-1.3,0-1.3C233.3,266.4,232.7,266.4,233.3,267.1
	C232.7,267.1,233.3,267.1,233.3,267.1"/>
<path d="M247,267.1L247,267.1c0.6-0.6,0-0.6,0-0.6C246.3,266.4,246.3,266.4,247,267.1C246.3,267.1,246.3,267.1,247,267.1"/>
<path d="M259.9,267.1C259.9,267.1,260.6,267.1,259.9,267.1c0.6-0.6,0-0.6,0-0.6C259.9,266.4,259.3,266.4,259.9,267.1
	C259.3,267.1,259.9,267.1,259.9,267.1"/>
<path d="M272.9,267.1C273.6,267.1,273.6,267.1,272.9,267.1c0.6-0.6,0-0.6,0-0.6C272.9,266.4,272.9,266.4,272.9,267.1L272.9,267.1"/>
<path d="M286.6,267.1L286.6,267.1C286.6,266.4,286.6,266.4,286.6,267.1C285.9,266.4,285.9,266.4,286.6,267.1
	C285.9,267.1,285.9,267.1,286.6,267.1"/>
<path d="M299.6,267.1L299.6,267.1C299.6,266.4,299.6,266.4,299.6,267.1C299.6,266.4,299.6,266.4,299.6,267.1L299.6,267.1"/>
<path d="M312.6,267.1C313.2,267.1,313.2,267.1,312.6,267.1C313.2,266.4,313.2,266.4,312.6,267.1
	C312.6,266.4,312.6,266.4,312.6,267.1L312.6,267.1"/>
<polyline points="326.2,267.1 326.2,266.4 326.2,266.4 326.2,266.4 326.2,267.1 "/>
<polyline points="174.2,280.1 174.2,280.1 174.2,280.1 174.2,280.1 174.2,280.1 "/>
<path d="M187.2,280.1L187.2,280.1L187.2,280.1L187.2,280.1L187.2,280.1"/>
<path d="M200.2,280.1L200.2,280.1L200.2,280.1L200.2,280.1L200.2,280.1"/>
<path d="M213.8,280.1L213.8,280.1L213.8,280.1L213.8,280.1L213.8,280.1"/>
<path d="M226.8,280.1L226.8,280.1L226.8,280.1L226.8,280.1L226.8,280.1"/>
<path d="M239.8,280.1C240.5,280.1,240.5,280.1,239.8,280.1C240.5,280.1,240.5,280.1,239.8,280.1L239.8,280.1L239.8,280.1"/>
<path d="M253.4,280.1L253.4,280.1L253.4,280.1L253.4,280.1L253.4,280.1"/>
<path d="M266.4,280.1L266.4,280.1L266.4,280.1L266.4,280.1L266.4,280.1"/>
<polyline points="280.1,280.1 280.1,280.1 280.1,280.1 280.1,280.1 280.1,280.1 "/>
<path class="st0" d="M77.4,295l-3.9-44.8l-55.2-2.6l3.9-194.9L306.7,80l-62.4,172.2H128.7L77.4,295z M37.1,230l53.3,2.6l1.9,25.3
	l29.2-24h109.1l50-137.7L40.4,73.5L37.1,230z"/>
<polygon class="st1" points="35.8,58.5 31.9,233.9 85.8,237.2 89.1,272.3 129.4,238.5 241.8,238.5 298.3,83.9 "/>
<path class="st2" d="M145.6,186.5c-9.1,0-17.5,0-26.6,0c-3.2,0-6.5-1.3-9.1-3.2c-3.9-3.2-5.2-9.1-3.9-13.6c1.3-3.2,3.2-5.8,5.8-7.1
	c0.6,0,0.6-0.6,0.6-1.3c-1.9-6.5,1.9-13.6,8.4-15.6c0.6,0,0.6-0.6,0.6-1.3c-1.3-6.5,2.6-13,9.1-14.3c1.3,0,1.9,0,3.2,0
	c5.2,0,10.4,0,15.6,0h0.6c0.6,0,0.6,0,0.6-0.6s-0.6-0.6-1.3-0.6c-1.3,0-1.9-0.6-2.6-1.3c-1.3-1.9,0-4.5,2.6-4.5
	c3.2,0,6.5,0.6,9.7,2.6c5.2,2.6,8.4,7.1,9.7,13c0.6,2.6,0.6,4.5,0,7.1c0,0.6,0,0.6,0.6,0.6c5.2,1.3,7.8,5.2,8.4,9.7
	c0,1.9,0,3.9-0.6,5.2c0,0.6,0,0.6,0.6,1.3c4.5,2.6,7.1,8.4,6.5,13.6c-0.6,5.2-5.2,9.7-10.4,10.4c-0.6,0-1.9,0-2.6,0
	C163.1,186.5,154.7,186.5,145.6,186.5 M145.6,180.7c9.1,0,18.2,0,27.3,0c1.9,0,3.9-0.6,5.2-1.9c1.9-1.9,2.6-5.2,1.3-7.1
	c-1.3-2.6-3.2-4.5-6.5-4.5c-18.2,0-36.4,0-53.9,0c-0.6,0-1.3,0-1.9,0c-2.6,0.6-4.5,3.2-4.5,5.8c0,4.5,2.6,7.8,7.1,7.8
	C127.4,180.7,136.5,180.7,145.6,180.7 M145.6,160.5h9.1c5.8,0,11.7,0,17.5,0c0.6,0,0.6,0,1.3-0.6c1.9-3.9-0.6-8.4-5.2-8.4
	c-8.4,0-16.2,0-24.7,0c-6.5,0-13,0-19.5,0c-3.9,0-6.5,3.9-5.2,7.8c0,0.6,0.6,1.3,1.3,1.3C128.1,160.5,137.2,160.5,145.6,160.5
	 M146.3,145.6L146.3,145.6c5.8,0,11,0,16.9,0c0.6,0,0.6,0,1.3-0.6c0-1.3,0-2.6,0-3.2c-0.6-4.5-2.6-7.8-5.8-10.4
	c-0.6-0.6-0.6,0-0.6,0.6c-0.6,1.9-1.9,3.9-3.9,4.5c-1.3,0.6-2.6,0.6-3.9,0.6c-5.2,0-10.4,0-15.6,0c-3.9,0-7.1,4.5-5.2,8.4
	c0,0.6,0.6,0.6,1.3,0.6C134.6,145.6,140.4,145.6,146.3,145.6"/>
<path class="st3" d="M232.7,128.7c5.8,29.2-14.3,65-51.3,86.4c-39.6,22.7-84.5,20.8-105.2-3.9c-3.9,0.6-7.8-1.3-9.7-4.5
	c-2.6-4.5-1.3-10.4,3.2-13s10.4-1.3,13,3.2c1.9,3.2,1.9,6.5,0,9.1c18.8,20.8,58.5,22.1,94.2,1.3c33.1-18.8,52-50.7,47.4-76
	C227.5,131.3,230.1,130,232.7,128.7 M215.1,120.2c2.6,4.5,8.4,6.5,13,3.2c4.5-2.6,6.5-8.4,3.2-13c-1.9-3.9-5.8-5.2-9.7-4.5
	c-20.8-24-65.6-26.6-105.2-3.9C80,123.5,59.2,159.2,65,188.5c2.6-1.9,5.2-2.6,7.8-3.2c-3.9-25.3,14.3-57.2,47.4-76
	c35.7-20.8,75.4-19.5,94.2,1.3C213.2,113.7,213.2,117.6,215.1,120.2"/>
<path class="st2" d="M232.7,128.7c5.8,29.2-14.3,65-51.3,86.4c-39.6,22.7-84.5,20.8-105.2-3.9c-3.9,0.6-7.8-1.3-9.7-4.5
	c-2.6-4.5-1.3-10.4,3.2-13s10.4-1.3,13,3.2c1.9,3.2,1.9,6.5,0,9.1c18.8,20.8,58.5,22.1,94.2,1.3c33.1-18.8,52-50.7,47.4-76
	C227.5,131.3,230.1,130,232.7,128.7 M215.1,120.2c2.6,4.5,8.4,6.5,13,3.2c4.5-2.6,6.5-8.4,3.2-13c-1.9-3.9-5.8-5.2-9.7-4.5
	c-20.8-24-65.6-26.6-105.2-3.9C80,123.5,59.2,159.2,65,188.5c2.6-1.9,5.2-2.6,7.8-3.2c-3.9-25.3,14.3-57.2,47.4-76
	c35.7-20.8,75.4-19.5,94.2,1.3C213.2,113.7,213.2,117.6,215.1,120.2"/>
<path class="st3" d="M217.1,215.7c-22.7,19.5-63.7,20.1-100.7-1.3c-39.6-22.7-59.8-62.4-49.4-92.9c-2.6-3.2-3.2-7.1-0.6-11
	c2.6-4.5,8.4-6.5,13-3.2c4.5,2.6,6.5,8.4,3.2,13c-1.9,3.2-4.5,4.5-7.8,4.5c-8.4,26.6,10.4,61.7,46.1,81.9
	c33.1,18.8,69.5,19.5,89.7,3.2C211.9,213.1,214.5,215.1,217.1,215.7 M215.1,196.9c-2.6,4.5-1.3,10.4,3.2,13c4.5,2.6,10.4,1.3,13-3.2
	c1.9-3.9,1.3-7.8-0.6-11c10.4-30.5-9.7-70.2-49.4-92.9c-36.4-21.4-78-20.8-100.7-1.3c2.6,1.3,5.2,3.2,6.5,5.8
	c20.1-16.2,56.5-16.2,89.7,3.2c35.7,20.8,54.6,55.9,46.1,81.9C219.7,192.3,216.4,193.6,215.1,196.9"/>
<path class="st2" d="M217.1,215.7c-22.7,19.5-63.7,20.1-100.7-1.3c-39.6-22.7-59.8-62.4-49.4-92.9c-2.6-3.2-3.2-7.1-0.6-11
	c2.6-4.5,8.4-6.5,13-3.2c4.5,2.6,6.5,8.4,3.2,13c-1.9,3.2-4.5,4.5-7.8,4.5c-8.4,26.6,10.4,61.7,46.1,81.9
	c33.1,18.8,69.5,19.5,89.7,3.2C211.9,213.1,214.5,215.1,217.1,215.7 M215.1,196.9c-2.6,4.5-1.3,10.4,3.2,13c4.5,2.6,10.4,1.3,13-3.2
	c1.9-3.9,1.3-7.8-0.6-11c10.4-30.5-9.7-70.2-49.4-92.9c-36.4-21.4-78-20.8-100.7-1.3c2.6,1.3,5.2,3.2,6.5,5.8
	c20.1-16.2,56.5-16.2,89.7,3.2c35.7,20.8,54.6,55.9,46.1,81.9C219.7,192.3,216.4,193.6,215.1,196.9"/>
</svg>
