<?xml version="1.0" encoding="utf-8"?>
<!-- Generator: Adobe Illustrator 23.1.1, SVG Export Plug-In . SVG Version: 6.00 Build 0)  -->
<svg version="1.1" id="Layer_1" xmlns="http://www.w3.org/2000/svg" xmlns:xlink="http://www.w3.org/1999/xlink" x="0px" y="0px"
	 viewBox="0 0 400 300" style="enable-background:new 0 0 400 300;" xml:space="preserve">
<style type="text/css">
	.st0{fill:#1E1D1B;}
	.st1{fill:#FFFFFF;}
	.st2{clip-path:url(#SVGID_2_);fill:#E15200;}
	.st3{clip-path:url(#SVGID_4_);fill:#E15200;}
	.st4{clip-path:url(#SVGID_6_);fill:#E15200;}
	.st5{clip-path:url(#SVGID_8_);fill:#E15200;}
	.st6{clip-path:url(#SVGID_10_);fill:#E15200;}
	.st7{clip-path:url(#SVGID_12_);fill:#E15200;}
	.st8{clip-path:url(#SVGID_14_);fill:#E15200;}
	.st9{clip-path:url(#SVGID_16_);fill:#E15200;}
	.st10{clip-path:url(#SVGID_18_);fill:#E15200;}
	.st11{clip-path:url(#SVGID_20_);fill:#FFFFFF;}
	.st12{clip-path:url(#SVGID_22_);fill:#CD6613;}
	.st13{clip-path:url(#SVGID_24_);fill:#E15200;}
	.st14{clip-path:url(#SVGID_26_);fill:#E15200;}
</style>
<path d="M506.9,110.3C506.9,110.3,506.9,109.2,506.9,110.3C506.9,109.2,506.9,109.2,506.9,110.3
	C505.8,109.2,505.8,109.2,506.9,110.3C505.8,109.2,505.8,110.3,506.9,110.3"/>
<path d="M392.5,134.5L392.5,134.5L392.5,134.5C392.5,134.5,391.8,134.5,392.5,134.5C391.8,134.5,392.5,134.5,392.5,134.5"/>
<path d="M506.9,152.8L506.9,152.8L506.9,152.8C505.8,152.8,505.8,152.8,506.9,152.8C505.8,152.8,505.8,152.8,506.9,152.8"/>
<path d="M392.5,161.2L392.5,161.2C392.5,160.5,392.5,160.5,392.5,161.2C392.5,160.5,391.8,160.5,392.5,161.2
	C391.8,161.2,392.5,161.2,392.5,161.2"/>
<path d="M506.9,196.5L506.9,196.5L506.9,196.5C505.8,196.5,505.8,196.5,506.9,196.5C505.8,196.5,505.8,196.5,506.9,196.5"/>
<polyline points="160,369.9 160,369.9 160,369.9 160,369.9 160,369.9 "/>
<path d="M181.3,369.9L181.3,369.9L181.3,369.9L181.3,369.9L181.3,369.9"/>
<path d="M202.6,369.9L202.6,369.9L202.6,369.9L202.6,369.9L202.6,369.9"/>
<path d="M224.9,369.9L224.9,369.9L224.9,369.9L224.9,369.9L224.9,369.9"/>
<path d="M246.2,369.9L246.2,369.9L246.2,369.9L246.2,369.9L246.2,369.9"/>
<path d="M267.5,369.9C268.5,369.9,268.5,369.9,267.5,369.9C268.5,369.9,268.5,369.9,267.5,369.9L267.5,369.9L267.5,369.9"/>
<path d="M289.8,369.9L289.8,369.9L289.8,369.9L289.8,369.9L289.8,369.9"/>
<path d="M311.1,369.9L311.1,369.9L311.1,369.9L311.1,369.9L311.1,369.9"/>
<polyline points="333.4,369.9 333.4,369.9 333.4,369.9 333.4,369.9 333.4,369.9 "/>
<g>
	<path d="M266.6,15.3L266.6,15.3C266.6,14.6,266.6,14.6,266.6,15.3C266.6,14.6,266.6,14.6,266.6,15.3L266.6,15.3"/>
</g>
<g>
	<path d="M249.7,15.3C249.7,15.3,248.9,15.3,249.7,15.3C248.9,14.6,249.7,14.6,249.7,15.3C249.7,14.6,249.7,14.6,249.7,15.3
		L249.7,15.3"/>
</g>
<g>
	<path d="M232,15.3L232,15.3C232,14.6,232,14.6,232,15.3C232.8,14.6,232.8,14.6,232,15.3C232.8,15.3,232.8,15.3,232,15.3"/>
</g>
<g>
	<path d="M215.1,15.3L215.1,15.3C215.1,14.6,215.1,14.6,215.1,15.3C215.1,14.6,215.9,14.6,215.1,15.3
		C215.9,15.3,215.1,15.3,215.1,15.3"/>
</g>
<g>
	<path d="M198.2,15.3L198.2,15.3C198.2,14.6,198.2,14.6,198.2,15.3C198.2,14.6,199,14.6,198.2,15.3C199,15.3,198.2,15.3,198.2,15.3"
		/>
</g>
<g>
	<path d="M181.3,15.3C181.3,15.3,180.5,15.3,181.3,15.3C180.5,14.6,181.3,14.6,181.3,15.3C181.3,14.6,181.3,14.6,181.3,15.3
		L181.3,15.3"/>
</g>
<g>
	<path d="M164.4,15.3C163.6,15.3,163.6,15.3,164.4,15.3C163.6,14.6,163.6,14.6,164.4,15.3C164.4,14.6,164.4,14.6,164.4,15.3
		L164.4,15.3"/>
</g>
<g>
	<path d="M146.7,15.3L146.7,15.3C146.7,14.6,146.7,14.6,146.7,15.3C146.7,14.6,147.5,14.6,146.7,15.3
		C147.5,15.3,146.7,15.3,146.7,15.3"/>
</g>
<g>
	<path d="M129.8,15.3L129.8,15.3C129.8,14.6,129.8,14.6,129.8,15.3C129.8,14.6,129.8,14.6,129.8,15.3L129.8,15.3"/>
</g>
<g>
	<polyline points="326.6,32.3 326.6,32.3 326.6,32.3 326.6,32.3 326.6,32.3 	"/>
</g>
<g>
	<path d="M308.9,32.3L308.9,32.3C308.9,32.3,308.9,31.5,308.9,32.3C309.7,31.5,309.7,32.3,308.9,32.3
		C309.7,32.3,309.7,32.3,308.9,32.3"/>
</g>
<g>
	<path d="M292,32.3L292,32.3c-0.8-0.8,0-0.8,0-0.8C292.8,31.5,292.8,31.5,292,32.3C292.8,32.3,292.8,32.3,292,32.3"/>
</g>
<g>
	<path d="M275.1,33C275.1,33,274.3,32.3,275.1,33c-0.8-0.8,0-1.5,0-1.5C275.8,31.5,275.8,31.5,275.1,33
		C275.8,32.3,275.8,33,275.1,33"/>
</g>
<g>
	<path d="M258.2,33c-0.8,0-0.8-0.8-0.8-0.8c0-0.8,0.8-0.8,0.8-0.8c0.8,0,0.8,0.8,0.8,0.8C258.9,32.3,258.2,33,258.2,33"/>
</g>
<g>
	<path d="M241.2,33c-0.8,0-0.8-0.8-0.8-0.8l0.8-0.8c0.8,0,0.8,0.8,0.8,0.8L241.2,33"/>
</g>
<g>
	<path d="M223.6,33c-0.8,0-1.5-0.8-1.5-1.5c0-0.8,0.8-1.5,1.5-1.5c0.8,0,1.5,0.8,1.5,1.5C225.1,33,224.3,33,223.6,33"/>
</g>
<g>
	<path d="M206.7,33c-0.8,0-1.5-0.8-1.5-1.5c0-0.8,0.8-1.5,1.5-1.5c0.8,0,1.5,0.8,1.5,1.5C208.2,33,207.4,33,206.7,33"/>
</g>
<g>
	<path d="M189.7,33c-0.8,0-0.8-0.8-0.8-0.8l0.8-0.8c0.8,0,0.8,0.8,0.8,0.8S190.5,33,189.7,33"/>
</g>
<g>
	<path d="M172.8,33c-0.8,0-0.8-0.8-0.8-0.8c0-0.8,0.8-0.8,0.8-0.8c0.8,0,0.8,0.8,0.8,0.8L172.8,33"/>
</g>
<g>
	<path d="M155.1,33c-0.8,0-0.8,0-0.8-0.8s0-0.8,0.8-0.8c0.8,0,0.8,0,0.8,0.8C156.7,32.3,155.9,33,155.1,33"/>
</g>
<g>
	<path d="M138.2,32.3L138.2,32.3c-0.8-0.8,0-0.8,0-0.8C139,31.5,139,31.5,138.2,32.3C139,32.3,139,32.3,138.2,32.3"/>
</g>
<g>
	<path d="M121.3,32.3L121.3,32.3C121.3,31.5,121.3,31.5,121.3,32.3C121.3,31.5,121.3,31.5,121.3,32.3L121.3,32.3"/>
</g>
<g>
	<path d="M104.4,32.3L104.4,32.3L104.4,32.3L104.4,32.3L104.4,32.3"/>
</g>
<g>
	<path d="M335,49.2L335,49.2L335,49.2L335,49.2L335,49.2"/>
</g>
<g>
	<path d="M318.1,49.2C317.4,49.2,317.4,49.2,318.1,49.2c-0.8-0.8,0-0.8,0-0.8C318.1,48.4,318.1,49.2,318.1,49.2L318.1,49.2"/>
</g>
<g>
	<path d="M300.4,49.9C300.4,49.9,299.7,49.2,300.4,49.9c-0.8-1.5-0.8-1.5,0-1.5C301.2,48.4,301.2,48.4,300.4,49.9
		C301.2,49.2,301.2,49.9,300.4,49.9"/>
</g>
<g>
	<path d="M283.5,49.9c-0.8,0-0.8-0.8-0.8-0.8c0-0.8,0.8-0.8,0.8-0.8c0.8,0,0.8,0.8,0.8,0.8C285.1,49.9,284.3,49.9,283.5,49.9"/>
</g>
<g>
	<path d="M266.6,50.7c-0.8,0-1.5-0.8-1.5-1.5s0.8-1.5,1.5-1.5s1.5,0.8,1.5,1.5S267.4,50.7,266.6,50.7"/>
</g>
<g>
	<path d="M249.7,50.7c-0.8,0-1.5-0.8-1.5-1.5c0-0.8,0.8-1.5,1.5-1.5c0.8,0,1.5,0.8,1.5,1.5S250.5,50.7,249.7,50.7"/>
</g>
<g>
	<path d="M232,51.5c-1.5,0-2.3-0.8-2.3-2.3c0-1.5,0.8-2.3,2.3-2.3s2.3,0.8,2.3,2.3C234.3,49.9,233.6,51.5,232,51.5"/>
</g>
<g>
	<path d="M215.1,51.5c-1.5,0-2.3-0.8-2.3-2.3c0-1.5,0.8-2.3,2.3-2.3s2.3,0.8,2.3,2.3C217.4,50.7,216.6,51.5,215.1,51.5"/>
</g>
<g>
	<path d="M198.2,51.5c-1.5,0-2.3-0.8-2.3-2.3c0-1.5,0.8-2.3,2.3-2.3s2.3,0.8,2.3,2.3C200.5,50.7,199.7,51.5,198.2,51.5"/>
</g>
<g>
	<path d="M181.3,51.5c-1.5,0-2.3-0.8-2.3-2.3c0-1.5,0.8-2.3,2.3-2.3c1.5,0,2.3,0.8,2.3,2.3C183.6,50.7,182,51.5,181.3,51.5"/>
</g>
<g>
	<path d="M164.4,51.5c-1.5,0-2.3-0.8-2.3-2.3c0-1.5,0.8-2.3,2.3-2.3s2.3,0.8,2.3,2.3C165.9,49.9,165.1,51.5,164.4,51.5"/>
</g>
<g>
	<path d="M146.7,50.7c-0.8,0-1.5-0.8-1.5-1.5c0-0.8,0.8-1.5,1.5-1.5c0.8,0,1.5,0.8,1.5,1.5C149,49.9,148.2,50.7,146.7,50.7"/>
</g>
<g>
	<path d="M129.8,50.7c-0.8,0-1.5-0.8-1.5-1.5c0-0.8,0.8-1.5,1.5-1.5c0.8,0,1.5,0.8,1.5,1.5C131.3,49.9,130.5,50.7,129.8,50.7"/>
</g>
<g>
	<path d="M112.9,49.9c-0.8,0-0.8-0.8-0.8-0.8c0-0.8,0.8-0.8,0.8-0.8c0.8,0,0.8,0.8,0.8,0.8C113.6,49.9,113.6,49.9,112.9,49.9"/>
</g>
<g>
	<path d="M95.9,49.9C95.2,49.9,95.2,49.2,95.9,49.9c-0.8-0.8,0-1.5,0-1.5S95.9,48.4,95.9,49.9C95.9,49.2,95.9,49.9,95.9,49.9"/>
</g>
<g>
	<path d="M78.3,49.2L78.3,49.2L78.3,49.2C79,49.2,79,49.2,78.3,49.2C79,49.2,79,49.2,78.3,49.2"/>
</g>
<g>
	<polyline points="61.4,49.2 61.4,49.2 61.4,49.2 61.4,49.2 61.4,49.2 	"/>
</g>
<g>
	<path d="M360.4,66.1L360.4,66.1L360.4,66.1L360.4,66.1L360.4,66.1"/>
</g>
<g>
	<path d="M343.5,66.8C343.5,66.8,342.7,66.8,343.5,66.8c-0.8-0.8,0-0.8,0-0.8C343.5,65.3,344.3,66.1,343.5,66.8
		C344.3,66.8,343.5,66.8,343.5,66.8"/>
</g>
<g>
	<path d="M326.6,66.8c-0.8,0-0.8-0.8-0.8-0.8c0-0.8,0.8-0.8,0.8-0.8c0.8,0,0.8,0.8,0.8,0.8C327.3,66.8,326.6,66.8,326.6,66.8"/>
</g>
<g>
	<path d="M308.9,67.6c-0.8,0-1.5-0.8-1.5-1.5c0-0.8,0.8-1.5,1.5-1.5c0.8,0,1.5,0.8,1.5,1.5C311.2,66.8,310.4,67.6,308.9,67.6"/>
</g>
<g>
	<path d="M292,68.4c-1.5,0-2.3-0.8-2.3-2.3s0.8-2.3,2.3-2.3c1.5,0,2.3,0.8,2.3,2.3C294.3,67.6,293.5,68.4,292,68.4"/>
</g>
<g>
	<path d="M275.1,69.2c-1.5,0-3.1-1.5-3.1-3.1c0-1.5,1.5-3.1,3.1-3.1c1.5,0,3.1,1.5,3.1,3.1C278.1,67.6,276.6,69.2,275.1,69.2"/>
</g>
<g>
	<path d="M258.2,69.2c-1.5,0-3.1-1.5-3.1-3.1c0-1.5,1.5-3.1,3.1-3.1c1.5,0,3.1,1.5,3.1,3.1C261.2,67.6,259.7,69.2,258.2,69.2"/>
</g>
<g>
	<path d="M241.2,69.9c-2.3,0-3.8-1.5-3.8-3.8c0-2.3,1.5-3.8,3.8-3.8s3.8,1.5,3.8,3.8C244.3,68.4,242.8,69.9,241.2,69.9"/>
</g>
<g>
	<path d="M223.6,69.9c-2.3,0-3.8-1.5-3.8-3.8c0-2.3,1.5-3.8,3.8-3.8c2.3,0,3.8,1.5,3.8,3.8C227.4,68.4,225.9,69.9,223.6,69.9"/>
</g>
<g>
	<path d="M206.7,69.9c-2.3,0-3.8-1.5-3.8-3.8c0-2.3,1.5-3.8,3.8-3.8s3.8,1.5,3.8,3.8C210.5,68.4,209,69.9,206.7,69.9"/>
</g>
<g>
	<path d="M189.7,69.9c-2.3,0-3.8-1.5-3.8-3.8c0-2.3,1.5-3.8,3.8-3.8s3.8,1.5,3.8,3.8C193.6,68.4,192,69.9,189.7,69.9"/>
</g>
<g>
	<path d="M172.8,69.9c-2.3,0-3.8-1.5-3.8-3.8c0-2.3,1.5-3.8,3.8-3.8s3.8,1.5,3.8,3.8C175.9,68.4,174.4,69.9,172.8,69.9"/>
</g>
<g>
	<path d="M155.1,69.2c-1.5,0-3.1-1.5-3.1-3.1c0-1.5,1.5-3.1,3.1-3.1c1.5,0,3.1,1.5,3.1,3.1C158.2,67.6,157.4,69.2,155.1,69.2"/>
</g>
<g>
	<path d="M138.2,68.4c-1.5,0-2.3-0.8-2.3-2.3s0.8-2.3,2.3-2.3s2.3,0.8,2.3,2.3C141.3,67.6,139.8,68.4,138.2,68.4"/>
</g>
<g>
	<path d="M121.3,68.4c-0.8,0-2.3-0.8-2.3-2.3c0-0.8,0.8-2.3,2.3-2.3c0.8,0,2.3,0.8,2.3,2.3C123.6,67.6,122.1,68.4,121.3,68.4"/>
</g>
<g>
	<path d="M104.4,67.6c-0.8,0-1.5-0.8-1.5-1.5c0-0.8,0.8-1.5,1.5-1.5c0.8,0,1.5,0.8,1.5,1.5C105.9,66.8,105.2,67.6,104.4,67.6"/>
</g>
<g>
	<path d="M87.5,66.8c-0.8,0-0.8,0-0.8-0.8s0-0.8,0.8-0.8c0.8,0,0.8,0,0.8,0.8S87.5,66.8,87.5,66.8"/>
</g>
<g>
	<path d="M69.8,66.8C69.8,66.8,69.8,66.1,69.8,66.8C69.8,66.1,69.8,66.1,69.8,66.8C70.6,66.1,70.6,66.1,69.8,66.8
		C70.6,66.1,70.6,66.8,69.8,66.8"/>
</g>
<g>
	<path d="M52.9,66.1L52.9,66.1L52.9,66.1L52.9,66.1L52.9,66.1"/>
</g>
<g>
	<path d="M368.9,83.8C368.9,83.8,368.9,83,368.9,83.8C368.9,83,368.9,83,368.9,83.8C368.9,83,368.9,83,368.9,83.8
		C368.9,83,368.9,83.8,368.9,83.8"/>
</g>
<g>
	<path d="M351.9,83.8C351.9,83.8,351.2,83.8,351.9,83.8c-0.8-0.8,0-0.8,0-0.8C351.9,83,352.7,83,351.9,83.8
		C352.7,83.8,351.9,83.8,351.9,83.8"/>
</g>
<g>
	<path d="M335,84.5c-0.8,0-0.8-0.8-0.8-0.8c0-0.8,0.8-0.8,0.8-0.8c0.8,0,0.8,0.8,0.8,0.8S335.8,84.5,335,84.5"/>
</g>
<g>
	<path d="M318.1,85.3c-0.8,0-1.5-0.8-1.5-1.5c0-0.8,0.8-1.5,1.5-1.5s1.5,0.8,1.5,1.5C319.7,84.5,318.9,85.3,318.1,85.3"/>
</g>
<g>
	<path d="M300.4,86.1c-1.5,0-2.3-0.8-2.3-2.3c0-1.5,0.8-2.3,2.3-2.3c1.5,0,2.3,0.8,2.3,2.3C303.5,84.5,302,86.1,300.4,86.1"/>
</g>
<g>
	<path d="M283.5,86.8c-1.5,0-3.1-1.5-3.1-3.1c0-1.5,1.5-3.1,3.1-3.1c1.5,0,3.1,1.5,3.1,3.1C286.6,85.3,285.1,86.8,283.5,86.8"/>
</g>
<g>
	<path d="M266.6,87.6c-2.3,0-3.8-1.5-3.8-3.8c0-2.3,1.5-3.8,3.8-3.8s3.8,1.5,3.8,3.8C270.5,85.3,268.9,87.6,266.6,87.6"/>
</g>
<g>
	<path d="M249.7,88.4c-2.3,0-4.6-2.3-4.6-4.6c0-2.3,2.3-4.6,4.6-4.6c2.3,0,4.6,2.3,4.6,4.6C254.3,86.1,252,88.4,249.7,88.4"/>
</g>
<g>
	<path d="M232,88.4c-3.1,0-5.4-2.3-5.4-5.4c0-3.1,2.3-5.4,5.4-5.4c3.1,0,5.4,2.3,5.4,5.4C237.4,86.1,235.1,88.4,232,88.4"/>
</g>
<g>
	<path d="M215.1,89.1c-3.1,0-5.4-2.3-5.4-5.4c0-3.1,2.3-5.4,5.4-5.4c3.1,0,5.4,2.3,5.4,5.4C221.3,86.1,218.2,89.1,215.1,89.1"/>
</g>
<g>
	<path d="M198.2,89.1c-3.1,0-6.2-2.3-6.2-6.2c0-3.1,2.3-6.2,6.2-6.2c3.1,0,6.2,2.3,6.2,6.2C204.3,86.8,201.3,89.1,198.2,89.1"/>
</g>
<g>
	<path d="M181.3,89.1c-3.1,0-5.4-2.3-5.4-5.4c0-3.1,2.3-5.4,5.4-5.4c3.1,0,5.4,2.3,5.4,5.4C186.7,86.8,184.4,89.1,181.3,89.1"/>
</g>
<g>
	<path d="M164.4,88.4c-3.1,0-5.4-2.3-5.4-5.4c0-3.1,2.3-5.4,5.4-5.4s5.4,2.3,5.4,5.4C169,86.1,166.7,88.4,164.4,88.4"/>
</g>
<g>
	<path d="M146.7,87.6c-2.3,0-4.6-2.3-4.6-4.6c0-2.3,2.3-4.6,4.6-4.6s4.6,2.3,4.6,4.6C151.3,86.1,149.8,87.6,146.7,87.6"/>
</g>
<g>
	<path d="M129.8,86.8c-2.3,0-3.8-1.5-3.8-3.8c0-2.3,1.5-3.8,3.8-3.8c2.3,0,3.8,1.5,3.8,3.8C133.6,85.3,132.1,86.8,129.8,86.8"/>
</g>
<g>
	<path d="M112.9,86.1c-1.5,0-3.1-1.5-3.1-3.1c0-1.5,1.5-3.1,3.1-3.1c1.5,0,3.1,1.5,3.1,3.1C115.9,84.5,114.4,86.1,112.9,86.1"/>
</g>
<g>
	<path d="M95.9,85.3c-1.5,0-2.3-0.8-2.3-2.3c0-1.5,0.8-2.3,2.3-2.3c1.5,0,2.3,0.8,2.3,2.3C98.3,84.5,96.7,85.3,95.9,85.3"/>
</g>
<g>
	<path d="M78.3,84.5c-0.8,0-1.5-0.8-1.5-1.5c0-0.8,0.8-1.5,1.5-1.5c0.8,0,1.5,0.8,1.5,1.5C79.8,83.8,79.8,84.5,78.3,84.5"/>
</g>
<g>
	<path d="M61.4,83.8c-0.8,0-0.8,0-0.8-0.8s0-0.8,0.8-0.8c0.8,0,0.8,0,0.8,0.8S62.1,83.8,61.4,83.8"/>
</g>
<g>
	<path d="M44.4,83.8L44.4,83.8C44.4,83,44.4,83,44.4,83.8C44.4,83,44.4,83,44.4,83.8L44.4,83.8"/>
</g>
<g>
	<polyline points="27.5,83 27.5,83 27.5,83 27.5,83 27.5,83 	"/>
</g>
<g>
	<polyline points="395,100.7 395,100.7 395,100.7 395,100.7 395,100.7 	"/>
</g>
<g>
	<path d="M377.3,100.7L377.3,100.7C377.3,99.9,377.3,99.9,377.3,100.7C378.1,99.9,378.1,99.9,377.3,100.7
		C378.1,100.7,378.1,100.7,377.3,100.7"/>
</g>
<g>
	<path d="M360.4,101.4c-0.8,0-0.8,0-0.8-0.8s0-0.8,0.8-0.8c0.8,0,0.8,0,0.8,0.8S361.2,101.4,360.4,101.4"/>
</g>
<g>
	<path d="M343.5,102.2c-0.8,0-1.5-0.8-1.5-1.5c0-0.8,0.8-1.5,1.5-1.5s1.5,0.8,1.5,1.5C345,101.4,344.3,102.2,343.5,102.2"/>
</g>
<g>
	<path d="M326.6,103c-1.5,0-2.3-0.8-2.3-2.3c0-1.5,0.8-2.3,2.3-2.3c1.5,0,2.3,0.8,2.3,2.3C328.9,101.4,327.3,103,326.6,103"/>
</g>
<g>
	<path d="M308.9,103.7c-1.5,0-3.1-1.5-3.1-3.1c0-1.5,1.5-3.1,3.1-3.1c1.5,0,3.1,1.5,3.1,3.1C312.7,102.2,311.2,103.7,308.9,103.7"/>
</g>
<g>
	<path d="M292,104.5c-2.3,0-4.6-2.3-4.6-4.6c0-2.3,2.3-4.6,4.6-4.6c2.3,0,4.6,2.3,4.6,4.6C296.6,103,294.3,104.5,292,104.5"/>
</g>
<g>
	<path d="M275.1,106.1c-3.1,0-5.4-2.3-5.4-5.4s2.3-5.4,5.4-5.4c3.1,0,5.4,2.3,5.4,5.4C280.5,103,278.1,106.1,275.1,106.1"/>
</g>
<g>
	<path d="M258.2,106.8c-3.8,0-6.2-3.1-6.2-6.2c0-3.8,3.1-6.2,6.2-6.2c3.8,0,6.2,3.1,6.2,6.2C264.3,103.7,261.2,106.8,258.2,106.8"/>
</g>
<g>
	<path d="M241.2,107.6c-3.8,0-6.9-3.1-6.9-6.9s3.1-6.9,6.9-6.9s6.9,3.1,6.9,6.9C248.2,104.5,245.1,107.6,241.2,107.6"/>
</g>
<g>
	<path d="M223.6,108.4c-4.6,0-7.7-3.1-7.7-7.7s3.1-7.7,7.7-7.7c4.6,0,7.7,3.1,7.7,7.7C231.3,104.5,228.2,108.4,223.6,108.4"/>
</g>
<g>
	<path d="M206.7,108.4c-4.6,0-7.7-3.8-7.7-7.7s3.8-7.7,7.7-7.7c4.6,0,7.7,3.8,7.7,7.7S211.3,108.4,206.7,108.4"/>
</g>
<g>
	<path d="M189.7,107.6c-3.8,0-7.7-3.1-7.7-7.7c0-3.8,3.1-7.7,7.7-7.7c3.8,0,7.7,3.1,7.7,7.7S193.6,107.6,189.7,107.6"/>
</g>
<g>
	<path d="M172.8,107.6c-3.8,0-6.9-3.1-6.9-6.9s3.1-6.9,6.9-6.9s6.9,3.1,6.9,6.9S176.7,107.6,172.8,107.6"/>
</g>
<g>
	<path d="M155.1,106.1c-3.1,0-6.2-3.1-6.2-6.2c0-3.1,3.1-6.2,6.2-6.2c3.1,0,6.2,3.1,6.2,6.2C161.3,103.7,159,106.1,155.1,106.1"/>
</g>
<g>
	<path d="M138.2,105.3c-3.1,0-5.4-2.3-5.4-5.4s2.3-5.4,5.4-5.4s5.4,2.3,5.4,5.4S141.3,105.3,138.2,105.3"/>
</g>
<g>
	<path d="M121.3,104.5c-2.3,0-3.8-1.5-3.8-3.8c0-2.3,1.5-3.8,3.8-3.8s3.8,1.5,3.8,3.8C125.2,103,123.6,104.5,121.3,104.5"/>
</g>
<g>
	<path d="M104.4,103.7c-1.5,0-3.1-1.5-3.1-3.1c0-1.5,1.5-3.1,3.1-3.1c1.5,0,3.1,1.5,3.1,3.1C107.5,102.2,105.9,103.7,104.4,103.7"/>
</g>
<g>
	<path d="M87.5,102.2c-1.5,0-2.3-0.8-2.3-2.3c0-1.5,0.8-2.3,2.3-2.3c1.5,0,2.3,0.8,2.3,2.3C89,101.4,88.3,102.2,87.5,102.2"/>
</g>
<g>
	<path d="M69.8,101.4c-0.8,0-1.5-0.8-1.5-1.5c0-0.8,0.8-1.5,1.5-1.5c0.8,0,1.5,0.8,1.5,1.5C71.3,101.4,70.6,101.4,69.8,101.4"/>
</g>
<g>
	<path d="M52.9,100.7C52.9,100.7,52.1,100.7,52.9,100.7c-0.8-0.8,0-1.5,0-1.5C53.7,99.9,53.7,99.9,52.9,100.7
		C53.7,100.7,53.7,100.7,52.9,100.7"/>
</g>
<g>
	<path d="M36,100.7L36,100.7C36,99.9,36,99.9,36,100.7C36,99.9,36,99.9,36,100.7L36,100.7"/>
</g>
<g>
	<path d="M385.8,117.6L385.8,117.6L385.8,117.6C386.5,117.6,386.5,117.6,385.8,117.6C386.5,117.6,386.5,117.6,385.8,117.6"/>
</g>
<g>
	<path d="M368.9,117.6L368.9,117.6c-0.8-0.8,0-0.8,0-0.8C369.6,116.8,369.6,116.8,368.9,117.6C369.6,117.6,369.6,117.6,368.9,117.6"
		/>
</g>
<g>
	<path d="M351.9,118.4c-0.8,0-1.5-0.8-1.5-1.5c0-0.8,0.8-1.5,1.5-1.5s1.5,0.8,1.5,1.5C353.5,118.4,352.7,118.4,351.9,118.4"/>
</g>
<g>
	<path d="M335,119.1c-0.8,0-2.3-0.8-2.3-2.3s0.8-2.3,2.3-2.3c0.8,0,2.3,0.8,2.3,2.3S335.8,119.1,335,119.1"/>
</g>
<g>
	<path d="M318.1,120.7c-1.5,0-3.1-1.5-3.1-3.1s1.5-3.1,3.1-3.1c1.5,0,3.1,1.5,3.1,3.1S319.7,120.7,318.1,120.7"/>
</g>
<g>
	<path d="M300.4,121.4c-2.3,0-3.8-1.5-3.8-3.8s1.5-3.8,3.8-3.8c2.3,0,3.8,1.5,3.8,3.8C305.1,119.9,302.7,121.4,300.4,121.4"/>
</g>
<g>
	<path d="M283.5,123c-3.1,0-5.4-2.3-5.4-5.4s2.3-5.4,5.4-5.4c3.1,0,5.4,2.3,5.4,5.4S286.6,123,283.5,123"/>
</g>
<g>
	<path d="M266.6,124.5c-3.8,0-6.9-3.1-6.9-6.9s3.1-6.9,6.9-6.9s6.9,3.1,6.9,6.9S270.5,124.5,266.6,124.5"/>
</g>
<g>
	<path d="M249.7,125.3c-4.6,0-7.7-3.8-7.7-7.7c0-4.6,3.8-7.7,7.7-7.7c4.6,0,7.7,3.8,7.7,7.7C257.4,122.2,253.5,125.3,249.7,125.3"/>
</g>
<g>
	<path d="M232,126c-4.6,0-8.5-3.8-8.5-8.5s3.8-8.5,8.5-8.5c4.6,0,8.5,3.8,8.5,8.5C241.2,122.2,237.4,126,232,126"/>
</g>
<g>
	<path d="M215.1,126c-4.6,0-8.5-3.8-8.5-8.5s3.8-8.5,8.5-8.5c4.6,0,8.5,3.8,8.5,8.5C224.3,122.2,220.5,126,215.1,126"/>
</g>
<g>
	<path d="M198.2,126c-4.6,0-8.5-3.8-8.5-8.5s3.8-8.5,8.5-8.5s8.5,3.8,8.5,8.5C206.7,122.2,202.8,126,198.2,126"/>
</g>
<g>
	<path d="M181.3,126c-4.6,0-8.5-3.8-8.5-8.5s3.8-8.5,8.5-8.5c4.6,0,8.5,3.8,8.5,8.5C189.7,122.2,185.9,126,181.3,126"/>
</g>
<g>
	<path d="M164.4,126c-4.6,0-8.5-3.8-8.5-8.5s3.8-8.5,8.5-8.5s8.5,3.8,8.5,8.5S169,126,164.4,126"/>
</g>
<g>
	<path d="M146.7,125.3c-3.8,0-7.7-3.1-7.7-7.7s3.1-7.7,7.7-7.7c3.8,0,7.7,3.1,7.7,7.7S151.3,125.3,146.7,125.3"/>
</g>
<g>
	<path d="M129.8,123.7c-3.1,0-6.2-3.1-6.2-6.2c0-3.1,3.1-6.2,6.2-6.2c3.1,0,6.2,3.1,6.2,6.2C135.9,120.7,133.6,123.7,129.8,123.7"/>
</g>
<g>
	<path d="M112.9,122.2c-3.1,0-4.6-2.3-4.6-4.6c0-3.1,2.3-4.6,4.6-4.6c3.1,0,4.6,2.3,4.6,4.6C117.5,119.9,115.2,122.2,112.9,122.2"/>
</g>
<g>
	<path d="M95.9,121.4c-2.3,0-3.8-1.5-3.8-3.8s1.5-3.8,3.8-3.8c2.3,0,3.8,1.5,3.8,3.8S97.5,121.4,95.9,121.4"/>
</g>
<g>
	<path d="M78.3,119.9c-1.5,0-3.1-1.5-3.1-3.1c0-1.5,1.5-3.1,3.1-3.1c1.5,0,3.1,1.5,3.1,3.1C81.3,119.1,79.8,119.9,78.3,119.9"/>
</g>
<g>
	<path d="M61.4,119.1c-0.8,0-1.5-0.8-1.5-1.5c0-0.8,0.8-1.5,1.5-1.5c0.8,0,1.5,0.8,1.5,1.5C63.7,118.4,62.1,119.1,61.4,119.1"/>
</g>
<g>
	<path d="M44.4,118.4c-0.8,0-0.8-0.8-0.8-0.8c0-0.8,0.8-0.8,0.8-0.8c0.8,0,0.8,0.8,0.8,0.8C45.2,117.6,45.2,118.4,44.4,118.4"/>
</g>
<g>
	<path d="M27.5,117.6C27.5,117.6,26.8,117.6,27.5,117.6C26.8,117.6,27.5,116.8,27.5,117.6C27.5,116.8,27.5,117.6,27.5,117.6
		L27.5,117.6"/>
</g>
<g>
	<polyline points="10.6,117.6 10.6,117.6 10.6,117.6 10.6,117.6 10.6,117.6 	"/>
</g>
<g>
	<path d="M395,134.5C394.2,134.5,394.2,134.5,395,134.5C394.2,134.5,394.2,134.5,395,134.5L395,134.5L395,134.5"/>
</g>
<g>
	<path d="M377.3,135.3C377.3,135.3,376.5,135.3,377.3,135.3c-0.8-0.8-0.8-1.5,0-1.5C378.1,133.7,378.1,134.5,377.3,135.3
		C378.1,135.3,378.1,135.3,377.3,135.3"/>
</g>
<g>
	<path d="M360.4,136c-0.8,0-1.5-0.8-1.5-1.5c0-0.8,0.8-1.5,1.5-1.5c0.8,0,1.5,0.8,1.5,1.5C361.9,135.3,361.2,136,360.4,136"/>
</g>
<g>
	<path d="M343.5,136.8c-1.5,0-2.3-0.8-2.3-2.3s0.8-2.3,2.3-2.3c1.5,0,2.3,0.8,2.3,2.3S345,136.8,343.5,136.8"/>
</g>
<g>
	<path d="M326.6,138.3c-1.5,0-3.1-1.5-3.1-3.1c0-1.5,1.5-3.1,3.1-3.1c1.5,0,3.1,1.5,3.1,3.1C329.7,136.8,328.1,138.3,326.6,138.3"/>
</g>
<g>
	<path d="M308.9,139.1c-2.3,0-4.6-2.3-4.6-4.6s2.3-4.6,4.6-4.6c2.3,0,4.6,2.3,4.6,4.6C314.3,136.8,312,139.1,308.9,139.1"/>
</g>
<g>
	<path d="M292,140.7c-3.1,0-6.2-3.1-6.2-6.2s3.1-6.2,6.2-6.2c3.1,0,6.2,3.1,6.2,6.2S295.8,140.7,292,140.7"/>
</g>
<g>
	<path d="M275.1,142.2c-4.6,0-7.7-3.1-7.7-7.7c0-4.6,3.1-7.7,7.7-7.7s7.7,3.1,7.7,7.7C282.8,139.1,279.7,142.2,275.1,142.2"/>
</g>
<g>
	<path d="M258.2,143.7c-4.6,0-8.5-3.8-8.5-8.5s3.8-8.5,8.5-8.5c4.6,0,8.5,3.8,8.5,8.5S262.8,143.7,258.2,143.7"/>
</g>
<g>
	<path d="M241.2,143.7c-4.6,0-8.5-3.8-8.5-8.5s3.8-8.5,8.5-8.5c4.6,0,8.5,3.8,8.5,8.5S245.9,143.7,241.2,143.7"/>
</g>
<g>
	<path d="M223.6,143.7c-4.6,0-8.5-3.8-8.5-8.5s3.8-8.5,8.5-8.5c4.6,0,8.5,3.8,8.5,8.5S228.9,143.7,223.6,143.7"/>
</g>
<g>
	<path d="M206.7,143.7c-4.6,0-8.5-3.8-8.5-8.5s3.8-8.5,8.5-8.5s8.5,3.8,8.5,8.5S211.3,143.7,206.7,143.7"/>
</g>
<g>
	<path d="M189.7,143.7c-4.6,0-8.5-3.8-8.5-8.5s3.8-8.5,8.5-8.5c4.6,0,8.5,3.8,8.5,8.5S194.3,143.7,189.7,143.7"/>
</g>
<g>
	<path d="M172.8,143.7c-4.6,0-8.5-3.8-8.5-8.5s3.8-8.5,8.5-8.5s8.5,3.8,8.5,8.5S177.4,143.7,172.8,143.7"/>
</g>
<g>
	<path d="M155.1,143c-4.6,0-8.5-3.8-8.5-8.5c0-4.6,3.8-8.5,8.5-8.5c4.6,0,8.5,3.8,8.5,8.5C164.4,139.1,160.5,143,155.1,143"/>
</g>
<g>
	<path d="M138.2,141.4c-3.8,0-6.9-3.1-6.9-6.9s3.1-6.9,6.9-6.9s6.9,3.1,6.9,6.9C145.9,138.3,142.1,141.4,138.2,141.4"/>
</g>
<g>
	<path d="M121.3,139.9c-3.1,0-5.4-2.3-5.4-5.4c0-3.1,2.3-5.4,5.4-5.4s5.4,2.3,5.4,5.4C126.7,137.6,124.4,139.9,121.3,139.9"/>
</g>
<g>
	<path d="M104.4,139.1c-2.3,0-4.6-2.3-4.6-4.6s2.3-4.6,4.6-4.6s4.6,2.3,4.6,4.6C108.2,136.8,106.7,139.1,104.4,139.1"/>
</g>
<g>
	<path d="M87.5,137.6c-1.5,0-3.1-1.5-3.1-3.1s1.5-3.1,3.1-3.1c1.5,0,3.1,1.5,3.1,3.1C90.6,136,89,137.6,87.5,137.6"/>
</g>
<g>
	<path d="M69.8,136.8c-0.8,0-2.3-0.8-2.3-2.3c0-0.8,0.8-2.3,2.3-2.3c0.8,0,2.3,0.8,2.3,2.3C72.1,136,71.3,136.8,69.8,136.8"/>
</g>
<g>
	<path d="M52.9,136c-0.8,0-0.8-0.8-0.8-0.8l0.8-0.8c0.8,0,0.8,0.8,0.8,0.8S53.7,136,52.9,136"/>
</g>
<g>
	<path d="M36,135.3C36,135.3,35.2,134.5,36,135.3c-0.8-0.8,0-0.8,0-0.8C36,133.7,36.8,134.5,36,135.3C36.8,134.5,36,135.3,36,135.3"
		/>
</g>
<g>
	<path d="M19.1,134.5L19.1,134.5L19.1,134.5L19.1,134.5L19.1,134.5"/>
</g>
<g>
	<path d="M385.8,152.2C385.8,152.2,385.8,151.4,385.8,152.2C385.8,151.4,385.8,151.4,385.8,152.2
		C386.5,151.4,386.5,151.4,385.8,152.2C386.5,151.4,386.5,152.2,385.8,152.2"/>
</g>
<g>
	<path d="M368.9,152.2C368.9,152.2,368.1,152.2,368.9,152.2c-0.8-1.5-0.8-1.5,0-1.5C369.6,150.6,369.6,151.4,368.9,152.2
		C369.6,152.2,369.6,152.2,368.9,152.2"/>
</g>
<g>
	<path d="M351.9,153c-0.8,0-1.5-0.8-1.5-1.5c0-0.8,0.8-1.5,1.5-1.5s1.5,0.8,1.5,1.5C353.5,152.2,352.7,153,351.9,153"/>
</g>
<g>
	<path d="M335,153.7c-1.5,0-2.3-0.8-2.3-2.3c0-1.5,0.8-2.3,2.3-2.3c1.5,0,2.3,0.8,2.3,2.3C337.3,153,336.6,153.7,335,153.7"/>
</g>
<g>
	<path d="M318.1,155.3c-2.3,0-3.8-1.5-3.8-3.8s1.5-3.8,3.8-3.8c2.3,0,3.8,1.5,3.8,3.8C321.2,153.7,319.7,155.3,318.1,155.3"/>
</g>
<g>
	<path d="M300.4,156.8c-3.1,0-4.6-2.3-4.6-4.6c0-3.1,2.3-4.6,4.6-4.6c3.1,0,4.6,2.3,4.6,4.6C305.8,154.5,303.5,156.8,300.4,156.8"/>
</g>
<g>
	<path d="M283.5,158.3c-3.8,0-6.2-3.1-6.2-6.2c0-3.8,3.1-6.2,6.2-6.2c3.8,0,6.2,3.1,6.2,6.2C289.7,155.3,287.4,158.3,283.5,158.3"/>
</g>
<g>
	<path d="M266.6,159.9c-4.6,0-7.7-3.8-7.7-7.7s3.8-7.7,7.7-7.7c4.6,0,7.7,3.8,7.7,7.7S271.2,159.9,266.6,159.9"/>
</g>
<g>
	<path d="M249.7,160.6c-4.6,0-8.5-3.8-8.5-8.5c0-4.6,3.8-8.5,8.5-8.5c4.6,0,8.5,3.8,8.5,8.5C258.2,156.8,254.3,160.6,249.7,160.6"/>
</g>
<g>
	<path d="M232,160.6c-4.6,0-8.5-3.8-8.5-8.5c0-4.6,3.8-8.5,8.5-8.5c4.6,0,8.5,3.8,8.5,8.5C241.2,156.8,237.4,160.6,232,160.6"/>
</g>
<g>
	<path d="M215.1,160.6c-4.6,0-8.5-3.8-8.5-8.5c0-4.6,3.8-8.5,8.5-8.5c4.6,0,8.5,3.8,8.5,8.5C224.3,156.8,220.5,160.6,215.1,160.6"/>
</g>
<g>
	<path d="M198.2,160.6c-4.6,0-8.5-3.8-8.5-8.5c0-4.6,3.8-8.5,8.5-8.5s8.5,3.8,8.5,8.5C206.7,156.8,202.8,160.6,198.2,160.6"/>
</g>
<g>
	<path d="M181.3,160.6c-4.6,0-8.5-3.8-8.5-8.5c0-4.6,3.8-8.5,8.5-8.5c4.6,0,8.5,3.8,8.5,8.5C189.7,156.8,185.9,160.6,181.3,160.6"/>
</g>
<g>
	<path d="M164.4,160.6c-4.6,0-8.5-3.8-8.5-8.5c0-4.6,3.8-8.5,8.5-8.5s8.5,3.8,8.5,8.5C172.8,156.8,169,160.6,164.4,160.6"/>
</g>
<g>
	<path d="M146.7,160.6c-4.6,0-8.5-3.8-8.5-8.5c0-4.6,3.8-8.5,8.5-8.5s8.5,3.8,8.5,8.5C155.9,156.8,152.1,160.6,146.7,160.6"/>
</g>
<g>
	<path d="M129.8,159.1c-3.8,0-7.7-3.1-7.7-7.7c0-4.6,3.1-7.7,7.7-7.7c3.8,0,7.7,3.1,7.7,7.7C137.5,156,134.4,159.1,129.8,159.1"/>
</g>
<g>
	<path d="M112.9,157.6c-3.1,0-6.2-2.3-6.2-6.2c0-3.1,2.3-6.2,6.2-6.2c3.1,0,6.2,2.3,6.2,6.2S115.9,157.6,112.9,157.6"/>
</g>
<g>
	<path d="M95.9,156c-2.3,0-4.6-2.3-4.6-4.6s2.3-4.6,4.6-4.6c2.3,0,4.6,2.3,4.6,4.6S98.3,156,95.9,156"/>
</g>
<g>
	<path d="M78.3,154.5c-1.5,0-3.1-1.5-3.1-3.1c0-1.5,1.5-3.1,3.1-3.1c1.5,0,3.1,1.5,3.1,3.1C81.3,153,80.6,154.5,78.3,154.5"/>
</g>
<g>
	<path d="M61.4,153.7c-1.5,0-2.3-0.8-2.3-2.3c0-1.5,0.8-2.3,2.3-2.3c1.5,0,2.3,0.8,2.3,2.3C63.7,153,62.9,153.7,61.4,153.7"/>
</g>
<g>
	<path d="M44.4,153c-0.8,0-1.5-0.8-1.5-1.5s0.8-1.5,1.5-1.5c0.8,0,1.5,0.8,1.5,1.5S45.2,153,44.4,153"/>
</g>
<g>
	<path d="M27.5,152.2C26.8,152.2,26.8,152.2,27.5,152.2c-0.8-0.8,0-0.8,0-0.8S28.3,151.4,27.5,152.2
		C28.3,152.2,27.5,152.2,27.5,152.2"/>
</g>
<g>
	<path d="M10.6,151.4C9.8,151.4,9.8,151.4,10.6,151.4C9.8,151.4,9.8,151.4,10.6,151.4L10.6,151.4L10.6,151.4"/>
</g>
<g>
	<path d="M395,169.1C394.2,169.1,394.2,169.1,395,169.1C394.2,168.3,394.2,168.3,395,169.1C395,168.3,395,168.3,395,169.1L395,169.1
		"/>
</g>
<g>
	<path d="M377.3,169.1C377.3,169.1,376.5,169.1,377.3,169.1c-0.8-0.8-0.8-1.5,0-1.5C378.1,168.3,378.1,168.3,377.3,169.1
		C378.1,169.1,378.1,169.1,377.3,169.1"/>
</g>
<g>
	<path d="M360.4,169.9c-0.8,0-1.5-0.8-1.5-1.5c0-0.8,0.8-1.5,1.5-1.5c0.8,0,1.5,0.8,1.5,1.5C361.9,169.9,361.2,169.9,360.4,169.9"/>
</g>
<g>
	<path d="M343.5,171.4c-1.5,0-2.3-0.8-2.3-2.3s0.8-2.3,2.3-2.3c1.5,0,2.3,0.8,2.3,2.3S345,171.4,343.5,171.4"/>
</g>
<g>
	<path d="M326.6,172.2c-1.5,0-3.1-1.5-3.1-3.1s1.5-3.1,3.1-3.1c1.5,0,3.1,1.5,3.1,3.1S328.1,172.2,326.6,172.2"/>
</g>
<g>
	<path d="M308.9,173.7c-2.3,0-4.6-2.3-4.6-4.6s2.3-4.6,4.6-4.6c2.3,0,4.6,2.3,4.6,4.6C314.3,171.4,312,173.7,308.9,173.7"/>
</g>
<g>
	<path d="M292,174.5c-3.1,0-6.2-3.1-6.2-6.2c0-3.1,3.1-6.2,6.2-6.2c3.1,0,6.2,3.1,6.2,6.2C298.1,172.2,295.8,174.5,292,174.5"/>
</g>
<g>
	<path d="M275.1,176c-4.6,0-7.7-3.1-7.7-7.7c0-4.6,3.1-7.7,7.7-7.7s7.7,3.1,7.7,7.7C282.8,172.9,279.7,176,275.1,176"/>
</g>
<g>
	<path d="M258.2,177.6c-4.6,0-8.5-3.8-8.5-8.5c0-4.6,3.8-8.5,8.5-8.5c4.6,0,8.5,3.8,8.5,8.5C266.6,173.7,262.8,177.6,258.2,177.6"/>
</g>
<g>
	<path d="M241.2,177.6c-4.6,0-8.5-3.8-8.5-8.5c0-4.6,3.8-8.5,8.5-8.5c4.6,0,8.5,3.8,8.5,8.5C249.7,173.7,245.9,177.6,241.2,177.6"/>
</g>
<g>
	<path d="M223.6,177.6c-4.6,0-8.5-3.8-8.5-8.5c0-4.6,3.8-8.5,8.5-8.5c4.6,0,8.5,3.8,8.5,8.5C232.8,173.7,228.9,177.6,223.6,177.6"/>
</g>
<g>
	<path d="M206.7,177.6c-4.6,0-8.5-3.8-8.5-8.5c0-4.6,3.8-8.5,8.5-8.5s8.5,3.8,8.5,8.5C215.9,173.7,211.3,177.6,206.7,177.6"/>
</g>
<g>
	<path d="M189.7,177.6c-4.6,0-8.5-3.8-8.5-8.5c0-4.6,3.8-8.5,8.5-8.5c4.6,0,8.5,3.8,8.5,8.5C198.2,173.7,194.3,177.6,189.7,177.6"/>
</g>
<g>
	<path d="M172.8,177.6c-4.6,0-8.5-3.8-8.5-8.5c0-4.6,3.8-8.5,8.5-8.5s8.5,3.8,8.5,8.5C181.3,173.7,177.4,177.6,172.8,177.6"/>
</g>
<g>
	<path d="M155.1,177.6c-4.6,0-8.5-3.8-8.5-8.5c0-4.6,3.8-8.5,8.5-8.5c4.6,0,8.5,3.8,8.5,8.5C163.6,173.7,160.5,177.6,155.1,177.6"/>
</g>
<g>
	<path d="M138.2,176c-3.8,0-6.9-3.1-6.9-6.9s3.1-6.9,6.9-6.9s6.9,3.1,6.9,6.9C145.9,172.9,142.1,176,138.2,176"/>
</g>
<g>
	<path d="M121.3,174.5c-3.1,0-5.4-2.3-5.4-5.4s2.3-5.4,5.4-5.4s5.4,2.3,5.4,5.4S124.4,174.5,121.3,174.5"/>
</g>
<g>
	<path d="M104.4,172.9c-2.3,0-4.6-2.3-4.6-4.6c0-2.3,2.3-4.6,4.6-4.6s4.6,2.3,4.6,4.6C108.2,171.4,106.7,172.9,104.4,172.9"/>
</g>
<g>
	<path d="M87.5,171.4c-1.5,0-3.1-1.5-3.1-3.1s1.5-3.1,3.1-3.1c1.5,0,3.1,1.5,3.1,3.1C90.6,170.6,89,171.4,87.5,171.4"/>
</g>
<g>
	<path d="M69.8,170.6c-0.8,0-2.3-0.8-2.3-2.3c0-1.5,0.8-2.3,2.3-2.3c0.8,0,2.3,0.8,2.3,2.3C72.1,169.9,71.3,170.6,69.8,170.6"/>
</g>
<g>
	<path d="M52.9,169.9c-0.8,0-0.8-0.8-0.8-0.8l0.8-0.8c0.8,0,0.8,0.8,0.8,0.8S53.7,169.9,52.9,169.9"/>
</g>
<g>
	<path d="M36,169.1C36,169.1,35.2,169.1,36,169.1c-0.8-0.8,0-0.8,0-0.8S36.8,168.3,36,169.1C36.8,169.1,36,169.1,36,169.1"/>
</g>
<g>
	<path d="M19.1,169.1L19.1,169.1C19.1,168.3,19.1,168.3,19.1,169.1C19.1,168.3,19.1,168.3,19.1,169.1L19.1,169.1"/>
</g>
<g>
	<path d="M385.8,186L385.8,186L385.8,186C386.5,186,386.5,186,385.8,186C386.5,186,386.5,186,385.8,186"/>
</g>
<g>
	<path d="M368.9,186L368.9,186c-0.8-0.8,0-0.8,0-0.8C369.6,185.2,369.6,185.2,368.9,186C369.6,186,369.6,186,368.9,186"/>
</g>
<g>
	<path d="M351.9,186.8c-0.8,0-1.5-0.8-1.5-1.5c0-0.8,0.8-1.5,1.5-1.5s1.5,0.8,1.5,1.5C353.5,186.8,352.7,186.8,351.9,186.8"/>
</g>
<g>
	<path d="M335,187.5c-0.8,0-2.3-0.8-2.3-2.3c0-0.8,0.8-2.3,2.3-2.3c0.8,0,2.3,0.8,2.3,2.3C336.6,186.8,335.8,187.5,335,187.5"/>
</g>
<g>
	<path d="M318.1,189.1c-1.5,0-3.1-1.5-3.1-3.1c0-1.5,1.5-3.1,3.1-3.1c1.5,0,3.1,1.5,3.1,3.1C321.2,187.5,319.7,189.1,318.1,189.1"/>
</g>
<g>
	<path d="M300.4,189.9c-2.3,0-3.8-1.5-3.8-3.8c0-2.3,1.5-3.8,3.8-3.8c2.3,0,3.8,1.5,3.8,3.8C305.1,188.3,302.7,189.9,300.4,189.9"/>
</g>
<g>
	<path d="M283.5,191.4c-3.1,0-5.4-2.3-5.4-5.4c0-3.1,2.3-5.4,5.4-5.4c3.1,0,5.4,2.3,5.4,5.4C288.9,189.1,286.6,191.4,283.5,191.4"/>
</g>
<g>
	<path d="M266.6,192.2c-3.8,0-6.9-3.1-6.9-6.9s3.1-6.9,6.9-6.9s6.9,3.1,6.9,6.9C273.5,189.9,270.5,192.2,266.6,192.2"/>
</g>
<g>
	<path d="M249.7,193.7c-4.6,0-7.7-3.8-7.7-7.7c0-4.6,3.8-7.7,7.7-7.7c4.6,0,7.7,3.8,7.7,7.7C257.4,189.9,253.5,193.7,249.7,193.7"/>
</g>
<g>
	<path d="M232,194.5c-4.6,0-8.5-3.8-8.5-8.5c0-4.6,3.8-8.5,8.5-8.5c4.6,0,8.5,3.8,8.5,8.5C240.5,190.6,237.4,194.5,232,194.5"/>
</g>
<g>
	<path d="M215.1,194.5c-4.6,0-8.5-3.8-8.5-8.5c0-4.6,3.8-8.5,8.5-8.5c4.6,0,8.5,3.8,8.5,8.5C223.6,190.6,220.5,194.5,215.1,194.5"/>
</g>
<g>
	<path d="M198.2,194.5c-4.6,0-8.5-3.8-8.5-8.5c0-4.6,3.8-8.5,8.5-8.5s8.5,3.8,8.5,8.5C206.7,190.6,202.8,194.5,198.2,194.5"/>
</g>
<g>
	<path d="M181.3,194.5c-4.6,0-8.5-3.8-8.5-8.5c0-4.6,3.8-8.5,8.5-8.5c4.6,0,8.5,3.8,8.5,8.5C189.7,190.6,185.9,194.5,181.3,194.5"/>
</g>
<g>
	<path d="M164.4,194.5c-4.6,0-8.5-3.8-8.5-8.5c0-4.6,3.8-8.5,8.5-8.5s8.5,3.8,8.5,8.5C172.8,190.6,169,194.5,164.4,194.5"/>
</g>
<g>
	<path d="M146.7,193.7c-3.8,0-7.7-3.1-7.7-7.7c0-4.6,3.1-7.7,7.7-7.7c3.8,0,7.7,3.1,7.7,7.7C154.4,190.6,151.3,193.7,146.7,193.7"/>
</g>
<g>
	<path d="M129.8,192.2c-3.8,0-6.2-3.1-6.2-6.2c0-3.8,3.1-6.2,6.2-6.2c3.8,0,6.2,3.1,6.2,6.2C135.9,189.1,133.6,192.2,129.8,192.2"/>
</g>
<g>
	<path d="M112.9,190.6c-3.1,0-4.6-2.3-4.6-4.6c0-3.1,2.3-4.6,4.6-4.6c3.1,0,4.6,2.3,4.6,4.6C117.5,188.3,115.2,190.6,112.9,190.6"/>
</g>
<g>
	<path d="M95.9,189.9c-2.3,0-3.8-1.5-3.8-3.8c0-2.3,1.5-3.8,3.8-3.8c2.3,0,3.8,1.5,3.8,3.8C99.8,187.5,97.5,189.9,95.9,189.9"/>
</g>
<g>
	<path d="M78.3,188.3c-1.5,0-3.1-1.5-3.1-3.1c0-1.5,1.5-3.1,3.1-3.1c1.5,0,3.1,1.5,3.1,3.1C81.3,187.5,79.8,188.3,78.3,188.3"/>
</g>
<g>
	<path d="M61.4,187.5c-0.8,0-1.5-0.8-1.5-1.5c0-0.8,0.8-1.5,1.5-1.5c0.8,0,1.5,0.8,1.5,1.5C63.7,186.8,62.1,187.5,61.4,187.5"/>
</g>
<g>
	<path d="M44.4,186.8c-0.8,0-0.8-0.8-0.8-0.8l0.8-0.8c0.8,0,0.8,0.8,0.8,0.8S45.2,186.8,44.4,186.8"/>
</g>
<g>
	<path d="M27.5,186C27.5,186,26.8,186,27.5,186C26.8,185.2,27.5,185.2,27.5,186C27.5,185.2,27.5,185.2,27.5,186L27.5,186"/>
</g>
<g>
	<polyline points="10.6,186 10.6,186 10.6,186 10.6,186 10.6,186 	"/>
</g>
<g>
	<polyline points="395,202.9 395,202.9 395,202.9 395,202.9 395,202.9 	"/>
</g>
<g>
	<path d="M377.3,202.9L377.3,202.9C377.3,202.9,377.3,202.2,377.3,202.9C378.1,202.2,378.1,202.9,377.3,202.9
		C378.1,202.9,378.1,202.9,377.3,202.9"/>
</g>
<g>
	<path d="M360.4,203.7c-0.8,0-0.8,0-0.8-0.8c0-0.8,0-0.8,0.8-0.8c0.8,0,0.8,0,0.8,0.8C361.2,203.7,361.2,203.7,360.4,203.7"/>
</g>
<g>
	<path d="M343.5,204.5c-0.8,0-1.5-0.8-1.5-1.5s0.8-1.5,1.5-1.5s1.5,0.8,1.5,1.5S344.3,204.5,343.5,204.5"/>
</g>
<g>
	<path d="M326.6,205.2c-1.5,0-2.3-0.8-2.3-2.3s0.8-2.3,2.3-2.3c1.5,0,2.3,0.8,2.3,2.3C328.9,204.5,327.3,205.2,326.6,205.2"/>
</g>
<g>
	<path d="M308.9,206c-1.5,0-3.1-1.5-3.1-3.1s1.5-3.1,3.1-3.1c1.5,0,3.1,1.5,3.1,3.1C312.7,204.5,311.2,206,308.9,206"/>
</g>
<g>
	<path d="M292,207.5c-2.3,0-4.6-2.3-4.6-4.6s2.3-4.6,4.6-4.6c2.3,0,4.6,2.3,4.6,4.6S294.3,207.5,292,207.5"/>
</g>
<g>
	<path d="M275.1,208.3c-3.1,0-5.4-2.3-5.4-5.4c0-3.1,2.3-5.4,5.4-5.4c3.1,0,5.4,2.3,5.4,5.4C280.5,206,278.1,208.3,275.1,208.3"/>
</g>
<g>
	<path d="M258.2,209.1c-3.8,0-6.2-3.1-6.2-6.2s3.1-6.2,6.2-6.2c3.8,0,6.2,3.1,6.2,6.2S261.2,209.1,258.2,209.1"/>
</g>
<g>
	<path d="M241.2,209.8c-3.8,0-6.9-3.1-6.9-6.9s3.1-6.9,6.9-6.9s6.9,3.1,6.9,6.9C248.2,206.8,245.1,209.8,241.2,209.8"/>
</g>
<g>
	<path d="M223.6,210.6c-4.6,0-7.7-3.8-7.7-7.7c0-4.6,3.8-7.7,7.7-7.7c4.6,0,7.7,3.8,7.7,7.7C231.3,207.5,228.2,210.6,223.6,210.6"/>
</g>
<g>
	<path d="M206.7,210.6c-4.6,0-7.7-3.8-7.7-7.7c0-4.6,3.8-7.7,7.7-7.7c4.6,0,7.7,3.8,7.7,7.7C214.3,207.5,211.3,210.6,206.7,210.6"/>
</g>
<g>
	<path d="M189.7,210.6c-3.8,0-7.7-3.1-7.7-7.7c0-3.8,3.1-7.7,7.7-7.7c3.8,0,7.7,3.1,7.7,7.7C197.4,206.8,193.6,210.6,189.7,210.6"/>
</g>
<g>
	<path d="M172.8,209.8c-3.8,0-6.9-3.1-6.9-6.9s3.1-6.9,6.9-6.9s6.9,3.1,6.9,6.9C179.7,206.8,176.7,209.8,172.8,209.8"/>
</g>
<g>
	<path d="M155.1,209.1c-3.1,0-6.2-3.1-6.2-6.2c0-3.1,3.1-6.2,6.2-6.2c3.1,0,6.2,3.1,6.2,6.2S159,209.1,155.1,209.1"/>
</g>
<g>
	<path d="M138.2,208.3c-3.1,0-5.4-2.3-5.4-5.4c0-3.1,2.3-5.4,5.4-5.4s5.4,2.3,5.4,5.4C143.6,206,141.3,208.3,138.2,208.3"/>
</g>
<g>
	<path d="M121.3,206.8c-2.3,0-3.8-1.5-3.8-3.8s1.5-3.8,3.8-3.8s3.8,1.5,3.8,3.8S123.6,206.8,121.3,206.8"/>
</g>
<g>
	<path d="M104.4,206c-1.5,0-3.1-1.5-3.1-3.1s1.5-3.1,3.1-3.1c1.5,0,3.1,1.5,3.1,3.1S105.9,206,104.4,206"/>
</g>
<g>
	<path d="M87.5,205.2c-1.5,0-2.3-0.8-2.3-2.3s0.8-2.3,2.3-2.3c1.5,0,2.3,0.8,2.3,2.3C89,203.7,88.3,205.2,87.5,205.2"/>
</g>
<g>
	<path d="M69.8,204.5c-0.8,0-1.5-0.8-1.5-1.5c0-0.8,0.8-1.5,1.5-1.5c0.8,0,1.5,0.8,1.5,1.5S70.6,204.5,69.8,204.5"/>
</g>
<g>
	<path d="M52.9,203.7C52.9,203.7,52.1,202.9,52.9,203.7c-0.8-0.8,0-1.5,0-1.5C53.7,202.2,53.7,202.2,52.9,203.7
		C53.7,202.9,53.7,203.7,52.9,203.7"/>
</g>
<g>
	<path d="M36,202.9L36,202.9L36,202.9L36,202.9L36,202.9"/>
</g>
<g>
	<path d="M368.9,219.8L368.9,219.8L368.9,219.8L368.9,219.8L368.9,219.8"/>
</g>
<g>
	<path d="M351.9,220.6C351.9,220.6,351.2,219.8,351.9,220.6c-0.8-0.8,0-0.8,0-0.8C351.9,219.8,352.7,219.8,351.9,220.6
		C352.7,219.8,351.9,220.6,351.9,220.6"/>
</g>
<g>
	<path d="M335,221.4c-0.8,0-0.8-0.8-0.8-0.8c0-0.8,0.8-0.8,0.8-0.8c0.8,0,0.8,0.8,0.8,0.8S335.8,221.4,335,221.4"/>
</g>
<g>
	<path d="M318.1,221.4c-0.8,0-1.5-0.8-1.5-1.5c0-0.8,0.8-1.5,1.5-1.5s1.5,0.8,1.5,1.5C319.7,220.6,318.9,221.4,318.1,221.4"/>
</g>
<g>
	<path d="M300.4,222.1c-1.5,0-2.3-0.8-2.3-2.3s0.8-2.3,2.3-2.3c1.5,0,2.3,0.8,2.3,2.3S302,222.1,300.4,222.1"/>
</g>
<g>
	<path d="M283.5,222.9c-1.5,0-3.1-1.5-3.1-3.1c0-1.5,1.5-3.1,3.1-3.1c1.5,0,3.1,1.5,3.1,3.1C286.6,222.1,285.1,222.9,283.5,222.9"/>
</g>
<g>
	<path d="M266.6,223.7c-2.3,0-3.8-1.5-3.8-3.8c0-2.3,1.5-3.8,3.8-3.8s3.8,1.5,3.8,3.8C270.5,222.1,268.9,223.7,266.6,223.7"/>
</g>
<g>
	<path d="M249.7,224.4c-2.3,0-4.6-2.3-4.6-4.6s2.3-4.6,4.6-4.6c2.3,0,4.6,2.3,4.6,4.6C254.3,222.9,252,224.4,249.7,224.4"/>
</g>
<g>
	<path d="M232,225.2c-3.1,0-5.4-2.3-5.4-5.4c0-3.1,2.3-5.4,5.4-5.4c3.1,0,5.4,2.3,5.4,5.4C237.4,222.9,235.1,225.2,232,225.2"/>
</g>
<g>
	<path d="M215.1,226c-3.1,0-5.4-2.3-5.4-5.4c0-3.1,2.3-5.4,5.4-5.4c3.1,0,5.4,2.3,5.4,5.4C221.3,222.9,218.2,226,215.1,226"/>
</g>
<g>
	<path d="M198.2,226c-3.1,0-6.2-2.3-6.2-6.2c0-3.1,2.3-6.2,6.2-6.2c3.1,0,6.2,2.3,6.2,6.2C204.3,222.9,201.3,226,198.2,226"/>
</g>
<g>
	<path d="M181.3,225.2c-3.1,0-5.4-2.3-5.4-5.4c0-3.1,2.3-5.4,5.4-5.4c3.1,0,5.4,2.3,5.4,5.4C186.7,222.9,184.4,225.2,181.3,225.2"/>
</g>
<g>
	<path d="M164.4,225.2c-3.1,0-5.4-2.3-5.4-5.4c0-3.1,2.3-5.4,5.4-5.4s5.4,2.3,5.4,5.4C169.7,222.9,166.7,225.2,164.4,225.2"/>
</g>
<g>
	<path d="M146.7,224.4c-2.3,0-4.6-2.3-4.6-4.6s2.3-4.6,4.6-4.6s4.6,2.3,4.6,4.6C151.3,222.1,149.8,224.4,146.7,224.4"/>
</g>
<g>
	<path d="M129.8,223.7c-2.3,0-3.8-1.5-3.8-3.8c0-2.3,1.5-3.8,3.8-3.8c2.3,0,3.8,1.5,3.8,3.8C133.6,222.1,132.1,223.7,129.8,223.7"/>
</g>
<g>
	<path d="M112.9,222.9c-1.5,0-3.1-1.5-3.1-3.1c0-1.5,1.5-3.1,3.1-3.1c1.5,0,3.1,1.5,3.1,3.1C115.9,221.4,114.4,222.9,112.9,222.9"/>
</g>
<g>
	<path d="M95.9,222.1c-1.5,0-2.3-0.8-2.3-2.3s0.8-2.3,2.3-2.3c1.5,0,2.3,0.8,2.3,2.3C98.3,221.4,96.7,222.1,95.9,222.1"/>
</g>
<g>
	<path d="M78.3,221.4c-0.8,0-1.5-0.8-1.5-1.5c0-0.8,0.8-1.5,1.5-1.5c0.8,0,1.5,0.8,1.5,1.5C79.8,220.6,79.8,221.4,78.3,221.4"/>
</g>
<g>
	<path d="M61.4,220.6c-0.8,0-0.8,0-0.8-0.8c0-0.8,0-0.8,0.8-0.8c0.8,0,0.8,0,0.8,0.8C62.1,220.6,62.1,220.6,61.4,220.6"/>
</g>
<g>
	<path d="M44.4,220.6C44.4,220.6,44.4,219.8,44.4,220.6C44.4,219.8,44.4,219.8,44.4,220.6C44.4,219.8,44.4,219.8,44.4,220.6
		C44.4,219.8,44.4,220.6,44.4,220.6"/>
</g>
<g>
	<polyline points="27.5,219.8 27.5,219.8 27.5,219.8 27.5,219.8 27.5,219.8 	"/>
</g>
<g>
	<path d="M360.4,237.5L360.4,237.5C360.4,236.7,360.4,236.7,360.4,237.5C360.4,236.7,360.4,236.7,360.4,237.5L360.4,237.5"/>
</g>
<g>
	<path d="M343.5,237.5C343.5,237.5,342.7,237.5,343.5,237.5c-0.8-0.8,0-0.8,0-0.8C343.5,236.7,344.3,236.7,343.5,237.5
		C344.3,237.5,343.5,237.5,343.5,237.5"/>
</g>
<g>
	<path d="M326.6,238.3c-0.8,0-0.8-0.8-0.8-0.8c0-0.8,0.8-0.8,0.8-0.8c0.8,0,0.8,0.8,0.8,0.8L326.6,238.3"/>
</g>
<g>
	<path d="M308.9,238.3c-0.8,0-1.5-0.8-1.5-1.5c0-0.8,0.8-1.5,1.5-1.5c0.8,0,1.5,0.8,1.5,1.5C311.2,238.3,310.4,238.3,308.9,238.3"/>
</g>
<g>
	<path d="M292,239.1c-1.5,0-2.3-0.8-2.3-2.3s0.8-2.3,2.3-2.3c1.5,0,2.3,0.8,2.3,2.3S293.5,239.1,292,239.1"/>
</g>
<g>
	<path d="M275.1,239.8c-1.5,0-3.1-1.5-3.1-3.1s1.5-3.1,3.1-3.1c1.5,0,3.1,1.5,3.1,3.1C278.1,238.3,276.6,239.8,275.1,239.8"/>
</g>
<g>
	<path d="M258.2,240.6c-1.5,0-3.1-1.5-3.1-3.1c0-1.5,1.5-3.1,3.1-3.1c1.5,0,3.1,1.5,3.1,3.1C261.2,239.1,259.7,240.6,258.2,240.6"/>
</g>
<g>
	<path d="M241.2,240.6c-2.3,0-3.8-1.5-3.8-3.8s1.5-3.8,3.8-3.8s3.8,1.5,3.8,3.8C244.3,239.1,242.8,240.6,241.2,240.6"/>
</g>
<g>
	<path d="M223.6,240.6c-2.3,0-3.8-1.5-3.8-3.8s1.5-3.8,3.8-3.8c2.3,0,3.8,1.5,3.8,3.8S225.9,240.6,223.6,240.6"/>
</g>
<g>
	<path d="M206.7,241.4c-2.3,0-3.8-1.5-3.8-3.8s1.5-3.8,3.8-3.8s3.8,1.5,3.8,3.8S209,241.4,206.7,241.4"/>
</g>
<g>
	<path d="M189.7,240.6c-2.3,0-3.8-1.5-3.8-3.8s1.5-3.8,3.8-3.8s3.8,1.5,3.8,3.8S192,240.6,189.7,240.6"/>
</g>
<g>
	<path d="M172.8,240.6c-2.3,0-3.8-1.5-3.8-3.8s1.5-3.8,3.8-3.8s3.8,1.5,3.8,3.8C175.9,239.1,174.4,240.6,172.8,240.6"/>
</g>
<g>
	<path d="M155.1,239.8c-1.5,0-3.1-1.5-3.1-3.1s1.5-3.1,3.1-3.1c1.5,0,3.1,1.5,3.1,3.1C158.2,239.1,157.4,239.8,155.1,239.8"/>
</g>
<g>
	<path d="M138.2,239.8c-1.5,0-2.3-0.8-2.3-2.3s0.8-2.3,2.3-2.3s2.3,0.8,2.3,2.3C141.3,238.3,139.8,239.8,138.2,239.8"/>
</g>
<g>
	<path d="M121.3,239.1c-0.8,0-2.3-0.8-2.3-2.3c0-0.8,0.8-2.3,2.3-2.3c0.8,0,2.3,0.8,2.3,2.3S122.1,239.1,121.3,239.1"/>
</g>
<g>
	<path d="M104.4,238.3c-0.8,0-1.5-0.8-1.5-1.5c0-0.8,0.8-1.5,1.5-1.5c0.8,0,1.5,0.8,1.5,1.5S105.2,238.3,104.4,238.3"/>
</g>
<g>
	<path d="M87.5,237.5c-0.8,0-0.8,0-0.8-0.8c0-0.8,0-0.8,0.8-0.8c0.8,0,0.8,0,0.8,0.8C88.3,237.5,87.5,237.5,87.5,237.5"/>
</g>
<g>
	<path d="M69.8,237.5L69.8,237.5C69.8,236.7,69.8,236.7,69.8,237.5C70.6,236.7,70.6,236.7,69.8,237.5
		C70.6,237.5,70.6,237.5,69.8,237.5"/>
</g>
<g>
	<path d="M52.9,236.7L52.9,236.7L52.9,236.7L52.9,236.7L52.9,236.7"/>
</g>
<g>
	<path d="M335,254.4L335,254.4C335,253.7,335,253.7,335,254.4C335,253.7,335,253.7,335,254.4L335,254.4"/>
</g>
<g>
	<path d="M318.1,254.4C317.4,254.4,317.4,254.4,318.1,254.4c-0.8-0.8,0-0.8,0-0.8S318.1,253.7,318.1,254.4L318.1,254.4"/>
</g>
<g>
	<path d="M300.4,255.2C300.4,255.2,299.7,254.4,300.4,255.2c-0.8-1.5-0.8-1.5,0-1.5C301.2,253.7,301.2,253.7,300.4,255.2
		C301.2,254.4,301.2,255.2,300.4,255.2"/>
</g>
<g>
	<path d="M283.5,255.2c-0.8,0-1.5-0.8-1.5-1.5c0-0.8,0.8-1.5,1.5-1.5s1.5,0.8,1.5,1.5C285.1,254.4,284.3,255.2,283.5,255.2"/>
</g>
<g>
	<path d="M266.6,256c-0.8,0-1.5-0.8-1.5-1.5s0.8-1.5,1.5-1.5s1.5,0.8,1.5,1.5S267.4,256,266.6,256"/>
</g>
<g>
	<path d="M249.7,256c-0.8,0-2.3-0.8-2.3-2.3c0-0.8,0.8-2.3,2.3-2.3c0.8,0,2.3,0.8,2.3,2.3C251.2,255.2,250.5,256,249.7,256"/>
</g>
<g>
	<path d="M232,256c-1.5,0-2.3-0.8-2.3-2.3c0-1.5,0.8-2.3,2.3-2.3s2.3,0.8,2.3,2.3C234.3,255.2,233.6,256,232,256"/>
</g>
<g>
	<path d="M215.1,256.7c-1.5,0-2.3-0.8-2.3-2.3c0-1.5,0.8-2.3,2.3-2.3s2.3,0.8,2.3,2.3C217.4,255.2,216.6,256.7,215.1,256.7"/>
</g>
<g>
	<path d="M198.2,256.7c-1.5,0-2.3-0.8-2.3-2.3c0-1.5,0.8-2.3,2.3-2.3s2.3,0.8,2.3,2.3C200.5,256,199.7,256.7,198.2,256.7"/>
</g>
<g>
	<path d="M181.3,256.7c-1.5,0-2.3-0.8-2.3-2.3c0-1.5,0.8-2.3,2.3-2.3c1.5,0,2.3,0.8,2.3,2.3C183.6,256,182,256.7,181.3,256.7"/>
</g>
<g>
	<path d="M164.4,256c-1.5,0-2.3-0.8-2.3-2.3c0-1.5,0.8-2.3,2.3-2.3s2.3,0.8,2.3,2.3C165.9,255.2,165.1,256,164.4,256"/>
</g>
<g>
	<path d="M146.7,256c-0.8,0-1.5-0.8-1.5-1.5c0-0.8,0.8-1.5,1.5-1.5c0.8,0,1.5,0.8,1.5,1.5C149,255.2,148.2,256,146.7,256"/>
</g>
<g>
	<path d="M129.8,256c-0.8,0-1.5-0.8-1.5-1.5c0-0.8,0.8-1.5,1.5-1.5c0.8,0,1.5,0.8,1.5,1.5C131.3,255.2,130.5,256,129.8,256"/>
</g>
<g>
	<path d="M112.9,255.2c-0.8,0-0.8-0.8-0.8-0.8c0-0.8,0.8-0.8,0.8-0.8c0.8,0,0.8,0.8,0.8,0.8C113.6,254.4,113.6,255.2,112.9,255.2"/>
</g>
<g>
	<path d="M95.9,254.4C95.2,254.4,95.2,254.4,95.9,254.4c-0.8-0.8,0-1.5,0-1.5C95.9,253.7,96.7,253.7,95.9,254.4
		C96.7,254.4,95.9,254.4,95.9,254.4"/>
</g>
<g>
	<path d="M78.3,254.4L78.3,254.4C78.3,253.7,78.3,253.7,78.3,254.4C79,253.7,79,253.7,78.3,254.4C79,254.4,79,254.4,78.3,254.4"/>
</g>
<g>
	<polyline points="61.4,254.4 61.4,254.4 61.4,254.4 61.4,254.4 61.4,254.4 	"/>
</g>
<g>
	<polyline points="326.6,271.3 326.6,271.3 326.6,271.3 326.6,271.3 326.6,271.3 	"/>
</g>
<g>
	<path d="M308.9,271.3L308.9,271.3L308.9,271.3C309.7,271.3,309.7,271.3,308.9,271.3C309.7,271.3,309.7,271.3,308.9,271.3"/>
</g>
<g>
	<path d="M292,271.3L292,271.3c-0.8-0.8,0-0.8,0-0.8C292.8,270.6,292.8,271.3,292,271.3C292.8,271.3,292.8,271.3,292,271.3"/>
</g>
<g>
	<path d="M275.1,272.1C275.1,272.1,274.3,271.3,275.1,272.1c-0.8-0.8,0-1.5,0-1.5C275.8,270.6,275.8,270.6,275.1,272.1
		C275.8,271.3,275.8,272.1,275.1,272.1"/>
</g>
<g>
	<path d="M258.2,272.1c-0.8,0-0.8-0.8-0.8-0.8c0-0.8,0.8-0.8,0.8-0.8c0.8,0,0.8,0.8,0.8,0.8C258.9,271.3,258.2,272.1,258.2,272.1"/>
</g>
<g>
	<path d="M241.2,272.1c-0.8,0-0.8-0.8-0.8-0.8l0.8-0.8c0.8,0,0.8,0.8,0.8,0.8L241.2,272.1"/>
</g>
<g>
	<path d="M223.6,272.1c-0.8,0-1.5-0.8-1.5-1.5s0.8-1.5,1.5-1.5c0.8,0,1.5,0.8,1.5,1.5S224.3,272.1,223.6,272.1"/>
</g>
<g>
	<path d="M206.7,272.1c-0.8,0-1.5-0.8-1.5-1.5c0-0.8,0.8-1.5,1.5-1.5c0.8,0,1.5,0.8,1.5,1.5C208.2,272.1,207.4,272.1,206.7,272.1"/>
</g>
<g>
	<path d="M189.7,272.1c-0.8,0-1.5-0.8-1.5-1.5s0.8-1.5,1.5-1.5c0.8,0,1.5,0.8,1.5,1.5S190.5,272.1,189.7,272.1"/>
</g>
<g>
	<path d="M172.8,272.1c-0.8,0-0.8-0.8-0.8-0.8c0-0.8,0.8-0.8,0.8-0.8c0.8,0,0.8,0.8,0.8,0.8C173.6,272.1,172.8,272.1,172.8,272.1"/>
</g>
<g>
	<path d="M155.1,272.1c-0.8,0-0.8,0-0.8-0.8s0-0.8,0.8-0.8c0.8,0,0.8,0,0.8,0.8S155.9,272.1,155.1,272.1"/>
</g>
<g>
	<path d="M138.2,272.1C138.2,272.1,137.5,271.3,138.2,272.1c-0.8-0.8,0-1.5,0-1.5C139,270.6,139,270.6,138.2,272.1
		C139,271.3,139,272.1,138.2,272.1"/>
</g>
<g>
	<path d="M121.3,271.3L121.3,271.3C121.3,271.3,121.3,270.6,121.3,271.3C121.3,270.6,122.1,271.3,121.3,271.3
		C122.1,271.3,121.3,271.3,121.3,271.3"/>
</g>
<g>
	<path d="M104.4,271.3L104.4,271.3L104.4,271.3L104.4,271.3L104.4,271.3"/>
</g>
<g>
	<polyline points="283.5,288.3 283.5,288.3 283.5,288.3 283.5,288.3 283.5,288.3 	"/>
</g>
<g>
	<path d="M266.6,288.3L266.6,288.3L266.6,288.3L266.6,288.3L266.6,288.3"/>
</g>
<g>
	<path d="M249.7,288.3C249.7,288.3,248.9,288.3,249.7,288.3C248.9,288.3,249.7,288.3,249.7,288.3L249.7,288.3L249.7,288.3"/>
</g>
<g>
	<path d="M232,288.3L232,288.3L232,288.3C232.8,288.3,232.8,288.3,232,288.3C232.8,288.3,232.8,288.3,232,288.3"/>
</g>
<g>
	<path d="M215.1,289C215.1,289,215.1,288.3,215.1,289C215.1,288.3,215.1,288.3,215.1,289C215.9,288.3,215.9,288.3,215.1,289
		C215.9,288.3,215.9,289,215.1,289"/>
</g>
<g>
	<path d="M198.2,289C198.2,289,198.2,288.3,198.2,289C198.2,288.3,198.2,288.3,198.2,289C198.2,288.3,199,288.3,198.2,289
		C199,288.3,198.2,289,198.2,289"/>
</g>
<g>
	<path d="M181.3,288.3C181.3,288.3,180.5,288.3,181.3,288.3C180.5,288.3,181.3,288.3,181.3,288.3L181.3,288.3L181.3,288.3"/>
</g>
<g>
	<path d="M164.4,288.3C163.6,288.3,163.6,288.3,164.4,288.3C163.6,288.3,163.6,288.3,164.4,288.3L164.4,288.3L164.4,288.3"/>
</g>
<g>
	<path d="M146.7,288.3L146.7,288.3L146.7,288.3C146.7,288.3,147.5,288.3,146.7,288.3C147.5,288.3,146.7,288.3,146.7,288.3"/>
</g>
<g>
	<path d="M129.8,288.3L129.8,288.3L129.8,288.3L129.8,288.3L129.8,288.3"/>
</g>
<g>
	<path class="st0" d="M57.5,237.5C25.2,216,6,179.9,6,140.7C6,76.8,58.3,24.6,122.1,24.6h52.3c63.8,0,116.1,52.3,116.1,116.1
		s-52.3,116.1-116.1,116.1h-52.3c-3.8,0-7.7,0-11.5-0.8L66,289L57.5,237.5z M109,234.4c4.6,0.8,8.5,0.8,13.1,0.8h52.3
		c51.5,0,93.8-42.3,93.8-93.8s-42.3-93.8-93.8-93.8h-52.3c-51.5,0-93.8,42.3-93.8,93.8c0,33.1,16.9,63,45.4,80.7l4.6,2.3l3.8,26.1
		l22.3-16.9L109,234.4z"/>
</g>
<g>
	<path class="st1" d="M11.4,136c0-57.7,46.9-105.3,105.3-105.3H169c57.7,0,105.3,46.9,105.3,105.3c0,57.7-46.9,105.3-105.3,105.3
		h-52.3c-4.6,0-10,0-14.6-0.8l-33.8,24.6l-6.2-38.4C31.4,207.5,11.4,173.7,11.4,136"/>
</g>
<g>
	<defs>
		<path id="SVGID_1_" d="M116.7,30.7C59,30.7,11.4,77.6,11.4,136c0,38.4,20,71.5,50.7,89.9l6.2,38.4l33.8-24.6
			c4.6,0.8,9.2,0.8,14.6,0.8H169c57.7,0,105.3-46.9,105.3-105.3c0-57.7-46.9-105.3-105.3-105.3h-52.3V30.7z"/>
	</defs>
	<clipPath id="SVGID_2_">
		<use xlink:href="#SVGID_1_"  style="overflow:visible;"/>
	</clipPath>
	<path class="st2" d="M73.7,173.7c8.5,0,16.1,0,24.6,0c16.1,0,30-6.2,42.3-16.1c14.6-13.1,18.5-46.9-6.9-60
		c-15.4-7.7-28.4-19.2-33.1-36.9c-2.3-10-4.6-19.2-6.2-29.2c-0.8-5.4,1.5-8.5,6.9-8.5h0.8c20-2.3,18.5-3.1,20.8,13.8
		c1.5,8.5,3.1,17.7,7.7,25.4s10,9.2,17.7,4.6c5.4-3.8,10.8-7.7,16.9-10.8c14.6-8.5,29.2-7.7,43.8,1.5c20,13.1,31.5,31.5,33.1,53.8
		c2.3,29.2-3.8,56.9-21.5,81.5c-15.4,20.8-35.4,34.6-63.8,33.1c-10.8-0.8-20-4.6-29.2-9.2c-10-4.6-20-10-30-13.8
		c-20-8.5-31.5-1.5-33.1,19.2c-0.8,5.4,0,10.8,0,16.1c0.8,5.4-1.5,7.7-6.9,7.7c-19.2,2.3-20,3.8-20.8-15.4c0-10,0-20,3.1-30
		C46,183.7,56,174.5,73.7,173.7 M235.9,109.1c-1.5-13.1-5.4-25.4-14.6-35.4c-20-21.5-38.4-26.1-61.5-9.2c-2.3,1.5-4.6,3.1-6.9,4.6
		c-11.5,7.7-20.8,5.4-26.9-6.9c-4.6-8.5-6.9-17.7-7.7-27.7c-0.8-6.9-3.1-8.5-10-8.5c-8.5,0.8-5.4,5.4-5.4,10
		c1.5,24.6,13.1,43.8,36.1,56.1c1.5,0.8,2.3,1.5,3.8,2.3c11.5,7.7,16.1,17.7,16.1,30.8c0,23.1-13.1,40.7-37.7,49.2
		c-13.1,4.6-26.1,3.8-39.2,3.8c-20.8-0.8-32.3,7.7-36.1,26.9c-2.3,8.5-2.3,17.7-1.5,26.9c0,3.1-1.5,8.5,5.4,7.7
		c5.4-0.8,11.5,0,10-8.5c-1.5-6.9,0-13.8,1.5-20.8c3.8-14.6,14.6-20.8,30-17.7c3.8,0.8,8.5,2.3,11.5,3.8c10.8,4.6,21.5,10,32.3,14.6
		c26.9,11.5,53,7.7,72.3-12.3C231.3,174.5,238.2,143,235.9,109.1"/>
</g>
<g>
	<defs>
		<path id="SVGID_3_" d="M116.7,30.7C59,30.7,11.4,77.6,11.4,136c0,38.4,20,71.5,50.7,89.9l6.2,38.4l33.8-24.6
			c4.6,0.8,9.2,0.8,14.6,0.8H169c57.7,0,105.3-46.9,105.3-105.3c0-57.7-46.9-105.3-105.3-105.3h-52.3V30.7z"/>
	</defs>
	<clipPath id="SVGID_4_">
		<use xlink:href="#SVGID_3_"  style="overflow:visible;"/>
	</clipPath>
	<path class="st3" d="M177.4,173.7c0,2.3-0.8,3.1-2.3,3.1c-2.3,0-3.1-0.8-3.8-3.1c0-1.5,0.8-3.1,2.3-3.1
		C175.9,170.6,177.4,172.2,177.4,173.7"/>
</g>
<g>
	<defs>
		<path id="SVGID_5_" d="M116.7,30.7C59,30.7,11.4,77.6,11.4,136c0,38.4,20,71.5,50.7,89.9l6.2,38.4l33.8-24.6
			c4.6,0.8,9.2,0.8,14.6,0.8H169c57.7,0,105.3-46.9,105.3-105.3c0-57.7-46.9-105.3-105.3-105.3h-52.3V30.7z"/>
	</defs>
	<clipPath id="SVGID_6_">
		<use xlink:href="#SVGID_5_"  style="overflow:visible;"/>
	</clipPath>
	<path class="st4" d="M176.7,162.2c0,2.3-0.8,3.1-2.3,3.1c-2.3,0-3.1-0.8-3.8-3.1c0-1.5,0.8-3.1,2.3-3.1
		C175.1,159.1,175.9,159.9,176.7,162.2"/>
</g>
<g>
	<defs>
		<path id="SVGID_7_" d="M116.7,30.7C59,30.7,11.4,77.6,11.4,136c0,38.4,20,71.5,50.7,89.9l6.2,38.4l33.8-24.6
			c4.6,0.8,9.2,0.8,14.6,0.8H169c57.7,0,105.3-46.9,105.3-105.3c0-57.7-46.9-105.3-105.3-105.3h-52.3V30.7z"/>
	</defs>
	<clipPath id="SVGID_8_">
		<use xlink:href="#SVGID_7_"  style="overflow:visible;"/>
	</clipPath>
	<path class="st5" d="M169.7,197.5c0,2.3-0.8,3.1-2.3,3.1c-2.3,0-3.1-0.8-3.8-3.1c0-1.5,0.8-3.1,2.3-3.1
		C168.2,195.2,169,196,169.7,197.5"/>
</g>
<g>
	<defs>
		<path id="SVGID_9_" d="M116.7,30.7C59,30.7,11.4,77.6,11.4,136c0,38.4,20,71.5,50.7,89.9l6.2,38.4l33.8-24.6
			c4.6,0.8,9.2,0.8,14.6,0.8H169c57.7,0,105.3-46.9,105.3-105.3c0-57.7-46.9-105.3-105.3-105.3h-52.3V30.7z"/>
	</defs>
	<clipPath id="SVGID_10_">
		<use xlink:href="#SVGID_9_"  style="overflow:visible;"/>
	</clipPath>
	<path class="st6" d="M190.5,180.6c0,2.3-0.8,3.1-2.3,3.1c-2.3,0-3.1-0.8-3.8-3.1c0-1.5,0.8-3.1,2.3-3.1
		C189,177.6,189.7,179.1,190.5,180.6"/>
</g>
<g>
	<defs>
		<path id="SVGID_11_" d="M116.7,30.7C59,30.7,11.4,77.6,11.4,136c0,38.4,20,71.5,50.7,89.9l6.2,38.4l33.8-24.6
			c4.6,0.8,9.2,0.8,14.6,0.8H169c57.7,0,105.3-46.9,105.3-105.3c0-57.7-46.9-105.3-105.3-105.3h-52.3V30.7z"/>
	</defs>
	<clipPath id="SVGID_12_">
		<use xlink:href="#SVGID_11_"  style="overflow:visible;"/>
	</clipPath>
	<path class="st7" d="M209.7,143.7c0,2.3-0.8,3.1-2.3,3.1c-2.3,0-3.1-0.8-3.8-3.1c0-1.5,0.8-3.1,2.3-3.1
		C207.4,140.7,209,141.4,209.7,143.7"/>
</g>
<g>
	<defs>
		<path id="SVGID_13_" d="M116.7,30.7C59,30.7,11.4,77.6,11.4,136c0,38.4,20,71.5,50.7,89.9l6.2,38.4l33.8-24.6
			c4.6,0.8,9.2,0.8,14.6,0.8H169c57.7,0,105.3-46.9,105.3-105.3c0-57.7-46.9-105.3-105.3-105.3h-52.3V30.7z"/>
	</defs>
	<clipPath id="SVGID_14_">
		<use xlink:href="#SVGID_13_"  style="overflow:visible;"/>
	</clipPath>
	<path class="st8" d="M169.7,213.7c-1.5,0-3.1,0-4.6,0c-23.1-0.8-30-4.6-38.4-10l-1.5-0.8c-4.6-3.1-7.7-7.7-7.7-12.3
		c0-5.4,3.8-11.5,9.2-14.6c3.8-2.3,7.7-3.8,13.1-6.2c21.5-9.2,22.3-29.2,23.1-36.9c0-1.5,0-2.3,0-3.1c0-1.5,0.8-5.4,23.8-10l0,0l0,0
		c0.8,0,22.3-2.3,34.6,8.5c5.4,4.6,7.7,11.5,6.9,20c-1.5,14.6-9.2,31.5-21.5,44.6C195.1,204.5,182,212.1,169.7,213.7 M169,130.7
		c0,0.8,0,0.8,0,1.5c-0.8,7.7-1.5,31.5-26.9,42.3c-4.6,1.5-8.5,3.8-12.3,6.2s-6.9,6.2-6.9,10c0,3.1,1.5,5.4,4.6,7.7l1.5,0.8
		c7.7,4.6,13.8,8.5,35.4,9.2c24.6,0.8,55.4-31.5,57.7-60.7c0.8-6.2-0.8-11.5-5.4-15.4c-9.2-8.5-27.7-7.7-29.2-6.9
		C179,126.8,170.5,129.1,169,130.7 M168.2,130.7L168.2,130.7z"/>
</g>
<g>
	<defs>
		<path id="SVGID_15_" d="M116.7,30.7C59,30.7,11.4,77.6,11.4,136c0,38.4,20,71.5,50.7,89.9l6.2,38.4l33.8-24.6
			c4.6,0.8,9.2,0.8,14.6,0.8H169c57.7,0,105.3-46.9,105.3-105.3c0-57.7-46.9-105.3-105.3-105.3h-52.3V30.7z"/>
	</defs>
	<clipPath id="SVGID_16_">
		<use xlink:href="#SVGID_15_"  style="overflow:visible;"/>
	</clipPath>
	<path class="st9" d="M199.7,158.3c-0.8-0.8-1.5-0.8-2.3-0.8l-0.8-2.3l0,0c0.8-0.8,1.5-2.3,0.8-3.1c-0.8-0.8-2.3-1.5-3.1-0.8
		c-0.8,0-0.8,0.8-0.8,1.5l0,0h-2.3v-0.8c-0.8-0.8-1.5-1.5-3.1-0.8l-0.8-1.5l0,0c1.5-0.8,1.5-2.3,0.8-3.8c0-0.8-0.8-0.8-0.8-0.8v-1.5
		c0.8,0,0.8,0,1.5,0c0,0,0,0,0.8,0c0.8,0,0.8-0.8,0.8-1.5c0-0.8,0-1.5,0-1.5c0-0.8-0.8-0.8-1.5-0.8c-0.8,0-1.5,0-1.5,0
		c-0.8,0-0.8,0.8-0.8,1.5c0,0.8,0,1.5,0,1.5s0,0.8,0.8,0.8v1.5c-0.8,0-1.5,0-2.3,0c-0.8,0.8-1.5,1.5-1.5,2.3H182v-0.8
		c-0.8-1.5-2.3-2.3-3.8-1.5c-1.5,0.8-2.3,2.3-1.5,3.8c0.8,1.5,2.3,2.3,3.8,1.5c1.5,0,1.5-1.5,2.3-2.3h1.5c0,0,0,0.8,0.8,0.8
		c0.8,0.8,2.3,1.5,3.1,1.5l0.8,1.5c-0.8,0-0.8,0.8-0.8,1.5c0,0.8,0,1.5,0,1.5s0,0,0.8,0.8l-0.8,2.3c-0.8,0-0.8,0-1.5,0
		c-0.8,0-0.8,0.8-0.8,1.5c0,0.8,0,1.5,0,1.5c0,0.8,0.8,0.8,1.5,0.8c0.8,0,0.8,0,1.5,0c0,0,0,0,0.8,0l0,0l2.3,1.5c0,0.8,0,1.5,0,2.3
		c0,0.8,0.8,0.8,1.5,0.8c0.8,0,0.8,0,1.5,0c0,0,0,0,0.8,0c0.8-0.8,1.5-1.5,0.8-2.3l2.3-1.5c0,0,0.8,0,0.8,0.8c0.8,0,0.8,0,1.5,0
		c0,0,0,0,0.8,0c0.8,0,0.8-0.8,0.8-1.5C200.5,159.1,200.5,159.1,199.7,158.3 M196.7,157.6c-0.8,0-0.8,0.8-0.8,1.5c0,0.8,0,1.5,0,1.5
		l0,0l-1.5,0.8l0,0c0-0.8-0.8-0.8-1.5-0.8c-0.8,0-1.5,0-1.5,0s-0.8,0-0.8,0.8l-2.3-1.5c0.8-0.8,0.8-1.5,0-2.3l-0.8-0.8l0.8-2.3
		c0.8,0,0.8,0,1.5,0c0,0,0,0,0.8,0s0.8-0.8,0.8-1.5h2.3v0.8c0,0.8,0.8,0.8,1.5,0.8h0.8L196.7,157.6
		C197.4,157.6,196.7,157.6,196.7,157.6"/>
</g>
<g>
	<defs>
		<path id="SVGID_17_" d="M116.7,30.7C59,30.7,11.4,77.6,11.4,136c0,38.4,20,71.5,50.7,89.9l6.2,38.4l33.8-24.6
			c4.6,0.8,9.2,0.8,14.6,0.8H169c57.7,0,105.3-46.9,105.3-105.3c0-57.7-46.9-105.3-105.3-105.3h-52.3V30.7z"/>
	</defs>
	<clipPath id="SVGID_18_">
		<use xlink:href="#SVGID_17_"  style="overflow:visible;"/>
	</clipPath>
	<path class="st10" d="M161.3,176.8c-0.8,0-1.5,0.8-1.5,1.5h-2.3l0,0c-0.8-1.5-2.3-1.5-3.1-1.5c-1.5,0.8-1.5,1.5-1.5,3.1
		c0,0.8,0.8,0.8,1.5,1.5l0,0l-0.8,2.3c-0.8,0-0.8,0-1.5,0c-0.8,0.8-1.5,1.5-1.5,2.3H149l0,0c-0.8-1.5-2.3-2.3-3.8-1.5
		c-0.8,0-0.8,0.8-1.5,0.8l-1.5-0.8c0-0.8,0-0.8,0-1.5c0,0,0,0,0-0.8l0,0c0-0.8-0.8-0.8-1.5-1.5c-0.8,0-1.5,0-1.5,0
		c-0.8,0-0.8,0.8-1.5,1.5c0,0.8,0,1.5,0,1.5c0,0.8,0.8,0.8,1.5,1.5c0.8,0,1.5,0,1.5,0s0.8,0,0.8-0.8l1.5,0.8c0,0.8,0,1.5,0,2.3
		c0,0.8,0.8,1.5,2.3,1.5v1.5h-0.8c-1.5,0-3.1,1.5-3.1,3.8c0,1.5,1.5,3.1,3.8,3.1c1.5,0,3.1-1.5,3.1-3.8c0-1.5-0.8-2.3-2.3-2.3v-1.5
		h0.8c1.5-0.8,2.3-1.5,1.5-3.1h1.5c0,0.8,0.8,0.8,1.5,0.8c0.8,0,1.5,0,1.5,0h0.8l2.3,1.5c0,0.8,0,0.8,0,1.5c0,0.8,0.8,0.8,1.5,1.5
		c0.8,0,1.5,0,1.5,0c0.8,0,0.8-0.8,1.5-1.5c0-0.8,0-0.8,0-1.5c0,0,0,0,0-0.8l0,0l2.3-1.5c0.8,0,1.5,0.8,2.3,0c0.8,0,0.8-0.8,1.5-1.5
		c0-0.8,0-0.8,0-1.5c0,0,0,0,0-0.8c-0.8-0.8-1.5-1.5-2.3-1.5l-0.8-2.3l0.8-0.8c0-0.8,0-0.8,0-1.5c0,0,0,0,0-0.8
		c0-0.8-0.8-0.8-1.5-1.5C162.8,176.8,162.1,176.8,161.3,176.8 M159.8,179.9c0,0.8,0.8,0.8,1.5,1.5c0.8,0,1.5,0,1.5,0l0,0l0.8,2.3
		l0,0c-0.8,0-0.8,0.8-1.5,1.5c0,0.8,0,1.5,0,1.5s0,0.8,0.8,0.8l-1.5,1.5c-0.8-0.8-1.5-0.8-3.1-0.8c-0.8,0-0.8,0.8-0.8,0.8l-2.3-1.5
		c0-0.8,0.8-0.8,0-1.5c0,0,0,0,0-0.8c0-0.8-0.8-0.8-1.5-1.5l0.8-2.3h0.8c0.8,0,0.8-0.8,1.5-1.5v-0.8L159.8,179.9L159.8,179.9"/>
</g>
<g>
	<defs>
		<path id="SVGID_19_" d="M116.7,30.7C59,30.7,11.4,77.6,11.4,136c0,38.4,20,71.5,50.7,89.9l6.2,38.4l33.8-24.6
			c4.6,0.8,9.2,0.8,14.6,0.8H169c57.7,0,105.3-46.9,105.3-105.3c0-57.7-46.9-105.3-105.3-105.3h-52.3V30.7z"/>
	</defs>
	<clipPath id="SVGID_20_">
		<use xlink:href="#SVGID_19_"  style="overflow:visible;"/>
	</clipPath>
	<path class="st11" d="M118.2,68.4h-2.3c-18.5-2.3-27.7-10.8-27.7-10.8l-3.1-3.1H73.7l-3.1,2.3c0,0-9.2,8.5-27.7,10.8l-8.5,0.8v40.7
		v1.5c0,1.5,5.4,37.7,39.2,53l1.5,0.8h6.2h2.3l1.5-0.8c33.1-15.4,38.4-51.5,39.2-53V69.2L118.2,68.4z M105.9,88.4h-3.8v-3.8
		c1.5,0,2.3,0.8,3.8,0.8V88.4z M72.9,79.1c3.1-1.5,5.4-3.1,6.9-3.8c1.5,1.5,3.8,2.3,6.9,3.8H72.9z M57.5,88.4h-3.8v-3.1
		c1.5,0,2.3-0.8,3.8-0.8V88.4z M87.5,140.7c-2.3,1.5-4.6,3.8-7.7,4.6c-3.1-1.5-5.4-3.1-7.7-4.6H87.5z"/>
</g>
<g>
	<defs>
		<path id="SVGID_21_" d="M116.7,30.7C59,30.7,11.4,77.6,11.4,136c0,38.4,20,71.5,50.7,89.9l6.2,38.4l33.8-24.6
			c4.6,0.8,9.2,0.8,14.6,0.8H169c57.7,0,105.3-46.9,105.3-105.3c0-57.7-46.9-105.3-105.3-105.3h-52.3V30.7z"/>
	</defs>
	<clipPath id="SVGID_22_">
		<use xlink:href="#SVGID_21_"  style="overflow:visible;"/>
	</clipPath>
	<polygon class="st12" points="70.6,105.3 75.2,105.3 75.2,105.3 	"/>
</g>
<g>
	<defs>
		<path id="SVGID_23_" d="M116.7,30.7C59,30.7,11.4,77.6,11.4,136c0,38.4,20,71.5,50.7,89.9l6.2,38.4l33.8-24.6
			c4.6,0.8,9.2,0.8,14.6,0.8H169c57.7,0,105.3-46.9,105.3-105.3c0-57.7-46.9-105.3-105.3-105.3h-52.3V30.7z"/>
	</defs>
	<clipPath id="SVGID_24_">
		<use xlink:href="#SVGID_23_"  style="overflow:visible;"/>
	</clipPath>
	<path class="st13" d="M115.9,75.3C94.4,73,83.6,62.2,83.6,62.2l-0.8-0.8h-5.4l-0.8,0.8c0,0-10.8,10.8-32.3,13.1h-2.3v33.8l0,0
		c0,1.5,4.6,33.8,34.6,47.7h0.8h4.6h0.8c30-13.8,34.6-46.1,34.6-47.7V74.5L115.9,75.3z M112.9,109.1c0,2.3-5.4,31.5-31.5,43.8H79
		c-26.1-12.3-31.5-41.5-31.5-43.8v-30c19.2-2.3,29.2-10.8,32.3-13.1h1.5c3.1,2.3,13.1,10.8,32.3,13.1v30H112.9z"/>
</g>
<g>
	<defs>
		<path id="SVGID_25_" d="M116.7,30.7C59,30.7,11.4,77.6,11.4,136c0,38.4,20,71.5,50.7,89.9l6.2,38.4l33.8-24.6
			c4.6,0.8,9.2,0.8,14.6,0.8H169c57.7,0,105.3-46.9,105.3-105.3c0-57.7-46.9-105.3-105.3-105.3h-52.3V30.7z"/>
	</defs>
	<clipPath id="SVGID_26_">
		<use xlink:href="#SVGID_25_"  style="overflow:visible;"/>
	</clipPath>
	<path class="st14" d="M89,101.4v-9.2H70.6v9.2h-8.5v17.7h8.5v10H89v-10h9.2v-17.7H89z M93.6,114.5h-9.2l0,0l0,0v9.2h-10v-5.4v-3.8
		H66v-9.2h8.5v-9.2h10v9.2H89l0,0h4.6C93.6,105.3,93.6,114.5,93.6,114.5z"/>
</g>
</svg>
