<?xml version="1.0" encoding="utf-8"?>
<!-- Generator: Adobe Illustrator 23.1.1, SVG Export Plug-In . SVG Version: 6.00 Build 0)  -->
<svg version="1.1" id="Layer_1" xmlns="http://www.w3.org/2000/svg" xmlns:xlink="http://www.w3.org/1999/xlink" x="0px" y="0px"
	 viewBox="0 0 400 300" style="enable-background:new 0 0 400 300;" xml:space="preserve">
<style type="text/css">
	.st0{fill:#1E1D1B;}
	.st1{fill:#FFFFFF;}
	.st2{fill:#E15200;}
</style>
<g>
	<path d="M143.6,10L143.6,10C143.6,9.3,143.6,9.3,143.6,10C143.6,9.3,143.6,9.3,143.6,10L143.6,10"/>
	<path d="M160.2,10L160.2,10C160.2,9.3,160.2,9.3,160.2,10C159.5,9.3,159.5,9.3,160.2,10C159.5,10,159.5,10,160.2,10"/>
	<path d="M176.1,10L176.1,10C176.1,9.3,176.1,9.3,176.1,10C176.1,9.3,175.4,9.3,176.1,10C175.4,10,176.1,10,176.1,10"/>
	<path d="M192,10C192,10,192.6,10,192,10C192.6,9.3,192,9.3,192,10C192,9.3,192,9.3,192,10L192,10"/>
	<path d="M207.8,10C208.5,10,208.5,10,207.8,10c0.7-0.7,0-0.7,0-0.7S207.8,9.3,207.8,10L207.8,10"/>
	<path d="M224.4,10L224.4,10C224.4,9.3,224.4,9.3,224.4,10C224.4,9.3,223.7,9.3,224.4,10C223.7,10,224.4,10,224.4,10"/>
	<path d="M240.3,10L240.3,10C240.3,9.3,240.3,9.3,240.3,10C240.3,9.3,240.3,9.3,240.3,10L240.3,10"/>
	<path d="M256.2,10C256.2,10,256.9,10,256.2,10C256.9,9.3,256.2,9.3,256.2,10C256.2,9.3,256.2,9.3,256.2,10L256.2,10"/>
	<path d="M272.8,10L272.8,10C272.8,9.3,272.8,9.3,272.8,10C272.8,9.3,272.8,9.3,272.8,10L272.8,10"/>
	<polyline points="87.6,25.9 87.6,25.9 87.6,25.9 87.6,25.9 87.6,25.9 	"/>
	<path d="M103.5,25.9L103.5,25.9L103.5,25.9L103.5,25.9L103.5,25.9"/>
	<path d="M119.4,25.9C120.1,25.9,120.1,25.9,119.4,25.9c0.7-0.7,0-0.7,0-0.7V25.9L119.4,25.9"/>
	<path d="M136,26.6C136,26.6,136.7,25.9,136,26.6c0.7-0.7,0-1.4,0-1.4C135.3,25.2,135.3,25.2,136,26.6
		C135.3,25.9,135.3,26.6,136,26.6"/>
	<path d="M151.9,26.6c0.7,0,0.7-0.7,0.7-0.7c0-0.7-0.7-0.7-0.7-0.7c-0.7,0-0.7,0.7-0.7,0.7C151.2,26.6,151.2,26.6,151.9,26.6"/>
	<path d="M167.8,26.6c0.7,0,0.7-0.7,0.7-0.7c0-0.7-0.7-0.7-0.7-0.7l-0.7,0.7C167.1,26.6,167.1,26.6,167.8,26.6"/>
	<path d="M184.3,26.6c0.7,0,1.4-0.7,1.4-1.4c0-0.7-0.7-1.4-1.4-1.4c-0.7,0-1.4,0.7-1.4,1.4C183,26.6,183.7,26.6,184.3,26.6"/>
	<path d="M200.2,26.6c0.7,0,1.4-0.7,1.4-1.4c0-0.7-0.7-1.4-1.4-1.4c-0.7,0-1.4,0.7-1.4,1.4C198.9,26.6,199.6,26.6,200.2,26.6"/>
	<path d="M216.1,26.6c0.7,0,1.4-0.7,1.4-1.4c0-0.7-0.7-1.4-1.4-1.4c-0.7,0-1.4,0.7-1.4,1.4C215.5,26.6,215.5,26.6,216.1,26.6"/>
	<path d="M232,26.6c0.7,0,0.7-0.7,0.7-0.7c0-0.7-0.7-0.7-0.7-0.7c-0.7,0-0.7,0.7-0.7,0.7C231.3,26.6,232,26.6,232,26.6"/>
	<path d="M248.6,26.6c0.7,0,0.7,0,0.7-0.7c0-0.7,0-0.7-0.7-0.7c-0.7,0-0.7,0-0.7,0.7C247.9,25.9,247.9,26.6,248.6,26.6"/>
	<path d="M264.5,26.6C264.5,26.6,265.2,25.9,264.5,26.6c0.7-0.7,0-1.4,0-1.4S263.8,25.2,264.5,26.6
		C263.8,25.9,264.5,26.6,264.5,26.6"/>
	<path d="M280.4,25.9C281.1,25.9,281.1,25.9,280.4,25.9C281.1,25.9,281.1,25.2,280.4,25.9C280.4,25.2,280.4,25.9,280.4,25.9
		L280.4,25.9"/>
	<path d="M297,25.9L297,25.9L297,25.9C296.3,25.9,296.3,25.9,297,25.9C296.3,25.9,296.3,25.9,297,25.9"/>
	<path d="M79.3,41.8L79.3,41.8L79.3,41.8L79.3,41.8L79.3,41.8"/>
	<path d="M95.2,42.5C95.9,42.5,95.9,41.8,95.2,42.5c0.7-0.7,0-0.7,0-0.7S95.2,41.8,95.2,42.5C95.2,41.8,95.2,42.5,95.2,42.5"/>
	<path d="M111.8,42.5c0.7,0,0.7,0,0.7-0.7s0-0.7-0.7-0.7s-0.7,0-0.7,0.7S111.1,42.5,111.8,42.5"/>
	<path d="M127.7,43.2c0.7,0,1.4-0.7,1.4-1.4c0-0.7-0.7-1.4-1.4-1.4c-0.7,0-1.4,0.7-1.4,1.4C126.3,42.5,127,43.2,127.7,43.2"/>
	<path d="M143.6,43.2c0.7,0,1.4-0.7,1.4-1.4c0-0.7-0.7-1.4-1.4-1.4c-0.7,0-1.4,0.7-1.4,1.4C142.2,42.5,142.9,43.2,143.6,43.2"/>
	<path d="M160.2,43.9c0.7,0,2.1-0.7,2.1-2.1c0-0.7-0.7-2.1-2.1-2.1c-0.7,0-2.1,0.7-2.1,2.1S158.8,43.9,160.2,43.9"/>
	<path d="M176.1,43.9c1.4,0,2.1-0.7,2.1-2.1c0-1.4-0.7-2.1-2.1-2.1c-1.4,0-2.1,0.7-2.1,2.1S174.7,43.9,176.1,43.9"/>
	<path d="M192,43.9c1.4,0,2.1-0.7,2.1-2.1c0-1.4-0.7-2.1-2.1-2.1s-2.1,0.7-2.1,2.1S190.6,43.9,192,43.9"/>
	<path d="M207.8,43.9c1.4,0,2.1-0.7,2.1-2.1c0-1.4-0.7-2.1-2.1-2.1c-1.4,0-2.1,0.7-2.1,2.1C205.8,43.2,207.2,43.9,207.8,43.9"/>
	<path d="M224.4,43.9c1.4,0,2.1-0.7,2.1-2.1c0-1.4-0.7-2.1-2.1-2.1s-2.1,0.7-2.1,2.1S223.1,43.9,224.4,43.9"/>
	<path d="M240.3,43.9c1.4,0,2.1-0.7,2.1-2.1c0-1.4-0.7-2.1-2.1-2.1c-1.4,0-2.1,0.7-2.1,2.1S238.9,43.9,240.3,43.9"/>
	<path d="M256.2,43.9c0.7,0,1.4-0.7,1.4-1.4s-0.7-1.4-1.4-1.4c-0.7,0-1.4,0.7-1.4,1.4S255.5,43.9,256.2,43.9"/>
	<path d="M272.8,43.2c0.7,0,1.4-0.7,1.4-1.4c0-0.7-0.7-1.4-1.4-1.4c-0.7,0-1.4,0.7-1.4,1.4C271.4,42.5,272.1,43.2,272.8,43.2"/>
	<path d="M288.7,43.2c0.7,0,0.7-0.7,0.7-0.7c0-0.7-0.7-0.7-0.7-0.7c-0.7,0-0.7,0.7-0.7,0.7C288,42.5,288,43.2,288.7,43.2"/>
	<path d="M304.6,42.5C305.3,42.5,305.3,42.5,304.6,42.5c0.7-0.7,0-1.4,0-1.4S303.9,41.8,304.6,42.5
		C303.9,42.5,304.6,42.5,304.6,42.5"/>
	<path d="M321.2,42.5C321.2,42.5,321.2,41.8,321.2,42.5C321.2,41.8,321.2,41.8,321.2,42.5C320.5,41.8,320.5,41.8,321.2,42.5
		C320.5,41.8,320.5,42.5,321.2,42.5"/>
	<polyline points="337.1,41.8 337.1,41.8 337.1,41.8 337.1,41.8 337.1,41.8 	"/>
	<path d="M55.1,58.4L55.1,58.4C55.1,57.7,55.1,57.7,55.1,58.4C55.1,57.7,55.1,57.7,55.1,58.4L55.1,58.4"/>
	<path d="M71,58.4C71.7,58.4,71.7,58.4,71,58.4c0.7-0.7,0-0.7,0-0.7S71,57.7,71,58.4L71,58.4"/>
	<path d="M87.6,59.1c0.7,0,0.7-0.7,0.7-0.7c0-0.7-0.7-0.7-0.7-0.7c-0.7,0-0.7,0.7-0.7,0.7C86.2,58.4,86.9,59.1,87.6,59.1"/>
	<path d="M103.5,59.8c0.7,0,1.4-0.7,1.4-1.4s-0.7-1.4-1.4-1.4c-0.7,0-1.4,0.7-1.4,1.4S102.8,59.8,103.5,59.8"/>
	<path d="M119.4,59.8c1.4,0,2.1-0.7,2.1-2.1c0-1.4-0.7-2.1-2.1-2.1c-1.4,0-2.1,0.7-2.1,2.1S118.7,59.8,119.4,59.8"/>
	<path d="M136,60.5c1.4,0,2.8-1.4,2.8-2.8c0-1.4-1.4-2.8-2.8-2.8s-2.8,1.4-2.8,2.8C133.2,59.1,134.6,60.5,136,60.5"/>
	<path d="M151.9,61.2c1.4,0,2.8-1.4,2.8-2.8c0-1.4-1.4-2.8-2.8-2.8s-2.8,1.4-2.8,2.8C149.1,59.8,149.8,61.2,151.9,61.2"/>
	<path d="M167.8,61.2c2.1,0,3.5-1.4,3.5-3.5s-1.4-3.5-3.5-3.5c-2.1,0-3.5,1.4-3.5,3.5C164.3,59.8,166.4,61.2,167.8,61.2"/>
	<path d="M184.3,61.9c2.1,0,3.5-1.4,3.5-3.5s-1.4-3.5-3.5-3.5c-2.1,0-3.5,1.4-3.5,3.5C180.2,59.8,182.3,61.9,184.3,61.9"/>
	<path d="M200.2,61.9c2.1,0,3.5-1.4,3.5-3.5s-1.4-3.5-3.5-3.5s-3.5,1.4-3.5,3.5C196.1,59.8,198.2,61.9,200.2,61.9"/>
	<path d="M216.1,61.9c2.1,0,3.5-1.4,3.5-3.5s-1.4-3.5-3.5-3.5s-3.5,1.4-3.5,3.5C212.7,59.8,214.1,61.9,216.1,61.9"/>
	<path d="M232,61.2c2.1,0,3.5-1.4,3.5-3.5s-1.4-3.5-3.5-3.5s-3.5,1.4-3.5,3.5C229.3,59.8,230.7,61.2,232,61.2"/>
	<path d="M248.6,61.2c1.4,0,2.8-1.4,2.8-2.8c0-1.4-1.4-2.8-2.8-2.8c-1.4,0-2.8,1.4-2.8,2.8C245.9,59.8,246.6,61.2,248.6,61.2"/>
	<path d="M264.5,60.5c1.4,0,2.1-1.4,2.1-2.1c0-1.4-1.4-2.1-2.1-2.1s-2.1,1.4-2.1,2.1C262.4,59.1,263.1,60.5,264.5,60.5"/>
	<path d="M280.4,59.8c0.7,0,2.1-0.7,2.1-2.1c0-0.7-0.7-2.1-2.1-2.1c-0.7,0-2.1,0.7-2.1,2.1C279,59.1,279.7,59.8,280.4,59.8"/>
	<path d="M297,59.1c0.7,0,1.4-0.7,1.4-1.4s-0.7-1.4-1.4-1.4c-0.7,0-1.4,0.7-1.4,1.4S296.3,59.1,297,59.1"/>
	<path d="M312.9,59.1c0.7,0,0.7,0,0.7-0.7s0-0.7-0.7-0.7c-0.7,0-0.7,0-0.7,0.7C312.2,58.4,312.2,59.1,312.9,59.1"/>
	<path d="M328.8,58.4C328.8,58.4,329.5,58.4,328.8,58.4c0.7-0.7,0-0.7,0-0.7S328.8,57.7,328.8,58.4L328.8,58.4"/>
	<path d="M344.7,58.4C345.4,58.4,345.4,57.7,344.7,58.4C345.4,57.7,345.4,57.7,344.7,58.4C344.7,57.7,344.7,57.7,344.7,58.4
		C344.7,57.7,344.7,58.4,344.7,58.4"/>
	<path d="M46.8,74.3C47.5,74.3,47.5,74.3,46.8,74.3C47.5,74.3,47.5,74.3,46.8,74.3L46.8,74.3L46.8,74.3"/>
	<path d="M63.4,74.3L63.4,74.3c0.7-0.7,0-0.7,0-0.7S62.7,73.6,63.4,74.3C62.7,74.3,62.7,74.3,63.4,74.3"/>
	<path d="M79.3,75c0.7,0,0.7-0.7,0.7-0.7c0-0.7-0.7-0.7-0.7-0.7c-0.7,0-0.7,0.7-0.7,0.7C78.6,75,78.6,75,79.3,75"/>
	<path d="M95.2,75.7c0.7,0,1.4-0.7,1.4-1.4c0-0.7-0.7-1.4-1.4-1.4c-0.7,0-1.4,0.7-1.4,1.4C93.8,75,94.5,75.7,95.2,75.7"/>
	<path d="M111.8,76.4c1.4,0,2.1-0.7,2.1-2.1c0-1.4-0.7-2.1-2.1-2.1c-1.4,0-2.1,0.7-2.1,2.1C109,75.7,110.4,76.4,111.8,76.4"/>
	<path d="M127.7,77.1c1.4,0,2.8-1.4,2.8-2.8c0-1.4-1.4-2.8-2.8-2.8s-2.8,1.4-2.8,2.8C124.9,75.7,126.3,77.1,127.7,77.1"/>
	<path d="M143.6,77.7c2.1,0,3.5-1.4,3.5-3.5s-1.4-3.5-3.5-3.5s-3.5,1.4-3.5,3.5C140.1,76.4,141.5,77.7,143.6,77.7"/>
	<path d="M160.2,78.4c2.8,0,4.1-2.1,4.1-4.1c0-2.8-2.1-4.1-4.1-4.1c-2.8,0-4.1,2.1-4.1,4.1C155.3,76.4,157.4,78.4,160.2,78.4"/>
	<path d="M176.1,79.1c2.8,0,4.8-2.1,4.8-4.8c0-2.8-2.1-4.8-4.8-4.8c-2.8,0-4.8,2.1-4.8,4.8S173.3,79.1,176.1,79.1"/>
	<path d="M192,79.1c2.8,0,5.5-2.1,5.5-5.5c0-2.8-2.1-5.5-5.5-5.5s-5.5,2.1-5.5,5.5S189.2,79.1,192,79.1"/>
	<path d="M207.8,79.8c2.8,0,5.5-2.8,5.5-5.5c0-2.8-2.8-5.5-5.5-5.5c-2.8,0-5.5,2.8-5.5,5.5C203,77.1,205.1,79.8,207.8,79.8"/>
	<path d="M224.4,79.1c2.8,0,5.5-2.1,5.5-5.5c0-2.8-2.1-5.5-5.5-5.5c-2.8,0-5.5,2.1-5.5,5.5S221.7,79.1,224.4,79.1"/>
	<path d="M240.3,79.1c2.8,0,4.8-2.1,4.8-4.8c0-2.8-2.1-4.8-4.8-4.8c-2.8,0-4.8,2.1-4.8,4.8C235.5,77.1,237.6,79.1,240.3,79.1"/>
	<path d="M256.2,78.4c2.1,0,4.1-2.1,4.1-4.1c0-2.1-2.1-4.1-4.1-4.1c-2.1,0-4.1,2.1-4.1,4.1C252.1,76.4,254.2,78.4,256.2,78.4"/>
	<path d="M272.8,77.7c2.1,0,3.5-1.4,3.5-3.5s-1.4-3.5-3.5-3.5s-3.5,1.4-3.5,3.5S270.7,77.7,272.8,77.7"/>
	<path d="M288.7,77.1c1.4,0,2.8-1.4,2.8-2.8c0-1.4-1.4-2.8-2.8-2.8s-2.8,1.4-2.8,2.8C285.9,75.7,287.3,77.1,288.7,77.1"/>
	<path d="M304.6,76.4c1.4,0,2.1-0.7,2.1-2.1c0-1.4-0.7-2.1-2.1-2.1s-2.1,0.7-2.1,2.1C302.5,75,303.9,76.4,304.6,76.4"/>
	<path d="M321.2,75.7c0.7,0,1.4-0.7,1.4-1.4c0-0.7-0.7-1.4-1.4-1.4c-0.7,0-1.4,0.7-1.4,1.4C319.8,75,319.8,75.7,321.2,75.7"/>
	<path d="M337.1,75c0.7,0,0.7-0.7,0.7-0.7c0-0.7-0.7-0.7-0.7-0.7c-0.7,0-0.7,0.7-0.7,0.7S336.4,75,337.1,75"/>
	<path d="M353.7,48.7C354.4,48.7,354.4,48.7,353.7,48.7c0.7-0.7,0-0.7,0-0.7S353.7,48,353.7,48.7L353.7,48.7"/>
	<path d="M371.6,48.7L371.6,48.7L371.6,48.7L371.6,48.7L371.6,48.7"/>
	<polyline points="23.3,90.2 23.3,90.2 23.3,90.2 22.6,90.2 23.3,90.2 	"/>
	<path d="M39.2,90.2L39.2,90.2L39.2,90.2C39.2,90.2,38.5,90.2,39.2,90.2C38.5,90.2,39.2,90.2,39.2,90.2"/>
	<path d="M55.1,90.9c0.7,0,0.7-0.7,0.7-0.7c0-0.7-0.7-0.7-0.7-0.7c-0.7,0-0.7,0.7-0.7,0.7C54.4,90.9,54.4,90.9,55.1,90.9"/>
	<path d="M71,91.6c0.7,0,1.4-0.7,1.4-1.4c0-0.7-0.7-1.4-1.4-1.4c-0.7,0-1.4,0.7-1.4,1.4C69.6,90.9,70.3,91.6,71,91.6"/>
	<path d="M87.6,92.3c1.4,0,2.1-0.7,2.1-2.1c0-1.4-0.7-2.1-2.1-2.1s-2.1,0.7-2.1,2.1C84.8,91.6,86.2,92.3,87.6,92.3"/>
	<path d="M103.5,93.6c2.1,0,3.5-1.4,3.5-3.5s-1.4-3.5-3.5-3.5c-2.1,0-3.5,1.4-3.5,3.5S101.4,93.6,103.5,93.6"/>
	<path d="M119.4,94.3c2.1,0,4.1-2.1,4.1-4.1c0-2.1-2.1-4.1-4.1-4.1c-2.1,0-4.1,2.1-4.1,4.1C115.2,92.3,117.3,94.3,119.4,94.3"/>
	<path d="M136,95c2.8,0,4.8-2.1,4.8-4.8c0-2.8-2.1-4.8-4.8-4.8c-2.8,0-4.8,2.1-4.8,4.8C130.4,93,133.2,95,136,95"/>
	<path d="M151.9,96.4c3.5,0,6.2-2.8,6.2-6.2s-2.8-6.2-6.2-6.2s-6.2,2.8-6.2,6.2C145.6,93.6,148.4,96.4,151.9,96.4"/>
	<path d="M167.8,97.1c3.5,0,6.9-2.8,6.9-6.9c0-3.5-2.8-6.9-6.9-6.9c-4.1,0-6.9,2.8-6.9,6.9C160.9,93.6,164.3,97.1,167.8,97.1"/>
	<path d="M184.3,97.8c4.1,0,7.6-3.5,7.6-7.6s-3.5-7.6-7.6-7.6c-4.1,0-7.6,3.5-7.6,7.6S180.2,97.8,184.3,97.8"/>
	<path d="M200.2,97.8c4.1,0,7.6-3.5,7.6-7.6s-3.5-7.6-7.6-7.6c-4.1,0-7.6,3.5-7.6,7.6S196.1,97.8,200.2,97.8"/>
	<path d="M216.1,97.1c4.1,0,6.9-3.5,6.9-6.9c0-4.1-3.5-6.9-6.9-6.9c-4.1,0-6.9,3.5-6.9,6.9C209.2,94.3,212,97.1,216.1,97.1"/>
	<path d="M232,97.1c3.5,0,6.2-2.8,6.2-6.2c0-3.5-2.8-6.2-6.2-6.2s-6.2,2.8-6.2,6.2C225.8,93.6,228.6,97.1,232,97.1"/>
	<path d="M248.6,95.7c3.5,0,5.5-2.8,5.5-5.5c0-3.5-2.8-5.5-5.5-5.5c-3.5,0-5.5,2.8-5.5,5.5C242.4,93.6,245.2,95.7,248.6,95.7"/>
	<path d="M264.5,95c2.8,0,4.8-2.1,4.8-4.8c0-2.8-2.1-4.8-4.8-4.8s-4.8,2.1-4.8,4.8C259.7,93,261.8,95,264.5,95"/>
	<path d="M280.4,94.3c2.1,0,3.5-1.4,3.5-3.5s-1.4-3.5-3.5-3.5c-2.1,0-3.5,1.4-3.5,3.5C277,92.3,278.3,94.3,280.4,94.3"/>
	<path d="M297,93c1.4,0,2.8-1.4,2.8-2.8c0-1.4-1.4-2.8-2.8-2.8s-2.8,1.4-2.8,2.8C293.5,91.6,294.9,93,297,93"/>
	<path d="M312.9,92.3c1.4,0,2.1-0.7,2.1-2.1c0-1.4-0.7-2.1-2.1-2.1s-2.1,0.7-2.1,2.1C310.8,91.6,311.5,92.3,312.9,92.3"/>
	<path d="M328.8,91.6c0.7,0,1.4-0.7,1.4-1.4c0-0.7-0.7-1.4-1.4-1.4c-0.7,0-1.4,0.7-1.4,1.4C327.4,90.9,328.1,91.6,328.8,91.6"/>
	<path d="M344.7,90.9C345.4,90.9,345.4,90.9,344.7,90.9c0.7-0.7,0-1.4,0-1.4S344.7,90.2,344.7,90.9L344.7,90.9"/>
	<path d="M362.7,66.7C362.7,66.7,363.4,66.7,362.7,66.7C363.4,66,362.7,66,362.7,66.7C362.7,66,362.7,66,362.7,66.7L362.7,66.7"/>
	<path d="M30.9,106.8C30.9,106.8,30.9,106.1,30.9,106.8C30.9,106.1,30.9,106.1,30.9,106.8C30.9,106.1,30.9,106.1,30.9,106.8
		C30.9,106.1,30.9,106.8,30.9,106.8"/>
	<path d="M46.8,106.8C47.5,106.8,47.5,106.8,46.8,106.8c0.7-0.7,0-0.7,0-0.7S46.8,106.1,46.8,106.8L46.8,106.8"/>
	<path d="M63.4,107.5c0.7,0,1.4-0.7,1.4-1.4c0-0.7-0.7-1.4-1.4-1.4c-0.7,0-1.4,0.7-1.4,1.4C62,106.8,62.7,107.5,63.4,107.5"/>
	<path d="M79.3,108.2c1.4,0,2.1-0.7,2.1-2.1s-0.7-2.1-2.1-2.1c-1.4,0-2.1,0.7-2.1,2.1S78.6,108.2,79.3,108.2"/>
	<path d="M95.2,108.8c1.4,0,2.8-1.4,2.8-2.8c0-1.4-1.4-2.8-2.8-2.8s-2.8,1.4-2.8,2.8C92.4,108.2,93.8,108.8,95.2,108.8"/>
	<path d="M111.8,110.2c2.1,0,4.1-2.1,4.1-4.1c0-2.1-2.1-4.1-4.1-4.1c-2.1,0-4.1,2.1-4.1,4.1C107.6,108.2,109.7,110.2,111.8,110.2"/>
	<path d="M127.7,111.6c2.8,0,4.8-2.1,4.8-4.8c0-2.8-2.1-4.8-4.8-4.8c-2.8,0-4.8,2.1-4.8,4.8C122.8,108.8,124.9,111.6,127.7,111.6"/>
	<path d="M143.6,112.3c3.5,0,6.2-2.8,6.2-6.2s-2.8-6.2-6.2-6.2s-6.2,2.8-6.2,6.2C137.4,109.5,140.1,112.3,143.6,112.3"/>
	<path d="M160.2,113.7c4.1,0,7.6-3.5,7.6-7.6c0-4.1-3.5-7.6-7.6-7.6s-7.6,3.5-7.6,7.6C152.6,110.2,156,113.7,160.2,113.7"/>
	<path d="M176.1,114.4c4.8,0,8.3-3.5,8.3-8.3s-3.5-8.3-8.3-8.3c-4.8,0-8.3,3.5-8.3,8.3S171.2,114.4,176.1,114.4"/>
	<path d="M192,114.4c4.8,0,8.3-3.5,8.3-8.3s-3.5-8.3-8.3-8.3s-8.3,3.5-8.3,8.3C183.7,110.9,187.8,114.4,192,114.4"/>
	<path d="M207.8,114.4c4.8,0,8.3-3.5,8.3-8.3s-3.5-8.3-8.3-8.3c-4.8,0-8.3,3.5-8.3,8.3S203.7,114.4,207.8,114.4"/>
	<path d="M224.4,114.4c4.8,0,8.3-3.5,8.3-8.3s-3.5-8.3-8.3-8.3s-8.3,3.5-8.3,8.3S219.6,114.4,224.4,114.4"/>
	<path d="M240.3,114.4c4.8,0,8.3-3.5,8.3-8.3s-3.5-8.3-8.3-8.3c-4.8,0-8.3,3.5-8.3,8.3C232,110.9,235.5,114.4,240.3,114.4"/>
	<path d="M256.2,113.7c4.1,0,6.9-3.5,6.9-6.9c0-4.1-3.5-6.9-6.9-6.9c-4.1,0-6.9,3.5-6.9,6.9S252.8,113.7,256.2,113.7"/>
	<path d="M272.8,112.3c3.5,0,6.2-2.8,6.2-6.2s-2.8-6.2-6.2-6.2c-3.5,0-6.2,2.8-6.2,6.2C266.6,109.5,269.4,112.3,272.8,112.3"/>
	<path d="M288.7,110.9c2.8,0,4.8-2.1,4.8-4.8c0-2.8-2.1-4.8-4.8-4.8c-2.8,0-4.8,2.1-4.8,4.8C283.9,108.8,285.9,110.9,288.7,110.9"/>
	<path d="M304.6,109.5c2.1,0,3.5-1.4,3.5-3.5s-1.4-3.5-3.5-3.5c-2.1,0-3.5,1.4-3.5,3.5C301.2,108.2,302.5,109.5,304.6,109.5"/>
	<path d="M321.2,108.8c1.4,0,2.8-1.4,2.8-2.8c0-1.4-1.4-2.8-2.8-2.8s-2.8,1.4-2.8,2.8C318.4,107.5,319.8,108.8,321.2,108.8"/>
	<path d="M337.1,108.2c0.7,0,1.4-0.7,1.4-1.4c0-0.7-0.7-1.4-1.4-1.4c-0.7,0-1.4,0.7-1.4,1.4C335,107.5,336.4,108.2,337.1,108.2"/>
	<path d="M353.7,85.3c0.7,0,0.7-0.7,0.7-0.7c0-0.7-0.7-0.7-0.7-0.7c-0.7,0-0.7,0.7-0.7,0.7L353.7,85.3"/>
	<path d="M371.6,84.7C372.3,84.7,372.3,84.7,371.6,84.7c0.7-0.7,0-0.7,0-0.7C371.6,84,371.6,84,371.6,84.7L371.6,84.7"/>
	<path d="M391,74.3L391,74.3L391,74.3L391,74.3L391,74.3"/>
	<path d="M23.3,122.7L23.3,122.7C23.3,122,23.3,122,23.3,122.7C22.6,122,22.6,122,23.3,122.7C22.6,122.7,22.6,122.7,23.3,122.7"/>
	<path d="M39.2,123.4C39.2,123.4,39.9,122.7,39.2,123.4c0.7-1.4,0.7-1.4,0-1.4C38.5,122,38.5,122,39.2,123.4
		C38.5,122.7,38.5,123.4,39.2,123.4"/>
	<path d="M55.1,124.1c0.7,0,1.4-0.7,1.4-1.4c0-0.7-0.7-1.4-1.4-1.4s-1.4,0.7-1.4,1.4C53.7,123.4,54.4,124.1,55.1,124.1"/>
	<path d="M71,124.7c1.4,0,2.1-0.7,2.1-2.1c0-1.4-0.7-2.1-2.1-2.1c-1.4,0-2.1,0.7-2.1,2.1C68.9,123.4,70.3,124.7,71,124.7"/>
	<path d="M87.6,125.4c2.1,0,3.5-1.4,3.5-3.5s-1.4-3.5-3.5-3.5c-2.1,0-3.5,1.4-3.5,3.5S85.5,125.4,87.6,125.4"/>
	<path d="M103.5,126.8c2.8,0,4.1-2.1,4.1-4.1c0-2.8-2.1-4.1-4.1-4.1c-2.8,0-4.1,2.1-4.1,4.1S100.7,126.8,103.5,126.8"/>
	<path d="M119.4,128.2c3.5,0,5.5-2.8,5.5-5.5c0-3.5-2.8-5.5-5.5-5.5c-3.5,0-5.5,2.8-5.5,5.5C113.9,125.4,116.6,128.2,119.4,128.2"/>
	<path d="M136,129.6c4.1,0,6.9-3.5,6.9-6.9c0-4.1-3.5-6.9-6.9-6.9c-4.1,0-6.9,3.5-6.9,6.9C128.4,126.1,131.8,129.6,136,129.6"/>
	<path d="M151.9,131c4.8,0,8.3-3.5,8.3-8.3s-3.5-8.3-8.3-8.3s-8.3,3.5-8.3,8.3C143.6,126.8,147,131,151.9,131"/>
	<path d="M167.8,131c4.8,0,8.3-3.5,8.3-8.3s-3.5-8.3-8.3-8.3c-4.8,0-8.3,3.5-8.3,8.3C159.5,126.8,163.6,131,167.8,131"/>
	<path d="M184.3,131c4.8,0,8.3-3.5,8.3-8.3s-3.5-8.3-8.3-8.3c-4.8,0-8.3,3.5-8.3,8.3C175.4,126.8,179.5,131,184.3,131"/>
	<path d="M200.2,131c4.8,0,8.3-3.5,8.3-8.3s-3.5-8.3-8.3-8.3s-8.3,3.5-8.3,8.3C192,126.8,195.4,131,200.2,131"/>
	<path d="M216.1,131c4.8,0,8.3-3.5,8.3-8.3s-3.5-8.3-8.3-8.3s-8.3,3.5-8.3,8.3C207.8,126.8,211.3,131,216.1,131"/>
	<path d="M232,131c4.8,0,8.3-3.5,8.3-8.3s-3.5-8.3-8.3-8.3s-8.3,3.5-8.3,8.3C223.7,126.8,227.9,131,232,131"/>
	<path d="M248.6,131c4.8,0,8.3-3.5,8.3-8.3s-3.5-8.3-8.3-8.3c-4.8,0-8.3,3.5-8.3,8.3C240.3,126.8,243.8,131,248.6,131"/>
	<path d="M264.5,128.9c3.5,0,6.9-2.8,6.9-6.9c0-3.5-2.8-6.9-6.9-6.9c-3.5,0-6.9,2.8-6.9,6.9C257.6,126.1,261.1,128.9,264.5,128.9"/>
	<path d="M280.4,127.5c2.8,0,5.5-2.1,5.5-5.5c0-2.8-2.1-5.5-5.5-5.5c-2.8,0-5.5,2.1-5.5,5.5C275.6,125.4,277.7,127.5,280.4,127.5"/>
	<path d="M297,126.1c2.1,0,4.1-2.1,4.1-4.1c0-2.1-2.1-4.1-4.1-4.1c-2.1,0-4.1,2.1-4.1,4.1C292.9,124.7,294.2,126.1,297,126.1"/>
	<path d="M312.9,125.4c1.4,0,2.8-1.4,2.8-2.8c0-1.4-1.4-2.8-2.8-2.8s-2.8,1.4-2.8,2.8C310.1,124.1,311.5,125.4,312.9,125.4"/>
	<path d="M328.8,124.1c1.4,0,2.1-0.7,2.1-2.1c0-1.4-0.7-2.1-2.1-2.1c-1.4,0-2.1,0.7-2.1,2.1C326.7,123.4,328.1,124.1,328.8,124.1"/>
	<path d="M344.7,123.4c0.7,0,1.4-0.7,1.4-1.4c0-0.7-0.7-1.4-1.4-1.4c-0.7,0-1.4,0.7-1.4,1.4C344,122.7,344.7,123.4,344.7,123.4"/>
	<path d="M362.7,102.6C363.4,102.6,363.4,102.6,362.7,102.6c0.7-0.7,0-1.4,0-1.4S362.7,101.9,362.7,102.6L362.7,102.6"/>
	<path d="M381.3,93L381.3,93L381.3,93L381.3,93L381.3,93"/>
	<path d="M30.9,138.6C30.9,138.6,31.6,138.6,30.9,138.6C31.6,138.6,30.9,138.6,30.9,138.6L30.9,138.6L30.9,138.6"/>
	<path d="M46.8,139.3c0.7,0,0.7,0,0.7-0.7s0-0.7-0.7-0.7c-0.7,0-0.7,0-0.7,0.7C46.1,138.6,46.8,139.3,46.8,139.3"/>
	<path d="M63.4,139.9c0.7,0,1.4-0.7,1.4-1.4c0-0.7-0.7-1.4-1.4-1.4c-0.7,0-1.4,0.7-1.4,1.4C62,139.3,62.7,139.9,63.4,139.9"/>
	<path d="M79.3,140.6c1.4,0,2.1-1.4,2.1-2.1c0-1.4-1.4-2.1-2.1-2.1c-1.4,0-2.1,1.4-2.1,2.1C77.2,139.9,77.9,140.6,79.3,140.6"/>
	<path d="M95.2,142c2.1,0,3.5-1.4,3.5-3.5c0-2.1-1.4-3.5-3.5-3.5s-3.5,1.4-3.5,3.5C91.7,140.6,93.8,142,95.2,142"/>
	<path d="M111.8,143.4c2.8,0,4.8-2.1,4.8-4.8s-2.1-4.8-4.8-4.8c-2.8,0-4.8,2.1-4.8,4.8S109,143.4,111.8,143.4"/>
	<path d="M127.7,144.8c3.5,0,6.2-2.8,6.2-6.2s-2.8-6.2-6.2-6.2c-3.5,0-6.2,2.8-6.2,6.2C121.5,142,124.2,144.8,127.7,144.8"/>
	<path d="M143.6,146.2c4.1,0,7.6-3.5,7.6-7.6s-3.5-7.6-7.6-7.6c-4.1,0-7.6,3.5-7.6,7.6S139.4,146.2,143.6,146.2"/>
	<path d="M160.2,146.9c4.8,0,8.3-3.5,8.3-8.3c0-4.8-3.5-8.3-8.3-8.3s-8.3,3.5-8.3,8.3C151.9,143.4,155.3,146.9,160.2,146.9"/>
	<path d="M176.1,146.9c4.8,0,8.3-3.5,8.3-8.3c0-4.8-3.5-8.3-8.3-8.3c-4.8,0-8.3,3.5-8.3,8.3C167.8,143.4,171.2,146.9,176.1,146.9"/>
	<path d="M192,146.9c4.8,0,8.3-3.5,8.3-8.3c0-4.8-3.5-8.3-8.3-8.3s-8.3,3.5-8.3,8.3C183.7,143.4,187.8,146.9,192,146.9"/>
	<path d="M207.8,146.9c4.8,0,8.3-3.5,8.3-8.3c0-4.8-3.5-8.3-8.3-8.3c-4.8,0-8.3,3.5-8.3,8.3C199.6,143.4,203.7,146.9,207.8,146.9"/>
	<path d="M224.4,146.9c4.8,0,8.3-3.5,8.3-8.3c0-4.8-3.5-8.3-8.3-8.3s-8.3,3.5-8.3,8.3C216.1,143.4,219.6,146.9,224.4,146.9"/>
	<path d="M240.3,146.9c4.8,0,8.3-3.5,8.3-8.3c0-4.8-3.5-8.3-8.3-8.3c-4.8,0-8.3,3.5-8.3,8.3C232,143.4,235.5,146.9,240.3,146.9"/>
	<path d="M256.2,146.9c4.8,0,8.3-3.5,8.3-8.3c0-4.8-3.5-8.3-8.3-8.3c-4.8,0-8.3,3.5-8.3,8.3C247.9,143.4,252.1,146.9,256.2,146.9"/>
	<path d="M272.8,145.5c4.1,0,6.9-3.5,6.9-6.9c0-4.1-3.5-6.9-6.9-6.9c-4.1,0-6.9,3.5-6.9,6.9C265.2,142.7,268.7,145.5,272.8,145.5"/>
	<path d="M288.7,144.1c2.8,0,5.5-2.8,5.5-5.5c0-2.8-2.8-5.5-5.5-5.5c-2.8,0-5.5,2.8-5.5,5.5S285.3,144.1,288.7,144.1"/>
	<path d="M304.6,142.7c2.1,0,4.1-2.1,4.1-4.1s-2.1-4.1-4.1-4.1c-2.1,0-4.1,2.1-4.1,4.1C300.5,140.6,302.5,142.7,304.6,142.7"/>
	<path d="M321.2,141.3c1.4,0,2.8-1.4,2.8-2.8c0-1.4-1.4-2.8-2.8-2.8s-2.8,1.4-2.8,2.8C317.7,139.9,319.1,141.3,321.2,141.3"/>
	<path d="M337.1,140.6c1.4,0,2.1-0.7,2.1-2.1s-0.7-2.1-2.1-2.1s-2.1,0.7-2.1,2.1C335,139.9,335.7,140.6,337.1,140.6"/>
	<path d="M353.7,122c0.7,0,1.4-0.7,1.4-1.4c0-0.7-0.7-1.4-1.4-1.4c-0.7,0-1.4,0.7-1.4,1.4C352.3,121.3,353,122,353.7,122"/>
	<path d="M371.6,121.3C372.3,121.3,372.3,120.6,371.6,121.3c0.7-0.7,0-1.4,0-1.4S371,119.9,371.6,121.3
		C371,120.6,371.6,121.3,371.6,121.3"/>
	<path d="M391,111.6L391,111.6L391,111.6C391,111.6,390.3,111.6,391,111.6C390.3,111.6,391,111.6,391,111.6"/>
	<path d="M23.3,154.5L23.3,154.5L23.3,154.5C22.6,154.5,22.6,154.5,23.3,154.5C22.6,154.5,22.6,154.5,23.3,154.5"/>
	<path d="M39.2,155.2C39.2,155.2,39.9,155.2,39.2,155.2c0.7-1.4,0.7-1.4,0-1.4C38.5,153.8,38.5,154.5,39.2,155.2
		C38.5,155.2,38.5,155.2,39.2,155.2"/>
	<path d="M55.1,155.8c0.7,0,1.4-0.7,1.4-1.4c0-0.7-0.7-1.4-1.4-1.4s-1.4,0.7-1.4,1.4C53.7,155.2,54.4,155.8,55.1,155.8"/>
	<path d="M71,156.5c1.4,0,2.1-0.7,2.1-2.1c0-1.4-0.7-2.1-2.1-2.1c-1.4,0-2.1,0.7-2.1,2.1C68.9,155.8,70.3,156.5,71,156.5"/>
	<path d="M87.6,157.9c2.1,0,3.5-1.4,3.5-3.5c0-2.1-1.4-3.5-3.5-3.5c-2.1,0-3.5,1.4-3.5,3.5C84.1,156.5,85.5,157.9,87.6,157.9"/>
	<path d="M103.5,159.3c2.8,0,4.1-2.1,4.1-4.1c0-2.8-2.1-4.1-4.1-4.1c-2.8,0-4.1,2.1-4.1,4.1C99.3,157.2,100.7,159.3,103.5,159.3"/>
	<path d="M119.4,160.7c3.5,0,5.5-2.8,5.5-5.5c0-3.5-2.8-5.5-5.5-5.5c-3.5,0-5.5,2.8-5.5,5.5C113.9,157.9,116.6,160.7,119.4,160.7"/>
	<path d="M136,162.1c4.1,0,6.9-3.5,6.9-6.9c0-4.1-3.5-6.9-6.9-6.9c-4.1,0-6.9,3.5-6.9,6.9C128.4,158.6,131.8,162.1,136,162.1"/>
	<path d="M151.9,162.8c4.8,0,8.3-3.5,8.3-8.3s-3.5-8.3-8.3-8.3s-8.3,3.5-8.3,8.3S147,162.8,151.9,162.8"/>
	<path d="M167.8,162.8c4.8,0,8.3-3.5,8.3-8.3s-3.5-8.3-8.3-8.3c-4.8,0-8.3,3.5-8.3,8.3C159.5,159.3,163.6,162.8,167.8,162.8"/>
	<path d="M184.3,162.8c4.8,0,8.3-3.5,8.3-8.3s-3.5-8.3-8.3-8.3c-4.8,0-8.3,3.5-8.3,8.3C175.4,159.3,179.5,162.8,184.3,162.8"/>
	<path d="M200.2,162.8c4.8,0,8.3-3.5,8.3-8.3s-3.5-8.3-8.3-8.3s-8.3,3.5-8.3,8.3S195.4,162.8,200.2,162.8"/>
	<path d="M216.1,162.8c4.8,0,8.3-3.5,8.3-8.3s-3.5-8.3-8.3-8.3s-8.3,3.5-8.3,8.3C207.8,159.3,211.3,162.8,216.1,162.8"/>
	<path d="M232,162.8c4.8,0,8.3-3.5,8.3-8.3s-3.5-8.3-8.3-8.3s-8.3,3.5-8.3,8.3S227.9,162.8,232,162.8"/>
	<path d="M248.6,162.8c4.8,0,8.3-3.5,8.3-8.3s-3.5-8.3-8.3-8.3c-4.8,0-8.3,3.5-8.3,8.3S243.8,162.8,248.6,162.8"/>
	<path d="M264.5,161.4c3.5,0,6.9-2.8,6.9-6.9c0-3.5-2.8-6.9-6.9-6.9c-3.5,0-6.9,2.8-6.9,6.9S261.1,161.4,264.5,161.4"/>
	<path d="M280.4,160c2.8,0,5.5-2.1,5.5-5.5c0-2.8-2.1-5.5-5.5-5.5c-2.8,0-5.5,2.1-5.5,5.5C275.6,157.2,277.7,160,280.4,160"/>
	<path d="M297,158.6c2.1,0,4.1-2.1,4.1-4.1c0-2.1-2.1-4.1-4.1-4.1c-2.1,0-4.1,2.1-4.1,4.1C292.9,156.5,294.2,158.6,297,158.6"/>
	<path d="M312.9,157.2c1.4,0,2.8-1.4,2.8-2.8s-1.4-2.8-2.8-2.8s-2.8,1.4-2.8,2.8S311.5,157.2,312.9,157.2"/>
	<path d="M328.8,156.5c1.4,0,2.1-0.7,2.1-2.1c0-1.4-0.7-2.1-2.1-2.1c-1.4,0-2.1,0.7-2.1,2.1C326.7,155.8,328.1,156.5,328.8,156.5"/>
	<path d="M344.7,155.8c0.7,0,1.4-0.7,1.4-1.4c0-0.7-0.7-1.4-1.4-1.4c-0.7,0-1.4,0.7-1.4,1.4C344,155.2,344.7,155.8,344.7,155.8"/>
	<path d="M362.7,139.3C363.4,139.3,363.4,138.6,362.7,139.3c0.7-0.7,0-1.4,0-1.4S362.7,137.9,362.7,139.3
		C362.7,138.6,362.7,139.3,362.7,139.3"/>
	<path d="M381.3,131L381.3,131L381.3,131L381.3,131L381.3,131"/>
	<path d="M30.9,171.1L30.9,171.1C30.9,170.4,30.9,170.4,30.9,171.1C30.9,170.4,30.9,170.4,30.9,171.1L30.9,171.1"/>
	<path d="M46.8,171.1C47.5,171.1,47.5,171.1,46.8,171.1c0.7-0.7,0-1.4,0-1.4C46.8,170.4,46.8,170.4,46.8,171.1L46.8,171.1"/>
	<path d="M63.4,171.7c0.7,0,1.4-0.7,1.4-1.4c0-0.7-0.7-1.4-1.4-1.4c-0.7,0-1.4,0.7-1.4,1.4C62,171.1,62.7,171.7,63.4,171.7"/>
	<path d="M79.3,172.4c1.4,0,2.1-0.7,2.1-2.1c0-1.4-0.7-2.1-2.1-2.1c-1.4,0-2.1,0.7-2.1,2.1C77.2,171.7,78.6,172.4,79.3,172.4"/>
	<path d="M95.2,173.8c1.4,0,2.8-1.4,2.8-2.8c0-1.4-1.4-2.8-2.8-2.8s-2.8,1.4-2.8,2.8C92.4,172.4,93.8,173.8,95.2,173.8"/>
	<path d="M111.8,174.5c2.1,0,4.1-2.1,4.1-4.1c0-2.1-2.1-4.1-4.1-4.1c-2.1,0-4.1,2.1-4.1,4.1C107.6,173.1,109.7,174.5,111.8,174.5"/>
	<path d="M127.7,175.9c2.8,0,4.8-2.1,4.8-4.8s-2.1-4.8-4.8-4.8c-2.8,0-4.8,2.1-4.8,4.8S124.9,175.9,127.7,175.9"/>
	<path d="M143.6,177.3c3.5,0,6.2-2.8,6.2-6.2s-2.8-6.2-6.2-6.2s-6.2,2.8-6.2,6.2C137.4,174.5,140.1,177.3,143.6,177.3"/>
	<path d="M160.2,178c4.1,0,7.6-3.5,7.6-7.6s-3.5-7.6-7.6-7.6s-7.6,3.5-7.6,7.6C152.6,175.2,155.3,178,160.2,178"/>
	<path d="M176.1,179.3c4.8,0,8.3-3.5,8.3-8.3c0-4.8-3.5-8.3-8.3-8.3c-4.8,0-8.3,3.5-8.3,8.3C167.8,175.2,171.2,179.3,176.1,179.3"/>
	<path d="M192,179.3c4.8,0,8.3-3.5,8.3-8.3c0-4.8-3.5-8.3-8.3-8.3s-8.3,3.5-8.3,8.3C183.7,175.2,187.8,179.3,192,179.3"/>
	<path d="M207.8,179.3c4.8,0,8.3-3.5,8.3-8.3c0-4.8-3.5-8.3-8.3-8.3c-4.8,0-8.3,3.5-8.3,8.3C199.6,175.2,203.7,179.3,207.8,179.3"/>
	<path d="M224.4,179.3c4.8,0,8.3-3.5,8.3-8.3c0-4.8-3.5-8.3-8.3-8.3s-8.3,3.5-8.3,8.3C216.1,175.2,219.6,179.3,224.4,179.3"/>
	<path d="M240.3,179.3c4.8,0,8.3-3.5,8.3-8.3c0-4.8-3.5-8.3-8.3-8.3c-4.8,0-8.3,3.5-8.3,8.3C232,175.2,235.5,179.3,240.3,179.3"/>
	<path d="M256.2,178c4.1,0,6.9-3.5,6.9-6.9c0-4.1-3.5-6.9-6.9-6.9c-4.1,0-6.9,3.5-6.9,6.9S252.8,178,256.2,178"/>
	<path d="M272.8,176.6c3.5,0,6.2-2.8,6.2-6.2s-2.8-6.2-6.2-6.2c-3.5,0-6.2,2.8-6.2,6.2C266.6,173.8,269.4,176.6,272.8,176.6"/>
	<path d="M288.7,175.2c2.8,0,4.8-2.1,4.8-4.8s-2.1-4.8-4.8-4.8c-2.8,0-4.8,2.1-4.8,4.8C283.9,173.1,285.9,175.2,288.7,175.2"/>
	<path d="M304.6,174.5c2.1,0,3.5-1.4,3.5-3.5c0-2.1-1.4-3.5-3.5-3.5c-2.1,0-3.5,1.4-3.5,3.5C301.2,172.4,302.5,174.5,304.6,174.5"/>
	<path d="M321.2,173.1c1.4,0,2.8-1.4,2.8-2.8c0-1.4-1.4-2.8-2.8-2.8s-2.8,1.4-2.8,2.8C318.4,172.4,319.8,173.1,321.2,173.1"/>
	<path d="M337.1,172.4c0.7,0,1.4-0.7,1.4-1.4c0-0.7-0.7-1.4-1.4-1.4c-0.7,0-1.4,0.7-1.4,1.4C335.7,171.7,336.4,172.4,337.1,172.4"/>
	<path d="M353.7,157.2c0.7,0,0.7-0.7,0.7-0.7c0-0.7-0.7-0.7-0.7-0.7c-0.7,0-0.7,0.7-0.7,0.7C353,157.2,353.7,157.2,353.7,157.2"/>
	<path d="M371.6,156.5C372.3,156.5,372.3,156.5,371.6,156.5c0.7-0.7,0-0.7,0-0.7C371.6,155.8,371.6,155.8,371.6,156.5L371.6,156.5"
		/>
	<path d="M391,149.6L391,149.6L391,149.6L391,149.6L391,149.6"/>
	<polyline points="23.3,186.9 23.3,186.9 23.3,186.9 22.6,186.9 23.3,186.9 	"/>
	<path d="M39.2,186.9L39.2,186.9C39.2,186.9,39.2,186.3,39.2,186.9C39.2,186.3,38.5,186.9,39.2,186.9
		C38.5,186.9,39.2,186.9,39.2,186.9"/>
	<path d="M55.1,187.6c0.7,0,0.7-0.7,0.7-0.7c0-0.7-0.7-0.7-0.7-0.7c-0.7,0-0.7,0.7-0.7,0.7C54.4,186.9,54.4,187.6,55.1,187.6"/>
	<path d="M71,188.3c0.7,0,1.4-0.7,1.4-1.4c0-0.7-0.7-1.4-1.4-1.4c-0.7,0-1.4,0.7-1.4,1.4S70.3,188.3,71,188.3"/>
	<path d="M87.6,189c1.4,0,2.1-0.7,2.1-2.1c0-1.4-0.7-2.1-2.1-2.1s-2.1,0.7-2.1,2.1C84.8,188.3,86.2,189,87.6,189"/>
	<path d="M103.5,189.7c2.1,0,3.5-1.4,3.5-3.5c0-2.1-1.4-3.5-3.5-3.5c-2.1,0-3.5,1.4-3.5,3.5C100,188.3,101.4,189.7,103.5,189.7"/>
	<path d="M119.4,191.1c2.1,0,4.1-2.1,4.1-4.1c0-2.1-2.1-4.1-4.1-4.1c-2.1,0-4.1,2.1-4.1,4.1C115.2,189,117.3,191.1,119.4,191.1"/>
	<path d="M136,191.8c2.8,0,4.8-2.1,4.8-4.8s-2.1-4.8-4.8-4.8c-2.8,0-4.8,2.1-4.8,4.8C130.4,189.7,133.2,191.8,136,191.8"/>
	<path d="M151.9,193.2c3.5,0,6.2-2.8,6.2-6.2s-2.8-6.2-6.2-6.2s-6.2,2.8-6.2,6.2C145.6,190.4,148.4,193.2,151.9,193.2"/>
	<path d="M167.8,193.9c3.5,0,6.9-2.8,6.9-6.9c0-3.5-2.8-6.9-6.9-6.9c-3.5,0-6.9,2.8-6.9,6.9C160.9,190.4,164.3,193.9,167.8,193.9"/>
	<path d="M184.3,193.9c4.1,0,7.6-3.5,7.6-7.6s-3.5-7.6-7.6-7.6c-4.1,0-7.6,3.5-7.6,7.6C176.7,191.1,180.2,193.9,184.3,193.9"/>
	<path d="M200.2,194.5c4.1,0,7.6-3.5,7.6-7.6s-3.5-7.6-7.6-7.6c-4.1,0-7.6,3.5-7.6,7.6S196.1,194.5,200.2,194.5"/>
	<path d="M216.1,193.9c4.1,0,6.9-3.5,6.9-6.9c0-4.1-3.5-6.9-6.9-6.9c-4.1,0-6.9,3.5-6.9,6.9C209.2,191.1,212,193.9,216.1,193.9"/>
	<path d="M232,193.2c3.5,0,6.2-2.8,6.2-6.2s-2.8-6.2-6.2-6.2s-6.2,2.8-6.2,6.2S228.6,193.2,232,193.2"/>
	<path d="M248.6,192.5c3.5,0,5.5-2.8,5.5-5.5c0-3.5-2.8-5.5-5.5-5.5c-3.5,0-5.5,2.8-5.5,5.5C242.4,189.7,245.2,192.5,248.6,192.5"/>
	<path d="M264.5,191.8c2.8,0,4.8-2.1,4.8-4.8s-2.1-4.8-4.8-4.8s-4.8,2.1-4.8,4.8C259.7,189.7,261.8,191.8,264.5,191.8"/>
	<path d="M280.4,190.4c2.1,0,3.5-1.4,3.5-3.5c0-2.1-1.4-3.5-3.5-3.5c-2.1,0-3.5,1.4-3.5,3.5C277,189,278.3,190.4,280.4,190.4"/>
	<path d="M297,189.7c1.4,0,2.8-1.4,2.8-2.8s-1.4-2.8-2.8-2.8s-2.8,1.4-2.8,2.8C293.5,188.3,294.9,189.7,297,189.7"/>
	<path d="M312.9,189c1.4,0,2.1-0.7,2.1-2.1c0-1.4-0.7-2.1-2.1-2.1s-2.1,0.7-2.1,2.1C310.8,187.6,311.5,189,312.9,189"/>
	<path d="M328.8,188.3c0.7,0,1.4-0.7,1.4-1.4s-0.7-1.4-1.4-1.4c-0.7,0-1.4,0.7-1.4,1.4S328.1,188.3,328.8,188.3"/>
	<path d="M344.7,187.6C345.4,187.6,345.4,186.9,344.7,187.6c0.7-0.7,0-1.4,0-1.4S344.7,186.3,344.7,187.6
		C344.7,186.9,344.7,187.6,344.7,187.6"/>
	<path d="M362.7,174.5C362.7,174.5,363.4,174.5,362.7,174.5C363.4,174.5,362.7,174.5,362.7,174.5L362.7,174.5L362.7,174.5"/>
	<path d="M46.8,202.8C47.5,202.8,47.5,202.8,46.8,202.8C47.5,202.8,47.5,202.8,46.8,202.8L46.8,202.8L46.8,202.8"/>
	<path d="M63.4,203.5C63.4,203.5,63.4,202.8,63.4,203.5c0.7-0.7,0-0.7,0-0.7S62.7,202.8,63.4,203.5
		C62.7,202.8,62.7,203.5,63.4,203.5"/>
	<path d="M79.3,204.2c0.7,0,0.7-0.7,0.7-0.7c0-0.7-0.7-0.7-0.7-0.7c-0.7,0-0.7,0.7-0.7,0.7S78.6,204.2,79.3,204.2"/>
	<path d="M95.2,204.2c0.7,0,1.4-0.7,1.4-1.4c0-0.7-0.7-1.4-1.4-1.4c-0.7,0-1.4,0.7-1.4,1.4C93.8,203.5,94.5,204.2,95.2,204.2"/>
	<path d="M111.8,204.9c1.4,0,2.1-1.4,2.1-2.1c0-1.4-1.4-2.1-2.1-2.1c-1.4,0-2.1,1.4-2.1,2.1C109,204.2,110.4,204.9,111.8,204.9"/>
	<path d="M127.7,206.3c1.4,0,2.8-1.4,2.8-2.8c0-1.4-1.4-2.8-2.8-2.8s-2.8,1.4-2.8,2.8C124.9,204.9,126.3,206.3,127.7,206.3"/>
	<path d="M143.6,207c2.1,0,3.5-1.4,3.5-3.5c0-2.1-1.4-3.5-3.5-3.5s-3.5,1.4-3.5,3.5C140.1,204.9,141.5,207,143.6,207"/>
	<path d="M160.2,207.7c2.8,0,4.1-2.1,4.1-4.1c0-2.8-2.1-4.1-4.1-4.1c-2.8,0-4.1,2.1-4.1,4.1C155.3,205.6,157.4,207.7,160.2,207.7"/>
	<path d="M176.1,207.7c2.8,0,4.8-2.1,4.8-4.8s-2.1-4.8-4.8-4.8c-2.8,0-4.8,2.1-4.8,4.8S173.3,207.7,176.1,207.7"/>
	<path d="M192,208.4c2.8,0,5.5-2.1,5.5-5.5c0-2.8-2.1-5.5-5.5-5.5c-2.8,0-5.5,2.1-5.5,5.5C186.4,205.6,189.2,208.4,192,208.4"/>
	<path d="M207.8,208.4c2.8,0,5.5-2.8,5.5-5.5c0-2.8-2.8-5.5-5.5-5.5c-2.8,0-5.5,2.8-5.5,5.5C203,205.6,205.1,208.4,207.8,208.4"/>
	<path d="M224.4,208.4c2.8,0,5.5-2.1,5.5-5.5c0-2.8-2.1-5.5-5.5-5.5s-5.5,2.1-5.5,5.5C218.9,205.6,221.7,208.4,224.4,208.4"/>
	<path d="M240.3,207.7c2.8,0,4.8-2.1,4.8-4.8s-2.1-4.8-4.8-4.8c-2.8,0-4.8,2.1-4.8,4.8C235.5,205.6,237.6,207.7,240.3,207.7"/>
	<path d="M256.2,207c2.1,0,4.1-2.1,4.1-4.1c0-2.1-2.1-4.1-4.1-4.1c-2.1,0-4.1,2.1-4.1,4.1C252.1,205.6,254.2,207,256.2,207"/>
	<path d="M272.8,206.3c2.1,0,3.5-1.4,3.5-3.5c0-2.1-1.4-3.5-3.5-3.5s-3.5,1.4-3.5,3.5C268.7,204.9,270.7,206.3,272.8,206.3"/>
	<path d="M288.7,205.6c1.4,0,2.8-1.4,2.8-2.8c0-1.4-1.4-2.8-2.8-2.8s-2.8,1.4-2.8,2.8C285.9,204.2,287.3,205.6,288.7,205.6"/>
	<path d="M304.6,204.9c1.4,0,2.1-0.7,2.1-2.1c0-1.4-0.7-2.1-2.1-2.1s-2.1,0.7-2.1,2.1C302.5,204.2,303.9,204.9,304.6,204.9"/>
	<path d="M321.2,204.2c0.7,0,1.4-0.7,1.4-1.4c0-0.7-0.7-1.4-1.4-1.4c-0.7,0-1.4,0.7-1.4,1.4C319.8,203.5,319.8,204.2,321.2,204.2"/>
	<path d="M337.1,203.5c0.7,0,0.7-0.7,0.7-0.7c0-0.7-0.7-0.7-0.7-0.7c-0.7,0-0.7,0.7-0.7,0.7C336.4,203.5,336.4,203.5,337.1,203.5"/>
	<path d="M353.7,192.5C354.4,192.5,354.4,192.5,353.7,192.5c0.7-0.7,0-0.7,0-0.7C353.7,191.8,353.7,192.5,353.7,192.5L353.7,192.5"
		/>
	<path d="M371.6,192.5L371.6,192.5L371.6,192.5L371.6,192.5L371.6,192.5"/>
	<path d="M55.1,219.4L55.1,219.4C55.1,218.7,55.1,218.7,55.1,219.4C55.1,218.7,55.1,218.7,55.1,219.4L55.1,219.4"/>
	<path d="M71,219.4C71.7,219.4,71.7,219.4,71,219.4c0.7-0.7,0-0.7,0-0.7S71,218.7,71,219.4L71,219.4"/>
	<path d="M87.6,220.1c0.7,0,0.7-0.7,0.7-0.7c0-0.7-0.7-0.7-0.7-0.7c-0.7,0-0.7,0.7-0.7,0.7C86.2,219.4,86.9,220.1,87.6,220.1"/>
	<path d="M103.5,220.8c0.7,0,1.4-0.7,1.4-1.4c0-0.7-0.7-1.4-1.4-1.4c-0.7,0-1.4,0.7-1.4,1.4S102.8,220.8,103.5,220.8"/>
	<path d="M119.4,220.8c1.4,0,2.1-0.7,2.1-2.1s-0.7-2.1-2.1-2.1c-1.4,0-2.1,0.7-2.1,2.1S118.7,220.8,119.4,220.8"/>
	<path d="M136,221.5c1.4,0,2.8-1.4,2.8-2.8c0-1.4-1.4-2.8-2.8-2.8s-2.8,1.4-2.8,2.8C133.2,220.1,134.6,221.5,136,221.5"/>
	<path d="M151.9,222.2c1.4,0,2.8-1.4,2.8-2.8s-1.4-2.8-2.8-2.8s-2.8,1.4-2.8,2.8C149.1,220.8,149.8,222.2,151.9,222.2"/>
	<path d="M167.8,222.2c2.1,0,3.5-1.4,3.5-3.5c0-2.1-1.4-3.5-3.5-3.5c-2.1,0-3.5,1.4-3.5,3.5C164.3,220.8,165.7,222.2,167.8,222.2"/>
	<path d="M184.3,222.9c2.1,0,3.5-1.4,3.5-3.5c0-2.1-1.4-3.5-3.5-3.5c-2.1,0-3.5,1.4-3.5,3.5C180.9,221.5,182.3,222.9,184.3,222.9"/>
	<path d="M200.2,222.9c2.1,0,3.5-1.4,3.5-3.5c0-2.1-1.4-3.5-3.5-3.5s-3.5,1.4-3.5,3.5C196.1,220.8,198.2,222.9,200.2,222.9"/>
	<path d="M216.1,222.9c2.1,0,3.5-1.4,3.5-3.5c0-2.1-1.4-3.5-3.5-3.5s-3.5,1.4-3.5,3.5C212.7,220.8,214.1,222.9,216.1,222.9"/>
	<path d="M232,222.2c2.1,0,3.5-1.4,3.5-3.5c0-2.1-1.4-3.5-3.5-3.5s-3.5,1.4-3.5,3.5C229.3,220.8,230.7,222.2,232,222.2"/>
	<path d="M248.6,222.2c1.4,0,2.8-1.4,2.8-2.8s-1.4-2.8-2.8-2.8c-1.4,0-2.8,1.4-2.8,2.8C245.9,220.8,246.6,222.2,248.6,222.2"/>
	<path d="M264.5,221.5c1.4,0,2.1-1.4,2.1-2.1c0-1.4-1.4-2.1-2.1-2.1s-2.1,1.4-2.1,2.1C262.4,220.1,263.1,221.5,264.5,221.5"/>
	<path d="M280.4,220.8c0.7,0,2.1-0.7,2.1-2.1c0-0.7-0.7-2.1-2.1-2.1c-0.7,0-2.1,0.7-2.1,2.1C279,220.1,279.7,220.8,280.4,220.8"/>
	<path d="M297,220.1c0.7,0,1.4-0.7,1.4-1.4c0-0.7-0.7-1.4-1.4-1.4c-0.7,0-1.4,0.7-1.4,1.4C295.6,219.4,296.3,220.1,297,220.1"/>
	<path d="M312.9,220.1c0.7,0,0.7-0.7,0.7-0.7c0-0.7-0.7-0.7-0.7-0.7l-0.7,0.7C312.2,219.4,312.2,220.1,312.9,220.1"/>
	<path d="M328.8,219.4C328.8,219.4,329.5,219.4,328.8,219.4c0.7-0.7,0-0.7,0-0.7S328.8,218.7,328.8,219.4L328.8,219.4"/>
	<path d="M344.7,219.4C345.4,219.4,345.4,218.7,344.7,219.4C345.4,218.7,345.4,218.7,344.7,219.4
		C344.7,218.7,344.7,218.7,344.7,219.4C344.7,218.7,344.7,219.4,344.7,219.4"/>
	<path d="M79.3,235.3L79.3,235.3C79.3,235.3,79.3,234.6,79.3,235.3C79.3,234.6,79.3,235.3,79.3,235.3L79.3,235.3"/>
	<path d="M95.2,235.3C95.9,235.3,95.9,235.3,95.2,235.3c0.7-0.7,0-0.7,0-0.7S95.2,234.6,95.2,235.3L95.2,235.3"/>
	<path d="M111.8,236c0.7,0,0.7,0,0.7-0.7s0-0.7-0.7-0.7s-0.7,0-0.7,0.7C111.1,235.3,111.1,236,111.8,236"/>
	<path d="M127.7,236c0.7,0,1.4-0.7,1.4-1.4c0-0.7-0.7-1.4-1.4-1.4c-0.7,0-1.4,0.7-1.4,1.4C126.3,236,127,236,127.7,236"/>
	<path d="M143.6,236.7c0.7,0,1.4-0.7,1.4-1.4c0-0.7-0.7-1.4-1.4-1.4c-0.7,0-1.4,0.7-1.4,1.4C142.2,236,142.9,236.7,143.6,236.7"/>
	<path d="M160.2,236.7c0.7,0,2.1-0.7,2.1-2.1c0-0.7-0.7-2.1-2.1-2.1c-0.7,0-2.1,0.7-2.1,2.1C158.1,236,158.8,236.7,160.2,236.7"/>
	<path d="M176.1,237.4c1.4,0,2.1-0.7,2.1-2.1c0-1.4-0.7-2.1-2.1-2.1c-1.4,0-2.1,0.7-2.1,2.1C174,236,174.7,237.4,176.1,237.4"/>
	<path d="M192,237.4c1.4,0,2.1-0.7,2.1-2.1c0-1.4-0.7-2.1-2.1-2.1s-2.1,0.7-2.1,2.1C189.9,236,190.6,237.4,192,237.4"/>
	<path d="M207.8,237.4c1.4,0,2.1-0.7,2.1-2.1c0-1.4-0.7-2.1-2.1-2.1c-1.4,0-2.1,0.7-2.1,2.1C205.8,236.7,207.2,237.4,207.8,237.4"/>
	<path d="M224.4,237.4c1.4,0,2.1-0.7,2.1-2.1c0-1.4-0.7-2.1-2.1-2.1s-2.1,0.7-2.1,2.1C222.4,236,223.1,237.4,224.4,237.4"/>
	<path d="M240.3,237.4c1.4,0,2.1-0.7,2.1-2.1c0-1.4-0.7-2.1-2.1-2.1c-1.4,0-2.1,0.7-2.1,2.1C238.3,236,238.9,237.4,240.3,237.4"/>
	<path d="M256.2,236.7c0.7,0,2.1-0.7,2.1-2.1c0-0.7-0.7-2.1-2.1-2.1c-0.7,0-2.1,0.7-2.1,2.1C254.8,236,255.5,236.7,256.2,236.7"/>
	<path d="M272.8,236.7c0.7,0,1.4-0.7,1.4-1.4c0-0.7-0.7-1.4-1.4-1.4s-1.4,0.7-1.4,1.4C271.4,236,272.1,236.7,272.8,236.7"/>
	<path d="M288.7,236c0.7,0,0.7-0.7,0.7-0.7c0-0.7-0.7-0.7-0.7-0.7c-0.7,0-0.7,0.7-0.7,0.7C288,235.3,288,236,288.7,236"/>
	<path d="M304.6,236C305.3,236,305.3,235.3,304.6,236c0.7-0.7,0-1.4,0-1.4S303.9,234.6,304.6,236C303.9,235.3,304.6,236,304.6,236"
		/>
	<path d="M321.2,235.3L321.2,235.3C321.2,234.6,321.2,234.6,321.2,235.3C320.5,234.6,320.5,234.6,321.2,235.3
		C320.5,235.3,320.5,235.3,321.2,235.3"/>
	<polyline points="337.1,235.3 337.1,235.3 337.1,235.3 337.1,235.3 337.1,235.3 	"/>
	<polyline points="87.6,251.2 87.6,251.2 87.6,251.2 87.6,251.2 87.6,251.2 	"/>
	<path d="M103.5,251.2L103.5,251.2L103.5,251.2L103.5,251.2L103.5,251.2"/>
	<path d="M119.4,251.9C120.1,251.9,120.1,251.2,119.4,251.9c0.7-0.7,0-0.7,0-0.7S119.4,251.2,119.4,251.9
		C119.4,251.2,119.4,251.9,119.4,251.9"/>
	<path d="M136,251.9C136,251.9,136.7,251.2,136,251.9c0.7-0.7,0-1.4,0-1.4C135.3,250.5,135.3,250.5,136,251.9
		C135.3,251.2,135.3,251.9,136,251.9"/>
	<path d="M151.9,251.9c0.7,0,0.7-0.7,0.7-0.7c0-0.7-0.7-0.7-0.7-0.7c-0.7,0-0.7,0.7-0.7,0.7C151.2,251.9,151.2,251.9,151.9,251.9"/>
	<path d="M167.8,251.9c0.7,0,0.7-0.7,0.7-0.7c0-0.7-0.7-0.7-0.7-0.7l-0.7,0.7C167.1,251.9,167.1,251.9,167.8,251.9"/>
	<path d="M184.3,252.6c0.7,0,1.4-0.7,1.4-1.4c0-0.7-0.7-1.4-1.4-1.4c-0.7,0-1.4,0.7-1.4,1.4C183,251.9,183.7,252.6,184.3,252.6"/>
	<path d="M200.2,252.6c0.7,0,1.4-0.7,1.4-1.4c0-0.7-0.7-1.4-1.4-1.4c-0.7,0-1.4,0.7-1.4,1.4C198.9,251.9,199.6,252.6,200.2,252.6"/>
	<path d="M216.1,252.6c0.7,0,1.4-0.7,1.4-1.4c0-0.7-0.7-1.4-1.4-1.4c-0.7,0-1.4,0.7-1.4,1.4C214.8,251.9,215.5,252.6,216.1,252.6"/>
	<path d="M232,251.9c0.7,0,0.7-0.7,0.7-0.7c0-0.7-0.7-0.7-0.7-0.7c-0.7,0-0.7,0.7-0.7,0.7C231.3,251.9,232,251.9,232,251.9"/>
	<path d="M248.6,251.9c0.7,0,0.7-0.7,0.7-0.7c0-0.7-0.7-0.7-0.7-0.7c-0.7,0-0.7,0.7-0.7,0.7C247.9,251.9,247.9,251.9,248.6,251.9"/>
	<path d="M264.5,251.9C264.5,251.9,265.2,251.2,264.5,251.9c0.7-0.7,0-1.4,0-1.4S263.8,251.2,264.5,251.9
		C263.8,251.2,264.5,251.9,264.5,251.9"/>
	<path d="M280.4,251.2C281.1,251.2,281.1,251.2,280.4,251.2c0.7-0.7,0-0.7,0-0.7C280.4,250.5,280.4,251.2,280.4,251.2L280.4,251.2"
		/>
	<path d="M297,251.2L297,251.2L297,251.2C296.3,251.2,296.3,251.2,297,251.2C296.3,251.2,296.3,251.2,297,251.2"/>
	<polyline points="127.7,267.1 127.7,267.1 127.7,267.1 127.7,267.1 127.7,267.1 	"/>
	<path d="M143.6,267.1L143.6,267.1L143.6,267.1L143.6,267.1L143.6,267.1"/>
	<path d="M160.2,267.8C160.2,267.8,160.2,267.1,160.2,267.8C160.2,267.1,160.2,267.1,160.2,267.8
		C159.5,267.1,159.5,267.1,160.2,267.8C159.5,267.1,159.5,267.8,160.2,267.8"/>
	<path d="M176.1,267.8L176.1,267.8C176.1,267.1,176.1,267.1,176.1,267.8C176.1,267.1,175.4,267.1,176.1,267.8
		C175.4,267.8,176.1,267.8,176.1,267.8"/>
	<path d="M192,267.8C192,267.8,192.6,267.8,192,267.8c0.7-0.7,0-0.7,0-0.7S192,267.1,192,267.8L192,267.8"/>
	<path d="M207.8,267.8C208.5,267.8,208.5,267.8,207.8,267.8c0.7-0.7,0-0.7,0-0.7S207.8,267.1,207.8,267.8L207.8,267.8"/>
	<path d="M224.4,267.8L224.4,267.8C224.4,267.1,224.4,267.1,224.4,267.8C224.4,267.1,223.7,267.1,224.4,267.8
		C223.7,267.8,224.4,267.8,224.4,267.8"/>
	<path d="M240.3,267.8C240.3,267.8,240.3,267.1,240.3,267.8C240.3,267.1,240.3,267.1,240.3,267.8
		C240.3,267.1,240.3,267.1,240.3,267.8C240.3,267.1,240.3,267.8,240.3,267.8"/>
	<path d="M256.2,267.8C256.2,267.8,256.9,267.1,256.2,267.8C256.9,267.1,256.2,267.1,256.2,267.8
		C256.2,267.1,256.2,267.1,256.2,267.8C256.2,267.1,256.2,267.8,256.2,267.8"/>
	<path d="M272.8,267.1L272.8,267.1L272.8,267.1L272.8,267.1L272.8,267.1"/>
	<path class="st0" d="M233.4,292l-42.2-31.1c-3.5,0.7-6.9,0.7-10.4,0.7h-49.1c-60.1,0-109.2-49.1-109.2-109.2S71.7,43.2,131.8,43.2
		h49.1c60.1,0,109.2,49.1,109.2,109.2c0,37.3-18,70.5-48.4,91.2L233.4,292z M196.8,239.5l21.4,15.9l4.1-24.2l4.1-2.8
		c27-15.9,42.9-44.2,42.9-76c0-49.1-39.4-88.5-88.5-88.5h-49.1c-49.1,0-88.5,39.4-88.5,88.5s39.4,88.5,88.5,88.5h49.1
		c4.1,0,8.3,0,12.4-0.7L196.8,239.5z"/>
	<path class="st1" d="M284.6,147.6c0-54.6-44.2-98.8-98.8-98.8h-49.1c-54.6,0-98.8,44.2-98.8,98.8s44.2,98.8,98.8,98.8h49.1
		c4.8,0,9,0,13.8-0.7l31.8,23.5l6.2-36.6C265.2,214.6,284.6,183.5,284.6,147.6"/>
	<path class="st2" d="M213.4,107.5c-9,0-15.9,6.9-15.9,15.9c0,9,6.9,15.9,15.9,15.9c9,0,15.9-6.9,15.9-15.9
		C229.3,115.1,221.7,107.5,213.4,107.5 M224.4,119.9c-2.1,2.1-4.8,4.1-6.9,6.2c-2.8,2.8-5.5,4.8-8.3,6.9c0,0-0.7,0.7-0.7,0
		c-2.1-2.1-4.8-4.1-6.9-6.2c0,0-0.7-0.7,0-0.7c0.7-0.7,2.1-2.1,2.8-2.8c0.7-0.7,0.7-0.7,0.7,0c0.7,1.4,2.1,2.8,2.8,3.5
		c0.7,0.7,0.7,0.7,0.7,0c2.8-3.5,5.5-6.2,7.6-9.7c0.7-0.7,1.4-1.4,2.1-2.8h0.7c1.4,1.4,2.8,2.8,3.5,3.5l0.7,0.7
		C224.4,119.2,224.4,119.2,224.4,119.9L224.4,119.9"/>
	<path class="st2" d="M136,84c-0.7,0-2.1,0.7-2.8,0.7c-2.1,0.7-4.1,0.7-6.2,2.1c-4.1,2.8-6.9,6.2-7.6,11.1c0,1.4-0.7,2.8-0.7,3.5
		c-0.7,0,0-0.7-0.7-0.7c-0.7-2.1-0.7-4.8-1.4-6.9c-2.1-5.5-6.2-8.3-11.7-9c-1.4,0-2.8-0.7-4.1-0.7l0,0c0.7,0,1.4,0,2.8-0.7
		c2.8-0.7,4.8-0.7,7.6-2.1c3.5-2.1,5.5-4.8,6.9-9c0.7-1.4,0.7-3.5,0.7-4.8c0,0,0-0.7,0.7-0.7c0,1.4,0.7,2.8,0.7,3.5
		c0.7,6.9,6.2,12.4,13.1,13.1C133.9,83.3,135.3,83.3,136,84C136,83.3,136,84,136,84"/>
	<path class="st2" d="M163.6,60.5c-1.4,0-2.8,0.7-3.5,0.7c-5.5,0.7-9.7,4.8-10.4,10.4c0,1.4-0.7,2.1-0.7,3.5c-0.7,0,0-0.7-0.7-0.7
		c-0.7-2.1-0.7-4.1-1.4-5.5c-2.1-4.1-5.5-6.9-9.7-7.6c-1.4,0-2.1-0.7-3.5-0.7c0.7-0.7,0.7,0,1.4-0.7c2.1-0.7,3.5-0.7,5.5-1.4
		c4.1-2.1,6.9-4.8,7.6-9c0-1.4,0.7-2.1,0.7-3.5c0,0,0-0.7,0.7-0.7c0,1.4,0.7,2.1,0.7,2.8c0.7,5.5,4.8,9.7,9.7,11.1
		c1.4,0,2.1,0.7,3.5,0.7C162.9,60.5,162.9,60.5,163.6,60.5"/>
	<path class="st2" d="M145.6,173.1c4.1,3.5,9.7,3.5,13.8,0.7c4.8-3.5,6.9-10.4,4.1-15.9c-0.7-1.4-1.4-3.5-2.1-4.8
		c-1.4-3.5-1.4-6.9-2.1-11.1c0-0.7,0-1.4,0-2.1c0-4.1,0-7.6,0-11.7c0-2.1,0-4.8,0.7-6.9c0-3.5,0.7-6.2,1.4-9.7
		c1.4-6.9,2.8-13.1,4.8-19.4c0-0.7,0.7-1.4,0.7-2.1c0,0-0.7,0-0.7,0.7c-0.7,1.4-1.4,2.1-2.1,3.5c-4.8,7.6-8.3,15.2-11.1,23.5
		c-2.1,6.2-4.1,13.1-5.5,19.4c0,1.4-0.7,2.8-0.7,4.1c-0.7,2.1-0.7,3.5-1.4,5.5c-0.7,2.1-1.4,3.5-2.1,5.5c-0.7,1.4-1.4,2.8-2.1,4.1
		C139.4,162.8,140.8,169.7,145.6,173.1"/>
	<path class="st2" d="M119.4,139.9c3.5,0,6.2,0,9.7,0c1.4,0,1.4,0,1.4-1.4c0-4.1,0-8.3,0-12.4c0.7-5.5,1.4-11.1,2.1-15.9
		c1.4-6.2,2.8-13.1,5.5-19.4c-0.7,0-0.7,0.7-0.7,0.7c-2.1,3.5-4.1,6.9-6.2,10.4c-5.5,11.7-9.7,23.5-12.4,36.6
		C118.7,139.9,118.7,139.9,119.4,139.9"/>
	<path class="st2" d="M180.2,139.9c3.5,0,6.2,0,9.7,0c1.4,0,1.4,0,1.4-1.4c0-4.1,0-9,0.7-13.1s0.7-8.3,1.4-13.1
		c1.4-6.2,2.8-12.4,4.8-18.7c0.7-0.7,0.7-2.1,1.4-3.5c-0.7,0-0.7,0.7-0.7,0.7c-4.8,6.9-8.3,13.8-11.1,21.4
		c-3.5,8.3-5.5,17.3-7.6,25.6C178.8,139.9,178.8,139.9,180.2,139.9"/>
	<path class="st2" d="M221.7,148.2c-0.7,0-0.7,0-1.4,0h-48.4c-1.4,0-1.4,0-0.7,1.4c0,1.4,0.7,2.1,1.4,3.5c0.7,0.7,0.7,2.1,1.4,2.8
		c3.5,8.3,0.7,18-6.2,23.5c-4.1,3.5-8.3,4.8-13.1,4.8c-6.2,0-11.7-2.1-15.9-7.6c-3.5-4.1-5.5-9-5.5-14.5c0-3.5,0.7-6.2,2.8-9.7l0,0
		c0.7-1.4,1.4-2.8,2.1-3.5s0-0.7-0.7-0.7h-2.8c-13.8,0-27.6,0-40.8,0H89h-0.7c-1.4,0-2.1-0.7-2.1-2.1c0-1.4,0.7-2.1,2.1-2.1
		c2.1,0,3.5,0,5.5,0h47c2.1,0,2.8,1.4,2.1,3.5c-0.7,2.1-1.4,3.5-2.1,5.5l-1.4,2.8c-3.5,6.9-2.1,15.2,4.1,20.7
		c6.9,6.2,18.7,5.5,24.9-1.4c4.8-5.5,5.5-11.7,2.8-18.7c-0.7-0.7-0.7-2.1-1.4-2.8c-0.7-2.1-1.4-4.1-1.4-6.2c0-1.4,0.7-2.1,1.4-2.1
		h0.7h52.5c0.7,0,1.4,0,2.1,0.7C223.7,146.2,223.1,148.2,221.7,148.2"/>
	<path class="st2" d="M134.6,169c-3.5,0-4.8-4.1-6.2-7.6c-0.7-2.1-2.1-5.5-3.5-5.5c-1.4,0-2.8,3.5-3.5,5.5c-1.4,3.5-2.8,7.6-6.2,7.6
		s-4.8-4.1-6.2-7.6c-0.7-2.1-2.1-5.5-3.5-5.5s-2.8,3.5-3.5,5.5c-1.4,3.5-2.8,7.6-6.2,7.6c-3.5,0-4.8-4.1-6.2-7.6
		c-0.7-2.1-2.1-5.5-3.5-5.5v-3.5c3.5,0,4.8,4.1,6.2,7.6c0.7,2.1,2.1,5.5,3.5,5.5c1.4,0,2.8-3.5,3.5-5.5c1.4-3.5,2.8-7.6,6.2-7.6
		s4.8,4.1,6.2,7.6c0.7,2.1,2.1,5.5,3.5,5.5c1.4,0,2.8-3.5,3.5-5.5c1.4-3.5,2.8-7.6,6.2-7.6s4.8,4.1,6.2,7.6c0.7,2.1,2.1,5.5,3.5,5.5
		V169z"/>
	<path class="st2" d="M219.6,169c-3.5,0-4.8-4.1-6.2-7.6c-0.7-2.1-2.1-5.5-3.5-5.5c-1.4,0-2.8,3.5-3.5,5.5c-1.4,3.5-2.8,7.6-6.2,7.6
		s-4.8-4.1-6.2-7.6c-0.7-2.1-2.1-5.5-3.5-5.5s-2.8,3.5-3.5,5.5c-1.4,3.5-2.8,7.6-6.2,7.6s-4.8-4.1-6.2-7.6c-0.7-2.1-2.1-5.5-3.5-5.5
		v-3.5c3.5,0,4.8,4.1,6.2,7.6c0.7,2.1,2.1,5.5,3.5,5.5s2.8-3.5,3.5-5.5c1.4-3.5,2.8-7.6,6.2-7.6s4.8,4.1,6.2,7.6
		c0.7,2.1,2.1,5.5,3.5,5.5s2.8-3.5,3.5-5.5c1.4-3.5,2.8-7.6,6.2-7.6c3.5,0,4.8,4.1,6.2,7.6c0.7,2.1,2.1,5.5,3.5,5.5V169z"/>
	<path class="st2" d="M139.4,209.8c-6.9,0-11.7-5.5-11.7-11.7c0-6.9,5.5-11.7,11.7-11.7c6.9,0,11.7,5.5,11.7,11.7
		C151.2,204.2,145.6,209.8,139.4,209.8 M139.4,190.4c-4.1,0-6.9,3.5-6.9,6.9c0,4.1,3.5,6.9,6.9,6.9c4.1,0,6.9-3.5,6.9-6.9
		S143.6,190.4,139.4,190.4"/>
	<path class="st2" d="M168.5,209.8c-6.9,0-11.7-5.5-11.7-11.7c0-6.9,5.5-11.7,11.7-11.7c6.9,0,11.7,5.5,11.7,11.7
		C180.2,204.2,175.4,209.8,168.5,209.8 M168.5,190.4c-4.1,0-6.9,3.5-6.9,6.9c0,4.1,3.5,6.9,6.9,6.9c4.1,0,6.9-3.5,6.9-6.9
		S172.6,190.4,168.5,190.4"/>
	<path class="st2" d="M108.3,209.8c-6.9,0-11.7-5.5-11.7-11.7c0-6.9,5.5-11.7,11.7-11.7c6.9,0,11.7,5.5,11.7,11.7
		C120.8,204.2,115.2,209.8,108.3,209.8 M108.3,190.4c-4.1,0-6.9,3.5-6.9,6.9c0,4.1,3.5,6.9,6.9,6.9c4.1,0,6.9-3.5,6.9-6.9
		C115.9,193.9,112.5,190.4,108.3,190.4"/>
	<path class="st2" d="M199.6,209.8c-6.9,0-11.7-5.5-11.7-11.7c0-6.9,5.5-11.7,11.7-11.7c6.2,0,11.7,5.5,11.7,11.7
		C211.3,204.2,205.8,209.8,199.6,209.8 M199.6,190.4c-4.1,0-6.9,3.5-6.9,6.9c0,4.1,3.5,6.9,6.9,6.9c4.1,0,6.9-3.5,6.9-6.9
		S203,190.4,199.6,190.4"/>
	<path class="st2" d="M153.9,216c2.1,0,3.5,1.4,3.5,3.5c0,2.1-1.4,3.5-3.5,3.5c-2.1,0-3.5-1.4-3.5-3.5
		C149.8,217.4,151.9,216,153.9,216"/>
	<path class="st2" d="M127.7,219.4c0,2.1-1.4,3.5-3.5,3.5c-2.1,0-3.5-1.4-3.5-3.5c0-2.1,1.4-3.5,3.5-3.5
		C125.6,216,127.7,217.4,127.7,219.4"/>
	<path class="st2" d="M184.3,216c2.1,0,3.5,1.4,3.5,3.5c0,2.1-1.4,3.5-3.5,3.5c-2.1,0-3.5-1.4-3.5-3.5
		C180.2,217.4,182.3,216,184.3,216"/>
</g>
</svg>
