<?xml version="1.0" encoding="utf-8"?>
<!-- Generator: Adobe Illustrator 23.1.1, SVG Export Plug-In . SVG Version: 6.00 Build 0)  -->
<svg version="1.1" id="Layer_1" xmlns="http://www.w3.org/2000/svg" xmlns:xlink="http://www.w3.org/1999/xlink" x="0px" y="0px"
	 viewBox="0 0 400 300" style="enable-background:new 0 0 400 300;" xml:space="preserve">
<style type="text/css">
	.st0{fill:#1E1D1B;}
	.st1{fill:#FFFFFF;}
	.st2{clip-path:url(#SVGID_2_);fill:#211915;}
	.st3{clip-path:url(#SVGID_4_);fill:#211915;}
	.st4{clip-path:url(#SVGID_6_);fill:#211915;}
	.st5{clip-path:url(#SVGID_8_);fill:#211915;}
	.st6{clip-path:url(#SVGID_10_);fill:#211915;}
	.st7{clip-path:url(#SVGID_12_);fill:#211915;}
	.st8{clip-path:url(#SVGID_14_);fill:#211915;}
	.st9{clip-path:url(#SVGID_16_);fill:#211915;}
	.st10{clip-path:url(#SVGID_18_);fill:#E15200;}
	.st11{clip-path:url(#SVGID_20_);fill:#E15200;}
	.st12{clip-path:url(#SVGID_22_);fill:#E15200;}
	.st13{clip-path:url(#SVGID_24_);fill:#E15200;}
	.st14{clip-path:url(#SVGID_26_);fill:#E15200;}
	.st15{clip-path:url(#SVGID_28_);fill:#E15200;}
	.st16{clip-path:url(#SVGID_30_);fill:#E15200;}
	.st17{clip-path:url(#SVGID_32_);fill:#E15200;}
	.st18{clip-path:url(#SVGID_34_);fill:#FFFFFF;}
	.st19{clip-path:url(#SVGID_36_);fill:#E15200;}
	.st20{clip-path:url(#SVGID_38_);fill:#FFFFFF;}
	.st21{clip-path:url(#SVGID_40_);fill:#E15200;}
	.st22{clip-path:url(#SVGID_42_);fill:#FFFFFF;}
	.st23{clip-path:url(#SVGID_44_);fill:#E15200;}
	.st24{clip-path:url(#SVGID_46_);fill:#FFFFFF;}
	.st25{clip-path:url(#SVGID_48_);fill:#E15200;}
	.st26{clip-path:url(#SVGID_50_);fill:#FFFFFF;}
	.st27{clip-path:url(#SVGID_52_);fill:#E15200;}
	.st28{clip-path:url(#SVGID_54_);fill:#FFFFFF;}
	.st29{clip-path:url(#SVGID_56_);fill:#E15200;}
	.st30{clip-path:url(#SVGID_58_);fill:#FFFFFF;}
	.st31{clip-path:url(#SVGID_60_);fill:#CD6613;}
	.st32{clip-path:url(#SVGID_62_);fill:#CD6613;}
	.st33{clip-path:url(#SVGID_64_);fill:none;stroke:#CD6717;stroke-width:2.5;stroke-miterlimit:10;}
</style>
<g>
	<g>
		<g>
			<path d="M80.3,9.7L80.3,9.7L80.3,9.7L80.3,9.7L80.3,9.7"/>
		</g>
		<g>
			<path d="M93.5,9.1L93.5,9.1L93.5,9.1C92.9,9.1,92.9,9.1,93.5,9.1C92.9,9.1,93.5,9.1,93.5,9.1"/>
		</g>
		<g>
			<path d="M106.7,8.6L106.7,8.6C106.7,8.6,106.7,8.1,106.7,8.6C106.1,8.6,106.1,8.6,106.7,8.6C106.1,8.6,106.1,8.6,106.7,8.6"/>
		</g>
		<g>
			<path d="M119.9,8.1L119.9,8.1C119.9,8.1,119.9,7.6,119.9,8.1C119.3,7.6,119.3,8.1,119.9,8.1C119.3,8.1,119.3,8.1,119.9,8.1"/>
		</g>
		<g>
			<path d="M133.1,7.6L133.1,7.6L133.1,7.6C132.5,7.6,132.5,7.6,133.1,7.6C132.5,7.6,132.5,7.6,133.1,7.6"/>
		</g>
		<g>
			<path d="M145.7,7C146.3,7,146.3,7,145.7,7C146.3,7,146.3,7,145.7,7L145.7,7L145.7,7"/>
		</g>
		<g>
			<path d="M158.9,6.5C159.5,6.5,159.5,6.5,158.9,6.5C159.5,6.5,159.5,6.5,158.9,6.5L158.9,6.5L158.9,6.5"/>
		</g>
		<g>
			<path d="M172.1,6C172.1,6,172.7,6,172.1,6C172.7,6,172.1,6,172.1,6L172.1,6L172.1,6"/>
		</g>
		<g>
			<path d="M185.3,5.4L185.3,5.4L185.3,5.4L185.3,5.4L185.3,5.4"/>
		</g>
		<g>
			<path d="M60.7,23.4L60.7,23.4L60.7,23.4L60.7,23.4L60.7,23.4"/>
		</g>
		<g>
			<path d="M73.9,23.4C73.9,23.4,74.5,22.9,73.9,23.4C74.5,22.9,73.9,22.9,73.9,23.4C73.9,22.9,73.9,22.9,73.9,23.4
				C73.9,22.9,73.9,23.4,73.9,23.4"/>
		</g>
		<g>
			<path d="M87.1,22.9C87.7,22.9,87.7,22.9,87.1,22.9c0.5-0.5,0-0.5,0-0.5S86.6,22.3,87.1,22.9C86.6,22.9,87.1,22.9,87.1,22.9"/>
		</g>
		<g>
			<path d="M100.3,22.3c0.5,0,0.5,0,0.5-0.5s0-0.5-0.5-0.5s-0.5,0-0.5,0.5S100.3,22.3,100.3,22.3"/>
		</g>
		<g>
			<path d="M113.5,21.8c0.5,0,0.5-0.5,0.5-0.5c0-0.5-0.5-0.5-0.5-0.5c-0.5,0-0.5,0.5-0.5,0.5C113,21.8,113,22.3,113.5,21.8"/>
		</g>
		<g>
			<path d="M126.7,21.8c0.5,0,0.5-0.5,0.5-0.5c0-0.5-0.5-0.5-0.5-0.5c-0.5,0-0.5,0.5-0.5,0.5C126.2,21.3,126.2,21.8,126.7,21.8"/>
		</g>
		<g>
			<path d="M139.9,21.3c0.5,0,0.5-0.5,0.5-0.5c0-0.5-0.5-0.5-0.5-0.5l-0.5,0.5C139.4,20.8,139.4,21.3,139.9,21.3"/>
		</g>
		<g>
			<path d="M153.1,20.8c0.5,0,0.5-0.5,0.5-0.5c0-0.5-0.5-0.5-0.5-0.5c-0.5,0-0.5,0.5-0.5,0.5C152.6,20.2,152.6,20.8,153.1,20.8"/>
		</g>
		<g>
			<path d="M166.3,20.2c0.5,0,0.5-0.5,0.5-0.5c0-0.5-0.5-0.5-0.5-0.5l-0.5,0.5C165.8,19.7,165.8,20.2,166.3,20.2"/>
		</g>
		<g>
			<path d="M179.5,19.7c0.5,0,0.5-0.5,0.5-0.5c0-0.5-0.5-0.5-0.5-0.5c-0.5,0-0.5,0-0.5,0.5C179,19.2,179,19.7,179.5,19.7"/>
		</g>
		<g>
			<path d="M192.7,18.6C192.7,18.6,193.2,18.6,192.7,18.6c0.5-0.5,0-1.1,0-1.1C192.2,18.1,192.2,18.1,192.7,18.6
				C192.2,18.6,192.2,18.6,192.7,18.6"/>
		</g>
		<g>
			<path d="M205.9,18.1L205.9,18.1C205.9,17.6,205.9,17.6,205.9,18.1C205.4,17.6,205.4,17.6,205.9,18.1
				C205.4,18.1,205.4,18.1,205.9,18.1"/>
		</g>
		<g>
			<path d="M219.1,17.6L219.1,17.6C219.1,17.6,219.1,17.1,219.1,17.6C218.6,17.1,218.6,17.6,219.1,17.6
				C218.6,17.6,219.1,17.6,219.1,17.6"/>
		</g>
		<g>
			<path d="M232.3,17.1L232.3,17.1L232.3,17.1L232.3,17.1L232.3,17.1"/>
		</g>
		<g>
			<path d="M28.5,38.2L28.5,38.2C28.5,37.7,28.5,37.7,28.5,38.2C28.5,37.7,28.5,37.7,28.5,38.2L28.5,38.2"/>
		</g>
		<g>
			<path d="M41.7,37.7L41.7,37.7C41.7,37.1,41.7,37.1,41.7,37.7C41.7,37.1,41.2,37.1,41.7,37.7C41.2,37.7,41.7,37.7,41.7,37.7"/>
		</g>
		<g>
			<path d="M54.9,37.1L54.9,37.1c0.5-0.5,0-1.1,0-1.1C54.4,36.6,54.4,36.6,54.9,37.1C54.4,37.1,54.4,37.1,54.9,37.1"/>
		</g>
		<g>
			<path d="M68.1,37.1c0.5,0,0.5-0.5,0.5-0.5c0-0.5-0.5-0.5-0.5-0.5c-0.5,0-0.5,0.5-0.5,0.5C67.1,36.6,67.6,37.1,68.1,37.1"/>
		</g>
		<g>
			<path d="M81.3,36.6c0.5,0,1.1-0.5,1.1-1.1c0-0.5-0.5-1.1-1.1-1.1s-1.1,0.5-1.1,1.1C80.3,36.6,80.8,36.6,81.3,36.6"/>
		</g>
		<g>
			<path d="M94.5,36.6c0.5,0,1.1-0.5,1.1-1.1c0-0.5-0.5-1.1-1.1-1.1s-1.1,0.5-1.1,1.1C92.9,36.1,93.5,36.6,94.5,36.6"/>
		</g>
		<g>
			<path d="M107.7,36.1c0.5,0,1.1-0.5,1.1-1.6c0-0.5-0.5-1.1-1.6-1.1c-0.5,0-1.1,0.5-1.1,1.6C106.1,35.5,106.7,36.1,107.7,36.1"/>
		</g>
		<g>
			<path d="M120.9,35.5c0.5,0,1.6-0.5,1.6-1.6c0-0.5-0.5-1.6-1.6-1.6c-0.5,0-1.6,0.5-1.6,1.6S119.9,36.1,120.9,35.5"/>
		</g>
		<g>
			<path d="M134.1,35.5c1.1,0,1.6-0.5,1.6-1.6s-0.5-1.6-1.6-1.6s-1.6,0.5-1.6,1.6S133.1,35.5,134.1,35.5"/>
		</g>
		<g>
			<path d="M146.8,35c1.1,0,1.6-0.5,1.6-1.6s-0.5-1.6-1.6-1.6s-1.6,0.5-1.6,1.6C145.7,34.5,146.3,35,146.8,35"/>
		</g>
		<g>
			<path d="M160,34.5c0.5,0,1.6-0.5,1.6-1.6c0-0.5-0.5-1.6-1.6-1.6c-0.5,0-1.6,0.5-1.6,1.6C158.9,33.4,159.5,34.5,160,34.5"/>
		</g>
		<g>
			<path d="M173.2,33.4c0.5,0,1.1-0.5,1.1-1.1c0-0.5-0.5-1.1-1.1-1.1c-0.5,0-1.1,0.5-1.1,1.1C172.1,32.9,172.7,33.4,173.2,33.4"/>
		</g>
		<g>
			<path d="M186.4,32.9c0.5,0,1.1-0.5,1.1-1.1c0-0.5-0.5-1.1-1.1-1.1c-0.5,0-1.1,0.5-1.1,1.1S185.9,32.9,186.4,32.9"/>
		</g>
		<g>
			<path d="M199.6,32.4c0.5,0,0.5-0.5,0.5-1.1c0-0.5-0.5-0.5-1.1-0.5s-0.5,0.5-0.5,1.1C199,31.8,199,32.4,199.6,32.4"/>
		</g>
		<g>
			<path d="M212.8,31.3c0.5,0,0.5-0.5,0.5-0.5c0-0.5-0.5-0.5-0.5-0.5c-0.5,0-0.5,0.5-0.5,0.5C212.2,31.3,212.8,31.3,212.8,31.3"/>
		</g>
		<g>
			<path d="M226,30.8C226,30.8,226.5,30.3,226,30.8c0.5-0.5,0-0.5,0-0.5S226,30.3,226,30.8C226,30.3,226,30.8,226,30.8"/>
		</g>
		<g>
			<path d="M239.2,29.7L239.2,29.7L239.2,29.7L239.2,29.7L239.2,29.7"/>
		</g>
		<g>
			<path d="M22.2,51.4L22.2,51.4L22.2,51.4L22.2,51.4L22.2,51.4"/>
		</g>
		<g>
			<path d="M35.4,50.8C35.4,50.8,35.9,50.8,35.4,50.8C35.9,50.8,35.4,50.8,35.4,50.8L35.4,50.8L35.4,50.8"/>
		</g>
		<g>
			<path d="M48.6,50.8C49.1,50.8,49.1,50.3,48.6,50.8c0.5-0.5,0-1.1,0-1.1S48.1,50.3,48.6,50.8C48.1,50.3,48.6,50.8,48.6,50.8"/>
		</g>
		<g>
			<path d="M61.8,50.8c0.5,0,0.5-0.5,0.5-1.1c0-0.5-0.5-0.5-1.1-0.5s-0.5,0.5-0.5,1.1C61.3,50.3,61.3,50.8,61.8,50.8"/>
		</g>
		<g>
			<path d="M75,50.3c0.5,0,1.1-0.5,1.1-1.1c0-0.5-0.5-1.1-1.1-1.1s-1.1,0.5-1.1,1.1C73.9,49.8,74.5,50.3,75,50.3"/>
		</g>
		<g>
			<path d="M88.2,50.3c1.1,0,1.6-0.5,1.6-1.6c0-1.1-0.5-1.6-1.6-1.6c-1.1,0-1.6,0.5-1.6,1.6C86.6,49.8,87.7,50.3,88.2,50.3"/>
		</g>
		<g>
			<path d="M101.4,50.3c1.1,0,1.6-1.1,1.6-2.1c0-1.1-1.1-1.6-2.1-1.6c-1.1,0-1.6,1.1-1.6,2.1C99.8,49.3,100.3,50.3,101.4,50.3"/>
		</g>
		<g>
			<path d="M114.6,49.8c1.1,0,2.1-1.1,2.1-2.1c0-1.1-1.1-2.1-2.1-2.1c-1.1,0-2.1,1.1-2.1,2.1C112.5,49.3,113.5,49.8,114.6,49.8"/>
		</g>
		<g>
			<path d="M127.8,49.8c1.1,0,2.1-1.1,2.1-2.6c0-1.1-1.1-2.1-2.6-2.1c-1.1,0-2.1,1.1-2.1,2.6C125.7,48.7,126.7,49.8,127.8,49.8"/>
		</g>
		<g>
			<path d="M141,49.3c1.6,0,2.1-1.1,2.1-2.6s-1.1-2.1-2.6-2.1s-2.1,1.1-2.1,2.6C138.3,48.2,139.4,49.3,141,49.3"/>
		</g>
		<g>
			<path d="M154.2,48.7c1.6,0,2.1-1.1,2.1-2.6s-1.1-2.1-2.6-2.1c-1.6,0-2.1,1.1-2.1,2.6C151.5,47.7,152.6,48.7,154.2,48.7"/>
		</g>
		<g>
			<path d="M167.4,48.2c1.1,0,2.1-1.1,2.1-2.6c0-1.1-1.1-2.1-2.6-2.1c-1.1,0-2.1,1.1-2.1,2.6C164.7,47.2,165.8,48.2,167.4,48.2"/>
		</g>
		<g>
			<path d="M180.6,47.2c1.1,0,2.1-1.1,2.1-2.1s-1.1-2.1-2.1-2.1s-2.1,1.1-2.1,2.1C178.5,46.6,179.5,47.7,180.6,47.2"/>
		</g>
		<g>
			<path d="M193.8,46.6c1.1,0,1.6-1.1,1.6-2.1c0-1.1-1.1-1.6-2.1-1.6s-1.6,1.1-1.6,2.1C191.7,46.1,192.7,46.6,193.8,46.6"/>
		</g>
		<g>
			<path d="M207,45.6c1.1,0,1.6-0.5,1.6-1.6s-0.5-1.6-1.6-1.6s-1.6,0.5-1.6,1.6C205.4,45,205.9,45.6,207,45.6"/>
		</g>
		<g>
			<path d="M220.2,45c0.5,0,1.1-0.5,1.1-1.1c0-0.5-0.5-1.1-1.1-1.1s-1.1,0.5-1.1,1.1C218.6,44.5,219.1,45,220.2,45"/>
		</g>
		<g>
			<path d="M233.4,44c0.5,0,0.5-0.5,0.5-1.1c0-0.5-0.5-0.5-1.1-0.5s-0.5,0.5-0.5,1.1C232.3,44,232.8,44,233.4,44"/>
		</g>
		<g>
			<path d="M246.6,43.5C246.6,43.5,246.6,42.9,246.6,43.5c0.5-0.5,0-1.1,0-1.1C246,42.4,246,42.4,246.6,43.5
				C246,42.9,246,43.5,246.6,43.5"/>
		</g>
		<g>
			<path d="M259.2,42.4C259.8,42.4,259.8,42.4,259.2,42.4C259.8,41.9,259.8,41.9,259.2,42.4C259.2,41.9,259.2,42.4,259.2,42.4
				L259.2,42.4"/>
		</g>
		<g>
			<path d="M272.4,41.9L272.4,41.9L272.4,41.9L272.4,41.9L272.4,41.9"/>
		</g>
		<g>
			<path d="M16.4,65.1C16.4,65.1,16.4,64.6,16.4,65.1C16.4,64.6,16.4,64.6,16.4,65.1C16.4,64.6,15.8,64.6,16.4,65.1
				C15.8,65.1,16.4,65.1,16.4,65.1"/>
		</g>
		<g>
			<path d="M29.6,64.6L29.6,64.6c0.5-0.5,0-1.1,0-1.1C29,64,29,64,29.6,64.6C29,64.6,29,64.6,29.6,64.6"/>
		</g>
		<g>
			<path d="M42.8,64.6c0.5,0,0.5-0.5,0.5-1.1S42.8,63,42.2,63s-0.5,0.5-0.5,1.1C41.7,64,42.2,64.6,42.8,64.6"/>
		</g>
		<g>
			<path d="M56,64.6c0.5,0,1.1-0.5,1.1-1.1s-0.5-1.1-1.1-1.1s-1.1,0.5-1.1,1.1C54.4,64,54.9,64.6,56,64.6"/>
		</g>
		<g>
			<path d="M69.2,64.6c1.1,0,1.6-1.1,1.6-1.6c0-1.1-1.1-1.6-1.6-1.6c-1.1,0-1.6,1.1-1.6,1.6C67.1,63.5,68.1,64.6,69.2,64.6"/>
		</g>
		<g>
			<path d="M82.4,64.6c1.1,0,2.1-1.1,2.1-2.1c0-1.1-1.1-2.1-2.1-2.1c-1.1,0-2.1,1.1-2.1,2.1C79.7,63.5,80.8,64.6,82.4,64.6"/>
		</g>
		<g>
			<path d="M95.6,64.6c1.6,0,2.6-1.1,2.6-2.6s-1.1-2.6-2.6-2.6s-2.6,1.1-2.6,2.6S94,64.6,95.6,64.6"/>
		</g>
		<g>
			<path d="M108.8,64c1.6,0,3.2-1.6,3.2-3.2c0-1.6-1.6-3.2-3.2-3.2c-1.6,0-3.2,1.6-3.2,3.2C105.6,63,106.7,64.6,108.8,64"/>
		</g>
		<g>
			<path d="M122,64c2.1,0,3.2-1.6,3.2-3.7c0-2.1-1.6-3.2-3.7-3.2c-2.1,0-3.2,1.6-3.2,3.7C118.3,62.5,119.9,64,122,64"/>
		</g>
		<g>
			<path d="M135.2,63.5c2.1,0,3.7-1.6,3.2-3.7c0-2.1-1.6-3.7-3.7-3.2c-2.1,0-3.7,1.6-3.2,3.7C131.5,62.5,133.1,64,135.2,63.5"/>
		</g>
		<g>
			<path d="M148.4,63.5c2.1,0,3.7-1.6,3.2-3.7c0-2.1-1.6-3.7-3.7-3.2c-2.1,0-3.7,1.6-3.2,3.7C144.7,61.9,146.3,63.5,148.4,63.5"/>
		</g>
		<g>
			<path d="M161,62.5c2.1,0,3.2-1.6,3.2-3.7c0-2.1-1.6-3.2-3.7-3.2s-3.2,1.6-3.2,3.7C157.9,61.4,159.5,62.5,161,62.5"/>
		</g>
		<g>
			<path d="M174.2,61.9c1.6,0,3.2-1.6,3.2-3.2c0-1.6-1.6-3.2-3.2-3.2s-3.2,1.6-3.2,3.2C171.1,60.4,172.7,61.9,174.2,61.9"/>
		</g>
		<g>
			<path d="M187.4,60.9c1.6,0,2.6-1.6,2.6-3.2c0-1.6-1.6-2.6-3.2-2.6c-1.6,0-2.6,1.6-2.6,3.2C184.8,59.8,185.9,60.9,187.4,60.9"/>
		</g>
		<g>
			<path d="M200.6,59.8c1.1,0,2.1-1.1,2.1-2.6c0-1.1-1.1-2.1-2.6-2.1c-1.1,0-2.1,1.1-2.1,2.6C198.5,59.3,199.6,60.4,200.6,59.8"/>
		</g>
		<g>
			<path d="M213.8,59.3c1.1,0,2.1-1.1,1.6-2.1c0-1.1-1.1-2.1-2.1-1.6c-1.1,0-2.1,1.1-1.6,2.1C212.2,58.2,212.8,59.3,213.8,59.3"/>
		</g>
		<g>
			<path d="M227,58.2c0.5,0,1.6-0.5,1.6-1.6c0-0.5-0.5-1.6-1.6-1.6c-0.5,0-1.6,0.5-1.6,1.6C225.4,57.7,226.5,58.2,227,58.2"/>
		</g>
		<g>
			<path d="M240.2,57.2c0.5,0,1.1-0.5,1.1-1.1s-0.5-1.1-1.1-1.1s-1.1,0.5-1.1,1.1C239.2,56.7,239.7,57.2,240.2,57.2"/>
		</g>
		<g>
			<path d="M253.4,56.1c0.5,0,0.5-0.5,0.5-0.5c0-0.5-0.5-0.5-0.5-0.5c-0.5,0-0.5,0.5-0.5,0.5C252.9,56.1,252.9,56.1,253.4,56.1"/>
		</g>
		<g>
			<path d="M266.6,55.6C266.6,55.6,266.6,55.1,266.6,55.6C266.6,55.1,266.6,55.1,266.6,55.6C266.6,55.1,266.1,55.1,266.6,55.6
				C266.1,55.1,266.6,55.6,266.6,55.6"/>
		</g>
		<g>
			<path d="M279.8,54.5L279.8,54.5L279.8,54.5L279.8,54.5L279.8,54.5"/>
		</g>
		<g>
			<path d="M10,78.3L10,78.3L10,78.3L10,78.3L10,78.3"/>
		</g>
		<g>
			<path d="M23.2,77.8C23.2,77.8,23.8,77.8,23.2,77.8c0.5-0.5,0-0.5,0-0.5V77.8L23.2,77.8"/>
		</g>
		<g>
			<path d="M36.4,77.8c0.5,0,0.5-0.5,0.5-0.5c0-0.5-0.5-0.5-0.5-0.5c-0.5,0-0.5,0.5-0.5,0.5C35.9,77.8,35.9,77.8,36.4,77.8"/>
		</g>
		<g>
			<path d="M49.6,77.8c0.5,0,1.1-0.5,1.1-1.1s-0.5-1.1-1.1-1.1s-1.1,0.5-1.1,1.1S49.1,77.8,49.6,77.8"/>
		</g>
		<g>
			<path d="M62.8,77.8c1.1,0,1.6-1.1,1.6-1.6c0-1.1-1.1-1.6-1.6-1.6c-1.1,0-1.6,1.1-1.6,1.6C61.3,77.2,61.8,77.8,62.8,77.8"/>
		</g>
		<g>
			<path d="M76,77.8c1.1,0,2.1-1.1,2.1-2.1c0-1.1-1.1-2.1-2.1-2.1c-1.1,0-2.1,1.1-2.1,2.1C73.9,76.7,75,77.8,76,77.8"/>
		</g>
		<g>
			<path d="M89.2,78.3c1.6,0,2.6-1.6,2.6-3.2c0-1.6-1.6-2.6-3.2-2.6c-1.6,0-2.6,1.6-2.6,3.2C86.6,76.7,87.7,78.3,89.2,78.3"/>
		</g>
		<g>
			<path d="M102.4,78.3c2.1,0,3.7-1.6,3.2-3.7c0-2.1-1.6-3.7-3.7-3.2c-2.1,0-3.7,1.6-3.2,3.7C98.7,76.7,100.3,78.3,102.4,78.3"/>
		</g>
		<g>
			<path d="M115.6,78.3c2.1,0,4.2-2.1,3.7-4.2c0-2.1-2.1-4.2-4.2-3.7c-2.1,0-4.2,2.1-3.7,4.2C111.4,76.7,113.5,78.3,115.6,78.3"/>
		</g>
		<g>
			<path d="M128.8,78.3c2.6,0,4.2-2.1,4.2-4.8c0-2.6-2.1-4.2-4.8-4.2c-2.6,0-4.2,2.1-4.2,4.8C124.1,76.2,126.2,78.3,128.8,78.3"/>
		</g>
		<g>
			<path d="M142,77.8c2.6,0,4.8-2.1,4.8-4.8c0-2.6-2.1-4.8-4.8-4.8c-2.6,0-4.8,2.1-4.8,4.8C137.3,76.2,139.4,77.8,142,77.8"/>
		</g>
		<g>
			<path d="M155.2,77.8c2.6,0,4.8-2.6,4.8-5.3c0-2.6-2.6-4.8-5.3-4.8c-2.6,0-4.8,2.6-4.8,5.3C150.5,75.7,152.6,77.8,155.2,77.8"/>
		</g>
		<g>
			<path d="M168.4,76.7c2.6,0,4.8-2.1,4.8-4.8c0-2.6-2.1-4.8-4.8-4.8s-4.8,2.1-4.8,4.8C163.7,75.1,165.8,77.2,168.4,76.7"/>
		</g>
		<g>
			<path d="M181.6,76.2c2.6,0,4.2-2.1,4.2-4.8s-2.1-4.2-4.8-4.2c-2.6,0-4.2,2.1-4.2,4.8C176.9,74.1,179,76.2,181.6,76.2"/>
		</g>
		<g>
			<path d="M194.8,75.1c2.1,0,3.7-2.1,3.7-4.2s-2.1-3.7-4.2-3.7c-2.1,0-3.7,2.1-3.7,4.2C190.6,73.6,192.7,75.1,194.8,75.1"/>
		</g>
		<g>
			<path d="M208,74.1c2.1,0,3.2-1.6,3.2-3.7c0-2.1-1.6-3.2-3.7-3.2s-3.2,1.6-3.2,3.7C204.3,72.5,205.9,74.1,208,74.1"/>
		</g>
		<g>
			<path d="M221.2,73c1.6,0,2.6-1.6,2.6-2.6c0-1.6-1.6-2.6-2.6-2.6c-1.6,0-2.6,1.6-2.6,2.6C218.1,72,219.6,73,221.2,73"/>
		</g>
		<g>
			<path d="M234.4,72c1.1,0,2.1-1.1,2.1-2.1c0-1.1-1.1-2.1-2.1-2.1s-2.1,1.1-2.1,2.1C231.8,70.9,232.8,72,234.4,72"/>
		</g>
		<g>
			<path d="M247.1,70.9c1.1,0,1.6-0.5,1.6-1.6c0-1.1-0.5-1.6-1.6-1.6s-1.6,0.5-1.6,1.6C245.5,69.9,246.6,70.9,247.1,70.9"/>
		</g>
		<g>
			<path d="M260.3,69.9c0.5,0,1.1-0.5,1.1-1.1s-0.5-1.1-1.1-1.1s-1.1,0.5-1.1,1.1S259.8,69.9,260.3,69.9"/>
		</g>
		<g>
			<path d="M273.5,68.8c0.5,0,0.5-0.5,0.5-0.5c0-0.5-0.5-0.5-0.5-0.5c-0.5,0-0.5,0.5-0.5,0.5C273,68.3,273.5,68.8,273.5,68.8"/>
		</g>
		<g>
			<path d="M286.7,67.7C286.7,67.7,287.2,67.7,286.7,67.7C287.2,67.2,286.7,67.2,286.7,67.7C286.7,67.2,286.7,67.7,286.7,67.7
				L286.7,67.7"/>
		</g>
		<g>
			<path d="M299.9,67.2L299.9,67.2L299.9,67.2L299.9,67.2L299.9,67.2"/>
		</g>
		<g>
			<path d="M4.2,91.5L4.2,91.5L4.2,91.5C4.2,91.5,3.7,91.5,4.2,91.5C3.7,91.5,4.2,91.5,4.2,91.5"/>
		</g>
		<g>
			<path d="M17.4,91.5L17.4,91.5c0.5-0.5,0-1.1,0-1.1C16.9,91,16.9,91,17.4,91.5C16.9,91.5,16.9,91.5,17.4,91.5"/>
		</g>
		<g>
			<path d="M30.6,91.5c0.5,0,1.1-0.5,1.1-1.1s-0.5-1.1-1.1-1.1c-0.5,0-1.1,0.5-1.1,1.1S30.1,91.5,30.6,91.5"/>
		</g>
		<g>
			<path d="M43.8,91.5c0.5,0,1.6-0.5,1.6-1.6c0-0.5-0.5-1.6-1.6-1.6c-0.5,0-1.6,0.5-1.6,1.6S42.8,91.5,43.8,91.5"/>
		</g>
		<g>
			<path d="M57,91.5c1.1,0,2.1-1.1,2.1-2.1c0-1.1-1.1-2.1-2.1-2.1c-1.1,0-2.1,1.1-2.1,2.1C54.9,91,55.4,91.5,57,91.5"/>
		</g>
		<g>
			<path d="M70.2,92c1.6,0,2.6-1.6,2.6-2.6c0-1.6-1.6-2.6-2.6-2.6c-1.6,0-2.6,1.6-2.6,2.6C67.1,91,68.6,92,70.2,92"/>
		</g>
		<g>
			<path d="M83.4,92c2.1,0,3.7-1.6,3.2-3.7c0-2.1-1.6-3.7-3.7-3.2c-2.1,0-3.7,1.6-3.2,3.7C79.7,90.4,81.3,92,83.4,92"/>
		</g>
		<g>
			<path d="M96.6,92.6c2.6,0,4.2-2.1,4.2-4.2c0-2.6-2.1-4.2-4.2-4.2c-2.6,0-4.2,2.1-4.2,4.2C91.9,90.4,94,92.6,96.6,92.6"/>
		</g>
		<g>
			<path d="M109.8,92.6c2.6,0,4.8-2.6,4.8-5.3s-2.6-4.8-5.3-4.8c-2.6,0-4.8,2.6-4.8,5.3S106.7,92.6,109.8,92.6"/>
		</g>
		<g>
			<path d="M123,92.6c3.2,0,5.8-2.6,5.3-5.8c0-3.2-2.6-5.8-5.8-5.3c-3.2,0-5.8,2.6-5.3,5.8C117.2,90.4,119.9,93.1,123,92.6"/>
		</g>
		<g>
			<path d="M136.2,92.6c3.2,0,5.8-3.2,5.8-6.3s-3.2-5.8-6.3-5.8c-3.2,0-5.8,3.2-5.8,6.3C129.9,90.4,132.5,93.1,136.2,92.6"/>
		</g>
		<g>
			<path d="M149.4,92.6c3.7,0,6.3-3.2,6.3-6.3c0-3.7-3.2-6.3-6.3-6.3c-3.7,0-6.3,3.2-6.3,6.3C142.6,89.9,145.7,92.6,149.4,92.6"/>
		</g>
		<g>
			<path d="M162.6,92c3.7,0,6.3-3.2,5.8-6.3c0-3.7-3.2-6.3-6.3-5.8c-3.7,0-6.3,3.2-5.8,6.3C156.3,89.4,158.9,92,162.6,92"/>
		</g>
		<g>
			<path d="M175.3,91c3.2,0,5.8-2.6,5.8-5.8c0-3.2-2.6-5.8-5.8-5.8s-5.8,2.6-5.8,5.8C169.5,88.3,172.1,91,175.3,91"/>
		</g>
		<g>
			<path d="M188.5,89.9c2.6,0,5.3-2.6,4.8-5.3c0-2.6-2.6-5.3-5.3-4.8c-2.6,0-5.3,2.6-4.8,5.3C183.2,87.8,185.9,89.9,188.5,89.9"/>
		</g>
		<g>
			<path d="M201.7,88.3c2.6,0,4.2-2.1,4.2-4.8c0-2.6-2.1-4.2-4.8-4.2c-2.6,0-4.2,2.1-4.2,4.8C197.5,86.8,199.6,88.9,201.7,88.3"/>
		</g>
		<g>
			<path d="M214.9,87.3c2.1,0,3.7-1.6,3.7-3.7c0-2.1-1.6-3.7-3.7-3.7s-3.7,1.6-3.7,3.7S212.8,87.3,214.9,87.3"/>
		</g>
		<g>
			<path d="M228.1,86.2c1.6,0,2.6-1.6,2.6-3.2c0-1.6-1.6-2.6-3.2-2.6c-1.6,0-2.6,1.6-2.6,3.2C224.9,84.6,226.5,86.2,228.1,86.2"/>
		</g>
		<g>
			<path d="M241.3,84.6c1.1,0,2.1-1.1,2.1-2.1c0-1.1-1.1-2.1-2.1-2.1s-2.1,1.1-2.1,2.1C239.2,83.6,240.2,84.6,241.3,84.6"/>
		</g>
		<g>
			<path d="M254.5,83.6c1.1,0,1.6-0.5,1.6-1.6c0-1.1-0.5-1.6-1.6-1.6s-1.6,0.5-1.6,1.6S253.4,83.6,254.5,83.6"/>
		</g>
		<g>
			<path d="M267.7,82.5c0.5,0,1.1-0.5,1.1-1.1c0-0.5-0.5-1.1-1.1-1.1s-1.1,0.5-1.1,1.1C266.6,82,267.2,82.5,267.7,82.5"/>
		</g>
		<g>
			<path d="M280.9,81.5C280.9,81.5,281.4,81.5,280.9,81.5c0.5-0.5,0-1.1,0-1.1C280.4,80.4,280.4,80.9,280.9,81.5
				C280.4,81.5,280.4,81.5,280.9,81.5"/>
		</g>
		<g>
			<path d="M294.1,80.4L294.1,80.4L294.1,80.4C294.1,80.4,293.6,80.4,294.1,80.4C293.6,80.4,294.1,80.9,294.1,80.4"/>
		</g>
		<g>
			<path d="M11.1,104.7L11.1,104.7C11.1,104.7,11.1,104.2,11.1,104.7C11.1,104.2,11.1,104.7,11.1,104.7L11.1,104.7"/>
		</g>
		<g>
			<path d="M24.3,104.7C24.8,104.7,24.8,104.2,24.3,104.7c0.5-0.5,0-1.1,0-1.1S23.8,103.6,24.3,104.7
				C23.8,104.2,24.3,104.7,24.3,104.7"/>
		</g>
		<g>
			<path d="M37.5,104.7c0.5,0,1.1-0.5,1.1-1.1s-0.5-1.1-1.1-1.1c-0.5,0-1.1,0.5-1.1,1.1S37,104.7,37.5,104.7"/>
		</g>
		<g>
			<path d="M50.7,104.7c1.1,0,1.6-0.5,1.6-1.6c0-1.1-0.5-1.6-1.6-1.6c-1.1,0-1.6,0.5-1.6,1.6C49.1,104.2,49.6,104.7,50.7,104.7"/>
		</g>
		<g>
			<path d="M63.9,104.7c1.1,0,2.1-1.1,2.1-2.6c0-1.1-1.1-2.1-2.6-2.1c-1.1,0-2.1,1.1-2.1,2.6C61.8,103.6,62.8,104.7,63.9,104.7"/>
		</g>
		<g>
			<path d="M77.1,105.2c1.6,0,3.2-1.6,3.2-3.2c0-1.6-1.6-3.2-3.2-3.2c-1.6,0-3.2,1.6-3.2,3.2C73.9,103.6,75.5,105.2,77.1,105.2"/>
		</g>
		<g>
			<path d="M90.3,105.8c2.1,0,3.7-2.1,3.7-4.2s-2.1-3.7-4.2-3.7s-3.7,2.1-3.7,4.2C86.1,103.6,88.2,105.8,90.3,105.8"/>
		</g>
		<g>
			<path d="M103.5,105.8c2.6,0,4.8-2.6,4.8-5.3s-2.6-4.8-5.3-4.8s-4.8,2.6-4.8,5.3C98.7,104.2,100.8,106.3,103.5,105.8"/>
		</g>
		<g>
			<path d="M116.7,106.3c3.2,0,5.8-2.6,5.8-6.3c0-3.2-2.6-5.8-6.3-5.8c-3.2,0-5.8,2.6-5.8,6.3C110.9,104.2,113.5,106.8,116.7,106.3"
				/>
		</g>
		<g>
			<path d="M129.9,106.8c3.7,0,6.9-3.2,6.3-6.9c0-3.7-3.2-6.9-6.9-6.3c-3.7,0-6.9,3.2-6.3,6.9C123,104.2,126.2,106.8,129.9,106.8"/>
		</g>
		<g>
			<path d="M143.1,106.3c3.7,0,6.9-3.2,6.3-6.9c0-3.7-3.2-6.9-6.9-6.3c-3.7,0-6.9,3.2-6.3,6.9C136.2,103.6,139.4,106.3,143.1,106.3"
				/>
		</g>
		<g>
			<path d="M156.3,105.8c3.7,0,6.9-3.2,6.3-6.9c0-3.7-3.2-6.9-6.9-6.3c-3.7,0-6.9,3.2-6.3,6.9C149.4,103.1,152.6,105.8,156.3,105.8"
				/>
		</g>
		<g>
			<path d="M169.5,105.2c3.7,0,6.9-3.2,6.3-6.9c0-3.7-3.2-6.9-6.9-6.3c-3.7,0-6.9,3.2-6.3,6.9C162.6,102.6,165.8,105.2,169.5,105.2"
				/>
		</g>
		<g>
			<path d="M182.7,104.7c3.7,0,6.9-3.2,6.3-6.9c0-3.7-3.2-6.9-6.9-6.3c-3.7,0-6.9,3.2-6.3,6.9C175.8,102.1,179,104.7,182.7,104.7"/>
		</g>
		<g>
			<path d="M195.9,104.2c3.7,0,6.3-3.2,6.3-6.9S199,91,195.4,91c-3.7,0-6.3,3.2-6.3,6.9C189,101.5,192.2,104.2,195.9,104.2"/>
		</g>
		<g>
			<path d="M209.1,102.6c3.2,0,5.3-2.6,5.3-5.8c0-3.2-2.6-5.3-5.8-5.3c-3.2,0-5.3,2.6-5.3,5.8C203.3,100.5,205.9,102.6,209.1,102.6"
				/>
		</g>
		<g>
			<path d="M222.3,101c2.6,0,4.8-2.1,4.2-4.8c0-2.6-2.1-4.8-4.8-4.2c-2.6,0-4.8,2.1-4.2,4.8C217.5,99.4,219.6,101,222.3,101"/>
		</g>
		<g>
			<path d="M235.5,99.4c2.1,0,3.7-1.6,3.7-3.7c0-2.1-1.6-3.7-3.7-3.7c-2.1,0-3.7,1.6-3.7,3.7C231.3,98.4,233.4,99.9,235.5,99.4"/>
		</g>
		<g>
			<path d="M248.1,98.4c1.6,0,2.6-1.6,2.6-3.2c0-1.6-1.6-2.6-3.2-2.6c-1.6,0-2.6,1.6-2.6,3.2C245.5,97.3,247.1,98.4,248.1,98.4"/>
		</g>
		<g>
			<path d="M261.3,96.8c1.1,0,2.1-1.1,2.1-2.1c0-1.1-1.1-2.1-2.1-2.1s-2.1,1.1-2.1,2.1C259.8,96.3,260.3,96.8,261.3,96.8"/>
		</g>
		<g>
			<path d="M274.5,95.7c0.5,0,1.6-0.5,1.1-1.6c0-0.5-0.5-1.6-1.6-1.1c-0.5,0-1.6,0.5-1.1,1.6C273.5,95.2,274,95.7,274.5,95.7"/>
		</g>
		<g>
			<path d="M287.7,94.7c0.5,0,0.5-0.5,0.5-1.1s-0.5-0.5-1.1-0.5s-0.5,0.5-0.5,1.1C287.2,94.7,287.2,94.7,287.7,94.7"/>
		</g>
		<g>
			<path d="M300.9,93.6C300.9,93.6,301.5,93.6,300.9,93.6c0.5-0.5,0-0.5,0-0.5S300.4,93.1,300.9,93.6
				C300.4,93.6,300.9,93.6,300.9,93.6"/>
		</g>
		<g>
			<path d="M314.1,93.1L314.1,93.1L314.1,93.1L314.1,93.1L314.1,93.1"/>
		</g>
		<g>
			<path d="M5.3,117.9L5.3,117.9L5.3,117.9C4.8,117.9,4.8,117.9,5.3,117.9C4.8,117.9,4.8,117.9,5.3,117.9"/>
		</g>
		<g>
			<path d="M18.5,117.9c0.5,0,0.5,0,0.5-0.5s0-0.5-0.5-0.5s-0.5,0-0.5,0.5S18,117.9,18.5,117.9"/>
		</g>
		<g>
			<path d="M31.7,117.9c0.5,0,1.1-0.5,1.1-1.1s-0.5-1.1-1.1-1.1c-0.5,0-1.1,0.5-1.1,1.1C30.6,117.4,30.6,117.9,31.7,117.9"/>
		</g>
		<g>
			<path d="M44.9,117.9c1.1,0,1.6-1.1,1.6-1.6c0-1.1-1.1-1.6-1.6-1.6c-1.1,0-1.6,1.1-1.6,1.6C42.8,117.4,43.8,118.4,44.9,117.9"/>
		</g>
		<g>
			<path d="M58.1,118.4c1.6,0,2.6-1.1,2.1-2.6c0-1.6-1.1-2.6-2.6-2.1c-1.6,0-2.6,1.1-2.1,2.6C55.4,117.4,56.5,118.4,58.1,118.4"/>
		</g>
		<g>
			<path d="M71.3,119c1.6,0,3.2-1.6,3.2-3.7c0-1.6-1.6-3.2-3.7-3.2c-1.6,0-3.2,1.6-3.2,3.7C67.6,117.4,69.2,119,71.3,119"/>
		</g>
		<g>
			<path d="M84.5,119.5c2.6,0,4.2-2.1,4.2-4.2c0-2.6-2.1-4.2-4.2-4.2c-2.6,0-4.2,2.1-4.2,4.2C79.7,117.4,81.8,119.5,84.5,119.5"/>
		</g>
		<g>
			<path d="M97.7,120c3.2,0,5.3-2.6,5.3-5.8c0-3.2-2.6-5.3-5.8-5.3c-3.2,0-5.3,2.6-5.3,5.8C91.9,117.4,94.5,120,97.7,120"/>
		</g>
		<g>
			<path d="M110.9,120.5c3.7,0,6.3-3.2,6.3-6.9c0-3.7-3.2-6.3-6.9-6.3c-3.7,0-6.3,3.2-6.3,6.9C104,117.9,107.2,120.5,110.9,120.5"/>
		</g>
		<g>
			<path d="M124.1,120c3.7,0,6.9-3.2,6.3-6.9c0-3.7-3.2-6.9-6.9-6.3c-3.7,0-6.9,3.2-6.3,6.9C117.2,117.4,120.4,120.5,124.1,120"/>
		</g>
		<g>
			<path d="M137.3,119.5c3.7,0,6.9-3.2,6.3-6.9c0-3.7-3.2-6.9-6.9-6.3c-3.7,0-6.9,3.2-6.3,6.9C130.4,116.8,133.6,120,137.3,119.5"/>
		</g>
		<g>
			<path d="M150.5,119c3.7,0,6.9-3.2,6.3-6.9c0-3.7-3.2-6.9-6.9-6.3c-3.7,0-6.9,3.2-6.3,6.9C143.1,116.3,146.3,119.5,150.5,119"/>
		</g>
		<g>
			<path d="M163.7,119c3.7,0,6.9-3.2,6.3-6.9c0-3.7-3.2-6.9-6.9-6.3c-3.7,0-6.9,3.2-6.3,6.9C156.3,115.8,159.5,119,163.7,119"/>
		</g>
		<g>
			<path d="M176.3,118.4c3.7,0,6.9-3.2,6.3-6.9c0-3.7-3.2-6.9-6.9-6.3c-3.7,0-6.9,3.2-6.3,6.9C169.5,115.3,172.7,118.4,176.3,118.4"
				/>
		</g>
		<g>
			<path d="M189.5,117.9c3.7,0,6.9-3.2,6.3-6.9c0-3.7-3.2-6.9-6.9-6.3c-3.7,0-6.9,3.2-6.3,6.9C182.7,114.7,185.9,117.9,189.5,117.9"
				/>
		</g>
		<g>
			<path d="M202.7,116.8c3.7,0,6.3-3.2,6.3-6.9c0-3.7-3.2-6.3-6.9-6.3c-3.7,0-6.3,3.2-6.3,6.9C196.4,114.2,199.6,116.8,202.7,116.8"
				/>
		</g>
		<g>
			<path d="M215.9,115.3c3.2,0,5.3-2.6,5.3-5.8s-2.6-5.3-5.8-5.3c-3.2,0-5.3,2.6-5.3,5.8C210.7,113.1,213.3,115.3,215.9,115.3"/>
		</g>
		<g>
			<path d="M229.1,113.7c2.6,0,4.2-2.1,4.2-4.8s-2.1-4.2-4.8-4.2s-4.2,2.1-4.2,4.8C224.9,112.1,227,113.7,229.1,113.7"/>
		</g>
		<g>
			<path d="M242.3,112.1c1.6,0,3.2-1.6,3.2-3.7c0-1.6-1.6-3.2-3.7-3.2c-1.6,0-3.2,1.6-3.2,3.7C239.2,111,240.8,112.1,242.3,112.1"/>
		</g>
		<g>
			<path d="M255.5,111c1.6,0,2.6-1.1,2.1-2.6c0-1.6-1.1-2.6-2.6-2.1c-1.6,0-2.6,1.1-2.1,2.6C252.9,110,254,111,255.5,111"/>
		</g>
		<g>
			<path d="M268.7,109.5c1.1,0,1.6-1.1,1.6-1.6c0-1.1-1.1-1.6-1.6-1.6c-1.1,0-1.6,1.1-1.6,1.6C267.2,108.9,267.7,109.5,268.7,109.5"
				/>
		</g>
		<g>
			<path d="M281.9,108.4c0.5,0,1.1-0.5,1.1-1.1s-0.5-1.1-1.1-1.1s-1.1,0.5-1.1,1.1C280.9,107.9,281.4,108.4,281.9,108.4"/>
		</g>
		<g>
			<path d="M295.1,107.3c0.5,0,0.5,0,0.5-0.5s0-0.5-0.5-0.5c-0.5,0-0.5,0-0.5,0.5S294.6,107.3,295.1,107.3"/>
		</g>
		<g>
			<path d="M308.3,106.3L308.3,106.3L308.3,106.3C307.8,106.3,307.8,106.3,308.3,106.3C307.8,106.3,307.8,106.3,308.3,106.3"/>
		</g>
		<g>
			<path d="M12.2,131.1L12.2,131.1C12.2,130.6,12.2,130.6,12.2,131.1C12.2,130.6,12.2,130.6,12.2,131.1L12.2,131.1"/>
		</g>
		<g>
			<path d="M25.4,131.1C25.4,131.1,25.9,130.6,25.4,131.1c0.5-0.5,0-1.1,0-1.1C24.8,130,24.8,130,25.4,131.1
				C24.8,130.6,24.8,131.1,25.4,131.1"/>
		</g>
		<g>
			<path d="M38.6,131.1c0.5,0,1.1-0.5,1.1-1.1s-0.5-1.1-1.1-1.1c-0.5,0-1.1,0.5-1.1,1.1S38,131.1,38.6,131.1"/>
		</g>
		<g>
			<path d="M51.8,131.1c1.1,0,1.6-1.1,1.6-1.6c0-1.1-1.1-1.6-1.6-1.6c-1.1,0-1.6,1.1-1.6,1.6C50.2,130.6,50.7,131.1,51.8,131.1"/>
		</g>
		<g>
			<path d="M64.9,131.1c1.6,0,2.1-1.1,2.1-2.6c0-1.6-1.1-2.1-2.6-2.1c-1.6,0-2.1,1.1-2.1,2.6C62.3,130,63.4,131.1,64.9,131.1"/>
		</g>
		<g>
			<path d="M78.1,131.6c1.6,0,3.2-1.6,3.2-3.7c0-1.6-1.6-3.2-3.7-3.2c-1.6,0-3.2,1.6-3.2,3.7C75,130.6,76.6,131.6,78.1,131.6"/>
		</g>
		<g>
			<path d="M91.3,132.2c2.6,0,4.2-2.1,4.2-4.2c0-2.6-2.1-4.2-4.2-4.2c-2.6,0-4.2,2.1-4.2,4.2C87.1,130.6,89.2,132.2,91.3,132.2"/>
		</g>
		<g>
			<path d="M104.5,132.7c3.2,0,5.3-2.6,5.3-5.8c0-3.2-2.6-5.3-5.8-5.3s-5.3,2.6-5.3,5.8C99.3,130.6,101.4,132.7,104.5,132.7"/>
		</g>
		<g>
			<path d="M117.7,133.7c3.7,0,6.3-3.2,6.3-6.9c0-3.7-3.2-6.3-6.9-6.3c-3.7,0-6.3,3.2-6.3,6.9C110.9,130.6,114,133.7,117.7,133.7"/>
		</g>
		<g>
			<path d="M130.9,133.2c3.7,0,6.9-3.2,6.3-6.9c0-3.7-3.2-6.9-6.9-6.3c-3.7,0-6.9,3.2-6.3,6.9C124.1,130.6,127.2,133.2,130.9,133.2"
				/>
		</g>
		<g>
			<path d="M144.1,132.7c3.7,0,6.9-3.2,6.3-6.9c0-3.7-3.2-6.9-6.9-6.3c-3.7,0-6.9,3.2-6.3,6.9C137.3,130,140.4,132.7,144.1,132.7"/>
		</g>
		<g>
			<path d="M157.3,132.2c3.7,0,6.9-3.2,6.3-6.9c0-3.7-3.2-6.9-6.9-6.3c-3.7,0-6.9,3.2-6.3,6.9C150.5,129.5,153.6,132.2,157.3,132.2"
				/>
		</g>
		<g>
			<path d="M170.5,131.6c3.7,0,6.9-3.2,6.3-6.9c0-3.7-3.2-6.9-6.9-6.3c-3.7,0-6.9,3.2-6.3,6.9C163.7,129,166.8,131.6,170.5,131.6"/>
		</g>
		<g>
			<path d="M183.7,131.1c3.7,0,6.9-3.2,6.3-6.9c0-3.7-3.2-6.9-6.9-6.3c-3.7,0-6.9,3.2-6.3,6.9C176.9,128.5,180,131.1,183.7,131.1"/>
		</g>
		<g>
			<path d="M196.9,130.6c3.7,0,6.9-3.2,6.3-6.9c0-3.7-3.2-6.9-6.9-6.3c-3.7,0-6.9,3.2-6.3,6.9C190.1,127.9,193.2,130.6,196.9,130.6"
				/>
		</g>
		<g>
			<path d="M210.1,130c3.7,0,6.9-3.2,6.3-6.9c0-3.7-3.2-6.9-6.9-6.3c-3.7,0-6.9,3.2-6.3,6.9C203.3,127.4,206.4,130,210.1,130"/>
		</g>
		<g>
			<path d="M223.3,129c3.2,0,5.8-2.6,5.8-6.3c0-3.2-2.6-5.8-6.3-5.8c-3.2,0-5.8,2.6-5.8,6.3C217,126.3,220.2,129,223.3,129"/>
		</g>
		<g>
			<path d="M236.5,126.9c2.6,0,4.8-2.1,4.8-4.8s-2.1-4.8-4.8-4.8c-2.6,0-4.8,2.1-4.8,4.8C231.3,125.3,233.9,127.4,236.5,126.9"/>
		</g>
		<g>
			<path d="M249.2,125.3c2.1,0,3.7-1.6,3.7-3.7c0-2.1-1.6-3.7-3.7-3.7s-3.7,1.6-3.7,3.7C245.5,124.2,247.6,125.8,249.2,125.3"/>
		</g>
		<g>
			<path d="M262.4,124.2c1.6,0,2.6-1.6,2.6-2.6c0-1.6-1.6-2.6-2.6-2.6c-1.6,0-2.6,1.6-2.6,2.6C259.8,123.2,260.8,124.2,262.4,124.2"
				/>
		</g>
		<g>
			<path d="M275.6,122.7c1.1,0,2.1-1.1,2.1-2.1c0-1.1-1.1-2.1-2.1-2.1s-2.1,1.1-2.1,2.1C274,122.1,274.5,122.7,275.6,122.7"/>
		</g>
		<g>
			<path d="M288.8,121.6c0.5,0,1.1-0.5,1.1-1.1s-0.5-1.1-1.1-1.1c-0.5,0-1.1,0.5-1.1,1.1C287.7,121.1,288.3,121.6,288.8,121.6"/>
		</g>
		<g>
			<path d="M302,120.5c0.5,0,0.5-0.5,0.5-0.5c0-0.5-0.5-0.5-0.5-0.5c-0.5,0-0.5,0.5-0.5,0.5C301.5,120,301.5,120.5,302,120.5"/>
		</g>
		<g>
			<path d="M315.2,119.5L315.2,119.5C315.2,119,315.2,119,315.2,119.5C315.2,119,314.7,119,315.2,119.5
				C314.7,119.5,315.2,119.5,315.2,119.5"/>
		</g>
		<g>
			<path d="M328.4,119L328.4,119L328.4,119L328.4,119L328.4,119"/>
		</g>
		<g>
			<path d="M5.8,144.3C6.3,144.3,6.3,144.3,5.8,144.3C6.3,144.3,6.3,144.3,5.8,144.3L5.8,144.3L5.8,144.3"/>
		</g>
		<g>
			<path d="M19,144.3C19.5,144.3,19.5,143.8,19,144.3c0.5-0.5,0-0.5,0-0.5C19,143.2,19,143.8,19,144.3C19,143.8,19,144.3,19,144.3"
				/>
		</g>
		<g>
			<path d="M32.2,144.3c0.5,0,1.1-0.5,1.1-1.1s-0.5-1.1-1.1-1.1c-0.5,0-1.1,0.5-1.1,1.1C31.7,143.8,32.2,144.3,32.2,144.3"/>
		</g>
		<g>
			<path d="M45.4,144.3c1.1,0,1.6-0.5,1.6-1.6s-0.5-1.6-1.6-1.6c-1.1,0-1.6,0.5-1.6,1.6C44.4,143.8,44.9,144.3,45.4,144.3"/>
		</g>
		<g>
			<path d="M58.6,144.3c1.1,0,2.1-1.1,2.1-2.1s-1.1-2.1-2.1-2.1c-1.1,0-2.1,1.1-2.1,2.1C56.5,143.8,57.6,144.3,58.6,144.3"/>
		</g>
		<g>
			<path d="M71.8,144.8c1.6,0,3.2-1.6,3.2-3.2c0-1.6-1.6-3.2-3.2-3.2c-1.6,0-3.2,1.6-3.2,3.2C69.2,143.8,70.2,144.8,71.8,144.8"/>
		</g>
		<g>
			<path d="M85,145.4c2.1,0,3.7-2.1,3.7-4.2c0-2.1-2.1-3.7-4.2-3.7c-2.1,0-3.7,2.1-3.7,4.2C81.3,143.8,82.9,145.4,85,145.4"/>
		</g>
		<g>
			<path d="M98.7,145.9c2.6,0,5.3-2.6,4.8-5.3c0-2.6-2.6-5.3-5.3-4.8c-2.6,0-5.3,2.6-4.8,5.3C93.5,143.8,95.6,145.9,98.7,145.9"/>
		</g>
		<g>
			<path d="M111.9,146.4c3.7,0,6.3-3.2,5.8-6.3c0-3.7-3.2-6.3-6.3-5.8c-3.7,0-6.3,3.2-5.8,6.3C105.1,143.8,108.2,146.9,111.9,146.4"
				/>
		</g>
		<g>
			<path d="M125.1,146.4c3.7,0,6.9-3.2,6.3-6.9c0-3.7-3.2-6.9-6.9-6.3c-3.7,0-6.9,3.2-6.3,6.9C117.7,143.8,120.9,146.9,125.1,146.4"
				/>
		</g>
		<g>
			<path d="M138.3,145.9c3.7,0,6.9-3.2,6.3-6.9c0-3.7-3.2-6.9-6.9-6.3c-3.7,0-6.9,3.2-6.3,6.9C130.9,143.2,134.1,146.4,138.3,145.9"
				/>
		</g>
		<g>
			<path d="M151,145.4c3.7,0,6.9-3.2,6.3-6.9c0-3.7-3.2-6.9-6.9-6.3c-3.7,0-6.9,3.2-6.3,6.9C144.1,142.7,147.3,145.9,151,145.4"/>
		</g>
		<g>
			<path d="M164.2,144.8c3.7,0,6.9-3.2,6.3-6.9c0-3.7-3.2-6.9-6.9-6.3c-3.7,0-6.9,3.2-6.3,6.9C157.3,142.2,160.5,145.4,164.2,144.8"
				/>
		</g>
		<g>
			<path d="M177.4,144.3c3.7,0,6.9-3.2,6.3-6.9c0-3.7-3.2-6.9-6.9-6.3c-3.7,0-6.9,3.2-6.3,6.9C170.5,141.7,173.7,144.8,177.4,144.3"
				/>
		</g>
		<g>
			<path d="M190.6,144.3c3.7,0,6.9-3.2,6.3-6.9c0-3.7-3.2-6.9-6.9-6.3c-3.7,0-6.9,3.2-6.3,6.9C183.7,141.1,186.9,144.3,190.6,144.3"
				/>
		</g>
		<g>
			<path d="M203.8,143.8c3.7,0,6.9-3.2,6.3-6.9c0-3.7-3.2-6.9-6.9-6.3c-3.7,0-6.9,3.2-6.3,6.9C196.9,140.6,200.1,143.8,203.8,143.8"
				/>
		</g>
		<g>
			<path d="M217,142.2c3.2,0,5.8-3.2,5.8-6.3c0-3.2-3.2-5.8-6.3-5.8c-3.2,0-5.8,3.2-5.8,6.3C211.2,140.1,213.8,142.2,217,142.2"/>
		</g>
		<g>
			<path d="M230.2,140.6c2.6,0,4.8-2.6,4.8-5.3s-2.6-4.8-5.3-4.8c-2.6,0-4.8,2.6-4.8,5.3C225.4,138.5,227.6,140.6,230.2,140.6"/>
		</g>
		<g>
			<path d="M243.4,139c2.1,0,3.7-2.1,3.7-4.2s-2.1-3.7-4.2-3.7c-2.1,0-3.7,2.1-3.7,4.2C239.7,137.4,241.3,139,243.4,139"/>
		</g>
		<g>
			<path d="M256.6,137.4c1.6,0,2.6-1.6,2.6-3.2c0-1.6-1.6-2.6-3.2-2.6c-1.6,0-2.6,1.6-2.6,3.2C253.4,136.4,255,137.4,256.6,137.4"/>
		</g>
		<g>
			<path d="M269.8,136.4c1.1,0,2.1-1.1,2.1-2.1s-1.1-2.1-2.1-2.1s-2.1,1.1-2.1,2.1C267.7,135.3,268.7,136.4,269.8,136.4"/>
		</g>
		<g>
			<path d="M283,134.8c0.5,0,1.1-0.5,1.1-1.6c0-0.5-0.5-1.1-1.6-1.1c-0.5,0-1.1,0.5-1.1,1.6C281.4,134.3,281.9,135.3,283,134.8"/>
		</g>
		<g>
			<path d="M296.2,133.7c0.5,0,0.5-0.5,0.5-0.5c0-0.5-0.5-0.5-0.5-0.5c-0.5,0-0.5,0.5-0.5,0.5C295.1,133.7,295.7,133.7,296.2,133.7"
				/>
		</g>
		<g>
			<path d="M308.9,133.2C309.4,133.2,309.4,132.7,308.9,133.2c0.5-0.5,0-0.5,0-0.5S308.9,132.7,308.9,133.2
				C308.9,132.7,308.9,133.2,308.9,133.2"/>
		</g>
		<g>
			<path d="M322.1,132.2L322.1,132.2L322.1,132.2L322.1,132.2L322.1,132.2"/>
		</g>
		<g>
			<path d="M13.2,157.5L13.2,157.5C13.2,157,13.2,157,13.2,157.5C13.2,157,13.2,157,13.2,157.5L13.2,157.5"/>
		</g>
		<g>
			<path d="M26.4,157L26.4,157C26.4,156.4,26.4,156.4,26.4,157C26.4,156.4,25.9,156.4,26.4,157C25.9,157,26.4,157,26.4,157"/>
		</g>
		<g>
			<path d="M39.6,157c0.5,0,0.5-0.5,0.5-0.5c0-0.5-0.5-0.5-0.5-0.5c-0.5,0-0.5,0.5-0.5,0.5S39.1,157,39.6,157"/>
		</g>
		<g>
			<path d="M52.8,157c0.5,0,1.1-0.5,1.1-1.1c0-0.5-0.5-1.1-1.1-1.1s-1.1,0.5-1.1,1.1C51.8,156.4,52.3,157,52.8,157"/>
		</g>
		<g>
			<path d="M66,157c1.1,0,1.6-1.1,1.6-2.1s-1.1-1.6-2.1-1.6c-1.1,0-1.6,1.1-1.6,2.1S64.9,157,66,157"/>
		</g>
		<g>
			<path d="M79.2,157.5c1.6,0,2.6-1.1,2.6-2.6c0-1.6-1.1-2.6-2.6-2.6c-1.6,0-2.6,1.1-2.6,2.6C76.6,156.4,77.6,157.5,79.2,157.5"/>
		</g>
		<g>
			<path d="M92.4,157.5c2.1,0,3.7-1.6,3.2-3.7c0-2.1-1.6-3.7-3.7-3.2c-2.1,0-3.7,1.6-3.2,3.7C88.7,156.4,90.3,158,92.4,157.5"/>
		</g>
		<g>
			<path d="M105.6,158c2.6,0,4.2-2.1,4.2-4.8s-2.1-4.2-4.8-4.2s-4.2,2.1-4.2,4.8C100.8,156.4,103,158.6,105.6,158"/>
		</g>
		<g>
			<path d="M118.8,158.6c3.2,0,5.3-2.6,5.3-5.8c0-3.2-2.6-5.3-5.8-5.3c-3.2,0-5.3,2.6-5.3,5.8C113,156.4,115.6,159.1,118.8,158.6"/>
		</g>
		<g>
			<path d="M132,159.1c3.7,0,6.3-3.2,6.3-6.9c0-3.7-3.2-6.3-6.9-6.3c-3.7,0-6.3,3.2-6.3,6.9C125.1,156.4,128.3,159.6,132,159.1"/>
		</g>
		<g>
			<path d="M145.2,159.1c3.7,0,6.9-3.2,6.3-6.9c0-3.7-3.2-6.9-6.9-6.3c-3.7,0-6.9,3.2-6.3,6.9C138.3,156.4,141.5,159.1,145.2,159.1"
				/>
		</g>
		<g>
			<path d="M158.4,158.6c3.7,0,6.9-3.2,6.3-6.9c0-3.7-3.2-6.9-6.9-6.3c-3.7,0-6.9,3.2-6.3,6.9C151.5,155.9,154.7,158.6,158.4,158.6"
				/>
		</g>
		<g>
			<path d="M171.6,158c3.7,0,6.9-3.2,6.3-6.9c0-3.7-3.2-6.9-6.9-6.3c-3.7,0-6.9,3.2-6.3,6.9C164.7,155.4,167.9,158,171.6,158"/>
		</g>
		<g>
			<path d="M184.8,157.5c3.7,0,6.9-3.2,6.3-6.9c0-3.7-3.2-6.9-6.9-6.3c-3.7,0-6.9,3.2-6.3,6.9C177.9,154.9,181.1,157.5,184.8,157.5"
				/>
		</g>
		<g>
			<path d="M198,157c3.7,0,6.9-3.2,6.3-6.9c0-3.7-3.2-6.9-6.9-6.3c-3.7,0-6.9,3.2-6.3,6.9C191.1,154.3,194.3,157,198,157"/>
		</g>
		<g>
			<path d="M211.2,156.4c3.7,0,6.9-3.2,6.3-6.9c0-3.7-3.2-6.9-6.9-6.3c-3.7,0-6.9,3.2-6.3,6.9C204.3,153.8,207.5,156.4,211.2,156.4"
				/>
		</g>
		<g>
			<path d="M224.4,154.9c3.2,0,5.8-2.6,5.3-5.8c0-3.2-2.6-5.8-5.8-5.3c-3.2,0-5.8,2.6-5.3,5.8C218.6,152.7,221.2,154.9,224.4,154.9"
				/>
		</g>
		<g>
			<path d="M237.1,153.3c2.6,0,4.8-2.1,4.8-4.8c0-2.6-2.1-4.8-4.8-4.8c-2.6,0-4.8,2.1-4.8,4.8C232.3,151.7,234.9,153.3,237.1,153.3"
				/>
		</g>
		<g>
			<path d="M250.3,151.7c2.1,0,3.7-1.6,3.7-3.7s-1.6-3.7-3.7-3.7s-3.7,1.6-3.7,3.7S248.1,152.2,250.3,151.7"/>
		</g>
		<g>
			<path d="M263.5,150.6c1.6,0,2.6-1.6,2.6-3.2c0-1.6-1.6-2.6-3.2-2.6c-1.6,0-2.6,1.6-2.6,3.2C260.8,149.6,261.9,150.6,263.5,150.6"
				/>
		</g>
		<g>
			<path d="M276.7,149c1.1,0,2.1-1.1,2.1-2.1s-1.1-2.1-2.1-2.1s-2.1,1.1-2.1,2.1C274.5,148.5,275.6,149,276.7,149"/>
		</g>
		<g>
			<path d="M289.9,148c0.5,0,1.1-0.5,1.1-1.6c0-0.5-0.5-1.1-1.6-1.1c-0.5,0-1.1,0.5-1.1,1.6C288.8,147.5,289.3,148,289.9,148"/>
		</g>
		<g>
			<path d="M303.1,146.9c0.5,0,0.5-0.5,0.5-0.5c0-0.5-0.5-0.5-0.5-0.5c-0.5,0-0.5,0.5-0.5,0.5S302.5,146.9,303.1,146.9"/>
		</g>
		<g>
			<path d="M316.3,145.9L316.3,145.9c0.5-0.5,0-0.5,0-0.5C316.3,145.4,315.7,145.4,316.3,145.9C315.7,145.9,316.3,145.9,316.3,145.9
				"/>
		</g>
		<g>
			<path d="M329.5,145.4L329.5,145.4L329.5,145.4L329.5,145.4L329.5,145.4"/>
		</g>
		<g>
			<path d="M20.1,170.2C20.1,170.2,20.6,170.2,20.1,170.2C20.6,170.2,20.1,170.2,20.1,170.2L20.1,170.2L20.1,170.2"/>
		</g>
		<g>
			<path d="M33.3,170.2C33.8,170.2,33.8,169.6,33.3,170.2c0.5-0.5,0-1.1,0-1.1S33.3,169.6,33.3,170.2
				C33.3,169.6,33.3,170.2,33.3,170.2"/>
		</g>
		<g>
			<path d="M46.5,170.2c0.5,0,1.1-0.5,1.1-1.1c0-0.5-0.5-1.1-1.1-1.1s-1.1,0.5-1.1,1.1C45.9,169.6,45.9,170.2,46.5,170.2"/>
		</g>
		<g>
			<path d="M59.7,170.2c0.5,0,1.6-0.5,1.6-1.6c0-0.5-0.5-1.6-1.6-1.6c-0.5,0-1.6,0.5-1.6,1.6C58.6,169.6,59.1,170.2,59.7,170.2"/>
		</g>
		<g>
			<path d="M72.9,170.2c1.1,0,2.1-1.1,2.1-2.1s-1.1-2.1-2.1-2.1c-1.1,0-2.1,1.1-2.1,2.1C70.8,169.6,71.8,170.2,72.9,170.2"/>
		</g>
		<g>
			<path d="M86.1,170.7c1.6,0,2.6-1.6,2.6-3.2c0-1.6-1.6-2.6-3.2-2.6c-1.6,0-2.6,1.6-2.6,3.2C83.4,169.1,84.5,170.7,86.1,170.7"/>
		</g>
		<g>
			<path d="M99.3,170.7c2.1,0,3.7-1.6,3.7-3.7s-1.6-3.7-3.7-3.7c-2.1,0-3.7,1.6-3.7,3.7C95.6,169.1,97.2,170.7,99.3,170.7"/>
		</g>
		<g>
			<path d="M112.5,171.2c2.6,0,4.2-2.1,4.2-4.8c0-2.6-2.1-4.2-4.8-4.2s-4.8,2.1-4.2,4.8C108.2,169.1,110.4,171.2,112.5,171.2"/>
		</g>
		<g>
			<path d="M125.7,171.8c3.2,0,5.3-2.6,5.3-5.8c0-3.2-2.6-5.3-5.8-5.3c-3.2,0-5.3,2.6-5.3,5.8C120.4,169.1,123,171.8,125.7,171.8"/>
		</g>
		<g>
			<path d="M138.9,171.8c3.2,0,5.8-3.2,5.8-6.3c0-3.2-3.2-5.8-6.3-5.8c-3.2,0-5.8,3.2-5.8,6.3C132.5,169.1,135.7,171.8,138.9,171.8"
				/>
		</g>
		<g>
			<path d="M152.1,171.8c3.7,0,6.9-3.2,6.3-6.9c0-3.7-3.2-6.9-6.9-6.3c-3.7,0-6.9,3.2-6.3,6.9C145.2,169.1,148.4,172.3,152.1,171.8"
				/>
		</g>
		<g>
			<path d="M165.3,171.2c3.7,0,6.9-3.2,6.3-6.9c0-3.7-3.2-6.9-6.9-6.3c-3.7,0-6.9,3.2-6.3,6.9C158.4,168.6,161.6,171.8,165.3,171.2"
				/>
		</g>
		<g>
			<path d="M178.5,170.7c3.7,0,6.9-3.2,6.3-6.9c0-3.7-3.2-6.9-6.9-6.3c-3.7,0-6.9,3.2-6.3,6.9C171.6,168.1,174.8,171.2,178.5,170.7"
				/>
		</g>
		<g>
			<path d="M191.7,170.2c3.7,0,6.3-3.2,6.3-6.9s-3.2-6.3-6.9-6.3c-3.7,0-6.3,3.2-6.3,6.9C185.3,167.5,188,170.2,191.7,170.2"/>
		</g>
		<g>
			<path d="M204.9,169.1c3.2,0,5.8-2.6,5.8-6.3c0-3.2-2.6-5.8-6.3-5.8c-3.2,0-5.8,2.6-5.8,6.3C199,166.5,201.7,169.1,204.9,169.1"/>
		</g>
		<g>
			<path d="M218.1,167.5c2.6,0,4.8-2.6,4.8-5.3s-2.6-4.8-5.3-4.8c-2.6,0-4.8,2.6-4.8,5.3C212.8,165.4,215.4,167.5,218.1,167.5"/>
		</g>
		<g>
			<path d="M231.3,166.5c2.1,0,4.2-2.1,4.2-4.2c0-2.1-2.1-4.2-4.2-4.2c-2.1,0-4.2,2.1-4.2,4.2C227,164.4,229.1,166.5,231.3,166.5"/>
		</g>
		<g>
			<path d="M244.5,164.9c2.1,0,3.2-1.6,3.2-3.7s-1.6-3.2-3.7-3.2s-3.2,1.6-3.2,3.7C240.8,163.8,242.3,164.9,244.5,164.9"/>
		</g>
		<g>
			<path d="M257.7,163.8c1.6,0,2.6-1.1,2.6-2.6s-1.1-2.6-2.6-2.6c-1.6,0-2.6,1.1-2.6,2.6S256.1,163.8,257.7,163.8"/>
		</g>
		<g>
			<path d="M270.9,162.2c1.1,0,1.6-1.1,1.6-2.1s-1.1-1.6-2.1-1.6s-1.6,1.1-1.6,2.1S269.8,162.2,270.9,162.2"/>
		</g>
		<g>
			<path d="M284,161.2c0.5,0,1.1-0.5,1.1-1.1c0-0.5-0.5-1.1-1.1-1.1s-1.1,0.5-1.1,1.1C282.5,160.7,283,161.2,284,161.2"/>
		</g>
		<g>
			<path d="M296.7,160.1c0.5,0,0.5-0.5,0.5-0.5c0-0.5-0.5-0.5-0.5-0.5c-0.5,0-0.5,0.5-0.5,0.5C296.2,160.1,296.7,160.1,296.7,160.1"
				/>
		</g>
		<g>
			<path d="M309.9,159.1C310.4,159.1,310.4,159.1,309.9,159.1C310.4,159.1,310.4,159.1,309.9,159.1L309.9,159.1L309.9,159.1"/>
		</g>
		<g>
			<path d="M323.1,158.6L323.1,158.6L323.1,158.6L323.1,158.6L323.1,158.6"/>
		</g>
		<g>
			<path d="M40.7,182.8L40.7,182.8C40.7,182.3,40.7,182.3,40.7,182.8C40.7,182.3,40.1,182.3,40.7,182.8
				C40.1,182.8,40.7,182.8,40.7,182.8"/>
		</g>
		<g>
			<path d="M53.9,182.8c0.5,0,0.5-0.5,0.5-0.5c0-0.5-0.5-0.5-0.5-0.5c-0.5,0-0.5,0.5-0.5,0.5C53.3,182.3,53.3,182.8,53.9,182.8"/>
		</g>
		<g>
			<path d="M67.1,182.3c0.5,0,1.1-0.5,1.1-1.1c0-0.5-0.5-1.1-1.1-1.1s-1.1,0.5-1.1,1.1C66,182.3,66.5,182.8,67.1,182.3"/>
		</g>
		<g>
			<path d="M80.3,182.8c1.1,0,1.6-0.5,1.6-1.6s-0.5-1.6-1.6-1.6c-1.1,0-1.6,0.5-1.6,1.6C78.7,181.8,79.2,182.8,80.3,182.8"/>
		</g>
		<g>
			<path d="M93.5,182.8c1.1,0,2.1-1.1,2.1-2.1s-1.1-2.1-2.1-2.1c-1.1,0-2.1,1.1-2.1,2.1C90.8,181.8,91.9,182.8,93.5,182.8"/>
		</g>
		<g>
			<path d="M106.7,182.8c1.6,0,2.6-1.6,2.6-3.2s-1.6-2.6-3.2-2.6c-1.6,0-2.6,1.6-2.6,3.2C103.5,181.8,105.1,182.8,106.7,182.8"/>
		</g>
		<g>
			<path d="M119.9,182.8c2.1,0,3.7-1.6,3.2-3.7c0-2.1-1.6-3.7-3.7-3.2c-2.1,0-3.7,1.6-3.2,3.7C116.2,181.8,117.7,183.4,119.9,182.8"
				/>
		</g>
		<g>
			<path d="M133.1,183.4c2.1,0,4.2-2.1,4.2-4.2c0-2.1-2.1-4.2-4.2-4.2c-2.1,0-4.2,2.1-4.2,4.2C128.8,181.8,130.4,183.4,133.1,183.4"
				/>
		</g>
		<g>
			<path d="M146.3,183.4c2.6,0,4.8-2.1,4.8-4.8c0-2.6-2.1-4.8-4.8-4.8s-4.8,2.1-4.8,4.8C141,181.3,143.6,183.4,146.3,183.4"/>
		</g>
		<g>
			<path d="M159.5,183.4c3.2,0,5.3-2.6,5.3-5.3c0-3.2-2.6-5.3-5.3-5.3c-3.2,0-5.3,2.6-5.3,5.3C154.2,181.3,156.3,183.4,159.5,183.4"
				/>
		</g>
		<g>
			<path d="M172.7,182.8c3.2,0,5.3-2.6,5.3-5.8c0-3.2-2.6-5.3-5.8-5.3c-3.2,0-5.3,2.6-5.3,5.8S169.5,183.4,172.7,182.8"/>
		</g>
		<g>
			<path d="M185.9,182.3c3.2,0,5.3-2.6,5.3-5.8s-2.6-5.3-5.8-5.3c-3.2,0-5.3,2.6-5.3,5.8C180,180.2,182.7,182.8,185.9,182.3"/>
		</g>
		<g>
			<path d="M199,181.8c3.2,0,5.3-2.6,5.3-5.3c0-3.2-2.6-5.3-5.3-5.3c-3.2,0-5.3,2.6-5.3,5.3C193.2,179.7,195.9,181.8,199,181.8"/>
		</g>
		<g>
			<path d="M211.7,180.7c2.6,0,4.8-2.1,4.8-4.8c0-2.6-2.1-4.8-4.8-4.8s-4.8,2.1-4.8,4.8C207,178.6,209.1,180.7,211.7,180.7"/>
		</g>
		<g>
			<path d="M224.9,179.7c2.1,0,4.2-2.1,4.2-4.2c0-2.1-2.1-4.2-4.2-4.2c-2.1,0-4.2,2.1-4.2,4.2C220.7,178.1,222.8,179.7,224.9,179.7"
				/>
		</g>
		<g>
			<path d="M238.1,178.6c2.1,0,3.7-1.6,3.2-3.7c0-2.1-1.6-3.7-3.7-3.2c-2.1,0-3.7,1.6-3.2,3.7C234.4,177,236.5,178.6,238.1,178.6"/>
		</g>
		<g>
			<path d="M251.3,177.6c1.6,0,2.6-1.6,2.6-3.2c0-1.6-1.6-2.6-3.2-2.6c-1.6,0-2.6,1.6-2.6,3.2C248.7,176,249.7,177.6,251.3,177.6"/>
		</g>
		<g>
			<path d="M264.5,176c1.1,0,2.1-1.1,2.1-2.1s-1.1-2.1-2.1-2.1s-2.1,1.1-2.1,2.1C262.4,175.4,263.5,176,264.5,176"/>
		</g>
		<g>
			<path d="M277.7,174.9c1.1,0,1.6-0.5,1.6-1.6s-0.5-1.6-1.6-1.6s-1.6,0.5-1.6,1.6C276.1,174.4,276.7,174.9,277.7,174.9"/>
		</g>
		<g>
			<path d="M290.9,173.9c0.5,0,1.1-0.5,1.1-1.1s-0.5-1.1-1.1-1.1c-0.5,0-1.1,0.5-1.1,1.1C289.9,173.3,290.4,173.9,290.9,173.9"/>
		</g>
		<g>
			<path d="M304.1,172.8c0.5,0,0.5,0,0.5-0.5c0-0.5,0-0.5-0.5-0.5s-0.5,0-0.5,0.5C303.6,172.8,303.6,172.8,304.1,172.8"/>
		</g>
		<g>
			<path d="M317.3,172.3L317.3,172.3C317.3,171.8,317.3,171.8,317.3,172.3C317.3,171.8,316.8,171.8,317.3,172.3
				C316.8,172.3,317.3,172.3,317.3,172.3"/>
		</g>
		<g>
			<path d="M34.3,196L34.3,196L34.3,196L34.3,196L34.3,196"/>
		</g>
		<g>
			<path d="M47.5,195.5C47.5,195.5,48.1,195.5,47.5,195.5C48.1,195.5,47.5,195,47.5,195.5L47.5,195.5L47.5,195.5"/>
		</g>
		<g>
			<path d="M60.7,195.5c0.5,0,0.5-0.5,0.5-0.5c0-0.5-0.5-0.5-0.5-0.5c-0.5,0-0.5,0.5-0.5,0.5C60.2,195.5,60.7,195.5,60.7,195.5"/>
		</g>
		<g>
			<path d="M73.9,195.5c0.5,0,1.1-0.5,1.1-1.1c0-0.5-0.5-1.1-1.1-1.1s-1.1,0.5-1.1,1.1S73.4,195.5,73.9,195.5"/>
		</g>
		<g>
			<path d="M87.1,195.5c1.1,0,1.6-0.5,1.6-1.6s-0.5-1.6-1.6-1.6c-1.1,0-1.6,0.5-1.6,1.6C85.5,195,86.6,195.5,87.1,195.5"/>
		</g>
		<g>
			<path d="M100.3,195.5c1.1,0,2.1-1.1,2.1-2.1s-1.1-2.1-2.1-2.1c-1.1,0-2.1,1.1-2.1,2.1S99.3,195.5,100.3,195.5"/>
		</g>
		<g>
			<path d="M113.5,195.5c1.6,0,2.6-1.1,2.6-2.6c0-1.6-1.1-2.6-2.6-2.6c-1.6,0-2.6,1.1-2.6,2.6C110.9,194.5,111.9,195.5,113.5,195.5"
				/>
		</g>
		<g>
			<path d="M126.7,195.5c1.6,0,3.2-1.6,3.2-3.2c0-1.6-1.6-3.2-3.2-3.2s-3.2,1.6-3.2,3.2C123.6,194.5,125.1,195.5,126.7,195.5"/>
		</g>
		<g>
			<path d="M139.9,195.5c2.1,0,3.7-1.6,3.2-3.7c0-2.1-1.6-3.7-3.7-3.2c-2.1,0-3.7,1.6-3.2,3.7C136.2,193.9,137.8,195.5,139.9,195.5"
				/>
		</g>
		<g>
			<path d="M153.1,195.5c2.1,0,3.7-2.1,3.7-4.2c0-2.1-2.1-3.7-4.2-3.7c-2.1,0-3.7,2.1-3.7,4.2C149.4,193.9,151,195.5,153.1,195.5"/>
		</g>
		<g>
			<path d="M166.3,195c2.1,0,4.2-2.1,3.7-4.2c0-2.1-2.1-4.2-4.2-3.7c-2.1,0-4.2,2.1-3.7,4.2C162.1,193.4,164.2,195,166.3,195"/>
		</g>
		<g>
			<path d="M179.5,194.5c2.1,0,4.2-2.1,4.2-4.2c0-2.1-2.1-4.2-4.2-4.2c-2.1,0-4.2,2.1-4.2,4.2C175.3,192.9,177.4,194.5,179.5,194.5"
				/>
		</g>
		<g>
			<path d="M192.7,193.9c2.1,0,3.7-2.1,3.7-4.2c0-2.1-2.1-3.7-4.2-3.7c-2.1,0-3.7,2.1-3.7,4.2C188.5,192.3,190.6,193.9,192.7,193.9"
				/>
		</g>
		<g>
			<path d="M205.9,193.4c2.1,0,3.7-1.6,3.7-3.7s-1.6-3.7-3.7-3.7s-3.7,1.6-3.7,3.7C202.2,191.8,203.8,193.4,205.9,193.4"/>
		</g>
		<g>
			<path d="M219.1,192.3c1.6,0,3.2-1.6,3.2-3.2c0-1.6-1.6-3.2-3.2-3.2c-1.6,0-3.2,1.6-3.2,3.2C215.9,190.8,217,192.3,219.1,192.3"/>
		</g>
		<g>
			<path d="M232.3,191.3c1.6,0,2.6-1.6,2.6-2.6c0-1.6-1.6-2.6-2.6-2.6c-1.6,0-2.6,1.6-2.6,2.6C229.1,190.2,230.7,191.3,232.3,191.3"
				/>
		</g>
		<g>
			<path d="M245.5,190.2c1.1,0,2.1-1.1,2.1-2.1s-1.1-2.1-2.1-2.1s-2.1,1.1-2.1,2.1C242.9,189.2,243.9,190.2,245.5,190.2"/>
		</g>
		<g>
			<path d="M258.7,189.2c1.1,0,1.6-1.1,1.6-1.6c0-1.1-1.1-1.6-1.6-1.6c-1.1,0-1.6,1.1-1.6,1.6C256.6,188.6,257.7,189.2,258.7,189.2"
				/>
		</g>
		<g>
			<path d="M271.4,188.1c0.5,0,1.1-0.5,1.1-1.1c0-0.5-0.5-1.1-1.1-1.1c-0.5,0-1.1,0.5-1.1,1.1S270.9,188.1,271.4,188.1"/>
		</g>
		<g>
			<path d="M284.6,187.1c0.5,0,0.5-0.5,0.5-0.5c0-0.5-0.5-0.5-0.5-0.5c-0.5,0-0.5,0.5-0.5,0.5C284,187.1,284.6,187.1,284.6,187.1"/>
		</g>
		<g>
			<path d="M297.8,186.5C298.3,186.5,298.3,186,297.8,186.5c0.5-0.5,0-0.5,0-0.5C297.8,185.5,297.8,186,297.8,186.5
				C297.8,186,297.8,186.5,297.8,186.5"/>
		</g>
		<g>
			<path d="M311,185.5L311,185.5L311,185.5L311,185.5L311,185.5"/>
		</g>
		<g>
			<path d="M54.9,208.7C54.9,208.7,54.9,208.2,54.9,208.7C54.9,208.2,54.9,208.2,54.9,208.7C54.9,208.2,54.9,208.2,54.9,208.7
				L54.9,208.7"/>
		</g>
		<g>
			<path d="M68.1,208.2L68.1,208.2C68.1,207.7,68.1,207.7,68.1,208.2C67.6,207.7,67.6,207.7,68.1,208.2
				C67.6,208.2,67.6,208.2,68.1,208.2"/>
		</g>
		<g>
			<path d="M81.3,208.2c0.5,0,0.5,0,0.5-0.5c0-0.5,0-0.5-0.5-0.5s-0.5,0-0.5,0.5C80.8,207.7,80.8,208.2,81.3,208.2"/>
		</g>
		<g>
			<path d="M94.5,207.7c0.5,0,1.1-0.5,1.1-1.1s-0.5-1.1-1.1-1.1s-1.1,0.5-1.1,1.1C93.5,207.1,94,207.7,94.5,207.7"/>
		</g>
		<g>
			<path d="M107.7,207.7c0.5,0,1.1-0.5,1.1-1.6c0-0.5-0.5-1.1-1.6-1.1c-0.5,0-1.1,0.5-1.1,1.6C106.1,207.1,106.7,207.7,107.7,207.7"
				/>
		</g>
		<g>
			<path d="M120.4,207.7c1.1,0,1.6-1.1,1.6-1.6c0-1.1-1.1-1.6-1.6-1.6c-1.1,0-1.6,1.1-1.6,1.6C118.8,207.1,119.9,207.7,120.4,207.7"
				/>
		</g>
		<g>
			<path d="M133.6,207.7c1.1,0,2.1-1.1,2.1-2.1s-1.1-2.1-2.1-2.1s-2.1,1.1-2.1,2.1C131.5,206.6,132.5,207.7,133.6,207.7"/>
		</g>
		<g>
			<path d="M146.8,207.1c1.6,0,2.6-1.1,2.1-2.6c0-1.6-1.1-2.6-2.6-2.1c-1.6,0-2.6,1.1-2.1,2.6C144.7,206.6,145.7,207.7,146.8,207.1"
				/>
		</g>
		<g>
			<path d="M160,207.1c1.6,0,2.6-1.1,2.6-2.6s-1.1-2.6-2.6-2.6c-1.6,0-2.6,1.1-2.6,2.6S158.9,207.1,160,207.1"/>
		</g>
		<g>
			<path d="M173.2,206.6c1.6,0,2.6-1.6,2.6-3.2c0-1.6-1.6-2.6-3.2-2.6s-2.6,1.6-2.6,3.2C170.5,205.5,171.6,206.6,173.2,206.6"/>
		</g>
		<g>
			<path d="M186.4,206.1c1.6,0,2.6-1.6,2.6-3.2c0-1.6-1.6-2.6-3.2-2.6s-2.6,1.6-2.6,3.2C183.7,205,184.8,206.6,186.4,206.1"/>
		</g>
		<g>
			<path d="M199.6,205.5c1.6,0,2.6-1.6,2.6-3.2c0-1.6-1.6-2.6-3.2-2.6s-2.6,1.6-2.6,3.2C196.9,204.5,198,205.5,199.6,205.5"/>
		</g>
		<g>
			<path d="M212.8,205c1.6,0,2.6-1.1,2.6-2.6s-1.1-2.6-2.6-2.6s-2.6,1.1-2.6,2.6C210.1,204,211.2,205,212.8,205"/>
		</g>
		<g>
			<path d="M226,204.5c1.1,0,2.1-1.1,2.1-2.6c0-1.1-1.1-2.1-2.6-2.1c-1.1,0-2.1,1.1-2.1,2.6C223.9,203.4,224.9,204.5,226,204.5"/>
		</g>
		<g>
			<path d="M239.2,203.4c1.1,0,2.1-1.1,2.1-2.1s-1.1-2.1-2.1-2.1s-2.1,1.1-2.1,2.1S238.1,203.4,239.2,203.4"/>
		</g>
		<g>
			<path d="M252.4,202.4c1.1,0,1.6-0.5,1.6-1.6s-0.5-1.6-1.6-1.6s-1.6,0.5-1.6,1.6C250.8,201.8,251.3,202.4,252.4,202.4"/>
		</g>
		<g>
			<path d="M265.6,201.3c0.5,0,1.1-0.5,1.1-1.1c0-0.5-0.5-1.1-1.1-1.1c-0.5,0-1.1,0.5-1.1,1.1C264.5,201.3,265,201.3,265.6,201.3"/>
		</g>
		<g>
			<path d="M278.8,200.8c0.5,0,0.5-0.5,0.5-1.1s0-0.5-0.5-0.5c-0.5,0-0.5,0.5-0.5,1.1C277.7,200.3,278.2,200.8,278.8,200.8"/>
		</g>
		<g>
			<path d="M292,199.7C292,199.7,292.5,199.7,292,199.7c0.5-0.5,0-1.1,0-1.1C291.4,198.7,291.4,199.2,292,199.7
				C291.4,199.7,291.4,199.7,292,199.7"/>
		</g>
		<g>
			<path d="M305.2,199.2L305.2,199.2C305.2,198.7,305.2,198.7,305.2,199.2C305.2,198.7,304.6,198.7,305.2,199.2
				C304.6,199.2,305.2,199.2,305.2,199.2"/>
		</g>
		<g>
			<path d="M75,220.9L75,220.9L75,220.9L75,220.9L75,220.9"/>
		</g>
		<g>
			<path d="M88.2,220.9C88.2,220.9,88.7,220.3,88.2,220.9c0.5-0.5,0-0.5,0-0.5C88.2,219.8,87.7,220.3,88.2,220.9
				C87.7,220.3,88.2,220.9,88.2,220.9"/>
		</g>
		<g>
			<path d="M101.4,220.3c0.5,0,0.5-0.5,0.5-0.5c0-0.5-0.5-0.5-0.5-0.5c-0.5,0-0.5,0.5-0.5,0.5C100.8,220.3,100.8,220.3,101.4,220.3"
				/>
		</g>
		<g>
			<path d="M114.6,220.3c0.5,0,1.1-0.5,1.1-1.1c0-0.5-0.5-1.1-1.1-1.1s-1.1,0.5-1.1,1.1C113.5,219.8,114,220.3,114.6,220.3"/>
		</g>
		<g>
			<path d="M127.8,220.3c0.5,0,1.1-0.5,1.1-1.1c0-0.5-0.5-1.1-1.1-1.1c-0.5,0-1.1,0.5-1.1,1.1C126.2,219.8,127.2,220.3,127.8,220.3"
				/>
		</g>
		<g>
			<path d="M141,219.8c1.1,0,1.6-0.5,1.6-1.6s-0.5-1.6-1.6-1.6s-1.6,0.5-1.6,1.6C139.4,219.3,139.9,219.8,141,219.8"/>
		</g>
		<g>
			<path d="M154.2,219.8c1.1,0,1.6-1.1,1.6-1.6c0-1.1-1.1-1.6-1.6-1.6c-1.1,0-1.6,1.1-1.6,1.6C152.6,218.7,153.1,219.8,154.2,219.8"
				/>
		</g>
		<g>
			<path d="M167.4,219.3c1.1,0,1.6-1.1,1.6-2.1s-1.1-1.6-2.1-1.6s-1.6,1.1-1.6,2.1C165.3,218.2,166.3,219.3,167.4,219.3"/>
		</g>
		<g>
			<path d="M180.6,218.7c1.1,0,2.1-1.1,1.6-2.1c0-1.1-1.1-2.1-2.1-1.6c-1.1,0-2.1,1.1-1.6,2.1C178.5,217.7,179.5,218.7,180.6,218.7"
				/>
		</g>
		<g>
			<path d="M193.8,218.2c1.1,0,1.6-1.1,1.6-2.1s-1.1-1.6-2.1-1.6s-1.6,1.1-1.6,2.1C191.7,217.2,192.7,218.2,193.8,218.2"/>
		</g>
		<g>
			<path d="M207,217.7c1.1,0,1.6-1.1,1.6-1.6c0-1.1-1.1-1.6-1.6-1.6c-1.1,0-1.6,1.1-1.6,1.6C204.9,216.6,205.9,217.7,207,217.7"/>
		</g>
		<g>
			<path d="M220.2,216.6c1.1,0,1.6-0.5,1.6-1.6s-0.5-1.6-1.6-1.6s-1.6,0.5-1.6,1.6S219.1,216.6,220.2,216.6"/>
		</g>
		<g>
			<path d="M233.4,216.1c0.5,0,1.1-0.5,1.1-1.6c0-0.5-0.5-1.1-1.6-1.1c-0.5,0-1.1,0.5-1.1,1.6C231.8,215.6,232.3,216.1,233.4,216.1"
				/>
		</g>
		<g>
			<path d="M246,215c0.5,0,1.1-0.5,1.1-1.1s-0.5-1.1-1.1-1.1c-0.5,0-1.1,0.5-1.1,1.1C245.5,215,245.5,215,246,215"/>
		</g>
		<g>
			<path d="M259.2,214.5c0.5,0,0.5-0.5,0.5-0.5c0-0.5-0.5-0.5-0.5-0.5c-0.5,0-0.5,0.5-0.5,0.5C258.7,214,259.2,214.5,259.2,214.5"/>
		</g>
		<g>
			<path d="M272.4,213.5C273,213.5,273,213.5,272.4,213.5c0.5-0.5,0-1.1,0-1.1C272.4,212.9,272.4,212.9,272.4,213.5L272.4,213.5"/>
		</g>
		<g>
			<path d="M285.6,212.9C285.6,212.9,286.2,212.9,285.6,212.9C286.2,212.9,285.6,212.4,285.6,212.9
				C285.6,212.4,285.6,212.9,285.6,212.9L285.6,212.9"/>
		</g>
		<g>
			<path d="M298.8,212.4L298.8,212.4L298.8,212.4L298.8,212.4L298.8,212.4"/>
		</g>
		<g>
			<path d="M95,233.5C95,233.5,95.6,233.5,95,233.5C95,233,95,233,95,233.5C95,233,95,233,95,233.5L95,233.5"/>
		</g>
		<g>
			<path d="M108.2,233C108.8,233,108.8,233,108.2,233C108.8,232.5,108.8,232.5,108.2,233C108.2,232.5,108.2,232.5,108.2,233
				L108.2,233"/>
		</g>
		<g>
			<path d="M121.4,232.5C122,232.5,122,232.5,121.4,232.5c0.5-0.5,0-0.5,0-0.5S121.4,231.9,121.4,232.5L121.4,232.5"/>
		</g>
		<g>
			<path d="M134.6,232.5c0.5,0,0.5-0.5,0.5-0.5c0-0.5-0.5-0.5-0.5-0.5c-0.5,0-0.5,0.5-0.5,0.5L134.6,232.5"/>
		</g>
		<g>
			<path d="M147.8,231.9c0.5,0,0.5-0.5,0.5-1.1c0-0.5-0.5-0.5-1.1-0.5c0,0,0,0.5,0,1.1C147.3,231.9,147.3,231.9,147.8,231.9"/>
		</g>
		<g>
			<path d="M161,231.4c0.5,0,1.1-0.5,1.1-1.1c0-0.5-0.5-1.1-1.1-1.1c-0.5,0-1.1,0.5-1.1,1.1C160,231.4,160.5,231.9,161,231.4"/>
		</g>
		<g>
			<path d="M174.2,231.4c0.5,0,1.1-0.5,1.1-1.1c0-0.5-0.5-1.1-1.1-1.1c-0.5,0-1.1,0.5-1.1,1.1C173.2,230.9,173.7,231.4,174.2,231.4"
				/>
		</g>
		<g>
			<path d="M187.4,230.9c0.5,0,1.1-0.5,1.1-1.1c0-0.5-0.5-1.1-1.1-1.1c-0.5,0-1.1,0.5-1.1,1.1C186.4,230.4,186.9,230.9,187.4,230.9"
				/>
		</g>
		<g>
			<path d="M200.6,230.4c0.5,0,1.1-0.5,1.1-1.1s-0.5-1.1-1.1-1.1c-0.5,0-1.1,0.5-1.1,1.1C199.6,229.8,200.1,230.4,200.6,230.4"/>
		</g>
		<g>
			<path d="M213.8,229.8c0.5,0,1.1-0.5,1.1-1.1c0-0.5-0.5-1.1-1.1-1.1s-1.1,0.5-1.1,1.1C212.8,229.3,213.3,229.8,213.8,229.8"/>
		</g>
		<g>
			<path d="M227,229.3c0.5,0,1.1-0.5,1.1-1.1s-0.5-1.1-1.1-1.1s-1.1,0.5-1.1,1.1C226,228.8,226.5,229.3,227,229.3"/>
		</g>
		<g>
			<path d="M240.2,228.2c0.5,0,0.5-0.5,0.5-0.5c0-0.5-0.5-0.5-0.5-0.5c-0.5,0-0.5,0.5-0.5,0.5C239.7,228.2,239.7,228.2,240.2,228.2"
				/>
		</g>
		<g>
			<path d="M253.4,227.7C253.4,227.7,254,227.7,253.4,227.7c0.5-0.5,0-1.1,0-1.1C252.9,226.7,252.9,227.2,253.4,227.7
				C252.9,227.7,252.9,227.7,253.4,227.7"/>
		</g>
		<g>
			<path d="M266.6,227.2C266.6,227.2,266.6,226.7,266.6,227.2c0.5-0.5,0-0.5,0-0.5C266.1,226.7,266.1,226.7,266.6,227.2
				C266.1,226.7,266.1,227.2,266.6,227.2"/>
		</g>
		<g>
			<path d="M279.8,226.1L279.8,226.1L279.8,226.1C279.8,226.1,279.3,226.1,279.8,226.1C279.3,226.1,279.8,226.1,279.8,226.1"/>
		</g>
		<g>
			<path d="M293,225.6L293,225.6L293,225.6L293,225.6L293,225.6"/>
		</g>
		<g>
			<path d="M115.6,245.7L115.6,245.7L115.6,245.7L115.6,245.7L115.6,245.7"/>
		</g>
		<g>
			<path d="M128.8,245.1L128.8,245.1L128.8,245.1C128.8,245.1,128.3,245.1,128.8,245.1C128.3,245.1,128.8,245.1,128.8,245.1"/>
		</g>
		<g>
			<path d="M142,245.1C142,245.1,142,244.6,142,245.1C142,244.6,142,244.6,142,245.1C141.5,244.6,141.5,244.6,142,245.1
				C141.5,244.6,141.5,245.1,142,245.1"/>
		</g>
		<g>
			<path d="M155.2,244.6C155.2,244.6,155.2,244.1,155.2,244.6c0.5-0.5,0-0.5,0-0.5C154.7,244.1,154.7,244.1,155.2,244.6
				C154.7,244.6,154.7,244.6,155.2,244.6"/>
		</g>
		<g>
			<path d="M168.4,244.1L168.4,244.1c0.5-0.5,0-1.1,0-1.1C167.9,243,167.9,243.6,168.4,244.1C167.9,244.1,167.9,244.1,168.4,244.1"
				/>
		</g>
		<g>
			<path d="M181.6,243.6L181.6,243.6c0.5-0.5,0-1.1,0-1.1C181.1,242.5,181.1,243,181.6,243.6C181.1,243.6,181.1,243.6,181.6,243.6"
				/>
		</g>
		<g>
			<path d="M194.8,243L194.8,243c0.5-0.5,0-1.1,0-1.1C194.3,242,194.3,242.5,194.8,243C194.3,243,194.3,243,194.8,243"/>
		</g>
		<g>
			<path d="M207.5,242.5C208,242.5,208,242.5,207.5,242.5c0.5-0.5,0-1.1,0-1.1C207.5,242,207.5,242,207.5,242.5L207.5,242.5"/>
		</g>
		<g>
			<path d="M220.7,242C221.2,242,221.2,242,220.7,242c0.5-0.5,0-0.5,0-0.5S220.7,241.4,220.7,242L220.7,242"/>
		</g>
		<g>
			<path d="M233.9,241.4C234.4,241.4,234.4,241.4,233.9,241.4C234.4,240.9,234.4,240.9,233.9,241.4
				C233.9,240.9,233.9,240.9,233.9,241.4L233.9,241.4"/>
		</g>
		<g>
			<path d="M247.1,240.9C247.1,240.9,247.6,240.9,247.1,240.9C247.6,240.4,247.1,240.4,247.1,240.9
				C247.1,240.4,247.1,240.4,247.1,240.9L247.1,240.9"/>
		</g>
		<g>
			<path d="M260.3,240.4L260.3,240.4C260.3,239.9,260.3,239.9,260.3,240.4C260.3,239.9,260.3,240.4,260.3,240.4L260.3,240.4"/>
		</g>
		<g>
			<path d="M175.3,256.8L175.3,256.8L175.3,256.8L175.3,256.8L175.3,256.8"/>
		</g>
		<g>
			<path d="M188.5,256.2L188.5,256.2L188.5,256.2L188.5,256.2L188.5,256.2"/>
		</g>
		<g>
			<path d="M201.7,255.7L201.7,255.7L201.7,255.7L201.7,255.7L201.7,255.7"/>
		</g>
		<g>
			<path d="M214.9,255.2L214.9,255.2L214.9,255.2L214.9,255.2L214.9,255.2"/>
		</g>
		<g>
			<path d="M228.1,254.6L228.1,254.6L228.1,254.6L228.1,254.6L228.1,254.6"/>
		</g>
		<g>
			<path class="st0" d="M67.1,293.2L98.7,61.4L387,104.2l-88.2,159.4L127.2,224L67.1,293.2z M121.4,206.1l169.5,39.1l70.7-128.3
				l-249.2-37L90.3,241.4L121.4,206.1z"/>
		</g>
		<g>
			<polygon class="st1" points="109.3,66.7 82.4,263.1 127.8,211.3 298.8,250.4 378,106.3 			"/>
		</g>
	</g>
	<g>
		<g>
			<defs>
				<polygon id="SVGID_1_" points="75,261.5 120.4,209.2 291.4,248.3 370.6,104.7 101.9,64.6 				"/>
			</defs>
			<clipPath id="SVGID_2_">
				<use xlink:href="#SVGID_1_"  style="overflow:visible;"/>
			</clipPath>
			<path class="st2" d="M154.2,221.4l-3.2-2.6c0,0,16.4-18.5,17.4-39.1s2.1-38,25.9-60.7c20.1-19,37.5-19,51.2-19
				c6.3,0,11.6,0,16.9-1.6c13.2-4.2,21.6-9.5,21.6-9.5l2.1,3.7c-0.5,0-9,5.8-22.7,10c-5.8,1.6-11.6,2.1-18,2.1c-13.7,0-29.6,0-48,18
				c-22.7,21.6-23.8,37.5-24.8,58.1S154.7,220.3,154.2,221.4"/>
		</g>
		<g>
			<defs>
				<polygon id="SVGID_3_" points="75,261.5 120.4,209.2 291.4,248.3 370.6,104.7 101.9,64.6 				"/>
			</defs>
			<clipPath id="SVGID_4_">
				<use xlink:href="#SVGID_3_"  style="overflow:visible;"/>
			</clipPath>
			<path class="st3" d="M170,237.7l-2.6-3.2c1.1-0.5,20.1-16.9,41.7-17.4c20.6-0.5,36.4-1.1,58.6-23.2c18-18.5,18.5-34.3,19-48
				c0-6.3,0.5-12.7,2.1-18c4.8-13.7,10.6-22.2,10.6-22.7l3.7,2.6c0,0-5.8,8.4-10,21.6c-1.6,5.3-2.1,10.6-2.1,16.9
				c-0.5,13.7-1.1,31.1-20.1,50.7c-23.2,23.8-41.2,24.3-61.2,24.8C189,221.9,170,237.7,170,237.7"/>
		</g>
		<g>
			<defs>
				<polygon id="SVGID_5_" points="75,261.5 120.4,209.2 291.4,248.3 370.6,104.7 101.9,64.6 				"/>
			</defs>
			<clipPath id="SVGID_6_">
				<use xlink:href="#SVGID_5_"  style="overflow:visible;"/>
			</clipPath>
			<path class="st4" d="M256.1,111.6c-16.4,7.9-30.1,19.5-43.3,32.2c-13.2,12.7-24.3,26.4-33.3,42.8
				C186.9,154.9,223.9,118.4,256.1,111.6"/>
		</g>
		<g>
			<defs>
				<polygon id="SVGID_7_" points="75,261.5 120.4,209.2 291.4,248.3 370.6,104.7 101.9,64.6 				"/>
			</defs>
			<clipPath id="SVGID_8_">
				<use xlink:href="#SVGID_7_"  style="overflow:visible;"/>
			</clipPath>
			<path class="st5" d="M236,111.6c-11.6,6.3-21.6,14.8-31.1,24.3c-9.5,9-18,19-24.8,30.6C184.8,142.7,212.2,115.3,236,111.6"/>
		</g>
		<g>
			<defs>
				<polygon id="SVGID_9_" points="75,261.5 120.4,209.2 291.4,248.3 370.6,104.7 101.9,64.6 				"/>
			</defs>
			<clipPath id="SVGID_10_">
				<use xlink:href="#SVGID_9_"  style="overflow:visible;"/>
			</clipPath>
			<path class="st6" d="M217.5,148.5c-19.5,19-31.7,38.5-30.6,48l79.7-78.1C256.6,117.9,236.5,130,217.5,148.5"/>
		</g>
		<g>
			<defs>
				<polygon id="SVGID_11_" points="75,261.5 120.4,209.2 291.4,248.3 370.6,104.7 101.9,64.6 				"/>
			</defs>
			<clipPath id="SVGID_12_">
				<use xlink:href="#SVGID_11_"  style="overflow:visible;"/>
			</clipPath>
			<path class="st7" d="M278.8,135.3c-7.4,32.2-44.3,68.1-76.6,75c16.4-8.4,30.6-19.5,43.3-32.2
				C258.7,164.9,270.3,151.2,278.8,135.3"/>
		</g>
		<g>
			<defs>
				<polygon id="SVGID_13_" points="75,261.5 120.4,209.2 291.4,248.3 370.6,104.7 101.9,64.6 				"/>
			</defs>
			<clipPath id="SVGID_14_">
				<use xlink:href="#SVGID_13_"  style="overflow:visible;"/>
			</clipPath>
			<path class="st8" d="M278.2,155.4c-4.2,23.8-31.7,50.7-55.4,54.4c11.6-6.9,21.6-14.8,31.1-24.3
				C263.5,176.5,271.9,167,278.2,155.4"/>
		</g>
		<g>
			<defs>
				<polygon id="SVGID_15_" points="75,261.5 120.4,209.2 291.4,248.3 370.6,104.7 101.9,64.6 				"/>
			</defs>
			<clipPath id="SVGID_16_">
				<use xlink:href="#SVGID_15_"  style="overflow:visible;"/>
			</clipPath>
			<path class="st9" d="M241.3,172.8c-19.5,19-39.6,30.6-49.1,29.6l79.7-78.1C273,134.3,260.3,153.8,241.3,172.8"/>
		</g>
		<g>
			<defs>
				<polygon id="SVGID_17_" points="75,261.5 120.4,209.2 291.4,248.3 370.6,104.7 101.9,64.6 				"/>
			</defs>
			<clipPath id="SVGID_18_">
				<use xlink:href="#SVGID_17_"  style="overflow:visible;"/>
			</clipPath>
			<path class="st10" d="M154.2,221.4l-3.2-2.6c0,0,16.4-18.5,17.4-39.1s2.1-38,25.9-60.7c20.1-19,37.5-19,51.2-19
				c6.3,0,11.6,0,16.9-1.6c13.2-4.2,21.6-9.5,21.6-9.5l2.1,3.7c-0.5,0-9,5.8-22.7,10c-5.8,1.6-11.6,2.1-18,2.1c-13.7,0-29.6,0-48,18
				c-22.7,21.6-23.8,37.5-24.8,58.1S154.7,220.3,154.2,221.4"/>
		</g>
		<g>
			<defs>
				<polygon id="SVGID_19_" points="75,261.5 120.4,209.2 291.4,248.3 370.6,104.7 101.9,64.6 				"/>
			</defs>
			<clipPath id="SVGID_20_">
				<use xlink:href="#SVGID_19_"  style="overflow:visible;"/>
			</clipPath>
			<path class="st11" d="M170,237.7l-2.6-3.2c1.1-0.5,20.1-16.9,41.7-17.4c20.6-0.5,36.4-1.1,58.6-23.2c18-18.5,18.5-34.3,19-48
				c0-6.3,0.5-12.7,2.1-18c4.8-13.7,10.6-22.2,10.6-22.7l3.7,2.6c0,0-5.8,8.4-10,21.6c-1.6,5.3-2.1,10.6-2.1,16.9
				c-0.5,13.7-1.1,31.1-20.1,50.7c-23.2,23.8-41.2,24.3-61.2,24.8C189,221.9,170,237.7,170,237.7"/>
		</g>
		<g>
			<defs>
				<polygon id="SVGID_21_" points="75,261.5 120.4,209.2 291.4,248.3 370.6,104.7 101.9,64.6 				"/>
			</defs>
			<clipPath id="SVGID_22_">
				<use xlink:href="#SVGID_21_"  style="overflow:visible;"/>
			</clipPath>
			<path class="st12" d="M256.1,111.6c-16.4,7.9-30.1,19.5-43.3,32.2c-13.2,12.7-24.3,26.4-33.3,42.8
				C186.9,154.9,223.9,118.4,256.1,111.6"/>
		</g>
		<g>
			<defs>
				<polygon id="SVGID_23_" points="75,261.5 120.4,209.2 291.4,248.3 370.6,104.7 101.9,64.6 				"/>
			</defs>
			<clipPath id="SVGID_24_">
				<use xlink:href="#SVGID_23_"  style="overflow:visible;"/>
			</clipPath>
			<path class="st13" d="M236,111.6c-11.6,6.3-21.6,14.8-31.1,24.3c-9.5,9-18,19-24.8,30.6C184.8,142.7,212.2,115.3,236,111.6"/>
		</g>
		<g>
			<defs>
				<polygon id="SVGID_25_" points="75,261.5 120.4,209.2 291.4,248.3 370.6,104.7 101.9,64.6 				"/>
			</defs>
			<clipPath id="SVGID_26_">
				<use xlink:href="#SVGID_25_"  style="overflow:visible;"/>
			</clipPath>
			<path class="st14" d="M217.5,148.5c-19.5,19-31.7,38.5-30.6,48l79.7-78.1C256.6,117.9,236.5,130,217.5,148.5"/>
		</g>
		<g>
			<defs>
				<polygon id="SVGID_27_" points="75,261.5 120.4,209.2 291.4,248.3 370.6,104.7 101.9,64.6 				"/>
			</defs>
			<clipPath id="SVGID_28_">
				<use xlink:href="#SVGID_27_"  style="overflow:visible;"/>
			</clipPath>
			<path class="st15" d="M278.8,135.3c-7.4,32.2-44.3,68.1-76.6,75c16.4-8.4,30.6-19.5,43.3-32.2
				C258.7,164.9,270.3,151.2,278.8,135.3"/>
		</g>
		<g>
			<defs>
				<polygon id="SVGID_29_" points="75,261.5 120.4,209.2 291.4,248.3 370.6,104.7 101.9,64.6 				"/>
			</defs>
			<clipPath id="SVGID_30_">
				<use xlink:href="#SVGID_29_"  style="overflow:visible;"/>
			</clipPath>
			<path class="st16" d="M278.2,155.4c-4.2,23.8-31.7,50.7-55.4,54.4c11.6-6.9,21.6-14.8,31.1-24.3
				C263.5,176.5,271.9,167,278.2,155.4"/>
		</g>
		<g>
			<defs>
				<polygon id="SVGID_31_" points="75,261.5 120.4,209.2 291.4,248.3 370.6,104.7 101.9,64.6 				"/>
			</defs>
			<clipPath id="SVGID_32_">
				<use xlink:href="#SVGID_31_"  style="overflow:visible;"/>
			</clipPath>
			<path class="st17" d="M241.3,172.8c-19.5,19-39.6,30.6-49.1,29.6l79.7-78.1C273,134.3,260.3,153.8,241.3,172.8"/>
		</g>
		<g>
			<defs>
				<polygon id="SVGID_33_" points="75,261.5 120.4,209.2 291.4,248.3 370.6,104.7 101.9,64.6 				"/>
			</defs>
			<clipPath id="SVGID_34_">
				<use xlink:href="#SVGID_33_"  style="overflow:visible;"/>
			</clipPath>
			<path class="st18" d="M193.2,146.4c0-1.1-0.5-2.1-1.1-2.6c2.1-1.1,3.2-3.2,2.6-5.3c0-1.6-1.1-2.6-2.1-3.7s-2.6-1.1-3.7-1.1
				c-0.5,0-1.1,0-1.6,0.5c0-1.1-0.5-1.6-1.1-2.1l0.5-0.5c1.1-1.1,1.1-2.6,1.1-3.7c0,0,0,0,0.5,0c1.6,0,2.6-1.1,3.7-2.1
				c1.1-1.1,1.1-2.6,1.1-3.7c0-1.6-1.1-2.6-2.1-3.7s-2.6-1.1-3.7-1.1c-1.6,0-2.6,1.1-3.7,2.1c-0.5,1.1-1.1,1.6-1.1,2.6
				c-0.5,0-0.5,0-1.1,0c-0.5,0-1.1,0-1.1,0.5c0-0.5-0.5-1.1-1.1-1.6c-1.1-1.1-2.6-2.1-4.2-2.1c-3.2-0.5-6.3,2.1-6.9,5.8
				c-0.5,3.2,2.1,6.3,5.8,6.9c1.1,0,2.1,0,3.2-0.5c0.5,0.5,0.5,1.6,1.6,2.1l0,0c-0.5,1.1-1.1,2.1-1.1,3.7l0,0c-0.5,0-1.1,0-1.6,0
				c-1.6,0-2.6,1.1-3.7,2.1s-1.1,2.6-1.1,3.7c0,1.6,1.1,2.6,2.1,3.7c0.5,0.5,1.6,1.1,2.1,1.1l0,0c-0.5,1.1-0.5,1.6-0.5,2.6
				c0,1.6,1.1,2.6,2.1,3.7c0.5,0.5,1.1,0.5,2.1,1.1c0.5,0,0.5,0,1.1,0c0.5,0,1.1,0,1.1,0c1.6,0,2.6-1.1,3.7-2.1l0,0
				c1.1,0.5,1.6,1.1,2.6,1.1c0.5,0,1.1,0,1.1,0c1.6,0,2.6-1.1,3.7-2.1l0,0C193.2,149,193.8,147.5,193.2,146.4 M181.1,142.7
				c0.5-0.5,0.5-1.6,0.5-2.6h0.5c0.5,0,1.1,0,1.1,0c0.5,0,1.1,0,1.6-0.5c0,1.1,0.5,1.6,1.1,2.1c-0.5,0.5-1.1,1.1-1.6,1.6
				c0,0,0,0,0,0.5l0,0C182.7,143.2,182.2,143.2,181.1,142.7L181.1,142.7"/>
		</g>
		<g>
			<defs>
				<polygon id="SVGID_35_" points="75,261.5 120.4,209.2 291.4,248.3 370.6,104.7 101.9,64.6 				"/>
			</defs>
			<clipPath id="SVGID_36_">
				<use xlink:href="#SVGID_35_"  style="overflow:visible;"/>
			</clipPath>
			<path class="st19" d="M190.6,146.4c0-1.1-0.5-1.6-1.6-2.1l0.5-2.6h0.5c1.6,0,2.6-1.6,2.1-3.2c0-1.6-1.6-2.6-3.2-2.1
				c-0.5,0-1.6,0.5-1.6,1.1l0,0l-2.6-1.6c0-0.5,0-1.1,0-1.1c0-1.1-1.1-2.1-2.6-2.1v-1.6l0,0c1.6-0.5,3.2-2.1,2.6-3.7
				c0-0.5-0.5-1.1-0.5-1.6l1.1-1.6c0.5,0.5,1.1,0.5,1.6,0.5h0.5c0.5,0,1.6-0.5,1.6-1.1c0.5-0.5,0.5-1.1,0.5-2.1
				c0-0.5-0.5-1.6-1.1-1.6c-0.5-0.5-1.1-0.5-2.1-0.5c-0.5,0-1.6,0.5-1.6,1.1c-0.5,0.5-0.5,1.1-0.5,2.1c0,0.5,0,0.5,0.5,1.1l-0.5,1.1
				c-0.5-0.5-1.6-0.5-2.6-0.5s-2.1,1.1-2.6,1.6l-1.1-0.5v-0.5c0-2.1-1.1-3.7-3.2-3.7s-3.7,1.1-3.7,3.2c0,2.1,1.1,3.7,3.2,3.7
				c1.6,0,2.6-0.5,3.2-1.6l1.6,0.5c0,0.5,0,1.1,0,1.1c0,1.6,1.6,2.6,2.6,2.6v1.6c-0.5,0-1.1,0.5-1.6,1.1c-0.5,0.5-0.5,1.1-0.5,2.1
				c0,0.5,0,0.5,0,1.1l-2.1,2.1c-0.5-0.5-1.1-0.5-2.1-0.5c-0.5,0-1.6,0.5-1.6,1.1c-0.5,0.5-0.5,1.1-0.5,2.1c0,0.5,0.5,1.6,1.1,1.6
				c0.5,0.5,1.1,0.5,1.6,0.5h0.5l0,0l1.6,2.6c-0.5,0.5-1.1,1.6-0.5,2.1c0,0.5,0.5,1.6,1.1,1.6c0.5,0.5,1.1,0.5,1.6,0.5h0.5
				c1.1,0,2.1-1.1,2.1-2.1l2.6-0.5c0,0.5,0.5,0.5,0.5,1.1c0.5,0.5,1.1,0.5,1.6,0.5h0.5c0.5,0,1.6-0.5,1.6-1.1
				C190.6,148,191.1,147.5,190.6,146.4 M187.4,144.3c-0.5,0-1.6,0.5-1.6,1.1c-0.5,0.5-0.5,1.1-0.5,2.1l0,0l-2.6,0.5l0,0
				c0-0.5-0.5-1.6-1.1-1.6c-0.5-0.5-1.1-0.5-2.1-0.5c-0.5,0-0.5,0-1.1,0.5l-1.6-2.6c1.1-0.5,1.6-1.6,1.6-2.6c0-0.5-0.5-1.1-0.5-1.1
				l2.1-2.1c0.5,0.5,1.1,0.5,1.6,1.1h0.5c0.5,0,1.6-0.5,1.6-1.1l2.6,1.1c0,0.5,0,1.1,0,1.1c0,0.5,0.5,1.6,1.1,1.6l0.5,0.5l-0.5,2.6
				C188,144.3,188,144.3,187.4,144.3"/>
		</g>
		<g>
			<defs>
				<polygon id="SVGID_37_" points="75,261.5 120.4,209.2 291.4,248.3 370.6,104.7 101.9,64.6 				"/>
			</defs>
			<clipPath id="SVGID_38_">
				<use xlink:href="#SVGID_37_"  style="overflow:visible;"/>
			</clipPath>
			<path class="st20" d="M221.2,92.6c-1.1,0-2.1,0-2.6,0.5c-0.5-2.1-2.1-3.7-4.2-4.2c-1.6,0-2.6,0-3.7,1.1s-2.1,2.1-2.1,3.2
				c0,0.5,0,1.1,0,1.6c-1.1,0-1.6,0-2.6,0.5l-0.5-0.5c-0.5-1.1-2.1-2.1-3.2-2.1c0,0,0,0,0-0.5c0-1.6,0-2.6-1.1-3.7s-2.1-2.1-3.2-2.1
				c-1.6,0-2.6,0-3.7,1.1s-2.1,2.1-2.1,3.2c0,1.6,0,2.6,1.1,3.7c0.5,1.1,1.6,1.6,2.1,1.6c0,0.5,0,0.5,0,1.1s0,1.1,0,1.1
				c-0.5,0-1.1,0-2.1,0.5c-1.6,0.5-2.6,1.6-3.2,3.2c-1.1,3.2,0,6.9,3.2,7.9c3.2,1.1,6.9,0,7.9-3.2c0.5-1.1,0.5-2.1,0.5-2.6
				c0.5,0,1.6-0.5,2.1-0.5l0,0c0.5,1.1,1.6,1.6,3.2,2.1l0,0c0,0.5-0.5,1.1-0.5,1.6c0,1.6,0,2.6,1.1,3.7s2.1,2.1,3.2,2.1
				c1.6,0,2.6,0,3.7-1.1c0.5-0.5,1.1-1.1,1.6-1.6l0,0c0.5,0.5,1.6,1.1,2.1,1.1c1.6,0,2.6,0,3.7-1.1c0.5-0.5,1.1-1.1,1.6-1.6l0.5-0.5
				c0-0.5,0-0.5,0.5-1.1c0-1.6,0-3.2-1.1-4.2c0,0,0,0,0.5,0c0.5-0.5,1.6-1.6,1.6-2.1s0-0.5,0.5-1.1c0-1.6,0-2.6-1.1-3.7l0,0
				C223.9,93.1,222.3,92.6,221.2,92.6 M216.5,101C216.5,101,215.9,101,216.5,101c-1.1,0.5-1.1,1.1-1.6,1.6c0,0,0,0,0,0.5
				c-0.5-0.5-1.6-1.1-2.1-1.1v-0.5c0-0.5,0-0.5,0.5-1.1c0-0.5,0-1.1,0-1.6c1.1,0,1.6,0,2.6-0.5C215.4,99.4,215.9,99.9,216.5,101
				C215.9,100.5,216.5,100.5,216.5,101"/>
		</g>
		<g>
			<defs>
				<polygon id="SVGID_39_" points="75,261.5 120.4,209.2 291.4,248.3 370.6,104.7 101.9,64.6 				"/>
			</defs>
			<clipPath id="SVGID_40_">
				<use xlink:href="#SVGID_39_"  style="overflow:visible;"/>
			</clipPath>
			<path class="st21" d="M220.7,94.7c-1.1,0-2.1,0-2.6,1.1l-2.1-1.1v-0.5c0-1.6-0.5-2.6-2.1-3.2c-1.6,0-2.6,0.5-3.2,2.1
				c0,0.5,0,1.6,0.5,2.1l0,0l-2.1,2.1c-0.5,0-0.5-0.5-1.1-0.5c-1.1,0-2.6,0.5-3.2,1.6l-1.6-0.5l0,0c0.5-1.6-1.1-3.7-2.6-3.7
				c-0.5,0-1.1,0-1.6,0l-1.1-1.6c0.5-0.5,1.1-0.5,1.1-1.1V91l0,0c0-0.5,0-1.6-0.5-2.1c-0.5-0.5-1.1-1.1-1.6-1.1
				c-0.5,0-1.6,0-2.1,0.5s-1.1,1.1-1.1,1.6c0,0.5,0,1.6,0.5,2.1s1.1,1.1,1.6,1.1c0.5,0,0.5,0,1.1,0l1.1,1.6
				c-0.5,0.5-1.1,1.1-1.1,2.1c0,1.1,0,2.1,1.1,2.6l-1.1,1.1l-0.5-0.5c-1.6-0.5-3.7,0-4.8,2.1c-0.5,1.6,0,3.7,2.1,4.8
				c1.6,0.5,3.7,0,4.8-2.1c0.5-1.1,0-2.6-0.5-3.7l1.1-1.1c0.5,0,0.5,0.5,1.1,0.5c1.6,0,2.6-0.5,3.7-1.6l1.6,0.5c0,0.5,0,1.1,0.5,1.6
				c0.5,0.5,1.1,1.1,1.6,1.1c0.5,0,0.5,0,1.1,0l1.6,2.6c-0.5,0.5-1.1,1.1-1.1,1.6c0,0.5,0,1.6,0.5,2.1s1.1,1.1,1.6,1.1
				c0.5,0,1.6,0,2.1-0.5s0.5-0.5,1.1-1.1v-0.5l0,0l3.2-0.5c0.5,0.5,1.1,1.1,2.1,1.1c0.5,0,1.6,0,2.1-0.5s0.5-0.5,1.1-1.1v-0.5
				c0-1.1-0.5-2.1-1.6-2.6l0.5-2.6c0.5,0,0.5,0,1.1-0.5c0.5-0.5,0.5-0.5,1.1-1.1v-0.5c0-0.5,0-1.6-0.5-2.1
				C222.3,95.2,221.2,95.2,220.7,94.7 M220.2,99.9L220.2,99.9l-0.5,2.6l0,0c-0.5,0-1.6,0-2.1,0.5c-0.5,0.5-1.1,1.1-1.1,1.6
				c0,0.5,0,0.5,0,1.1l-2.6,0.5c0-1.1-1.1-2.1-2.1-2.1c-0.5,0-1.1,0-1.6,0l-1.6-2.6c0.5-0.5,1.1-0.5,1.1-1.6v-0.5
				c0-0.5,0-1.6-0.5-2.1l2.1-2.1c0.5,0,0.5,0.5,1.1,0.5c0.5,0,1.6,0,2.1-0.5l0.5-0.5l2.6,1.1v0.5c0,0.5,0,1.6,0.5,2.1
				C218.6,99.4,219.1,99.9,220.2,99.9"/>
		</g>
		<g>
			<defs>
				<polygon id="SVGID_41_" points="75,261.5 120.4,209.2 291.4,248.3 370.6,104.7 101.9,64.6 				"/>
			</defs>
			<clipPath id="SVGID_42_">
				<use xlink:href="#SVGID_41_"  style="overflow:visible;"/>
			</clipPath>
			<path class="st22" d="M175.3,108.4C175.3,107.9,175.3,107.9,175.3,108.4c0-0.5,0-0.5,0-1.1c-0.5-0.5-1.1-1.1-1.6-1.1l0,0
				c0-0.5,0-1.1,0-1.1v-0.5c0-0.5-0.5-1.1-1.1-1.1s-1.1,0-1.6,0c-0.5,0-0.5,0.5-1.1,1.1c-0.5-0.5-1.6-1.1-2.6-0.5
				c-0.5,0-1.1,0.5-1.1,1.1s0,1.1,0,1.6c0,0,0,0.5,0.5,0.5c-0.5,0-0.5,0.5-1.1,0.5c0,0,0,0-0.5,0s-1.1,0-1.6,0l0,0
				c0-0.5-0.5-1.1-1.1-1.1s-1.1,0-1.6,0c-0.5,0-1.1,0.5-1.1,1.1s0,1.1,0,1.6c0,0.5,0.5,1.1,1.1,1.1s1.1,0,1.1,0v0.5
				c0,0,0,0.5,0.5,0.5l-0.5,0.5c-0.5,0.5-0.5,1.6-0.5,2.1c0.5,1.6,1.6,2.6,3.2,2.1c1.6-0.5,2.6-1.6,2.1-3.2c0-0.5-0.5-1.1-0.5-1.1
				c0.5,0,0.5-0.5,0.5-1.1l0,0c0.5,0,1.1,0,1.6,0l0,0v0.5c0,0.5,0.5,1.1,1.1,1.1c0.5,0,1.1,0,1.6,0c0.5,0,1.1-0.5,1.1-1.1
				s0-0.5,0-1.1l0,0c0.5,0,0.5,0,1.1,0s1.1-0.5,1.1-1.1C175.3,108.9,175.3,108.4,175.3,108.4 M170.5,108.4L170.5,108.4
				c-0.5,0-0.5,0-1.1,0.5l0,0v-0.5c0,0,0-0.5-0.5-0.5c0.5,0,0.5-0.5,1.1-0.5c0,0,0.5,0.5,1.1,0.5l0,0l0,0
				C170.5,107.9,170.5,107.9,170.5,108.4"/>
		</g>
		<g>
			<defs>
				<polygon id="SVGID_43_" points="75,261.5 120.4,209.2 291.4,248.3 370.6,104.7 101.9,64.6 				"/>
			</defs>
			<clipPath id="SVGID_44_">
				<use xlink:href="#SVGID_43_"  style="overflow:visible;"/>
			</clipPath>
			<path class="st23" d="M174.2,107.9L174.2,107.9c-0.5-0.5-0.5-1.1-1.1-1.1l-0.5-1.1c0,0,0-0.5,0.5-0.5v-0.5c0,0,0,0,0-0.5
				s-0.5-0.5-0.5-0.5c-0.5,0-0.5,0-1.1,0s-0.5,0.5-0.5,1.1H170l0,0c-1.6-0.5-2.1-0.5-2.6-0.5c-0.5,0.5-1.1,1.1-0.5,1.6
				c0,0.5,0.5,0.5,0.5,0.5l0,0v1.1h-0.5c-0.5,0-1.1,1.1-0.5,1.6h-0.5l0,0c-0.5-0.5-1.1-1.1-2.1-0.5l-0.5,0.5l-0.5-0.5v-0.5l0,0
				c0-0.5-0.5-0.5-0.5-0.5c-0.5,0-0.5,0-1.1,0c-0.5,0-0.5,0.5-0.5,0.5c0,0.5,0,0.5,0,1.1s0.5,0.5,0.5,0.5c0.5,0,0.5,0,1.1,0
				c0,0,0.5,0,0.5-0.5l0.5,0.5c0,0.5,0,0.5,0,1.1s0.5,0.5,1.1,1.1v0.5c0,0,0,0-0.5,0c-1.1,0-1.6,1.1-1.1,2.1c0,1.1,1.1,1.6,2.1,1.1
				c1.1,0,1.6-1.1,1.1-2.1c0-0.5-0.5-1.1-1.1-1.1v-0.5h0.5c0.5-0.5,1.1-1.1,1.1-1.6h0.5l0.5,0.5c0.5,0,0.5,0,1.1,0c0,0,0,0,0.5,0
				l1.1,0.5c0,0.5,0,0.5,0,1.1s0.5,0.5,0.5,0.5c0.5,0,0.5,0,1.1,0c0.5,0,0.5-0.5,0.5-0.5v-0.5c0,0,0,0,0-0.5l0,0l1.1-1.1
				c0.5,0,0.5,0,1.1,0s0.5-0.5,0.5-0.5C174.2,108.4,174.2,108.4,174.2,107.9 M171.1,110c-0.5-0.5-1.1-0.5-1.6-0.5c0,0-0.5,0-0.5,0.5
				l-1.1-0.5c0,0,0-0.5,0-1.1c0,0,0,0,0-0.5s-0.5-0.5-0.5-0.5v-1.1h0.5c0.5,0,0.5-0.5,0.5-0.5s0,0,0-0.5h1.1c0,0,0,0,0,0.5
				s0.5,0.5,0.5,0.5c0.5,0,0.5,0,1.1,0l0,0l0.5,1.1l0,0c-0.5,0-0.5,0.5-0.5,0.5c0,0.5,0,0.5,0,1.1c0,0,0,0,0,0.5V110z"/>
		</g>
		<g>
			<defs>
				<polygon id="SVGID_45_" points="75,261.5 120.4,209.2 291.4,248.3 370.6,104.7 101.9,64.6 				"/>
			</defs>
			<clipPath id="SVGID_46_">
				<use xlink:href="#SVGID_45_"  style="overflow:visible;"/>
			</clipPath>
			<path class="st24" d="M157.3,133.7c-0.5-0.5-1.1-1.6-1.6-2.1c1.1-1.6,1.6-3.2,1.1-5.3c-0.5-1.1-1.6-2.1-2.6-2.6s-2.6-0.5-3.7,0
				c-0.5,0-0.5,0.5-1.1,0.5c-0.5-0.5-1.1-1.1-1.6-1.6c0,0,0-0.5,0.5-0.5c0.5-1.1,0.5-2.1,0-3.2l0,0c1.1-0.5,2.1-1.6,2.6-2.6
				c0.5-1.1,0.5-2.6,0-3.7c-0.5-1.1-1.6-2.1-2.6-2.6s-2.6-0.5-3.7,0s-2.1,1.6-2.6,2.6c-0.5,1.1-0.5,1.6,0,2.6c-0.5,0-0.5,0-1.1,0.5
				c-0.5,0-0.5,0.5-1.1,0.5c-0.5-0.5-0.5-1.1-1.1-1.1c-1.1-0.5-2.1-0.5-3.7-0.5c-2.6,0.5-4.8,3.7-4.2,6.3s3.7,4.8,6.3,4.2
				c1.1,0,1.6-0.5,2.1-1.1c0.5,0.5,1.1,1.1,1.6,1.1l0,0c-0.5,1.1-0.5,2.1,0,3.2l0,0c-0.5,0-1.1,0-1.6,0.5c-1.1,0.5-2.1,1.6-2.6,2.6
				c-0.5,1.1-0.5,2.6,0,3.7c0.5,1.1,1.6,2.1,2.6,2.6c0.5,0,1.6,0.5,2.1,0l0,0c0,0.5,0,1.6,0.5,2.1c0.5,1.1,1.6,2.1,2.6,2.6
				c0.5,0,1.1,0.5,1.6,0.5h0.5c0.5,0,0.5,0,1.1-0.5c1.1-0.5,2.1-1.6,2.6-2.6c0,0,0,0,0.5,0c1.1,0.5,1.6,0.5,2.6,0
				c0.5,0,0.5,0,1.1-0.5c1.1-0.5,2.1-1.6,2.6-2.6l0,0C157.9,135.8,157.9,134.8,157.3,133.7 M149.9,132.2c-0.5,0.5-0.5,1.1-1.1,1.6
				c0,0,0,0,0,0.5l0,0c-0.5,0-1.1-0.5-1.6-0.5c0,0,0,0-0.5,0c0-0.5,0-1.6-0.5-2.1h0.5c0.5,0,0.5,0,1.1-0.5c0.5,0,0.5-0.5,1.1-0.5
				C148.9,131.6,149.4,132.2,149.9,132.2"/>
		</g>
		<g>
			<defs>
				<polygon id="SVGID_47_" points="75,261.5 120.4,209.2 291.4,248.3 370.6,104.7 101.9,64.6 				"/>
			</defs>
			<clipPath id="SVGID_48_">
				<use xlink:href="#SVGID_47_"  style="overflow:visible;"/>
			</clipPath>
			<path class="st25" d="M155.2,134.8c-0.5-0.5-1.1-1.1-2.1-1.6l-0.5-2.6c0,0,0,0,0.5,0c1.1-0.5,1.6-2.1,1.1-3.2s-2.1-1.6-3.2-1.1
				c-0.5,0.5-1.1,0.5-1.1,1.6l0,0l-2.6-0.5c0-0.5,0-0.5,0-1.1c-0.5-1.1-1.6-1.6-2.6-1.6l-0.5-1.1l0,0c1.6-0.5,2.1-2.6,1.6-3.7
				c0-0.5-0.5-1.1-1.1-1.1l0.5-1.6c0.5,0,1.1,0.5,1.6,0h0.5c0.5-0.5,1.1-0.5,1.1-1.6c0-0.5,0-1.1,0-1.6c-0.5-0.5-0.5-1.1-1.6-1.1
				c-0.5,0-1.1,0-1.6,0c-0.5,0.5-1.1,0.5-1.1,1.6c0,0.5,0,1.1,0,1.6c0,0.5,0.5,0.5,0.5,0.5l-0.5,1.6c-0.5,0-1.6,0-2.1,0
				c-1.1,0.5-1.6,1.1-1.6,2.1h-1.6V120c-0.5-1.6-2.1-2.6-3.7-2.6c-1.6,0.5-2.6,2.1-2.6,3.7c0.5,1.6,2.1,2.6,3.7,2.6
				c1.1,0,2.1-1.1,2.6-2.1h1.6c0,0.5,0,0.5,0,1.1c0.5,1.1,1.6,1.6,3.2,1.6l0.5,1.6c-0.5,0.5-1.1,0.5-1.1,1.1s0,1.1,0,1.6
				c0,0,0,0.5,0.5,0.5l-1.1,2.6c-0.5,0-1.1,0-1.6,0c-0.5,0.5-1.1,0.5-1.1,1.6c0,0.5,0,1.1,0,1.6c0.5,0.5,0.5,1.1,1.6,1.1
				c0.5,0,1.1,0,1.1,0h0.5l0,0l2.1,1.6c-0.5,0.5-0.5,1.6,0,2.1c0.5,0.5,0.5,1.1,1.6,1.1c0.5,0,1.1,0,1.1,0h0.5
				c1.1-0.5,1.6-1.6,1.6-2.6l2.1-1.1c0,0,0.5,0.5,1.1,0.5s1.1,0,1.1,0h0.5c0.5-0.5,1.1-0.5,1.1-1.6
				C155.8,135.8,155.8,135.3,155.2,134.8 M152.1,133.2c-0.5,0.5-1.1,0.5-1.1,1.6c0,0.5,0,1.1,0,1.6l0,0l-2.1,1.1l0,0
				c-0.5-0.5-0.5-1.1-1.6-1.1c-0.5,0-1.1,0-1.6,0c-0.5,0-0.5,0.5-0.5,0.5l-1.6-1.6c0.5-0.5,1.1-1.6,0.5-2.6c0-0.5-0.5-0.5-1.1-1.1
				l1.1-2.1c0.5,0.5,1.1,0.5,1.6,0.5h0.5c0.5,0,1.1-0.5,1.1-1.1l2.6,0.5c0,0.5,0,0.5,0,1.1c0.5,0.5,0.5,1.1,1.6,1.1h0.5l0.5,2.1
				C152.6,133.2,152.6,133.2,152.1,133.2"/>
		</g>
		<g>
			<defs>
				<polygon id="SVGID_49_" points="75,261.5 120.4,209.2 291.4,248.3 370.6,104.7 101.9,64.6 				"/>
			</defs>
			<clipPath id="SVGID_50_">
				<use xlink:href="#SVGID_49_"  style="overflow:visible;"/>
			</clipPath>
			<path class="st26" d="M167.4,163.8c1.1-0.5,2.1-2.1,2.1-3.2c0-1.1-0.5-1.6-1.1-2.6c-1.1-1.1-1.6-1.1-2.6-1.1c-0.5,0-0.5,0-1.1,0
				c0-0.5-0.5-1.1-0.5-1.6c0,0,0.5,0,0.5-0.5c0.5-0.5,1.1-1.6,1.1-2.6l0,0c1.1,0,1.6-0.5,2.6-1.1c0.5-0.5,1.1-1.6,1.1-2.6
				s-0.5-1.6-1.1-2.6c-0.5-0.5-1.6-1.1-2.6-1.1s-1.6,0.5-2.6,1.1c-0.5,0.5-0.5,1.1-1.1,1.6h-0.5c-0.5,0-0.5,0-1.1,0
				c0-0.5-0.5-1.1-0.5-1.1c-0.5-1.1-1.6-1.6-2.6-1.6c-2.1-0.5-4.2,1.1-4.8,3.2c-0.5,2.1,1.1,4.2,3.2,4.8c0.5,0,1.6,0,2.1,0
				c0,0.5,0.5,1.1,0.5,1.1l0,0c0,2.1-0.5,3.2-0.5,3.7l0,0c-0.5,0-0.5,0-1.1,0c-1.1,0-1.6,0.5-2.6,1.1c-0.5,0.5-1.1,1.6-1.1,2.6
				s0.5,1.6,1.1,2.6c0.5,0.5,1.1,0.5,1.6,0.5l0,0c0,0.5-0.5,1.1-0.5,1.6c0,1.1,0.5,1.6,1.1,2.6c0.5,0.5,0.5,0.5,1.1,0.5h0.5h0.5
				c1.1,0,2.1-0.5,2.6-1.6l0,0c0.5,0.5,1.1,0.5,1.6,1.1h0.5c1.1,0,1.6-0.5,2.6-1.1l0,0c0.5-0.5,1.1-1.6,1.1-2.6
				C167.9,164.9,167.9,164.4,167.4,163.8 M160.5,161.2C160.5,161.2,161,161.2,160.5,161.2c0.5,0,1.1,0,1.1,0c0.5,0,0.5,0,1.1,0
				c0,0.5,0.5,1.1,0.5,1.6c-0.5,0-1.1,0.5-1.1,1.1l0,0l0,0c-0.5-0.5-0.5-0.5-1.1-0.5c0,0,0,0-0.5,0
				C160.5,162.2,160.5,161.7,160.5,161.2"/>
		</g>
		<g>
			<defs>
				<polygon id="SVGID_51_" points="75,261.5 120.4,209.2 291.4,248.3 370.6,104.7 101.9,64.6 				"/>
			</defs>
			<clipPath id="SVGID_52_">
				<use xlink:href="#SVGID_51_"  style="overflow:visible;"/>
			</clipPath>
			<path class="st27" d="M165.3,163.8l0.5-1.6c0,0,0,0,0.5,0c1.1,0,1.6-1.1,1.6-2.1s-1.1-1.6-2.1-1.6c-0.5,0-1.1,0-1.1,0.5l0,0
				l-1.6-0.5c0-0.5,0-0.5,0-1.1c0-1.1-0.5-1.6-1.6-1.6v-1.1l0,0c1.1,0,2.1-1.1,2.1-2.1c0-0.5,0-0.5-0.5-1.1l0.5-1.1
				c0.5,0.5,0.5,0.5,1.1,0.5h0.5l0,0c0.5,0,1.1,0,1.1-0.5c0.5-0.5,0.5-1.1,0.5-1.1c0-0.5,0-1.1-0.5-1.1c-0.5-0.5-1.1-0.5-1.1-0.5
				c-0.5,0-1.1,0-1.1,0.5c-0.5,0.5-0.5,1.1-0.5,1.1v0.5l-0.5,1.1c-0.5-0.5-1.1-0.5-1.6-0.5s-1.6,0.5-1.6,1.1l-1.1-0.5v-0.5
				c0-1.1-0.5-2.6-2.1-2.6c-1.1,0-2.6,0.5-2.6,2.1c0,1.1,0.5,2.6,2.1,2.6c1.1,0,1.6,0,2.1-1.1l1.1,0.5c0,0,0,0.5,0,1.1
				c0,1.1,0.5,1.6,1.6,2.1v1.1c-0.5,0-0.5,0-1.1,0.5s-0.5,1.1-0.5,1.1v0.5l-1.6,1.6c-0.5,0-0.5-0.5-1.1-0.5s-1.1,0-1.1,0.5
				c-0.5,0.5-0.5,1.1-0.5,1.1c0,0.5,0,1.1,0.5,1.1c0,0,0.5,0.5,1.1,0.5h0.5l0,0l1.1,1.6c-0.5,0.5-0.5,1.1-0.5,1.6
				c0,0.5,0,1.1,0.5,1.1c0,0,0.5,0.5,1.1,0.5h0.5c0.5,0,1.6-0.5,1.6-1.1h1.6c0,0,0,0.5,0.5,0.5c0,0,0.5,0.5,1.1,0.5h0.5
				c0.5,0,1.1,0,1.1-0.5c0.5-0.5,0.5-1.1,0.5-1.1C166.3,164.9,165.8,164.4,165.3,163.8 M164.7,163.8c-0.5,0-1.1,0-1.1,0.5
				c-0.5,0.5-0.5,1.1-0.5,1.1l0,0h-1.6l0,0c0-0.5,0-1.1-0.5-1.1c-0.5-0.5-1.1-0.5-1.1-0.5h-0.5l-1.6-1.1c0.5-0.5,1.1-1.1,1.1-1.6
				s0-0.5-0.5-1.1l1.6-1.1c0.5,0.5,0.5,0.5,1.1,0.5h0.5c0.5,0,1.1,0,1.1-0.5l1.6,1.1c0,0,0,0.5,0,1.1c0,0.5,0,1.1,0.5,1.1
				c0,0,0.5,0,0.5,0.5L164.7,163.8L164.7,163.8"/>
		</g>
		<g>
			<defs>
				<polygon id="SVGID_53_" points="75,261.5 120.4,209.2 291.4,248.3 370.6,104.7 101.9,64.6 				"/>
			</defs>
			<clipPath id="SVGID_54_">
				<use xlink:href="#SVGID_53_"  style="overflow:visible;"/>
			</clipPath>
			<path class="st28" d="M149.4,153.8L149.4,153.8c-0.5-1.1-1.1-1.6-2.1-2.1c-0.5,0-1.6-0.5-2.1,0c0-1.6-1.1-3.2-2.6-3.7
				c-1.1-0.5-2.1-0.5-3.2,0c-1.1,0.5-1.6,1.1-2.1,2.1c0,0.5,0,0.5,0,1.1c-0.5,0-1.1,0-2.1,0v-0.5c-0.5-1.1-1.1-1.6-2.1-2.1l0,0
				c0.5-1.1,0.5-2.1,0-3.2c-0.5-1.1-1.1-1.6-2.1-2.1c-1.1-0.5-2.1-0.5-3.2,0c-1.1,0.5-1.6,1.1-2.1,2.1s-0.5,2.1,0,3.2
				c0.5,0.5,1.1,1.1,1.6,1.6c0,0,0,0.5-0.5,0.5c0,0.5,0,0.5,0,1.1c-0.5,0-1.1,0-1.6,0c-1.1,0-2.1,1.1-3.2,2.1
				c-1.6,2.1-1.1,4.8,1.1,6.3c2.1,1.6,4.8,1.1,6.3-1.1c0.5-0.5,0.5-1.6,0.5-2.1c0.5,0,1.1,0,1.6,0l0,0c0.5,1.1,1.1,1.6,2.1,2.1l0,0
				c0,0.5-0.5,0.5-0.5,1.1c-0.5,1.1-0.5,2.1,0,3.2c0.5,1.1,1.1,1.6,2.1,2.1c1.1,0.5,2.1,0.5,3.2,0c0.5,0,1.1-0.5,1.6-1.1l0,0
				c0.5,0.5,1.1,1.1,1.6,1.1c1.1,0.5,2.1,0.5,3.2,0c0.5,0,1.1-0.5,1.1-1.1l0.5-0.5c0,0,0.5-0.5,0.5-1.1c0.5-1.1,0.5-2.1,0-3.2l0,0
				c0.5-0.5,1.1-1.1,1.6-1.6c0,0,0.5-0.5,0.5-1.1C149.9,155.9,149.9,154.9,149.4,153.8 M139.4,157.5c0,0,0.5-0.5,0.5-1.1
				s0-0.5,0-1.1c0.5,0,1.1,0,1.6,0c0,0.5,0,1.1,0.5,1.6l0,0l0,0c-0.5,0-1.1,0.5-1.1,1.1l0,0C140.4,158.6,139.9,158,139.4,157.5
				L139.4,157.5"/>
		</g>
		<g>
			<defs>
				<polygon id="SVGID_55_" points="75,261.5 120.4,209.2 291.4,248.3 370.6,104.7 101.9,64.6 				"/>
			</defs>
			<clipPath id="SVGID_56_">
				<use xlink:href="#SVGID_55_"  style="overflow:visible;"/>
			</clipPath>
			<path class="st29" d="M147.8,154.9c0-0.5-0.5-1.1-1.1-1.1c-0.5,0-1.6,0-2.1,0.5l-1.6-1.1c0,0,0,0,0-0.5c0.5-1.1,0-2.1-1.1-2.6
				s-2.1,0-2.6,1.1c0,0.5,0,1.1,0,1.6l0,0l-1.6,1.1c0,0-0.5-0.5-1.1-0.5c-1.1-0.5-2.1,0-2.6,0.5l-1.1-0.5l0,0c0.5-1.1,0-2.6-1.6-3.2
				c-0.5,0-1.1,0-1.1,0l-0.5-1.1c0.5,0,0.5-0.5,1.1-1.1c0,0,0,0,0-0.5c0-0.5,0-1.1,0-1.6c0-0.5-0.5-1.1-1.1-1.1c-0.5,0-1.1,0-1.6,0
				c-0.5,0-1.1,0.5-1.1,1.1s0,1.1,0,1.6c0,0.5,0.5,1.1,1.1,1.1h0.5l0.5,1.1c-0.5,0.5-1.1,0.5-1.1,1.6c-0.5,0.5,0,1.6,0.5,2.1
				l-1.1,0.5c0,0-0.5,0-0.5-0.5c-1.1-1.1-2.6-0.5-3.7,0.5c-1.1,1.1-0.5,2.6,0.5,3.7s2.6,0.5,3.7-0.5c0.5-1.1,0.5-2.1,0-2.6l1.1-0.5
				l0.5,0.5c1.1,0.5,2.1,0,2.6-1.1l1.1,0.5c0,0.5,0,1.1,0,1.6s0.5,1.1,1.1,1.1h0.5l0.5,2.1c-0.5,0-0.5,0.5-1.1,1.1
				c0,0.5,0,1.1,0,1.6c0,0.5,0.5,1.1,1.1,1.1s1.1,0,1.6,0c0.5,0,0.5-0.5,1.1-0.5v-0.5l0,0h2.1c0,0.5,0.5,1.1,1.1,1.1
				c0.5,0,1.1,0,1.6,0s0.5-0.5,1.1-0.5v-0.5c0.5-1.1,0-1.6-0.5-2.1l0.5-2.1c0.5,0,0.5,0,1.1,0c0.5,0,0.5-0.5,1.1-0.5v-0.5
				C147.8,155.9,147.8,155.4,147.8,154.9 M144.7,159.1L144.7,159.1c-0.5,0-1.1,0-1.6,0c-0.5,0-1.1,0.5-1.1,1.1v0.5h-2.1
				c0-1.1-0.5-1.6-1.6-2.1c-0.5,0-0.5,0-1.1,0l-0.5-1.6c0.5,0,1.1-0.5,1.1-1.1v-0.5c0-0.5,0-1.1,0-1.6l1.6-1.1l0.5,0.5
				c0.5,0,1.1,0,1.6,0c0,0,0.5,0,0.5-0.5l1.6,1.1v0.5c0,0.5,0,1.1,0,1.6c0,0.5,0.5,1.1,1.1,1.1l0,0L144.7,159.1z"/>
		</g>
		<g>
			<defs>
				<polygon id="SVGID_57_" points="75,261.5 120.4,209.2 291.4,248.3 370.6,104.7 101.9,64.6 				"/>
			</defs>
			<clipPath id="SVGID_58_">
				<use xlink:href="#SVGID_57_"  style="overflow:visible;"/>
			</clipPath>
			<path class="st30" d="M336.8,135.8l-8.4-15.3c-0.5-1.1-1.6-1.6-2.6-2.1l0,0c-1.1-0.5-2.1,0-3.2,0.5l-43.3,28
				c-1.1,0.5-1.6,2.1-2.1,3.2c0,1.6,0.5,2.6,1.6,3.7l4.8,3.7l-4.2,1.1l-0.5-2.1c-0.5-1.6-2.1-3.2-3.7-3.2s-3.2,0.5-4.2,2.1
				l-6.3,12.7c-1.1,2.1-0.5,4.2,1.6,5.3l13.2,9c0.5,0.5,1.1,0.5,1.1,0.5c1.1,0.5,2.6,0,3.7-0.5c1.6-1.1,2.1-3.2,1.6-4.8l-1.1-3.7
				l25.9-7.4c1.6-0.5,2.6-1.6,3.2-3.2c0.5-1.6-0.5-3.2-1.6-4.2l-6.9-5.3l29.6-11.6c1.1-0.5,2.1-1.6,2.6-2.6
				C337.4,138,337.4,136.9,336.8,135.8"/>
		</g>
		<g>
			<defs>
				<polygon id="SVGID_59_" points="75,261.5 120.4,209.2 291.4,248.3 370.6,104.7 101.9,64.6 				"/>
			</defs>
			<clipPath id="SVGID_60_">
				<use xlink:href="#SVGID_59_"  style="overflow:visible;"/>
			</clipPath>
			<path class="st31" d="M334.2,137.4l-8.4-15.3c0-0.5-0.5-0.5-1.1-0.5l0,0c-0.5,0-0.5,0-1.1,0L280.9,149c-0.5,0-0.5,0.5-0.5,1.1
				s0,0.5,0.5,1.1l9,7.4l-12.7,3.7l-1.1-4.8c0-0.5-0.5-1.1-1.1-1.1c-0.5,0-1.1,0-1.1,0.5l-6.3,12.7c-0.5,0.5,0,1.1,0.5,1.6l13.2,9
				c0,0,0,0,0.5,0c0.5,0,0.5,0,1.1,0c0.5-0.5,0.5-1.1,0.5-1.6l-2.1-6.9l28.5-8.4c0.5,0,0.5-0.5,1.1-1.1c0-0.5,0-1.1-0.5-1.1
				l-11.1-8.4l34.3-13.7c0.5,0,0.5-0.5,0.5-0.5C334.2,138,334.2,137.4,334.2,137.4 M296.2,151.2c-0.5,0-0.5,0.5-0.5,1.1
				s0,1.1,0.5,1.1l10.6,8.4l-27.5,7.9c-0.5,0-0.5,0.5-0.5,0.5c0,0.5,0,0.5,0,1.1l1.6,4.2l-9.5-6.3l4.2-8.4l0.5,2.6
				c0,0.5,1.1,1.1,1.6,1.1l15.8-3.7c0.5,0,1.1-0.5,1.1-1.1s0-1.1-0.5-1.1l-9.5-7.9l40.1-25.9l6.9,12.7L296.2,151.2z"/>
		</g>
		<g>
			<defs>
				<polygon id="SVGID_61_" points="75,261.5 120.4,209.2 291.4,248.3 370.6,104.7 101.9,64.6 				"/>
			</defs>
			<clipPath id="SVGID_62_">
				<use xlink:href="#SVGID_61_"  style="overflow:visible;"/>
			</clipPath>
			<path class="st32" d="M299.4,109.5c0,0,6.3-10.6,10-15.3"/>
		</g>
		<g>
			<defs>
				<polygon id="SVGID_63_" points="75,261.5 120.4,209.2 291.4,248.3 370.6,104.7 101.9,64.6 				"/>
			</defs>
			<clipPath id="SVGID_64_">
				<use xlink:href="#SVGID_63_"  style="overflow:visible;"/>
			</clipPath>
			<path class="st33" d="M299.4,109.5c0,0,6.3-10.6,10-15.3"/>
		</g>
	</g>
</g>
</svg>
