<?xml version="1.0" encoding="utf-8"?>
<!-- Generator: Adobe Illustrator 16.0.0, SVG Export Plug-In . SVG Version: 6.00 Build 0)  -->
<!DOCTYPE svg PUBLIC "-//W3C//DTD SVG 1.1//EN" "http://www.w3.org/Graphics/SVG/1.1/DTD/svg11.dtd">
<svg version="1.1" id="Layer_1" xmlns="http://www.w3.org/2000/svg" xmlns:xlink="http://www.w3.org/1999/xlink" x="0px" y="0px"
	 width="85.04px" height="85.04px" viewBox="0 0 85.04 85.04" enable-background="new 0 0 85.04 85.04" xml:space="preserve">
<circle fill="#F57F20" cx="42.598" cy="42.442" r="42.598"/>
<g>
	<path fill="#222C63" d="M39.554,29.779l-4.157,3.548c-2.033,1.734-3.048,3.861-3.048,6.374c0,1.516,0.905,3.271,2.717,5.27
		c1.809,1.992,2.716,3.823,2.716,5.487c0,5.434-2.681,8.147-8.04,8.147c-5.729,0-8.593-3.27-8.593-9.812
		c0-9.795,4.896-17.776,14.691-23.95L39.554,29.779z M64.503,29.779l-4.157,3.548c-2.033,1.734-3.051,3.861-3.051,6.374
		c0,1.516,0.904,3.271,2.717,5.27c1.812,1.992,2.717,3.823,2.717,5.487c0,5.434-2.68,8.147-8.04,8.147
		c-5.727,0-8.591-3.27-8.591-9.812c0-9.795,4.896-17.776,14.689-23.95L64.503,29.779z"/>
</g>
</svg>
