<?xml version="1.0" encoding="utf-8"?>
<!-- Generator: Adobe Illustrator 16.0.0, SVG Export Plug-In . SVG Version: 6.00 Build 0)  -->
<!DOCTYPE svg PUBLIC "-//W3C//DTD SVG 1.1//EN" "http://www.w3.org/Graphics/SVG/1.1/DTD/svg11.dtd">
<svg version="1.1" id="Layer_1" xmlns="http://www.w3.org/2000/svg" xmlns:xlink="http://www.w3.org/1999/xlink" x="0px" y="0px"
	 width="124.72px" height="147.4px" viewBox="0 0 124.72 147.4" enable-background="new 0 0 124.72 147.4" xml:space="preserve">
<path fill="#FFFFFF" d="M120.682,51.243L96.037,6.31c-0.716-1.29-1.775-2.225-2.947-2.937c-1.176-0.684-2.518-1.161-3.984-1.167
	H40.045c-1.473,0.006-2.809,0.483-3.992,1.167C34.881,4.085,33.837,5.02,33.11,6.31L8.462,51.243
	c-0.695,1.272-0.938,2.649-0.942,4.009c0.005,1.372,0.247,2.736,0.942,4.016l24.648,44.925c0.727,1.305,1.771,2.232,2.942,2.936
	c1.184,0.691,2.52,1.17,3.992,1.18h49.061c1.467-0.01,2.809-0.488,3.984-1.18c1.172-0.703,2.231-1.631,2.947-2.936l24.645-44.925
	c0.694-1.279,0.941-2.644,0.949-4.016C121.623,53.893,121.376,52.516,120.682,51.243 M116.319,56.869l-24.644,44.94
	c-0.129,0.245-0.578,0.728-1.124,1.034c-0.536,0.335-1.158,0.487-1.446,0.477H40.045c-0.282,0.011-0.91-0.142-1.452-0.477
	c-0.545-0.307-0.994-0.789-1.124-1.034l-24.641-44.94c-0.161-0.263-0.339-0.931-0.332-1.617c-0.007-0.666,0.171-1.34,0.332-1.615
	L37.469,8.708c0.13-0.262,0.579-0.729,1.124-1.043c0.542-0.332,1.17-0.487,1.452-0.482h49.061c0.288-0.005,0.91,0.15,1.446,0.482
	c0.546,0.314,0.995,0.781,1.124,1.043l24.644,44.929c0.163,0.275,0.343,0.949,0.33,1.615
	C116.662,55.938,116.482,56.606,116.319,56.869"/>
<polygon fill="#FFFFFF" points="90.865,39.022 90.865,30.189 64.827,15.926 39.696,31.094 39.696,71.396 54.411,79.551 
	61.886,75.698 46.944,66.641 46.944,35.166 64.15,24.976 "/>
<polygon fill="#FFFFFF" points="68.453,86.338 76.316,90.618 100.378,76.373 100.378,47.392 64.406,27.357 48.976,36.073 
	48.976,45.134 64.827,35.622 93.358,51.475 93.248,72.116 "/>
<polygon fill="#FFFFFF" points="37.66,43.402 29.907,47.635 29.896,76.357 55.969,90.74 90.866,70.035 90.866,53.511 83.75,49.415 
	83.626,66.416 56.001,82.492 37.66,72.301 "/>
<polygon fill="#FFFFFF" points="4.936,121.17 11.737,137.904 18.616,121.17 22.678,121.17 11.648,147.139 0.888,121.17 "/>
<rect x="23.782" y="121.17" fill="#FFFFFF" width="3.696" height="24.156"/>
<polygon fill="#FFFFFF" points="30.576,145.326 35.745,119.36 44.178,138.133 52.917,119.36 57.559,145.326 53.756,145.326 
	51.387,130.751 44.115,146.44 37.049,130.73 34.405,145.326 "/>
<rect x="60.808" y="121.17" fill="#FFFFFF" width="3.702" height="24.156"/>
<polygon fill="#FFFFFF" points="80.732,124.597 72.173,124.597 72.173,130.401 80.425,130.401 80.425,133.826 72.173,133.826 
	72.173,145.325 68.462,145.325 68.462,121.17 80.732,121.17 "/>
<path fill="#FFFFFF" d="M81.878,133.136c0-3.388,1.269-6.321,3.803-8.759c2.524-2.436,5.557-3.66,9.104-3.66
	c3.499,0,6.502,1.229,9.003,3.691c2.513,2.461,3.776,5.424,3.776,8.873c0,3.472-1.272,6.418-3.784,8.844
	c-2.544,2.418-5.602,3.64-9.192,3.64c-3.162,0-6.012-1.074-8.535-3.237C83.273,140.145,81.878,137.013,81.878,133.136
	 M85.619,133.182c0,2.664,0.913,4.859,2.741,6.575c1.815,1.721,3.913,2.583,6.283,2.583c2.573,0,4.744-0.876,6.521-2.629
	c1.767-1.771,2.66-3.929,2.66-6.467c0-2.575-0.874-4.733-2.63-6.482c-1.732-1.75-3.898-2.615-6.457-2.615
	c-2.555,0-4.717,0.865-6.475,2.615C86.498,128.495,85.619,130.641,85.619,133.182"/>
<path fill="#FFFFFF" d="M124.153,124.75l-2.997,1.758c-0.564-0.959-1.1-1.584-1.611-1.874c-0.528-0.336-1.204-0.509-2.055-0.509
	c-1.025,0-1.881,0.29-2.563,0.87c-0.675,0.562-1.015,1.262-1.015,2.121c0,1.186,0.893,2.127,2.678,2.854l2.445,0.975
	c1.991,0.802,3.451,1.77,4.383,2.912c0.918,1.146,1.375,2.538,1.375,4.203c0,2.226-0.75,4.064-2.254,5.519
	c-1.527,1.462-3.401,2.185-5.649,2.185c-2.137,0-3.894-0.62-5.28-1.863c-1.367-1.251-2.224-2.996-2.564-5.254l3.753-0.81
	c0.163,1.415,0.466,2.393,0.894,2.935c0.764,1.044,1.878,1.569,3.344,1.569c1.158,0,2.113-0.38,2.879-1.141
	c0.768-0.768,1.145-1.726,1.145-2.892c0-0.471-0.064-0.9-0.193-1.295c-0.142-0.387-0.347-0.747-0.631-1.077
	c-0.281-0.324-0.638-0.636-1.086-0.915c-0.443-0.291-0.976-0.564-1.591-0.828l-2.367-0.967c-3.372-1.4-5.046-3.445-5.046-6.136
	c0-1.809,0.706-3.326,2.117-4.549c1.404-1.23,3.171-1.846,5.264-1.846C120.362,120.696,122.572,122.054,124.153,124.75"/>
<path fill="#FFFFFF" d="M103.957,102.98h0.855l1.258,3.718l1.262-3.718h0.842v4.397h-0.564v-2.593v-0.448
	c0.007-0.209,0.007-0.426,0.007-0.671l-1.25,3.712h-0.592l-1.271-3.712v0.137c0,0.108,0.009,0.275,0.009,0.497
	c0.01,0.225,0.014,0.379,0.014,0.485v2.593h-0.568V102.98z"/>
<path fill="#FFFFFF" d="M109.145,102.979h2.003c0.329,0,0.601,0.05,0.81,0.143c0.407,0.192,0.614,0.54,0.614,1.045
	c0,0.263-0.065,0.481-0.171,0.647c-0.104,0.167-0.258,0.301-0.451,0.402c0.171,0.068,0.299,0.158,0.39,0.28
	c0.075,0.112,0.136,0.3,0.136,0.551l0.026,0.589c0.005,0.171,0.023,0.29,0.041,0.371c0.034,0.145,0.102,0.227,0.188,0.267v0.104
	h-0.721c-0.026-0.04-0.039-0.087-0.053-0.146c-0.008-0.062-0.023-0.177-0.031-0.348l-0.031-0.73
	c-0.015-0.291-0.121-0.482-0.312-0.586c-0.11-0.051-0.291-0.07-0.518-0.07h-1.32v1.881h-0.601V102.979z M111.081,104.995
	c0.272,0,0.483-0.048,0.649-0.172c0.152-0.105,0.236-0.309,0.236-0.599c0-0.313-0.112-0.533-0.335-0.644
	c-0.115-0.057-0.278-0.085-0.477-0.085h-1.41v1.499H111.081z"/>
</svg>
