<?xml version="1.0" encoding="utf-8"?>
<!-- Generator: Adobe Illustrator 16.0.0, SVG Export Plug-In . SVG Version: 6.00 Build 0)  -->
<!DOCTYPE svg PUBLIC "-//W3C//DTD SVG 1.1//EN" "http://www.w3.org/Graphics/SVG/1.1/DTD/svg11.dtd">
<svg version="1.1" id="Layer_1" xmlns="http://www.w3.org/2000/svg" xmlns:xlink="http://www.w3.org/1999/xlink" x="0px" y="0px"
	 width="402.8px" height="143.15px" viewBox="0 0 402.8 143.15" enable-background="new 0 0 402.8 143.15" xml:space="preserve">
<path fill="#2A348B" d="M88.79,55.056L70.514,21.734c-0.529-0.956-1.316-1.649-2.186-2.177c-0.871-0.507-1.866-0.861-2.954-0.866
	H28.992c-1.092,0.005-2.082,0.359-2.961,0.866c-0.869,0.528-1.643,1.221-2.182,2.177L5.572,55.056
	c-0.517,0.943-0.696,1.964-0.699,2.973c0.003,1.018,0.183,2.029,0.699,2.977L23.85,94.322c0.539,0.967,1.312,1.654,2.182,2.177
	c0.879,0.512,1.869,0.866,2.961,0.874h36.382c1.088-0.008,2.083-0.362,2.954-0.874c0.869-0.522,1.656-1.21,2.186-2.177L88.79,61.006
	c0.515-0.948,0.698-1.959,0.704-2.977C89.488,57.02,89.305,55.999,88.79,55.056 M85.556,59.228L67.281,92.555
	c-0.097,0.182-0.43,0.539-0.834,0.766c-0.398,0.248-0.859,0.362-1.073,0.354H28.992c-0.209,0.009-0.674-0.105-1.077-0.354
	c-0.403-0.227-0.737-0.584-0.834-0.766L8.809,59.228c-0.119-0.194-0.251-0.69-0.246-1.199c-0.005-0.494,0.127-0.993,0.246-1.198
	l18.272-33.317c0.097-0.195,0.431-0.541,0.834-0.774c0.403-0.246,0.868-0.362,1.077-0.359h36.382
	c0.214-0.003,0.675,0.113,1.073,0.359c0.404,0.233,0.737,0.579,0.834,0.774l18.274,33.317c0.12,0.205,0.254,0.704,0.244,1.198
	C85.81,58.538,85.676,59.034,85.556,59.228"/>
<polygon fill="#C32026" points="66.68,45.993 66.68,39.443 47.37,28.865 28.734,40.113 28.734,70 39.646,76.047 45.188,73.191 
	34.109,66.474 34.109,43.133 46.868,35.576 "/>
<polygon fill="#C32026" points="50.059,81.08 55.891,84.255 73.733,73.691 73.733,52.2 47.059,37.343 35.615,43.806 35.615,50.525 
	47.371,43.472 68.529,55.227 68.447,70.534 "/>
<polygon fill="#C32026" points="27.224,49.241 21.474,52.379 21.467,73.68 40.801,84.346 66.68,68.991 66.68,56.737 61.402,53.701 
	61.311,66.308 40.826,78.229 27.224,70.671 "/>
<polygon fill="#2A348B" points="2.956,106.911 8,119.321 13.103,106.911 16.113,106.911 7.936,126.17 -0.046,106.911 "/>
<rect x="16.934" y="106.911" fill="#2A348B" width="2.739" height="17.914"/>
<polygon fill="#2A348B" points="21.971,124.824 25.804,105.568 32.058,119.49 38.538,105.568 41.979,124.824 39.16,124.824 
	37.404,114.018 32.011,125.65 26.771,114.001 24.81,124.824 "/>
<rect x="44.39" y="106.911" fill="#2A348B" width="2.745" height="17.914"/>
<polygon fill="#2A348B" points="59.164,109.452 52.817,109.452 52.817,113.758 58.937,113.758 58.937,116.297 52.817,116.297 
	52.817,124.825 50.065,124.825 50.065,106.912 59.164,106.912 "/>
<path fill="#2A348B" d="M60.016,115.785c0-2.513,0.938-4.688,2.818-6.494c1.873-1.808,4.121-2.715,6.752-2.715
	c2.596,0,4.822,0.91,6.678,2.736c1.861,1.825,2.799,4.021,2.799,6.58c0,2.574-0.943,4.76-2.806,6.559
	c-1.888,1.793-4.154,2.698-6.816,2.698c-2.345,0-4.459-0.796-6.33-2.399C61.049,120.982,60.016,118.66,60.016,115.785
	 M62.789,115.818c0,1.977,0.677,3.604,2.032,4.877c1.346,1.275,2.901,1.916,4.659,1.916c1.908,0,3.519-0.65,4.837-1.951
	c1.31-1.312,1.973-2.912,1.973-4.795c0-1.91-0.647-3.51-1.95-4.807c-1.285-1.298-2.892-1.939-4.789-1.939
	c-1.895,0-3.496,0.642-4.801,1.939C63.44,112.344,62.789,113.935,62.789,115.818"/>
<path fill="#2A348B" d="M91.364,109.566l-2.222,1.304c-0.419-0.712-0.815-1.175-1.195-1.39c-0.392-0.25-0.894-0.377-1.523-0.377
	c-0.761,0-1.396,0.214-1.901,0.645c-0.501,0.416-0.753,0.936-0.753,1.573c0,0.879,0.662,1.577,1.986,2.116l1.813,0.724
	c1.478,0.593,2.56,1.312,3.25,2.159c0.681,0.849,1.021,1.882,1.021,3.117c0,1.65-0.558,3.014-1.672,4.092
	c-1.133,1.084-2.523,1.619-4.19,1.619c-1.584,0-2.886-0.459-3.915-1.381c-1.014-0.928-1.649-2.223-1.902-3.896l2.783-0.601
	c0.121,1.049,0.346,1.773,0.663,2.177c0.565,0.772,1.393,1.163,2.481,1.163c0.857,0,1.565-0.282,2.133-0.846
	c0.569-0.569,0.849-1.28,0.849-2.145c0-0.35-0.048-0.668-0.144-0.96c-0.104-0.287-0.256-0.554-0.467-0.799
	c-0.21-0.24-0.474-0.472-0.806-0.679c-0.329-0.217-0.724-0.42-1.18-0.614l-1.755-0.718c-2.5-1.039-3.743-2.555-3.743-4.549
	c0-1.342,0.524-2.468,1.571-3.373c1.041-0.912,2.351-1.369,3.902-1.369C88.554,106.561,90.192,107.567,91.364,109.566"/>
<path fill="#2A348B" d="M76.388,93.422h0.634l0.933,2.758l0.937-2.758h0.625v3.262h-0.42v-1.923v-0.332
	c0.005-0.155,0.005-0.315,0.005-0.498l-0.927,2.753h-0.439l-0.941-2.753v0.103c0,0.08,0.006,0.203,0.006,0.368
	c0.007,0.166,0.011,0.281,0.011,0.359v1.923h-0.422V93.422z"/>
<path fill="#2A348B" d="M80.234,93.422h1.485c0.243,0,0.445,0.037,0.601,0.105c0.302,0.143,0.455,0.4,0.455,0.775
	c0,0.194-0.047,0.356-0.127,0.479c-0.076,0.124-0.19,0.224-0.334,0.299c0.127,0.05,0.222,0.117,0.289,0.208
	c0.056,0.083,0.1,0.223,0.1,0.408l0.021,0.438c0.004,0.127,0.016,0.215,0.029,0.274c0.025,0.106,0.075,0.168,0.141,0.198v0.076
	h-0.537c-0.018-0.03-0.027-0.064-0.037-0.108c-0.006-0.046-0.018-0.132-0.022-0.258l-0.024-0.541
	c-0.011-0.216-0.09-0.358-0.23-0.435c-0.082-0.039-0.216-0.053-0.385-0.053H80.68v1.395h-0.445V93.422z M81.671,94.916
	c0.201,0,0.358-0.035,0.481-0.126c0.113-0.079,0.175-0.229,0.175-0.444c0-0.233-0.083-0.396-0.248-0.478
	c-0.086-0.042-0.207-0.063-0.353-0.063H80.68v1.111H81.671z"/>
<rect x="128.429" y="0.129" fill="#272D6A" width="1.3" height="143.404"/>
<path fill="#2A348B" d="M262.421,64.926c0,8.29-2.841,10.525-10.805,10.525c-2.095,0-4.191-0.14-6.054-0.373v11.924h-7.08V54.867
	c3.867-0.373,6.428-0.419,12.203-0.419C259.58,54.448,262.421,56.729,262.421,64.926 M250.545,70.002
	c3.633-0.047,4.751-1.071,4.751-5.077c0-4.005-1.118-5.029-4.751-5.029h-4.982v10.106H250.545z"/>
<path fill="#2A348B" d="M286.824,81.553l0.652,4.284c-2.701,1.304-6.752,1.724-10.014,1.724c-8.709,0-11.969-3.539-11.969-12.016
	c0-9.082,3.354-12.155,11.689-12.155c7.824,0,10.852,2.747,10.898,8.01c0,4.192-2.003,6.426-6.986,6.426h-8.289
	c0.465,3.494,1.955,4.238,5.448,4.238C280.352,82.064,283.704,81.879,286.824,81.553 M272.666,73.682h6.521
	c1.862,0,2.142-1.071,2.142-2.375c0-2.143-0.932-2.888-3.912-2.888C273.971,68.373,272.854,69.351,272.666,73.682"/>
<path fill="#2A348B" d="M301.494,79.503c0,1.724,0.651,2.329,2.516,2.329h2.934l0.745,4.797c-1.724,0.605-4.843,0.932-6.474,0.932
	c-4.146,0-6.567-2.422-6.567-6.613V68.652h-4.052v-4.378l4.052-0.233v-6.427h6.847v6.427h6.38v4.611h-6.38V79.503z"/>
<path fill="#C32026" d="M330.787,64.833l-0.745,4.285c-2.515-0.047-4.843-0.093-6.566-0.093c-4.145,0-5.542,1.397-5.542,6.473
	s1.397,6.474,5.542,6.474c1.443,0,4.378-0.047,7.032-0.419l0.605,4.471c-2.468,1.071-5.774,1.537-8.895,1.537
	c-8.431,0-11.504-3.214-11.504-12.062c0-8.896,3.12-12.108,11.597-12.108C324.687,63.39,328.272,63.716,330.787,64.833"/>
<path fill="#C32026" d="M356.262,71.819v15.183h-5.449l-0.698-3.493c-1.63,1.909-4.425,4.052-8.477,4.052
	c-4.285,0-7.498-2.328-7.498-6.613v-2.328c0-3.68,2.653-5.822,7.032-5.822h8.197v-1.025c-0.047-2.328-0.839-2.98-3.772-2.98
	c-2.189,0-6.008,0.14-9.687,0.372l-0.653-4.657c3.354-0.605,8.756-1.117,11.97-1.117C353.142,63.39,356.262,65.346,356.262,71.819
	 M340.939,80.016c0,1.631,0.838,2.375,2.701,2.375c1.583,0,3.773-0.744,5.729-2.234v-3.215h-6.194
	c-1.677,0.047-2.235,0.885-2.235,2.189V80.016z"/>
<path fill="#C32026" d="M377.497,69.77h-1.862c-2.003,0-3.912,0.512-7.033,1.583v15.649h-6.893V64.041h5.356l0.605,3.4
	c3.073-2.608,6.334-4.051,9.314-4.051h1.211L377.497,69.77z"/>
<path fill="#C32026" d="M401.528,81.553l0.653,4.284c-2.702,1.304-6.754,1.724-10.015,1.724c-8.709,0-11.969-3.539-11.969-12.016
	c0-9.082,3.353-12.155,11.69-12.155c7.823,0,10.851,2.747,10.897,8.01c0,4.192-2.003,6.426-6.985,6.426h-8.291
	c0.466,3.494,1.957,4.238,5.449,4.238C395.055,82.064,398.408,81.879,401.528,81.553 M387.37,73.682h6.521
	c1.861,0,2.141-1.071,2.141-2.375c0-2.143-0.931-2.888-3.912-2.888C388.674,68.373,387.557,69.351,387.37,73.682"/>
<path fill="#C32026" d="M189.097,64.794c0,0.616,0.499,1.115,1.115,1.115c0.615,0,1.114-0.499,1.114-1.115
	c0-0.616-0.499-1.115-1.114-1.115C189.596,63.68,189.097,64.179,189.097,64.794"/>
<path fill="#C32026" d="M206.87,44.54c-5.979,0-11.239,3.188-14.288,8.009c-2.928-3.378-7.175-5.504-11.902-5.504
	c-7.684,0-14.1,5.615-15.638,13.099h-0.04c-1.671,7.643,0.95,14.374,5.258,20.083c0.1,0.135,0.202,0.269,0.309,0.404
	c1.083,1.397,2.263,2.733,3.504,4.006c-0.023-0.035-0.047-0.072-0.071-0.107c0.494,0.5,0.97,0.943,1.429,1.34
	c14.422,13.947,9.785-6.271,13.054-10.018c-3.995,3.91-0.81,19.275-11.322,9.769c-9.972-9.019-0.478-21.534,1.135-23.512
	c7.949-7.305,15.602-3.987,17.591-4.091c2.086-0.109,6.388-4.796,8.414-7.763c2.024-2.966,4.349,1.261,4.349,1.261l2.686,2.734
	c2.686,2.734,4.409,10.736-9.33,23.488c-8.982,8.336-8.463,17.344-7.027,22.583c1.53-15.009,28.965-18.378,28.965-38.096
	C223.942,52.789,216.299,44.54,206.87,44.54"/>
</svg>
