<?xml version="1.0" encoding="utf-8"?>
<!-- Generator: Adobe Illustrator 23.1.1, SVG Export Plug-In . SVG Version: 6.00 Build 0)  -->
<svg version="1.1" id="Layer_1" xmlns="http://www.w3.org/2000/svg" xmlns:xlink="http://www.w3.org/1999/xlink" x="0px" y="0px"
	 viewBox="0 0 77 77" style="enable-background:new 0 0 77 77;" xml:space="preserve">
<style type="text/css">
	.st0{fill:#00369C;}
</style>
<g>
	<path class="st0" d="M24.8,25.2c4.1-0.3,7.5,0.3,10.5,2.5c2.7,2,3.8,5,3.1,7.9c-0.6,2.2-1.9,3.9-3.8,5.3c-3,2.2-6.4,3-10.1,2.8
		c-2.1-0.1-4.2-0.6-6.1-1.7c-2.1-1.2-3.8-2.7-4.5-5.1c-0.7-2.3-0.2-4.5,1.2-6.4c1.7-2.5,4.2-3.9,7-4.7
		C23.1,25.5,24.2,25.4,24.8,25.2 M25.3,26.4c-0.4,0.1-0.9,0.1-1.4,0.2c-2.7,0.5-5.1,1.6-7,3.6c-1.2,1.3-2,2.8-2,4.6
		c0,2.9,1.7,4.8,4.1,6.1c2.4,1.3,5,1.7,7.7,1.5c2.6-0.2,5.1-1,7.2-2.5c1.8-1.3,3.2-2.9,3.5-5.2c0.3-2.6-0.9-4.6-2.9-6.1
		C31.7,26.7,28.6,26.2,25.3,26.4"/>
	<path class="st0" d="M41.2,43c2.5-0.2,5.3,0.9,7.9,2.8c2.5,1.9,4.4,4.2,5.2,7.3c0.8,3,0.4,5.8-2.1,7.8c-2.1,1.7-4.5,2-7.1,1.4
		c-0.8-0.2-1.6-0.3-2.4-0.7c-4.1-1.8-7.2-4.6-8.5-8.9c-0.8-2.7-0.6-5.2,1.4-7.4C36.7,44,38.4,43.2,41.2,43 M40,44.3
		c-0.5,0.2-1.4,0.4-2.2,0.8c-2.3,1.2-3.4,3.9-2.6,6.7c1,3.8,3.5,6.4,6.8,8.2c1.6,0.9,3.4,1.4,5.4,1.4c4.1-0.1,6.8-3.3,5.9-7.3
		c-0.7-3.3-2.7-5.7-5.4-7.6C45.7,44.9,43.2,44.1,40,44.3"/>
	<path class="st0" d="M56.8,18.1c0.1,2.1-0.7,4.1-2.2,5.8c-2.8,3.1-6.2,4.8-10.4,4.2c-4.4-0.6-6.4-4.7-4.5-8.6
		c1.9-4.1,5.3-6.2,9.8-6.7c1.6-0.2,3.1,0.1,4.6,0.9C55.6,14.7,56.6,16.1,56.8,18.1 M46.2,27c3.7-0.3,7.1-2.7,8.7-5.8
		c1.7-3.5-0.1-6.7-3.9-7.2c-1.7-0.2-3.3,0.1-4.8,0.8c-2.6,1.2-4.6,2.9-5.6,5.6c-1,2.6,0,5,2.5,6.1C44.1,27,45.3,27,46.2,27"/>
	<path class="st0" d="M45.7,40.7c-2.4,0.2-4.5-1.5-4.7-3.9c-0.2-2.4,1.6-4.5,3.9-4.7c2.6-0.2,4.4,1.5,4.6,3.7
		C49.9,38.4,48.1,40.4,45.7,40.7 M45.5,39.4c2-0.2,2.9-1.6,2.9-3.4c0-1.6-1.7-2.9-3.4-2.8c-1.7,0.1-3,1.7-2.8,3.4
		C42.3,38.3,43.8,39.6,45.5,39.4"/>
	<path class="st0" d="M25.8,58.2c-0.2-2.4,1.5-4.4,3.9-4.7c2.3-0.2,4.4,1.5,4.6,3.8c0.2,2.5-1.7,4.4-3.6,4.6
		C28.1,62.3,26,60.6,25.8,58.2 M27,58.1c0.1,1.6,1.7,3,3.1,2.8c1.9-0.2,3.1-1.6,2.9-3.4c-0.1-1.7-1.6-2.9-3.3-2.8
		C28.1,54.9,26.8,56.4,27,58.1"/>
	<path class="st0" d="M29.3,23.4c-1.7,0.1-3.3-1.2-3.3-2.8c-0.1-1.8,0.8-3.2,3.2-3.4c1.4-0.1,2.9,1.3,3,2.9
		C32.3,21.7,30.9,23.2,29.3,23.4 M29,18.4c-1.1,0.1-1.9,0.9-1.8,2c0.1,1,0.9,1.8,2,1.8c1,0,1.8-0.9,1.8-2
		C30.9,19.2,29.9,18.2,29,18.4"/>
	<path class="st0" d="M20.3,52.9c-1.5,0.1-2.8-1-2.9-2.5c-0.1-1.5,1-2.8,2.4-2.9c1.5-0.1,2.8,1,2.9,2.4
		C22.9,51.5,21.8,52.8,20.3,52.9 M20.2,51.7c0.8-0.1,1.4-0.7,1.4-1.6c-0.1-0.8-0.8-1.4-1.6-1.3c-0.8,0.1-1.4,0.8-1.4,1.6
		C18.7,51.1,19.3,51.7,20.2,51.7"/>
	<path class="st0" d="M56.5,44.6c-1.5,0.1-2.8-1-2.9-2.5c-0.1-1.5,1-2.8,2.4-2.9c1.5-0.1,2.8,1,2.9,2.5C59.1,43.2,58,44.5,56.5,44.6
		 M56.2,40.5c-0.9,0.1-1.4,0.7-1.4,1.6c0.1,0.8,0.8,1.4,1.6,1.4c0.8-0.1,1.4-0.8,1.3-1.6C57.7,41,57,40.4,56.2,40.5"/>
	<path class="st0" d="M26.2,33c-1.7,0.1-3.3,0.1-4.8-0.5c-0.5-0.2-0.9-0.5-1.2-0.9c-0.2-0.2-0.4-0.6-0.4-0.9c0-0.2,0.2-0.6,0.5-0.6
		c0.2-0.1,0.6,0.2,0.6,0.4c0.2,0.5,0.6,0.8,1,1c2.7,0.9,5.3,0.6,7.8-0.8c0.4-0.2,0.7-0.6,0.8-1.1c0-0.2,0.4-0.5,0.6-0.5
		c0.2,0.1,0.5,0.4,0.6,0.6c0.1,0.7-0.4,1.3-0.9,1.7c-1,0.8-2.2,1.2-3.4,1.4C26.9,32.9,26.5,33,26.2,33"/>
	<path class="st0" d="M49.8,53.8c-0.7-0.1-1.2-0.1-1.7-0.3c-2.4-0.8-4.3-2.3-5.7-4.5c-0.3-0.5-0.4-1.1-0.5-1.7c0-0.3,0.1-0.8,0.3-1
		c0.1-0.2,0.6-0.3,0.7-0.2c0.2,0.1,0.4,0.5,0.3,0.7c-0.3,0.6-0.1,1.1,0.2,1.6c1.2,1.9,2.8,3.2,4.9,3.9c0.6,0.2,1.2,0.3,1.8-0.1
		c0.1-0.1,0.6,0,0.7,0.1c0.1,0.2,0.2,0.6,0,0.7C50.6,53.4,50.2,53.6,49.8,53.8"/>
	<path class="st0" d="M44.3,20.8c-0.6,0-1.3,0-1.8-0.5c-0.3-0.3-0.5-0.6-0.2-1c0.3-0.4,0.6-0.3,1,0c0.3,0.2,0.7,0.3,1,0.2
		c1.8-0.3,3.3-1.2,4.4-2.6c0.3-0.3,0.5-0.7,0.4-1.2c0-0.2,0.2-0.6,0.4-0.6c0.2-0.1,0.7,0.1,0.7,0.3c0.1,0.5,0.2,1,0,1.4
		c-0.4,1.1-1.3,1.9-2.3,2.5C46.9,20.1,45.7,20.6,44.3,20.8"/>
	<path class="st0" d="M70.6,28.3C65,10.6,46,0.8,28.3,6.4S0.8,31,6.4,48.7C12,66.4,31,76.2,48.7,70.6C66.4,65,76.2,46,70.6,28.3
		 M38.5,70.1C21.1,70.1,7,55.9,7,38.5c0-1,0.1-2,0.1-2.9c0,0,0,0,0,0c0.3-3.6,1.3-7,2.7-10.1c0,0,0-0.1,0.1-0.1
		c0.2-0.4,0.4-0.7,0.5-1.1c0.1-0.1,0.1-0.2,0.2-0.3c0.2-0.3,0.3-0.6,0.5-0.9c0.1-0.2,0.2-0.4,0.3-0.6c0.1-0.2,0.2-0.4,0.4-0.6
		c0.2-0.3,0.3-0.5,0.5-0.8c0.1-0.1,0.1-0.2,0.2-0.3c0.2-0.3,0.5-0.7,0.7-1c0,0,0,0,0-0.1c0.5-0.7,1.1-1.4,1.7-2.1
		c0.1-0.1,0.2-0.2,0.3-0.3c0.5-0.6,1.1-1.2,1.7-1.7c0.1-0.1,0.2-0.2,0.3-0.2c0.6-0.6,1.2-1.1,1.9-1.6c0.1-0.1,0.1-0.1,0.2-0.2
		c0.7-0.5,1.4-1,2.2-1.5c0,0,0,0,0.1,0c2.3-1.4,4.7-2.6,7.4-3.5c1.1-0.3,2.1-0.6,3.2-0.8c0,0,0.1,0,0.1,0c0.4-0.1,0.9-0.2,1.3-0.2
		c0.2,0,0.3,0,0.5-0.1c0.2,0,0.4-0.1,0.7-0.1v0c0.8-0.1,1.5-0.2,2.3-0.2v0c0.2,0,0.3,0,0.5,0c0.4,0,0.7,0,1.1,0c0.1,0,0.1,0,0.2,0
		c0.3,0,0.6,0,0.9,0c0.2,0,0.5,0,0.7,0c0.2,0,0.4,0,0.6,0c0,0,0,0,0,0c0.8,0.1,1.6,0.2,2.3,0.3c0,0,0,0,0,0c0.6,0.1,1.3,0.2,1.9,0.3
		C45.5,7.8,46,7.9,46.4,8c0.2,0.1,0.4,0.1,0.7,0.2c0.5,0.1,0.9,0.3,1.4,0.4c0.2,0.1,0.3,0.1,0.5,0.2c0.5,0.2,0.9,0.3,1.4,0.5
		c0.1,0.1,0.3,0.1,0.4,0.2c0.5,0.2,0.9,0.4,1.3,0.6c0.1,0.1,0.3,0.1,0.4,0.2c0.4,0.2,0.9,0.4,1.3,0.7c0.2,0.1,0.3,0.2,0.5,0.3
		c0.4,0.2,0.8,0.4,1.1,0.7c0.5,0.3,1.1,0.7,1.6,1.1c0,0,0.1,0.1,0.1,0.1c0.5,0.4,1,0.8,1.5,1.2c0.1,0.1,0.3,0.2,0.4,0.4
		c0.3,0.3,0.6,0.6,0.9,0.8c0.2,0.2,0.4,0.4,0.6,0.6c0.3,0.3,0.5,0.5,0.7,0.8c0.4,0.4,0.7,0.8,1,1.1c0.2,0.2,0.4,0.4,0.5,0.6
		c0.2,0.3,0.4,0.5,0.6,0.8c0.2,0.3,0.4,0.5,0.6,0.8c0.2,0.3,0.5,0.7,0.7,1c0.3,0.4,0.5,0.8,0.7,1.2c0.1,0.2,0.2,0.4,0.3,0.6
		c0.3,0.5,0.6,1,0.8,1.6c0,0,0,0.1,0.1,0.1c0.3,0.7,0.6,1.4,0.9,2c0,0,0,0,0,0c0.3,0.7,0.5,1.4,0.7,2c0,0,0,0.1,0,0.1
		c0,0,0,0.1,0,0.1c0.1,0.4,0.3,0.9,0.4,1.3c0,0,0,0.1,0,0.1c0.1,0.5,0.2,1,0.4,1.5c0,0,0,0,0,0c0.4,2.1,0.7,4.2,0.7,6.5
		C70,55.9,55.9,70.1,38.5,70.1"/>
</g>
</svg>
