<?xml version="1.0" encoding="utf-8"?>
<!-- Generator: Adobe Illustrator 23.1.1, SVG Export Plug-In . SVG Version: 6.00 Build 0)  -->
<svg version="1.1" id="Layer_1" xmlns="http://www.w3.org/2000/svg" xmlns:xlink="http://www.w3.org/1999/xlink" x="0px" y="0px"
	 viewBox="0 0 77 77" style="enable-background:new 0 0 77 77;" xml:space="preserve">
<style type="text/css">
	.st0{fill:#00369C;}
</style>
<g>
	<path class="st0" d="M54.1,46.2c-1.7,0-3,1.3-3,3c0,1.7,1.3,3,3,3c1.7,0,3-1.3,3-3C57.1,47.5,55.7,46.2,54.1,46.2 M52.6,48.2
		c0-0.3,0.2-0.5,0.5-0.5c0.3,0,0.5,0.2,0.5,0.5c0,0.3-0.2,0.5-0.5,0.5C52.8,48.7,52.6,48.5,52.6,48.2 M53.6,51.2
		c-0.3,0-0.5-0.2-0.5-0.5c0-0.3,0.2-0.5,0.5-0.5c0.3,0,0.5,0.2,0.5,0.5C54.1,51,53.8,51.2,53.6,51.2 M56.6,49.7c0,0.6-0.4,1-1,1
		c-0.6,0-1-0.4-1-1c0-0.6,0.4-1,1-1C56.1,48.7,56.6,49.1,56.6,49.7"/>
	<path class="st0" d="M38.8,62.4L38.8,62.4L38.8,62.4c-20.4-9-19.4-13.6-19.4-13.6l0.1-27.6c10.8-5.8,18.4-6.1,19.3-6.1
		c0.8,0,8.5,0.3,19.3,6.1v19c0.5,0.2,1,0.5,1.4,0.8V20.4L59,20.2c-11.3-6.1-19.4-6.5-20.4-6.5c-0.9,0-9,0.3-20.3,6.5L18,20.4v28
		c-0.3,1.1-0.2,6.2,20,15.2l0.7,0.3l0.7-0.3c4.1-1.8,7.4-3.5,10-5c-0.5-0.2-1-0.5-1.4-0.8C45.6,59.2,42.6,60.7,38.8,62.4"/>
	<path class="st0" d="M47.1,57.1c-2.1-1.9-3.5-4.6-3.5-7.6c0-5.6,4.5-10.1,10.1-10.1c1.2,0,2.3,0.2,3.3,0.6V22.4
		c-10.7-5.8-18.3-5.8-18.3-5.8v3.6c-2.5,0.3-4.5,2.4-4.5,5v5h-5c-2.8,0-5,2.3-5,5c0,2.8,2.3,5,5,5h5v5c0,2.6,2,4.7,4.5,5v10.8
		C42.1,59.6,44.8,58.3,47.1,57.1 M35.6,45.3v-6.4h-6.4c-2,0-3.6-1.6-3.6-3.6c0-2,1.6-3.6,3.6-3.6h6.4v-6.4c0-2,1.6-3.6,3.6-3.6
		c2,0,3.6,1.6,3.6,3.6v6.4h6.4c2,0,3.6,1.6,3.6,3.6c0,2-1.6,3.6-3.6,3.6h-6.4v6.4c0,2-1.6,3.6-3.6,3.6
		C37.3,48.9,35.6,47.3,35.6,45.3"/>
	<path class="st0" d="M53.7,41.9c-4.1,0-7.5,3.4-7.5,7.5c0,4.1,3.4,7.5,7.5,7.5c4.1,0,7.5-3.4,7.5-7.5
		C61.2,45.3,57.9,41.9,53.7,41.9 M57.8,47.7c0,0,0.1,0,0.1,0.1c0.4,0.1,0.6,0.4,0.7,0.8c0.1,0.4-0.1,0.7-0.4,1c0,0-0.1,0.1-0.1,0.1
		c0,0.1-0.1,0.3-0.1,0.4c0,0,0,0.1,0.1,0.1c0,0,0.1,0,0.1,0.1c0.2,0.1,0.3,0.1,0.5,0c0.5-0.3,1.1,0,1.3,0.5c0.2,0.5-0.1,1.1-0.6,1.3
		c-0.5,0.2-1.1-0.1-1.3-0.7c0-0.1-0.1-0.2-0.2-0.2c-0.1,0-0.2-0.1-0.4-0.1c-0.3,0.5-0.7,0.9-1.1,1.2c0.2,0.3,0.3,0.5,0.5,0.8
		c0,0,0.1,0.1,0.1,0.1c0.5,0,0.9,0.4,1,0.9c0,0.5-0.4,1-0.9,1c-0.5,0.1-1-0.3-1.1-0.8c0-0.2,0-0.3,0-0.5c0,0,0-0.1,0-0.1
		c-0.2-0.3-0.4-0.5-0.5-0.8c-0.4,0.1-0.8,0.2-1.2,0.3c0.1,0.3,0.2,0.6,0,0.9c-0.1,0.2-0.2,0.4-0.4,0.5c-0.4,0.2-0.9,0.2-1.2-0.2
		c-0.4-0.4-0.4-0.8,0-1.4c-0.4-0.2-0.8-0.4-1.2-0.6c-0.2,0.2-0.4,0.3-0.5,0.5c0,0,0,0.1,0,0.2c0.1,0.6-0.3,1-0.8,1.1
		c-0.5,0.1-1-0.3-1.1-0.8c-0.1-0.7,0.4-1.3,1.1-1.2c0.1,0,0.1,0,0.2,0c0.2-0.2,0.3-0.3,0.5-0.5c-0.2-0.3-0.3-0.5-0.5-0.8
		c-0.2,0.3-0.5,0.4-0.9,0.4c-0.2,0-0.4-0.1-0.6-0.3c-0.3-0.3-0.4-0.8-0.2-1.2c0.3-0.5,0.7-0.6,1.4-0.4c0-0.8,0.2-1.5,0.6-2.2
		c-0.2-0.2-0.4-0.3-0.6-0.5c0,0-0.1,0-0.2,0c-0.6,0.1-1.1-0.2-1.2-0.7c-0.1-0.6,0.2-1.1,0.8-1.2c0.6-0.1,1.2,0.3,1.2,1
		c0,0.1,0,0.2,0.1,0.3c0.2,0.1,0.3,0.3,0.5,0.4c0.7-0.6,1.4-1,2.3-1.1c0-0.1,0-0.2-0.1-0.2c-0.5-0.4-0.5-1-0.1-1.5
		c0.4-0.4,1.1-0.4,1.5,0c0.4,0.4,0.3,1.1-0.1,1.5c-0.1,0.1-0.1,0.1-0.1,0.2c0.8,0.1,1.6,0.5,2.2,1.1c0.1-0.1,0.2-0.2,0.2-0.3
		c0,0,0-0.1,0-0.1c-0.1-0.6,0.3-1,0.8-1.1c0.5-0.1,1,0.3,1.1,0.8c0.1,0.7-0.4,1.3-1.1,1.2c-0.1,0-0.2,0-0.2,0.1
		c-0.1,0.1-0.2,0.2-0.3,0.3C57.6,47.3,57.7,47.5,57.8,47.7"/>
	<path class="st0" d="M69.7,25.8C62.7,8.6,43.1,0.3,25.8,7.3C8.6,14.3,0.3,33.9,7.3,51.2c7,17.2,26.6,25.5,43.9,18.5
		C68.4,62.7,76.7,43.1,69.7,25.8 M50.4,67.7c-16.1,6.5-34.5-1.2-41-17.3C2.8,34.2,10.5,15.9,26.6,9.3c16.1-6.5,34.5,1.2,41.1,17.3
		C74.2,42.8,66.5,61.1,50.4,67.7"/>
</g>
</svg>
