<?xml version="1.0" encoding="utf-8"?>
<!-- Generator: Adobe Illustrator 23.1.1, SVG Export Plug-In . SVG Version: 6.00 Build 0)  -->
<svg version="1.1" id="Layer_1" xmlns="http://www.w3.org/2000/svg" xmlns:xlink="http://www.w3.org/1999/xlink" x="0px" y="0px"
	 viewBox="0 0 77 77" style="enable-background:new 0 0 77 77;" xml:space="preserve">
<style type="text/css">
	.st0{fill:#00369C;}
</style>
<g>
	<path class="st0" d="M52.1,57.1c-0.2,0.3-0.3,0.4-0.7,0.3c-0.6-0.1-1.2-0.2-1.8-0.3c-0.1,0-0.2-0.1-0.2-0.2c0-0.7-0.3-1.2-0.8-1.7
		c-0.7-0.7-1.5-0.9-2.5-0.6c-0.9,0.3-1.5,0.9-1.7,1.9c-0.3,1.2,0.3,2.3,1.4,2.9c0.2,0.1,0.2,0.1,0.2,0.3c-0.1,0.8-0.3,1.5-0.4,2.3
		c0,0.2-0.1,0.2-0.3,0.2c-0.7,0-1.2,0.3-1.8,0.7c-1.1,0.9-1.4,2.7-0.4,4.1c0.6,0.8,1.5,1.2,2.6,1.1c1.1-0.1,2-0.7,2.4-1.8
		c0.6-1.6,0-3.2-1.5-3.9c-0.1,0-0.3-0.1-0.2-0.3c0.2-0.8,0.3-1.6,0.4-2.4c0-0.1,0.1-0.2,0.2-0.2c1-0.1,1.7-0.6,2.1-1.5
		c0.1-0.1,0.1-0.2,0.3-0.2c0.7,0.1,1.4,0.3,2,0.4c0.1,0,0.2,0.1,0.2,0.2c0.1,0.5,0.3,0.9,0.7,1.2c0.8,0.7,2.1,0.6,2.8-0.2
		c0.7-0.8,0.6-2.1-0.3-2.8C54.1,56.1,52.8,56.2,52.1,57.1"/>
	<path class="st0" d="M53,55.2c1-0.6,1-2,0.5-2.7c-0.6-0.8-1.9-1.1-2.7-0.5c-1,0.7-1.1,1.9-0.5,2.8C50.8,55.5,52,56,53,55.2"/>
	<path class="st0" d="M43.7,59.3c-0.7-1-1.9-1.1-2.8-0.5c-0.9,0.6-1.1,1.9-0.5,2.7c0.7,0.9,1.8,1.2,2.7,0.5
		C44.1,61.4,44.4,60.2,43.7,59.3"/>
	<path class="st0" d="M55.9,14.8c-0.4-0.9-1.2-1.4-2.2-1.5c-1.5-0.1-2.7,1-2.8,2.4c0,0.1,0,0.2-0.2,0.3c-0.7,0.1-1.4,0.2-2.1,0.3
		c-0.1,0-0.2,0-0.2-0.1c-0.4-0.8-1-1.2-1.8-1.3c-0.1,0-0.2-0.1-0.2-0.2c-0.1-0.6-0.2-1.2-0.3-1.8c0-0.1,0-0.2,0.1-0.3
		c0.4-0.2,0.6-0.5,0.8-0.9c0.3-0.9-0.1-1.9-1-2.3c-0.9-0.3-1.9,0.1-2.2,1.1c-0.3,0.9,0.2,1.9,1.1,2.2c0.3,0.1,0.4,0.2,0.4,0.5
		c0.1,0.5,0.2,1.1,0.3,1.6c0,0.1,0,0.2-0.1,0.2c-0.5,0.2-0.9,0.6-1.2,1.2c-0.4,0.8-0.3,1.5,0.2,2.2c0.5,0.7,1.2,1,2.1,0.9
		c1.1-0.1,1.9-0.9,2-2c0-0.2,0.1-0.2,0.2-0.2c0.7-0.1,1.4-0.2,2-0.3c0.1,0,0.2,0,0.3,0.1c0.2,0.5,0.6,0.9,1.1,1.3
		c1.1,0.7,2.7,0.4,3.5-0.9C56.2,16.6,56.3,15.7,55.9,14.8"/>
	<path class="st0" d="M43,12.6c-0.8-0.7-2-0.2-2.4,0.4c-0.5,0.7-0.4,1.9,0.4,2.4c0.9,0.6,1.9,0.4,2.5-0.4C44,14.3,44,13.2,43,12.6"
		/>
	<path class="st0" d="M49.2,19.1c-0.6,0.9-0.3,1.9,0.4,2.4c0.8,0.6,1.9,0.4,2.4-0.4c0.6-0.8,0.4-1.9-0.4-2.4
		C50.8,18.1,49.7,18.3,49.2,19.1"/>
	<path class="st0" d="M58.5,26.1c0.1-0.1,0.2-0.2,0.3,0c0.5,0.5,1.1,1,1.6,1.4c0.1,0.1,0.1,0.1,0.1,0.3c-0.4,0.8-0.3,1.5,0.1,2.3
		c0.1,0.1,0.1,0.2,0,0.3c-0.4,0.5-0.8,0.9-1.2,1.4c-0.1,0.1-0.2,0.1-0.3,0.1c-0.4-0.2-0.8-0.2-1.2,0C57,32,56.5,33,56.8,34
		c0.3,0.9,1.3,1.4,2.2,1.1c0.9-0.3,1.4-1.4,1-2.3c-0.1-0.3-0.1-0.4,0.1-0.7c0.4-0.4,0.7-0.8,1.1-1.2c0.1-0.1,0.1-0.1,0.2-0.1
		c0.5,0.3,1.1,0.3,1.6,0.1c0.8-0.2,1.4-0.8,1.6-1.6c0.2-0.8,0-1.6-0.6-2.2c-0.8-0.8-1.9-0.9-2.8-0.2c-0.1,0.1-0.2,0.1-0.3,0
		c-0.5-0.5-1-0.9-1.5-1.4c-0.1-0.1-0.1-0.2-0.1-0.3c0.3-0.5,0.3-1.1,0.3-1.7c-0.2-1.3-1.4-2.3-2.9-2.2c-0.8,0.1-1.6,0.6-2,1.5
		c-0.4,0.9-0.4,1.8,0.2,2.6C55.8,26.7,57.4,26.9,58.5,26.1"/>
	<path class="st0" d="M64.6,34c-0.1-1.1-0.9-1.7-1.9-1.6c-0.9,0-1.7,0.8-1.6,1.9c0,1,1.1,1.7,1.8,1.6C63.9,35.8,64.7,35,64.6,34"/>
	<path class="st0" d="M62.3,25.4c1.1-0.1,1.7-1,1.6-1.9c-0.1-0.9-0.9-1.7-1.9-1.6c-1,0.1-1.7,0.9-1.6,1.9
		C60.5,24.7,61.3,25.4,62.3,25.4"/>
	<path class="st0" d="M58.7,50c0.5-0.2,1-0.3,1.5-0.6c0.1,0,0.2,0,0.2,0.1c0.3,0.5,0.8,0.8,1.3,0.9c0.8,0.2,1.6,0,2.2-0.6
		c0.6-0.6,0.8-1.4,0.5-2.2c-0.3-1.1-1.2-1.7-2.3-1.6c-0.2,0-0.2,0-0.3-0.2c-0.2-0.6-0.4-1.3-0.7-1.9c0-0.1,0-0.2,0.1-0.3
		c0.5-0.3,0.8-0.8,1.1-1.3c0.5-1.2-0.1-2.7-1.5-3.3c-0.8-0.3-1.7-0.3-2.5,0.3c-0.8,0.6-1.2,1.4-1.1,2.4c0.2,1.5,1.4,2.5,2.9,2.3
		c0.1,0,0.2-0.1,0.3,0.1c0.2,0.7,0.5,1.4,0.7,2c0,0.1,0,0.2-0.1,0.2c-0.7,0.5-1,1.2-1,2c0,0.1,0,0.2-0.2,0.3
		c-0.6,0.2-1.2,0.4-1.7,0.6c-0.1,0-0.2,0-0.3-0.1c-0.3-0.3-0.6-0.6-1-0.6c-1-0.2-1.9,0.5-2,1.4c-0.2,1,0.5,1.9,1.4,2
		c1,0.2,1.9-0.5,2-1.5C58.4,50.2,58.4,50.1,58.7,50"/>
	<path class="st0" d="M61.6,53.8c0.5-1,0-1.9-0.8-2.4c-0.8-0.4-1.9-0.2-2.3,0.9c-0.5,0.9,0.1,2,0.8,2.3C60.1,55,61.2,54.7,61.6,53.8
		"/>
	<path class="st0" d="M63,42.8c-0.4,0.9-0.1,1.9,0.8,2.3c1,0.5,1.9,0,2.3-0.8c0.4-0.9,0-1.9-0.8-2.3C64.4,41.6,63.4,41.9,63,42.8"/>
	<path class="st0" d="M54.4,68.2c0.6-0.3,1.2-0.7,1.8-1.1c0.4-0.2,0.7-0.4,1.1-0.7c0.2-0.2,0.5-0.4,0.7-0.5c3.1-2.2,5.8-4.9,8-8
		c0.2-0.2,0.3-0.4,0.5-0.6c0.1-0.2,0.3-0.5,0.4-0.7c2-3.1,3.5-6.6,4.4-10.4c0.1-0.3,0.2-0.6,0.2-0.8c0.1-0.4,0.1-0.8,0.2-1.3
		c0.1-0.7,0.2-1.4,0.3-2.1c0-0.3,0-0.5,0-0.8c0.1-0.9,0.1-1.7,0.1-2.6c0,0,0-0.1,0-0.1c0-0.2,0-0.5,0-0.7c0-0.8,0-1.7-0.1-2.5
		c0-0.4-0.1-0.9-0.2-1.3c-0.1-0.6-0.2-1.3-0.3-1.9c-0.1-0.6-0.3-1.3-0.5-1.9c-0.1-0.4-0.2-0.9-0.3-1.3c-0.2-0.8-0.5-1.6-0.8-2.4
		c-0.1-0.2-0.1-0.4-0.2-0.7c0,0,0-0.1-0.1-0.1c-0.3-0.8-0.7-1.6-1.1-2.4c-0.1-0.2-0.2-0.5-0.3-0.7c-0.3-0.6-0.7-1.2-1.1-1.8
		c-0.2-0.4-0.4-0.7-0.7-1.1c-0.2-0.2-0.4-0.5-0.5-0.7c-2.2-3.1-4.9-5.8-8-8c-0.2-0.2-0.4-0.3-0.7-0.5c-0.2-0.1-0.4-0.3-0.7-0.4
		c-3.2-2-6.7-3.5-10.4-4.4c-0.3-0.1-0.6-0.2-0.8-0.2c-0.4-0.1-0.8-0.1-1.3-0.2C43.4,5.2,42.7,5.1,42,5c-0.3,0-0.5,0-0.8,0
		c-0.9-0.1-1.7-0.1-2.6-0.1c0,0-0.1,0-0.1,0c-0.2,0-0.5,0-0.7,0c-0.8,0-1.7,0-2.5,0.1c-0.4,0-0.9,0.1-1.3,0.2
		c-0.6,0.1-1.3,0.2-1.9,0.3c-0.6,0.1-1.3,0.3-1.9,0.5c-0.4,0.1-0.9,0.2-1.3,0.3c-0.8,0.2-1.6,0.5-2.4,0.8c-0.2,0.1-0.4,0.1-0.7,0.2
		c0,0-0.1,0-0.1,0.1c-0.8,0.3-1.6,0.7-2.4,1.1c-0.2,0.1-0.5,0.2-0.7,0.3c-0.6,0.3-1.2,0.7-1.8,1.1c-0.4,0.2-0.8,0.4-1.1,0.7
		c-0.2,0.2-0.5,0.3-0.7,0.5c-3.2,2.2-5.8,5-8,8c-0.1,0.2-0.3,0.4-0.5,0.6c-0.2,0.2-0.3,0.5-0.4,0.7c-2,3.1-3.5,6.6-4.4,10.3
		c-0.1,0.3-0.2,0.6-0.2,0.9c-0.1,0.4-0.1,0.8-0.2,1.3C5.2,33.6,5.1,34.3,5,35c0,0.3,0,0.5,0,0.8c-0.1,0.9-0.1,1.7-0.1,2.6
		c0,0,0,0.1,0,0.1c0,0.2,0,0.5,0,0.7c0,0.8,0,1.7,0.1,2.5c0,0.4,0.1,0.9,0.2,1.3c0.1,0.6,0.2,1.3,0.3,1.9c0.1,0.6,0.3,1.3,0.5,1.9
		c0.1,0.4,0.2,0.9,0.3,1.3c0.2,0.8,0.5,1.6,0.8,2.4c0.1,0.2,0.1,0.4,0.2,0.7c0,0,0,0.1,0.1,0.1c0.3,0.8,0.7,1.6,1.1,2.4
		c0.1,0.2,0.2,0.5,0.3,0.7c0.3,0.6,0.7,1.2,1.1,1.8c0.2,0.4,0.4,0.7,0.7,1.1c0.2,0.2,0.4,0.5,0.5,0.7c2.2,3.1,4.9,5.8,8,7.9
		c0.2,0.2,0.4,0.3,0.7,0.5c0.2,0.1,0.5,0.3,0.7,0.4c3.1,2,6.6,3.5,10.4,4.4c0.3,0.1,0.6,0.2,0.8,0.2c0.4,0.1,0.8,0.1,1.3,0.2
		c0.7,0.1,1.4,0.2,2.1,0.3c0.3,0,0.5,0,0.8,0c0.9,0.1,1.7,0.1,2.6,0.1c0,0,0.1,0,0.1,0c0.2,0,0.5,0,0.7,0c0.8,0,1.7,0,2.5-0.1
		c0.4,0,0.9-0.1,1.3-0.2c0.6-0.1,1.3-0.2,1.9-0.3c0.6-0.1,1.3-0.3,1.9-0.5c0.4-0.1,0.9-0.2,1.3-0.3c0.8-0.2,1.6-0.5,2.4-0.8
		c0.2-0.1,0.4-0.1,0.7-0.2c0,0,0.1,0,0.1-0.1c0.8-0.3,1.6-0.7,2.4-1.1C53.9,68.4,54.2,68.3,54.4,68.2 M56.1,64.7
		c-0.3,0.2-0.7,0.4-1,0.6c-0.6,0.3-1.1,0.7-1.7,1c-0.2,0.1-0.4,0.2-0.6,0.3c-0.7,0.4-1.5,0.7-2.2,1c-0.2,0.1-0.5,0.2-0.7,0.3
		c-0.7,0.3-1.5,0.6-2.2,0.8c-0.4,0.1-0.8,0.2-1.2,0.3c-0.6,0.2-1.2,0.3-1.8,0.4c-0.6,0.1-1.2,0.2-1.8,0.3c-0.4,0.1-0.8,0.1-1.2,0.2
		c-0.8,0.1-1.6,0.1-2.3,0.1c-0.3,0-0.5,0-0.8,0c-0.8,0-1.6-0.1-2.5-0.1c-0.2,0-0.5,0-0.7,0c-0.4,0-0.7-0.1-1-0.2
		c0.9-2.1,1.8-4.2,2.7-6.2c2.6-6.1,7-10.1,13.2-12.2c4-1.3,6.2-5.3,5.4-9.3c0-0.2-0.1-0.3-0.1-0.5c-1.7,0.9-3.7,1.3-5.8,1.1
		c-3.4-0.4-6,0.5-8.3,3.2c-3.3,3.9-8.7,4.6-13,2.1c0.4,3.8-0.3,7.5-2,11.3c-1.1,2.3-2.1,4.7-3.1,7c-0.6-0.3-1.1-0.7-1.7-1
		c-0.2-0.1-0.4-0.3-0.7-0.4c-0.2-0.1-0.4-0.3-0.6-0.4c-2.9-2-5.4-4.6-7.5-7.4c-0.2-0.2-0.3-0.4-0.5-0.7c-0.2-0.3-0.4-0.7-0.6-1
		c-0.3-0.6-0.7-1.1-1-1.7c-0.1-0.2-0.2-0.4-0.3-0.7c-0.4-0.7-0.7-1.5-1-2.2c-0.1-0.2-0.2-0.5-0.3-0.7c-0.3-0.7-0.6-1.5-0.8-2.2
		c-0.1-0.4-0.2-0.8-0.3-1.2c-0.2-0.6-0.3-1.2-0.4-1.8c-0.1-0.6-0.2-1.2-0.3-1.8c-0.1-0.4-0.1-0.8-0.2-1.2C7.1,40.7,7,39.9,7,39.2
		c0-0.3,0-0.5,0-0.8c0-0.8,0.1-1.6,0.1-2.5c0-0.2,0-0.5,0-0.7c0.1-0.7,0.2-1.3,0.3-1.9c0.1-0.4,0.1-0.8,0.2-1.2
		c0.1-0.3,0.1-0.5,0.2-0.8c0.8-3.4,2.2-6.7,4.1-9.7c0.1-0.2,0.3-0.4,0.4-0.6c0.1-0.2,0.3-0.4,0.4-0.6c2-2.9,4.6-5.4,7.4-7.5
		c0.2-0.2,0.4-0.3,0.7-0.5c0.3-0.2,0.7-0.4,1-0.6c0.6-0.3,1.1-0.7,1.7-1c0.2-0.1,0.4-0.2,0.7-0.3c0.2-0.1,0.4-0.2,0.5-0.3
		c0.7,1.9,1.5,3.8,2.2,5.6c2.4,6.1,2.2,12.1-0.7,18c-1.9,3.8-0.7,8.2,2.8,10.4c3.5,2.3,8.1,1.7,10.8-1.5c1.8-2.2,3.9-2.9,6.7-2.6
		c4.1,0.5,7.8-2.2,8.8-6.2c1-3.9-1.1-8.1-4.9-9.5c-6.3-2.4-10.5-6.7-12.9-13C37,10,36.5,8.5,35.9,7.1C36.6,7.1,37.2,7,37.8,7
		c0.3,0,0.5,0,0.8,0c0.8,0,1.6,0.1,2.5,0.1c0.2,0,0.5,0,0.7,0c0.7,0.1,1.3,0.2,2,0.3c0.4,0.1,0.8,0.1,1.2,0.2
		c0.3,0.1,0.5,0.1,0.8,0.2c3.4,0.8,6.7,2.2,9.7,4.1c0.2,0.1,0.5,0.3,0.7,0.4c0.2,0.1,0.4,0.3,0.6,0.4c2.9,2.1,5.4,4.6,7.5,7.5
		c0.2,0.2,0.3,0.4,0.5,0.7c0.2,0.3,0.4,0.7,0.6,1c0.3,0.6,0.7,1.1,1,1.7c0.1,0.2,0.2,0.4,0.3,0.7c0.4,0.7,0.7,1.5,1,2.2
		c0.1,0.2,0.2,0.5,0.3,0.7c0.3,0.7,0.6,1.5,0.8,2.2c0.1,0.4,0.2,0.8,0.3,1.2c0.2,0.6,0.3,1.2,0.4,1.8c0.1,0.6,0.2,1.2,0.3,1.8
		c0.1,0.4,0.1,0.8,0.2,1.2c0.1,0.8,0.1,1.6,0.1,2.4c0,0.3,0,0.5,0,0.8c0,0.8-0.1,1.6-0.1,2.5c0,0.2,0,0.5,0,0.7
		c-0.1,0.7-0.2,1.3-0.3,1.9c-0.1,0.4-0.1,0.8-0.2,1.2c-0.1,0.3-0.1,0.5-0.2,0.8c-0.8,3.5-2.2,6.8-4.1,9.8c-0.1,0.2-0.2,0.4-0.4,0.6
		c-0.1,0.2-0.3,0.4-0.5,0.6c-2,2.9-4.5,5.4-7.4,7.4C56.5,64.3,56.3,64.5,56.1,64.7"/>
	<path class="st0" d="M16.2,25.9c0.8,0.2,1.6-0.2,1.8-1c0.1-0.2,0.1-0.3,0.4-0.4c0.4-0.1,0.9-0.2,1.3-0.3c0.1,0,0.1,0,0.2,0.1
		c0.2,0.4,0.5,0.7,1,0.9c0.7,0.3,1.3,0.2,1.8-0.3c0.6-0.4,0.8-1,0.7-1.7c-0.1-0.9-0.8-1.5-1.7-1.5c-0.1,0-0.2,0-0.2-0.2
		c-0.1-0.5-0.2-1.1-0.3-1.6c0-0.1,0-0.2,0.1-0.2c0.4-0.2,0.7-0.5,1-0.9c0.5-0.9,0.2-2.2-0.8-2.8c-0.6-0.4-1.3-0.4-2,0
		c-0.7,0.4-1.1,1-1.1,1.8c0,1.2,0.9,2.2,2.1,2.2c0.1,0,0.2,0,0.2,0.1c0.1,0.6,0.2,1.1,0.4,1.7c0,0.1,0,0.1-0.1,0.2
		c-0.6,0.3-1,0.8-1,1.5c0,0.1,0,0.2-0.2,0.2c-0.5,0.1-1,0.2-1.5,0.3c-0.1,0-0.2,0-0.2-0.1c-0.2-0.3-0.4-0.5-0.8-0.6
		c-0.8-0.2-1.6,0.2-1.8,0.9C15,24.8,15.4,25.6,16.2,25.9"/>
	<path class="st0" d="M17.9,26.4c-0.5,0.7-0.1,1.6,0.4,1.9c0.6,0.4,1.5,0.2,2-0.4c0.5-0.7,0.2-1.6-0.4-2
		C19.3,25.5,18.3,25.6,17.9,26.4"/>
	<path class="st0" d="M23,21.1c0.8,0.5,1.6,0.2,2-0.4c0.4-0.6,0.2-1.5-0.4-2c-0.7-0.4-1.6-0.3-2,0.4C22.1,19.9,22.3,20.7,23,21.1"/>
	<path class="st0" d="M23.4,57.2c-0.8-0.5-1.9-0.3-2.4,0.5c0,0.1-0.1,0.1-0.2,0.1c-0.4-0.2-0.9-0.3-1.3-0.5c-0.1,0-0.1-0.1-0.1-0.1
		c0-0.6-0.2-1-0.6-1.4c-0.1-0.1-0.1-0.1-0.1-0.2c0.1-0.4,0.3-0.8,0.4-1.1c0-0.1,0.1-0.1,0.2-0.1c0.3,0,0.5-0.1,0.7-0.3
		c0.5-0.4,0.5-1.2,0.1-1.6C19.7,52,19,52,18.5,52.4c-0.5,0.4-0.5,1.2,0,1.7c0.1,0.1,0.2,0.2,0.1,0.4c-0.1,0.3-0.2,0.7-0.3,1
		c0,0.1,0,0.1-0.1,0.1c-0.4,0-0.7,0.1-1,0.3c-0.5,0.3-0.6,0.8-0.6,1.4c0.1,0.6,0.4,1,0.9,1.2c0.7,0.3,1.4,0,1.8-0.5
		c0.1-0.1,0.1-0.1,0.2-0.1c0.4,0.2,0.9,0.3,1.3,0.4c0.1,0,0.1,0.1,0.1,0.2c0,0.4,0.1,0.7,0.2,1.1c0.4,0.7,1.4,1,2.3,0.6
		c0.5-0.3,0.8-0.7,0.9-1.4C24.2,58,24,57.5,23.4,57.2"/>
	<path class="st0" d="M17.4,53.4c-0.2-0.6-1.1-0.7-1.5-0.5c-0.5,0.3-0.8,1-0.5,1.5c0.3,0.6,1,0.8,1.5,0.5
		C17.4,54.7,17.8,54,17.4,53.4"/>
	<path class="st0" d="M19,59.1c-0.6,0.3-0.8,1-0.5,1.5c0.3,0.6,1,0.8,1.5,0.5c0.6-0.3,0.8-1,0.5-1.5C20.2,59,19.5,58.8,19,59.1"/>
	<path class="st0" d="M19.4,43.2c-0.1,0.1-0.3,0.2-0.5,0c-0.7-0.8-1.4-1.6-2.1-2.5c-0.1-0.1-0.1-0.2,0-0.4c0.7-1.1,0.8-2.3,0.2-3.4
		c-0.1-0.2-0.1-0.3,0.1-0.5c0.7-0.6,1.4-1.2,2.1-1.8c0.2-0.1,0.3-0.2,0.4-0.1c0.6,0.3,1.2,0.4,1.8,0.3c1.4-0.3,2.4-1.7,2.1-3.1
		c-0.3-1.4-1.7-2.4-3.2-2c-1.4,0.3-2.4,1.8-2,3.3c0.1,0.4,0.1,0.6-0.3,1c-0.6,0.5-1.3,1.1-1.9,1.7c-0.1,0.1-0.2,0.1-0.4,0
		c-0.7-0.5-1.5-0.7-2.4-0.5c-1.3,0.2-2.2,0.9-2.7,2.1c-0.5,1.2-0.3,2.4,0.5,3.4c1,1.3,2.7,1.7,4.2,0.9c0.2-0.1,0.3-0.1,0.5,0.1
		c0.7,0.8,1.4,1.6,2.1,2.3c0.1,0.2,0.2,0.3,0,0.5c-0.5,0.7-0.7,1.5-0.7,2.4c0,1.9,1.7,3.7,4,3.8c1.3,0,2.5-0.6,3.3-1.8
		c0.8-1.3,0.9-2.7,0.2-4C23.6,42.8,21.2,42.1,19.4,43.2"/>
	<path class="st0" d="M14.2,32.9C15.5,33,17,32,17,30.4c0.2-1.5-1.3-2.7-2.4-2.8c-1.3-0.1-2.7,1-2.8,2.5
		C11.7,31.7,12.8,32.8,14.2,32.9"/>
	<path class="st0" d="M13.6,43.5c-1.7-0.1-2.7,1.1-2.8,2.5c-0.1,1.4,1,2.7,2.5,2.8c1.5,0.1,2.8-1,2.8-2.5
		C16.1,44.9,15.1,43.6,13.6,43.5"/>
</g>
</svg>
