<?xml version="1.0" encoding="utf-8"?>
<!-- Generator: Adobe Illustrator 23.1.1, SVG Export Plug-In . SVG Version: 6.00 Build 0)  -->
<svg version="1.1" id="Layer_1" xmlns="http://www.w3.org/2000/svg" xmlns:xlink="http://www.w3.org/1999/xlink" x="0px" y="0px"
	 viewBox="0 0 77 77" style="enable-background:new 0 0 77 77;" xml:space="preserve">
<style type="text/css">
	.st0{fill:#00369C;}
</style>
<g>
	<path class="st0" d="M70.6,28.3C65,10.6,46,0.8,28.3,6.4C10.6,12,0.8,31,6.4,48.7C12,66.4,31,76.2,48.7,70.6
		C66.4,65,76.2,46,70.6,28.3 M8.5,48C3.2,31.5,12.4,13.7,29,8.5c1.9-0.6,3.8-1,5.7-1.2c0,1.8,0,7.6-0.1,8.7c-0.2,2.7-1.6,4-4.3,4
		c-3.1,0-6.2,0-9.2,0c-2.5,0-4.3,1.2-5.3,3.4c-1.2,2.7-1.1,5.3,0.8,7.7c0.6,0.8,0.6,1.2,0,2.1c-2.1,2.7-2.1,6.2-0.1,8.8
		c0.8,1,0.7,1.5,0,2.4c-1.8,2.4-1.9,5.1-0.6,7.7c1.2,2.5,3.4,3.3,6.1,3.2c3.1-0.1,6.1,0,9.5,0c-2.9,3.7-4.2,8.6-3.6,12.7
		c0,0,0,0.1,0,0.1C18.9,64.9,11.6,57.8,8.5,48 M48,68.5c-3.9,1.2-7.8,1.6-11.7,1.4c0-0.1,0.1-0.3,0.1-0.4c0-1,0-3.4,0-4.3
		c0.1-1.6,0.5-3.1,2-3.9c0.8-0.4,1.6-0.5,0.8-1.8c-0.8-1.3-1.5-0.6-2.2-0.1c-2.4,1.6-3,4-3,6.7c0,0.7,0,2.8,0,3.5c0,0,0,0.1,0,0.1
		c-1.4-0.2-2.8-0.5-4.1-0.8c0.1-0.2,0.2-0.5,0.2-0.9c0-1.3-0.1-2.7,0.1-4c0.3-3.6,1.4-6.7,5.1-8.3c0.6-0.3,1.9,0.1,1.5-1.4
		c-0.3-1.2-1.1-1.4-2.2-1.4c-4.3,0-8.7,0-13,0c-2.8,0-4.3-1.5-4.3-4.2c0-2.7,1.4-4.2,4-4.4h13.8c0.5,0,0.8-0.4,0.8-0.8v-0.9
		c0-0.5-0.4-0.9-0.8-0.9h-15c-1.8-0.4-2.8-1.9-2.8-4.1c0-2.6,1.4-4.3,3.7-4.4c0.2,0,0.3,0,0.5,0h8.3c2.2,0,4.5,0,6.7,0h14
		c0.6,0,1.1-0.5,1.1-1.1V32c0-0.6-0.5-1.1-1.1-1.1H21.1c-2.4-0.2-3.7-1.6-3.7-4.2c0-2.8,1.4-4.3,4.2-4.3c3.1,0,6.2,0.1,9.2,0
		c3.2-0.1,5.5-2,6-5.1c0.2-1.5,0.1-8.3,0.1-10.1c1.3-0.1,2.6-0.1,4,0c0,0.1,0,0.2,0,0.3c0,1.5,0,8.8-0.1,10.3
		c-0.5,5.2-3.4,7.8-8.5,7.8c-3.3,0-6.6,0-9.9,0c-0.9,0-1.8,0-1.8,1.2c0,1.2,1,1.2,1.8,1.2c0.5,0,1,0,1.5,0c8.5,0,16.9,0,25.4,0
		c2.9,0,4.1,1.6,4.5,4.4c0.2,1.1,0.7,1.2,1.5,1.2c1.1,0,1-0.7,0.9-1.5c-0.2-3.3-2.8-6.5-6.2-6.6c-3.3,0-6.5,0-10.3,0
		c3.3-1.8,3.6-5.4,3.6-18c0,0,0,0,0,0C54.7,9.1,64.8,17.2,68.5,29C73.8,45.5,64.6,63.3,48,68.5"/>
	<path class="st0" d="M39.2,36.1H22c-0.5,0-0.8,0.4-0.8,0.8v0.8c0,0.5,0.4,0.8,0.8,0.8h17.1c0.5,0,0.8-0.4,0.8-0.8v-0.8
		C40,36.5,39.6,36.1,39.2,36.1"/>
	<path class="st0" d="M35.3,47.4H21.9c-0.4,0-0.7,0.3-0.7,0.7v1c0,0.4,0.3,0.7,0.7,0.7h13.4c0.4,0,0.7-0.3,0.7-0.7v-1
		C36.1,47.7,35.8,47.4,35.3,47.4"/>
	<path class="st0" d="M52.9,37.4c-6.5,0-11.7,5.3-11.7,11.7c0,6.5,5.3,11.7,11.7,11.7s11.7-5.3,11.7-11.7
		C64.6,42.7,59.4,37.4,52.9,37.4 M59.3,51.5h-4.1v4.1c0,1.3-1,2.3-2.3,2.3c-1.3,0-2.3-1-2.3-2.3v-4.1h-4.1c-1.3,0-2.3-1-2.3-2.3
		c0-1.3,1-2.3,2.3-2.3h4.1v-4.1c0-1.3,1-2.3,2.3-2.3c1.3,0,2.3,1,2.3,2.3v4.1h4.1c1.3,0,2.3,1,2.3,2.3
		C61.7,50.5,60.6,51.5,59.3,51.5"/>
</g>
</svg>
