<?xml version="1.0" encoding="utf-8"?>
<!-- Generator: Adobe Illustrator 16.0.0, SVG Export Plug-In . SVG Version: 6.00 Build 0)  -->
<!DOCTYPE svg PUBLIC "-//W3C//DTD SVG 1.1//EN" "http://www.w3.org/Graphics/SVG/1.1/DTD/svg11.dtd">
<svg version="1.1" id="Layer_1" xmlns="http://www.w3.org/2000/svg" xmlns:xlink="http://www.w3.org/1999/xlink" x="0px" y="0px"
	 width="45.35px" height="49.61px" viewBox="0 0 45.35 49.61" enable-background="new 0 0 45.35 49.61" xml:space="preserve">
<path fill="#FFFFFF" d="M8.595,49.348c-0.008-0.135,0.032-0.356-0.031-0.392c-3.459-1.901-3.682-5.088-3.563-8.532
	c0.13-3.781,0.049-7.57,0.022-11.354c-0.015-2.091,0.145-4.105,1.358-5.928c0.533-0.8-0.969-4.543-1.886-4.982
	C0.25,16.125-0.641,14.281,0.391,9.66c1.25-5.595,6.125-9.502,11.89-9.518c2.75-0.007,5.501-0.014,8.252,0.004
	C27.486,0.19,33.18,6.852,32.205,13.772c-0.301,2.138-1.505,3.577-3.515,4.132c-1.193,0.33-1.702,0.97-1.972,2.058
	c-0.33,1.327,0.879,1.406,1.519,1.852c4.526,3.158,7.41,7.476,9.121,12.655c0.101,0.303,0.088,0.694,0.729,0.867
	c0.774-1.835,1.557-3.699,2.35-5.558c0.265-0.623,0.455-1.429,1.308-1.38c0.707,0.041,0.912,0.759,1.142,1.328
	c2.601,6.447-0.104,17.058-7.463,19.295c-0.615-0.014-1.234,0.011-1.846-0.045c-2.232-0.201-4.724,0.779-6.523-1.44
	c-0.284-0.353-0.582-0.073-0.877,0.12c-0.896,0.584-1.814,1.131-2.725,1.691h-3.714c-0.63-1.098-2.08-1.207-2.741-2.296
	c-0.274-0.452-0.716-0.31-0.995,0.073c-0.83,1.138-2.197,1.469-3.28,2.223H8.595z M41.495,32.032
	c-0.948,2.216-1.745,4.137-2.595,6.035c-0.38,0.847-0.482,2.333-1.451,2.262c-1.234-0.091-0.888-1.644-1.083-2.551
	c-1.308-6.108-4.255-11.114-9.461-14.697c-0.847-0.582-1.385-0.714-2.243,0.17c-4.254,4.381-10.298,4.967-15.353,1.485
	c-1.148-0.791-1.655-0.682-2.02,0.577c-0.152,0.526-0.377,1.063-0.38,1.597C6.876,32.485,6.842,38.061,6.9,43.637
	c0.017,1.739,0.956,3.045,2.682,3.51c1.805,0.488,3.732,0.49,4.944-1.108c1.919-2.533,1.029-5.601,0.924-8.414
	c-0.054-1.432-2.098-0.771-3.065-1.449c-0.166-0.116-0.369-0.181-0.559-0.262c-0.443-0.188-1.002-0.36-0.805-0.978
	c0.225-0.705,0.758-0.32,1.195-0.196c2.213,0.63,4.452,0.719,6.74,0.5c1.057-0.103,2.789-1.267,3-0.19
	c0.235,1.194-1.853,1.113-2.92,1.594c-0.577,0.261-1.464,0.043-1.451,1.084c0.028,2.2-0.061,4.411,0.119,6.6
	c0.107,1.293,1.033,2.228,2.265,2.734c3.185,1.309,6.158-0.518,6.275-3.944c0.123-3.576,0.083-7.157,0.166-10.735
	c0.016-0.62-0.249-1.705,0.621-1.712c0.988-0.008,0.701,1.129,0.839,1.817c0.054,0.266,0.021,0.549,0.021,0.824
	c0.02,3.648,0.047,7.297,0.052,10.944c0.001,1.341,0.293,2.658,1.754,2.897c2.51,0.41,5.083,0.629,7.382-0.91
	C40.817,43.74,43.07,36.898,41.495,32.032 M5.617,7.608c0.999,0.668,0.799,1.497,0.839,2.196c0.135,2.4,0.08,4.816,0.318,7.204
	c0.5,5.025,4.299,8.141,9.654,8.078c5.17-0.06,8.851-3.35,9.216-8.332c0.186-2.535,0.219-5.081,0.343-7.621
	c0.024-0.497-0.149-1.13,0.67-1.338c0.526,0.533,0.481,1.241,0.519,1.907c0.096,1.783,0.217,3.568,0.229,5.353
	c0.009,1.272,0.496,1.438,1.487,0.849c1.273-0.756,1.627-1.945,1.633-3.337c0.025-5.778-4.436-10.52-10.287-10.773
	c-2.742-0.119-5.498-0.109-8.24,0.013c-4.662,0.206-8.59,3.33-9.729,7.847c-0.474,1.88-0.979,3.941,0.553,5.687
	c0.448,0.51,1.025,1.104,1.755,0.832c0.747-0.277,0.363-1.077,0.379-1.636C5.021,12.254,5.028,9.971,5.617,7.608"/>
<path fill="#FFFFFF" d="M16.013,18.199c1.09,0.228,2.507-0.154,2.572,1.293c0.058,1.305-1.063,1.836-2.273,1.871
	c-1.282,0.037-2.497-0.419-2.528-1.828C13.75,17.986,15.276,18.552,16.013,18.199"/>
<path fill="#FFFFFF" d="M13.05,13.125c-0.194,1.094-0.714,1.909-1.86,1.859c-0.925-0.039-1.533-0.73-1.48-1.655
	c0.058-1.018,0.549-1.873,1.744-1.905C12.607,11.394,12.935,12.201,13.05,13.125"/>
<path fill="#FFFFFF" d="M21.136,15.056c-1.135-0.312-1.822-0.895-1.75-2.045c0.064-1.038,0.624-1.701,1.71-1.575
	c1.013,0.119,1.54,0.847,1.565,1.843C22.69,14.347,22.002,14.835,21.136,15.056"/>
</svg>
