<?xml version="1.0" encoding="utf-8"?>
<!-- Generator: Adobe Illustrator 16.0.0, SVG Export Plug-In . SVG Version: 6.00 Build 0)  -->
<!DOCTYPE svg PUBLIC "-//W3C//DTD SVG 1.1//EN" "http://www.w3.org/Graphics/SVG/1.1/DTD/svg11.dtd">
<svg version="1.1" id="Layer_1" xmlns="http://www.w3.org/2000/svg" xmlns:xlink="http://www.w3.org/1999/xlink" x="0px" y="0px"
	 width="45.35px" height="49.61px" viewBox="0 0 45.35 49.61" enable-background="new 0 0 45.35 49.61" xml:space="preserve">
<path fill="#FFFFFF" d="M39.497,29.484c0,4.277,0.021,8.555-0.008,12.83c-0.016,2.682-1.104,4.057-3.777,4.445
	c-5.932,0.865-11.876,1.678-17.832,2.375c-3.089,0.361-3.327,0.033-3.33-3.096c-0.008-6.676,0.011-13.355-0.008-20.033
	c-0.01-3.918-0.453-7.776-1.652-11.532c-1.17-3.661-1.768-7.43-2.112-11.253c-0.107-1.205,0.134-1.846,1.455-1.938
	c6.582-0.458,13.161-0.914,19.765-0.924c1.509-0.002,2.208,0.645,2.386,2.057c0.441,3.499,1.85,6.625,3.73,9.563
	c1.002,1.565,1.42,3.263,1.398,5.125C39.468,21.231,39.498,25.358,39.497,29.484 M26.84,42.797c1.407-0.496,3.292-0.879,5.134-1.348
	c1.324-0.336,1.441-1.77,0.639-2.785c-1.021-1.291-2.064-2.518-2.861-3.994c-0.619-1.15-2.072-1.637-3.135-0.844
	c-2.134,1.592-4.307,3.299-5.344,5.865c-0.79,1.959,0.399,3.336,2.452,2.918C24.667,42.416,25.499,42.584,26.84,42.797
	 M25.928,28.904c-0.058-1.445,0.006-2.952-1.735-3.025c-1.685-0.07-2.262,1.238-2.298,2.716c-0.04,1.639-0.166,3.863,1.874,3.945
	C25.891,32.629,25.635,30.297,25.928,28.904 M27.308,28.984c0.14,1.234,0.125,2.574,1.68,2.846c1.186,0.209,2.297-1.744,2.288-3.865
	c-0.005-1.213-0.203-2.443-1.749-2.321C27.5,25.804,27.501,27.521,27.308,28.984 M36.236,32.287
	c-0.173-1.162-0.409-2.508-1.978-2.404c-1.893,0.125-2.289,1.738-2.347,3.26c-0.048,1.281,0.483,2.494,2.048,2.332
	C35.724,35.295,36.067,33.848,36.236,32.287 M17.356,34.367c0.071,1.408,0.511,2.758,2.166,2.84
	c1.575,0.078,2.216-1.176,2.162-2.562c-0.056-1.453-0.444-2.973-2.314-2.994C17.685,31.635,17.399,32.943,17.356,34.367"/>
<path fill="#FFFFFF" d="M10.465,5.283c0.396,4.479,1.544,8.198,2.595,11.941c0.486,1.735,0.746,3.513,0.743,5.331
	c-0.014,8.027,0.007,16.054-0.011,24.08c-0.002,0.713,0.313,1.641-0.462,2.066c-0.784,0.428-1.333-0.398-1.974-0.738
	c-4.221-2.25-5.505-5.592-5.519-10.465C5.81,28.521,7.996,19.96,9.381,11.246C9.663,9.48,9.445,7.634,10.465,5.283"/>
</svg>
