<?xml version="1.0" encoding="utf-8"?>
<!-- Generator: Adobe Illustrator 16.0.0, SVG Export Plug-In . SVG Version: 6.00 Build 0)  -->
<!DOCTYPE svg PUBLIC "-//W3C//DTD SVG 1.1//EN" "http://www.w3.org/Graphics/SVG/1.1/DTD/svg11.dtd">
<svg version="1.1" id="Layer_1" xmlns="http://www.w3.org/2000/svg" xmlns:xlink="http://www.w3.org/1999/xlink" x="0px" y="0px"
	 width="373.61px" height="96.38px" viewBox="0 0 373.61 96.38" enable-background="new 0 0 373.61 96.38" xml:space="preserve">
<path fill="#FFFFFF" d="M70.302,14.662c0,2.858-0.432,5.182-1.299,6.961c-0.867,1.79-1.89,3.217-3.073,4.285
	c-1.181,1.074-2.402,1.875-3.661,2.416c-1.261,0.534-2.311,0.977-3.152,1.335c-1.365,0.644-2.282,0.788-2.756,0.43
	c-0.473-0.357-0.943-1.178-1.418-2.463c-0.262-0.645-0.341-1.251-0.235-1.821c0.104-0.571,0.263-1.073,0.471-1.5
	c0.211-0.498,0.525-0.964,0.947-1.396c0.786-0.353,1.494-0.854,2.127-1.499c0.575-0.498,1.088-1.141,1.536-1.929
	c0.444-0.784,0.668-1.676,0.668-2.677c0-1.068-0.395-1.875-1.181-2.411c-0.788-0.533-1.838-0.891-3.15-1.068
	c-1.314-0.181-2.835-0.231-4.567-0.163c-1.733,0.073-3.519,0.181-5.357,0.322c-1.312,0.145-2.991,0.393-5.04,0.751
	c-2.046,0.359-4.211,0.857-6.496,1.5c-2.284,0.643-4.569,1.372-6.851,2.197c-2.283,0.819-4.358,1.73-6.223,2.73
	c-1.864,1.001-3.375,2.053-4.528,3.157c-1.157,1.11-1.732,2.233-1.732,3.375c0,1.001,0.695,1.984,2.086,2.95
	c1.391,0.959,3.229,1.91,5.513,2.835c2.286,0.928,4.884,1.875,7.798,2.839c2.913,0.966,5.906,2.002,8.978,3.108
	c3.071,1.109,6.062,2.287,8.978,3.532c2.912,1.25,5.5,2.628,7.756,4.127c2.256,1.499,4.068,3.144,5.433,4.928
	c1.367,1.785,2.021,3.786,1.968,5.998c-0.052,2.142-0.721,4.199-2.006,6.159c-1.289,1.967-3.033,3.698-5.239,5.196
	c-2.204,1.499-4.817,2.677-7.834,3.538c-3.021,0.855-6.29,1.281-9.808,1.281c-3.464,0-6.808-0.268-10.04-0.801
	c-3.229-0.536-6.117-1.179-8.663-1.931c-2.547-0.747-4.687-1.517-6.419-2.3c-1.732-0.789-2.862-1.429-3.386-1.931
	c-0.368-0.357-0.749-0.729-1.144-1.124c-0.392-0.395-0.733-0.819-1.023-1.286c-0.287-0.462-0.484-0.982-0.589-1.554
	c-0.106-0.57-0.054-1.251,0.157-2.034c0.211-0.716,0.539-1.249,0.984-1.607c0.447-0.357,0.946-0.571,1.499-0.643
	c0.549-0.067,1.113-0.037,1.691,0.109c0.577,0.139,1.075,0.357,1.497,0.642c0.418,0.215,1.286,0.554,2.598,1.015
	c1.312,0.467,2.98,0.911,5,1.342c2.021,0.425,4.333,0.802,6.93,1.123c2.601,0.321,5.396,0.521,8.389,0.588
	c0.315,0,0.879-0.013,1.692-0.054c0.812-0.032,1.759-0.104,2.835-0.213c1.076-0.104,2.192-0.286,3.347-0.534
	c1.155-0.249,2.218-0.572,3.189-0.966c0.972-0.39,1.773-0.874,2.403-1.444c0.629-0.571,0.945-1.251,0.945-2.038
	c0-1.853-1.183-3.443-3.545-4.766c-2.362-1.323-5.343-2.573-8.938-3.751c-3.598-1.177-7.468-2.355-11.616-3.532
	c-4.149-1.179-8.021-2.5-11.616-3.963c-3.596-1.464-6.578-3.162-8.939-5.091c-2.363-1.925-3.543-4.244-3.543-6.962
	c0-3.357,0.88-6.428,2.638-9.214c1.757-2.785,4.029-5.25,6.812-7.392c2.782-2.143,5.906-3.995,9.372-5.567
	c3.465-1.573,6.93-2.859,10.396-3.859c3.465-0.996,6.733-1.73,9.806-2.197c3.07-0.462,5.629-0.692,7.677-0.692
	c2.834,0,5.525,0.175,8.07,0.534c2.548,0.357,4.78,1.038,6.696,2.035c1.916,1,3.426,2.377,4.53,4.125
	C69.75,9.502,70.302,11.808,70.302,14.662"/>
<path fill="#FFFFFF" d="M117.473,55.479c-0.944,2.713-1.98,4.91-3.109,6.586c-1.128,1.681-2.257,2.985-3.388,3.915
	c-1.128,0.927-2.203,1.547-3.226,1.869c-1.024,0.322-1.879,0.484-2.559,0.484c-0.423,0-1.027-0.054-1.812-0.162
	c-0.789-0.104-1.63-0.372-2.521-0.801c-0.894-0.433-1.786-1.035-2.677-1.822c-0.896-0.783-1.63-1.894-2.208-3.32
	c-0.629-1.5-1.051-2.908-1.258-4.231c-0.211-1.321-0.328-2.518-0.356-3.592c-0.027-1.067-0.066-1.943-0.118-2.622
	c-0.052-0.68-0.263-1.122-0.629-1.341c-0.474-0.284-0.972,0.146-1.497,1.286c-0.525,1.142-1.011,2.5-1.457,4.071
	c-0.447,1.573-0.841,3.126-1.184,4.662c-0.341,1.535-0.563,2.55-0.666,3.053c-0.107,0.427-0.174,0.91-0.198,1.445
	c-0.027,0.535-0.13,1.037-0.315,1.5c-0.185,0.466-0.511,0.874-0.984,1.231c-0.474,0.357-1.208,0.57-2.204,0.643
	c-1.683-0.213-2.903-0.963-3.663-2.25c-0.763-1.287-1.092-2.533-0.985-3.752c0.157-2.282,0.263-4.353,0.315-6.21
	c0.052-1.57,0.01-3.017-0.118-4.339c-0.131-1.323-0.431-2.052-0.906-2.196c-0.525-0.142-1.088,0.339-1.694,1.443
	c-0.602,1.11-1.167,2.452-1.691,4.019c-0.525,1.571-0.958,3.161-1.298,4.771c-0.343,1.604-0.514,2.835-0.514,3.695
	c0,0.359-0.065,0.856-0.197,1.5c-0.131,0.643-0.394,1.269-0.788,1.875c-0.393,0.604-0.944,1.051-1.653,1.336
	c-0.71,0.285-1.642,0.213-2.795-0.213c-0.684-0.357-1.233-1.16-1.656-2.41c-0.419-1.249-0.748-2.73-0.984-4.447
	c-0.236-1.711-0.394-3.534-0.473-5.464c-0.08-1.928-0.117-3.781-0.117-5.57c0-1.785,0.011-3.375,0.038-4.766
	c0.026-1.395,0.067-2.409,0.12-3.052c0.105-1.858,0.523-3.036,1.26-3.539c0.733-0.498,2.019-0.569,3.859-0.212
	c0.837,0.146,1.443,0.534,1.811,1.178c0.366,0.643,0.589,1.359,0.668,2.142c0.08,0.788,0.08,1.554,0,2.306
	c-0.079,0.748-0.118,1.269-0.118,1.554c0.419-0.072,0.88-0.484,1.377-1.232c0.5-0.752,1.09-1.59,1.773-2.519
	c0.682-0.928,1.47-1.767,2.362-2.519c0.894-0.748,1.941-1.123,3.15-1.123c1.156,0,2.114,0.394,2.875,1.177
	c0.761,0.789,1.367,1.681,1.812,2.677c0.446,1.001,0.774,1.929,0.985,2.786c0.209,0.856,0.366,1.358,0.471,1.499
	c0.158,0,0.367-0.214,0.629-0.643c0.263-0.427,0.577-0.966,0.947-1.604c0.367-0.645,0.813-1.359,1.339-2.143
	c0.521-0.789,1.153-1.609,1.888-2.465c0.629-0.928,1.325-1.517,2.088-1.771c0.761-0.249,1.494-0.299,2.204-0.158
	c0.71,0.145,1.351,0.393,1.929,0.748c0.578,0.361,1.051,0.683,1.419,0.963c0.735,0.717,1.311,1.663,1.733,2.841
	c0.42,1.177,0.42,2.731,0,4.662c-0.213,0.855-0.355,2.032-0.434,3.532c-0.08,1.499-0.014,2.967,0.197,4.395
	c0.208,1.432,0.591,2.641,1.142,3.642c0.552,1.001,1.379,1.463,2.48,1.392c0.998-0.07,1.892-0.391,2.679-0.962
	c0.785-0.57,1.456-1.195,2.006-1.876c0.553-0.679,0.972-1.341,1.262-1.983c0.288-0.644,0.458-1.033,0.511-1.177
	c0.63-2.144,1.232-3.516,1.812-4.122c0.576-0.607,1.442-0.734,2.598-0.376c0.578,0.213,0.958,0.982,1.142,2.301
	c0.183,1.322,0.065,2.591-0.353,3.805H117.473z"/>
<path fill="#FFFFFF" d="M153.229,49.155c0.473,0.146,0.812,0.697,1.023,1.661c0.209,0.966,0.25,2.125,0.118,3.483
	c-0.131,1.356-0.433,2.805-0.905,4.34c-0.471,1.536-1.156,2.944-2.048,4.231c-0.891,1.282-1.995,2.355-3.306,3.212
	c-1.314,0.854-2.888,1.25-4.727,1.177c-1.733-0.067-3.176-0.389-4.331-0.965c-1.155-0.571-2.101-1.245-2.836-2.034
	c-0.841-0.783-1.524-1.748-2.047-2.89c-0.999,1.142-2.074,2.143-3.23,2.999c-0.996,0.783-2.14,1.481-3.425,2.089
	c-1.288,0.606-2.638,0.911-4.056,0.911c-0.37,0-1.142-0.143-2.324-0.433c-1.18-0.28-2.414-0.873-3.699-1.766
	c-1.286-0.893-2.418-2.197-3.387-3.908c-0.974-1.713-1.459-3.964-1.459-6.75s0.499-5.268,1.498-7.447
	c0.996-2.173,2.232-3.999,3.7-5.462c1.47-1.463,3.058-2.55,4.766-3.265c1.705-0.716,3.268-1.075,4.686-1.075
	c0.892,0,1.719,0.091,2.479,0.269c0.761,0.181,1.432,0.375,2.009,0.593c0.631,0.285,1.207,0.571,1.732,0.856
	c0.052,0.072,0.131,0.072,0.236,0c0.106,0,0.315-0.146,0.632-0.431c0.104-0.067,0.301-0.212,0.588-0.425
	c0.288-0.218,0.656-0.339,1.103-0.376c0.446-0.036,0.945,0.018,1.497,0.158c0.552,0.145,1.167,0.503,1.851,1.074
	c0.682,0.571,1.182,1.16,1.497,1.766c0.315,0.608,0.523,1.178,0.63,1.712c0.104,0.54,0.128,1.021,0.079,1.45
	c-0.054,0.426-0.079,0.748-0.079,0.96c0,0.218-0.08,0.661-0.236,1.342c-0.159,0.679-0.317,1.445-0.473,2.305
	c-0.159,0.857-0.29,1.785-0.396,2.781c-0.105,1.001-0.131,1.967-0.079,2.895c0.105,1.857,0.367,3.072,0.789,3.643
	c0.419,0.576,1.075,1,1.967,1.286c0.421,0.146,0.935,0.159,1.536,0.055c0.605-0.109,1.208-0.376,1.812-0.807
	c0.603-0.426,1.142-0.996,1.615-1.712c0.473-0.712,0.788-1.608,0.944-2.677c0.21-1.359,0.511-2.392,0.905-3.108
	c0.396-0.714,0.789-1.213,1.183-1.498c0.394-0.286,0.787-0.413,1.18-0.376C152.638,49.032,152.967,49.087,153.229,49.155
	 M132.438,49.907c-0.105,0-0.211-0.036-0.314-0.11c-0.263-0.211-0.421-0.389-0.474-0.533c-0.104-0.358-0.184-0.606-0.235-0.748
	c-0.052-0.146-0.187-0.285-0.395-0.431c-0.629-0.213-1.376-0.339-2.245-0.375c-0.864-0.037-1.718,0.127-2.559,0.484
	c-0.84,0.359-1.628,0.947-2.362,1.768c-0.735,0.82-1.26,2.02-1.576,3.588c-0.211,1-0.224,1.82-0.039,2.463
	c0.184,0.644,0.484,1.142,0.906,1.5c0.418,0.357,0.905,0.575,1.456,0.643c0.554,0.072,1.115,0,1.694-0.213
	c1.364-0.43,2.453-1.073,3.269-1.93c0.811-0.855,1.427-1.748,1.85-2.676C131.937,52.264,132.279,51.12,132.438,49.907"/>
<path fill="#FFFFFF" d="M183.706,55.69c-0.104,0.432-0.382,1.124-0.826,2.089c-0.449,0.965-1.052,2.003-1.812,3.107
	c-0.763,1.109-1.653,2.179-2.677,3.216c-1.023,1.033-2.18,1.82-3.464,2.355c-1.289,0.535-2.693,0.734-4.216,0.589
	c-1.521-0.141-3.15-0.82-4.883-2.034c-1.521-1.073-2.638-2.372-3.347-3.914c-0.707-1.53-1.193-3.083-1.456-4.655
	c-0.263-1.572-0.381-3.004-0.354-4.284c0.025-1.288,0.012-2.252-0.041-2.896c-0.052-0.57-0.328-0.978-0.827-1.232
	c-0.498-0.25-1.051-0.39-1.654-0.425c-0.604-0.036-1.379,0.017-2.322,0.158c-0.211,1.142-0.422,2.325-0.631,3.533
	c-0.211,1.001-0.445,2.075-0.709,3.218c-0.263,1.142-0.577,2.104-0.945,2.893c-0.683,1.642-1.338,2.502-1.969,2.569
	c-0.631,0.072-1.313-0.25-2.048-0.965c-0.419-0.354-0.667-0.856-0.748-1.499c-0.079-0.644-0.079-1.319,0-2.034
	c0.08-0.715,0.198-1.376,0.355-1.985c0.157-0.602,0.288-1.087,0.392-1.444c0.106-0.43,0.276-1,0.511-1.712
	c0.238-0.716,0.46-1.534,0.672-2.464c0.207-0.928,0.404-1.893,0.589-2.893c0.184-0.997,0.302-1.931,0.354-2.787
	c0.053-0.996,0.079-2.088,0.079-3.266c0-1.177-0.079-2.16-0.235-2.943c-0.055-0.286,0.039-0.698,0.273-1.232
	c0.238-0.54,0.564-1.038,0.986-1.503c0.419-0.463,0.892-0.857,1.418-1.179c0.522-0.321,1.048-0.444,1.574-0.371
	c0.998,0.14,1.797,0.607,2.401,1.391c0.603,0.788,1.036,2.179,1.301,4.176c0.104,0.788,0.471,1.146,1.103,1.075
	c0.63-0.074,1.153-0.11,1.575-0.11c0.841,0,1.549,0.073,2.126,0.213c0.578,0.145,1.076,0.34,1.497,0.594
	c0.419,0.249,0.827,0.552,1.222,0.91c0.391,0.358,0.799,0.747,1.22,1.177c0.838,0.856,1.207,2.07,1.101,3.642
	c-0.104,1.572-0.263,2.932-0.472,4.072c-0.106,0.57-0.21,1.373-0.314,2.41c-0.106,1.033-0.092,2.052,0.039,3.052
	c0.131,1.001,0.459,1.894,0.986,2.678c0.523,0.789,1.39,1.178,2.598,1.178c1.206,0,2.216-0.195,3.032-0.588
	c0.813-0.391,1.457-0.84,1.93-1.342c0.471-0.498,0.827-0.978,1.063-1.444c0.236-0.463,0.354-0.766,0.354-0.911
	c0.579-2.143,1.141-3.551,1.693-4.229c0.553-0.681,1.403-0.838,2.559-0.485c0.578,0.146,0.985,0.86,1.221,2.142
	C184.218,52.585,184.125,54.051,183.706,55.69"/>
<path fill="#FFFFFF" d="M201.818,55.583c-0.159,0.643-0.512,1.608-1.065,2.896c-0.55,1.286-1.297,2.572-2.244,3.853
	c-0.943,1.287-2.099,2.414-3.465,3.375c-1.365,0.965-2.939,1.451-4.724,1.451c-2.259,0-4.121-0.572-5.593-1.719
	c-1.469-1.141-2.637-2.622-3.503-4.444c-0.868-1.819-1.457-3.858-1.774-6.104c-0.313-2.252-0.471-4.448-0.471-6.591
	c0-1.857,0.053-4.049,0.158-6.586c0.105-2.537,0.211-5.051,0.313-7.556h-4.564c-1.418,0-2.364-0.067-2.836-0.212
	c-0.367-0.141-0.695-0.358-0.986-0.643c-0.287-0.285-0.457-0.82-0.511-1.603c0-0.357,0.079-0.861,0.237-1.504
	c0.156-0.638,0.367-1.105,0.631-1.391c0.313-0.431,0.826-0.856,1.534-1.287c0.709-0.425,1.509-0.674,2.4-0.748l4.569-0.216
	c0.104-0.997,0.169-1.821,0.196-2.464c0.025-0.644,0.066-1.07,0.118-1.283c0.053-0.502,0.091-1.141,0.118-1.929
	c0.027-0.784,0.067-1.608,0.12-2.464c0.05-0.857,0.118-1.663,0.195-2.411c0.08-0.752,0.198-1.408,0.355-1.983
	c0.315-1.142,0.813-2.087,1.497-2.835c0.682-0.753,1.468-1.165,2.363-1.232c0.893,0,1.56,0.357,2.009,1.069
	c0.444,0.715,0.8,1.25,1.062,1.607c0.264,0.286,0.564,0.911,0.906,1.876c0.34,0.964,0.381,2.337,0.117,4.122
	c-0.104,0.643-0.223,1.644-0.352,2.998c-0.134,1.359-0.305,2.895-0.516,4.607c1.682-0.141,2.81-0.141,3.389,0
	c1.049,0,1.875-0.013,2.48-0.05c0.602-0.036,1.221,0.123,1.85,0.48c0.578,0.356,0.868,0.751,0.868,1.177
	c0,0.431-0.056,0.893-0.159,1.396c-0.052,0.425-0.328,1.123-0.826,2.088c-0.5,0.965-1.273,1.517-2.324,1.659
	c-0.576,0.071-1.404,0.217-2.479,0.429c-1.079,0.214-2.22,0.394-3.427,0.535c-0.156,1.93-0.301,3.713-0.434,5.359
	c-0.13,1.644-0.248,2.962-0.353,3.962c-0.106,1.287-0.172,2.836-0.197,4.661c-0.027,1.821,0.078,3.569,0.315,5.246
	c0.235,1.681,0.656,3.107,1.259,4.286c0.603,1.182,1.509,1.77,2.718,1.77c1.208,0,2.19-0.249,2.953-0.75
	c0.759-0.499,1.351-1.07,1.772-1.714c0.417-0.643,0.708-1.25,0.866-1.822c0.156-0.569,0.26-0.927,0.315-1.071
	c0.683-2.211,1.259-3.625,1.732-4.231c0.471-0.606,1.284-0.733,2.441-0.376c0.574,0.213,1.01,0.946,1.298,2.197
	c0.289,1.249,0.197,2.662-0.274,4.229L201.818,55.583z"/>
<path fill="#FFFFFF" d="M239.98,53.775c-0.106,0.285-0.433,1.124-0.985,2.518c-0.55,1.392-1.431,2.874-2.638,4.444
	c-1.207,1.571-2.771,2.984-4.685,4.23c-1.917,1.251-4.267,1.877-7.05,1.877s-5.091-0.771-6.931-2.303
	c-1.836-1.535-3.296-3.538-4.369-6.002c-1.077-2.464-1.838-5.214-2.284-8.248c-0.446-3.035-0.668-6.052-0.668-9.05
	c0-1.998,0.089-4.303,0.273-6.913c0.184-2.604,0.475-5.299,0.867-8.085c0.394-2.786,0.944-5.518,1.653-8.194
	c0.709-2.681,1.587-5.091,2.639-7.234c1.049-2.142,2.297-3.854,3.742-5.14c1.442-1.287,3.108-1.931,5.001-1.931
	c1.625,0,2.938,0.484,3.935,1.45c0.998,0.96,1.747,2.125,2.245,3.479c0.498,1.359,0.827,2.768,0.985,4.231
	c0.156,1.467,0.236,2.662,0.236,3.592c0,3.143-0.499,6.477-1.495,10.015c-0.999,3.533-2.195,6.962-3.586,10.283
	c-1.39,3.319-2.794,6.36-4.213,9.109c-1.417,2.749-2.52,4.875-3.306,6.374c0.472,2.068,1.206,3.677,2.203,4.817
	c0.998,1.143,2.362,1.713,4.095,1.713c1.577,0,2.914-0.321,4.018-0.964c1.103-0.64,2.021-1.354,2.757-2.144
	c0.733-0.783,1.286-1.566,1.653-2.355c0.367-0.783,0.603-1.286,0.708-1.499c0.578-2.07,1.129-3.443,1.654-4.123
	c0.525-0.679,1.365-0.843,2.521-0.484c0.577,0.145,0.985,0.843,1.22,2.087c0.237,1.251,0.146,2.701-0.275,4.342L239.98,53.775z
	 M224.467,13.923c-0.421,0-0.868,0.159-1.339,0.48c-0.474,0.322-0.933,1.038-1.379,2.142c-0.445,1.111-0.866,2.7-1.26,4.771
	c-0.394,2.07-0.748,4.855-1.064,8.357c-0.156,1.857-0.287,3.692-0.392,5.518c-0.106,1.819-0.186,3.55-0.238,5.195
	c0.474-0.93,0.997-2.076,1.577-3.43c0.575-1.359,1.127-2.732,1.653-4.126c0.524-1.392,0.996-2.696,1.418-3.909
	c0.419-1.214,0.71-2.143,0.864-2.787c0.213-0.784,0.422-1.857,0.631-3.21c0.209-1.359,0.354-2.714,0.434-4.073
	c0.078-1.354,0.066-2.518-0.039-3.482c-0.104-0.966-0.368-1.446-0.786-1.446H224.467z"/>
<path fill="#FFFFFF" d="M276.051,40.168c0.314,0.43,0.42,1.196,0.314,2.307c-0.105,1.104-0.433,2.301-0.985,3.586
	c-0.551,1.288-1.325,2.538-2.323,3.75c-0.997,1.216-2.231,2.106-3.701,2.678c-0.893,0.358-1.969,0.698-3.229,1.02
	c-1.26,0.322-2.625,0.444-4.095,0.372c-0.315,1.358-0.906,2.699-1.771,4.018c-0.867,1.323-1.968,2.5-3.308,3.537
	c-1.34,1.033-2.862,1.875-4.567,2.519c-1.708,0.64-3.558,0.96-5.553,0.96c-2.204,0-4.084-0.406-5.631-1.231
	c-1.549-0.82-2.795-1.888-3.741-3.211c-0.944-1.323-1.629-2.841-2.048-4.554c-0.422-1.716-0.63-3.501-0.63-5.357
	c0-1.785,0.395-3.624,1.183-5.517c0.787-1.89,1.861-3.606,3.228-5.142s2.967-2.785,4.804-3.75c1.839-0.96,3.832-1.446,5.986-1.446
	c1.312,0,2.441,0.199,3.386,0.59c0.946,0.393,1.732,0.769,2.362,1.123c2.153,1.286,3.676,2.646,4.567,4.073
	c0.526,0.788,0.893,1.535,1.104,2.251c0.263,0.357,0.552,0.734,0.867,1.123c0.314,0.394,0.758,0.771,1.338,1.124
	c0.367,0.218,0.878,0.394,1.535,0.54c0.654,0.145,1.34,0.194,2.047,0.159c0.709-0.036,1.378-0.177,2.009-0.426
	s1.153-0.661,1.576-1.232c1.207-1.572,2.257-2.786,3.148-3.641C274.816,39.524,275.524,39.457,276.051,40.168 M253.921,51.954
	c-0.474-0.358-0.906-0.855-1.299-1.499c-0.396-0.645-0.747-1.5-1.063-2.573c-0.106-0.498-0.224-1.001-0.356-1.5
	c-0.131-0.498-0.248-1.033-0.353-1.607c-0.315-0.068-0.579-0.104-0.787-0.104h-0.71c-0.315,0-0.788,0.139-1.418,0.425
	c-0.63,0.285-1.248,0.697-1.851,1.232c-0.604,0.535-1.14,1.232-1.614,2.088c-0.474,0.857-0.709,1.893-0.709,3.107
	s0.184,2.143,0.55,2.786c0.367,0.644,0.802,1.091,1.301,1.341c0.498,0.248,0.996,0.391,1.496,0.426
	c0.499,0.036,0.879,0.056,1.143,0.056c0.208,0,0.563-0.037,1.065-0.11c0.497-0.067,1.048-0.249,1.652-0.534
	c0.603-0.285,1.18-0.698,1.732-1.232c0.55-0.534,0.982-1.268,1.3-2.196L253.921,51.954z"/>
<path fill="#FFFFFF" d="M294.006,45.309c-0.58,3.86-1.313,7.04-2.205,9.535c-0.894,2.5-1.852,4.503-2.875,6.002
	c-1.024,1.499-2.036,2.555-3.031,3.158c-0.998,0.605-1.865,0.909-2.598,0.909c-0.211,0-0.54,0.019-0.987,0.055
	c-0.445,0.036-1.01-0.036-1.691-0.213c-0.684-0.177-1.485-0.516-2.401-1.02c-0.922-0.497-1.931-1.286-3.033-2.355
	c-1.104-1.072-1.982-2.658-2.64-4.765c-0.656-2.106-1.142-4.284-1.456-6.536c-0.314-2.251-0.5-4.358-0.55-6.318
	c-0.055-1.966-0.079-3.307-0.079-4.018c0.051-1.432,0.445-2.555,1.18-3.375c0.736-0.82,1.55-1.232,2.441-1.232h0.828
	c0.288,0,0.878,0.249,1.771,0.746c0.418,0.218,0.747,0.68,0.985,1.396c0.235,0.711,0.394,1.499,0.473,2.356
	c0.079,0.856,0.13,1.73,0.157,2.622c0.024,0.897,0.065,1.663,0.117,2.306c0.053,0.57,0.13,1.463,0.235,2.676
	c0.105,1.215,0.288,2.429,0.553,3.643c0.261,1.218,0.616,2.269,1.063,3.162c0.444,0.892,1.036,1.341,1.771,1.341
	c0.893,0,1.655-0.554,2.285-1.663c0.629-1.105,1.127-2.5,1.495-4.177c0.368-1.68,0.619-3.446,0.749-5.303
	c0.13-1.858,0.143-3.538,0.038-5.037c-0.104-2.284,0.277-3.928,1.143-4.929c0.866-0.997,1.666-1.391,2.403-1.177
	c0.313,0.072,0.773,0.199,1.378,0.376c0.603,0.18,1.153,0.662,1.654,1.445c0.498,0.788,0.864,2.001,1.103,3.641
	c0.236,1.645,0.143,3.932-0.276,6.858V45.309z"/>
<path fill="#FFFFFF" d="M331.021,53.667c-0.422,1.358-1.184,2.839-2.285,4.447c-1.103,1.603-2.532,3.104-4.291,4.498
	c-1.759,1.392-3.859,2.555-6.301,3.483c-2.44,0.924-5.158,1.391-8.149,1.391c-3.047,0-5.62-0.447-7.72-1.341
	c-2.099-0.893-3.793-2.125-5.08-3.696c-1.286-1.566-2.154-3.406-2.597-5.517c-0.447-2.103-0.539-4.406-0.277-6.908
	c0.314-2.926,1.114-5.318,2.403-7.18c1.284-1.852,2.715-3.32,4.292-4.389c1.574-1.074,3.15-1.803,4.724-2.197
	c1.575-0.389,2.836-0.589,3.779-0.589c0.946,0,1.997,0.146,3.152,0.431c1.154,0.286,2.243,0.748,3.267,1.39
	c1.024,0.644,1.878,1.5,2.561,2.574c0.681,1.069,1.023,2.428,1.023,4.066c0,1.645-0.264,3.162-0.789,4.554
	c-0.524,1.396-1.23,2.645-2.124,3.749c-0.894,1.11-1.918,2.039-3.071,2.786c-1.156,0.753-2.364,1.305-3.623,1.663
	c-1.84,0.57-3.362,0.855-4.569,0.855c0.578,0.788,1.301,1.445,2.167,1.979c0.866,0.54,1.853,0.808,2.953,0.808
	c2.414,0,4.567-0.357,6.458-1.073c1.891-0.712,3.477-1.554,4.763-2.519c1.286-0.96,2.298-1.943,3.034-2.944
	c0.735-1.001,1.154-1.711,1.26-2.143c0.576-2.07,1.114-3.442,1.613-4.123c0.499-0.678,1.327-0.843,2.481-0.484
	c0.578,0.145,0.984,0.856,1.221,2.143C331.531,50.668,331.438,52.099,331.021,53.667 M311.097,45.952
	c-0.212-0.643-0.632-1.032-1.262-1.177c-0.63-0.14-1.55,0-2.757,0.429c-1.051,0.357-1.864,1.015-2.441,1.979
	c-0.577,0.966-0.943,2.056-1.102,3.271c0.736,0.14,1.561,0.231,2.48,0.267c0.917,0.037,1.876-0.231,2.875-0.807
	c0.996-0.569,1.68-1.213,2.047-1.924C311.305,47.275,311.356,46.595,311.097,45.952"/>
<path fill="#FFFFFF" d="M349.647,30.393c-1.577,3.194-8.284-13.998-13.774-4.991c-5.489,9,3.176,43.434,3.176,43.434
	s28.459-29.429,32.971-38.792C376.527,20.686,353.879,21.778,349.647,30.393"/>
<path fill="#FFFFFF" d="M94.382,95.468c-15.762,0-27.912-1.001-34.627-3.746c-2.617-1.071-3.871-4.061-2.801-6.677
	c1.071-2.618,4.055-3.868,6.677-2.801c12.884,5.271,58.181,2.482,101.981-0.209c45.843-2.816,93.252-5.73,120.165-1.354
	c38.044,6.195,45.555,0.4,46.476-0.532c0.274-2.355,2.168-4.279,4.625-4.503c2.813-0.257,5.305,1.82,5.562,4.637
	c0.086,0.948,0.101,4.3-3.324,7.489c-7.358,6.854-25.343,7.84-54.98,3.018c-25.786-4.201-72.608-1.319-117.893,1.463
	C139.067,93.927,113.945,95.468,94.382,95.468 M332.241,81.198V81.2V81.198z"/>
<path fill="#FFFFFF" d="M364.286,70.976c0,4.265-3.467,7.611-7.978,7.611c-4.465,0-8.026-3.347-8.026-7.611
	c0-4.173,3.562-7.52,8.026-7.52C360.819,63.456,364.286,66.803,364.286,70.976 M350.275,70.976c0,3.347,2.565,6.008,6.079,6.008
	c3.42,0,5.937-2.661,5.937-5.963c0-3.347-2.517-6.051-5.982-6.051C352.841,64.97,350.275,67.674,350.275,70.976 M355.072,74.919
	h-1.804v-7.521c0.713-0.138,1.709-0.229,2.991-0.229c1.474,0,2.139,0.229,2.707,0.55c0.427,0.32,0.76,0.917,0.76,1.651
	c0,0.825-0.664,1.467-1.613,1.741v0.093c0.758,0.274,1.187,0.824,1.425,1.833c0.236,1.146,0.38,1.605,0.569,1.881h-1.948
	c-0.237-0.275-0.379-0.963-0.616-1.834c-0.142-0.825-0.617-1.192-1.615-1.192h-0.855V74.919z M355.121,70.654h0.854
	c0.996,0,1.805-0.321,1.805-1.101c0-0.688-0.522-1.146-1.662-1.146c-0.475,0-0.808,0.047-0.997,0.093V70.654z"/>
</svg>
