<?xml version="1.0" encoding="utf-8"?>
<!-- Generator: Adobe Illustrator 16.0.0, SVG Export Plug-In . SVG Version: 6.00 Build 0)  -->
<!DOCTYPE svg PUBLIC "-//W3C//DTD SVG 1.1//EN" "http://www.w3.org/Graphics/SVG/1.1/DTD/svg11.dtd">
<svg version="1.1" id="Layer_1" xmlns="http://www.w3.org/2000/svg" xmlns:xlink="http://www.w3.org/1999/xlink" x="0px" y="0px"
	 width="1921.89px" height="1542.05px" viewBox="0 0 1921.89 1542.05" enable-background="new 0 0 1921.89 1542.05"
	 xml:space="preserve">
<g>
	<defs>
		<polygon id="SVGID_1_" points="1.338,1539.877 1494.975,1539.877 1921.338,1539.877 1921.338,705.409 1921.338,0 1494.975,0 
			1.338,0 1.338,705.409 		"/>
	</defs>
	<clipPath id="SVGID_2_">
		<use xlink:href="#SVGID_1_"  overflow="visible"/>
	</clipPath>
	<g clip-path="url(#SVGID_2_)">
		<g>
			<defs>
				<rect id="SVGID_3_" x="1.338" y="0.001" width="1920" height="1539.877"/>
			</defs>
			<clipPath id="SVGID_4_">
				<use xlink:href="#SVGID_3_"  overflow="visible"/>
			</clipPath>
			<g clip-path="url(#SVGID_4_)">
				
					<image overflow="visible" width="4000" height="3209" xlink:href="4D8F2ED661FCB2DA.jpg"  transform="matrix(0.48 0 0 0.48 1.3379 9.765625e-04)">
				</image>
			</g>
		</g>
	</g>
</g>
<g opacity="0.3">
	<g>
		<defs>
			<rect id="SVGID_5_" x="0.842" y="5.307" width="1919.588" height="356.15"/>
		</defs>
		<clipPath id="SVGID_6_">
			<use xlink:href="#SVGID_5_"  overflow="visible"/>
		</clipPath>
		<g clip-path="url(#SVGID_6_)">
			<defs>
				<rect id="SVGID_7_" x="0.842" y="5.306" width="1919.594" height="356.153"/>
			</defs>
			<clipPath id="SVGID_8_">
				<use xlink:href="#SVGID_7_"  overflow="visible"/>
			</clipPath>
			<defs>
				<filter id="Adobe_OpacityMaskFilter" filterUnits="userSpaceOnUse" x="0.842" y="5.306" width="1919.594" height="356.153">
					<feColorMatrix  type="matrix" values="1 0 0 0 0  0 1 0 0 0  0 0 1 0 0  0 0 0 1 0"/>
				</filter>
			</defs>
			<mask maskUnits="userSpaceOnUse" x="0.842" y="5.306" width="1919.594" height="356.153" id="SVGID_9_">
				<g filter="url(#Adobe_OpacityMaskFilter)">
					
						<linearGradient id="SVGID_10_" gradientUnits="userSpaceOnUse" x1="-1309.8276" y1="4743.3887" x2="-1308.8276" y2="4743.3887" gradientTransform="matrix(0 -356.1528 -356.1528 0 1690332 -466137.5)">
						<stop  offset="0" style="stop-color:#000000"/>
						<stop  offset="0.0971" style="stop-color:#060606"/>
						<stop  offset="0.2211" style="stop-color:#151515"/>
						<stop  offset="0.36" style="stop-color:#303030"/>
						<stop  offset="0.5096" style="stop-color:#545454"/>
						<stop  offset="0.6678" style="stop-color:#848484"/>
						<stop  offset="0.8334" style="stop-color:#BDBDBD"/>
						<stop  offset="1" style="stop-color:#FFFFFF"/>
					</linearGradient>
					<rect x="0.842" y="5.306" clip-path="url(#SVGID_8_)" fill="url(#SVGID_10_)" width="1919.594" height="356.153"/>
				</g>
			</mask>
			
				<linearGradient id="SVGID_11_" gradientUnits="userSpaceOnUse" x1="-1309.8276" y1="4743.3887" x2="-1308.8276" y2="4743.3887" gradientTransform="matrix(0 -356.1528 -356.1528 0 1690332 -466137.5)">
				<stop  offset="0" style="stop-color:#FFFFFF"/>
				<stop  offset="0.1171" style="stop-color:#EFEEEE"/>
				<stop  offset="0.2669" style="stop-color:#D4D2D2"/>
				<stop  offset="0.4343" style="stop-color:#AEAAAB"/>
				<stop  offset="0.6148" style="stop-color:#7F7B7C"/>
				<stop  offset="0.8055" style="stop-color:#4F4C4D"/>
				<stop  offset="1" style="stop-color:#202021"/>
			</linearGradient>
			
				<rect x="0.842" y="5.306" clip-path="url(#SVGID_8_)" mask="url(#SVGID_9_)" fill="url(#SVGID_11_)" width="1919.594" height="356.153"/>
		</g>
	</g>
</g>
<g>
	<g>
		<defs>
			<rect id="SVGID_12_" x="54.534" y="166.817" width="915.366" height="1373.06"/>
		</defs>
		<clipPath id="SVGID_13_">
			<use xlink:href="#SVGID_12_"  overflow="visible"/>
		</clipPath>
		<path clip-path="url(#SVGID_13_)" fill="#E6E6E6" d="M54.582,635.163c7.73-2.981,12.911,0.476,17.753,6.305
			c9.925,11.948,9.859,11.655,1.135,24.205c-4.784,6.881-11.172,8.801-18.888,8.407V635.163z"/>
		<path clip-path="url(#SVGID_13_)" fill="#E6E6E6" d="M54.582,199.027c8.34-4.33,10.965-3.769,16.975,3.591
			c0.69,0.846,1.468,1.62,2.198,2.436c9.044,10.118,9.297,13.414-1.111,21.707c-4.957,3.949-9.997,10.056-18.062,7.157V199.027z"/>
		<path clip-path="url(#SVGID_13_)" fill="#E6E6E6" d="M582.033,166.82c0.672,1.974,0.808,5.125,2.11,5.719
			c5.759,2.628,7.992,7.646,3.587,12.531c-2.74,3.038-7.772,4.019-11.801,5.867c-0.335,0.154-0.874-0.09-1.304-0.2
			c-18.982-4.82-17.64-0.162-11.524-20.939c0.309-1.047,0.981-1.988,1.484-2.978H582.033z"/>
		<path clip-path="url(#SVGID_13_)" fill="#E6E6E6" d="M969.903,692.867c-4.599-0.843-9.227-1.552-13.788-2.564
			c-4.894-1.087-8.793-3.593-8.945-9.164c-0.152-5.556,2.925-8.5,8.44-9.359c1.435-0.224,3.316-1.577,3.848-2.879
			c1.97-4.825,5.716-6.497,10.445-6.898V692.867z"/>
		<path clip-path="url(#SVGID_13_)" fill="#E6E6E6" d="M969.903,428.501c-6.835,0.871-10.92-2.963-13.726-8.435
			c-2.309-4.505-4.136-9.256-6.532-14.706c6.623-3.841,13.44-7.796,20.258-11.75V428.501z"/>
		<path clip-path="url(#SVGID_13_)" fill="#E6E6E6" d="M278.715,166.82c0.688,1.092,1.377,2.185,2.08,3.298
			c-5.33,4.996-10.351,10.663-16.379,14.898c-2.554,1.794-7.837,1.851-10.778,0.426c-3.98-1.928-4.178-6.542-1.756-10.483
			c1.601-2.605,4.362-4.845,1.333-8.139H278.715z"/>
		<path clip-path="url(#SVGID_13_)" fill="#E6E6E6" d="M54.582,467.418c4.212,1.111,8.896,1.275,9.808,7.219
			c1.21,7.9-4.161,10.422-9.808,12.91V467.418z"/>
		<path clip-path="url(#SVGID_13_)" fill="#E6E6E6" d="M969.903,1409.473c-6.812-9.275-5.891-19.9-4.991-30.412
			c0.062-0.736,3.254-1.203,4.991-1.795V1409.473z"/>
		<path clip-path="url(#SVGID_13_)" fill="#E6E6E6" d="M54.582,1535.615c5.209,0.287,11.036-1.691,14.764,4.027
			c-3.803,0-7.68-0.469-11.389,0.121C53.694,1540.443,54.647,1537.836,54.582,1535.615"/>
		<path clip-path="url(#SVGID_13_)" fill="#E6E6E6" d="M688.309,1265.58c-9.551-0.377-13.204-6.711-8.964-14.197
			c1.982-3.498,2.147-6.131-0.097-9.695c-3.181-5.055-2.552-10.398,2.207-14.352c4.643-3.855,9.422-2.084,13.288,1.398
			c4.412,3.975,8.366,8.471,12.348,12.893c0.759,0.844,1.416,2.939,0.946,3.549c-5.091,6.584-10.303,13.084-15.786,19.342
			C691.308,1265.596,688.944,1265.428,688.309,1265.58"/>
		<path clip-path="url(#SVGID_13_)" fill="#E6E6E6" d="M707.95,651.752c-7.952-0.598-11.279-5.76-8.054-13.326
			c1.771-4.151,3.22-7.382-0.003-12.071c-2.633-3.832-1.317-9.091,2.76-12.576c3.806-3.253,8.018-3.025,11.478,0.093
			c5.084,4.58,9.758,9.634,14.359,14.711c0.677,0.747,0.521,3.098-0.158,4.078c-3.653,5.281-7.22,10.715-11.6,15.357
			C714.731,650.138,710.934,650.561,707.95,651.752"/>
		<path clip-path="url(#SVGID_13_)" fill="#E6E6E6" d="M526.721,1271.668c-3.5,4.264-5.929,8.188-9.27,11.043
			c-4.083,3.492-7.684,1.166-9.748-2.924c-4.323-8.568-3.764-17.717-2.359-26.846c0.149-0.971,1.197-2.648,1.681-2.596
			c7.571,0.801,15.155-4.326,22.696,0.051c5.388,3.125,7.084,7.701,5.385,13.58C533.688,1268.877,531.067,1272.385,526.721,1271.668
			"/>
		<path clip-path="url(#SVGID_13_)" fill="#E6E6E6" d="M656.987,1424.908c-4.061-8.262-3.571-13.861,1.072-17.15
			c4.699-3.328,9.415-2.375,12.739,1.084c4.779,4.975,8.51,10.957,12.688,16.508c-6.651,6.242-12.96,12.934-20.192,18.406
			c-1.821,1.375-7.184-0.301-9.88-2.115c-3.55-2.391-3.328-6.434-0.762-10.062C654.182,1429.414,655.547,1427.135,656.987,1424.908"
			/>
		<path clip-path="url(#SVGID_13_)" fill="#E6E6E6" d="M125.738,1038.334c-9.459,0-17.836,0.42-26.123-0.266
			c-2.356-0.195-6.23-3.562-6.277-5.551c-0.092-3.773,1.081-8.553,3.569-11.156c2.861-2.994,5.495-5.227,7.054-9.543
			c1.035-2.867,6.796-6.209,9.754-5.656c3.803,0.709,8.947,4.553,9.903,8.035C125.563,1021.287,125.089,1029.043,125.738,1038.334"
			/>
		<path clip-path="url(#SVGID_13_)" fill="#E6E6E6" d="M195.438,1300.615c1.362,1.5,2.31,2.434,3.131,3.467
			c3.825,4.811,3.186,9.861-0.508,14.037c-3.904,4.412-9.275,2.314-12.847-0.195c-5.145-3.613-9.335-8.625-13.771-13.197
			c-2.521-2.598-2.907-5.465,0.169-8.096c5.032-4.305,9.696-9.189,15.229-12.705c3.999-2.541,9.757-2.766,12.732,1.695
			c2.656,3.984,2.108,8.961-2.015,12.646C196.918,1298.838,196.398,1299.541,195.438,1300.615"/>
		<path clip-path="url(#SVGID_13_)" fill="#E6E6E6" d="M526.564,651.696c2.147-22.707-0.415-16.38,19.526-18.908
			c5.131-0.651,11.597,4.915,12.095,9.282c0.812,7.119-1.929,10.86-8.745,13.341c-1.847,0.672-3.72,3.013-4.334,4.976
			c-1.481,4.74-4.314,7.016-9.183,7.131c-5.389,0.127-6.421-3.991-7.577-7.812C527.459,656.77,527,653.705,526.564,651.696"/>
		<path clip-path="url(#SVGID_13_)" fill="#E6E6E6" d="M846.428,1270.346c7.382,8.693,7.146,13.66-0.708,17.584
			c-1.756,0.877-4.873,1.459-6.117,0.521c-6.474-4.871-12.736-10.078-18.559-15.699c-0.936-0.904-0.091-5.316,1.316-6.68
			c4.432-4.301,9.435-8.041,14.388-11.77c3.909-2.943,8.123-3.723,12.148-0.088c4.011,3.623,2.597,7.602,0.48,11.51
			C848.548,1267.254,847.507,1268.668,846.428,1270.346"/>
		<path clip-path="url(#SVGID_13_)" fill="#E6E6E6" d="M158.312,1242.852c-6.463-1.975-12.697-3.057-18.036-5.85
			c-2.744-1.436-5.735-6.215-5.301-8.957c0.549-3.465,4.358-6.498,6.984-9.525c1.825-2.102,3.877-4.072,6.096-5.746
			c2.482-1.873,5.278-4.65,7.914-4.625c2.685,0.027,7.297,2.641,7.665,4.725c1.49,8.432,2.012,17.098,1.991,25.674
			C165.623,1239.934,161.059,1241.309,158.312,1242.852"/>
		<path clip-path="url(#SVGID_13_)" fill="#E6E6E6" d="M220.648,683.815c1.427,1.898,3.149,3.14,3.144,4.373
			c-0.019,4.373,0.741,9.635-1.374,12.879c-2.403,3.685-7.334,2.911-11.083-0.379c-4.745-4.166-9.844-7.941-14.454-12.246
			c-2.905-2.712-3.676-5.801,0.306-8.842c4.011-3.062,7.359-7.032,11.497-9.88c6.888-4.74,13.568-5.039,16.193-0.634
			C228.235,674.72,225.689,679.669,220.648,683.815"/>
		<path clip-path="url(#SVGID_13_)" fill="#E6E6E6" d="M673.332,808.107c-0.857-4.889-2.208-8.469-1.936-11.92
			c0.518-6.549,7.646-10.41,12.616-6.406c5.567,4.486,9.951,10.477,14.61,16.014c0.696,0.828,0.694,3.387-0.019,4.076
			c-5.214,5.043-10.455,10.119-16.17,14.562c-3.944,3.064-8.915,3.65-12.487-0.668c-3.881-4.691-2.707-9.539,1.4-13.752
			C672.263,809.072,673.242,808.193,673.332,808.107"/>
		<path clip-path="url(#SVGID_13_)" fill="#E6E6E6" d="M56.479,1174.578c7.428-7.303,13.835-14.475,21.278-20.328
			c1.937-1.523,7.631,0.186,10.666,1.984c4.049,2.4,2.802,6.473,0.514,9.994c-1.079,1.662-1.995,3.43-2.876,4.961
			c1.482,2.023,4.029,3.932,4.066,5.889c0.069,3.672-0.279,8.262-2.435,10.764c-1.564,1.814-7.03,2.225-9.517,0.912
			C71.166,1185.055,64.794,1180.143,56.479,1174.578"/>
		<path clip-path="url(#SVGID_13_)" fill="#E6E6E6" d="M761.894,1012.359c-3.756,0-6.429,0.162-9.075-0.033
			c-5.137-0.383-9.101-3.492-8.662-8.299c0.341-3.74,3.721-7.277,6.004-10.738c1.103-1.674,3.905-2.883,4.017-4.441
			c0.51-7.074,4.984-9.051,10.83-8.91c6.574,0.158,9.038,5.117,9.969,10.615c0.878,5.188,1.278,10.531,1.111,15.781
			c-0.053,1.664-2.332,4.162-4.068,4.68C768.46,1012.076,764.578,1012.055,761.894,1012.359"/>
		<path clip-path="url(#SVGID_13_)" fill="#E6E6E6" d="M208.655,1379.877c0.501,0.229,3.169,0.686,4.626,2.262
			c4.061,4.391,7.855,9.082,11.24,14.01c1.117,1.625,1.723,5.35,0.744,6.367c-4.731,4.924-9.997,9.354-15.241,13.76
			c-3.942,3.312-8.178,2.166-11.588-0.705c-3.392-2.854-3.034-6.723-0.663-10.26c2.147-3.205,2.531-5.738,0.301-9.617
			C193.376,1387.525,197.864,1379.992,208.655,1379.877"/>
		<path clip-path="url(#SVGID_13_)" fill="#E6E6E6" d="M368.219,179.721c9.161,1.467,15.973,2.25,22.634,3.715
			c5.955,1.311,6.551,6.621,7.06,11.522c0.503,4.845-1.971,7.168-6.736,8.156c-1.752,0.363-3.686,2.688-4.426,4.558
			c-2.094,5.291-5.39,9.21-11.261,8.385c-5.959-0.837-7.148-6.038-7.236-11.192C368.118,196.922,368.219,188.974,368.219,179.721"/>
		<path clip-path="url(#SVGID_13_)" fill="#E6E6E6" d="M193.622,612.737c0,2.447,0.664,5.164-0.188,7.264
			c-0.842,2.072-3.074,4.807-4.949,5.02c-8.071,0.917-15.952-0.351-22.664-5.417c-5.164-3.897-4.298-10.946,1.293-15.227
			c3.544-2.713,6.411-6.325,10.012-8.943c2.339-1.701,5.74-3.645,8.138-3.111c2.707,0.603,5.977,3.44,6.936,6.061
			c1.623,4.439,1.622,9.471,2.304,14.253L193.622,612.737z"/>
		<path clip-path="url(#SVGID_13_)" fill="#E6E6E6" d="M857.294,1385.264c-8.345-0.4-11.171-6.18-8.971-13.246
			c0.837-2.689,0.599-6.297-0.526-8.891c-2.414-5.564-1.859-10.457,2.629-13.598c4.519-3.162,11.17-2.793,14.663,1.244
			c3.914,4.525,7.561,9.297,11.062,14.148c0.667,0.926,0.721,3.271,0.031,4.041c-4.44,4.947-8.997,9.82-13.89,14.311
			C860.684,1384.75,857.965,1385.016,857.294,1385.264"/>
		<path clip-path="url(#SVGID_13_)" fill="#E6E6E6" d="M583.271,474.896c6.528-0.764,11.042,2.775,11.847,8.194
			c0.49,3.31-3.32,7.256-5.193,10.919c-0.62,1.212-1.865,2.511-1.727,3.637c0.824,6.749-3.846,9.305-8.772,10.721
			c-5.109,1.468-8.546-2.028-10.263-6.447c-2.219-5.712-3.513-11.782-5.724-17.498c-1.766-4.564,0.369-6.234,4.165-6.96
			C572.8,476.469,578.046,475.739,583.271,474.896"/>
		<path clip-path="url(#SVGID_13_)" fill="#E6E6E6" d="M557.343,1088.68c6.321-0.551,10.355,1.922,11.965,8.096
			c1.489,5.721-1.071,9.197-6.156,11.578c-0.839,0.393-1.252,2.611-1.152,3.932c0.41,5.391-2.581,8.559-7.106,9.904
			c-4.778,1.42-9.322-0.564-11.296-4.988c-2.87-6.434-4.956-13.266-6.744-20.094c-0.406-1.547,1.451-5.1,2.845-5.455
			C545.459,1090.186,551.443,1089.594,557.343,1088.68"/>
		<path clip-path="url(#SVGID_13_)" fill="#E6E6E6" d="M473.19,1185.561c-8.004-5.277-14.917-9.406-21.325-14.211
			c-4.309-3.229-4.68-8.725-2.041-12.623c1.772-2.619,6.496-3.197,9.832-4.826c1.632-0.797,3.045-2.037,4.669-2.854
			c2.984-1.504,6.303-4.275,9.005-3.799c2.208,0.389,4.358,4.496,5.425,7.367C482.646,1165.09,476.39,1173.873,473.19,1185.561"/>
		<path clip-path="url(#SVGID_13_)" fill="#E6E6E6" d="M702.39,194.912c-5.659-10.948-1.614-20.341,8.146-19.002
			c3.481,0.478,6.966,4.058,9.608,6.982c9.844,10.899,9.675,11.597-1.318,21.192c-2.99,2.61-5.702,5.675-9.039,7.72
			c-4.589,2.813-9.733,3.131-12.931-2.05c-3.034-4.916-1.128-9.392,3.203-12.888C700.739,196.318,701.398,195.745,702.39,194.912"/>
		<path clip-path="url(#SVGID_13_)" fill="#E6E6E6" d="M817.443,1200.334c-0.616,12.191-0.857,12.609-11.704,11.594
			c-4.353-0.408-8.645-1.861-12.87-3.146c-5.399-1.641-6.95-5.615-6.378-10.982c0.544-5.094,3.067-8.029,7.98-9.439
			c1.535-0.441,2.592-2.35,4.036-3.344c3.255-2.238,6.57-5.854,9.948-5.953c2.371-0.068,5.436,4.424,7.159,7.463
			c1.335,2.357,1.155,5.609,1.495,8.482C817.372,1197.215,817.393,1199.449,817.443,1200.334"/>
		<path clip-path="url(#SVGID_13_)" fill="#E6E6E6" d="M865.13,660.409c5.251,7.573,5.831,13.266,0.974,16.046
			c-2.648,1.516-7.515,2.408-9.628,0.983c-5.981-4.031-11.408-9.087-16.246-14.466c-1.222-1.358-0.456-6.666,1.177-8.035
			c5.407-4.531,11.316-8.771,17.69-11.687c2.497-1.142,7.37,0.731,9.922,2.777c1.337,1.071,0.396,5.586-0.278,8.361
			C868.241,656.442,866.513,658.198,865.13,660.409"/>
		<path clip-path="url(#SVGID_13_)" fill="#E6E6E6" d="M710.689,1147.939c4.685-5.803,8.588-11.23,13.148-16.035
			c2.277-2.396,5.585-4.555,8.743-5.15c2.72-0.514,7.25,0.449,8.512,2.375c1.574,2.398,1.528,6.775,0.505,9.715
			c-1.135,3.262-1.826,5.082,0.072,8.766c1.711,3.32,1.017,9.26-0.939,12.738c-2.341,4.164-7.465,3.246-11.311,0.695
			C723.206,1156.922,717.185,1152.506,710.689,1147.939"/>
		<path clip-path="url(#SVGID_13_)" fill="#E6E6E6" d="M155.919,424.245c-8.733,0-17.222,0.527-25.567-0.333
			c-2.385-0.247-5.262-4.184-6.296-7.019c-1.465-4.014,0.347-7.518,4.245-10.168c2.418-1.643,4.381-4.382,5.756-7.039
			c2.539-4.909,5.943-7.389,11.65-6.608c5.561,0.76,8.07,4.654,8.775,9.295C155.467,408.872,155.407,415.529,155.919,424.245"/>
		<path clip-path="url(#SVGID_13_)" fill="#E6E6E6" d="M317.255,1408.961c8.55,1.082,15.587,1.697,22.514,2.934
			c5.93,1.059,9.499,6.268,8.524,11.047c-0.773,3.795-6.178,6.645-9.526,9.916c-0.491-0.441-0.982-0.879-1.472-1.318
			c-0.297,1.748-0.321,3.6-0.943,5.225c-1.687,4.406-4.326,8.014-9.69,7.648c-4.358-0.297-9.127-6.549-9.345-12.477
			C317.055,1424.826,317.255,1417.699,317.255,1408.961"/>
		<path clip-path="url(#SVGID_13_)" fill="#E6E6E6" d="M838.997,590.038c-1.404,12.083-2.421,12.908-14.839,10.567
			c-3.862-0.728-8.432-1.072-11.185-3.375c-2.779-2.324-5.383-7.07-4.973-10.37c0.413-3.317,4.562-6.224,7.216-9.184
			c1.403-1.566,2.99-3.027,4.701-4.245c2.934-2.087,6.214-5.707,9.007-5.415c2.894,0.302,6.592,4.025,7.765,7.085
			C838.452,579.699,838.322,585.023,838.997,590.038"/>
		<path clip-path="url(#SVGID_13_)" fill="#E6E6E6" d="M115.183,555.232c5.37,5.548,6.439,11.214,3.193,15.17
			c-3.4,4.146-8.559,4.34-14.892,0.019c-5.565-3.796-10.829-8.033-15.841-11.787c5.746-6.267,10.793-12.443,16.573-17.833
			c3.643-3.396,8.735-5.477,13.248-1.395c5.188,4.691,2.671,9.55-0.918,14.026C116.14,553.94,115.76,554.47,115.183,555.232"/>
		<path clip-path="url(#SVGID_13_)" fill="#E6E6E6" d="M583.047,1492.598c7.527,6.988,8.323,10.426,3.862,15.871
			c-3.44,4.199-10.507,4.727-15.057,1.58c-3.893-2.691-8.262-4.689-12.193-7.332c-1.386-0.934-3.308-3.637-2.933-4.229
			c4.38-6.889,8.761-13.857,13.994-20.09c2.426-2.893,7.279-5.402,10.63-1.75c2.307,2.516,2.746,6.955,3.432,10.645
			C585.059,1488.779,583.766,1490.557,583.047,1492.598"/>
		<path clip-path="url(#SVGID_13_)" fill="#E6E6E6" d="M217.863,790.074c5.487-5.357,1.58-12.275,1.398-19.143
			c-0.079-2.959,3.203-8.24,5.472-8.538c4.017-0.527,9.376,0.837,12.439,3.445c4.054,3.455,6.604,8.767,9.432,13.503
			c0.701,1.174,0.654,3.906-0.197,4.715c-5.232,4.975-10.443,10.111-16.351,14.197C224.738,801.934,218.15,797.738,217.863,790.074"
			/>
		<path clip-path="url(#SVGID_13_)" fill="#E6E6E6" d="M869.161,963.416c-0.12,8.469-3.785,12.082-10.546,11.508
			c-6.175-0.525-12.323-1.861-18.337-3.408c-1.379-0.354-3.263-3.219-3.026-4.604c1.046-6.094,1.824-12.574,4.624-17.902
			c1.738-3.311,6.931-6.66,10.554-6.639c4.13,0.023,8.631,3.146,9.165,9.055c0.182,2.029,2.301,3.889,3.549,5.816
			C866.83,959.848,868.528,962.443,869.161,963.416"/>
		<path clip-path="url(#SVGID_13_)" fill="#E6E6E6" d="M893.462,756.476c-4.526,4.823-8.72,9.423-13.06,13.88
			c-4.028,4.136-9.064,5.707-13.861,2.203c-4.631-3.382-4.509-8.1-1.45-13.102c0.935-1.526,0.533-4.594-0.376-6.389
			c-3.186-6.283-2.735-10.557,2.164-14.112c5.003-3.631,10.415-2.824,14.685,2.398C885.492,746.159,889.248,751.105,893.462,756.476
			"/>
		<path clip-path="url(#SVGID_13_)" fill="#E6E6E6" d="M364.756,1243.416c6.024-5.449,10.544-10.871,16.278-14.209
			c3.302-1.92,10.16-2.211,12.52-0.061c2.548,2.326,1.9,8.338,2.286,12.771c0.205,2.359-0.184,4.816-0.604,7.176
			c-0.704,3.957-0.412,9.34-2.842,11.385c-2.365,1.99-8.914,2.189-11.353,0.277C375.136,1256.125,370.554,1249.807,364.756,1243.416
			"/>
		<path clip-path="url(#SVGID_13_)" fill="#E6E6E6" d="M497.763,571.06c-7.273-4.656-14.251-8.127-19.824-13.154
			c-2.394-2.159-3.342-8.053-2.226-11.32c0.963-2.818,5.742-4.385,8.916-6.374c1.972-1.235,4.08-2.257,6.157-3.315
			c2.63-1.338,5.558-3.98,7.864-3.531c2.271,0.443,4.728,3.737,5.715,6.313C508.686,550.959,501.967,559.986,497.763,571.06"/>
		<path clip-path="url(#SVGID_13_)" fill="#E6E6E6" d="M942.421,1034.516c-1.734-1.33-5.56-3.148-7.693-6.164
			c-3.048-4.307-5.13-9.385-7.026-14.363c-0.545-1.43,0.392-4.451,1.649-5.355c4.665-3.357,9.767-6.102,14.666-9.141
			c5.136-3.186,9.195-1.922,12.679,2.725c3.597,4.797,2.85,8.768-1.343,12.928c-1.421,1.41-2.152,4.439-1.828,6.514
			C954.581,1028.432,950.477,1034.697,942.421,1034.516"/>
		<path clip-path="url(#SVGID_13_)" fill="#E6E6E6" d="M211.929,1002.891c-8.271-1.713-14.396-2.805-20.396-4.375
			c-1.166-0.305-2.861-2.746-2.588-3.723c2.039-7.307,3.884-14.797,7.189-21.547c1.141-2.328,6.774-4.375,9.412-3.549
			c3.06,0.961,5.223,5.119,7.496,8.1c1.178,1.545,1.274,4.244,2.688,5.217c4.563,3.137,7.448,7.486,4.992,12.291
			C218.913,998.842,214.307,1000.947,211.929,1002.891"/>
		<path clip-path="url(#SVGID_13_)" fill="#E6E6E6" d="M177.987,1111.465c-0.402,1.051-0.763,1.857-1.021,2.693
			c-1.364,4.414-2.862,8.799-8.78,8.137c-6.121-0.684-8.722-4.66-8.946-10.459c-0.104-2.672,0.02-5.355,0.088-8.033
			c0.388-15.5,6.776-19.189,20.924-12.084c1.591,0.801,3.616,1.307,4.625,2.588c2.302,2.93,5.931,6.41,5.683,9.389
			c-0.39,4.68-4.212,8.211-9.927,7.777C179.778,1111.408,178.916,1111.465,177.987,1111.465"/>
		<path clip-path="url(#SVGID_13_)" fill="#E6E6E6" d="M279.088,1038.42c5.936-3.734,11.218-7.004,16.445-10.359
			c6.87-4.408,10.961-4.211,14.6,0.809c3.374,4.656,2.223,9.475-3.444,14.354c-0.503,0.432-1.063,0.797-1.71,1.277
			c0.067,0.605,0.046,1.262,0.222,1.859c2.112,7.15,0.593,12.428-5.056,14.668c-6.225,2.467-10.253-1.994-13.105-6.297
			C283.768,1049.793,281.747,1044.027,279.088,1038.42"/>
		<path clip-path="url(#SVGID_13_)" fill="#E6E6E6" d="M761.368,531.585c0.919,1.012,1.481,1.65,2.064,2.27
			c3.922,4.164,4.194,8.653,0.867,13.203c-3.177,4.343-7.83,3.633-11.407,1.524c-6.469-3.818-12.371-8.599-19.173-13.451
			c5.748-6.379,10.826-12.814,16.773-18.308c3.43-3.168,8.829-4.765,12.866-1.221c3.973,3.486,3.386,8.374,0.389,12.724
			C763.119,529.238,762.442,530.118,761.368,531.585"/>
		<path clip-path="url(#SVGID_13_)" fill="#E6E6E6" d="M118.051,1475.865c3.8-8.717,6.699-17.916,15.606-22.57
			c2.923-1.527,7.706-2.221,10.29-0.816c2.087,1.135,2.23,5.975,3.078,9.211c0.46,1.754-0.048,4.535,0.98,5.234
			c4.642,3.156,5.508,7.143,2.643,11.428c-3.091,4.621-7.556,7.811-13.541,5.574
			C130.756,1481.555,124.601,1478.662,118.051,1475.865"/>
		<path clip-path="url(#SVGID_13_)" fill="#E6E6E6" d="M356.883,812.973c-2.365,9.004-6.315,13.082-11.558,11.928
			c-5.221-1.15-8.403-7.789-7.761-15.881c0.335-4.217,0.652-8.453,0.577-12.676c-0.076-4.297,1.381-6.188,5.912-5.418
			c3.924,0.666,7.942,0.768,11.877,1.387c1.933,0.305,3.85,1.047,5.64,1.881c4.906,2.287,7.377,6.889,5.694,11.43
			c-1.245,3.357-5.667,5.537-8.674,8.242C358.021,813.566,357.452,813.27,356.883,812.973"/>
		<path clip-path="url(#SVGID_13_)" fill="#E6E6E6" d="M799.797,400.436c-6.327,0.331-12.529,0.95-18.725,0.884
			c-4.843-0.051-9.67-1.409-10.815-7.029c-1.128-5.534,0.443-10.081,6.427-12.322c1.351-0.506,3.052-2.312,3.132-3.608
			c0.443-7.29,6.218-8.936,11.232-9.105c5.756-0.194,8.142,5.255,8.602,10.27C800.251,386.073,799.797,392.718,799.797,400.436"/>
		<path clip-path="url(#SVGID_13_)" fill="#E6E6E6" d="M808.979,1080.18c0.477-2.703,1.119-4.674,1.125-6.646
			c0.042-16.271,2.671-13.258,14.869-10.967c4.388,0.824,8.86,3.135,12.376,5.926c2.097,1.662,3.919,6.1,3.137,8.338
			c-0.939,2.688-4.731,4.422-7.378,6.451c-2.021,1.549-4.262,2.812-6.264,4.383c-2.936,2.303-6.359,7.146-8.468,6.604
			c-3.191-0.822-5.717-5.145-7.956-8.377C809.26,1084.213,809.325,1081.686,808.979,1080.18"/>
		<path clip-path="url(#SVGID_13_)" fill="#E6E6E6" d="M242.906,390.682c-8.103-1.599-14.448-2.537-20.554-4.303
			c-1.339-0.387-2.829-3.907-2.51-5.67c0.936-5.185,2.318-10.391,4.34-15.25c1.836-4.408,5.062-7.74,10.661-7.507
			c5.764,0.24,7.935,3.643,9.089,8.732c0.42,1.85,1.988,3.851,3.6,4.943c5.417,3.67,4.211,8.824,2.268,13.074
			C248.493,387.56,244.647,389.257,242.906,390.682"/>
		<path clip-path="url(#SVGID_13_)" fill="#E6E6E6" d="M698.819,1505.682c7.643-0.824,14.565-1.906,21.521-2.211
			c5.154-0.225,9.083,2.406,10.016,7.836c0.921,5.355-1.137,8.85-6.781,10.451c-1.576,0.447-3.166,3.35-3.456,5.314
			c-0.656,4.455-1.477,8.545-6.773,9.113c-5.254,0.566-9.451-1.752-10.649-6.977
			C701.072,1522.129,700.284,1514.857,698.819,1505.682"/>
		<path clip-path="url(#SVGID_13_)" fill="#E6E6E6" d="M77.611,909.602c4.459,1.986,9.94,2.959,13.143,6.191
			c5.14,5.184,1.97,11.369-6.004,14.66c-1.871,0.771-4.168,3.262-4.263,5.068c-0.279,5.285-4.019,9.074-7.555,8.441
			c-3.735-0.67-7.918-4.822-9.748-8.52c-1.941-3.924-1.485-9.09-1.828-13.732c-0.464-6.277,1.629-10.416,8.903-10.049
			c2.206,0.111,4.44-0.361,6.662-0.568C77.151,910.598,77.381,910.1,77.611,909.602"/>
		<path clip-path="url(#SVGID_13_)" fill="#E6E6E6" d="M326.843,1124.84c6.238-4.537,12.06-8.824,17.938-13.031
			c4.473-3.199,9.188-1.697,12.015,1.631c1.967,2.316,1.596,6.738,1.964,10.25c0.255,2.438,0.228,4.961-0.096,7.389
			c-0.471,3.543-0.247,8.061-2.33,10.246c-1.868,1.959-7.02,2.703-9.734,1.586C338.142,1139.424,331.652,1133.242,326.843,1124.84"
			/>
		<path clip-path="url(#SVGID_13_)" fill="#E6E6E6" d="M411.207,611.13c7.908,1.419,10.938,6.853,9.055,14.766
			c-0.81,3.398,0.029,7.198-0.834,10.571c-0.916,3.576-2.119,8.434-4.748,9.846c-2.789,1.498-7.683,0.318-11.125-1.04
			c-2.631-1.039-4.882-3.887-6.524-6.432c-6.894-10.686-8.223-11.471,1.904-18.679C403.072,617.218,407.119,614.146,411.207,611.13"
			/>
		<path clip-path="url(#SVGID_13_)" fill="#E6E6E6" d="M333.583,431.609c2.635,9.178,1.295,14.434-3.942,16.487
			c-5.539,2.171-12.955-2.276-16.015-9.753c-1.757-4.293-3.293-8.676-4.92-12.997c6.815-3.801,13.606-7.393,20.193-11.325
			c5.226-3.119,8.682-0.558,11.074,3.516c2.541,4.33,1.725,8.565-2.78,11.567C336.087,429.841,335.007,430.619,333.583,431.609"/>
		<path clip-path="url(#SVGID_13_)" fill="#E6E6E6" d="M885.647,369.106c-7.542-1.565-13.666-2.711-19.707-4.194
			c-1.19-0.293-2.628-1.713-2.986-2.904c-1.903-6.309,3.657-20.333,9.172-23.749c5.412-3.352,12.167-0.925,14.55,4.913
			c1.258,3.082,3.819,5.716,4.679,8.856c1.113,4.065,2.087,8.65,1.209,12.584C892.094,366.716,887.608,367.923,885.647,369.106"/>
		<path clip-path="url(#SVGID_13_)" fill="#E6E6E6" d="M656.311,1080.953c1.197-8.723,1.779-16.789,3.583-24.574
			c0.983-4.246,3.998-8.357,9.577-7.402c5.194,0.891,8.188,4.031,7.316,10.021c6.279-0.311,11.143,1.297,11.871,8.047
			c0.699,6.479-2.541,10.051-10.908,11.531C671.462,1079.689,665.035,1080.021,656.311,1080.953"/>
		<path clip-path="url(#SVGID_13_)" fill="#E6E6E6" d="M84.606,1356.545c2.194,1.609,6.449,4.201,10.07,7.492
			c10.185,9.25,10.096,9.379-0.133,18.408c-2.819,2.486-5.402,5.939-8.711,6.98c-3.543,1.113-8.388,1.045-11.629-0.574
			c-4.255-2.127-2.862-6.428-1.257-10.508c1.073-2.732,0.978-6.273,0.375-9.242C71.811,1361.674,75.019,1356.605,84.606,1356.545"/>
		<path clip-path="url(#SVGID_13_)" fill="#E6E6E6" d="M113.961,317.34c-0.417,2.094-0.322,4.109-1.203,5.51
			c-1.633,2.594-3.834,6.766-5.805,6.77c-3.153,0.006-8.475-2.294-9.072-4.603c-1.955-7.569-2.355-15.571-2.888-23.437
			c-0.065-0.973,2.534-2.754,4.125-3.089c3.882-0.819,7.886-1.167,11.859-1.422c7.931-0.508,13.526,3.447,14.261,9.861
			C125.814,311.949,122.397,315.215,113.961,317.34"/>
		<path clip-path="url(#SVGID_13_)" fill="#E6E6E6" d="M444.848,1355.479c-8.201,4.801-14.918,9.287-22.159,12.637
			c-2.184,1.01-7.492-0.254-8.43-2.027c-1.608-3.045-1.106-7.312-1.098-11.064c0.006-2.346,1.149-4.709,1.048-7.031
			c-0.213-4.959-1.228-11.154,4.432-12.535c3.859-0.943,9.641,1.113,12.919,3.82C436.363,1343.24,439.694,1348.986,444.848,1355.479
			"/>
		<path clip-path="url(#SVGID_13_)" fill="#E6E6E6" d="M420.098,1056.334c4.84-6.49,7.984-11.373,11.801-15.66
			c5.04-5.66,11.589-7.062,15.604-4.043c4.419,3.322,4.144,7.336-0.735,14.795c1.873,3.449,4.526,6.486,5.16,9.898
			c1.199,6.455-4.165,11.197-10.049,8.455C434.521,1066.352,427.933,1061.275,420.098,1056.334"/>
		<path clip-path="url(#SVGID_13_)" fill="#E6E6E6" d="M209.05,497.294c-2.804,3.434-4.755,6.709-7.521,9.004
			c-4.081,3.387-9.688,2.297-10.416-2.672c-1.221-8.325-0.576-16.946-0.327-25.432c0.026-0.883,2.648-2.374,4.103-2.421
			c8.423-0.269,16.413,1.601,22.913,7.176c1.669,1.431,3.118,5.085,2.431,6.844c-1.076,2.752-3.794,5.13-6.336,6.936
			C212.504,497.719,210.046,497.21,209.05,497.294"/>
		<path clip-path="url(#SVGID_13_)" fill="#E6E6E6" d="M625.279,259.36c0.11,0.424,0.094,0.723,0.23,0.834
			c4.647,3.767,8.203,7.978,3.994,14.084c-3.256,4.723-8.594,4.65-16.073,0.324c-4.608-2.665-9.278-5.222-15.089-8.485
			c5.054-6.875,9.453-13.467,14.504-19.516c3.433-4.11,8.501-6.04,13.006-2.018c4.257,3.8,3.761,8.709,0.069,13.137
			C625.528,258.19,625.445,258.917,625.279,259.36"/>
		<path clip-path="url(#SVGID_13_)" fill="#E6E6E6" d="M354.089,513.162c5.991-5.266,10.379-9.344,15.007-13.129
			c4.754-3.889,10.325-3.761,14.832-0.333c4.014,3.053,5.074,7.615,1.245,12.318c-0.741,0.91,0.468,3.194,0.215,4.754
			c-0.664,4.105-0.371,9.601-2.872,11.799c-2.154,1.893-8.555,1.406-11.448-0.501C364.917,524.017,359.827,518.357,354.089,513.162"
			/>
		<path clip-path="url(#SVGID_13_)" fill="#E6E6E6" d="M450.649,441.596c3.113-3.896,7.131-9.441,11.7-14.488
			c4.487-4.956,9.848-5.361,13.903-1.775c4.273,3.779,3.975,7.186-1.128,13.209c-0.278,0.327-0.41,0.776-0.605,1.173
			c1.808,2.579,5.226,5.281,5.036,7.701c-0.29,3.708-2.377,9.496-4.95,10.274c-3.673,1.111-9.274-0.404-12.594-2.809
			C457.697,451.753,454.812,446.652,450.649,441.596"/>
		<path clip-path="url(#SVGID_13_)" fill="#E6E6E6" d="M832.643,470.778c0.599-4.74,1.413-8.268,1.406-11.793
			c-0.012-5.707,2.745-7.903,7.886-6.381c6.065,1.796,12.198,3.782,17.737,6.74c2.385,1.274,5.286,6.042,4.547,7.737
			c-1.38,3.162-5.175,5.329-8.109,7.735c-1.951,1.599-4.155,2.889-6.242,4.323c-2.882,1.979-5.796,5.536-8.63,5.472
			c-2.477-0.056-5.44-3.838-7.108-6.622C832.747,475.681,832.938,472.43,832.643,470.778"/>
		<path clip-path="url(#SVGID_13_)" fill="#E6E6E6" d="M432.937,742.291c4.008-4.748,1.797-11.415,2.455-17.763
			c0.24-2.319,3.041-5.852,5.088-6.171c3.342-0.52,8.008,0.035,10.353,2.118c4.567,4.059,8.014,9.417,11.679,14.418
			c0.689,0.939,0.8,3.595,0.211,3.98c-6.763,4.423-13.36,9.398-20.728,12.499C436.438,753.71,432.964,749.925,432.937,742.291"/>
		<path clip-path="url(#SVGID_13_)" fill="#E6E6E6" d="M570.967,875.375c4.434-5.797,8.831-12.322,14.069-18.086
			c2.894-3.186,7.819-6.318,11.595-2.238c2.336,2.523,3.273,7.732,2.562,11.279c-0.651,3.238-0.707,5.023,1.544,7.389
			c4.147,4.357,3.876,9.602-0.888,12.564c-3.133,1.945-8.716,2.641-11.943,1.156C582.134,884.787,577.313,880.066,570.967,875.375"
			/>
		<path clip-path="url(#SVGID_13_)" fill="#E6E6E6" d="M682.861,468.683c-0.532-9.731-1.55-18.824,3.829-26.877
			c4.817-7.213,11.61-6.431,16.022,1.298c0.925,1.623,3.216,2.405,4.486,3.906c2.215,2.619,5.831,5.565,5.722,8.245
			c-0.131,3.205-2.964,8.202-5.67,9.036C699.589,466.65,691.396,467.281,682.861,468.683"/>
		<path clip-path="url(#SVGID_13_)" fill="#E6E6E6" d="M626.078,1203.773c-8.32,0.381-15.607,0.299-22.335-4.303
			c-6.871-4.699-7.119-11.664-0.401-16.426c2.446-1.734,3.928-4.775,6.251-6.748c2.618-2.225,5.919-5.707,8.498-5.373
			c2.976,0.387,6.603,3.861,7.915,6.877c1.562,3.594,1.258,8.127,1.223,12.248C627.193,1194.424,626.525,1198.793,626.078,1203.773"
			/>
		<path clip-path="url(#SVGID_13_)" fill="#E6E6E6" d="M533.938,1400.342c6.832,1.789,9.853,5.764,8.752,11.422
			c-0.998,5.123-6.643,9.139-12.626,8.373c-5.217-0.668-10.4-1.818-15.473-3.215c-1.111-0.307-2.584-2.73-2.359-3.881
			c1.133-5.814,2.419-11.65,4.339-17.244c1.721-5.02,5.068-9.41,11.102-8.381c5.955,1.016,6.112,6.168,5.904,11.053
			C533.55,1399.1,533.815,1399.744,533.938,1400.342"/>
		<path clip-path="url(#SVGID_13_)" fill="#E6E6E6" d="M591.308,1334.447c1.294-10.398,3.031-19.609,8.952-26.971
			c1.976-2.457,8.46-4.502,10.241-3.178c2.966,2.203,3.8,7.275,5.102,10.18c2.967,3.809,7.449,6.973,7.671,10.412
			c0.405,6.289-5.351,8.92-10.897,9.418C605.84,1334.896,599.21,1334.447,591.308,1334.447"/>
		<path clip-path="url(#SVGID_13_)" fill="#E6E6E6" d="M633.656,981.279c0.629-6.588,4.733-11.729,8.733-11.549
			c4.791,0.215,9.7,7.123,9.487,14.346c-0.15,5.037-0.988,10.105-2.109,15.027c-0.301,1.326-2.721,3.006-4.225,3.064
			c-4.611,0.178-9.269-0.16-13.87-0.652c-6.588-0.707-9.298-5.443-8.985-11.191C623.014,984.324,626.635,980.529,633.656,981.279"/>
		<path clip-path="url(#SVGID_13_)" fill="#E6E6E6" d="M712.357,888.303c7.615-0.291,15.211-1.1,22.736-0.674
			c4.5,0.256,7.422,3.762,7.754,8.646c0.347,5.105-2.548,7.418-7.039,9.096c-1.878,0.701-3.954,3.262-4.276,5.248
			c-0.704,4.346-1.802,8.156-6.7,8.469c-4.856,0.309-8.917-1.973-9.99-7.037c-0.996-4.709-1.117-9.604-1.606-14.418
			C712.976,895.064,712.751,892.49,712.357,888.303"/>
		<path clip-path="url(#SVGID_13_)" fill="#E6E6E6" d="M398.117,319.375c3.756-8.797,6.593-10.867,11.534-8.88
			c5.698,2.291,7.811,8.726,5.51,15.787c-1.841,5.65-3.307,11.423-5.017,17.413c-6.865-2.201-13.574-3.674-19.642-6.516
			c-4.739-2.219-6.713-6.92-5.068-12.423C387.412,318.145,392.522,318.345,398.117,319.375"/>
		<path clip-path="url(#SVGID_13_)" fill="#E6E6E6" d="M771.619,1442.729c4.812-7.072,8.889-14.279,14.258-20.34
			c2.103-2.377,7.218-3.129,10.735-2.713c1.467,0.174,2.387,5.303,3.481,8.205c0.712,1.891,0.73,4.424,2.026,5.645
			c4.517,4.25,3.523,8.863,1.271,13.387c-2.528,5.078-7.617,4.625-11.794,3.463C785.374,1448.646,779.462,1445.803,771.619,1442.729
			"/>
		<path clip-path="url(#SVGID_13_)" fill="#E6E6E6" d="M171.122,241.763c4.539-6.569,8.208-12.849,12.906-18.23
			c2.032-2.326,6.123-3.647,9.398-3.902c4.586-0.358,7.986,4.291,6.491,8.524c-1.244,3.521-0.594,5.385,2.128,7.939
			c1.612,1.512,2.419,5.633,1.514,7.653c-1.262,2.817-4.155,6.248-6.889,6.815C187.5,252.461,180.112,247.453,171.122,241.763"/>
		<path clip-path="url(#SVGID_13_)" fill="#E6E6E6" d="M129.079,753.329c-6.777,5.794-12.648,11.771-19.525,16.182
			c-2.475,1.586-8.123,0.539-10.975-1.346c-3.871-2.559-2.278-6.803-0.21-10.717c1.148-2.174,0.47-5.263,0.845-7.906
			c0.525-3.701,0.099-8.559,2.27-10.692c1.834-1.802,7.679-1.811,10.181-0.192C117.683,742.554,122.782,747.87,129.079,753.329"/>
		<path clip-path="url(#SVGID_13_)" fill="#E6E6E6" d="M227.25,1516.824c4.842-5.602,8.666-10.516,13.015-14.91
			c3.723-3.766,8.446-6.668,13.685-3.191c4.811,3.193,5.307,7.691,2.044,12.77c-0.792,1.232,0.322,3.578,0.236,5.396
			c-0.198,4.213,0.895,9.6-1.277,12.328c-2.905,3.65-8.536,3.527-12.741,0.227C237.203,1525.51,232.458,1521.242,227.25,1516.824"/>
		<path clip-path="url(#SVGID_13_)" fill="#E6E6E6" d="M878.684,1481.58c5.622-5.986,10.338-10.643,14.616-15.672
			c3.825-4.498,8.912-4.652,12.389-1.648c2.431,2.102,2.447,7.234,3.083,11.088c0.422,2.561-0.884,5.738,0.198,7.787
			c2.305,4.361,1.793,8.451-1.677,10.719c-2.678,1.75-7.778,2.66-10.285,1.25C890.549,1491.467,884.931,1486.338,878.684,1481.58"/>
		<path clip-path="url(#SVGID_13_)" fill="#E6E6E6" d="M738.742,275.119c8.345,0,15.348-0.163,22.338,0.053
			c5.343,0.165,7.208,4.26,7.565,8.626c0.369,4.507-1.124,8.212-6.606,9.284c-1.575,0.308-3.541,2.893-3.827,4.674
			c-0.74,4.618-2.179,8.185-7.333,8.874c-5.55,0.742-8.777-2.605-9.621-7.27C739.925,291.995,739.646,284.439,738.742,275.119"/>
		<path clip-path="url(#SVGID_13_)" fill="#E6E6E6" d="M292.763,1311.566c2.483-5.824,3.67-12.373,11.749-10.77
			c4.961,0.984,7.834,6.613,7.23,14.768c-0.407,5.479-1.549,10.9-2.523,17.428c-7.453-1.441-14.986-2.002-21.717-4.625
			c-2.844-1.109-5.769-6.686-5.524-9.998C282.387,1312.842,286.407,1309.17,292.763,1311.566"/>
		<path clip-path="url(#SVGID_13_)" fill="#E6E6E6" d="M138.318,854.219c5.516-7.01,9.949-13.543,15.341-19.154
			c3.145-3.271,8.473-6.309,12.476-2.367c2.38,2.342,1.974,7.514,1.857,11.705c3.815,3.309,7.087,7.168,3.816,12.818
			c-3.193,5.52-8.112,7.301-14.277,4.75C151.883,859.637,146.198,857.393,138.318,854.219"/>
		<path clip-path="url(#SVGID_13_)" fill="#E6E6E6" d="M552.148,781.049c6.229,0.133,9.304,3.193,8.374,9.682
			c-0.798,5.562-6.487,10.381-12.391,9.75c-5.254-0.562-10.517-1.539-15.587-2.996c-1.208-0.346-2.609-3.529-2.287-5.064
			c1.128-5.379,2.932-10.619,4.55-15.893c1.724-5.611,5.712-8.884,11.433-8.216c6.006,0.701,5.477,5.98,5.543,10.451
			C551.793,779.41,551.984,780.055,552.148,781.049"/>
		<path clip-path="url(#SVGID_13_)" fill="#E6E6E6" d="M484.401,969.15c8.144-6.711,14.242-12.262,20.955-16.93
			c1.858-1.291,6.819-1.041,8.07,0.436c1.653,1.953,1.865,5.998,1.216,8.801c-0.795,3.432-1.401,5.922,0.5,9.537
			c1.519,2.885,1.504,8.291-0.301,10.801c-2.603,3.623-7.378,4.459-11.809,1.012C497.465,978.477,491.661,974.447,484.401,969.15"/>
		<path clip-path="url(#SVGID_13_)" fill="#E6E6E6" d="M624.941,716.735c-14.257-0.062-15.802,1.124-10.303-14.605
			c1.873-5.355,5.274-10.804,9.458-14.559c4.908-4.404,10.038-0.943,10.42,5.79c0.128,2.262,1.053,5.25,2.688,6.486
			c3.015,2.282,7.269,3.451,5.857,8.382c-1.493,5.211-5.268,8.124-10.754,8.48C629.862,716.867,627.397,716.735,624.941,716.735"/>
		<path clip-path="url(#SVGID_13_)" fill="#E6E6E6" d="M379.607,953.76c-5.852-1.785-11.812-3.303-17.541-5.439
			c-5.258-1.959-8.303-5.631-7.246-11.846c0.95-5.59,4.71-6.707,9.51-7.248c1.872-0.211,4.075-1.59,5.245-3.113
			c2.92-3.807,6.09-6.848,11.151-4.951c3.601,1.35,6.28,9.756,4.899,14.15C383.715,941.391,381.679,947.43,379.607,953.76"/>
		<path clip-path="url(#SVGID_13_)" fill="#E6E6E6" d="M665.668,392.154c-4.56-2.243-9.913-3.626-13.494-6.93
			c-5.511-5.083-2.554-13.252,4.568-15.775c1.943-0.689,3.251-3.079,4.942-4.587c2.539-2.263,5.16-6.166,7.74-6.162
			c2.573,0.005,6.422,3.515,7.4,6.299c1.38,3.928,0.76,8.604,0.723,12.958c-0.013,1.487-1.406,3.043-1.215,4.437
			c1.13,8.249-3.195,9.627-10.115,8.041C666.033,391.008,665.851,391.581,665.668,392.154"/>
		<path clip-path="url(#SVGID_13_)" fill="#E6E6E6" d="M649.071,590.771c-8.199-2.157-15.287-3.014-21.429-5.891
			c-7.765-3.636-7.278-12.201-0.116-16.81c2.445-1.574,3.831-4.718,6.148-6.593c2.495-2.019,5.599-4.796,8.279-4.634
			c2.481,0.151,6.579,3.577,6.793,5.859C649.556,571.303,649.071,580.025,649.071,590.771"/>
		<path clip-path="url(#SVGID_13_)" fill="#E6E6E6" d="M813.889,814.676c1.044,2.232,1.829,4.639,3.189,6.66
			c2.619,3.891,3.894,8.281,0.445,11.586c-2.482,2.377-6.819,4.242-10.139,3.977c-4.667-0.373-9.137-3-13.731-4.541
			c-5.308-1.781-5.467-5.654-3.167-9.459c3.181-5.262,6.552-10.686,11.003-14.781c2.141-1.969,7.136-1.883,10.454-1.098
			c1.71,0.404,2.576,4.377,3.824,6.738C815.141,814.062,814.515,814.369,813.889,814.676"/>
		<path clip-path="url(#SVGID_13_)" fill="#E6E6E6" d="M892.407,871.24c5.336-6.369,9.721-12.211,14.772-17.404
			c3.012-3.098,7.125-3.496,10.832-0.365c3.676,3.105,4.496,6.627,2.464,11.23c-0.881,1.998,0.01,4.715-0.218,7.076
			c-0.353,3.65,0.205,8.35-1.836,10.588c-1.806,1.98-7.539,2.76-9.945,1.35C902.326,880.107,897.063,874.984,892.407,871.24"/>
		<path clip-path="url(#SVGID_13_)" fill="#E6E6E6" d="M331.899,715.699c-7.082-1.045-13.847-0.91-19.542-3.311
			c-3.373-1.422-6.622-6.647-7.122-10.524c-0.698-5.403,3.579-7.677,10.85-7.443c0.24-0.267,0.696-0.546,0.803-0.926
			c1.564-5.479,3.943-10.578,10.767-9.14c6.257,1.32,7.042,6.964,6.72,12.193C333.998,702.686,332.833,708.776,331.899,715.699"/>
		<path clip-path="url(#SVGID_13_)" fill="#E6E6E6" d="M540.587,355.557c5.795,5.378,6.733,10.912,2.974,14.782
			c-4.593,4.726-12.853,3.857-18.479-2.053c-2.863-3.006-5.56-6.17-9.084-10.102c4.337-4.835,8.53-10.248,13.504-14.811
			c3.692-3.388,9.291-5.6,13.227-1.517C546.733,346.01,545.172,351.34,540.587,355.557"/>
		<path clip-path="url(#SVGID_13_)" fill="#E6E6E6" d="M957.206,1302.23c-6.389-1.008-12.59-1.553-18.547-3.064
			c-4.596-1.164-8.608-3.736-8.667-9.531c-0.058-5.752,3.059-8.27,8.403-9.291c1.447-0.277,2.42-2.547,3.823-3.627
			c2.804-2.162,5.696-5.6,8.666-5.721c2.363-0.096,6.002,3.525,7.071,6.273c1.332,3.424,0.856,7.658,0.701,11.525
			C958.49,1292.945,957.789,1297.072,957.206,1302.23"/>
		<path clip-path="url(#SVGID_13_)" fill="#E6E6E6" d="M756.31,1342.979c-4.131,4.33-8.29,9.164-12.961,13.439
			c-3.838,3.512-8.814,6.582-13.76,3.09c-4.819-3.402-3.576-8.406-0.865-13.121c0.724-1.26,0.467-3.307,0.158-4.895
			c-0.919-4.719-3.023-9.713,2.094-13.24c5.656-3.896,10.337-0.127,14.376,3.119C749.223,1334.482,752.271,1338.615,756.31,1342.979
			"/>
		<path clip-path="url(#SVGID_13_)" fill="#E6E6E6" d="M774.927,728.674c-5.256,4.962-9.716,9.483-14.538,13.58
			c-2.097,1.781-4.838,3.433-7.466,3.778c-2.556,0.337-6.524-0.236-7.72-1.928c-1.436-2.035-1.521-6.048-0.522-8.534
			c1.444-3.59,3.188-6.233,1.446-10.667c-1.069-2.721,0.342-8.747,2.425-9.818c2.996-1.542,8.396-1.2,11.376,0.62
			C765.313,718.997,769.666,723.976,774.927,728.674"/>
		<path clip-path="url(#SVGID_13_)" fill="#E6E6E6" d="M840.438,208.325c0.869,2.088,2.124,4.106,2.521,6.28
			c0.667,3.657,2.289,8.346,0.72,10.866c-1.597,2.567-6.749,4.514-10.007,4.096c-5.361-0.687-10.548-3.275-15.619-5.496
			c-3.219-1.411-4.951-4.166-2.345-7.5c4.159-5.32,8.149-10.923,13.127-15.382c2.092-1.873,6.883-2.19,9.764-1.208
			c1.872,0.638,2.51,4.897,3.701,7.533C841.68,207.785,841.06,208.054,840.438,208.325"/>
		<path clip-path="url(#SVGID_13_)" fill="#E6E6E6" d="M278.433,283.792c4.047-4.292,8.048-8.628,12.154-12.861
			c3.972-4.093,11.136-5.489,14.414-2.433c4.096,3.816,3.325,8.133,0.519,12.591c-0.695,1.106-0.411,3.342,0.224,4.679
			c2.334,4.916,1.924,9.827-2.497,12.48c-4.16,2.495-9.33,2.296-13.601-1.363c-4.354-3.729-8.837-7.307-13.264-10.951
			L278.433,283.792z"/>
		<path clip-path="url(#SVGID_13_)" fill="#E6E6E6" d="M455.314,1483.943c-4.138-0.586-9.022-0.984-13.727-2.129
			c-1.305-0.316-3.238-3.191-2.904-4.291c2.11-6.932,4.38-13.885,7.49-20.404c0.983-2.061,5.425-4.488,7.021-3.805
			c3.097,1.328,6.366,4.322,7.579,7.406c1.306,3.318,1.892,6.051,5.434,8.145c1.882,1.113,3.522,6.221,2.528,7.844
			c-1.871,3.055-5.633,5.041-8.826,7.141C458.983,1484.459,457.318,1483.943,455.314,1483.943"/>
		<path clip-path="url(#SVGID_13_)" fill="#E6E6E6" d="M942.699,263.994c4.394,4.344,5.988,9.151,0.853,13.831
			c-4.665,4.25-10.419,3.221-15.987-2.328c-11.004-10.966-11.004-10.966,0.054-21.717c0.481-0.468,0.928-0.974,1.433-1.413
			c4.123-3.597,8.803-7.851,14.08-3.566C948.458,253.125,946.255,258.834,942.699,263.994"/>
		<path clip-path="url(#SVGID_13_)" fill="#E6E6E6" d="M246.697,894.57c5.534-5.229,10.725-10.213,16.007-15.096
			c4.222-3.904,8.455-2.32,11.798,0.988c3.696,3.66,1.029,7.322-1.259,10.678c-0.356,0.52-0.803,0.979,0.76,1.602
			c0,4.67,1.214,9.865-0.49,13.795c-0.911,2.104-7.496,3.68-10.377,2.557c-4.687-1.826-8.525-5.955-12.534-9.332
			C249.158,898.545,248.254,896.688,246.697,894.57"/>
		<path clip-path="url(#SVGID_13_)" fill="#E6E6E6" d="M482.321,252.237c3.602-8.95,5.933-16.123,9.43-22.674
			c1.201-2.25,5.64-4.465,8.014-3.957c2.819,0.603,5.145,4.03,7.418,6.48c1.733,1.868,3.371,3.966,4.469,6.244
			c1.248,2.587,3.316,6.215,2.391,8.083c-1.456,2.938-4.972,6.502-7.877,6.751C498.849,253.793,491.384,252.717,482.321,252.237"/>
		<path clip-path="url(#SVGID_13_)" fill="#E6E6E6" d="M454.616,861.254c1.856-6.201,2.84-11.496,5.049-16.217
			c1.691-3.613,4.344-7.463,7.629-9.477c4.205-2.578,10.702,1.217,11.109,6.238c0.315,3.879,1.618,5.803,5.012,7.564
			c3.603,1.873,3.139,8.967-0.931,11.271c-3.317,1.877-7.425,3.322-11.159,3.275C465.87,863.838,460.436,862.256,454.616,861.254"/>
		<path clip-path="url(#SVGID_13_)" fill="#E6E6E6" d="M256.181,1203.389c-5.449-3.256-9.783-6.391-14.561-8.543
			c-4.68-2.109-6.404-5.895-5.707-10.031c0.778-4.607,4.647-6.443,9.523-6.51c2.276-0.033,4.465-1.977,6.812-2.406
			c3.614-0.66,8.8-2.371,10.638-0.695c2.399,2.186,3.814,7.801,2.74,10.947C263.535,1192.283,259.42,1197.727,256.181,1203.389"/>
		<path clip-path="url(#SVGID_13_)" fill="#E6E6E6" d="M904.419,1174.445c-5.626-3.297-10.613-6.166-15.548-9.125
			c-4.537-2.721-5.649-6.723-3.808-11.516c1.778-4.629,5.24-5.398,9.811-4.371c1.526,0.342,3.705-0.559,5.088-1.572
			c3.522-2.578,6.8-5.34,11.247-1.873c4.6,3.586,3.849,8.615,2.159,12.773C911.148,1164.229,907.535,1169.127,904.419,1174.445"/>
		<path clip-path="url(#SVGID_13_)" fill="#E6E6E6" d="M925.224,566.42c-5.011-2.961-9.424-5.52-13.786-8.163
			c-4.244-2.57-6.47-6.482-5.134-11.247c1.255-4.475,4.286-7.057,9.669-5.538c1.587,0.448,3.908-0.439,5.467-1.403
			c3.833-2.369,8.385-6.167,11.43-0.93c2.027,3.483,1.788,9.298,0.503,13.429C931.846,557.483,928.113,561.712,925.224,566.42"/>
		<path clip-path="url(#SVGID_13_)" fill="#E6E6E6" d="M283.001,588.459c-5.703-3.533-11.074-5.999-15.249-9.785
			c-2.322-2.106-4.577-7.625-3.431-9.444c1.77-2.807,6.467-3.789,9.952-5.486c1.779-0.866,3.888-1.267,5.38-2.463
			c3.551-2.843,7.779-4.226,10.845-0.931c2.021,2.171,3.175,7.041,2.166,9.755C290.312,576.435,286.42,582.193,283.001,588.459"/>
	</g>
</g>
<g>
	<g>
		<defs>
			<rect id="SVGID_14_" x="951.04" y="144.387" width="915.37" height="1373.061"/>
		</defs>
		<clipPath id="SVGID_15_">
			<use xlink:href="#SVGID_14_"  overflow="visible"/>
		</clipPath>
		<path clip-path="url(#SVGID_15_)" fill="#E6E6E6" d="M951.086,612.733c7.73-2.981,12.91,0.476,17.752,6.305
			c9.926,11.948,9.859,11.655,1.135,24.205c-4.783,6.882-11.17,8.801-18.887,8.407V612.733z"/>
		<path clip-path="url(#SVGID_15_)" fill="#E6E6E6" d="M951.086,176.597c8.339-4.33,10.965-3.769,16.975,3.591
			c0.689,0.846,1.469,1.62,2.197,2.436c9.045,10.118,9.297,13.414-1.109,21.707c-4.959,3.949-9.998,10.056-18.062,7.157V176.597z"/>
		<path clip-path="url(#SVGID_15_)" fill="#E6E6E6" d="M1478.536,144.39c0.673,1.974,0.808,5.124,2.11,5.719
			c5.759,2.628,7.992,7.645,3.587,12.531c-2.739,3.038-7.772,4.019-11.801,5.867c-0.335,0.154-0.874-0.091-1.304-0.2
			c-18.982-4.82-17.641-0.163-11.523-20.939c0.308-1.048,0.98-1.988,1.484-2.978H1478.536z"/>
		<path clip-path="url(#SVGID_15_)" fill="#E6E6E6" d="M1866.406,670.437c-4.599-0.843-9.227-1.552-13.787-2.565
			c-4.895-1.087-8.794-3.592-8.945-9.163c-0.151-5.556,2.925-8.5,8.44-9.359c1.435-0.224,3.315-1.577,3.849-2.879
			c1.969-4.825,5.715-6.497,10.443-6.899V670.437z"/>
		<path clip-path="url(#SVGID_15_)" fill="#E6E6E6" d="M1866.406,406.071c-6.835,0.872-10.92-2.963-13.726-8.435
			c-2.31-4.504-4.136-9.256-6.532-14.706c6.624-3.841,13.441-7.796,20.258-11.75V406.071z"/>
		<path clip-path="url(#SVGID_15_)" fill="#E6E6E6" d="M1175.219,144.39c0.688,1.092,1.377,2.184,2.079,3.298
			c-5.33,4.996-10.351,10.663-16.378,14.897c-2.555,1.795-7.837,1.851-10.779,0.426c-3.979-1.928-4.178-6.542-1.755-10.483
			c1.601-2.604,4.362-4.844,1.333-8.138H1175.219z"/>
		<path clip-path="url(#SVGID_15_)" fill="#E6E6E6" d="M951.086,444.988c4.211,1.111,8.896,1.275,9.807,7.219
			c1.21,7.9-4.161,10.422-9.807,12.91V444.988z"/>
		<path clip-path="url(#SVGID_15_)" fill="#E6E6E6" d="M1866.406,1387.041c-6.812-9.273-5.891-19.898-4.992-30.412
			c0.062-0.734,3.256-1.201,4.992-1.795V1387.041z"/>
		<path clip-path="url(#SVGID_15_)" fill="#E6E6E6" d="M951.086,1513.186c5.209,0.287,11.035-1.691,14.764,4.025
			c-3.804,0-7.681-0.467-11.389,0.123C950.197,1518.014,951.15,1515.406,951.086,1513.186"/>
		<path clip-path="url(#SVGID_15_)" fill="#E6E6E6" d="M1584.812,1243.15c-9.552-0.377-13.205-6.713-8.965-14.197
			c1.982-3.498,2.146-6.131-0.097-9.695c-3.181-5.055-2.552-10.398,2.208-14.352c4.642-3.857,9.421-2.086,13.287,1.396
			c4.412,3.975,8.365,8.473,12.348,12.895c0.759,0.844,1.416,2.939,0.945,3.549c-5.09,6.584-10.303,13.084-15.785,19.342
			C1587.811,1243.166,1585.447,1242.998,1584.812,1243.15"/>
		<path clip-path="url(#SVGID_15_)" fill="#E6E6E6" d="M1604.454,629.323c-7.952-0.598-11.28-5.76-8.054-13.326
			c1.77-4.151,3.219-7.382-0.004-12.071c-2.633-3.833-1.317-9.091,2.76-12.577c3.807-3.253,8.02-3.024,11.479,0.093
			c5.084,4.581,9.758,9.635,14.358,14.712c0.677,0.746,0.522,3.097-0.157,4.078c-3.652,5.28-7.221,10.714-11.601,15.356
			C1611.235,627.708,1607.437,628.131,1604.454,629.323"/>
		<path clip-path="url(#SVGID_15_)" fill="#E6E6E6" d="M1423.224,1249.238c-3.5,4.264-5.929,8.186-9.27,11.043
			c-4.083,3.492-7.683,1.166-9.748-2.924c-4.323-8.568-3.765-17.717-2.359-26.846c0.149-0.971,1.198-2.648,1.681-2.598
			c7.571,0.803,15.155-4.324,22.696,0.053c5.388,3.127,7.085,7.701,5.386,13.578
			C1430.191,1246.447,1427.57,1249.953,1423.224,1249.238"/>
		<path clip-path="url(#SVGID_15_)" fill="#E6E6E6" d="M1553.49,1402.479c-4.06-8.262-3.57-13.863,1.072-17.15
			c4.7-3.328,9.415-2.375,12.74,1.084c4.777,4.975,8.509,10.957,12.688,16.508c-6.65,6.24-12.96,12.934-20.193,18.404
			c-1.82,1.377-7.184-0.299-9.879-2.115c-3.55-2.391-3.328-6.432-0.763-10.062
			C1550.685,1406.984,1552.051,1404.705,1553.49,1402.479"/>
		<path clip-path="url(#SVGID_15_)" fill="#E6E6E6" d="M1022.241,1015.904c-9.458,0-17.836,0.42-26.122-0.268
			c-2.356-0.193-6.23-3.561-6.277-5.549c-0.092-3.773,1.082-8.553,3.568-11.156c2.861-2.996,5.495-5.227,7.055-9.543
			c1.035-2.867,6.797-6.211,9.754-5.658c3.803,0.711,8.947,4.553,9.902,8.037C1022.066,998.857,1021.592,1006.611,1022.241,1015.904
			"/>
		<path clip-path="url(#SVGID_15_)" fill="#E6E6E6" d="M1091.941,1278.186c1.361,1.5,2.309,2.434,3.131,3.467
			c3.824,4.809,3.186,9.861-0.508,14.035c-3.904,4.414-9.275,2.316-12.848-0.193c-5.146-3.613-9.335-8.625-13.771-13.197
			c-2.521-2.598-2.906-5.465,0.17-8.098c5.031-4.303,9.695-9.188,15.229-12.705c3.999-2.541,9.757-2.764,12.732,1.697
			c2.656,3.984,2.107,8.961-2.016,12.646C1093.422,1276.408,1092.902,1277.111,1091.941,1278.186"/>
		<path clip-path="url(#SVGID_15_)" fill="#E6E6E6" d="M1423.067,629.266c2.147-22.708-0.414-16.38,19.526-18.909
			c5.131-0.65,11.597,4.916,12.095,9.283c0.812,7.119-1.929,10.86-8.745,13.34c-1.846,0.672-3.72,3.013-4.333,4.977
			c-1.481,4.739-4.315,7.016-9.184,7.13c-5.388,0.128-6.421-3.99-7.577-7.811C1423.964,634.34,1423.502,631.275,1423.067,629.266"/>
		<path clip-path="url(#SVGID_15_)" fill="#E6E6E6" d="M1742.931,1247.916c7.383,8.693,7.146,13.66-0.707,17.584
			c-1.756,0.877-4.873,1.459-6.118,0.521c-6.473-4.871-12.735-10.078-18.559-15.699c-0.936-0.906-0.091-5.316,1.316-6.68
			c4.432-4.301,9.435-8.041,14.389-11.77c3.908-2.943,8.122-3.723,12.148-0.088c4.01,3.621,2.597,7.602,0.479,11.51
			C1745.051,1244.824,1744.011,1246.238,1742.931,1247.916"/>
		<path clip-path="url(#SVGID_15_)" fill="#E6E6E6" d="M1054.816,1220.42c-6.464-1.973-12.697-3.055-18.035-5.848
			c-2.746-1.436-5.736-6.213-5.302-8.957c0.549-3.467,4.358-6.5,6.983-9.525c1.824-2.102,3.877-4.072,6.096-5.746
			c2.482-1.873,5.279-4.652,7.914-4.625c2.686,0.027,7.297,2.641,7.665,4.723c1.491,8.434,2.012,17.1,1.991,25.676
			C1062.127,1217.504,1057.562,1218.879,1054.816,1220.42"/>
		<path clip-path="url(#SVGID_15_)" fill="#E6E6E6" d="M1117.151,661.384c1.427,1.898,3.149,3.14,3.144,4.374
			c-0.019,4.373,0.742,9.635-1.372,12.879c-2.404,3.685-7.335,2.91-11.083-0.38c-4.746-4.166-9.846-7.94-14.455-12.245
			c-2.905-2.713-3.676-5.801,0.306-8.842c4.011-3.062,7.36-7.032,11.498-9.88c6.888-4.74,13.567-5.039,16.192-0.634
			C1124.738,652.291,1122.193,657.24,1117.151,661.384"/>
		<path clip-path="url(#SVGID_15_)" fill="#E6E6E6" d="M1569.835,785.678c-0.856-4.889-2.208-8.469-1.935-11.92
			c0.517-6.548,7.645-10.41,12.615-6.406c5.566,4.484,9.951,10.476,14.609,16.013c0.697,0.828,0.694,3.387-0.019,4.076
			c-5.214,5.043-10.454,10.119-16.171,14.562c-3.943,3.064-8.914,3.65-12.486-0.668c-3.88-4.693-2.706-9.539,1.4-13.752
			C1568.766,786.643,1569.746,785.764,1569.835,785.678"/>
		<path clip-path="url(#SVGID_15_)" fill="#E6E6E6" d="M952.982,1152.146c7.428-7.301,13.835-14.473,21.278-20.326
			c1.938-1.523,7.632,0.186,10.667,1.984c4.048,2.398,2.801,6.471,0.514,9.994c-1.08,1.662-1.996,3.43-2.877,4.961
			c1.482,2.023,4.029,3.932,4.066,5.887c0.07,3.674-0.279,8.264-2.436,10.766c-1.563,1.814-7.029,2.225-9.517,0.912
			C967.668,1162.625,961.297,1157.713,952.982,1152.146"/>
		<path clip-path="url(#SVGID_15_)" fill="#E6E6E6" d="M1658.396,989.93c-3.756,0-6.429,0.162-9.074-0.035
			c-5.138-0.381-9.102-3.492-8.662-8.297c0.342-3.742,3.721-7.277,6.004-10.738c1.103-1.674,3.904-2.883,4.017-4.441
			c0.51-7.074,4.983-9.051,10.83-8.91c6.574,0.156,9.038,5.115,9.969,10.615c0.878,5.188,1.278,10.531,1.111,15.781
			c-0.052,1.664-2.331,4.162-4.068,4.68C1664.963,989.646,1661.08,989.625,1658.396,989.93"/>
		<path clip-path="url(#SVGID_15_)" fill="#E6E6E6" d="M1105.158,1357.447c0.502,0.229,3.169,0.686,4.626,2.262
			c4.062,4.391,7.855,9.082,11.241,14.01c1.116,1.625,1.723,5.35,0.743,6.367c-4.731,4.924-9.997,9.354-15.241,13.76
			c-3.941,3.312-8.178,2.166-11.587-0.705c-3.392-2.854-3.035-6.723-0.664-10.262c2.147-3.203,2.531-5.738,0.301-9.615
			C1089.879,1365.096,1094.367,1357.561,1105.158,1357.447"/>
		<path clip-path="url(#SVGID_15_)" fill="#E6E6E6" d="M1264.722,157.291c9.161,1.467,15.974,2.25,22.634,3.716
			c5.955,1.31,6.553,6.62,7.061,11.521c0.503,4.845-1.971,7.168-6.736,8.156c-1.752,0.363-3.686,2.688-4.425,4.558
			c-2.095,5.292-5.392,9.21-11.261,8.385c-5.961-0.837-7.148-6.038-7.237-11.192
			C1264.622,174.492,1264.722,166.544,1264.722,157.291"/>
		<path clip-path="url(#SVGID_15_)" fill="#E6E6E6" d="M1090.125,590.308c0,2.447,0.665,5.163-0.188,7.264
			c-0.842,2.072-3.074,4.807-4.949,5.02c-8.071,0.917-15.951-0.351-22.664-5.417c-5.163-3.897-4.298-10.947,1.293-15.227
			c3.544-2.714,6.412-6.325,10.012-8.944c2.34-1.701,5.741-3.645,8.139-3.11c2.707,0.603,5.978,3.44,6.936,6.061
			c1.623,4.438,1.622,9.471,2.305,14.253C1090.713,590.241,1090.419,590.274,1090.125,590.308"/>
		<path clip-path="url(#SVGID_15_)" fill="#E6E6E6" d="M1753.798,1362.834c-8.346-0.4-11.171-6.18-8.971-13.246
			c0.837-2.689,0.598-6.299-0.526-8.891c-2.414-5.564-1.859-10.457,2.628-13.598c4.521-3.164,11.17-2.793,14.663,1.244
			c3.915,4.523,7.561,9.295,11.062,14.148c0.668,0.926,0.721,3.271,0.03,4.039c-4.438,4.949-8.996,9.822-13.89,14.312
			C1757.188,1362.32,1754.468,1362.586,1753.798,1362.834"/>
		<path clip-path="url(#SVGID_15_)" fill="#E6E6E6" d="M1479.773,452.466c6.529-0.764,11.043,2.774,11.848,8.194
			c0.49,3.309-3.32,7.255-5.193,10.918c-0.619,1.213-1.864,2.512-1.727,3.638c0.824,6.749-3.847,9.304-8.772,10.72
			c-5.108,1.469-8.546-2.027-10.263-6.447c-2.219-5.711-3.514-11.781-5.725-17.497c-1.766-4.565,0.369-6.234,4.165-6.96
			C1469.303,454.04,1474.549,453.31,1479.773,452.466"/>
		<path clip-path="url(#SVGID_15_)" fill="#E6E6E6" d="M1453.846,1066.25c6.322-0.551,10.356,1.922,11.965,8.096
			c1.489,5.721-1.07,9.197-6.156,11.576c-0.838,0.395-1.252,2.613-1.151,3.932c0.411,5.393-2.581,8.561-7.106,9.906
			c-4.777,1.42-9.322-0.564-11.296-4.988c-2.87-6.434-4.956-13.266-6.743-20.094c-0.405-1.547,1.45-5.102,2.846-5.455
			C1441.963,1067.756,1447.945,1067.164,1453.846,1066.25"/>
		<path clip-path="url(#SVGID_15_)" fill="#E6E6E6" d="M1369.693,1163.131c-8.004-5.277-14.917-9.408-21.324-14.211
			c-4.31-3.229-4.681-8.725-2.041-12.623c1.771-2.619,6.496-3.197,9.832-4.826c1.631-0.797,3.045-2.037,4.668-2.855
			c2.984-1.502,6.304-4.273,9.006-3.799c2.209,0.391,4.357,4.498,5.425,7.369C1379.15,1142.66,1372.893,1151.443,1369.693,1163.131"
			/>
		<path clip-path="url(#SVGID_15_)" fill="#E6E6E6" d="M1598.894,172.482c-5.659-10.948-1.614-20.34,8.146-19.002
			c3.481,0.478,6.967,4.058,9.608,6.983c9.845,10.898,9.675,11.596-1.317,21.191c-2.99,2.61-5.702,5.675-9.039,7.72
			c-4.59,2.813-9.733,3.131-12.93-2.049c-3.035-4.917-1.13-9.393,3.201-12.889C1597.242,173.888,1597.902,173.315,1598.894,172.482"
			/>
		<path clip-path="url(#SVGID_15_)" fill="#E6E6E6" d="M1713.947,1177.904c-0.617,12.189-0.857,12.607-11.704,11.594
			c-4.354-0.408-8.646-1.861-12.871-3.146c-5.397-1.641-6.95-5.617-6.378-10.982c0.544-5.094,3.067-8.029,7.98-9.439
			c1.536-0.441,2.592-2.35,4.036-3.344c3.255-2.238,6.569-5.854,9.948-5.953c2.37-0.068,5.436,4.422,7.158,7.463
			c1.336,2.357,1.155,5.609,1.495,8.482C1713.874,1174.785,1713.896,1177.02,1713.947,1177.904"/>
		<path clip-path="url(#SVGID_15_)" fill="#E6E6E6" d="M1761.634,637.979c5.25,7.573,5.83,13.266,0.974,16.046
			c-2.648,1.516-7.515,2.409-9.629,0.984c-5.98-4.031-11.408-9.087-16.244-14.466c-1.224-1.359-0.457-6.666,1.176-8.035
			c5.406-4.532,11.315-8.773,17.689-11.688c2.497-1.142,7.371,0.731,9.924,2.777c1.336,1.071,0.395,5.587-0.279,8.361
			C1764.745,634.012,1763.016,635.768,1761.634,637.979"/>
		<path clip-path="url(#SVGID_15_)" fill="#E6E6E6" d="M1607.192,1125.51c4.685-5.803,8.588-11.232,13.148-16.035
			c2.276-2.398,5.586-4.555,8.743-5.15c2.72-0.514,7.25,0.447,8.513,2.375c1.573,2.398,1.528,6.775,0.504,9.715
			c-1.135,3.26-1.826,5.082,0.072,8.766c1.712,3.32,1.017,9.258-0.939,12.738c-2.341,4.164-7.465,3.246-11.311,0.695
			C1619.709,1134.492,1613.688,1130.076,1607.192,1125.51"/>
		<path clip-path="url(#SVGID_15_)" fill="#E6E6E6" d="M1052.423,401.814c-8.733,0-17.223,0.527-25.567-0.333
			c-2.385-0.246-5.263-4.184-6.297-7.018c-1.465-4.015,0.349-7.519,4.246-10.169c2.418-1.643,4.381-4.382,5.756-7.039
			c2.539-4.909,5.943-7.389,11.649-6.608c5.562,0.76,8.07,4.654,8.774,9.295C1051.971,386.442,1051.91,393.099,1052.423,401.814"/>
		<path clip-path="url(#SVGID_15_)" fill="#E6E6E6" d="M1213.758,1386.531c8.551,1.082,15.587,1.697,22.514,2.932
			c5.931,1.059,9.5,6.27,8.525,11.049c-0.773,3.795-6.179,6.645-9.527,9.916c-0.49-0.441-0.98-0.881-1.472-1.318
			c-0.297,1.748-0.321,3.6-0.942,5.225c-1.688,4.406-4.325,8.014-9.69,7.648c-4.356-0.297-9.127-6.549-9.345-12.477
			C1213.559,1402.396,1213.758,1395.27,1213.758,1386.531"/>
		<path clip-path="url(#SVGID_15_)" fill="#E6E6E6" d="M1735.5,567.608c-1.404,12.083-2.42,12.908-14.839,10.567
			c-3.862-0.728-8.431-1.072-11.185-3.375c-2.779-2.324-5.383-7.069-4.973-10.37c0.412-3.317,4.562-6.224,7.217-9.184
			c1.402-1.566,2.988-3.027,4.699-4.244c2.934-2.088,6.214-5.708,9.007-5.416c2.895,0.302,6.593,4.025,7.766,7.085
			C1734.956,557.269,1734.825,562.593,1735.5,567.608"/>
		<path clip-path="url(#SVGID_15_)" fill="#E6E6E6" d="M1011.686,532.802c5.37,5.548,6.44,11.214,3.194,15.171
			c-3.401,4.145-8.56,4.339-14.894,0.018c-5.564-3.796-10.828-8.033-15.841-11.786c5.746-6.268,10.793-12.444,16.573-17.834
			c3.643-3.396,8.734-5.477,13.249-1.395c5.187,4.691,2.67,9.55-0.919,14.026C1012.643,531.51,1012.263,532.04,1011.686,532.802"/>
		<path clip-path="url(#SVGID_15_)" fill="#E6E6E6" d="M1479.55,1470.168c7.527,6.988,8.323,10.426,3.862,15.871
			c-3.439,4.197-10.507,4.725-15.057,1.58c-3.894-2.691-8.263-4.689-12.193-7.334c-1.387-0.932-3.309-3.635-2.932-4.227
			c4.379-6.889,8.76-13.857,13.992-20.09c2.428-2.893,7.279-5.404,10.631-1.75c2.307,2.516,2.746,6.955,3.432,10.645
			C1481.562,1466.348,1480.27,1468.125,1479.55,1470.168"/>
		<path clip-path="url(#SVGID_15_)" fill="#E6E6E6" d="M1114.366,767.645c5.487-5.357,1.581-12.277,1.398-19.144
			c-0.078-2.96,3.202-8.24,5.473-8.538c4.017-0.527,9.375,0.836,12.438,3.446c4.054,3.453,6.604,8.767,9.432,13.503
			c0.701,1.173,0.654,3.905-0.197,4.714c-5.232,4.976-10.443,10.11-16.35,14.198
			C1121.241,779.504,1114.654,775.307,1114.366,767.645"/>
		<path clip-path="url(#SVGID_15_)" fill="#E6E6E6" d="M1765.664,940.986c-0.119,8.469-3.785,12.082-10.546,11.508
			c-6.175-0.525-12.322-1.863-18.337-3.408c-1.378-0.354-3.264-3.219-3.025-4.604c1.047-6.094,1.824-12.574,4.623-17.904
			c1.739-3.309,6.932-6.658,10.555-6.637c4.13,0.023,8.632,3.146,9.164,9.053c0.184,2.031,2.302,3.889,3.55,5.818
			C1763.333,937.418,1765.031,940.014,1765.664,940.986"/>
		<path clip-path="url(#SVGID_15_)" fill="#E6E6E6" d="M1789.965,734.046c-4.525,4.823-8.72,9.422-13.06,13.879
			c-4.028,4.137-9.064,5.707-13.861,2.203c-4.63-3.382-4.509-8.1-1.45-13.102c0.935-1.526,0.534-4.595-0.376-6.389
			c-3.186-6.284-2.735-10.557,2.164-14.113c5.003-3.63,10.415-2.823,14.685,2.399
			C1781.995,723.729,1785.751,728.676,1789.965,734.046"/>
		<path clip-path="url(#SVGID_15_)" fill="#E6E6E6" d="M1261.259,1220.986c6.024-5.449,10.545-10.873,16.278-14.209
			c3.303-1.922,10.16-2.211,12.52-0.061c2.549,2.326,1.901,8.336,2.287,12.771c0.205,2.359-0.185,4.816-0.604,7.176
			c-0.704,3.957-0.412,9.338-2.843,11.383c-2.364,1.992-8.912,2.191-11.353,0.277
			C1271.639,1233.695,1267.057,1227.377,1261.259,1220.986"/>
		<path clip-path="url(#SVGID_15_)" fill="#E6E6E6" d="M1394.267,548.63c-7.274-4.656-14.252-8.127-19.825-13.154
			c-2.394-2.159-3.342-8.053-2.226-11.321c0.963-2.817,5.742-4.385,8.917-6.373c1.971-1.235,4.079-2.258,6.157-3.315
			c2.63-1.338,5.557-3.98,7.864-3.531c2.27,0.442,4.728,3.737,5.715,6.313C1405.189,528.529,1398.47,537.555,1394.267,548.63"/>
		<path clip-path="url(#SVGID_15_)" fill="#E6E6E6" d="M1838.925,1012.086c-1.735-1.33-5.561-3.148-7.694-6.164
			c-3.048-4.307-5.129-9.385-7.025-14.363c-0.544-1.43,0.393-4.451,1.648-5.355c4.666-3.357,9.769-6.102,14.666-9.141
			c5.138-3.188,9.195-1.922,12.68,2.725c3.598,4.797,2.85,8.768-1.342,12.928c-1.422,1.41-2.153,4.439-1.828,6.514
			C1851.084,1006.002,1846.98,1012.266,1838.925,1012.086"/>
		<path clip-path="url(#SVGID_15_)" fill="#E6E6E6" d="M1108.432,980.459c-8.271-1.711-14.396-2.803-20.396-4.373
			c-1.165-0.305-2.86-2.748-2.588-3.723c2.039-7.307,3.885-14.797,7.19-21.547c1.14-2.328,6.772-4.375,9.411-3.549
			c3.061,0.961,5.223,5.117,7.496,8.1c1.178,1.545,1.275,4.244,2.688,5.217c4.563,3.137,7.449,7.484,4.992,12.291
			C1115.417,976.41,1110.811,978.518,1108.432,980.459"/>
		<path clip-path="url(#SVGID_15_)" fill="#E6E6E6" d="M1074.491,1089.035c-0.401,1.051-0.764,1.857-1.022,2.693
			c-1.363,4.414-2.861,8.797-8.779,8.137c-6.121-0.684-8.723-4.662-8.946-10.459c-0.104-2.672,0.021-5.357,0.089-8.035
			c0.389-15.498,6.775-19.188,20.924-12.082c1.592,0.801,3.615,1.307,4.625,2.588c2.303,2.93,5.931,6.41,5.683,9.389
			c-0.39,4.68-4.212,8.211-9.926,7.777C1076.282,1088.979,1075.418,1089.035,1074.491,1089.035"/>
		<path clip-path="url(#SVGID_15_)" fill="#E6E6E6" d="M1175.591,1015.99c5.937-3.734,11.218-7.004,16.445-10.359
			c6.871-4.408,10.961-4.211,14.6,0.809c3.374,4.656,2.224,9.475-3.444,14.352c-0.502,0.434-1.062,0.799-1.709,1.279
			c0.067,0.604,0.045,1.26,0.222,1.857c2.112,7.152,0.593,12.43-5.056,14.67c-6.226,2.467-10.254-1.994-13.105-6.297
			C1180.271,1027.363,1178.25,1021.596,1175.591,1015.99"/>
		<path clip-path="url(#SVGID_15_)" fill="#E6E6E6" d="M1657.871,509.155c0.919,1.011,1.482,1.65,2.065,2.269
			c3.921,4.165,4.192,8.653,0.866,13.203c-3.178,4.344-7.83,3.634-11.407,1.525c-6.47-3.818-12.371-8.599-19.173-13.451
			c5.748-6.379,10.826-12.815,16.772-18.308c3.431-3.168,8.829-4.765,12.866-1.222c3.973,3.487,3.386,8.374,0.39,12.725
			C1659.622,506.809,1658.945,507.688,1657.871,509.155"/>
		<path clip-path="url(#SVGID_15_)" fill="#E6E6E6" d="M1014.555,1453.436c3.799-8.717,6.698-17.916,15.605-22.572
			c2.923-1.527,7.707-2.219,10.291-0.814c2.086,1.135,2.229,5.973,3.078,9.211c0.459,1.754-0.049,4.535,0.979,5.234
			c4.642,3.156,5.508,7.141,2.642,11.428c-3.091,4.621-7.556,7.811-13.541,5.574
			C1027.26,1459.125,1021.104,1456.232,1014.555,1453.436"/>
		<path clip-path="url(#SVGID_15_)" fill="#E6E6E6" d="M1253.386,790.543c-2.364,9.004-6.315,13.082-11.558,11.926
			c-5.221-1.15-8.403-7.787-7.762-15.879c0.336-4.217,0.653-8.455,0.578-12.676c-0.076-4.296,1.381-6.187,5.911-5.418
			c3.925,0.666,7.942,0.769,11.878,1.388c1.934,0.303,3.85,1.047,5.639,1.881c4.908,2.287,7.378,6.886,5.695,11.429
			c-1.244,3.357-5.668,5.537-8.675,8.242C1254.523,791.137,1253.955,790.84,1253.386,790.543"/>
		<path clip-path="url(#SVGID_15_)" fill="#E6E6E6" d="M1696.3,378.006c-6.327,0.331-12.528,0.95-18.725,0.884
			c-4.843-0.051-9.669-1.409-10.815-7.029c-1.128-5.534,0.443-10.081,6.428-12.321c1.351-0.507,3.053-2.313,3.131-3.609
			c0.443-7.29,6.22-8.936,11.232-9.105c5.756-0.194,8.143,5.255,8.604,10.27C1696.754,363.643,1696.3,370.288,1696.3,378.006"/>
		<path clip-path="url(#SVGID_15_)" fill="#E6E6E6" d="M1705.483,1057.75c0.476-2.703,1.119-4.674,1.124-6.646
			c0.042-16.271,2.672-13.26,14.87-10.967c4.387,0.824,8.86,3.135,12.375,5.924c2.097,1.664,3.919,6.102,3.137,8.34
			c-0.938,2.688-4.73,4.422-7.378,6.451c-2.021,1.549-4.261,2.812-6.264,4.383c-2.936,2.303-6.359,7.145-8.467,6.604
			c-3.192-0.822-5.719-5.146-7.956-8.377C1705.763,1061.783,1705.828,1059.256,1705.483,1057.75"/>
		<path clip-path="url(#SVGID_15_)" fill="#E6E6E6" d="M1139.41,368.252c-8.104-1.599-14.449-2.537-20.555-4.303
			c-1.338-0.387-2.829-3.906-2.51-5.67c0.936-5.185,2.317-10.391,4.341-15.249c1.835-4.409,5.061-7.741,10.661-7.508
			c5.763,0.24,7.934,3.643,9.088,8.732c0.42,1.85,1.988,3.851,3.6,4.943c5.417,3.67,4.211,8.824,2.27,13.074
			C1144.996,365.129,1141.15,366.827,1139.41,368.252"/>
		<path clip-path="url(#SVGID_15_)" fill="#E6E6E6" d="M1595.322,1483.252c7.643-0.824,14.565-1.908,21.522-2.211
			c5.153-0.225,9.081,2.404,10.015,7.836c0.921,5.355-1.137,8.85-6.781,10.451c-1.576,0.447-3.166,3.348-3.455,5.314
			c-0.656,4.453-1.478,8.545-6.773,9.113c-5.254,0.566-9.451-1.752-10.649-6.977
			C1597.576,1499.699,1596.787,1492.428,1595.322,1483.252"/>
		<path clip-path="url(#SVGID_15_)" fill="#E6E6E6" d="M974.114,887.172c4.459,1.986,9.94,2.959,13.144,6.189
			c5.14,5.186,1.97,11.371-6.004,14.66c-1.871,0.773-4.168,3.264-4.264,5.07c-0.279,5.285-4.019,9.074-7.555,8.439
			c-3.735-0.668-7.917-4.82-9.747-8.518c-1.942-3.924-1.486-9.09-1.829-13.732c-0.464-6.277,1.629-10.416,8.903-10.049
			c2.206,0.109,4.44-0.363,6.661-0.568C973.654,888.166,973.886,887.67,974.114,887.172"/>
		<path clip-path="url(#SVGID_15_)" fill="#E6E6E6" d="M1223.346,1102.41c6.238-4.539,12.061-8.824,17.938-13.031
			c4.473-3.199,9.189-1.697,12.016,1.631c1.967,2.316,1.595,6.738,1.963,10.25c0.255,2.438,0.228,4.961-0.096,7.389
			c-0.472,3.543-0.247,8.061-2.33,10.246c-1.868,1.959-7.019,2.703-9.733,1.586
			C1234.645,1116.994,1228.154,1110.812,1223.346,1102.41"/>
		<path clip-path="url(#SVGID_15_)" fill="#E6E6E6" d="M1307.711,588.7c7.907,1.419,10.938,6.853,9.055,14.766
			c-0.81,3.398,0.028,7.198-0.834,10.571c-0.916,3.577-2.119,8.434-4.748,9.846c-2.789,1.498-7.684,0.318-11.125-1.04
			c-2.631-1.039-4.883-3.887-6.524-6.432c-6.894-10.686-8.222-11.471,1.903-18.679
			C1299.575,594.788,1303.622,591.715,1307.711,588.7"/>
		<path clip-path="url(#SVGID_15_)" fill="#E6E6E6" d="M1230.086,409.179c2.637,9.177,1.296,14.433-3.941,16.486
			c-5.539,2.172-12.955-2.276-16.016-9.752c-1.757-4.293-3.293-8.676-4.92-12.998c6.815-3.801,13.605-7.393,20.193-11.324
			c5.226-3.119,8.683-0.558,11.074,3.516c2.541,4.33,1.725,8.564-2.78,11.566C1232.59,407.411,1231.512,408.188,1230.086,409.179"/>
		<path clip-path="url(#SVGID_15_)" fill="#E6E6E6" d="M1782.15,346.676c-7.542-1.564-13.666-2.711-19.707-4.194
			c-1.189-0.293-2.627-1.713-2.986-2.904c-1.901-6.309,3.658-20.333,9.172-23.749c5.412-3.352,12.168-0.925,14.552,4.914
			c1.257,3.081,3.817,5.715,4.678,8.855c1.114,4.065,2.088,8.65,1.209,12.584C1788.598,344.286,1784.111,345.493,1782.15,346.676"/>
		<path clip-path="url(#SVGID_15_)" fill="#E6E6E6" d="M1552.813,1058.521c1.197-8.721,1.779-16.789,3.583-24.572
			c0.984-4.246,3.998-8.359,9.577-7.402c5.194,0.891,8.188,4.031,7.315,10.021c6.279-0.311,11.144,1.297,11.873,8.047
			c0.697,6.479-2.541,10.051-10.908,11.531C1567.965,1057.26,1561.537,1057.592,1552.813,1058.521"/>
		<path clip-path="url(#SVGID_15_)" fill="#E6E6E6" d="M981.109,1334.115c2.194,1.609,6.449,4.201,10.07,7.49
			c10.186,9.252,10.096,9.381-0.133,18.41c-2.819,2.486-5.401,5.939-8.711,6.98c-3.543,1.113-8.387,1.045-11.629-0.576
			c-4.254-2.127-2.862-6.428-1.258-10.508c1.073-2.73,0.979-6.271,0.375-9.24C968.314,1339.242,971.521,1334.174,981.109,1334.115"
			/>
		<path clip-path="url(#SVGID_15_)" fill="#E6E6E6" d="M1010.464,294.91c-0.417,2.094-0.321,4.109-1.202,5.51
			c-1.634,2.594-3.834,6.766-5.806,6.77c-3.153,0.006-8.476-2.294-9.071-4.603c-1.955-7.569-2.354-15.57-2.889-23.437
			c-0.064-0.973,2.535-2.753,4.126-3.089c3.881-0.819,7.885-1.167,11.858-1.422c7.931-0.508,13.525,3.447,14.261,9.861
			C1022.316,289.519,1018.9,292.785,1010.464,294.91"/>
		<path clip-path="url(#SVGID_15_)" fill="#E6E6E6" d="M1341.351,1333.049c-8.2,4.801-14.917,9.287-22.159,12.637
			c-2.184,1.01-7.49-0.254-8.429-2.027c-1.608-3.045-1.106-7.312-1.099-11.064c0.006-2.348,1.148-4.709,1.049-7.031
			c-0.214-4.959-1.229-11.154,4.431-12.537c3.859-0.941,9.642,1.115,12.92,3.82
			C1332.865,1320.811,1336.197,1326.555,1341.351,1333.049"/>
		<path clip-path="url(#SVGID_15_)" fill="#E6E6E6" d="M1316.601,1033.904c4.841-6.49,7.984-11.375,11.802-15.66
			c5.041-5.66,11.588-7.062,15.604-4.043c4.419,3.322,4.145,7.336-0.735,14.795c1.873,3.447,4.526,6.486,5.161,9.898
			c1.198,6.455-4.166,11.195-10.05,8.455C1331.025,1043.922,1324.436,1038.846,1316.601,1033.904"/>
		<path clip-path="url(#SVGID_15_)" fill="#E6E6E6" d="M1105.553,474.864c-2.803,3.434-4.755,6.709-7.521,9.005
			c-4.08,3.386-9.688,2.296-10.415-2.673c-1.22-8.325-0.576-16.946-0.327-25.431c0.027-0.884,2.648-2.375,4.104-2.422
			c8.422-0.269,16.412,1.602,22.913,7.176c1.669,1.431,3.117,5.085,2.431,6.844c-1.076,2.752-3.793,5.13-6.336,6.936
			C1109.007,475.289,1106.549,474.78,1105.553,474.864"/>
		<path clip-path="url(#SVGID_15_)" fill="#E6E6E6" d="M1521.783,236.93c0.109,0.424,0.094,0.724,0.229,0.834
			c4.647,3.767,8.203,7.978,3.994,14.084c-3.256,4.723-8.594,4.65-16.072,0.324c-4.608-2.665-9.278-5.222-15.09-8.485
			c5.055-6.875,9.455-13.467,14.505-19.516c3.433-4.11,8.501-6.04,13.007-2.018c4.256,3.8,3.761,8.709,0.068,13.137
			C1522.031,235.76,1521.948,236.487,1521.783,236.93"/>
		<path clip-path="url(#SVGID_15_)" fill="#E6E6E6" d="M1250.592,490.731c5.991-5.266,10.379-9.344,15.008-13.129
			c4.754-3.889,10.324-3.761,14.832-0.333c4.014,3.053,5.073,7.615,1.244,12.318c-0.74,0.91,0.469,3.194,0.217,4.754
			c-0.664,4.105-0.373,9.601-2.873,11.799c-2.154,1.893-8.556,1.406-11.449-0.501C1261.42,501.587,1256.33,495.927,1250.592,490.731
			"/>
		<path clip-path="url(#SVGID_15_)" fill="#E6E6E6" d="M1347.152,419.166c3.114-3.896,7.131-9.441,11.7-14.488
			c4.487-4.956,9.849-5.361,13.903-1.775c4.272,3.779,3.975,7.187-1.129,13.209c-0.276,0.327-0.409,0.776-0.604,1.173
			c1.807,2.579,5.225,5.281,5.035,7.701c-0.29,3.708-2.377,9.496-4.95,10.275c-3.672,1.111-9.274-0.405-12.594-2.81
			C1354.199,429.324,1351.315,424.222,1347.152,419.166"/>
		<path clip-path="url(#SVGID_15_)" fill="#E6E6E6" d="M1729.146,448.348c0.6-4.74,1.413-8.268,1.405-11.793
			c-0.013-5.707,2.745-7.903,7.887-6.381c6.064,1.796,12.197,3.782,17.737,6.741c2.384,1.273,5.286,6.041,4.546,7.736
			c-1.38,3.162-5.175,5.329-8.109,7.735c-1.95,1.599-4.153,2.889-6.241,4.323c-2.882,1.979-5.797,5.536-8.631,5.472
			c-2.477-0.056-5.439-3.838-7.106-6.622C1729.25,453.25,1729.441,450,1729.146,448.348"/>
		<path clip-path="url(#SVGID_15_)" fill="#E6E6E6" d="M1329.439,719.861c4.008-4.748,1.797-11.415,2.455-17.764
			c0.24-2.319,3.041-5.851,5.088-6.17c3.342-0.52,8.008,0.034,10.354,2.118c4.566,4.058,8.015,9.417,11.679,14.418
			c0.69,0.939,0.8,3.594,0.211,3.98c-6.763,4.423-13.36,9.397-20.728,12.498C1332.941,731.279,1329.467,727.495,1329.439,719.861"/>
		<path clip-path="url(#SVGID_15_)" fill="#E6E6E6" d="M1467.47,852.945c4.435-5.797,8.831-12.324,14.069-18.088
			c2.894-3.184,7.82-6.316,11.595-2.236c2.337,2.523,3.272,7.732,2.562,11.279c-0.65,3.238-0.705,5.023,1.545,7.389
			c4.146,4.355,3.876,9.602-0.889,12.564c-3.132,1.945-8.716,2.641-11.942,1.156C1478.637,862.357,1473.816,857.637,1467.47,852.945
			"/>
		<path clip-path="url(#SVGID_15_)" fill="#E6E6E6" d="M1579.364,446.253c-0.532-9.732-1.55-18.824,3.829-26.878
			c4.817-7.212,11.611-6.431,16.023,1.299c0.925,1.622,3.215,2.405,4.484,3.906c2.215,2.619,5.832,5.565,5.723,8.245
			c-0.131,3.205-2.965,8.202-5.67,9.035C1596.092,444.22,1587.898,444.851,1579.364,446.253"/>
		<path clip-path="url(#SVGID_15_)" fill="#E6E6E6" d="M1522.581,1181.344c-8.319,0.381-15.606,0.299-22.335-4.303
			c-6.87-4.699-7.119-11.666-0.4-16.426c2.445-1.734,3.929-4.775,6.252-6.748c2.617-2.225,5.918-5.709,8.496-5.373
			c2.977,0.387,6.604,3.859,7.916,6.877c1.562,3.592,1.258,8.127,1.223,12.248
			C1523.696,1171.994,1523.028,1176.361,1522.581,1181.344"/>
		<path clip-path="url(#SVGID_15_)" fill="#E6E6E6" d="M1430.44,1377.912c6.833,1.787,9.854,5.764,8.752,11.422
			c-0.998,5.123-6.643,9.139-12.626,8.373c-5.217-0.668-10.4-1.818-15.473-3.215c-1.111-0.307-2.583-2.73-2.359-3.881
			c1.135-5.814,2.419-11.652,4.34-17.246c1.721-5.018,5.067-9.408,11.103-8.379c5.955,1.016,6.11,6.168,5.903,11.053
			C1430.053,1376.67,1430.318,1377.312,1430.44,1377.912"/>
		<path clip-path="url(#SVGID_15_)" fill="#E6E6E6" d="M1487.812,1312.018c1.293-10.398,3.03-19.611,8.951-26.973
			c1.976-2.455,8.461-4.5,10.242-3.176c2.965,2.203,3.799,7.275,5.101,10.18c2.967,3.809,7.449,6.973,7.672,10.412
			c0.404,6.287-5.351,8.918-10.897,9.418C1502.344,1312.467,1495.713,1312.018,1487.812,1312.018"/>
		<path clip-path="url(#SVGID_15_)" fill="#E6E6E6" d="M1530.16,958.85c0.628-6.588,4.732-11.73,8.733-11.551
			c4.791,0.217,9.7,7.125,9.485,14.346c-0.148,5.037-0.988,10.107-2.108,15.029c-0.302,1.324-2.72,3.006-4.226,3.064
			c-4.609,0.178-9.269-0.16-13.869-0.654c-6.588-0.705-9.299-5.441-8.985-11.189C1519.518,961.895,1523.139,958.1,1530.16,958.85"/>
		<path clip-path="url(#SVGID_15_)" fill="#E6E6E6" d="M1608.861,865.873c7.614-0.291,15.21-1.1,22.735-0.674
			c4.501,0.256,7.422,3.762,7.754,8.646c0.347,5.105-2.548,7.418-7.039,9.096c-1.878,0.699-3.954,3.262-4.276,5.248
			c-0.703,4.346-1.801,8.156-6.699,8.469c-4.856,0.309-8.918-1.973-9.989-7.037c-0.997-4.709-1.118-9.604-1.607-14.418
			C1609.479,872.635,1609.254,870.061,1608.861,865.873"/>
		<path clip-path="url(#SVGID_15_)" fill="#E6E6E6" d="M1294.621,296.945c3.755-8.797,6.594-10.867,11.533-8.88
			c5.698,2.291,7.811,8.726,5.51,15.787c-1.841,5.65-3.307,11.423-5.017,17.413c-6.865-2.201-13.574-3.674-19.642-6.516
			c-4.738-2.219-6.714-6.92-5.068-12.423C1283.915,295.715,1289.026,295.915,1294.621,296.945"/>
		<path clip-path="url(#SVGID_15_)" fill="#E6E6E6" d="M1668.122,1420.299c4.813-7.072,8.89-14.279,14.258-20.342
			c2.104-2.375,7.218-3.127,10.735-2.711c1.467,0.172,2.388,5.301,3.482,8.205c0.711,1.891,0.729,4.424,2.024,5.643
			c4.517,4.25,3.523,8.865,1.271,13.389c-2.528,5.078-7.617,4.623-11.794,3.463
			C1681.877,1426.217,1675.965,1423.373,1668.122,1420.299"/>
		<path clip-path="url(#SVGID_15_)" fill="#E6E6E6" d="M1067.625,219.333c4.539-6.57,8.208-12.85,12.907-18.23
			c2.031-2.327,6.122-3.647,9.397-3.903c4.586-0.357,7.986,4.292,6.49,8.525c-1.244,3.521-0.594,5.385,2.129,7.939
			c1.611,1.511,2.418,5.633,1.515,7.652c-1.263,2.817-4.156,6.249-6.89,6.815C1084.003,230.031,1076.615,225.023,1067.625,219.333"
			/>
		<path clip-path="url(#SVGID_15_)" fill="#E6E6E6" d="M1025.582,730.899c-6.777,5.794-12.648,11.771-19.525,16.181
			c-2.475,1.586-8.123,0.539-10.975-1.346c-3.871-2.558-2.277-6.802-0.209-10.716c1.148-2.174,0.471-5.263,0.844-7.907
			c0.525-3.701,0.1-8.558,2.271-10.691c1.833-1.803,7.678-1.811,10.18-0.192C1014.186,720.124,1019.285,725.439,1025.582,730.899"/>
		<path clip-path="url(#SVGID_15_)" fill="#E6E6E6" d="M1123.753,1494.393c4.843-5.602,8.667-10.514,13.015-14.908
			c3.725-3.766,8.446-6.668,13.686-3.191c4.811,3.191,5.309,7.691,2.045,12.768c-0.792,1.234,0.321,3.58,0.235,5.398
			c-0.198,4.211,0.895,9.598-1.277,12.328c-2.903,3.65-8.536,3.527-12.741,0.225
			C1133.706,1503.082,1128.961,1498.812,1123.753,1494.393"/>
		<path clip-path="url(#SVGID_15_)" fill="#E6E6E6" d="M1775.188,1459.15c5.622-5.986,10.337-10.645,14.615-15.674
			c3.825-4.496,8.913-4.65,12.389-1.646c2.432,2.102,2.447,7.234,3.083,11.088c0.422,2.561-0.884,5.738,0.198,7.785
			c2.305,4.363,1.794,8.453-1.676,10.721c-2.68,1.75-7.779,2.66-10.285,1.25C1787.052,1469.037,1781.435,1463.908,1775.188,1459.15"
			/>
		<path clip-path="url(#SVGID_15_)" fill="#E6E6E6" d="M1635.246,252.689c8.346,0,15.348-0.164,22.337,0.053
			c5.343,0.165,7.208,4.259,7.565,8.626c0.369,4.507-1.123,8.211-6.606,9.283c-1.573,0.309-3.541,2.893-3.825,4.675
			c-0.742,4.618-2.18,8.185-7.334,8.874c-5.55,0.742-8.776-2.606-9.621-7.27C1636.428,269.565,1636.149,262.009,1635.246,252.689"/>
		<path clip-path="url(#SVGID_15_)" fill="#E6E6E6" d="M1189.267,1289.137c2.483-5.824,3.669-12.373,11.748-10.77
			c4.961,0.984,7.834,6.611,7.229,14.768c-0.406,5.479-1.547,10.9-2.522,17.428c-7.453-1.441-14.985-2.004-21.717-4.625
			c-2.845-1.109-5.769-6.686-5.524-10C1178.89,1290.412,1182.91,1286.74,1189.267,1289.137"/>
		<path clip-path="url(#SVGID_15_)" fill="#E6E6E6" d="M1034.821,831.787c5.517-7.008,9.949-13.541,15.343-19.152
			c3.143-3.271,8.472-6.311,12.475-2.369c2.38,2.344,1.974,7.516,1.857,11.705c3.815,3.311,7.086,7.17,3.815,12.82
			c-3.192,5.518-8.111,7.301-14.277,4.75C1048.387,837.205,1042.701,834.963,1034.821,831.787"/>
		<path clip-path="url(#SVGID_15_)" fill="#E6E6E6" d="M1448.651,758.62c6.229,0.133,9.306,3.192,8.374,9.682
			c-0.798,5.562-6.486,10.38-12.391,9.748c-5.254-0.561-10.518-1.539-15.587-2.994c-1.208-0.348-2.609-3.53-2.287-5.065
			c1.128-5.379,2.932-10.62,4.55-15.891c1.725-5.612,5.712-8.887,11.434-8.218c6.006,0.702,5.477,5.981,5.543,10.451
			C1448.297,756.98,1448.487,757.626,1448.651,758.62"/>
		<path clip-path="url(#SVGID_15_)" fill="#E6E6E6" d="M1380.904,946.721c8.145-6.711,14.243-12.262,20.956-16.93
			c1.857-1.291,6.819-1.041,8.069,0.436c1.652,1.953,1.865,5.998,1.216,8.801c-0.794,3.432-1.401,5.92,0.501,9.537
			c1.518,2.885,1.503,8.291-0.302,10.801c-2.604,3.623-7.378,4.459-11.81,1.012C1393.968,956.045,1388.164,952.016,1380.904,946.721
			"/>
		<path clip-path="url(#SVGID_15_)" fill="#E6E6E6" d="M1521.444,694.305c-14.256-0.062-15.802,1.124-10.302-14.605
			c1.872-5.356,5.273-10.805,9.457-14.56c4.908-4.403,10.039-0.942,10.42,5.791c0.128,2.261,1.054,5.249,2.689,6.486
			c3.014,2.281,7.269,3.45,5.855,8.382c-1.493,5.211-5.268,8.123-10.753,8.479C1526.365,694.438,1523.9,694.305,1521.444,694.305"/>
		<path clip-path="url(#SVGID_15_)" fill="#E6E6E6" d="M1276.11,931.33c-5.852-1.785-11.812-3.305-17.541-5.439
			c-5.258-1.959-8.303-5.631-7.246-11.846c0.95-5.592,4.71-6.707,9.511-7.248c1.871-0.211,4.074-1.59,5.244-3.113
			c2.922-3.807,6.092-6.848,11.152-4.951c3.6,1.35,6.279,9.756,4.898,14.15C1280.218,918.961,1278.182,925,1276.11,931.33"/>
		<path clip-path="url(#SVGID_15_)" fill="#E6E6E6" d="M1562.171,369.724c-4.56-2.244-9.912-3.626-13.493-6.93
			c-5.512-5.084-2.555-13.252,4.567-15.776c1.942-0.688,3.251-3.079,4.942-4.586c2.539-2.264,5.16-6.166,7.74-6.162
			c2.572,0.005,6.422,3.515,7.399,6.299c1.38,3.928,0.761,8.604,0.723,12.957c-0.013,1.487-1.405,3.043-1.215,4.437
			c1.131,8.25-3.194,9.628-10.114,8.042C1562.537,368.578,1562.354,369.151,1562.171,369.724"/>
		<path clip-path="url(#SVGID_15_)" fill="#E6E6E6" d="M1545.574,568.341c-8.199-2.157-15.287-3.014-21.429-5.891
			c-7.765-3.636-7.277-12.201-0.116-16.81c2.446-1.574,3.831-4.718,6.148-6.592c2.494-2.019,5.599-4.797,8.279-4.635
			c2.48,0.151,6.578,3.577,6.793,5.859C1546.059,548.873,1545.574,557.595,1545.574,568.341"/>
		<path clip-path="url(#SVGID_15_)" fill="#E6E6E6" d="M1710.392,792.244c1.045,2.234,1.83,4.641,3.189,6.66
			c2.618,3.893,3.894,8.283,0.444,11.588c-2.481,2.377-6.818,4.242-10.139,3.977c-4.667-0.373-9.137-3-13.73-4.541
			c-5.309-1.781-5.468-5.654-3.168-9.459c3.182-5.262,6.553-10.688,11.004-14.781c2.141-1.969,7.136-1.883,10.453-1.098
			c1.711,0.404,2.576,4.377,3.824,6.736C1711.644,791.633,1711.018,791.939,1710.392,792.244"/>
		<path clip-path="url(#SVGID_15_)" fill="#E6E6E6" d="M1788.91,848.811c5.336-6.369,9.723-12.211,14.772-17.406
			c3.012-3.096,7.125-3.494,10.831-0.363c3.677,3.104,4.498,6.627,2.466,11.23c-0.882,1.998,0.009,4.715-0.218,7.076
			c-0.354,3.648,0.203,8.35-1.836,10.588c-1.807,1.98-7.541,2.758-9.945,1.348C1798.829,857.676,1793.567,852.555,1788.91,848.811"
			/>
		<path clip-path="url(#SVGID_15_)" fill="#E6E6E6" d="M1228.402,693.268c-7.082-1.044-13.847-0.909-19.542-3.311
			c-3.373-1.421-6.621-6.646-7.122-10.523c-0.697-5.404,3.579-7.678,10.852-7.444c0.238-0.266,0.695-0.546,0.803-0.925
			c1.562-5.479,3.941-10.579,10.768-9.14c6.256,1.319,7.041,6.964,6.719,12.193C1230.5,680.256,1229.336,686.346,1228.402,693.268"
			/>
		<path clip-path="url(#SVGID_15_)" fill="#E6E6E6" d="M1437.09,333.126c5.795,5.378,6.733,10.912,2.975,14.782
			c-4.592,4.726-12.854,3.857-18.479-2.052c-2.862-3.007-5.56-6.171-9.083-10.102c4.337-4.836,8.53-10.249,13.503-14.812
			c3.692-3.388,9.292-5.599,13.228-1.517C1443.236,323.58,1441.675,328.91,1437.09,333.126"/>
		<path clip-path="url(#SVGID_15_)" fill="#E6E6E6" d="M1853.71,1279.801c-6.39-1.008-12.591-1.553-18.547-3.064
			c-4.597-1.164-8.608-3.738-8.668-9.533c-0.058-5.75,3.06-8.27,8.404-9.289c1.445-0.277,2.419-2.547,3.821-3.627
			c2.805-2.162,5.696-5.6,8.666-5.721c2.363-0.096,6.002,3.523,7.071,6.273c1.333,3.424,0.857,7.658,0.702,11.523
			C1854.993,1270.514,1854.292,1274.643,1853.71,1279.801"/>
		<path clip-path="url(#SVGID_15_)" fill="#E6E6E6" d="M1652.812,1320.549c-4.131,4.33-8.29,9.164-12.961,13.439
			c-3.837,3.512-8.814,6.582-13.76,3.09c-4.819-3.402-3.576-8.406-0.865-13.123c0.725-1.258,0.467-3.305,0.158-4.893
			c-0.919-4.719-3.023-9.715,2.095-13.24c5.655-3.898,10.336-0.127,14.376,3.119
			C1645.727,1312.051,1648.774,1316.186,1652.812,1320.549"/>
		<path clip-path="url(#SVGID_15_)" fill="#E6E6E6" d="M1671.43,706.245c-5.255,4.961-9.716,9.483-14.538,13.58
			c-2.097,1.781-4.838,3.432-7.466,3.778c-2.555,0.336-6.523-0.236-7.72-1.929c-1.435-2.034-1.521-6.047-0.522-8.533
			c1.445-3.591,3.188-6.234,1.446-10.667c-1.067-2.721,0.342-8.747,2.425-9.819c2.996-1.542,8.396-1.199,11.376,0.621
			C1661.816,696.567,1666.17,701.546,1671.43,706.245"/>
		<path clip-path="url(#SVGID_15_)" fill="#E6E6E6" d="M1736.941,185.895c0.869,2.088,2.125,4.106,2.521,6.28
			c0.667,3.657,2.289,8.346,0.721,10.866c-1.598,2.567-6.75,4.514-10.007,4.096c-5.362-0.687-10.548-3.275-15.619-5.496
			c-3.22-1.411-4.952-4.165-2.345-7.5c4.158-5.32,8.147-10.922,13.127-15.382c2.092-1.873,6.883-2.19,9.763-1.208
			c1.872,0.638,2.511,4.897,3.701,7.533C1738.184,185.354,1737.562,185.625,1736.941,185.895"/>
		<path clip-path="url(#SVGID_15_)" fill="#E6E6E6" d="M1174.936,261.362c4.047-4.291,8.049-8.627,12.155-12.86
			c3.972-4.094,11.135-5.49,14.414-2.434c4.095,3.816,3.323,8.133,0.519,12.591c-0.695,1.106-0.41,3.343,0.223,4.679
			c2.334,4.916,1.925,9.828-2.496,12.48c-4.16,2.496-9.329,2.297-13.602-1.362c-4.354-3.73-8.837-7.308-13.264-10.952
			L1174.936,261.362z"/>
		<path clip-path="url(#SVGID_15_)" fill="#E6E6E6" d="M1351.818,1461.514c-4.139-0.586-9.023-0.984-13.727-2.129
			c-1.307-0.316-3.239-3.191-2.904-4.291c2.109-6.934,4.379-13.885,7.489-20.406c0.983-2.059,5.425-4.486,7.021-3.803
			c3.097,1.328,6.365,4.322,7.578,7.406c1.306,3.318,1.892,6.051,5.435,8.145c1.882,1.113,3.522,6.221,2.527,7.844
			c-1.871,3.055-5.633,5.041-8.824,7.141C1355.487,1462.029,1353.821,1461.514,1351.818,1461.514"/>
		<path clip-path="url(#SVGID_15_)" fill="#E6E6E6" d="M1839.202,241.564c4.394,4.344,5.989,9.151,0.853,13.831
			c-4.663,4.25-10.418,3.221-15.986-2.328c-11.004-10.966-11.004-10.966,0.054-21.717c0.481-0.468,0.929-0.974,1.433-1.413
			c4.123-3.597,8.804-7.851,14.08-3.566C1844.96,230.695,1842.758,236.405,1839.202,241.564"/>
		<path clip-path="url(#SVGID_15_)" fill="#E6E6E6" d="M1143.2,872.141c5.534-5.229,10.726-10.213,16.007-15.096
			c4.223-3.904,8.455-2.32,11.799,0.988c3.695,3.658,1.028,7.322-1.26,10.678c-0.355,0.52-0.803,0.979,0.762,1.602
			c0,4.67,1.214,9.863-0.491,13.795c-0.911,2.102-7.496,3.68-10.376,2.557c-4.688-1.826-8.525-5.955-12.535-9.334
			C1145.661,876.113,1144.758,874.258,1143.2,872.141"/>
		<path clip-path="url(#SVGID_15_)" fill="#E6E6E6" d="M1378.824,229.807c3.602-8.95,5.934-16.123,9.43-22.674
			c1.201-2.25,5.641-4.465,8.015-3.957c2.819,0.603,5.146,4.03,7.418,6.48c1.733,1.868,3.371,3.967,4.469,6.244
			c1.248,2.587,3.316,6.215,2.392,8.083c-1.457,2.938-4.973,6.502-7.877,6.751C1395.352,231.363,1387.889,230.287,1378.824,229.807"
			/>
		<path clip-path="url(#SVGID_15_)" fill="#E6E6E6" d="M1351.12,838.824c1.855-6.201,2.839-11.496,5.048-16.217
			c1.691-3.615,4.344-7.463,7.629-9.477c4.205-2.578,10.702,1.217,11.109,6.238c0.314,3.879,1.618,5.801,5.012,7.564
			c3.604,1.871,3.141,8.965-0.931,11.27c-3.317,1.879-7.424,3.324-11.159,3.275C1362.373,841.408,1356.938,839.826,1351.12,838.824"
			/>
		<path clip-path="url(#SVGID_15_)" fill="#E6E6E6" d="M1152.684,1180.959c-5.449-3.256-9.783-6.393-14.561-8.545
			c-4.68-2.107-6.404-5.893-5.707-10.029c0.777-4.609,4.647-6.443,9.522-6.512c2.276-0.031,4.466-1.975,6.812-2.404
			c3.614-0.66,8.8-2.371,10.638-0.695c2.398,2.186,3.814,7.799,2.74,10.947C1160.037,1169.854,1155.924,1175.295,1152.684,1180.959"
			/>
		<path clip-path="url(#SVGID_15_)" fill="#E6E6E6" d="M1800.922,1152.016c-5.626-3.297-10.613-6.168-15.548-9.125
			c-4.537-2.723-5.649-6.723-3.808-11.516c1.777-4.629,5.239-5.398,9.812-4.373c1.525,0.344,3.704-0.559,5.087-1.57
			c3.522-2.578,6.8-5.342,11.248-1.873c4.6,3.586,3.848,8.615,2.158,12.773C1807.65,1141.797,1804.038,1146.697,1800.922,1152.016"
			/>
		<path clip-path="url(#SVGID_15_)" fill="#E6E6E6" d="M1821.727,543.99c-5.011-2.961-9.424-5.52-13.786-8.163
			c-4.243-2.57-6.47-6.482-5.134-11.247c1.255-4.475,4.287-7.057,9.669-5.538c1.588,0.448,3.908-0.439,5.467-1.403
			c3.833-2.369,8.386-6.167,11.432-0.93c2.025,3.484,1.788,9.298,0.503,13.429C1828.349,535.053,1824.615,539.282,1821.727,543.99"
			/>
		<path clip-path="url(#SVGID_15_)" fill="#E6E6E6" d="M1179.504,566.029c-5.703-3.533-11.074-5.999-15.248-9.784
			c-2.322-2.107-4.578-7.626-3.432-9.445c1.77-2.807,6.468-3.789,9.952-5.486c1.778-0.866,3.888-1.267,5.38-2.463
			c3.551-2.843,7.779-4.226,10.845-0.931c2.021,2.171,3.175,7.041,2.166,9.755C1186.816,554.005,1182.923,559.763,1179.504,566.029"
			/>
	</g>
</g>
</svg>
