<?xml version="1.0" encoding="utf-8"?>
<!-- Generator: Adobe Illustrator 23.1.1, SVG Export Plug-In . SVG Version: 6.00 Build 0)  -->
<svg version="1.1" id="Layer_1" xmlns="http://www.w3.org/2000/svg" xmlns:xlink="http://www.w3.org/1999/xlink" x="0px" y="0px"
	 viewBox="0 0 777 680" style="enable-background:new 0 0 777 680;" xml:space="preserve">
<style type="text/css">
	.st0{fill:#FFFFFF;}
</style>
<path class="st0" d="M617.7,409.8c-4.2-5-8.5-6.4-12.5-3.6c-6.2,4.4-10,12.5-12.7,22.1c-0.4,1.3-0.7,2.5-1.2,4.2
	c-1-1.6-1.7-2.8-2.4-3.9c-2.5-3.9-4.9-8-7.6-11.5c-5-6.5-10.4-11.7-16.6-13c-8.9-1.9-14.4,11.8-10.2,25.1c1.9,6,4.5,11.2,7.8,15.7
	c12.5,16.9,35.9,25.8,41.1,35.1c-2.6,7.7-38.2,64.8-65.1,70.6c-3.7,0.8-6.7-0.2-8.9-3.2c-0.9-1.2-1.5-2.5-2-3.9l-0.4-1.2
	c-1.6-6.8-1.9-13.7-1-20.5c0.1-2,1.1-3.5,3.1-4.5c14.3-7.5,25.1-18.3,32.6-32.5c1.8-3.2,3-6.6,3.4-10.1c0.2-2.2,0-4.2-0.7-6
	c-0.5-1.5-1.6-3.2-3.2-5.1c-1.7-1.9-4.4-3-8.4-3.4c-2.9-0.1-5.7,0.3-8.3,1.2c-1.5,0.5-3,1.2-4.4,2c-6.2,3.5-11.4,8.1-15.7,13.9
	c-6.9,8.9-12,18.8-15.4,29.6c-4.3,14.3-4.3,28.6-0.1,42.9l1,3.1c3.4,7.9,8.8,13.2,16,15.9c6.1,2.2,12.4,2.2,18.8,0
	c1.2-0.4,2.4-0.9,3.6-1.5c34.7-15.9,74.5-113.3,74.5-139.5C622.9,421,621.8,414.7,617.7,409.8 M553.5,475.9c-0.4,3.7-1.3,6.6-2.7,9
	c-3.7,7.2-8.6,13.4-14.8,18.6l-3.5,3c-0.6,0.4-1.3,0.8-1.8,1.3c-0.2-0.2-0.4-0.4-0.4-0.5l-0.3-0.1
	C534.5,494.8,542.3,484.4,553.5,475.9 M763.7,54.4c-1.9-1.7-4.4-2.4-7.4-1.9c-3.4,0.7-6.8,1.6-10.1,2.7l-29.8,10.2
	c-3.8,1.1-7.5,2.3-11.4,3.7c-1.5,0.5-2.5,0.6-2.9,0.3l-0.1-0.2c-0.1-0.4-0.1-1.3,0-2.7c0.7-4.7,1.2-9.4,1.4-14c0.3-5,0.8-10,1.5-15
	c0.1-1,0.2-2,0-3.2c0-0.5-0.1-0.9-0.2-1.3c-0.5-1.5-1.8-2.1-3.9-1.9c-0.7,0.1-1.4,0.3-2.1,0.5c-1.1,0.4-2.1,0.9-3,1.5
	c-1,0.5-2,1.1-2.9,1.7l-3.4,2.1c-4.3,2.2-6.2,5.7-5.6,10.4c0.1,3.5-0.1,6.9-0.6,10.3c-0.3,1.9-0.5,3.9-0.7,6l-1.2,11.4
	c-0.1,2.5-1.3,4.1-3.6,4.9l-12.2,4.6c-11.9,4.2-23.6,8.8-35.2,13.8l-4,1.8c-7.5,3-14.8,6.5-21.9,10.5c-3,1.5-5.6,3.4-7.9,5.9
	c-2.6,2.7-3.7,5.8-3.2,9.4l0.4,1.2c0.5,1.4,1.2,2.6,2.3,3.7c1.1,1.1,2.5,1.8,4.3,2.1c1.2,0.2,2.2,0.2,3.2-0.2
	c1.8-0.6,3.2-2.1,4.2-4.6c0.6-1.3,1.5-2.3,2.5-2.9c3.5-2.6,7.3-4.9,11.2-7c14.6-7.9,29.6-14.9,44.9-21.1c2.8-1.3,5.7-2.5,8.6-3.6
	c1.5-0.5,3.1-1.1,4.7-1.8l-0.1,1c-0.1,3.3-0.3,6.2-0.6,8.9l-1.1,22.4c-0.3,9-0.8,18-1.5,27.1c-0.5,7.1-1.1,14.1-1.7,21.2
	c-0.7,8.1-1.4,16.3-2,24.4c-4.8,28-10.7,55.9-17.7,83.5c-3.1,12.1-7,23.8-11.7,35.2c-1.4,3.4-3.3,6.6-5.6,9.7
	c-0.6,1-1.2,1.5-1.7,1.7c-1,0.3-2-0.2-3.1-1.7c-0.7-0.7-1.2-1.4-1.5-2.3c-0.1-0.4-0.2-0.9-0.2-1.3c-0.1-1.6-0.3-3.3-0.5-4.9
	c-0.3-3.1-0.5-6.2-0.7-9.4c0.3-11.3,0.8-22.5,1.6-33.8c0.2-4,0.3-8,0.5-11.9c0.1-2.8,0.3-5.6,0.6-8.4c0.5-6.7,0.7-13.5,0.6-20.4
	c-0.1-2.9-0.6-5.8-1.6-8.6c-1.1-2.7-3-4.6-5.8-5.6c-2.6-0.9-5-2.1-7.2-3.5c-0.6-0.4-1.3-0.9-2.1-1.4c-1.8-0.9-3-2-3.4-3.2
	c-0.5-1.5-0.2-3.3,0.9-5.4c4.8-11.1,8.3-22.7,10.7-34.6c1-3.9,1.2-7.8,0.8-11.8c-0.1-0.7-0.2-1.4-0.4-1.9c-0.8-2.5-2.3-4.2-4.3-5.2
	c-2.4-1.2-5-1.3-7.9-0.3l-0.6,0.2c-2.6,1.4-4.9,3-6.8,5.1c-3.9,4.4-6.7,9.5-8.3,15.2c-3.5,10.7-5.1,21.7-4.8,33.1
	c0.1,3.8,0.7,7.6,2,11.3l0.4,1.2c0.9,2.3,2,4.3,3.3,6.1c-4.2,14.3-10.7,29.7-19.4,46.2c-1.3,2.6-2.5,5.2-3.7,7.9
	c-1.7,3.5-3.6,6.8-5.8,10c-0.6,1-1.2,1.5-1.7,1.7c-0.7,0.2-1.3-0.4-1.8-1.9l-0.1-0.4l-0.7-3.4c-0.7-3.8-1.1-7.6-1.2-11.5
	c-0.3-4.5-0.4-8-0.2-10.6c0.2-2.6,0.5-5.3,1-8c0.2-2.4,0.6-5.6,1.1-9.6c0.3-3.5,0.6-7,0.8-10.6c0.1-2-0.2-3.9-0.8-5.7l-0.8-1.8
	c-1.5-3.1-4.1-4.8-7.7-5c-0.9,0-1.8,0.1-2.6,0.4c-2.1,0.7-3.6,2.1-4.7,4.4c-1,1.7-1.6,3.6-2,5.7l-0.3,1.9c-0.6,2.7-1,5.3-1.2,7.8
	c-0.5,5.2-1.8,10.3-3.8,15.1c-5.8,14.8-13.1,28.9-21.9,42.1c-0.2,0.2-0.4,0.5-0.6,0.9c-0.9,1.5-2,2.8-3.3,3.9
	c-0.2-0.2-0.4-0.5-0.5-0.8l-0.1-0.4c-0.1-0.3-0.1-0.6-0.1-0.9l-0.1-0.4c-0.2-15.8,2.5-31.2,8.2-46c2-4.9,4.6-9.6,7.9-13.9
	c0.7-1,1.3-1.6,1.7-1.7c0.1-0.1,0.3-0.1,0.7-0.1c0.3,0,0.8,0.6,1.6,1.9c0.7,1.1,1.3,2.4,2,3.7c0.2,0.2,0.4,0.5,0.5,0.8
	c0.4,0.6,0.7,1.2,1.1,1.6c0.4,0.4,0.9,0.6,1.7,0.5c0.3,0,0.6,0,0.9-0.1c0.4-0.1,0.7-0.4,1-0.9c0.2-0.5,0.5-1,0.7-1.7
	c0.1-0.2,0.2-0.4,0.2-0.8c0-0.1,0-0.2,0.1-0.3c0.4-3.2,0.1-6.3-0.9-9.4c-0.1-0.3-0.5-1.3-1.2-3.1c-0.7-1.8-2.4-3.5-5.1-5.1
	c-3.9-2-7.8-2.4-11.8-1c-2.2,0.8-4.4,2.1-6.7,3.9c-0.5,0.3-1,0.8-1.4,1.4c-3.2,3.2-5.8,6.9-8,11c-0.5,1.1-1,2.3-1.5,3.4
	c-0.1,0.1-0.2,0.1-0.2,0.2c-0.7,1.5-1.7,3.9-3,7.3c-1.3,3.4-2.7,7.3-4.3,11.7c-2.1,5.6-4.1,10.9-6,15.8c-1.9,4.9-3.3,8.2-4.2,9.7
	c-4.8,10.1-10.6,19.5-17.3,28.2c-0.2,0.2-0.4,0.4-0.5,0.6c-0.2,0.2-0.5,0.5-0.8,1l-1.2,0.4c-0.2-1.5-0.1-3,0.3-4.5l0.1-1
	c2.1-9.6,4.4-19.2,7-28.8c1.8-6.4,2.9-13,3.4-19.5c0.3-3.2,0-6.2-0.8-9.1c-1.8-4.4-4.8-7.2-9-8.2c-2.3-0.6-4.6-0.5-6.8,0.2
	c-1.6,0.6-3.2,1.5-4.8,2.8c-1.8,1.8-3.4,3.8-4.6,5.9c-3.7,5.7-7.1,11.6-10.3,17.7c-6,11.7-11.4,23.5-16.4,35.4c0,0.3-0.2,0.7-0.3,1
	c-0.4,1.2-1,2.3-2,3.5c-0.3-1.4-0.3-2.7,0-3.9l0.1-1c0.3-2.8,0.6-5.7,1-8.6l1.4-12c0.5-3.9,0.6-7.7,0.2-11.5
	c-0.1-2.2-0.6-4.5-1.4-6.7c-0.4-1.2-0.9-2.5-1.5-3.6c-2.6-4.1-6.1-6.4-10.4-6.8c-1.9-0.3-3.8-0.1-5.6,0.5c-2.1,0.7-4,2.1-6,4.1
	c-1,1.4-2,2.8-2.9,4.2c-4.1,6.8-7.1,14-8.9,21.8c-0.3,1.3-0.6,2.6-1,3.8c-2.5,11-5.4,21.8-8.7,32.4c-1.5,4.6-3.6,9.1-6.4,13.5
	l-0.4-1c-0.1-0.3-0.2-0.6-0.2-1.1c-0.1-0.4-0.1-1,0-1.6c0-0.3,0-0.6-0.1-0.9c0.7-16,2.4-31.9,5.1-47.7l-0.1-0.2c0.8-2.7,0.8-5.4,0-8
	c-0.8-2.5-2.3-4.2-4.5-5.1c-1.8-0.8-3.7-0.8-5.8-0.1l-1.2,0.4c-2.8,1.6-4.8,3.8-6,6.6c-1.2,2.7-2,5.4-2.4,8.3
	c-0.5,0.2-1.1,0.4-1.6,0.7l-0.2,0.1c-25.5,11.9-50.5,24.7-75.1,38.4c-1.8,1.1-3.6,2.1-5.4,3c-4.4,2.4-8.7,4.8-12.9,7.2
	c-2.9,1.8-5.9,3.5-8.8,5.1l-0.4,0.1c-0.4,0.3-0.8,0.5-1.4,0.7c-0.1,0-0.5,0.1-1,0.2c-0.5,0.1-1.2-0.2-2-0.8
	c-6.7-4.5-13.9-7-21.5-7.8c-9.1-1.2-18.1-1.5-26.9-0.9c-36.2,2.1-71.2,8.4-105.2,18.9c-5.9,1.9-11.8,3.8-17.6,5.8
	c-8.7,2.8-17.4,5.5-26.2,8c-4,1.2-8.1,2.1-12.2,2.5c-1.2,0.2-1.9,0.2-2.1-0.2l-0.1-0.2c-0.1-0.4-0.2-1.1,0-2.1
	c1.3-4.3,3-8.4,5.2-12.3c4-8,8.5-15.5,13.6-22.8c39.2-57.3,88.5-103.5,147.7-138.5c10.6-6.5,21.9-12,33.7-16.3l3.3-1.1
	c7.8-2.7,16-4,24.6-4c4.6,0.1,9.2,1.1,13.6,2.9c4.7,2.2,7.9,5.7,9.5,10.3c0.2,0.7,0.4,1.5,0.6,2.3c0.5,3.4,0.7,6.7,0.4,10
	c-0.5,6.9-1.9,13.6-4,20c-5,16.4-12,31.6-20.9,45.7c-1.1,1.8-2.2,3.6-3.4,5.5c-1.9,2.9-3.7,5.9-5.5,8.8c-0.7,1.1-1.2,2.3-1.6,3.5
	c0,0.3,0,0.7,0.1,1.1c0.1,0.4,0.4,0.8,0.6,1.2c0.6,0.4,1.2,0.5,1.9,0.3l0.4-0.1c1.2-0.5,2.1-1.3,2.9-2.4l0.1-0.3
	c16.4-19.2,28.6-41.3,36.5-66.1c2.2-6.9,3.5-14.1,3.7-21.5c0-4.9-0.7-9.3-2-13.3c-3.2-9.3-10.1-16.1-20.8-20.5
	c-8.2-3-16.5-4.3-24.7-3.8c-9.4,0.6-18.5,2.4-27.3,5.4l-1.4,0.5c-20.6,7.9-39.8,18.1-57.8,30.5c-38.3,25.6-72,56.3-101.3,92.2
	c-12.8,15.1-24.4,31.1-34.8,48.1c-4.3,7.1-7.9,14.6-10.9,22.5c-2.2,5.2-3.3,10.7-3.3,16.5c0.2,2.5,0.7,4.8,1.4,6.9
	c2.3,6.7,7.4,11,15.3,12.7c4,0.6,8,0.6,11.9-0.1c7.2-1.2,14.4-3,21.4-5.2l19.5-6.2c12-3.9,24.1-7.6,36.2-11
	c22.5-6.4,45.4-11.2,68.8-14.5c11.5-1.8,23.1-2.2,34.9-1.3l0.2-0.1c1.6,0.2,3.4,0.5,5.4,0.9c1,0.3,1.6,0.6,1.7,1
	c0.1,0.3-0.3,0.7-1.2,1.3c-1.1,0.8-2.2,1.5-3.2,2c-40.4,24.2-78.8,51.2-115.2,81.1c-27.3,21.9-51.9,46.5-73.8,73.8
	c-8.3,10.3-15.5,21.3-21.8,32.9c-3.7,6.3-6.5,13-8.5,20.1c-1.8,5.5-2.4,11.2-1.9,17.2c0.3,2.2,0.7,4.2,1.4,6
	c2.6,7.5,7.9,12.5,16.1,15c4.6,1.3,9.2,1.7,13.9,1c6.3-0.9,12.4-2.4,18.2-4.4c5.5-1.9,10.8-4.2,16-7c21.3-11.1,41-24.7,58.9-40.7
	c27.9-25,53.4-52.3,76.6-81.9c12.2-14.9,23.5-30.5,33.8-46.9c8.1-12.2,14.1-25.6,18-40.1c2.4-8.3,2.5-16.8,0.5-25.4
	c-0.8-2.5-0.2-4.4,1.9-5.9c8.9-6.6,18.3-12.5,28.1-17.9l26.6-15c12.6-7.3,25.6-14,39.1-20c-2,13.7-3,27.5-3.1,41.5
	c-0.1,4.5,0.2,8.9,1,13.2c0.2,1.5,0.5,2.9,1,4.3c0.8,2.5,2.1,4.7,3.7,6.8c3,3.3,6.3,4.7,9.9,4.2c0.7-0.1,1.4-0.2,1.9-0.4
	c2.9-1,5.1-3.1,6.6-6.4c0.6-1.4,1-2.9,1.3-4.3c0.9-4,2-8,3.3-11.9c0.8-2.1,1.5-4.2,2.2-6.3c3.4-9.9,6.7-19.7,9.9-29.5
	c3-9.1,6.5-18.1,10.6-26.8c0.1,0,0.2-0.2,0.3-0.3c0.2-0.4,0.4-0.8,0.6-1.1c0.2-0.4,0.6-0.7,1.2-0.9l-0.3,1.9c0,1.2-0.1,2.4-0.2,3.5
	c-0.6,5-1.2,9.8-1.9,14.6c-0.3,2.7-0.6,5.5-1,8.4c-1.4,10.7-1.9,21.5-1.4,32.2l0.1,0.2c-0.1,2.3,0.2,4.7,1,7
	c1.5,4.4,4.5,6.8,9.1,7.2c1.6,0.1,3-0.1,4.4-0.6c2.3-0.8,4.2-2.5,5.6-5.1c0.6-1.3,1.1-2.5,1.5-3.7c3.1-9.8,6.5-19.4,10.1-28.9
	l3.1-8.4c4.3-12,10-23.3,17-33.8c0-0.3,0.2-0.6,0.4-0.8c0.5-1.1,1.4-2.2,2.6-3.2c0.1,1.6,0,3.1-0.4,4.3c-0.1,0.2-0.2,0.4-0.2,0.8
	c-0.2,0.7-0.4,1.3-0.5,1.8c-2.4,9.1-4.6,18.2-6.5,27.5c-1.1,4.8-1.7,9.8-1.8,14.9c-0.2,3.4,0.2,6.7,1.3,9.9c0.3,1,0.7,1.8,1.1,2.6
	c2.3,4.4,5.5,7,9.5,7.8c1.9,0.3,3.8,0.1,5.6-0.5c2.1-0.7,4.1-2,6-3.9c1.7-1.8,3.2-3.8,4.6-5.9c0.5-1.1,1.1-2.1,1.7-3.1
	c2.5-4.2,4.9-8.6,7-13.2c1.4-3.4,4.3-10.2,8.5-20.3c0.4-1,0.8-2.1,1.3-3.1c-0.1,5.4,0.1,10.8,0.7,16.2c0.1,1.8,0.5,3.5,1.1,5.1
	c0.6,1.6,1.4,3.3,2.4,4.9c2,3.3,4.8,5.2,8.1,5.7c1.8,0.3,3.5,0.2,5.1-0.4c1.6-0.6,3.2-1.5,4.6-2.7c1.9-1.7,3.5-3.8,4.8-6.2
	c2.9-4.6,5.3-9.5,7.4-14.7c2.2-5.6,4.4-11.2,6.7-16.8c1.6-4.2,3.3-8.4,4.9-12.5l0.1-1c0.3-1,1-2.1,2.1-3.2c0,0.8-0.1,1.4-0.1,1.9
	c0.1,0.4,0.2,0.8,0.2,1.1c0,0.9,0,1.9,0.1,3c-0.2,6,0.7,12.6,2.8,19.7l0.2,0.6c1.6,4.8,4.5,8.7,8.6,11.8c3.7,2.4,7.4,3.2,11.2,2.4
	l1.4-0.5c2.9-1,5.4-3.1,7.5-6.2c4.4-7.6,8.9-17.9,13.3-30.8s8.3-25.2,11.8-37c0.6-1.9,1.2-3.8,1.7-5.6c2.5,1.9,5.5,3.3,8.8,4.3
	c1.2,0.4,1.9,0.8,2.1,1.4l0.1,0.4c0.1,0.4,0.2,1,0.2,1.8c-2,23.5-3.2,47-3.7,70.6c-0.1,8.2,0.7,15.7,2.4,22.6
	c3,8.6,8.5,13.6,16.5,14.8c2.8,0.6,5.4,0.5,7.9-0.4c1.9-0.7,3.8-1.8,5.5-3.5c3-3.2,5.2-6.8,6.4-10.9c5.8-15.9,10.7-33.1,14.9-51.6
	c1.6-7,3-14,4.5-21c-0.3,6.2-0.7,12.5-1,18.8c-0.6,15.2-0.8,29.7-0.5,43.6c0,13.1-0.2,27-0.8,41.6c-0.4,8.2,0,16.5,1.3,24.6
	c0.2,1.6,0.6,3.2,1.1,4.7c3.1,9,10,15,20.7,17.7c0.3,0,0.7,0.1,1.2,0.1c0.5,0,0.9-0.1,1.3-0.2c0.5-0.2,0.7-0.7,0.4-1.5l-0.2-0.6
	c-0.6-1.3-1.1-2.7-1.6-4c-1.2-3.4-1.7-7.1-1.7-10.9c-0.1-0.9-0.2-1.6-0.2-2.1c0-0.5,0-1,0-1.4c0-0.4,0-0.7,0.1-0.8
	c0-0.2,0-0.3,0-0.4c0-0.1,0-0.2,0.1-0.4l-0.1-0.2l0.1-0.3c0-0.1-0.1-0.4-0.1-0.8c0-0.4-0.1-0.9,0-1.5c0-0.6,0-1.3-0.1-2
	c0.1-23.6,0.4-51.9,1.1-85c0.7-33.1,1.5-63.5,2.4-91.4c0.5-6.8,1-13.5,1.6-20.3c1.6-18.6,2.9-37.3,3.9-56c0.1-0.6,0.1-1.3,0-1.9
	c0.5-12.9,1.3-25.7,2.3-38.4c0.2-1.7,0.7-3.1,1.4-3.9c0.5-0.6,1.4-1.2,2.5-1.5l0.8-0.3c5.8-2,11.6-3.8,17.4-5.5
	c6.1-1.8,12.1-3.7,18-5.7c2.8-0.8,5.5-1.4,8.3-1.9l3-0.6l13.7-2.8l0.4-0.1c0.3,0,0.6,0,0.9-0.1c1.1-0.4,1.7-1.3,1.8-2.7
	c-0.1-1.2-0.3-2.3-0.6-3.2C766.8,57.8,765.6,56.1,763.7,54.4 M613.5,186.7c0-0.3,0.1-0.6,0.1-1c0-0.3,0.1-0.6,0.2-0.8
	c1-6,2.5-12,4.4-18c0.3,1.4,0.3,3.4-0.1,6c-0.4,2.6-1,5.3-1.8,8.1c-0.8,2.8-1.7,5.1-2.6,7l-0.1-0.4
	C613.5,187.3,613.5,187,613.5,186.7 M245.5,370.7c0.1,1.6-0.1,3.2-0.5,4.5c-1.2,5-2.8,9.8-4.8,14.3c-4.3,9.8-9.4,19.1-15.3,27.9
	c-5.3,7.9-10.8,15.6-16.5,23.1c-26.6,35.1-55.9,67.5-87.9,97.2c-16,15-33.3,28.3-51.8,39.9c-6.2,3.8-13.7,7.5-22.6,11.1l-2.1,0.7
	c-0.8,0.3-2,0.7-3.6,1.1c-1.6,0.5-3.6,0.9-6.1,1.3c-6,0.7-9.8-1-11.2-5.2c-0.6-1.8-0.8-4.1-0.5-6.9c0.6-4.6,1.7-9,3.4-13.1
	c4.6-11.3,10.3-21.8,17.3-31.4c5.5-8,11.5-15.6,17.9-22.9c17.7-20.3,36.6-39.3,56.5-57.1c23.9-21,49-40.5,75.1-58.4
	c12.3-8.5,25-16.2,38.3-23.1c1.3-0.7,2.6-1.5,4-2.3c1-0.6,2-1.2,3.1-1.7c0.8-0.4,1.6-0.8,2.4-1l1.4-0.5c1.1-0.4,1.9-0.3,2.3,0.1
	c0.4,0.2,0.6,0.5,0.8,1.1C245.4,369.7,245.4,370.1,245.5,370.7 M487.5,464.1c-0.6-1.5-1.5-2.8-2.5-4c0-0.1-0.2-0.2-0.4-0.3
	c-0.3-0.4-0.6-0.7-0.9-1c-0.3-0.3-0.8-0.3-1.3-0.1c-0.5,0.2-0.9,0.5-1.1,0.8s-0.3,0.8-0.3,1.2c-0.1,0-0.2,0.1-0.1,0.3
	c-0.7,2.5-0.9,5.1-0.8,7.8c0.3,4.5,0.5,9,0.4,13.4l-0.1,3.7c-0.5,13.9-2.2,27.6-5.3,41.1L474,533c-1.8,10.6-4.5,20.8-8.3,30.8
	c-1.3,3.8-3.2,7.6-5.8,11.4c-0.3-0.4-0.4-0.6-0.5-0.8c-0.3-0.4-0.5-0.6-0.7-0.7l-1.2-3.5c-5.4-16.8-7.4-34.1-6-51.9
	c0.2-2.2,0-4-0.5-5.6c-1-2.9-3-4.8-6.1-5.7c-2-0.4-3.8-0.3-5.4,0.2c-2.5,0.9-4.5,2.9-6.2,6c-1.1,2.5-1.7,5.3-1.8,8.2
	c-0.2,2.6-0.2,5.2-0.2,7.9c-0.1,0.1-0.2,0.2-0.2,0.3c-1.8,3.4-4.4,7.8-7.8,13.5c-3.5,5.6-7.6,10.8-12.6,15.5
	c-2.4,2.3-4.8,3.9-7.1,4.7c-2.5,0.8-5,0.8-7.4-0.2c-2.2-1.2-3.9-3.3-4.9-6.4l-0.8-2.3c-2-3.7-5.1-5-9.3-3.7
	c-2.9,1.3-4.7,3.5-5.3,6.6c-0.4,2.8-0.2,5.4,0.6,7.8c0.4,1.2,1,2.4,1.7,3.6c0.3,0.5,0.6,1,0.8,1.6c0.5,1.4,0.5,2.8,0.1,4.3
	c-2.6,11.2-6.9,21.6-12.7,31.4c0,0.3-0.2,0.6-0.6,0.9c-0.1,0.2-0.2,0.4-0.5,0.6l-0.4-1c-0.1-0.3-0.2-0.6-0.3-0.9
	c-0.1-0.3-0.1-0.8,0-1.3c0-0.1,0-0.3,0.1-0.5c0-13.5,2-26.6,5.9-39.4c1.9-6,4.6-11.7,7.9-17.2l1.5-2.3c0.3-0.4,0.6-0.8,0.8-1.2
	c0.3-0.4,0.7-0.7,1.1-0.8c0.7-0.2,1.3,0,1.9,0.7c1.2,1.3,2.2,2.7,3,4.2c0.9,1.7,2.3,2.6,4.1,2.7c0.5,0,0.8,0,1.1-0.1
	c0.5-0.2,1-0.5,1.5-1.1c0.4-0.5,0.7-1.2,0.9-2c1.3-4.3,1.2-8.5-0.1-12.6c-0.5-1.5-1.2-3-2-4.4c-2.3-3.7-5.3-6-9-7
	c-2.7-0.8-5.5-0.7-8.4,0.3c-1,0.3-1.9,0.7-2.8,1.2c-3.1,1.8-5.6,4.1-7.7,7c-3.3,4.3-6,9-8.3,14.1c-1.1,2.7-2.2,5.5-3.2,8.2
	c0,0,0,0,0,0c-0.4,0.6-0.8,1.4-1.3,2.3l-0.4,0.8c-0.2,0.7-0.4,1.3-0.5,1.8c-8.8,21.2-15.5,36.6-19.9,46c-3.1,7-6.9,13.6-11.2,19.7
	c-0.2,0.2-0.4,0.5-0.6,0.9c-0.4,0.6-0.9,1.1-1.4,1.6c-0.5,0.5-1.1,0.8-1.8,1.1c-0.3-0.4-0.5-0.8-0.6-1.2l-0.2-0.6
	c-0.2-0.5-0.3-1.1-0.4-1.7c-0.1-0.3-0.1-0.6-0.1-0.9c-0.9-7.6-1.2-15.4-0.8-23.2c1.7-45,5.5-89.6,11.5-133.9
	c0.3-1.8,0.6-3.5,0.8-5.1c1.5-13.2,3.7-26.3,6.6-39.2c0.3-1.3,0.5-2.7,0.5-4.1c0.1-1,0.1-1.8-0.1-2.5c-0.3-0.8-0.9-1.5-1.8-1.9
	c-1-0.7-2.1-0.9-3.2-0.5c-0.5,0.2-1,0.5-1.5,1l-3.3,2.5c-1.8,1.4-3.5,2.9-5.1,4.5c-4,3.6-6.6,8.4-7.8,14.1c-2,9.4-3.6,18.9-4.8,28.5
	c-5.6,43.2-9.3,86.7-11.1,130.3c-0.8,10.3-0.6,20.7,0.5,31.1c0.2,3.4,0.9,6.8,2.1,10.1c0.7,1.9,1.5,3.8,2.4,5.6
	c4.5,6.9,10.2,9.2,17,6.8c0.8-0.3,1.6-0.6,2.4-1c4.1-2.5,7.1-5.8,9.2-10c2.7-4.7,5-9.7,6.9-14.8l0.1-0.3c2.3-6.8,4.6-13.6,6.8-20.5
	l3.2-8.7c-0.4,5.6-0.4,11.3-0.1,17c0.1,2,0.3,3.9,0.8,5.7c0.1,1.8,0.5,3.6,1.1,5.3c0.7,2.1,1.7,4,2.9,5.9c3,4.2,6.5,6.7,10.8,7.3
	c2.6,0.5,5.1,0.3,7.4-0.5c1.6-0.6,3.3-1.5,5-2.8c3.9-3.3,6.7-7.3,8.3-12c1.8-4.7,3.2-9.6,4.2-14.5c2-8,3.6-16.2,4.9-24.6
	c0-0.9,0.2-1.5,0.7-1.9c0.2-0.2,0.5-0.4,0.8-0.5c0.4-0.1,0.9-0.2,1.6-0.1c1.9-0.3,3.6-0.8,5.3-1.3c9.2-3.1,17.4-9.7,24.5-19.6
	c3.8-5.3,6.8-10,9-14.3c0.8,12,3.1,23.6,7,35c0.7,2.1,1.5,4.1,2.3,6.1c1.8,4.3,4.1,8.2,7,11.8c4.3,4.2,8.9,5.5,13.7,3.8
	c1.4-0.5,2.8-1.2,4.3-2.2c2.2-1.7,3.9-3.7,5.2-6.2c6.4-11.8,11.7-29.1,16-52s6-41.3,5-55.3c-0.6-4.9-1.6-9.5-3.2-14.1
	C488.9,467.7,488.3,465.9,487.5,464.1"/>
<path class="st0" d="M669.7,429.9c-8.9,0-16.1,7.2-16.1,16.1s7.2,16.1,16.1,16.1s16.1-7.2,16.1-16.1S678.6,429.9,669.7,429.9
	 M673.9,456.2l-4.3-8.2h-2.2v8.2h-4.5v-20.5h8c1,0,2,0.1,3,0.3c0.9,0.2,1.8,0.5,2.5,1c0.7,0.5,1.3,1.1,1.7,1.9
	c0.4,0.8,0.6,1.8,0.6,3c0,1.5-0.4,2.7-1.1,3.7c-0.8,1-1.9,1.7-3.3,1.9l5.2,8.7H673.9z"/>
<path class="st0" d="M672.7,439.9c-0.3-0.2-0.7-0.3-1.1-0.3c-0.4-0.1-0.8-0.1-1.2-0.1h-3v4.7h2.7c0.4,0,0.8,0,1.3,0
	c0.5,0,0.9-0.1,1.2-0.3c0.4-0.1,0.7-0.4,0.9-0.7s0.4-0.7,0.4-1.3c0-0.5-0.1-0.9-0.3-1.2C673.3,440.3,673.1,440.1,672.7,439.9"/>
</svg>
